<?xml version="1.0" encoding="UTF-8"?>
<svg width="250mm" height="100mm" version="1.1" viewBox="0 0 250 100" xmlns="http://www.w3.org/2000/svg" xmlns:cc="http://creativecommons.org/ns#" xmlns:dc="http://purl.org/dc/elements/1.1/" xmlns:rdf="http://www.w3.org/1999/02/22-rdf-syntax-ns#">
<metadata>
<rdf:RDF>
<cc:Work rdf:about="">
<dc:format>image/svg+xml</dc:format>
<dc:type rdf:resource="http://purl.org/dc/dcmitype/StillImage"/>
<dc:title/>
</cc:Work>
</rdf:RDF>
</metadata>
<g stroke="#000">
<path transform="scale(.26458)" d="m771.25 89.807-323.12 10.354-2.8418-3.2188-29.799 0.0625-1.4512 3.4727-2.5898 0.12696-1.3887-3.7891-1.666-2.4336-13.035 0.17969-2.1426 5.5352h-0.89257l-2.1445-2.8574h-31.25l0.17969 3.75-323.39-10 0.14648 2.6074 324.76 14.395-0.25391 2.7774h29.547l2.2734-2.0195 1.7676 0.25195 5.0508 6.3125-0.75782 31.568-3.5352 3.0293v3.7891h-19.445l-0.75781 5.3027 4.041 2.5254-0.50586 9.5957-26.768 0.50586-10.355 4.041-27.525 23.232 3.0293 9.3457-36.617 50.76h-17.172l-28.537-10.607c-13.992 6.1798-28.406 8.4026-36.714 21.53-1.2057 2.0709-0.91637 3.8726 0.85291 5.2398l55.508-0.43164 9.6426 24.822 76.965 1.0703-0.89258 10.357-3.0371 2.6797-1.6055 13.928-28.375 0.80274c-2.708-0.33905-6.5456-4.2297-10.375-9.5527l-5.1797 3.5723c3.4362 4.5097 9.6511 12.294 14.594 12.32l153.62-3.3926 3.0352-1.9648 0.35742-3.5703-7.1426-1.0723-0.35742-3.2148 1.7852-24.643 5.7148-1.0703 2.1426-2.5 83.215-16.787 17.143-10.355 29.643-37.5 13.572-4.6445 230.18-20.98 27.768 51.875 17.412-0.17969 7.6777-3.6602-15.715-46.16 5.1797-3.3945 33.928 26.072 8.3926-10.715-35.713-24.285 7.5-6.4277-19.525-11.256 26.77-76.014-20.961 0.75781-7.3242 4.5449-35.102 61.619-37.629-26.264-9.3438 11.617 35.607 24.496-2.0195 2.2734-233.09 11.111-61.365-29.801-13.639-0.25196-9.5957-2.7773-23.486-0.75781 3.0312-2.0195-1.0098-10.355h-12.123l-11.869 12.627-29.041-0.75781-21.213-2.5254-1.5156-9.8477-3.5352-0.75781 1.0098-25.76 1.5156-2.7773 0.75586-3.5352h3.5371l2.0195 1.5137 7.3242-0.25195 1.0098 2.2734 8.5859-0.50586 3.0312-2.0195h11.111l0.75782-3.2832 323.75-12.879zm-394.34 120.08 51.012 0.25195-4.166 20.457-52.15-0.12696zm-20.709 0.37891-8.082 21.213-31.818-0.75781 12.627-20.203zm-42.553 25.758 33.082 1.5156-3.7871 14.773-39.648-0.88281zm108.72 0.25391-2.2715 16.92-54.549-0.63086 4.4199-16.164zm18.256 61.406-1.5176 25-2.5 0.80273-0.625 3.125-85.357 0.80469 0.0898-2.5898 1.1602-2.1426-0.0898-15.357 4.9258-1.9805 0.3789-3.7871 75.945-0.125 3.6621-3.2148z" stroke-width="1px"/>
<path d="m82.92 52.626c-4.0618 0.10738-9.5054 2.2217-20.981 13.096" fill="none" stroke-width=".665"/>
<path d="m52.452 72.805c8.6808 6.9249 12.345 5.691 17.238 6.4534" fill="none" stroke-width=".665"/>
<path d="m239.66 70.25c-2.2275 0.22855-4.3144-0.16176-5.879-2.85" fill="none" stroke-width=".465"/>
</g>
</svg>
