<?xml version="1.0" encoding="UTF-8"?>
<svg width="250mm" height="100mm" version="1.1" viewBox="0 0 250 100" xmlns="http://www.w3.org/2000/svg" xmlns:cc="http://creativecommons.org/ns#" xmlns:dc="http://purl.org/dc/elements/1.1/" xmlns:rdf="http://www.w3.org/1999/02/22-rdf-syntax-ns#">
<metadata>
<rdf:RDF>
<cc:Work rdf:about="">
<dc:format>image/svg+xml</dc:format>
<dc:type rdf:resource="http://purl.org/dc/dcmitype/StillImage"/>
<dc:title/>
</cc:Work>
</rdf:RDF>
</metadata>
<path transform="scale(.26458)" d="m771.25 89.807-323.12 10.354-2.8418-3.2188-29.799 0.0625-1.4512 3.4727-2.5898 0.12696-1.3887-3.7891-1.666-2.4336-13.035 0.17969-2.1426 5.5352h-0.89257l-2.1445-2.8574h-31.25l0.17969 3.75-323.39-10 0.14648 2.6074 324.76 14.395-0.25391 2.7774h29.547l2.2734-2.0195 1.7676 0.25195 5.0508 6.3125-0.75782 31.568-3.5352 3.0293v3.7891h-19.445l-0.75781 5.3027 4.041 2.5254-0.50586 9.5957-26.768 0.50586-10.355 4.041-27.525 23.232 3.0293 9.3457-36.617 50.76h-17.172l-27.219-10.117c42.962-40.63 63.122-48.337 78.014-48.73l-0.11914-1.2227c-15.758 0.4166-37.946 8.692-81.402 49.873l0.87891 0.14648c-13.575 5.762-27.355 8.2549-35.404 20.973-1.2057 2.0709-0.91576 3.873 0.85352 5.2402h0.06445l-0.25391 0.47656c33.001 26.326 46.824 21.528 65.016 24.363l0.19922-0.77149 0.125 0.32227 76.965 1.0703-0.89258 10.357-3.0371 2.6797-1.6055 13.928-28.375 0.80274c-2.708-0.33905-6.5456-4.2297-10.375-9.5527l-5.1797 3.5723c3.4362 4.5097 9.6511 12.294 14.594 12.32l153.62-3.3926 3.0352-1.9648 0.35742-3.5703-7.1426-1.0723-0.35742-3.2148 1.7852-24.643 5.7148-1.0703 2.1426-2.5 83.215-16.787 17.143-10.355 29.643-37.5 13.572-4.6445 230.18-20.98 27.768 51.875 17.41-0.17969-0.75586 0.43945c3.0329 5.211 6.6441 8.284 10.594 9.8906 3.9496 1.6066 8.1869 1.7544 12.475 1.3144l-0.18359-1.75c-4.1312 0.42388-8.0498 0.26759-11.627-1.1875-3.5616-1.4488-6.8335-4.1772-9.7051-9.0859l6.8828-3.2813-15.715-46.16 5.1797-3.3945 33.928 26.072 8.3926-10.715-35.713-24.285 7.5-6.4277-19.525-11.256 26.77-76.014-20.961 0.75781-7.3242 4.5449-35.102 61.619-37.629-26.264-9.3438 11.617 35.607 24.496-2.0195 2.2734-233.09 11.111-61.365-29.801-13.639-0.25196-9.5957-2.7773-23.486-0.75781 3.0312-2.0195-1.0098-10.355h-12.123l-11.869 12.627-29.041-0.75781-21.213-2.5254-1.5156-9.8477-3.5352-0.75781 1.0098-25.76 1.5156-2.7773 0.75586-3.5352h3.5371l2.0195 1.5137 7.3242-0.25195 1.0098 2.2734 8.5859-0.50586 3.0312-2.0195h11.111l0.75782-3.2832 323.75-12.879v-4.7988zm-394.34 120.08 51.012 0.25195-4.166 20.457-52.15-0.12696 5.3047-20.582zm-20.709 0.37891-8.082 21.213-31.818-0.75781 12.627-20.203 27.273-0.25195zm-42.553 25.758 33.082 1.5156-3.7871 14.773-39.648-0.88281 10.354-15.406zm108.72 0.25391-2.2715 16.92-54.549-0.63086 4.4199-16.164 52.4-0.125zm-168.62 38.459 8.668 22.314c-17.725-2.4292-31.018 1.8519-61.52-21.904l52.852-0.41016zm186.88 22.947-1.5176 25-2.5 0.80273-0.625 3.125-85.357 0.80469 0.08984-2.5898 1.1602-2.1426-0.08984-15.357 4.9258-1.9805 0.3789-3.7871 75.945-0.125 3.6621-3.2148 3.9277-0.53515z" stroke="#000" stroke-width="1px"/>
</svg>
