<?xml version="1.0" encoding="UTF-8"?>
<svg width="250mm" height="100mm" version="1.1" viewBox="0 0 250 100" xmlns="http://www.w3.org/2000/svg" xmlns:cc="http://creativecommons.org/ns#" xmlns:dc="http://purl.org/dc/elements/1.1/" xmlns:rdf="http://www.w3.org/1999/02/22-rdf-syntax-ns#">
<metadata>
<rdf:RDF>
<cc:Work rdf:about="">
<dc:format>image/svg+xml</dc:format>
<dc:type rdf:resource="http://purl.org/dc/dcmitype/StillImage"/>
<dc:title/>
</cc:Work>
</rdf:RDF>
</metadata>
<g transform="translate(0,-197)">
<path transform="matrix(.26458 0 0 .26458 0 197)" d="m156.77 89.135-6.1856 6.8828-33.125 1.5977c-24.133 1.7282-29.73 11.982-35.52 22.148-19.21 2.5415-40.148 2.8027-48.125 20.15-3.816 11.337 8.0867 21.865 12.637 25.611 14.114 10.775 28.559 19.242 43.205 26.297l0.033203 21.688 1.3867 0.26953 5.043-19.232s14.335 5.0685 22.525 7.5078c8.19 2.4393 27.174 7.1875 27.174 7.1875-10.671 42.633-13.756 62.358-13.861 75.934 9.6721-19.672 14.656-46.377 19.086-73.912l4.7598 1.0879-0.98828 16.809 6.9141 6.9141 35.135 6.9121-2.1172 14.393 23.281 4.2324 5.9258-13.121 6.4902-5.9258 39.191 6.5957-6.0176 28.811a25.413 25.413 0 0 0-2.7617-0.16015 25.413 25.413 0 0 0-25.412 25.412 25.413 25.413 0 0 0 25.412 25.412 25.413 25.413 0 0 0 25.414-25.412 25.413 25.413 0 0 0-1.1074-7.3418l52.258-37.287 1.8359 0.25195c128.05 14.414 214.21 37.425 417.54 36.396l25.148 15.18 0.45898-0.53711a10.027 10.027 0 0 0-0.97461 4.2812 10.027 10.027 0 0 0 10.027 10.027 10.027 10.027 0 0 0 10.027-10.027 10.027 10.027 0 0 0-10.027-10.025 10.027 10.027 0 0 0-5.6191 1.7324l0.47461-0.55469-9.043-11.99 145.51 1.8418-3.4512-10.426-5.8926-3.6719-0.12891-12.707 6.6543-20.291 6.2988-109.11c-9.5674-7.5302-18.084-12.411-28.027-16.182l-24.828-3.3008c-10.61 0.76437-23.429 2.1398-34.893 7.6094l-76.342 68.1c-8.9128 4.9347-17.825 6.8256-26.738 4.9902l-136.29-19.953c-147.53-28.575-296.64-68.889-442.28-83.311l2.0957-4.7871 17.561-0.5-19.754-2.4941zm-63.654 20.002 12.971 3.2949-5.041 10.475-14.914-3.2441 6.9844-10.525zm16.211 4.291 5.2383 1.1973-4.1894 10.377-5.6387-1.6484 4.5898-9.9258zm9.3301 2.4942 14.816 2.793-2.543 14.818-20.004-2.3945 7.7305-15.217zm147.76 43.949 18.855 3.0918-3.5898 13.969-19.055-3.5918 3.7891-13.469zm44.406 9.2227 18.25 3.6465-3.6914 13.77-18.457-3.7891 3.8984-13.627zm44.207 9.0762 17.43 3.748-3.7773 13.672-17.26-3.793 3.6074-13.627zm44.023 9.8594 15.17 2.0449-0.91602 3.457c-4.7515-2.1095-10.001-1.5583-15.309-0.70313l1.0547-4.7988zm44.516 8.043 16.51 3.9512-2.3965 12.559-11.359-2.3301c-1.0105-1.7493-2.2976-3.3937-4.7988-4.584l2.0449-9.5957zm43.566 8.9961 17.883 3.9922-3.9902 12.92-17.711-3.8438 3.8184-13.068zm44.572 9.2793 16.662 3.8887-3.5938 12.973-16.961-4.1914 3.8926-12.67zm-257.79 35.512 56.113 7.7168-47.049 33.211a25.413 25.413 0 0 0-14.611-11.84l5.5469-29.088z" stroke="#000" stroke-width="1.5803px"/>
</g>
</svg>
