<?xml version="1.0" encoding="UTF-8"?>
<svg width="250mm" height="250mm" version="1.1" viewBox="0 0 250 250" xmlns="http://www.w3.org/2000/svg" xmlns:cc="http://creativecommons.org/ns#" xmlns:dc="http://purl.org/dc/elements/1.1/" xmlns:rdf="http://www.w3.org/1999/02/22-rdf-syntax-ns#">
<defs>
<clipPath id="b">
<path d="m224.95 164.9-129.12-129.12h129.12z" fill="none" stroke="#000" stroke-width=".26458px"/>
</clipPath>
<clipPath id="a">
<path d="m20 20v210h210l-210-210" fill="none" stroke="#000" stroke-width=".26458px"/>
</clipPath>
</defs>
<metadata>
<rdf:RDF>
<cc:Work rdf:about="">
<dc:format>image/svg+xml</dc:format>
<dc:type rdf:resource="http://purl.org/dc/dcmitype/StillImage"/>
<dc:title/>
</cc:Work>
</rdf:RDF>
</metadata>
<g transform="translate(0,-47)" stroke="#000">
<path d="m20 67v210h210v-210z" fill="none" stroke-width=".26458px"/>
<path transform="matrix(1.6264 0 0 1.6264 -135.85 8.8151)" d="m109.31 46.957 46.92-0.35845c3.1408-0.02849 6.2072 0.17312 8.9756 2.7742l10.499 8.7038s44.39 11.969 44.389 18.278c-0.07 6.878-25.474 6.9775-35.195 6.8922v3.2799l-1.7409 0.05471 0.21793 1.3598-1.3598 3.9716 1.7401 2.6648-2.0666 0.48972-0.17837 3.5197c1.4925 0.60037 2.4706 2.0473 2.4713 3.656-3.3e-4 2.1774-1.7656 3.9422-3.943 3.9421-2.177-3.3e-4 -3.9418-1.7651-3.9421-3.9421 2e-3 -1.7959 1.2179-3.3634 2.9568-3.8125l0.1868-3.3632-2.5016-0.48972 3.3725-7.5611h-1.9589l-0.0884-3.7713-34.278 0.62357zm55.927 2.7513-4.4874 0.38201 6.4134 6.8981 6.6095-0.02687zm-6.3882 0.7455-4.42 0.22214 2.9164 6.2359h6.426zm-6.9486 0.58984-5.1319 0.24486 0.6479 5.7546 6.9637-0.10861z" clip-path="url(#b)" stroke-width=".43081px"/>
<path d="m20 67 210 210m-210-210v210h210v-210z" fill="none" stroke-linejoin="round" stroke-width="10"/>
<path transform="translate(-1.0625e-7 47)" d="m119.98 115.43s2.0294 4.3524-0.31893 6.65l-4.2891 0.12904 0.011 1.959-92.057-2.2907 4.22e-4 2.0855 91.631 3.2829 0.20619 1.2347 9.0576-0.20538 0.82313 4.1172c-12.89 1.2901-22.43 6.2349-31.085 12.146l-5.3527-0.20618 5.7086-8.7798-0.35584-0.27782-8.646 10.087-11.348 0.59227c-16.541 7.819-35.119 12.367-40.941 30.905-0.90335 9.8125 6.7991 10.852 10.498 13.587l1.0978 1.2522-7.2418 0.58192 7.6788 0.1823 1.2013-0.94652c6.256 2.9773 13.565 3.8472 21.041 4.3855 5.308 7.5296 9.6442 15.989 17.911 20.689l68.512 0.0358c1.0225-0.26258 1.2311-0.85977 1.0914-1.6009-0.0703-0.81722-0.78555-1.3413-1.6009-1.8198l0.14568-20.816s2.6985-0.0721 3.9023-0.60502c4.6741-2.0693 23.437-14.643 23.437-14.643zm-38.146 31.278-1.5651 2.3293-6.441 0.14568-1.2379-0.76422c3.0098-1.8545 6.1436-1.4845 9.2439-1.7107zm-13.012 3.794-18.741 40.577c-5.1276-2.5034-17.033-7.99-14.07-14.429 4.4351-12.432 10.75-16.889 32.811-26.148zm18.789 2.4097-4.3234 17.086-19.968 4.8385 8.7487-21.667zm5.1975 0h16.726c1.0798 1.3324 1.7154 3.1978 2.1104 5.3519 0.25684 1.9698 0.23651 3.5837-0.46331 4.3234l-22.696 5.9187zm51.69 40.209-0.41157 7.514-68.037 0.20618-2.6764-3.8084c51.326 2.9321 63.929-0.0754 71.125-3.9118zm-67.419 9.9842 67.008 0.51505 0.1019 9.5114-58.008-0.0725z" clip-path="url(#a)" stroke-width=".40758px"/>
</g>
</svg>
