<?xml version="1.0" encoding="UTF-8"?>
<svg width="250mm" height="250mm" version="1.1" viewBox="0 0 250 250" xmlns="http://www.w3.org/2000/svg" xmlns:cc="http://creativecommons.org/ns#" xmlns:dc="http://purl.org/dc/elements/1.1/" xmlns:rdf="http://www.w3.org/1999/02/22-rdf-syntax-ns#">
<metadata>
<rdf:RDF>
<cc:Work rdf:about="">
<dc:format>image/svg+xml</dc:format>
<dc:type rdf:resource="http://purl.org/dc/dcmitype/StillImage"/>
<dc:title/>
</cc:Work>
</rdf:RDF>
</metadata>
<path d="m20 15a5.0005 5.0005 0 0 0-4.9997 4.9997v210a5.0005 5.0005 0 0 0 4.9997 5.0002h210a5.0005 5.0005 0 0 0 5.0002-5.0002v-210a5.0005 5.0005 0 0 0-5.0002-4.9997zm12.071 9.9999h192.93v192.93l-119.84-119.84 48.584-0.88367 0.14366 6.1335h3.1858l-5.4849 12.297 4.0685 0.79633-0.30334 5.47c-2.828 0.73039-4.8058 3.2798-4.809 6.2007 5.3e-4 3.5406 2.8704 6.4104 6.411 6.411 3.5412 2.1e-4 6.4125-2.8698 6.413-6.411-1e-3 -2.6164-1.5921-4.97-4.0194-5.9464l0.28991-5.7242 3.361-0.79633-2.8298-4.3341 2.2112-6.459-0.3545-2.2112 2.8314-0.0894v-5.334c15.811 0.13881 57.127-0.0231 57.24-11.209 2e-3 -10.261-72.192-29.727-72.192-29.727l-17.074-14.155c-4.5024-4.2303-9.4895-4.5582-14.598-4.5119l-73.002 0.55759zm-7.0704 7.0704 90.374 90.374 9e-3 1.7208-90.384-2.249zm107.88 10.588 13.882 11.796-10.749 0.04393-10.43-11.219zm-10.39 1.2123 8.0057 10.503h-10.451l-4.7429-10.142zm-11.301 0.95963 4.0328 9.5803-11.325 0.17673-1.0537-9.3591zm-86.189 79.19 89.959 3.2225 0.20619 1.2351 6.104-0.1385 3.7083 3.7083 0.0682 0.3421c-12.89 1.2901-22.43 6.2349-31.085 12.146l-5.3526-0.20619 5.7087-8.7798-0.35605-0.27802-8.646 10.087-11.348 0.59272c-16.541 7.819-35.118 12.367-40.941 30.905-0.90334 9.8125 6.7986 10.852 10.498 13.587l1.0981 1.2521-7.2419 0.58188 7.6786 0.18242 1.2015-0.94672c6.256 2.9773 13.565 3.8475 21.041 4.3858 5.308 7.5296 9.6447 15.989 17.911 20.689l68.512 0.0357c1.0225-0.26258 1.2311-0.8593 1.0914-1.6004-0.0703-0.81722-0.7856-1.3415-1.6009-1.82l0.14573-20.816s2.6988-0.0722 3.9026-0.60513c2.8874-1.2783 11.138-6.5576 17.034-10.413l43.632 43.632h-192.93zm56.835 22.685-1.5653 2.3291-6.441 0.14572-1.2376-0.76429c3.0098-1.8545 6.1436-1.4843 9.2439-1.7105zm-13.013 3.7941-18.741 40.577c-5.1276-2.5034-17.033-7.9902-14.069-14.43 4.4351-12.432 10.75-16.889 32.81-26.147zm18.79 2.4097-4.3232 17.086-19.969 4.8385 8.7488-21.667zm5.1976 0h16.726c1.0798 1.3324 1.7149 3.1975 2.11 5.3516 0.25684 1.9698 0.2368 3.584-0.46302 4.3238l-22.696 5.9185zm51.69 40.209-0.41134 7.5143-68.037 0.20619-2.6768-3.8086c51.326 2.9321 63.93-0.0755 71.125-3.9119zm-67.42 9.9844 67.008 0.51522 0.1018 9.511-58.008-0.0723z" color="#000000" color-rendering="auto" dominant-baseline="auto" image-rendering="auto" shape-rendering="auto" solid-color="#000000" style="font-feature-settings:normal;font-variant-alternates:normal;font-variant-caps:normal;font-variant-ligatures:normal;font-variant-numeric:normal;font-variant-position:normal;isolation:auto;mix-blend-mode:normal;shape-padding:0;text-decoration-color:#000000;text-decoration-line:none;text-decoration-style:solid;text-indent:0;text-orientation:mixed;text-transform:none;white-space:normal"/>
</svg>
