<?xml version="1.0" encoding="UTF-8"?>
<svg width="250mm" height="100mm" version="1.1" viewBox="0 0 250 100" xmlns="http://www.w3.org/2000/svg" xmlns:cc="http://creativecommons.org/ns#" xmlns:dc="http://purl.org/dc/elements/1.1/" xmlns:rdf="http://www.w3.org/1999/02/22-rdf-syntax-ns#">
<metadata>
<rdf:RDF>
<cc:Work rdf:about="">
<dc:format>image/svg+xml</dc:format>
<dc:type rdf:resource="http://purl.org/dc/dcmitype/StillImage"/>
<dc:title/>
</cc:Work>
</rdf:RDF>
</metadata>
<path d="m87.989 6.2523-0.66249 1.1472h-0.91312l-0.26355-0.45734h-0.33228l-1.1767 1.1772-3.5905 0.45217-17.501-0.0599c-8.3772-0.2076-20.838 2.0077-30.506 4.7976l3.4396 0.24133c8.0713-1.8304 16.176-3.6407 27.156-3.7414h21.423v4.0432l1.2671 0.0599-0.12092 2.5347 0.66404 0.0605 0.36225 0.72399-0.21652 4.869-4.993-0.69505-0.36225 0.78497 1.1472 0.66352-8.0191 8.2228c-17.14 1.1298-31.636 9.274-42.179 24.048l-0.14263 0.20154 0.14831 0.19327c3.3332 4.3431 6.7875 6.5424 12.065 9.6568 4.8166 3.264 10.288 5.9171 24.79 7.8264l-1.5694 8.3876h-7.0606v2.1079h7.027l-1.9575 7.307h-18.225c-2.9667 0.0515-4.3982-1.4328-5.8079-2.9383l-1.1638 0.67179c1.3797 1.7706 2.4002 3.7212 6.8507 3.9564h55.64v-1.7503h-1.3276v-7.5432h2.6556v-1.9921h-2.8365l0.29198-8.9581 73.269-24.878 4.9491 1.5363h1.0666l6.3159-0.89607 0.59738-3.2856 10.156-0.93896 1.9632 2.8587-4.0111 3.9253 2.3037 2.1337 2.9022-3.1998 5.3335 9.2599 1.2873-0.24133-0.1788 0.0615c0.50673 1.469 1.1421 2.3646 1.9901 2.5957 0.42397 0.11554 0.87926 0.0464 1.3322-0.17932 0.45295-0.22572 0.91213-0.60317 1.3942-1.125l-0.3514-0.32452c-0.45654 0.49417-0.88075 0.83376-1.2578 1.0216-0.37705 0.18789-0.69613 0.22744-0.99219 0.14676-0.58613-0.15972-1.1644-0.87183-1.6469-2.251l2.5203-0.47284-3.4561-13.911 1.1085-0.2558-0.0419-1.4087 1.0237-0.12816 1.2382-1.4506 0.29869-1.0666 1.664-1.6216 1.5787 0.81029 8.4915-9.0041-2.4743-2.1327-11.138 11.308-0.85318-0.85318-1.5782-0.17105 3.2856-15.619 2.3895-0.0847 2.1761-12.247-8.3638-1.5363-8.7054 30.937-8.6191 0.42685-0.0853 0.59738-45.233 1.8779-24.408-4.5237-3.2908-6.2182-13.095-7.4223-10.657-1.4831v-8.5457l-0.18552-0.69298h-1.3276v-3.7817h2.7936l0.28422 0.49247h1.7797l1.0588-1.0588h30.767c17.737 0.45454 35.226 1.8216 52.481 4.0463l1.1767-0.51263c-17.409-2.5895-35.316-3.8866-53.529-4.3868h-28.548l-2.6329-0.31368-0.56121-0.97203h-1.1942l-0.64647 0.37362h-3.9166l-0.72864-0.42065-0.21291-0.79427zm2.2645 8.354h1.2371v8.1158l-1.8206-0.25322v-5.1723l0.58342-0.33641zm-15.176 16.956 10.023 0.46302-0.13074 5.4121-8.4946-0.22117c-13.35-0.4233-20.104 5.9494-25.049 14.243l-6.7887-8.1871c6.3924-5.1256 13.65-8.63 21.575-10.429l1.1911 5.1087 0.4377-0.1018-1.188-5.1025c2.7324-0.59659 5.5421-0.99462 8.4233-1.1849zm2.2614 6.9722 7.2419 0.30128c1.5837 0.01259 1.9833 0.98671 1.7503 2.4748-1.6988 4.9341-4.5661 7.939-8.6506 9.3514 0.98021-3.9621 1.6395-8.2298-1.4878-10.86 0.10394-1.0752 0.31971-1.0178 1.1462-1.2676zm-7.5112 0.69247c0.24922 5.29e-4 0.50033 0.01061 0.75293 0.032 4.6519 0.89993 5.8955 3.1471 5.6725 5.9743-3.4997 14.625-13.159 15.247-17.177 15.573-1.572-0.063-3.3066-0.49291-4.6085-0.96841l-0.18087-5.4317c1.7583-5.5679 7.8156-15.192 15.541-15.178zm-25.542 4.3243 6.8166 8.2207 0.27389-0.22738c-0.64772 1.0907-1.2634 2.2154-1.8604 3.3605l-15.721-0.2527c3.1535-4.2748 6.6644-7.9819 10.491-11.101zm-10.518 12.302 15.138 0.24288c-1.4251 2.8257-2.7547 5.7567-4.1408 8.6382-4.8467-2.8678-7.9536-5.1283-10.997-8.8811zm63.727 17.2-0.05943 7.4228-21.665-7.3024zm-23.777 0.96531 21.062 7.3024-22.389-0.0605zm-1.9906 9.3539 26.07 0.061 0.05943 7.4822h-27.095z" stroke="#000" stroke-width=".47793px"/>
</svg>
