<?xml version="1.0" encoding="UTF-8"?>
<svg width="250mm" height="100mm" version="1.1" viewBox="0 0 250 100" xmlns="http://www.w3.org/2000/svg" xmlns:cc="http://creativecommons.org/ns#" xmlns:dc="http://purl.org/dc/elements/1.1/" xmlns:rdf="http://www.w3.org/1999/02/22-rdf-syntax-ns#">
<metadata>
<rdf:RDF>
<cc:Work rdf:about="">
<dc:format>image/svg+xml</dc:format>
<dc:type rdf:resource="http://purl.org/dc/dcmitype/StillImage"/>
<dc:title/>
</cc:Work>
</rdf:RDF>
</metadata>
<g transform="translate(0,-197)" stroke="#000">
<path transform="matrix(.26458 0 0 .26458 0 197)" d="m332.56 23.631-2.5039 4.3359h-3.4512l-0.99609-1.7285h-1.2559l-4.4473 4.4492-13.57 1.709-66.145-0.22656c-31.662-0.78463-78.76 7.5881-115.3 18.133l13 0.91211c30.506-6.9179 61.138-13.76 102.64-14.141h80.971v15.281l4.7891 0.22656-0.45703 9.5801 2.5098 0.22852 1.3691 2.7363-0.81836 18.402-18.871-2.627-1.3691 2.9668 4.3359 2.5078-31.975 32.785 40.625 1.877-0.49414 20.455-32.105-0.83594c-76.394-2.4224-95.657 54.018-120.53 105.43 18.296 12.452 38.884 22.565 94.068 29.83l-5.9316 31.701h-26.686v7.9668h26.559l-7.3984 27.617h-68.881c-11.213 0.19465-16.623-5.4151-21.951-11.105l-4.3984 2.5391c5.2144 6.6919 9.0715 14.065 25.893 14.953h210.29v-6.6152h-5.0176v-28.51h10.037v-7.5293h-10.721l1.1035-33.857 276.92-94.025 18.705 5.8066h4.0312l23.871-3.3867 2.2578-12.418 38.385-3.5488 7.4199 10.805-15.16 14.836 8.707 8.0644 10.969-12.094 20.158 34.998 15.484-2.9043-13.062-52.576 4.1894-0.96679-0.1582-5.3242 3.8691-0.48438 4.6797-5.4824 1.1289-4.0312 6.2891-6.1289 5.9668 3.0625 32.094-34.031-9.3516-8.0605-42.098 42.738-3.2246-3.2246-5.9648-0.64649 12.418-59.031 9.0312-0.32031 8.2246-46.287-31.611-5.8066-32.902 116.93-32.576 1.6133-0.32227 2.2578-170.96 7.0977-92.25-17.098-12.438-23.502-49.494-28.053-40.279-5.6055v-32.299l-0.70117-2.6191h-5.0176v-14.293h10.559l1.0742 1.8613h6.7266l4.002-4.002h116.28c67.039 1.7179 133.14 6.8847 198.35 15.293l4.4473-1.9375c-65.799-9.787-133.48-14.69-202.31-16.58h-107.9l-9.9512-1.1855-2.1211-3.6738h-4.5137l-2.4434 1.4121h-14.803l-2.7539-1.5898-0.80469-3.002h-3.9961zm8.5586 31.574h4.6758v30.674l-6.8809-0.95703v-19.549l2.2051-1.2715v-8.8965zm-48.812 90.436 27.371 1.1387c5.9858 0.04762 7.4959 3.7293 6.6152 9.3535-6.4207 18.649-17.258 30.006-32.695 35.344 3.7047-14.975 6.1966-31.105-5.623-41.045 0.39284-4.0639 1.2084-3.8466 4.332-4.791zm-28.389 2.6172c0.94192 0.00163 1.891 0.04021 2.8457 0.1211 17.582 3.4013 22.282 11.895 21.439 22.58-13.227 55.277-49.734 57.628-64.922 58.857-5.9415-0.23811-12.497-1.863-17.418-3.6602l-0.6836-20.529c6.6454-21.044 29.539-57.42 58.738-57.367v-0.00196zm104.57 127.85-0.22461 28.055-81.885-27.6 82.109-0.45508zm-89.865 3.6484 79.604 27.6-84.619-0.22852 5.0156-27.371zm-7.5234 35.354 98.533 0.23047 0.22461 28.279h-102.41l3.6484-28.51z" stroke-width="1.8063px"/>
<path d="m44.586 262.11c-5.2662-3.1075-8.3983-5.4861-11.703-9.7918 10.53-14.757 24.341-22.712 41.469-23.79" fill="none" stroke-width=".47793px"/>
<path d="m44.234 240.14 7.0409 8.4918" fill="none" stroke-width=".47793px"/>
<path d="m66.386 229.59 1.2371 5.3106" fill="none" stroke-width=".47793px"/>
<path d="m212.49 256.72c-1.8772 2.032-3.3227 1.6692-4.3148-1.207" fill="none" stroke-width=".47793px"/>
<path d="m33.2 252.24 15.934 0.30163" fill="none" stroke-width="1.2012"/>
</g>
</svg>
