<?xml version="1.0" encoding="UTF-8"?>
<svg width="250mm" height="100mm" version="1.1" viewBox="0 0 250 100" xmlns="http://www.w3.org/2000/svg" xmlns:cc="http://creativecommons.org/ns#" xmlns:dc="http://purl.org/dc/elements/1.1/" xmlns:rdf="http://www.w3.org/1999/02/22-rdf-syntax-ns#">
<metadata>
<rdf:RDF>
<cc:Work rdf:about="">
<dc:format>image/svg+xml</dc:format>
<dc:type rdf:resource="http://purl.org/dc/dcmitype/StillImage"/>
<dc:title/>
</cc:Work>
</rdf:RDF>
</metadata>
<g stroke="#000">
<path d="m214.28 6.4435c0.14473-0.00111 0.28821 0.00287 0.4315 0.00723l18.727 0.40566-1.8707 4.4767 1.0687 0.33435-2.1378 4.8106h-1.203l-14.3 33.062h1.9844l6.2363-0.18914 13.985 1.8903v0.47232l-5.5754 1.4175 5.103 1.9844 0.18862 1.9844-9.6382 1.3229-46.894 6.3645 0.2005 0.80202-7.6171 1.5363-0.86868-1.2692-13.364 1.6035-3.0737 2.8732-28.531 4.4767-3.4742-2.606v6.8156l0.41186 0.32608-0.82424 0.22789-1.1074-0.01964 0.25012-7.2161-14.566 3.4075 0.66818 4.6106 13.43 2.6055-2.8732 6.0136-9.9798 2.9461h-0.89762c-0.93549 2.3578-2.6208 3.1238-5.7056 3.0985-2.436-0.20777-4.3656-1.0403-5.4451-3.8545l-1.2754 0.04702c-2.042-0.61851-5.0767-1.9421-4.7263-3.6065 0.805-2.506 4.0428-5.2735 8.9199-7.3835l0.13384-3.4075-7.8176 0.40101-0.26717 2.1379h-1.2697l-1.002-2.4722-5.9469-1.2697h-4.0757v1.0692h-10.089v-1.1074h-18.224l-0.28319 2.5042-0.4253 1.6066 2.835 1.7477 17.056 0.2837c0.41357 0.13473 0.61006 0.43262 0.51987 0.94516l-1.7007 4.5827-16.85 4.7387-4.577 2.0712-4.1088-2.6727c-2.3171-1.1252-5.9399-1.8847-6.0492-4.0664 0.41459-2.454 3.5764-5.1664 10.091-5.7557l0.16692-1.403h-0.26717v-0.45165h0.55242l1.1183-4.1729h-8.2574l0.27234 1.0165h-1.5033l-0.66818-1.0025-1.4697-0.26717-1.1028-1.403c-4.0068-1.1575-6.4878-5.1484-9.3209-8.4858h-1.3028l-0.40101-0.70176-1.1694-0.06666-1.5033 14.532-1.2697-14.566c-2.1866-1.4334-6.1868-1.3986-6.5479-4.3098 0.32619-2.5167 3.7825-3.326 6.4472-4.5946l-0.09457-19.182 2.6458 18.615h1.3229l0.47232-0.47284c13.788-2.6991 27.913-3.8789 42.05-5.008l2.173 7.276 6.1903 0.03359c1.1132-0.07022 1.9564-0.81565 2.7156-1.771l9.6149-15.933c2.897-0.80147 5.8055-1.5234 8.7488-2.0009l5.979-11.741-3.5745 10.123 0.26717 0.23358 1.0692 0.73536 0.0548 0.18604c1.569-0.12459 3.1503-0.16389 4.748-0.08733 9.573-0.02766 21.462 1.6982 44.229 4.9764l8.2941-9.6299-5.6126 8.753 1.002 1.3364s1e-3 0.05757 2e-3 0.06925c2.8874 0.41511 5.8306 0.83797 9.0661 1.2981l9.7327-0.09457c6.9033-0.79448 12.316-4.3983 14.363-6.6146l23.528-28.064c1.5418-2.0167 2.6187-2.2675 3.6318-2.2753zm-104.6 33.695-15.78 1.1813c-1.5962 0.23947-2.1636 0.86478-3.1182 2.3151l-5.6699 10.158c-0.98229 1.6346 0.92624 1.9618 2.0789 2.173l20.269-0.66146c0.70599-0.28171 1.6036-0.13253 1.8428-1.4645l1.7952-12.332c0.0363-0.96552-0.57667-1.2816-1.4175-1.3699zm7.1344 0.28319c-0.3324 0.14214-0.69482 0.24455-0.66146 0.87436l-1.6066 13.064 21.545-7.1344-3.8272-4.9134z" stroke-width=".365"/>
<path d="m88.753 39.24c-7.3033 2.7557-14.101 6.3968-20.694 10.394" fill="none" stroke-width=".665"/>
</g>
</svg>
