<?xml version="1.0" encoding="UTF-8"?>
<svg width="100mm" height="100mm" version="1.1" viewBox="0 0 100 100" xmlns="http://www.w3.org/2000/svg" xmlns:cc="http://creativecommons.org/ns#" xmlns:dc="http://purl.org/dc/elements/1.1/" xmlns:rdf="http://www.w3.org/1999/02/22-rdf-syntax-ns#">
<metadata>
<rdf:RDF>
<cc:Work rdf:about="">
<dc:format>image/svg+xml</dc:format>
<dc:type rdf:resource="http://purl.org/dc/dcmitype/StillImage"/>
<dc:title/>
</cc:Work>
</rdf:RDF>
</metadata>
<path d="m5.0543 3.0835a2.1497 2.1497 0 0 0-2.1494 2.1494v90.28a2.1497 2.1497 0 0 0 2.1494 2.1496h90.28a2.1497 2.1497 0 0 0 2.1496-2.1496v-90.28a2.1497 2.1497 0 0 0-2.1496-2.1494zm5.1892 4.299h82.941v82.941l-51.522-51.522 20.886-0.37989 0.06175 2.6368h1.3696l-2.358 5.2865 1.7491 0.34234-0.13041 2.3516c-1.2158 0.314-2.066 1.41-2.0674 2.6657 2.27e-4 1.5221 1.234 2.7559 2.7561 2.7561 1.5224 9e-5 2.7568-1.2338 2.757-2.7561-4.29e-4 -1.1248-0.68444-2.1366-1.728-2.5564l0.12463-2.4609 1.4449-0.34234-1.2165-1.8632 0.95062-2.7768-0.1524-0.95062 1.2172-0.03844v-2.2931c6.7971 0.05968 24.559-0.0099 24.608-4.8188 8.68e-4 -4.4114-31.036-12.78-31.036-12.78l-7.3403-6.0854c-1.9356-1.8186-4.0796-1.9596-6.2755-1.9397l-31.384 0.23971zm-3.0396 3.0396 38.852 38.852 0.0039 0.73979-38.856-0.96684zm46.378 4.5518 5.9679 5.0712-4.6211 0.01888-4.4841-4.8231zm-4.4665 0.52118 3.4417 4.5154h-4.4929l-2.039-4.3601zm-4.8582 0.41255 1.7337 4.1186-4.8688 0.07598-0.45298-4.0235zm-37.053 34.044 38.674 1.3854 0.08864 0.53096 2.6241-0.05954 1.5942 1.5942 0.02932 0.14707c-5.5416 0.5546-9.6428 2.6804-13.364 5.2214l-2.3011-0.08864 2.4542-3.7745-0.15307-0.11952-3.7169 4.3363-4.8784 0.25481c-7.1112 3.3614-15.098 5.3164-17.601 13.286-0.38835 4.2184 2.9228 4.6655 4.5132 5.8412l0.47209 0.53829-3.1133 0.25015 3.3011 0.07842 0.51652-0.407c2.6895 1.28 5.8317 1.6541 9.0454 1.8855 2.2819 3.237 4.1463 6.8737 7.7 8.8941l29.454 0.01534c0.43956-0.11288 0.52924-0.36942 0.4692-0.68803-0.03023-0.35133-0.33773-0.57672-0.68825-0.78245l0.06264-8.949s1.1602-0.03103 1.6777-0.26015c1.2413-0.54955 4.7884-2.8192 7.323-4.4765l18.758 18.758h-82.941zm24.434 9.7523-0.67292 1.0013-2.769 0.06264-0.53207-0.32857c1.2939-0.79726 2.6412-0.6381 3.974-0.73535zm-5.5942 1.6311-8.0568 17.444c-2.2044-1.0762-7.3224-3.435-6.0485-6.2033 1.9066-5.3445 4.6213-7.2604 14.105-11.241zm8.0777 1.0359-1.8586 7.3452-8.5847 2.0801 3.7612-9.3149zm2.2345 0h7.1906c0.46421 0.57281 0.73726 1.3746 0.90708 2.3007 0.11041 0.84682 0.1018 1.5408-0.19905 1.8588l-9.757 2.5444zm22.222 17.286-0.17684 3.2304-29.249 0.08864-1.1508-1.6373c22.065 1.2605 27.484-0.03246 30.577-1.6817zm-28.984 4.2923 28.807 0.2215 0.04376 4.0888-24.938-0.03109z" color="#000000" color-rendering="auto" dominant-baseline="auto" image-rendering="auto" shape-rendering="auto" solid-color="#000000" style="font-feature-settings:normal;font-variant-alternates:normal;font-variant-caps:normal;font-variant-ligatures:normal;font-variant-numeric:normal;font-variant-position:normal;isolation:auto;mix-blend-mode:normal;shape-padding:0;text-decoration-color:#000000;text-decoration-line:none;text-decoration-style:solid;text-indent:0;text-orientation:mixed;text-transform:none;white-space:normal"/>
</svg>
