<?xml version="1.0" encoding="UTF-8"?>
<svg width="250mm" height="100mm" version="1.1" viewBox="0 0 250 100" xmlns="http://www.w3.org/2000/svg" xmlns:cc="http://creativecommons.org/ns#" xmlns:dc="http://purl.org/dc/elements/1.1/" xmlns:rdf="http://www.w3.org/1999/02/22-rdf-syntax-ns#">
<metadata>
<rdf:RDF>
<cc:Work rdf:about="">
<dc:format>image/svg+xml</dc:format>
<dc:type rdf:resource="http://purl.org/dc/dcmitype/StillImage"/>
<dc:title/>
</cc:Work>
</rdf:RDF>
</metadata>
<g>
<path transform="scale(.26458)" d="m453.75 9.8633a178.38 178.38 0 0 0-163.07 106.37c-44.835-8.1273-89.492-14.924-133.83-19.314l2.0957-4.7871 17.562-0.5-19.75-2.4941-6.1836 6.8789-33.125 1.5996c-24.133 1.7282-29.73 11.981-35.52 22.146-19.21 2.5415-40.146 2.8033-48.123 20.15-3.816 11.337 8.0865 21.863 12.637 25.609 14.114 10.775 28.557 19.242 43.203 26.297l0.033203 21.688 1.3867 0.26953 5.043-19.23s14.335 5.0686 22.525 7.5078c8.1899 2.4393 27.174 7.1875 27.174 7.1875-10.671 42.632-13.756 62.356-13.861 75.932 9.672-19.672 14.656-46.376 19.086-73.91l4.7598 1.0879-0.98828 16.809 6.9141 6.9141 35.135 6.9121-2.1172 14.393 23.281 4.2324 5.9258-13.121 6.4902-5.9258 39.189 6.5957-6.0176 28.811a25.413 25.413 0 0 0-2.7617-0.16016 25.413 25.413 0 0 0-25.41 25.412 25.413 25.413 0 0 0 25.41 25.412 25.413 25.413 0 0 0 25.414-25.412 25.413 25.413 0 0 0-1.1074-7.3418l17.703-12.631a178.38 178.38 0 0 0 150.89 83.379 178.38 178.38 0 0 0 146.09-76.174c44.519 3.1946 95.33 5.0989 156.94 4.7871l25.146 15.18 0.45899-0.53711a10.027 10.027 0 0 0-0.97461 4.2812 10.027 10.027 0 0 0 10.027 10.027 10.027 10.027 0 0 0 10.027-10.027 10.027 10.027 0 0 0-10.027-10.025 10.027 10.027 0 0 0-5.6191 1.7324l0.47461-0.55468-9.043-11.99 145.51 1.8418-3.4512-10.426-5.8926-3.6719-0.12891-12.707 6.6543-20.289 6.2988-109.11c-9.5673-7.5301-18.083-12.411-28.025-16.182l-24.828-3.3008c-10.61 0.76436-23.429 2.1398-34.893 7.6094l-76.342 68.1c-8.9127 4.9346-17.823 6.8256-26.736 4.9902l-103.4-15.139a178.38 178.38 0 0 0-178.27-175.18zm1.6074 29.445c28.371 0 51.02 7.7409 67.916 23.191 16.896 15.451 25.328 34.124 25.328 56.02 0 12.68-2.9809 24.366-8.9141 35.027-5.9032 10.662-17.53 23.672-34.848 39.002-11.626 10.3-19.184 17.86-22.768 22.77-3.584 4.9092-6.175 10.511-7.9219 16.836-1.7167 6.3248-2.7114 16.625-2.9824 30.871h-34.213v-0.0293c-0.12018-4.7586-0.21093-8.3129-0.21093-10.662 0-13.975 1.9882-26.053 5.9336-36.232 2.8914-7.6801 7.589-15.361 14.064-23.191 4.7586-5.6622 13.313-13.943 25.631-24.846 12.318-10.873 20.36-19.577 24.064-26.053 3.6744-6.4754 5.541-13.524 5.541-21.174 0-13.854-5.3908-26.052-16.203-36.533-10.812-10.481-24.094-15.752-39.785-15.752-15.179 0-27.83 4.7589-38.01 14.246-10.18 9.4872-16.836 24.366-19.998 44.545l-36.623-4.3359c3.313-27.076 13.101-47.768 29.395-62.164 16.264-14.336 37.799-21.535 64.604-21.535zm-362.25 69.826 12.971 3.2949-5.041 10.477-14.914-3.2441 6.9844-10.525v-0.00195zm16.211 4.291 5.2383 1.1973-4.1894 10.377-5.6387-1.6484 4.5898-9.9258zm9.3281 2.4941h0.00195l14.814 2.793-2.543 14.818-20.004-2.3945 7.7305-15.217zm147.76 43.949h0.00195l11.17 1.832a178.38 178.38 0 0 0-1.5918 14.156l-13.369-2.5195 3.7891-13.469zm7.502 89.988 13.178 1.8125a178.38 178.38 0 0 0 13.115 26.951l-17.23 12.162a25.413 25.413 0 0 0-14.609-11.84l5.5469-29.086zm160.88 44.039h40.568v40.568h-40.568v-40.568z" stroke="#000" stroke-width="1.0016"/>
</g>
</svg>
