<?xml version="1.0" encoding="UTF-8"?>
<svg width="250mm" height="100mm" version="1.1" viewBox="0 0 250 100" xmlns="http://www.w3.org/2000/svg">
<path transform="scale(.26458)" d="m869.75 67.332-16.012 51.418c2.3914 1.681 4.9843 3.1432 5.0332 7.3301l-4.5059-2.8398-7.2109 3.3223 0.0625-0.3418-55.361-17.158c-8.2347-2.1325-10.087 2.883-11.783 6.4297l53.295 19.492c1.6429-2.2187 3.107-4.6214 6.5469-4.9942-2.8117 1.5191-4.082 2.9633-5.9648 4.834-2.4927 2.1661-3.3715 4.3339-4.498 6.5-0.92697 1.8974-1.7137 2.9584-2.834 4.332l-59.984 54.152c-6.5151 5.4313-14.233 9.2203-24.441 9.6152l-56.848-1.5312-0.76757-1.5898-6.0664-0.05859-0.05859 1.4121-24.979-0.88281-1.1777-2.4746-2.9473-0.17578-1.5898 2.1797-25.295-0.74609-1.166-1.541h-4.5l-0.875 1.5-39.387-1.7461-2.4141-3.0059-0.76758-0.17578-0.17578-4.418-2.5332-0.29492-1.9063 4.0918c-1.2727 0.05042-3.9979 0.04949-6.1035 0.3164-2.2417-2.497-5.9664-5.4502-8.9629-5.8828-3.0036-0.43367-5.389-0.06328-7.1133 1.1426-53.227-20.522-99.159-31.773-149.29-33.559-0.46796-0.00252-0.93801-0.01035-1.4062-0.01368l-0.60742-11.678 9.1543-1.2871v-4.4492c111.6-9.4248 219.38-10.275 328.55-14.238-101.87-0.68538-205.17 2.4394-308.93 6.7949 75.586-11.946 151.76-22.326 228.56-31.039 5.6397-1.1891-3.4129-1.6534-9.6387-2.1934-80.273 8.5852-160.58 17.1-238.54 30.309v-2.4824c-3.4732-5.7607-14.185-10.616-29.254-10.766-1.0046-0.00983-2.0298 1.7e-4 -3.0723 0.0332-16.679 0.52755-27.697 4.3324-30.809 16.541l0.06836 2.2324c-100.83 3.5234-201.03 8.9448-301.43 13.775-5.5304 0.33694-9.9311 2.2963-7.2441 2.9336 100.89-4.4608 201.78-9.5757 302.67-12.846-145.81 15.736-226.55 29.019-315.97 43.484 107.75-12.609 148.29-24.318 322.26-37.539l0.01367 0.46094 11.6 1.6074-0.25195 10.92c-4.8655 0.39238-9.6632 0.97531-14.363 1.834l0.01953-1.6113-4.709 0.01758-0.24805 2.5312c-2.5688 0.62474-5.2835 1.0457-7.2891 2.459l0.25 1.248 1.2129 1.6602-14.531 15.922c-6.2541 5.9565-11.864 10.202-14.514 10.801-22.695 4.9993-42.758 11.692-58.793 20.973-12.83 0.5262-24.643 3.8983-35.094 11.088l-44.434 42.166-11.076 4.5957c-3.9452 0.11871-7.0956-1.4004-11.486-1.2793-10.661 0.75949-12.591 7.841-22.328 11.766-6.8553 2.8789-25.75 8.3847-25.92 19.676-0.42707 5.5189 12.623 10.459 23.094 12.607 15.045 2.7675 41.517 6.3316 67.484 8.2637l3.4394 8.3672a10.354 10.354 0 0 0-4.8555 8.7676 10.354 10.354 0 0 0 10.354 10.354 10.354 10.354 0 0 0 10.354-10.354 10.354 10.354 0 0 0-0.40039-2.8418l5.7363-4.6387-12.596-4.4824-2.6328-4.5527c8.1972 0.47888 16.208 0.77147 23.617 0.77734h11.094l0.41406 1.8535c-0.09593 1.6317 0.97497 3.06 3.3047 3.1523l13.795 0.03125c1.605 0.16233 2.9365-0.74523 2.9355-1.8301l0.03321-1.7363 1.168-1.3262 0.0039-0.14453h17.059a8.1473 7.7232 0 0 0 7.7324 5.3223 8.1473 7.7232 0 0 0 7.7363-5.3223h16.146l3.2852 4.0801 3.8672 1.6973 53.438-0.15235 4.3418 6.6719 13.764 0.63281 0.01563-0.95703-11.506-1.2539-3.1367-5.1035 38.355-0.10938 4.2441-1.3809 3.4336-2.1328c0.39616 1.2992 0.99403 2.3675 2.1816 2.3496 1.1035-0.02234 1.7816-0.30889 2.084-1.0098 0.18735 1.0106 0.86619 1.7314 2.082 2.6524 1.591 1.0325 3.9744 0.44498 4.7988-0.31641l15.377 5.5664a13.29 13.29 0 0 0-0.66602 4.125 13.29 13.29 0 0 0 13.289 13.291 13.29 13.29 0 0 0 13.289-13.291 13.29 13.29 0 0 0-13.289-13.289 13.29 13.29 0 0 0-11.211 6.1816l-13.002-5.4238 8.8086-3.5488 23.488-0.66211 29.992-0.66601c4.4698-1.1215 8.9439-2.2222 13.42-3.3184 1.3386-0.41058 1.7724-1.0684 1.4219-2.1113l-2.0117-5.2344 40.781-15.209 10.141 5.957 12.127-4.0723-11.311 1.5312c-2.3669-1.6329-7.4038-4.0588-5.1836-5.5371 17.129-6.8152 27.655-11.161 39.115-15.789l107.78-15.035 33.158-4.666 13.121-1.5s35.389-3.5886 84.176-20.271l11.545-2.1211 1.0605-1.7676 6.2441-2.2383c1.063-0.38378 2.5291-0.94085 2.7109-1.7676l0.94141-4.0059c0.09827-0.7684-0.17034-2.5408-3.6524-3.2988l-4.2988-1.1191-0.06055-2.6504-3.8281-0.47071c-2.4945-1.0665-3.7275-6.3407 0.58789-12.607l5.7129-7.8887c0.97932 3.2683 3.965 4.4651 6.291 5.5859l9.2305-27.023 19.727-27.242c1.6889-1.8928 3.6868-4.1689 6.7246-5.457l2.3848-0.74219 32.834 10.672c7.8896 1.9737 9.6198-2.8359 11.213-6.2402l-51.104-18.213c-0.37501 0.5153-0.74714 1.0326-1.1309 1.5391l-8.5684-5.4004 13.014-50.496c1.652-7.9205-3.1159-9.5482-6.5039-11.068zm-475.14 83.037 0.61719 11.596c-2.1784-0.01675-4.3596-0.03932-6.541-0.06445l-0.54102-10.621 6.4648-0.91016zm-41.068 1.3106 5.7207 0.79101-0.25781 9.6836c-1.8934 0.09501-3.7792 0.21084-5.6543 0.35742l0.19141-10.832zm6.1953 0.85742 2.7754 0.38477-0.26563 9.0918c-0.93637 0.03438-1.8721 0.07023-2.8047 0.11524l0.29492-9.5918zm-117.91 67.693-0.89258 5.9375c-0.36064 3.8827-2.6057 5.2011-5.9375 5.043l-15.268-0.08789c-4.9788-0.10965-8.3146-0.85262-11.799-1.5371 10.875-6.1718 21.147-8.6754 33.896-9.3555zm-39.926 14.406 4.5449 1.7676c1.4187 0.6115 3.2703 0.93631 2.2734 3.1582l-17.93 42.174c-1.3641 3.0682-3.648 4.8481-7.5332 4.3867-12.352-1.6773-17.381-6.802-21.256-12.469l39.9-39.018zm159.61 4.9238 21.43 0.26757c2.9297 0.02344 7.6652 0.44655 8.5703 6.1602l0.08984 28.572c-0.09675 4.5904-2.2036 7.548-7.6797 7.7676l-22.678 0.17774c-2.9042-0.00718-8.2013-3.4414-8.125-7.9453l0.53516-27.143c0.10303-3.9864 0.19636-7.9786 7.8574-7.8574zm-47.32 0.17773 22.053 0.35742c7.8518 0.2854 8.3958 4.2246 8.3027 8.4824l-0.35546 25.625c-0.11955 2.8676-2.7663 7.7988-6.9648 7.9453l-23.035 0.17968c-6.9853-0.04145-8.4179-3.5699-8.2148-8.125l0.44531-26.43c0.11872-5.3256 2.9391-7.7578 7.7695-8.0352zm-78.305 0.35742c4.5419-0.017 4.8407 2.1431 4.8223 4.4648l-0.71484 29.91c-0.18146 3.9701-1.9003 7.2675-7.7676 8.75l-22.59 2.9473c-6.5126 0.68536-6.9667-2.4506-5.8027-6.6074l14.375-35.09c0.93024-2.4588 2.5514-3.8812 4.9102-4.1973l12.768-0.17774zm29.197 1.0723h13.482c4.6346 0.06977 6.2138 2.4685 6.3379 5.9805l-0.17774 26.875c0.03629 3.966-1.7423 6.5931-6.6973 6.875l-13.035 0.53711c-8.0314 0.18924-7.9195-3.8709-7.9473-7.8574l0.80469-26.518c0.03213-4.4089 2.926-5.8766 7.2324-5.8926zm-86.918 58.721c4.7638 0.14223 3.8913 4.4225 3.0781 7.2168l-6.2051 17.455-31.562-3.1699c-1.8102-0.34441-1.8164-1.1632-1.3848-2.0976 5.8006-10.936 22.941-18.342 35.045-19.375 0.36938-0.02896 0.71171-0.03878 1.0293-0.0293zm226.05 28.734c0.07161 0.333 0.1469 0.67162 0.22656 1.0156l-3.5918 2.2285-3.9727 1.2988-38.811 0.10937c-0.99544-1.539-0.78558-3.0782 2.1894-4.6172h42.697l1.2617-0.03515zm-176.74 0.03515h14.055l0.00976 0.24024 1.043 1.041-0.0957 1.957c0.03326 0.69308-0.58692 0.89554-1.5781 0.82032l-11.396 0.1582c-0.74071-0.02608-2.0294 0.0916-2.1777-2.3047l0.14062-1.9121zm68.418 0h55.645l3.0098 4.627-52.582 0.14648-3.4473-1.5117-2.625-3.2617zm-103.79 4.7539 11.268 3.6934-4.5879 3.6289a10.354 10.354 0 0 0-6.8867-6.2969l0.20703-1.0254z" stroke="#000" stroke-width=".93309px"/>
</svg>
