<?xml version="1.0" encoding="UTF-8"?>
<svg width="250mm" height="100mm" version="1.1" viewBox="0 0 250 100" xmlns="http://www.w3.org/2000/svg">
<path transform="scale(.26458)" d="m879.88 94.645-30.92 40.396c-1.2312 1.8662-0.39785 4.4436-1.8867 6.4805l-3.2558 5.5274c-0.25342 0.42976-0.43854 0.77778-0.60352 1.1133l-6.4336-0.11914-0.26758 6.9629-0.91016 0.00781-2.8828-3.7754c-13.578-18.267-25.439-35.611-38.158-53.416l-7.1738 5.9746 29.334 41.561c1.3092 1.6517 4.1211 1.7057 5.6211 3.7344l4.3066 4.7578c0.48 0.5309 0.86699 0.92648 1.2383 1.2324l-1.4648 0.01367c-4.8511 0.20666-8.8937 5.0662-8.9277 8.3926-0.04223 1.3558 0.24913 2.7133 0.96289 4.002-19.136 6.7993-37.317 12.642-56.051 19.039l3.6621 8.5859 32.523-10.898-26.146 20.053c-6.5535 4.9287-15.929 6.6991-18.877 6.5039l-114.27-5.8848-0.06445-1.377c-1.1515-1.3499-2.2825-2.7758-4.418-0.18945l-0.14844 1.3281-67.469-3.4746-77.971-5.9336c-1.5368-1.9197-3.698-3.5801-6.9453-4.8613-10.111-3.3595-14.416-7.9182-16.037-13.006l-8.3965-5.1777 0.0625-5.0508c-6.4518-2.3583-13.084-4.5588-19.721-6.5625l0.40234-18.25-8.7754-2.209-5.998 16.449c-18.006-4.591-35.079-7.284-47.541-6.7891l-7.8555 0.24609-0.35156-12.4 2.1035-1.0176 0.08985-4.4648 6.4297 0.08984-0.0586-1.4531 4.209 0.1582 0.08984 0.98242c72.108 5.9821 139.97 21.531 208.42 35.727h20.014l5.3027-1.7676c-76.283-17.174-153.68-30.121-232.34-38.324v-2.5879c93.775-4.1988 186.56-2.9563 279 0.21289l1.9629-1.3398-1.6055-0.80273c-92.286-5.0307-185.3-6.4371-279.6-1.3848l0.08984-1.6074-5.9824 0.08203-0.04492-1.1094-12.768-5.4453 15.982-3.2148c-19.289-17.47-44.283-17.574-63.572 4.7324l19.465 1.6074-0.89258 2.2324-12.768-0.89258-5.625 6.6953-0.02148 0.68945c-101.78 8.1739-199.14 27.963-298.55 42.346l12.59 1.25c91.932-13.01 183.36-33.094 275.89-37.738l2.5098-0.48438-3.9316 2.0625c-70.751 18.252-140.85 44.076-211.16 67.322l1.25 1.7852 11.162-0.53515c26.919-8.4603 53.764-17.356 80.66-25.953l0.125 14.961c0.32708 2.5795 3.6297 3.0759 5.8086 4.25h-31.104c-3.7731 0.01313-10.155 0.36864-11.449 2.0625 0.34318 3.1659 1.1466 7.0234 2.5254 9.9766-5.4558 2.3491-8.2351 5.8283-11.744 9.2168l-33.334 32.703c-4.0827-0.18988-8.1653-0.2513-12.248 1.8945l1.0098 2.7773c-15.602 5.0369-26.33 11.831-27.275 20.078 0.079468 8.9165 11.62 14.193 18.689 17.803 8.7499 4.3754 24.243 9.6261 41.268 14.254l-4.2715 14.537 9.1543 2.4609 8.4141-13.6c5.8763 1.4154 11.772 2.7278 17.498 3.8574l0.28906 3.5547 3.7246 1.7051v3.0254a11.513 11.513 0 0 0-7.2207 10.676 11.513 11.513 0 0 0 11.514 11.512 11.513 11.513 0 0 0 11.514-11.512 11.513 11.513 0 0 0-11.514-11.514 11.513 11.513 0 0 0-0.78711 0.02734l-0.03321-2.4668 1.7051-0.18946-0.06445-1.8945 2.2539-0.89648c7.9799 1.2846 15.327 2.1388 21.32 2.3184l191.43 1.6074 1.6074 1.25 32.143-0.35742 8.8144 4.4062a16.289 16.289 0 0 0-0.10547 1.7734 16.289 16.289 0 0 0 16.289 16.289 16.289 16.289 0 0 0 16.289-16.289 16.289 16.289 0 0 0-5.7363-12.404l26.697 0.09375-2.9043-8.082 61.102-7.127 26.607-29.822c2.0538-2.3575 4.6031-3.3279 7.498-3.3301l148.66-6.7578 23.393 21.428c8.8778 8.4727 27.367 3.6537 39.285 0.71484l41.965-10.805 11.338 10.625c2.8008 2.4532 7.193 1.7907 11.43 1.4297-3.9334-0.11019-8.6035-0.42564-10.447-2.5898l-10-10.445-19.107-17.322 28.549-33.83c0.26226 13.953 0.48486 25.117 0.67773 25.117l9.2949-0.86133-0.45312-35.537 25.146-29.799c0.09075-0.10002 0.16185-0.19543 0.25-0.29493 14.672 4.1423 28.868 8.37 43.5 12.52l1.877-9.1445-43.355-12.562c-0.54568-0.50642-1.2553-0.97984-2.1816-1.4102-6.0027-2.8533-11.226-6.1423-18.75-8.125l0.08789-2.2324-6.4277-0.17969-0.01953-0.76563 1.5371-2.1738c13.385-18.409 26.4-34.905 39.6-52.357l-7.8398-5.0645zm-523.63 38.219 0.17773 6.7852 8.3945-0.44532 2.707-1.3086 0.20312 12.158-9.7324 0.30274-0.41016-3.1172h2.8574v-0.80273l-3.3945-2.5-2.7676 0.35547-0.35743-11.338 2.3223-0.08984zm-13.84 0.08984 2.3223 0.08985 0.80274 12.32-5.7578 5.5625-7.4473 0.23242 0.08008-10.26 7.5898 0.08984 2.5898-2.9453-0.17968-5.0898zm-18.035 1.6074h4.1973l0.71289 6.25 2.3223 0.08789 0.08203 10.279-28.139 0.87891-0.3789 13.006c0.02928 2.3826-1.2848 3.5789-2.7774 3.5684h-22.68l-1.1523-3.4902h-4.9551l-2.1387 3.4902h-23.67l-0.64649-5.2715-3.7891 0.31445-3.8555 4.957h-8.8027l-1.5469 1.6094h-24.248c32.361-10.148 64.832-19.642 97.625-27.197l10.715-5.9824 4.3926-1.6484-0.01758 0.57617 4.1973-0.26758 0.625 1.7852 2.9453-0.44531 0.98242-2.5zm-135.35 73.688 0.0625 4.166c0.083 2.5409-1.3172 1.904-2.3359 2.084l-30.367-0.31641c0.51621-1.894 2.1736-5.5383 4.7969-5.6816l27.844-0.25195zm-33.279 0.2832-2.9785 5.8945-6.3789-0.14844c2.5362-2.5207 5.309-4.7011 9.3574-5.7461zm-6.3691 8.3027c2.9641-0.11436 1.6702 3.0737 0.82032 5.1133l-7.1973 19.762c-0.99448 2.2046-2.3908 4.029-6.377 3.4082l-17.93-2.9043 24.938-25.127 5.7461-0.25196zm24.908 1.6543 12.475 0.13086-0.86719 21.119c-0.24847 3.3896 0.038 6.3636-4.6426 6.4297l-14.465-0.17969 7.5-27.5zm-18.303 1.4297 14.82 0.17773-7.4102 26.072h-16.428l9.0176-26.25zm91.07 5.5352 14.287 0.08985c5.5942-0.21023 5.8638 2.751 5.9824 5.8027l0.08789 23.928c0.04153 2.9554-1.0178 5.7677-5.625 5.8047h-15.178c-3.1588 0.00685-6.5532-2.3043-6.6973-7.1426l0.71484-23.572c0.19918-3.1363 2.0657-4.9852 6.4277-4.9102zm31.072 0.80274 13.572 0.08984c4.3041-0.04106 4.7691 2.6144 4.7305 5.625l-0.17773 15.625c0.03999 2.8614-1.5006 4.4878-5.2676 4.375l-13.125-0.17773c-3.0855 0.04711-4.1089-1.5733-4.1074-4.0195l0.08984-16.875c-0.03479-2.3654 0.33392-4.5047 4.2852-4.6426zm41.16 0.71484 14.197 0.08985c3.5296-0.15365 3.9168 2.3093 3.9277 5.0879l0.44726 15.715c5.5e-4 2.4092-1.0901 4.158-5 4.1973h-12.41c-3.1876-0.00776-5.9939-1.0906-5.8945-4.1973l0.17969-16.25c0.09533-2.3166 0.25026-4.5591 4.5527-4.6426zm30.625 0.53516h13.662c3.8853-0.01616 4.7684 1.6609 4.8203 4.4648v16.34c-0.01454 2.3268-1.2692 3.9402-4.4648 3.9277l-12.5-0.08984c-2.6467 0.02149-5.1786-0.09372-5.2676-3.125l-0.35743-16.875c-0.21669-2.7936 0.99238-4.4668 4.1074-4.6426zm69.303 0.81836 13.637 0.25195c3.0145 0.05442 4.3935 1.3135 4.4199 4.8613l0.25195 15.469c-0.05113 3.789-2.1872 4.4824-4.7969 4.4199l-13.826 0.0625c-3.49-0.17019-4.9078-1.4594-4.8613-4.4824l0.125-16.1c0.04592-2.2178 0.01592-4.4692 5.0508-4.4824zm67.869 1.3887 8.4609 0.0625c3.9722 0.08766 4.6667 1.8988 4.7344 5.0508l0.18946 15.596c0.06928 3.8735-2.3692 4.5619-5.3652 4.5449l-7.5762 0.12695c-4.3103-0.22185-4.7661-2.4792-4.8613-4.9258v-16.289c-0.01243-3.0771 1.8221-4.0529 4.418-4.166zm-371.54 15.973 21.527 2.9668c2.4434 0.48023 2.3543 1.8664 2.5254 3.1582l0.12696 21.465c-0.03289 2.6003-0.99136 4.5968-5.3672 4.3574l-43.184 0.125c-0.89463-0.01814-2.3711 0.16512-2.3359-0.63086l0.18945-10.164c8.8924-6.9635 17.542-14.166 26.518-21.277zm31.17 3.4863 14.99 0.01953c1.8697-0.03069 3.3699 0.38348 3.3926 2.5898l0.00977 22.74c-0.02718 1.9623-1.237 2.6322-3.6426 2.6016l-13.51 0.02539c-2.3919-0.05987-3.7444-0.5399-3.8398-3.2129l0.00977-21.996c-0.04022-1.7081 0.69569-2.7415 2.5898-2.7676zm-57.561 31.807 36.617 0.0625c-0.21885 7.1717-0.22203 14.291 0.25195 21.467-12.797-4.0883-25.577-8.1947-37.059-13.764l0.18945-7.7656z" stroke="#000" stroke-width="1px"/>
</svg>
