<?xml version="1.0" encoding="UTF-8"?>
<svg width="250mm" height="100mm" version="1.1" viewBox="0 0 250 100" xmlns="http://www.w3.org/2000/svg">
<path d="m72.597 9.6351c-3.2575-0.017619-6.17 1.4016-4.3098 1.4697l3.8421 0.03359 4.7775-0.2005c1.9306-0.17737 3.6663 1.6629 4.8989 3.0954-0.79561 0.07317-1.1925 0.22956-1.7751 0.52917-0.61273 0.33 0.31329 0.33041 1.219 0.36794l0.01707 1.3364-5.4591 1.018-1.9844-0.21291-0.4253 0.21291 0.0615 1.1586-14.059 2.3167c-19.419 2.312-36.862 8.8327-54.912 13.77l2.2676 0.80357c0.63383 0.22532 1.0305 0.15404 1.4175 0.0708 17.295-5.8257 34.676-10.846 52.597-14.043 6.2962-0.8965 7.8493-0.63287 11.423-0.69867l1.3617-0.41134 0.0083 0.15141 0.44907 0.61443 0.63769-0.09457 0.85059 0.70848 1.9368-0.92139 4.5982-0.18655 0.76274 5.6751-0.42943 0.0739c-0.51897 0.07431-0.80038 0.32691-0.78497 0.80202v0.95188c-0.03401 0.38652 0.27147 0.63745 0.70125 0.80202l1.355 0.4346-9.6516 0.1881c-3.4246 0.14662-5.2441 2.6929-5.2441 2.6929l-2.9295 3.591-15.237-0.04754c-0.95981-0.01707-1.8656 0.01307-2.7327 0.07751l0.46509-0.07751 0.68471-2.3384-3.1652-0.16536-2.266 3.2835c-2.63 0.70463-4.7687 1.8409-6.6135 3.2355-5.6005 4.1721-11.203 8.3409-16.717 12.687l-0.9803 0.04754-2.081 1.465-0.26717 1.3364c-2.5015 1.8114-4.7837 3.7059-4.7439 6.4813 0.1269 4.6479 7.2273 6.2386 11.179 7.7024 8.9907 3.1442 19.084 3.4212 28.911 4.3915 4.9237 0.05447 9.8703 0.02932 14.85-0.11317l-0.339 4.9485-35.956 0.03359v0.92501l0.60151 0.76843 0.73484 0.10025 1.6371 2.3053 11.493 5.6792c1.9273 1.0272 4.4752 1.3941 7.2161 1.4366h55.124v-2.0045l-3.1517 0.02223-0.89504-2.358-0.15038-5.0111 1.1188 0.0031 1.8898-1.0397 0.0946-0.59014-0.51986-0.33073-2.929-0.04754-0.0238-6.5438c0.0199-0.9758-0.047-1.762-0.14573-2.4769 6.4973-2.0826 12.073-4.7182 19.576-6.197l11.695-1.2408c1.3017 0.32611 2.5948 0.68183 4.0401 0.5054 1.3481-0.14803 1.4878-0.65852 1.7813-1.1229l0.70849-0.07493 48.955-4.3362 6.519 9.2093-5.27-7.8341-0.0512-1.481 25.149-2.2278 3.6747 4.0261 3.422 8.0657 10.627 4.2452 2.1296-0.03359-2.0464-0.13332-7.3318-3.0742 0.49609-0.66146 3.0474-1.1576-0.44338-5.1067 2.4097 1.9611 2.7146-2.7631c-0.53224-0.47212-1.4324-0.9578-1.1684-1.9585l-4.516-3.6964-0.0832-0.95705c-0.017-0.41141 0.2335-0.71877 0.80305-0.75603l4.6778-0.49609c1.2853-0.19324 2.2626-0.23776 2.2676-1.016-0.0545-0.67489-0.69411-0.82801-2.2324-0.92088l-3.2246-0.17725-0.95653-0.9095 12.636-27.004-2.2882-1.0909h-2.6701l-0.0119-0.79117c-0.0105-0.31625-0.20601-0.38796-0.39532-0.39016-0.17367 0.0051-0.42918 0.06918-0.43718 0.38396l-0.0176 0.85059-16.822 25.058-5.3971-0.17828-12.878-10.572-2.6236 2.7032c0.50449 0.45212 1.3604 0.91418 1.0981 1.8862l5.7702 4.7635 0.77928-0.06201 1.2697 1.0635-0.14625-0.0047-0.13384 0.80202-67.282-2.6319c-0.55777-0.34268-1.1026-0.7568-1.7405-0.65888-0.67986-0.01402-0.97536 0.27066-1.2909 0.54002l-0.17673-0.0067-11.245-0.51935-2.9766-0.2837 0.5793-0.63045-0.046-1.2289 0.95498-0.52658c0.58271-0.25434 1.1078-0.38625 1.6867-0.4532 0.44701-0.05169 0.72681-0.03403 1.248-0.35812 0.78399-0.6007 0.61443-2.0479 0.61443-2.4789-9e-3 -0.61226-7.9e-4 -2.6677-0.85059-2.912-0.23006-0.07506-0.73915-0.0032-1.0594 0.02119-1.0733 0.11056-2.0104 0.42606-2.9068 0.80202l-4.176 1.9043c-0.55608-2.6085-1.7185-3.1925-3.6416-5.379v-1.1694c0.81315-0.1555 0.47673-0.38575 0.33435-0.46767-1.4709-0.76744-3.5988-0.87812-5.6798-1.0356l-6.9851-0.13488-0.4315-0.41651-1.403-0.05013-0.50384 0.42168-1.0666-0.02066-8.4589 0.16485 0.32401-0.48214v-0.80202l-0.5178-0.48421-0.2775-0.16433 1.0315-6.8569h4.8922l0.5178 0.2558v0.35088l1.1524 0.03359 1.403-0.48472 0.22066-0.61082 7.8977 0.58601 2.9735 1.0108c19.683 1.9247 38.259 7.1113 56.561 11.609l4.2096-0.3421c-23.511-6.4697-47.13-12.452-71.624-14.498l-0.1049-0.56069-7.6838-1.1358-0.15038-0.40101-0.93586-0.10025-0.01654-0.78496c0.671-0.16804 1.9977-0.43501 1.2361-0.80202-0.82069-0.34292-1.5216-0.54097-2.6985-0.6289-0.44039-4.2609-7.9437-3.9414-9.1948-4.0483zm20.222 7.7086c1.9849 0.03149 2.3325 0.55969 3.1812 0.93586l-3.207-0.46767-0.894-0.45114c0.17612-0.0084 0.34288-0.01386 0.50023-0.01654 0.14751-0.0025 0.28728-0.0026 0.41961-5.3e-4zm-12.788 0.14263c0.12576 0.0011 0.25905 0.0093 0.40101 0.02481-0.3313 0.13364-0.34492 0.21446-0.99374 0.40101-0.67151 0.16838-0.86296 0.14466-1.2945 0.21704 0.49793-0.33026 1.0069-0.65088 1.8872-0.64286zm11.76 1.0185 2.5559 0.08372c1.9866 0.21563 1.8166 0.64363 2.3554 1.002-0.7474-0.14167-1.2052-0.35566-2.2717-0.41754l-2.5642-0.05013c-0.71595-0.04484-1.3158-0.01191-1.9715-0.01654 0.6189-0.20917 0.98008-0.59036 1.896-0.60151zm-10.457 0.2589 0.17518 0.63459c-1.0617-0.02447-2.0605 0.09749-3.0567 0.22583l-0.76843-0.44287c1.1859-0.24169 2.3973-0.3983 3.6499-0.41755zm10.598 1.5715-1.0098 6.7794-0.80202-0.47491 0.601-1.0687 0.01707-0.40101-1.6707-1.2532 0.01707-0.601-1.4035-0.05013-0.0832-2.5223-5.3e-4 -1e-3 0.83716 0.03876 0.17725 0.42478zm-8.7276 0.14056 0.65164 0.61805 1.0857 0.01705 0.08372 2.1549-0.2005 0.01654 0.0832 1.4201-0.88522 1.2862-1.0495 0.17984-0.72657-5.6539zm-35.036 15.826c-0.55788 0.81837-1.2939 1.4478-2.3859 1.7007l-2.7637 0.40153c-1.1836 0.20458-1.9583 0.28261-2.4924 0.01188l-0.27182-0.2005c2.5924-1.1387 5.2268-1.8141 7.9137-1.9136zm-10.316 3.4344 0.86868 0.76843c0.62395 0.42318 0.22306 0.84651 0.10025 1.2697l-9.4883 15.1-10.323-2.6727zm8.7183 1.8448c2.0985-0.01312 3.1945 1.714 2.6407 3.9346l-1.8376 6.3479c-0.67234 2.593-2.4697 3.9137-4.3093 4.176l-7.6507 0.53485c-2.0048 0.07371-1.5824-1.5532-0.86868-2.8732l5.7464-9.8893c0.6683-1.0964 1.0056-1.5997 2.9399-1.9374l2.9063-0.26768c0.14862-0.01672 0.29315-0.02495 0.43305-0.02585zm10.251 0.5178c0.15472 4e-5 0.31775 0.0051 0.48938 0.01447l10.654 0.18862c1.0223-0.0507 1.9667 0.06771 2.2443 1.6304l0.30696 3.1182c0.0037 1.2013-0.1733 1.8008-0.3545 2.3859l-0.63769 2.2443c-0.44074 1.5269-1.2543 2.7402-3.2597 2.9528l-13.797 0.87437c-1.9285 0.10002-1.7494-1.15-1.3937-2.4805l2.575-8.8356c0.37356-1.0756 0.85152-2.0935 3.1724-2.0929zm-15.226 15.814c1.5711-0.0088 2.6393 0.40178 2.6438 1.509l-0.06253 2.205c0.01958 1.9833-1.3369 3.4637-2.9295 3.5667l-8.9767 0.09457c-1.1947-0.03785-3.1346-1.1639-2.2205-3.4019l0.89762-1.866c0.53644-0.92866 1.3067-1.5196 2.4097-1.6299l7.5355-0.44907c0.24335-0.01757 0.47836-0.02717 0.7028-0.02842zm-18.027 0.69298c2.4329 0.05278 2.7301 1.4072 2.0402 3.3641-0.93224 2.2392-1.7944 4.3315-2.5037 6.7262l-4.5455-1.6645c-2.7023-1.2068-3.3371-2.8272-3.1569-4.6106 0.15415-1.0533 0.64648-3.1152 3.992-3.4913l3.6582-0.31729c0.18151-0.0083 0.35354-0.01024 0.51573-0.0067zm78.218 11.233c0.1374 0.70208 0.23673 1.5128 0.24392 2.5838l0.0946 6.0239-33.951 0.15916 0.27389-4.947c5.7636-0.18972 11.573-0.54077 17.448-1.1178 5.2314-0.50678 10.503-1.2576 15.891-2.7022zm-61.859 10.537 26.809 0.07183-0.01551 5.3904-0.98495 2.3528-11.59 0.08268c-3.2798 0.1002-5.6365-0.23918-7.7959-1.2283l-7.7261-4.13-0.06666-0.66818-0.16692-0.26768v-0.86868zm28.141 0.07545 34.23 0.09147 0.0863 4.9196-0.56328 2.4717-33.131 0.23616-0.66663-2.1482zm-30.931 0.02479-1.3865 1.3865-1.1188 0.01654-0.96893-1.3364z" stroke="#000" stroke-width=".26458px"/>
</svg>
