<?xml version="1.0" encoding="UTF-8"?>
<svg width="250mm" height="100mm" version="1.1" viewBox="0 0 250 100" xmlns="http://www.w3.org/2000/svg">
<path d="m72.595 9.6349c-3.2575-0.017619-6.17 1.4015-4.3097 1.4697l3.842 0.03359 4.7775-0.2005c1.9305-0.17737 3.6663 1.6629 4.899 3.0953-0.79559 0.07317-1.1925 0.22956-1.7751 0.52916-0.61271 0.32998 0.31329 0.33041 1.219 0.36792l0.01705 1.3363-5.4591 1.018-1.9844-0.2129-0.42529 0.2129 0.06149 1.1586-14.059 2.3166c-19.419 2.312-36.861 8.8325-54.911 13.77l2.2675 0.80356c0.63383 0.22531 1.0305 0.15404 1.4175 0.0708 17.295-5.8255 34.676-10.846 52.596-14.042 6.2962-0.8965 7.849-0.63288 11.423-0.69865l1.3617-0.41134 0.0083 0.15141 0.44907 0.61444 0.63769-0.09457 0.85057 0.70847 1.9368-0.92137 4.5981-0.18655 0.76273 5.675-0.42941 0.0739c-0.51897 0.07431-0.80038 0.32692-0.78496 0.802v0.95188c-0.0011 0.01203 9.23e-4 0.02285 5.16e-4 0.03462l-10.242 0.2558c-4.8408-0.08479-8.1681 1.2731-10.252 2.6934l-6.709 4.8193-3.8033-0.14211c-6.1909-0.11014-10.367 1.5503-13.627 4.0153-5.6004 4.1722-11.203 8.3409-16.717 12.686l-0.9803 0.04754-2.081 1.465-0.26717 1.3363c-2.5014 1.8114-4.7836 3.706-4.7439 6.4812 0.12689 4.6479 7.2273 6.2385 11.179 7.7022 8.9907 3.1443 19.084 3.421 28.911 4.3915 4.9236 0.05447 9.8702 0.02929 14.85-0.11317l-0.33898 4.9484-35.956 0.03359v0.925l0.6015 0.76842 0.73482 0.10025 1.6371 2.3053 11.493 5.6792c1.9273 1.0272 4.4751 1.3941 7.2159 1.4366h55.123v-2.0045l-3.1517 0.02222-0.89503-2.358-0.15037-5.0109 1.1188 0.0031 1.8898-1.0397 0.0946-0.59015-0.51985-0.33072-2.9289-0.04754-0.0238-6.5436c0.0199-0.9758-0.047-1.7619-0.14573-2.4768 6.4973-2.0826 12.073-4.718 19.576-6.197l8.7875-0.93222 6.4203 9.069-5.2704-7.8339-0.0465-1.3518 8.3343-0.88417 5.2509-0.46508 6.4817 9.1563-5.2699-7.8339-0.0491-1.4252 68.889-6.1017 3.6748 4.0261 3.4221 8.0655 10.627 4.2452 2.1296-0.03359-2.0464-0.13332-7.3318-3.0742 0.49609-0.66145 3.0474-1.1575-0.44338-5.1067 2.4096 1.9611 2.7146-2.763c-0.53223-0.47212-1.4324-0.95778-1.1684-1.9585l-4.5158-3.6964-0.0832-0.95704c-0.017-0.4114 0.23349-0.71876 0.80306-0.75601l4.6778-0.49609c1.2853-0.19324 2.2625-0.23776 2.2675-1.0159-0.0545-0.67489-0.6941-0.828-2.2324-0.92087l-3.2247-0.17725-0.95651-0.90949 12.636-27.003-2.2882-1.0909h-2.6701l-0.0119-0.79115c-0.0105-0.31625-0.20602-0.38795-0.39531-0.39015-0.17367 0.0051-0.42918 0.06918-0.43719 0.38396l-0.0176 0.85057-16.822 25.058-5.3969-0.17828-12.878-10.572-2.6236 2.7032c0.50447 0.45211 1.3604 0.91418 1.0981 1.8862l5.7702 4.7635 0.77927-0.06201 1.2697 1.0635-0.14624-0.0047-0.13384 0.802-67.28-2.6319c-0.55776-0.34268-1.1026-0.75678-1.7404-0.65886-0.67986-0.01402-0.97534 0.27067-1.2908 0.54001l-0.17674-0.0067-10.944-0.58652-0.092-0.9803c-0.26691-1.5485-1.4816-1.831-2.4298-2.2407 0.30932-3.5954-1.2157-4.5042-5.5459-4.0256-2.6556-1.8017-3.448-2.2374-4.6106-2.7395-6.9936-2.7318-14-5.3837-21.43-5.4993l-0.65782 0.01654-0.49609-0.46405-0.27749-0.16433 1.0314-6.8569h4.8921l0.51778 0.2558v0.35089l1.1524 0.03359 1.403-0.48471 0.22066-0.61081 7.8977 0.58599 2.9734 1.0108c19.683 1.9246 38.258 7.1111 56.559 11.609l4.2095-0.3421c-23.511-6.4695-47.13-12.451-71.622-14.498l-0.1049-0.56067-7.6837-1.1358-0.15038-0.401-0.93585-0.10025-0.01654-0.78496c0.671-0.16804 1.9976-0.435 1.2361-0.802-0.82067-0.34292-1.5216-0.54096-2.6984-0.62891-0.44039-4.2608-7.9435-3.9414-9.1947-4.0483l-8.1184-0.13332zm20.221 7.7085c1.9849 0.03149 2.3325 0.55969 3.181 0.93585l-3.207-0.46767-0.89399-0.45114c0.17611-0.0084 0.34287-0.01386 0.50022-0.01654 0.14751-0.0025 0.28728-0.0026 0.4196-5.17e-4zm-12.788 0.14262c0.12576 0.0011 0.25905 0.0093 0.401 0.0248-0.33131 0.13363-0.34491 0.21445-0.99374 0.401-0.6715 0.16837-0.86295 0.14465-1.2945 0.21704 0.49791-0.33025 1.0069-0.65087 1.8872-0.64285zm11.76 1.0185 2.5559 0.08371c1.9865 0.21563 1.8166 0.64362 2.3554 1.002-0.74739-0.14167-1.2051-0.35565-2.2717-0.41753l-2.5642-0.05013c-0.71595-0.04484-1.3158-0.01191-1.9714-0.01654 0.61891-0.20917 0.98008-0.59036 1.896-0.6015zm-10.456 0.2589 0.17518 0.63457c-1.0617-0.02446-2.0604 0.09749-3.0567 0.22582l-0.76842-0.44285c1.1859-0.24169 2.3973-0.3983 3.6499-0.41753zm10.598 1.5715-1.0097 6.7793-0.802-0.4749 0.60099-1.0687 0.01705-0.401-1.6707-1.2531 0.01705-0.60099-1.4035-0.05012-0.0832-2.5223-5.16e-4 -1e-3 0.83716 0.03876 0.17725 0.42478 3.3202-0.87073zm-8.7274 0.14056 0.65163 0.61803 1.0857 0.01705 0.08372 2.1549-0.2005 0.01654 0.0832 1.4201-0.8852 1.2862-1.0495 0.17983-0.72656-5.6538 0.95754-0.03876zm-35.118 15.837c-0.47021 0.7023-0.77525 1.0574-2.2438 1.5234l-3.0003 0.62631c-1.2008 0.21351-1.952 0.17829-2.1378 0.02325l-0.40153-0.24804c2.4013-0.94873 4.8484-1.6981 7.7834-1.9249zm-10.233 3.4226 0.86867 0.76842c0.62393 0.42317 0.22305 0.8465 0.10025 1.2697l-9.4881 15.1-10.323-2.6728 18.842-14.466zm8.7182 1.8448c2.0985-0.01312 3.1945 1.714 2.6406 3.9346l-1.8376 6.3478c-0.67232 2.5929-2.4697 3.9137-4.3092 4.1759l-7.6506 0.53485c-2.0047 0.07371-1.5823-1.5532-0.86867-2.8731l5.7464-9.8892c0.6683-1.0964 1.0056-1.5997 2.9397-1.9373l2.9061-0.26768c0.14862-0.01672 0.29315-0.02496 0.43304-0.02584zm10.251 0.51778c0.15472 3.9e-5 0.31776 0.0051 0.48937 0.01447l10.654 0.18862c1.0222-0.0507 1.9667 0.06771 2.2443 1.6304l0.30696 3.1181c0.0037 1.2013-0.1733 1.8008-0.35448 2.3859l-0.63769 2.2443c-0.44074 1.5269-1.2543 2.7403-3.2596 2.9527l-13.797 0.87436c-1.9284 0.10002-1.7494-1.15-1.3937-2.4804l2.575-8.8356c0.37356-1.0755 0.85152-2.0935 3.1723-2.0929zm-15.226 15.813c1.5711-0.0088 2.6392 0.40176 2.6437 1.5089l-0.06253 2.205c0.01959 1.9833-1.3369 3.4636-2.9294 3.5665l-8.9767 0.09457c-1.1947-0.03785-3.1345-1.1639-2.2205-3.4017l0.89761-1.866c0.53644-0.92865 1.3067-1.5196 2.4096-1.6299l7.5352-0.44907c0.24334-0.01756 0.47836-0.02717 0.70278-0.02842zm-18.027 0.69296c2.4328 0.05278 2.7299 1.4072 2.0402 3.3641-0.93222 2.2392-1.7944 4.3314-2.5037 6.7262l-4.5455-1.6645c-2.7022-1.2068-3.3371-2.8273-3.157-4.6106 0.15414-1.0533 0.64648-3.1152 3.992-3.4911l3.6581-0.31728c0.18151-0.0083 0.35353-0.01024 0.51572-0.0067zm78.218 11.233c0.1374 0.70209 0.23673 1.5128 0.24392 2.5838l0.0946 6.024-33.951 0.15916 0.27389-4.9463c5.7636-0.18968 11.573-0.54128 17.447-1.1183 5.2313-0.50675 10.503-1.2577 15.891-2.7022zm-61.859 10.537 26.81 0.07183-0.0155 5.3903-0.98495 2.3528-11.59 0.08268c-3.2797 0.10019-5.6363-0.23918-7.7958-1.2283l-7.726-4.1298-0.06666-0.66817-0.16691-0.26768v-0.86867l1.5368-0.73482zm28.141 0.07545 34.229 0.09146 0.0863 4.9196-0.56326 2.4717-33.131 0.23616-0.66661-2.1482 0.04496-5.5707zm-30.932 0.0248-1.3865 1.3865-1.1188 0.01654-0.96892-1.3363 3.4742-0.06666z" stroke="#000" stroke-width=".26458px"/>
</svg>
