<?xml version="1.0" encoding="UTF-8"?>
<svg width="250mm" height="100mm" version="1.1" viewBox="0 0 250 100" xmlns="http://www.w3.org/2000/svg">
<path d="M231.688 10.113c-.285-.003-.524.212-.556.626l-.047 1.595c-3.008.132-4.35 1.12-5.528 2.81l-22.112 36.24-5.622-.33-2.74 3.402-36.525-2.63-24.612-9.75c-.024-1.528-.906-2.374-1.954-2.348l-2.44.033-.162.01 7.934-6.977-8.627 7.033a5.05 5.05 0 0 0-1.318.314l-.614-.425-.095-1.795-.52-.473 1.417-.756-6.898-3.12c-5.026-4.28-10.84-4.732-16.735-4.798-1.564.044-3.09.172-4.59.367l.08-1.103 7.684-.735-.01-.88c33.613-.895 67.052.245 100.402 2.417-33.05-3.883-66.668-4.36-100.42-4.038l-.008-.806-7.95-.034c-1.06-1.082-2.952-1.725-4.897-1.733-2.204-.01-4.478.797-5.694 2.702L78.5 26.735v.456c-25.716 3.102-49.514 8.84-73.815 14.414l2.32.234c22.458-4.583 44.703-10.322 68.14-12.763-6.516 2.2-11.986 5.375-17.995 8.05 1.628.778 4.052.59 6.047.2 7.237-2.793 13.584-6.83 21.69-8.407l4.036-.28.363 2.995c-1.625.6-3.214 1.277-4.772 2.03l-1.914 4.772c-4.356 1.03-8.313 2.556-11.35 5.22-.064-.348-.09-.735-.518-.718-.587.043-1.258 2.787-1.55 4.287l-3.437.213-.048-1.18-1.512.047-1.252 1.524c-6.606.49-12.425.834-16.072 3.964L34.61 63.65c-.316.294-.852.61-1.63.955l-.026-.463.037.008c1.79-3.16 4.527-5.65 6.965-6.916-.878.862-1.35 1.905-1.838 2.94 1.548-2.67 4.177-4.543 6.715-6.48-1.416.952-1.55.714-4.627 3.208-3.2 1.56-5.51 4.263-7.926 7.086l.192.044v.788c-.315.13-.655.26-1.036.4l-.4-.6-3.074.6.067.435.554 1.042c-4.056 1.053-9.724 3.086-9.855 6.348-.034 3.032 3.123 4.953 7.89 6.213l-.358 2.25c-2.677-1.273-2.953-1.616-5.863-1.687v.384c3.606.003 6.28 2.288 6.28 2.288l.652-.484.465-2.46c2.01.464 4.256.828 6.646 1.118l-.09 1.2-1.335-.295-.682 2.992 3.583 1.467a2.9 2.9 0 0 0 2.797 3.644 2.9 2.9 0 0 0 2.049-4.948 2.9 2.9 0 0 0-4.433.402l-1.196-.59.362-1.89.26-.19.3-1.6c7.28.77 15.595.95 22.295 1.29v.66l5.008.19v-.567l15.686.07 1.103 1.704h.87l.1-1.17h5.38l.034-.836 10.056-.067v.602l8.285-.3-.033-.768 3.918-.123.012 2.098a3.3 3.3 0 0 0 .589 6.544 3.3 3.3 0 0 0 3.177-4.188l1.392-1.392-3.475-2.624v-.523c8.222-.455 16.387-1.544 24.535-2.807l.048.803c2.364-.358 4.773-.596 6.62-2.332l8.202-1.5 6.44 6.124-4.11-5.268c-.553-.664-.34-1.008.03-1.286l7.435-1.36 6.945.33.52-1.795 6.118-1.158 3.024.52.213-1.063 8.34-2.008-1.465 1.795 3.38 6.635 8.82-1.102 4.076-8.32c2.106 5.057 14.95 6.51 20.28 6.415 10.282-.497 17.362-6.97 23.653-13.78l-10.757-17.99 9.02-30.168-9.558.163.024-1.57a.59.59 0 0 0-.591-.614zM91.28 25.348l-.083.568-.602.025-.092-.326.777-.267zm11.367.017v.35l-3.274.067-.034-.234 3.307-.184zm-13.113.267l.084.368-1.57.234v-.284c.498-.065.995-.206 1.487-.318zm12.802.568l.048.45-2.433.165-.118-.496 2.504-.118zm-12.92.768l-.05.45-.902.067-.4-.45 1.353-.067zm1.82.05l.083.393h-.885l-.017-.376.82-.017zm6.9 1.286l-1.988.568-.084-.518 2.072-.05zm-4.636.364l.13.744-3.012.92-.106-1.122 2.988-.543zm127.98 18.68a10.81 10.81 0 0 1 .988.049l-.866 6.486c-.14-.014-.282-.02-.423-.02-.244 0-.488.02-.728.064l-2.567-5.95a10.81 10.81 0 0 1 3.596-.628zm2.426.287a10.81 10.81 0 0 1 4.335 2.102l-4.617 4.908c-.2-.14-.41-.264-.632-.368l.914-6.642zm-7.364.9l2.56 5.87c-.377.213-.72.483-1.014.8l-5.134-3.68a10.81 10.81 0 0 1 3.587-2.989zm-155.81.004L59.65 52.54l-7.82.047c-1.6-.045-2.963-.24-3.685-.85 2.265-1.758 6.876-2.673 12.59-3.19zM229.32 50.72a10.81 10.81 0 0 1 2.327 3.79l-6.62 1.834c-.11-.24-.24-.47-.392-.685l4.685-4.94zM47.154 52.616l2.825.946-5.913 11.626L35.81 63.7l11.345-11.085zm164.987.125l5.165 3.67c-.138.32-.235.657-.3 1.002l-6.297-.128a10.81 10.81 0 0 1 1.423-4.544zm-132.228.22L78.61 63.885l-20.18 1.37 3.107-11.66 18.375-.635zm4.777.034l12.63.1-.635 9.922-13.798.6 1.804-10.624zM51.85 54.03h6.248l-3.04 11.292-7.985.1L51.85 54.03zm180.193 1.886a10.81 10.81 0 0 1 .248 2.24 10.81 10.81 0 0 1-.278 2.392l-6.638-1.952c.022-.168.033-.337.034-.506-.001-.12-.007-.24-.018-.36l6.653-1.814zm-21.348 2.826l6.33.103c.063.337.166.666.308.978l-5.308 3.54a10.81 10.81 0 0 1-1.331-4.621zm14.268 1.223l6.628 1.978a10.81 10.81 0 0 1-2.489 3.87l-4.57-5.157c.166-.216.3-.447.43-.69zm-6.832 1.046c.238.246.504.463.794.645l-2.657 5.964a10.81 10.81 0 0 1-3.455-3.03l5.318-3.58zm5.355.62L228 66.766a10.81 10.81 0 0 1-4.728 2.046l-.456-6.83c.234-.097.458-.215.67-.352zm-3.24.576c.307.07.62.107.936.11.074-.001.148-.004.22-.008l.416 6.645-.336.012a10.81 10.81 0 0 1-3.89-.736l2.653-6.02zm-181.158 3.35l5.045.87-3.74 7.95-6.047.067-.267-6.682 5.01-2.205zm7.584 1.02l3.925.017 3.993 2.24-1.504 5.11-9.855.167 3.44-7.533zM33.734 82.507l.92.19-.26 1.347-.92-.213.26-1.323z" stroke="#000" stroke-width=".265"/>
</svg>