<?xml version="1.0" encoding="UTF-8"?>
<svg width="250mm" height="100mm" version="1.1" viewBox="0 0 250 100" xmlns="http://www.w3.org/2000/svg" xmlns:cc="http://creativecommons.org/ns#" xmlns:dc="http://purl.org/dc/elements/1.1/" xmlns:rdf="http://www.w3.org/1999/02/22-rdf-syntax-ns#">
<metadata>
<rdf:RDF>
<cc:Work rdf:about="">
<dc:format>image/svg+xml</dc:format>
<dc:type rdf:resource="http://purl.org/dc/dcmitype/StillImage"/>
<dc:title/>
</cc:Work>
</rdf:RDF>
</metadata>
<path d="m204.66 30.048-85.479-2.1212-0.7345-0.86667-7.8829-0.14301-0.40247 0.91085-0.68575 0.01972-0.34706-1.0098-0.42767-0.65267-3.449-0.02226-0.59641 1.4527-0.23611-0.0048-0.55198-0.76734-8.2664-0.16732 0.02745 0.99293-85.566-0.67539 0.02479 0.69051 85.905 1.8453-0.08204 0.73333 7.8159 0.1582 0.61219-0.52204 0.46622 0.07611 1.3023 1.6969-0.36948 8.3465-0.95137 0.7824-0.0203 1.0023-5.1437-0.10411-0.22885 1.3986 1.0554 0.68967-0.18518 2.5356-7.0835-0.0095-2.7608 1.0135-7.4055 5.9981 0.75129 2.4884-9.9579 13.231-4.5424-0.09194-7.146-2.8219c11.582-10.518 16.956-12.448 20.898-12.473l-0.02497-0.32407c-4.1706 0.02583-10.084 2.0961-21.8 12.757l0.23171 0.04345c-3.6218 1.4515-7.2803 2.0372-9.4776 5.3583-0.33003 0.54135-0.26298 1.0196 0.19772 1.3907l0.01706 3.46e-4 -0.06972 0.1247c8.5887 7.1406 12.271 5.9454 17.068 6.7927l0.05683-0.20301 0.03134 0.08592 20.353 0.6952-0.29156 2.7349-0.81774 0.69259-0.49927 3.6757-7.5102 0.06042c-0.71452-0.10419-1.7088-1.1539-2.6933-2.5825l-1.3893 0.91723c0.88482 1.2113 2.4871 3.3038 3.7945 3.3371l40.655-0.07493 0.81341-0.50349 0.11367-0.94252-1.8837-0.32189-0.0773-0.85231 0.60417-6.5092 1.5174-0.25252 0.58015-0.64984 22.102-3.9951 4.5902-2.6474 8.0421-9.761 3.615-1.1559 61.001-4.3173 7.0676 13.871 4.6064 0.04568-0.20229 0.1122c0.77438 1.3947 1.7132 2.2269 2.7494 2.673 1.0362 0.44613 2.1562 0.50792 3.2929 0.41448l-0.0392-0.4639c-1.0951 0.09001-2.1308 0.02768-3.0693-0.37638-0.93438-0.40231-1.7853-1.1416-2.5186-2.4554l1.8382-0.83114-3.9099-12.295 1.3883-0.8702 8.8352 7.0784 2.2774-2.7895-9.317-6.6152 2.0184-1.6601-5.1046-3.082 7.4883-19.964-5.5488 0.08823-1.9618 1.163-9.6153 16.112-9.8132-7.149-2.5339 3.023 9.2878 6.6705-0.54638 0.59056-61.718 1.6912-16.073-8.2117-3.6065-0.13968-2.5234-0.78604-6.2086-0.32621 0.81265-0.51798-0.21168-2.7446-3.2068-0.06491-3.2073 3.2766-7.678-0.35595-5.5979-0.78161-0.34819-2.6131-0.9311-0.21939 0.40504-6.8088 0.41579-0.72655 0.21887-0.9311 0.93565 0.01894 0.52611 0.41122 1.9388-0.02743 0.25494 0.60678 2.2739-0.08784 0.81264-0.51798 2.9392 0.05949 0.21804-0.86443 85.682 0.99425c-3e-3 -0.29544 7e-3 -0.51476 9.6e-4 -0.80697zm-104.91 26.523 13.493 0.33977-1.2115 5.3891-13.794-0.3128 1.5134-5.4161zm-5.4801-0.01065-2.2515 5.5681-8.4126-0.37082 3.4483-5.2766 7.2158 0.07937zm-11.394 6.5858 8.7429 0.57804-1.0809 3.8876-10.483-0.44581 2.8214-4.0198zm28.758 0.64926-0.69146 4.4636-14.426-0.45894 1.2557-4.2521 13.862 0.24749zm-44.81 9.2706 2.1734 5.949c-4.6757-0.73749-8.215 0.3238-16.156-6.1236l13.983 0.17448zm49.312 7.0706-0.5353 6.605-0.66561 0.19896-0.18206 0.8233-22.583-0.24415 0.03762-0.68459 0.31837-0.56056 0.05847-4.0628 1.3136-0.49752 0.1205-0.99976 20.09 0.37355 0.98593-0.83079 1.0418-0.12053z" stroke="#000" stroke-width=".26458px"/>
</svg>
