<?xml version="1.0" encoding="UTF-8"?>
<svg width="250mm" height="100mm" version="1.1" viewBox="0 0 250 100" xmlns="http://www.w3.org/2000/svg" xmlns:cc="http://creativecommons.org/ns#" xmlns:dc="http://purl.org/dc/elements/1.1/" xmlns:rdf="http://www.w3.org/1999/02/22-rdf-syntax-ns#">
<metadata>
<rdf:RDF>
<cc:Work rdf:about="">
<dc:format>image/svg+xml</dc:format>
<dc:type rdf:resource="http://purl.org/dc/dcmitype/StillImage"/>
<dc:title/>
</cc:Work>
</rdf:RDF>
</metadata>
<g transform="matrix(1.0646 0 0 1.0646 -7.278 2.12)">
<path transform="scale(.26458)" d="m851.89 46.711c-3.0363-0.02507-4.9258 6.0625-4.9258 6.0625l-6.0723 0.53711-71.07 105.89-231.29-6.3887-8.8379-6.3125 10.859-7.9551c1.304-2.1902 2.972-3.1945 1.084-11.312-1.7505-6.0172-9.5462-6.1186-18.51-6.6172l-1.7676-8.209c-31.133-5.9636-63.971-8.5125-97.793-9.0976l3.2129-10 17.857-0.35742 1.0723-3.7346 325.13-1.522-0.0727-3.8835-324.67-1.3981-0.10211-4.3632-16.008-1.5283c-4.8023-6.3221-7.6317-11.497-20.357-11.785-15.159 0.0796-19.596 6.5055-25.357 12.143l-10.523 0.3166 0.0269 4.8063-325.81 1.1862 0.50586 4.041 324.26 2.3237 0.50586 3.0293 22.223-0.50391 2.0195 10.102c-31.626 3.1651-55.031 15.297-76.266 29.799l-13.133-0.50586 14.006-21.541-0.87304-0.68164-21.213 24.748-27.842 1.4531c-41.404 16.997-86.163 30.341-100.45 75.824-2.2163 24.075 20.235 25.533 25.758 33.336l2.6934 3.0723-17.768 1.4277 18.84 0.44727 2.9473-2.3223c15.349 7.3048 33.282 9.4391 51.623 10.76 13.023 18.474 23.662 39.229 43.943 50.76l168.09 0.0879c2.5086-0.64422 3.0205-2.1094 2.6777-3.9277-0.17235-2.005-1.9273-3.2908-3.9277-4.4648l0.35742-51.072s6.6208-0.17687 9.5742-1.4844c11.468-5.0769 82.076-47.982 82.076-47.982l148.88-6.7832 19.107 18.572-14.643-18.215 54.236-3.4238 83.084 68.943h4.293v-4.041h-3.2832l-19.949-17.426s27.181-0.58302 30.447-2.4082c3.2586-1.8207-1.1523-37.998-1.1524-37.998l20.707-15.404-0.50391-11.869-16.922-31.314v-14.9l17.932-62.629 10.354-1.0098 2.2734-3.2832-4.041-4.041-33.588-0.50586s-1.1152-5.4433-3.9609-5.4668zm-560.41 90.594-3.8398 5.7148-15.803 0.35742-3.0371-1.875c7.3845-4.55 15.073-3.6423 22.68-4.1973zm529.07 0.14062v19.32c-0.80152 0.42581-1.3959 0.49149-2.498 1.4434l-12.672-14.086c4.0946-3.5818 9.224-5.7047 15.17-6.6777zm7.3672 0.51367c6.655 0.90033 11.725 3.0766 15.35 6.418l-12.99 13.729c-0.69396-0.64183-1.6507-0.98457-2.6348-1.2949zm-568.37 8.6543-45.707 98.188c-13.127-3.682-43.703-19.603-36.433-35.402 10.881-30.501 28.014-40.07 82.14-62.786zm542.1 1.3047 13.729 12.99c-0.64184 0.69396-0.98459 1.6507-1.2949 2.6348l-18.852-0.27539c0.90032-6.655 3.0765-11.725 6.418-15.35zm45.41 0.1875c3.5818 4.0946 5.7047 9.224 6.6777 15.17h-19.32c-0.4258-0.80152-0.49148-1.3959-1.4434-2.498zm-541.41 4.4199-10.607 41.92-48.992 11.871 21.465-53.16zm12.752 0h41.037c2.6493 3.269 4.2086 7.8457 5.1777 13.131 0.63016 4.8328 0.58028 8.7924-1.1367 10.607l-55.684 14.521zm515.72 17.516 18.852 0.27539c-0.90032 6.655-3.0765 11.725-6.418 15.35l-13.729-12.99c0.64184-0.69396 0.98459-1.6507 1.2949-2.6348zm-39.912 0.0625h19.318c0.4258 0.80152 0.49148 1.3959 1.4434 2.498l-14.086 12.672c-3.5818-4.0946-5.7027-9.224-6.6758-15.17zm23.461 5.1699c0.69396 0.64183 1.6507 0.98457 2.6348 1.2949l-0.27539 18.852c-6.655-0.90032-11.725-3.0766-15.35-6.418zm12.484 0.10156 12.672 14.086c-4.0946 3.5818-9.224 5.7047-15.17 6.6777v-19.32c0.80153-0.4258 1.3959-0.49149 2.498-1.4434zm-384.94 75.803-1.0098 18.436-166.93 0.50586-6.5664-9.3438c125.93 7.1939 156.85-0.18512 174.5-9.5977zm-165.41 24.496 164.4 1.2637 0.25 23.336-142.32-0.17774z" stroke="#000" stroke-width="1px"/>
</g>
</svg>
