<?xml version="1.0" encoding="UTF-8"?>
<svg width="250mm" height="100mm" version="1.1" viewBox="0 0 250 100" xmlns="http://www.w3.org/2000/svg">
<path transform="scale(.26458)" d="m844.6 95.408-4.375 0.40234c-0.74415 0.06299-1.2477 0.38577-1.25 1.25l1.0957 49.82c0.0167 0.52928 0.38218 0.89627 0.7793 1.25l6.2051 4.9121-0.043 0.84765-2.1484 0.10547-0.22656 0.39258 0.67187 0.67383-0.15625 0.58594-0.96875-0.25977-2.5215 4.3691 0.24414 0.91211 0.33203 0.19141-0.96875 0.22461 0.3164 3.5039-0.65234 3.9141-1.1797-0.80469-11.99-0.38281-46.693 0.95312c-1.647 0.21577-5.115 4.9221-5.1074 5.5703l0.35547 4.3789c0.0548 0.74479 0.37217 1.2523 1.2363 1.2637l49.828-0.55273c0.52944-0.011 0.90148-0.37241 1.2598-0.76563l4.9785-6.1523 0.84766 0.0547 0.082 2.1484 0.39062 0.23047 0.67969-0.66406 0.58398 0.16211-0.26953 0.96484 2.1426 1.2695-35.576 28.025-17.678 6.0703-110.6-5.1582 0.0156-2.877-0.80273-0.0898-2.7832 2.7988-19.43-0.90625c-0.39096-1.3481-0.38359-3.1391-1.9844-3.1426-1.4282-0.0714-1.9113 1.5663-2.5605 2.9316l-27.873-1.3008c-0.48085-1.1951-0.39262-2.6813-3.1367-2.7676-2.6156-0.0852-2.8114 1.3341-3.4805 2.459l-99.537-4.6426-8.6484-4.8633c-5.9217-1.7333-10.252-3.6748-14.004-10.967l-7.0215-5.416-0.0625-3.0293 2.4414 8e-3c-4.5375-2.249-9.1946-4.2788-13.965-6.0996l2.625-15.062-9.1074-3.2129-5.2871 14.293c-8.3655-2.5073-17.051-4.4279-26.039-5.7891-4.8116-2.0984-9.8346-4.0436-15.949-5.2012-0.79616 1.0632-1.1772 2.1676-1.4297 3.2852-4.5886-0.32729-9.2393-0.54169-13.967-0.61328l-1.6016-15.521 0.20508-0.14844 14.773-0.37695 2.1465 1.3887 8.7754-0.50586-0.0449-1.0996 24.857 0.72071c1.6358 0.042 1.9427 0.76481 2.6504 1.3887 1.1298 1.0627 1.5968 2.1605 5.0508 2.4629 64.61 2.2194 129.88 11.034 195.15 19.824 3.0636 0.86313 6.7763 1.9034 10.006 4.0938 1.4773 0.48567 2.5924 0.31856 3.6543 0.0566 1.6009-0.39673 2.8503-5.3737-0.44726-6.1152-79.413-12.713-158.95-24.982-241.13-27.549l-0.0586-1.4219-7.1348 0.50391-1.2637-0.63086-0.17578-0.94336 15.834-3.5391c8.5785-1.5565 17.224-2.566 26.137-1.4512h7.4492c86.336-13.309 174.3-16.88 261.9-22.559 10.096-0.19487 18.992 2.4904 28.326 4.123-10.787-3.9121-21.894-7.275-35.008-7.1973-103.33 2.2088-206 7.2712-305.69 25.006l-0.22461-1.2051-7.8281 0.82032-3.2207 2.084-11.301 2.2734-0.69532-0.50586-4.9863 0.0625-0.0391-1.4434c6.8646-1.6287 14.216-1.5537 20.447-5.4004-23.33-18.989-42.453-13.443-59.49 4.2559l2.0762 1.6582c-4.0761 0.0548-8.1228 0.26896-13.791 0.29102-73.434-7.4368-145.79-3.5286-218.06-0.0547-8.6382 0.48837-24.871 0.96009-33.746 7.7031l3.748 1.6992c4.7339-0.45759 8.7599-2.7497 12.877-3.3476 27.128-3.3911 43.007-2.4559 64.51-3.6836 52.342-1.5736 104.31-5.1028 157.1-0.1289 4.4042 0.54648 14.703 2.975 22.982 5.4785l-2.1328 1.3516h-13.66v1.1895l-3.127-0.11914c-11.17 1.9441-22.851 4.3995-34.732 7.0547-86.823 13.851-172.19 31.446-256.16 52.678-7.3676 1.6864-13.304 4.6843-18.66 8.2148l3.4258 0.57618c85.462-19.177 128.9-35.583 268.72-58.344 13.764-1.0393 27.89-1.863 40.537-3.5723l1.7852 0.84961 6.4961-0.11133 5.0215-2.8809h6.7852l2.1445-1.0703 6.875-0.17969 2.3203 2.5898 0.44727 6.6953-10 4.8223-0.97852 2.6484c-5.3293 0.76453-10.724 1.65-16.184 2.6543 1.9982 0.63395 1.7037 1.5369 1.7676 2.3984l-0.25196 8.334c0.0465 1.9826-1.0528 2.8177-3.0293 2.7773l-10.652 0.12305c-0.26967-0.51095-0.94298-0.9544-4.6016-0.90039-5.0183 0.12042-4.7893 0.53991-4.373 1.0371l-2.4707 0.11914-0.3789-2.1465-5.9356 0.25196-1.5137 2.4004-37.629 0.75586-2.1465 1.3906-20.91 0.29883c-4.86 0.0786-13.562 2.3183-14.465 5.0898-1.0769 3.5185-2.1087 7.1054-0.625 14.465 0.29452 1.5464 3.6572 3.138 6.3262 4.6426l-25.758 0.125c-3.305 0.36053-6.5881 0.65263-10.355 2.4004l1.1367 7.9551-4.4199 2.7773-7.0703-0.12695-12.375-8.5859c-0.85552-0.0839-3.5097-1.7107-2.2715 0l12.5 13.006 3.9141 1.0098-2.0195 0.50586-19.824 21.971c-2.1876 0.53741-4.1652 1.2326-5.6816 2.2734l-12.248 7.7012c-1.1016 0.86591-2.107 1.273-3.6621 4.293l-1.7676 3.0312c-7.5233 3.7239-13.91 8.9385-14.27 15.025 0.12043 14.682 28.376 23.739 47.855 29.635l-9.9746 9.6348 3.2832 0.50586 7.3867-5.4297 3.2207-0.0625 0.63086-1.3262 2.4609 0.0625 0.44532-1.1133c1.577 0.48801 3.0692 0.96017 4.3535 1.3965l-0.15625 3.5996 5.8066 2.3047-0.0312 1.7676 9.4395 1.7363 0.0625-2.2422h7.291v1.3262l1.7461 0.0898a11.301 11.301 0 0 0-9.9531 11.211 11.301 11.301 0 0 0 11.301 11.303 11.301 11.301 0 0 0 11.303-11.303 11.301 11.301 0 0 0-8.8418-11.016l12.881 0.66211 0.0625-1.0742 4.7344 1.1367 9.7266-0.0957 2.0976 1.5625 3.6445-0.0332 2.084 2.4492 2.5254 0.0957 0.12109-2.5879 6.3574-0.0586-0.0898-3.4375 1.2949-0.0879 2.1875 1.5176h3.4824l1.8301 2.2324h0.80274l-0.0879-2.3672 5.1328-0.043 1.4297-1.25v-1.0723l33.57 0.22266 19.855 0.93359 102.31-1.4004 14.834 8.0508a16.099 16.099 0 0 0-0.46679 3.7676 16.099 16.099 0 0 0 16.1 16.1 16.099 16.099 0 0 0 16.1-16.1 16.099 16.099 0 0 0-5.8262-12.375l55.58-0.76172 0.0449-2.3223 1.3398-0.043 0.043-4.7774 1.207-0.66992v-4.8652l71.859-4.4902 19.824-31.252 3.0293 1.5156 3.2832-3.5371 78.414-4.6719 47.855 0.12695 17.172 16.037c11.227 11.192 39.85 3.2287 55.811-1.6426l22.633-7.1484 9.8965 9.2129c1.6457 1.6056 3.5948 2.892 6.875 2.7695l4.4648-0.53711-0.22461-0.98242h-4.8653c-2.0314-0.0382-3.5466-1.0239-4.8672-2.3652l-9.1113-8.7832 0.58008-0.18359-8.8438-7.9024c2.8519-0.14954 5.7458-0.19948 6.0039-6.4922 0.15012-1.9242 0.90734-3.9588 2.9043-6.2188l0.64843-0.7871 1.791-0.14454c0.74479-0.0548 1.2523-0.37217 1.2637-1.2363l-0.0254-2.3008 34.775-42.266 0.50195 0.42578 0.82032-1.0117-0.48633-0.43164 4.5273-5.502-4.5391 5.4922-9.334-8.2598 2.1621-2.6934 39.711-10.902-5.9824 0.71484-23.693-2.3027 1.0742-1.3379 1.9258-0.0937c0.0134-2e-3 0.0203-0.0126 0.0332-0.0156l16.711-0.33984c1.647-0.21575 5.113-4.9222 5.1055-5.5703l-0.35547-4.3789c-0.0548-0.74479-0.37218-1.252-1.2363-1.2637l-37.264 0.41211c-1.5258-0.61866-3.0875-1.1755-4.7109-1.627l0.53516-1.25-6.6602-0.86718-0.56836-5.7441-1.0098-0.31641c-1.3285-1.2949-1.73-3.5132-4.2305-3.5352-2.0038 7e-3 -3.1008 1.9539-4.8613 4.2305l-1.0098 0.18945-0.25196 4.9863c-3.8244-0.53655-7.0763-0.12994-9.9414 0.91406l0.21875-10.32-1.4629-46.68c-0.23369-1.6446-4.977-5.0627-5.625-5.0449zm-444.99 44.727 1.1191 14.766c-3.4987-0.033-7.035 9.7e-4 -10.607 0.10352l-0.25977-9.8906 3.2188-0.2539zm446.47 15.318h1.6992v3.8106c-0.16739 0.10418-0.34118 0.198-0.50586 0.30664l-0.375 0.78711-2.9707 1.4863-0.28515-0.58594 0.40625-0.10937 2.5938-4.4941-0.94336-0.54492zm-10.035 15.867 5.3223 0.0586 0.72851 1.6387-1.6894 1.3301-3.1719-1.8789-0.55468 0.9375-0.65235-0.38672zm48.963 18.146 9.4805 8.0527-34.764 42.068-0.20508-18.395zm-681.65 25.539c-2.3476 1.5906-4.5224 3.3388-6.1602 5.5801l-4.3965-0.15625c2.0086-2.0017 4.0872-3.7768 6.8965-5.334zm3.166 0.3125h22.215l-1.7871 4.4863-26.426 0.21679c1.8212-1.8349 3.7067-3.5734 5.998-4.7031zm-13.326 8.0078c1.1211 0.10354 0.93663 1.0618 0.44531 2.2207l-10.227 23.549c-0.37794 0.58353-0.57882 1.3011-2.2734 0.88282l-11.996-2.9043 19.635-23.549 3.8516-0.18945c0.21628-0.022 0.40429-0.0246 0.56445-0.01zm30.785 1.9043-1.7402 23.75c-0.15685 1.3558-0.53051 2.724-3.2148 2.7226l-12.59-0.3125 6.3398-25.76zm-13.797 1.3262-6.377 24.559-13.574-0.0625 10.291-24.307zm71.252 3.7168h11.875c4.5546 0.12721 5.6298 2.7782 5.4473 6.3398l-0.625 19.91c-0.1943 3.9153-0.51871 7.7573-7.2324 7.9473l-11.34 0.17774c-6.0596-0.0186-7.3867-3.2784-7.0527-7.6777l0.80273-19.732c0.22525-4.9908 3.1397-7.0912 8.125-6.9648zm27.68 0.0449 12.678 0.0449c3.2025-0.0638 3.9996 1.5484 3.8848 3.7949l-0.49219 15.535c-0.21028 2.7173-0.77503 5.188-5.043 5.0898l-12.77 0.0899c-2.7843-0.36432-3.7296-2.7506-4.1504-5.7148l0.49024-13.035c-0.0236-4.0845 2.0992-5.6411 5.4023-5.8047zm48.035 0c4.0276-0.0246 6.0922 1.9146 6.0723 5.9375l-0.44726 20.045c-0.17556 3.7758 1.2217 8.2241-7.8125 8.2148l-12.545-0.22265c-5.6952-0.25327-5.4822-3.5901-5.5352-6.7871l0.53516-20.268c0.0741-4.8149 2.5594-6.9413 7.0098-6.875zm86.377 0.0254 12.564 0.18945c2.321 0.0864 3.9443 2.4387 3.9141 4.168l-0.44141 15.846c-0.0934 1.8556-3.346 4.292-5.3672 4.2305l-12.186-0.0625c-2.5989-0.10683-4.5487-2.5274-4.5449-4.9258l0.37891-14.584c0.13878-3.3503 3.6413-4.8931 5.6816-4.8613zm74.248 0.7793h13.795c4.2842 0.0964 6.4833 3.0476 6.6074 5.4453l0.22266 22.68c-0.10167 2.8049-1.3163 5.5666-5.1777 5.625l-14.555 0.17773c-3.2376-0.18746-6.015-2.49-6.0703-6.1602l-0.0449-22.723c0.0639-2.236 2.2775-4.94 5.2227-5.0449zm330.65 3.875 0.0391 0.0312 0.0723 3.5527c0.21577 1.647 4.9221 5.113 5.5703 5.1055l2.3848-0.19336-10.381 12.564-8.502-7.5957zm-683.2 16.117 12.438 1.7051 1.0742 1.4512h1.5156c1.1791 0.044 1.8783 1.4449 1.7676 2.5898l-0.50586 8.1445-2.5879 1.957 2.7773 0.88281-0.3789 9.5977c-0.12016 2.2005-1.2313 2.8846-2.7774 2.9043l-27.717-0.18946 1.5156-19.762zm24.434 3.8516h13.668l-0.47266 24.686-14.459-0.0625c-2.2124-0.12782-2.144-1.7894-2.1465-2.8418l0.37891-19.256c0.0752-1.9084 1.2423-2.5341 3.0312-2.5254z" stroke="#000" stroke-width="1px"/>
</svg>
