<?xml version="1.0" encoding="UTF-8"?>
<svg width="250mm" height="100mm" version="1.1" viewBox="0 0 250 100" xmlns="http://www.w3.org/2000/svg">
<path transform="scale(.26458)" d="m867.12 81.568c-1.0852 0.026-1.923 0.3753-1.957 1.5469l0.10547 4.2363-1.5195 0.02148-3.9727 1.875-0.53906 0.06055-0.1543-1.8477-3.75 0.02344c-2.9251 0.12146-4.326 1.1266-4.5098 2.8398-4.7823 0.946-8.4748 3.3589-10.824 7.584l-61.426 100.49-98.797 1.832-0.625-2.0547-123.32-1.7344-0.125 3.0938-33.791 0.73828-14.152-4.0176 11.785-6.1152c2.057-1.1993 4.2508-1.5866 6.4746-1.7852l14.82-0.625 5.625-14.645c0.76463-2.6531 2.0578-5.8653 0.0898-5.625l-20.625 1.0273c-2.604-0.01-4.7902 0.32874-6.3848 1.1602l-11.695 5.7148-6.3398 0.13477-1.7441-4.752-9.3438-10.102-0.0723-11.799c-19.525-2.417-39.588-2.323-59.822-1.4277l-23.016 0.79687-0.11328-3.8594-1.0137-0.48438 1.6914-20.027 1.0742-0.0684 11.033 6.8477-0.125 0.97851 5.4297 3.7891 2.2402 0.125 8.5586 6.1875c7.77 0.4082 15.36 0.47646 22.377-0.5371-8.1923-7.2304-16.893-13.611-25.799-19.652l0.0625-1.9297c93.516-6.0698 178.95 13.691 262.3 26.729 5.3408 0.22456 10.497 0.0713 14.836-1.7676-90.962-13.519-179.85-32.221-276.96-30.357l0.0566-1.7793-23.803-1.5781 0.0117-4.127 3.6602-1.5176c-4.3696-0.58095-8.6917-0.88248-12.979-0.96875l0.0898-1.0254c-2.5323-0.6336-4.4376-1.2161-7.6074-1.2305-3.2546 0.0622-5.0682 0.94652-7.6074 1.8613l0.13867 0.96484c-4.4599 0.42025-8.8862 1.0414-13.285 1.8262l5.2676 1.6074 0.0899 3.0352-32.143 2.7676 0.15625 2.293c-106.22 7.5945-210.97 25.631-314.84 49.939-0.6895 0.2075-0.80902 0.44685-0.75977 1.2305-0.08274 0.69379 4.4867 1.4018 6.1621 1.0918 87.376-16.777 173.65-37.244 264.51-42.322 14.333-2.9251 29.904-3.2006 45.357-3.7246l0.22265 3.2793 27.768-0.71485 0.88867 0.23242 4.7422 20.586-1.2773 0.46094 0.3789 2.8516-25.088 0.86914c-15.656 0.76714-39.705 1.3652-45.537 5.7148l-22.5 18.393-22.678 7.6777c-62.128 14.24-105.08 51.852-107.86 80.893-1.2091 15.13 16.763 23.763 38.588 28.953 0.0707 0.75969 0.0287 1.4598-1.3555 1.4492l-10.982-0.42383 13.014 1.8965c2.0004 0.37636 2.4994-0.92714 2.6758-2.1602 18.748 4.0985 39.691 5.8497 53.586 7.082l4.8321 6.4629-8.9727 0.53516 2.5879 4.9551 10.18-0.17774 11.926 13.953c7.5641 8.83 16.18 14.746 26.832 15.025l183.96-1.0762c5.4635-0.1447 6.7925-0.91337 7.8789-1.7188-0.9067 0.30917-1.4728 0.74604-2.9902 0.82617l-14.709-0.22461-6.4297-3.4824 11.518-1.9629-1.6953-31.875-3.9297-15.805-19.82 0.625 60.176-19.264 0.0625 1.543c8e-3 0.34473 0.11718 0.87935 0.50586 0.85156 0.42293 0.0155 0.62682-0.41699 0.63086-0.82031v-1.957l1.6602-0.53126 111.91-12.793 24.209 31.008-19.176-26.492c-0.58567-0.81017-1.0301-3.8247 2.3672-4.0723l-0.0644-1.2812 139.08-15.9 5.7812 2.6562 0.0879 1.5176 20.943 16.66-1.7012 2.0898-1.5606-1.1016 2.2344 1.8516 3.4785 2.9102 0.0156-0.0137 26.344 21.832c2.7236 2.2002 5.6738 3.0812 8.9023 2.3359-4.7408 0.70803-6.66-0.54553-8.9023-2.3359l-17.887-15.758 1.7776-1.7084 0.0117 0.01 5.1133 2.7461c1.4774 0.79575 3.013 1.1009 4.6094 0.88477l13.227-2.2422c1.5752-0.32387 2.1902-4.3745 5.0508-4.7969 2.9614-0.34639 4.1312 4.7722 5.9961 4.3555l17.395-2.4941c1.2967-0.29153 2.0162-1.3903 2.3359-2.6504l3.3457-10.924c20.952-7.957 45.767-32.38 47.934-38.793l-0.0898-15.18-24.547-32.268c-3.9813-5.5741-5.2345-11.073-3.1562-16.479l15.738-55.762 2.9473-6.25 3.3926-0.26758c0.89367-0.05069 2.4973-1.0604 2.2773-2.5449-0.1402-1.2886-1.4841-1.575-2.4805-1.5801-0.33212-0.0017-0.62679 0.02842-0.82422 0.0625l-35.383 4.5332-5.8945 0.08008-0.0391-4.1211c0.0132-0.97993-1.0586-1.6066-2.0527-1.6094zm-460.98 31.725 11.111 0.31641 0.75781 1.5137-11.617-0.69336zm-24.805 1.4453-4.5098 1.9648-16.473 0.89258-0.0449-1.6074zm-7.5449 4.375 3.7949 0.75977 3.7051 2.3203-19.777-0.53516-1.1602-1.25zm33.188 4.8008-1.7598 19.398-3.3711-1.6094-3.4102 0.44141-0.31446-3.4082 1.3887-1.7676-1.7051-1.832-0.68164-7.8613 4.4062 0.41211 4.6719-3.7246zm-31.537 1.6699 10.242 2.6719 2.5254-1.832 1.8144 0.1875-0.0449 6.6328-2.4629 1.1348 1.2637 2.7793-2.0215 0.82032 1.832 4.5449-8.5039 3.0703zm472.7 42.258c8.4815 0.0122 16.705 2.9184 23.311 8.2383l-16.043 19.201c-1.9007-1.1114-4.062-1.699-6.2637-1.7031-0.0736 2e-3 -0.14716 5e-3 -0.2207 8e-3l-2.3027-25.689c0.50609-0.0286 1.0127-0.0468 1.5195-0.0547zm-4.1582 0.27734 2.3125 25.805c-2.3544 0.55485-4.4962 1.7832-6.1641 3.5352l-19.957-16.926c6.117-6.9539 14.605-11.38 23.809-12.414zm29.465 9.7012c4.2621 3.9466 7.5421 8.8352 9.5781 14.275l-22.76 8.3379c-0.6826-1.3471-1.6045-2.5589-2.7207-3.5762zm-54.936 4.7734 20.006 16.971c-0.56266 0.91831-1.0038 1.9057-1.3125 2.9375l-25.877-2.7852c0.91068-6.2226 3.382-12.113 7.1836-17.123zm-539.46 0.0723c3.8886 1e-3 7.5329 0.39966 10.922 1.2109-7.1366 0.26062-12.792 2.3926-16.73 6.6934-7.9075 0.46193-15.915 1.7275-23.99 3.5352l0.69336-5.8711c10.812-3.6547 20.551-5.5716 29.105-5.5684zm-35.229 7.3984c-0.61034 4.3797-2.0426 8.6676-4.168 12.879l-32.83 75.762c-1.9927 4.524-3.2758 12.675-15.088 10.102-21.599-5.5784-25.473-15.445-26.453-26.012-0.22345-11.891 2.7933-20.07 8.2852-27.609 15.474-19.983 39.635-34.561 70.254-45.121zm640.04 4.5449c1.0064 3.4028 1.5213 6.932 1.5293 10.48-0.0108 0.9644-0.059 1.928-0.14453 2.8887l-23.674-1.3965c0.0131-0.18272 0.0223-0.36571 0.0273-0.54883-3e-3 -1.052-0.13973-2.0994-0.40625-3.1172zm-547.93 1.8945c8.1296 0.12415 9.522 4.7668 10.164 7.7656l1.8945 10.732c0.9906 5.399 0.14672 8.5198-5.4297 10.859l-48.234 16.037c-4.134 1.4435-5.8265-2.9326-5.3164-5.8203l7.7676-32.59c1.2883-5.2488 5.4146-6.6752 10.555-6.7324zm-53.412 1.9688c0.89558-0.01 1.6358-4e-3 2.1777 0.0215 2.0368 0.0563 3.8688 0.32533 3.4473 2.957 0 0-0.86128 7.7425-2.8476 12.793l-44.77 7.0117 8.4824-17.633c1.6044-3.211 4.0698-3.5679 6.6523-3.75 6.7104-0.47606 20.588-1.3309 26.857-1.4004zm528.45 8.7891 25.9 0.89258c3e-3 0.015 6e-3 0.0299 0.01 0.0449l-24.049 8.6074c-1.0349-3.0866-1.6606-6.2956-1.8613-9.5449zm50.201 1.9512 23.76 1.3984c-0.92025 6.12-3.3509 11.914-7.0723 16.859l-17.939-15.217c0.5499-0.95388 0.97089-1.9765 1.252-3.041zm-23.547 1.5332c0.62173 1.5214 1.5384 2.9048 2.6973 4.0703l-16.018 18.887c-4.9009-4.085-8.6704-9.3603-10.947-15.32l1.2246 0.61133zm20.727 3.6524 17.855 15.143c-5.6104 6.4499-13.269 10.774-21.689 12.246l-1.9531-23.781c2.2271-0.6407 4.2312-1.89 5.7871-3.6074zm-15.967 2.082c2.0128 1.3065 4.3601 2.0037 6.7598 2.0078 0.26652-1e-3 0.53294-0.011 0.79883-0.0293l1.9434 23.652c-1.2441 0.13907-2.4944 0.21533-3.7461 0.22851-7.7986-0.0127-15.397-2.4726-21.723-7.0332zm-557.78 0.54297-7.2617 23.297-22.539 3.3457 9.0918-22.98zm-23.865 4.166-8.1445 22.791-21.908 4.041 9.4707-23.801zm16.162 22.35c-0.11364 1.1598 0.55004 2.0233-3.7891 3.0312l-41.605 7.6387c-1.4571 0.45448-1.7135-0.84361-1.8926-2.0195zm527.39 17.021 3.6543 2.9062-1.7458 1.892-3.8468-3.1212zm-369.68 30.582c-0.24862 2.3781 0.12044 4.7567 0.82226 7.1348l-172.48 6.5664-3.2188-4.293c58.478 2.1993 116.87 2.0595 174.88-9.4082zm1.8555 13.551c0.47973 2.1186 0.41168 4.9755 0.49218 7.3672l0.3125 19.24-146.67 0.4375c-7.4064-2.2778-12.045-6.3422-15.783-10.986l-7.4492-9.5332z" stroke="#000" stroke-width="1px"/>
</svg>
