<?xml version="1.0" encoding="UTF-8"?>
<svg width="250mm" height="100mm" version="1.1" viewBox="0 0 250 100" xmlns="http://www.w3.org/2000/svg">
<path transform="scale(.26458)" d="m865.69 86.648c-0.39667 0.056807-0.78445 0.33459-0.98438 0.89258-0.33105 1.2683-0.6793 2.5329-1.0215 3.7988-5.2277-0.33466-10.292-0.54652-15.092-0.56055-1.3909-0.004063-2.7597 0.007354-4.1055 0.037109l-74.5 101.77c-70.777-2.2876-142.12-6.8289-213.56-11.779l-29.82-9.6426c-3.7708-6.3772-6.1053-13.642-20.893-13.215l-31.43-10c-13.787-3.0413-26.356-5.4028-41.207-6.5586-8.9997-8.183-20.744-12.813-31.924-18.176l1.7031-1.3379 3.3027-0.53516-0.0293-1.0293c4.4193-0.19542 8.8351-0.3736 13.248-0.54102 0.26858 0.83023 0.84149 1.142 1.457 1.1465 0.90833-0.05763 1.0741-0.59493 1.2812-1.248 0.40486-0.01485 0.81003-0.0303 1.2148-0.04492 0.52543 1.167 0.93151 2.5448 2.2441 2.5176 1.2238-0.01709 1.4285-1.4426 1.4707-2.6504 106.44-3.6654 211.12 0.37177 316.35 2.0274-104.57-5.463-208.98-11.249-319.05-6.2539l-0.25586-0.28711c-0.11527-1.4518-4.0083-2.2094-4.5098 0.13477l-0.04297 0.3789c-4.496 0.2166-9 0.4474-13.516 0.70118l-0.0332-1.1914-1.1621-0.89258-4.0176-0.08984-2.5879-1.1602-2.3223 1.4297-5.0898 0.08789-0.35546-1.875c-5.4799-6.3557-23.187-7.364-30.414-1.2949-24.388-8.0778-50.031-11.347-75.748-14.33-10.343-0.80137-19.943-1.1846-21.463 0.90234-0.41415 0.64408 2.1259 1.4251 3.7598 1.6387 29.918 3.9102 61.592 5.1256 87.344 15.914l-2.4082 1.1875-1.9648-1.1602-1.1602-0.08984-6.0703 2.5898 0.05664 0.91406c-5.1363-0.05572-10.258-0.07478-15.367-0.07031l-0.4043-0.48633c-0.11535-1.4518-4.0083-2.2094-4.5098 0.13477l-0.06055 0.35742c-102.79 0.46945-200.4 12.604-298.82 22.9l16.428 1.9648c93.346-9.8947 186.61-20.18 281.8-20.885-0.02602 1.8006 0.86036 2.2183 1.7305 2.2246 1.0759-0.06826 1.2124-1.2207 1.5625-2.25 0.34808-0.00176 0.69679-4.5e-4 1.0449-0.00195 0.54267 1.09 0.88972 2.3682 2.2578 2.3398 1.4644-0.02045 1.7511-1.2792 1.8359-2.3496 4.247-0.00579 8.497 0.00276 12.752 0.03711l0.05468 0.88476h5.8945l0.35546 2.2324 1.4297 0.17773 1.875-1.6953 3.4824 0.08789 1.875 2.5 2.7734-0.38477 3.9141 9.2754-1.3301 0.75196 1.3008 3.2207c-15.357 0.03663-25.475 2.3199-33.17 7.6406-23.177 2.3108-44.918 7.0368-65.496 13.719l-0.04687-4.3106c0.06748-1.9112-4.4497 0.37579-4.4629 1.875l-0.15235 3.9961c-4.0424 1.3824-8.0376 2.8468-11.992 4.377l-0.80859-0.33399 0.63086-25.227-1.1328 25.02-11.115-4.5938-19.73-15.025 18.594 22.096 5.4473 1.3203c-6.8194 2.849-13.517 5.9026-20.094 9.1602-32.195 9.2948-90.83 37.161-91.672 57.326 0.04267 3.6214 0.75741 7.0713 2.0508 10.355l-2.4922 2.082 3.4609 0.12305c4.3064 8.8915 12.959 16.498 24.227 22.857l0.04687 3.0723-7.2324 0.44726-19.643 18.035 20.982-13.213 10.178-1.25 1.5059-4.0156c13.309 6.5444 29.436 11.581 46.062 15.17l4.7871 12.037-2.3008-0.04102c-0.07914 3.841 4.2982 3.8768 6.8184 3.9785l46.486 1.2168 0.44921 25.977-8.0449-0.04687-0.08789 1.1465h-0.00195c-1.2185 0.08522-2.4858 0.08213-4.4551-1.1465l-15.152-9.8477c-0.88233-0.52853-2.8156 1.6593-2.1465 2.3359l14.711 10.037c3.2716 2.4973 5.3535 3.3923 6.6914 3.2832h8.5859l163.01-0.31445-0.25196-5.8086h-15.658l-6.0606-3.9141-1.0098-18.311c56.517 2.1263 108.53-17.742 148.29-97.361l147.88 8.3574 9.6504 15.516c1.3996 2.1785 4.2145 2.3189 7.0703 2.4004l16.289 1.1348-16.195-1.2148c-2.7276-0.24068-5.7254-0.04351-7.1484-2.3828l-6.3438-12.205c-0.88633-1.4981 2.7248-2.0749 5.9902-2.7227l46.299 2.6172c4.4649 0.45835 8.9027 1.3056 13.133 5.0508l22.096 17.045 21.088 32.516c1.8425 2.6615 4.0507 4.8037 8.7129 3.4707l52.904-8.332c3.9512-1.2517 8.7438-0.95169 9.7773-7.5898l5.125-19.938 30.557-27.527-0.50586-16.162-25-39.396c-0.60204-4.1834-1.9523-6.8719-1.0117-14.141l19.445-52.023c0.53692-1.5251 3.805-1.1736 6.0625-1.5156-17.154-1.5237-35.417-3.8792-52.141-5.0801l0.32422-3.625c0.12118-0.84818-0.56545-1.3662-1.2266-1.2715zm-498.55 38-0.08985 9.5547-2.0215 1.1426-3.7598-9.2461 1.4062-1.0039 4.4648-0.44726zm16.568 0.66015c0.57054 0.28477 1.1398 0.57126 1.7129 0.85352l-2.457 9.2988-2.791-1.2402 0.38086-6.1797 3.1543-2.7324zm2.5039 1.2402c8.5182 4.1787 17.177 8.2161 24.1 13.99l-23.691-0.42187-0.46289-3.2363-2.2422-0.99609 2.2969-9.3359zm-6.5176 2.2363-0.35352 5.0664-3.6289-1.6133 3.9824-3.4531zm466.18 36.561a39.492 39.492 0 0 1 8.9551 1.0703l-6.457 25.396c-0.63603-0.09728-1.2823-0.16406-1.9453-0.16406-1.6266-1e-5 -3.1769 0.31541-4.6094 0.86914l-12.58-22.781-0.12695-0.37891-0.72461 0.09375a39.492 39.492 0 0 1 17.488-4.1055zm12.754 2.1602a39.492 39.492 0 0 1 20.26 15.689l-22.416 13.326c-1.3373-1.687-3.0832-3.0346-5.0957-3.8789l7.252-25.137zm-33.186 3.5801 13.617 22.904c-1.3328 0.93927-2.4786 2.1232-3.3711 3.4902l-23.047-13.9a39.492 39.492 0 0 1 12.801-12.494zm-573.1 7.3281c2.5066 0.01311 4.8914 0.16701 7.1328 0.47461l-9.5332 7.7656c-41.578-0.82428-59.844 36.182-72.363 54.975l-32.504 1.3984c-6.6733 0.32093-13.778-4.1485-9.9102-11.484 14.727-21.776 79.579-53.326 117.18-53.129zm628.52 8.1621a39.492 39.492 0 0 1 4.4219 16.17l-26.121 0.33399c-0.15003-1.3872-0.5287-2.7028-1.0859-3.9219l22.785-12.582zm-70.178 0.41016 23.643 13.25c-0.15787 0.44991-0.29292 0.90969-0.40039 1.3809l-27.162-2a39.492 39.492 0 0 1 3.9199-12.631zm-549.16 5.6348c0.98913-0.0139 2.0464 0.06337 3.1113 0.15235l57.41 4.7324c3.8162 0.21932 6.8056 1.2418 6.6074 5.3574l-1.6074 27.857c-0.19428 5.4996-2.8647 6.8716-6.25 7.0527l-58.75 1.6973c-6.8725 0.0088-8.2709-2.4588-8.125-5.625l2.1445-36.428c0.13553-3.8849 2.4916-4.7552 5.459-4.7969zm-19.951 0.00586c4.3877-0.20704 6.2043 3.016 6.1602 4.8867l-2.9043 37.123c-0.13894 2.5169-1.598 4.1533-5.3027 4.293l-46.846 2.4004c-1.7438 0.0848-2.2064-1.0545-1.3906-3.4102 7.2865-21.137 25.639-41.105 49.371-45.203 0.31559-0.04571 0.6196-0.07604 0.91211-0.08985zm598 2.2246 0.00781 0.01172a11.996 11.996 0 0 0-0.2539 0.18164c0.08336-0.06276 0.16105-0.13271 0.24609-0.19336zm-0.28906 0.22656a11.996 11.996 0 0 0-2.6504 2.9707l-0.0918-0.05469c0.73859-1.126 1.6729-2.1034 2.7422-2.916zm-4.0644 5.6543 0.11914 0.06641a11.996 11.996 0 0 0-0.24219 0.90429l-0.14649-0.01171c0.07816-0.32443 0.16528-0.64567 0.26954-0.95899zm-479.13 0.93555c0.43874-0.02055 0.9345-0.00962 1.4941 0.03515l34.375 2.3203c3.8038 0.21218 5.7782 1.367 5.5352 3.6621l-1.3398 26.07c-0.15164 1.7176-1.2446 3.0659-6.0703 2.9473l-35.447-0.08984c-4.4932-0.01032-3.9883-1.3598-3.9277-2.5898l1.875-28.838c0.13895-1.7288 0.43468-3.3738 3.5059-3.5176zm450.29 3.2422 27.283 0.79492c0.13452 1.4043 0.4994 2.7389 1.0508 3.9746l-23.947 13.223-0.00391 0.00196a39.492 39.492 0 0 1-4.3828-17.994zm28.293 0.82422 0.16797 0.00585a11.996 11.996 0 0 0 0.875 3.3867l-0.125 0.06836c-0.47069-1.0794-0.78863-2.2415-0.91797-3.4609zm24.455 0.38085 26.145 0.5a39.492 39.492 0 0 1-3.2637 14.092l-23.193-12.996c0.13612-0.52068 0.24251-1.0516 0.3125-1.5957zm-439.37 0.49805c0.41158-0.02074 0.85679 0.02628 1.3086 0.08984l24.105 4.5527-15.268 25.357-12.768-0.08984 0.44726-26.518c-0.00399-2.6596 0.93909-3.3303 2.1738-3.3926zm437.94 3.957 22.574 13.613a39.492 39.492 0 0 1-11.449 12.73l-13.701-23.047c1.026-0.95065 1.9039-2.0578 2.5762-3.2969zm-20.457 1.1856a11.996 11.996 0 0 0 3.4414 3.0352c-1.3618-0.75812-2.5607-1.7714-3.5234-2.9863l0.08203-0.04883zm-0.94336 0.56055c1.567 2.018 3.7156 3.5597 6.2012 4.3594l-7.5273 26.088a39.492 39.492 0 0 1-22.23-16.441l23.557-14.006zm16.346 3.3574 12.895 23.354a39.492 39.492 0 0 1-19.67 5.3027 39.492 39.492 0 0 1-7.0898-0.67188l6.7168-26.412c0.30683 0.02203 0.61339 0.04688 0.92578 0.04688 2.2588 0 4.3784-0.59154 6.2226-1.6191zm-328.63 16.881 13.193 0.56836c-5.7659 11.483-13.526 21.842-21.971 31.818l-13.51-1.7676c7.6178-10.123 16.038-19.888 22.287-30.619zm-355.07 15.402c2.12 0.06235 3.4893 0.66371 2.1445 3.2207l-10.605 18.879c-8.3002-4.673-17.907-11.613-20.52-15.152-1.6313-2.2102-4.2637-6.6343 2.6523-6.6309l25.381-0.31446c0.32778-0.00902 0.64441-0.01086 0.94727-0.00195zm45.162 43.705c17.126 3.3262 34.491 5.1384 49.605 5.4824l0.18554 5.8047 0.00782 0.45898-48.023-0.87109-1.7754-10.875zm62.545 5.3516c28.756 2.5588 57.568 3.6716 87.883 4.6719l-88.768 0.2539 0.88477-4.9258zm-4.6719 11.238 123.62 0.50586 0.88282 21.717c-0.02646 1.3752-0.04139 2.7556-2.7774 2.6523l-117.81 0.25196c-3.1774 0.24185-4.4472-0.46857-4.293-1.8926l0.37891-23.234z" stroke="#000" stroke-width="1px"/>
</svg>
