<?xml version="1.0" encoding="UTF-8"?>
<svg width="250mm" height="100mm" version="1.1" viewBox="0 0 250 100" xmlns="http://www.w3.org/2000/svg">
<path transform="scale(.26458)" d="m879.06 69.48c-1.1174 0.060836-2.2233 0.63217-2.2188 1.6074l-0.09375 1.8613-0.69336 0.033203-0.03125 1.5293 1.2266-0.046875-0.01953 1.5332c-7.1187 0.7644-13.077 2.6389-16.297 7.1328l-76.68 127.64c-1.7006 3.1547-3.646 3.8555-5.6816 3.6602l-156.32-10.857-45.713-17.885 1.0762-2.6035-1.5781-0.75781-3.6406 1.7402-24.5-9.5859 12.311-28.961-0.47656-0.16016-12.252 28.957-5.9121-2.3125c-4.0637-7.9633-13.754-5.7447-22.602-5.0508l0.125-6.6914-25.164-17.135c-10.353-7.8894-28.091-11.187-50.893-11.338-2.8467-0.04745-5.7893 0.10214-8.7715 0.38867l-0.04297-3.459 19.797-2.2871-0.06446-1.2012c15.766-0.25582 31.531-0.48568 47.297 0.57617 59.01 2.5519 115.68 12.604 173.15 20.061 6.5192-0.1893 13.699 0.495 19.32-0.88476-75.573-13.934-151.56-22.17-228.09-23.031l7.8809-0.95899 16.855 0.25196c87.384-5.7114 173.06 1.3817 259.19 5.0976 6.166 0.5812 12.217 0.81476 18.215 0.89258-3.3196-1.6643-8.2456-2.8165-15.268-3.3027-91.57-5.1969-173.37-14.835-298.87-4.6094l-0.14844-2.7129-15.457 0.52539c-6.336-13-46.963-10.737-47.211 4.2793l-22.689 3.3203 0.30664 2.2812c-116.23 11.787-224.31 37.475-332.76 62.539l-9.9766 4.3574c108.61-21.32 207.37-47.313 330.38-61.789-35.553 11.002-50.491 21.482-69.955 33.314l9.7227-0.125 21.471-4.6758c-9.4026 5.5762-18.422 11.304-27.408 17.045 2.2199 2.4824 9.9765 2.2854 15 1.25 26.273-17.04 55.569-32.215 88.91-44.889l4.2129-0.93555 1.1367 7.5606c-6.0186 2.1932-11.152 4.4227-14.705 6.209l-7.0547 16.205c-12.899 2.7697-25.726 5.6195-38.033 9.0488l-2.0117-3.8242-4.0625 1.1602-1.9512 5.0098c-19.863 6.1238-38.008 14.165-52.297 26.506-15.469 4.1251-24.402 12.481-34.408 20.141-1.0749 0.91057-2.1187 1.8364-3.1719 2.7578-4.3952 2.1768-9.2602 4.8235-12.914 8.1641-14.251 4.9187-22.006 17.922-30.637 29.566-3.6704 1.5906-7.4389 3.1489-11.406 4.6406l-22.469 5.3516c-0.00861-0.63396-0.10235-1.257-0.61133-1.8242-1.1993 0.56043-1.8763 1.5566-2.5293 2.5723l-17.873 4.2578c-7.7704 1.8897-13.544 4.6045-13.75 15.268 0.16448 7.2232 6.7519 13.027 15.18 13.75l33.615 2.1426c0.4736 1.1686-0.06284 2.7254 2.4102 3.125l3.7949 0.04492 0.40234-3.1699c7.6474 1.9606 15.478 3.227 23.406 4.1211l0.17187 2.3711-3.8008-0.50976-3.2598 9.3301 11.221 4.541a10.179 10.179 0 0 0-0.14844 1.666 10.179 10.179 0 0 0 10.178 10.178 10.179 10.179 0 0 0 10.18-10.178 10.179 10.179 0 0 0-10.18-10.18 10.179 10.179 0 0 0-8.8359 5.1426l-1.4707-0.57813 0.0664-6.707h0.10743l1.5625-0.58008-2.1113-4.1016c14.971 1.4744 30.251 1.7693 45.311 2.9082l7.0703 7.8281c1.6181-1.8948 1.8754-4.2777 0.63281-7.1973l18.781 0.66407 0.0957 1.7988 21.496 0.5039 0.41015-1.9883 49.207-0.01367-0.08984 3.125c0.14789 2.1106 2.8284 2.0489 2.9902 0.04297l-0.04296-3.2578c40.976-0.10032 73.972-1.635 102.03-4.0566l0.02344 1.1543-1.4727 1.3848c-1.2743 0.75404-1.6242 1.5961-0.40234 2.5879l0.08789 0.42383a11.775 11.775 0 0 0-7.2461 10.857 11.775 11.775 0 0 0 11.775 11.775 11.775 11.775 0 0 0 11.773-11.775 11.775 11.775 0 0 0-0.98437-4.6758l6.959-2.0508c0.61849-0.18136 0.79961-1.2633-0.35546-1.6074l-10.805-4.2402c-0.34783-1.1606-1.1592-1.8114-2.0977-2.3223l-0.80469 0.04492 0.03907-2.1387c47.019-4.4053 80.019-11.33 114.2-18.041l21.945-10.016c6.2325-1.1284 12.465-2.3026 18.697-3.5l21.141 24.904-20.734-24.98c47.086-9.0551 94.174-19.629 141.26-25.213l17.172 20.961 25.633 0.63086-3.1562-6.4395c2.2203 0.5422 4.3828 1.0097 6.5176 1.4414l13.855 10.158c3.3442 2.4008 7.8226 2.5012 14.752 1.9219l-0.04883-0.3086c-5.0334 0.34005-10.828 0.71875-14.488-1.8672l-12.766-9.6543c53.82 10.408 80.765-13.894 107.01-39.109l-0.17774-5.1797-32.857-55.355 29.07-98.143-14.838 0.64258-1.6094-2.5039-4.9238-0.12695-3.2715 3.0547-5.9766 0.25976c-0.48663 0.019493-0.954 0.057756-1.4336 0.083985l-0.01758-1.3477 1.3906-0.125-0.06446-1.168-1.0723-0.12695v-1.9883c-0.04895-1.0608-1.1794-1.5101-2.2969-1.4492zm-447.12 44.363c1.3392 0.14324 3.5159 2.0548 5.3848 3.3184l-7.502 0.25586c0.10435-1.3615 0.44793-2.7456 1.5176-3.4824 0.17276-0.08836 0.37365-0.11597 0.59961-0.0918zm-26.994 2.082 2.8223 3.0098-6.7363 0.98633c0.8014-1.8173 2.2185-3.2341 3.9141-3.9961zm28.533 12.883-0.16993 3.4785c-3.4903 0.37099-7.0262 0.92707-10.541 1.6387v-1.5977l1.875-2.5 8.8359-1.0195zm-29.906 3.0723 7.3203 2.5 0.36914 2.3691c-3.6362 1.0383-7.1278 2.1656-10.396 3.3203l-1.2988-7.2988 4.0059-0.89062zm-34.363 0.90234 0.16602 1.2402 1.1777 0.2207c-8.1208 3.1813-15.758 6.555-23.033 10.07 6.6862-3.9041 13.847-7.7556 21.689-11.531zm477.49 56.582a34.927 34.927 0 0 1 2.9394 0.14649l-5.2441 21.783a13.259 13.259 0 0 0-1.832 0.35742l-6.6621-20.531a34.927 34.927 0 0 1 10.799-1.7559zm8.5449 1.1074a34.927 34.927 0 0 1 2.7559 0.81054l-1.793 13.781-5.6875 6.8711a13.259 13.259 0 0 0-1.0781-0.32813l5.8027-21.135zm5.541 1.8848a34.927 34.927 0 0 1 4.1309 2.1856l-5.1562 6.2285 1.0254-8.4141zm-30.164 0.94336 7.4199 20.621a13.259 13.259 0 0 0-3.0117 3.2558l-18.895-9.7715a34.927 34.927 0 0 1 14.486-14.105zm38.891 4.5684a34.927 34.927 0 0 1 8.5527 11.113l-20.217 7.5098 0.76368-6.2715 10.9-12.352zm-585.22 4.8203c7.9664 0.0892 8.0997 6.2587 7.959 9.9141-11.577 1.9332-22.996 5.2955-34.408 8.7129l-7.0156-2.4492c8.2268-5.867 19.307-14.619 31.764-16.113 0.60296-0.05066 1.1701-0.0704 1.7012-0.06446zm60.174 8.2988c3.092 0.13644 5.0924 4.5273 4.6426 7.0547l-5.7148 36.338c-0.43642 4.075-2.8443 5.4854-5.5352 5.5371l-20.715 1.7852c-5.0197-0.21176-5.0137-5.4336-4.6426-8.4824l8.125-36.875c0.74373-2.444 1.4997-4.8807 6.4277-5l17.412-0.35742zm27.07 0.8457c0.37984-0.00942 0.78253-0.00542 1.2109 0.01172l41.037 1.0098-2.0195 38.07-45.205 6.125c-5.5258 0.63314-7.3144-4.649-6.5664-8.9023l4.9258-30.242c0.5052-2.9018 0.91949-5.931 6.6172-6.0723zm52.662 0.4043h13.035c7.0273 0.295 7.1405 7.4367 5.8027 11.16l-6.7852 16.787c-2.9231 6.7027-6.6134 10.578-13.84 10.268l1.7871-38.215zm389.62 0.39844 14.543 6.9473-16.064-1.1035a34.927 34.927 0 0 1 1.5215-5.8438zm66.311 1.6426a34.927 34.927 0 0 1 1.4961 10.014 34.927 34.927 0 0 1-2.5547 13.045l-20.131-9.5957a13.259 13.259 0 0 0 0.4375-3.3164 13.259 13.259 0 0 0-0.37109-3.0508l21.123-7.0957zm-25.125 0.02734-0.0332 0.26758a13.259 13.259 0 0 0-0.11133-0.10352l0.14453-0.16406zm-550.57 0.06445c4.4362 0.0687 4.1598 3.485 3.7324 5.4297l-3.4727 14.646-51.076 2.4629 3.7891-9.2812c1.2261-2.4795 3.9407-4.386 7.4492-5.1758l37.375-7.8926c0.83944-0.14088 1.5694-0.19927 2.2031-0.18946zm-58.076 7.9551 7.1328 2.5254-19.445 37.439-22.664-5.3672c11.283-12.472 23.318-23.065 34.977-34.598zm-5.6621 2.2422c-7.3963 6.5194-14.31 13.28-21.189 20.059 1.7006-3.1449 4.2428-7.6106 9.1035-12.318 3.2974-3.0603 7.8638-5.6155 12.086-7.7402zm571.13 1.1484 16.955 1.1074-16.068 5.3223a34.927 34.927 0 0 1-0.88672-6.4297zm22.41 4.5723a13.259 13.259 0 0 0 1.0293 1.7207l-14.201 15.953a34.927 34.927 0 0 1-6.6426-10.408l19.814-7.2656zm22.578 1.9512 19.699 10.164a34.927 34.927 0 0 1-17.982 14.717l-4.4707-12.223 1.334-10.998a13.259 13.259 0 0 0 1.4199-1.6602zm-628.53 0.07032c-15.41 8.8242-19.801 17.818-24.551 26.729-1.7475 0.79402-3.5161 1.5817-5.3066 2.3613 8.5029-11.519 16.355-24.278 29.857-29.09zm-0.43945 0.45507c-4.9238 4.9348-7.3132 9.4393-8.9023 12.416-4.4292 4.3653-8.8577 8.7305-13.4 13.039-0.47062 0.21615-0.95096 0.42914-1.4238 0.64453 4.6584-8.7543 9.0858-17.567 23.727-26.1zm611 2.7324a13.259 13.259 0 0 0 0.15234 0.09179l-4.7695 21.283a34.927 34.927 0 0 1-8.9883-5.0801l13.605-16.295zm12.879 0.92968-0.2168 1.4902-0.4375-1.1973a13.259 13.259 0 0 0 0.6543-0.29297zm-547.88 0.72071-5.8047 23.93-30.713 0.80274 9.8203-23.482 26.697-1.25zm539.89 0.30859a13.259 13.259 0 0 0 2.3887 0.22852 13.259 13.259 0 0 0 0.00586 0l3.7656 11.393-1.459 10.078a34.927 34.927 0 0 1-1.7305 0.0625 34.927 34.927 0 0 1-6.9922-0.70898l4.0215-21.053zm-570.15 1.3887-9.6445 23.393-20.893 0.89258 10.805-23.125 19.732-1.1602zm578.99 18.336 0.47461 1.4375a34.927 34.927 0 0 1-0.66406 0.12305l0.18945-1.5606zm-643.46 3.5312 23.549 6.6289-11.363 24.938-36.682 0.3789 0.75781-22.16 23.738-9.7852zm57.957 9.2793c3.9089 0.00428 3.4756 2.3258 2.4004 4.9883l-2.2734 5.2402c-1.9755 5.7684-6.8352 8.4225-13.006 9.6602l-20.141 0.0625c-1.308-0.21865-2.734-0.18538-2.9043-2.8418l-0.125-2.3984c0.0017-0.83381 0.43457-1.4946 0.88281-2.5879l3.6621-8.9648c0.81667-1.9762 2.5613-2.3655 4.5469-2.3379l26.957-0.82031zm-58.67 45.979 0.00391 0.0625 0.98242 0.9375h0.47266l-0.09961 5.7617-4.8828-1.9219 2.2324-4.7774 1.291-0.0625zm260.23 2.0274 7.7246 3.3926-4.1465 1.1016a11.775 11.775 0 0 0-5.0801-4.2344l1.502-0.25976z" stroke="#000" stroke-width="1px"/>
</svg>
