<?xml version="1.0" encoding="UTF-8"?>
<svg width="250mm" height="100mm" version="1.1" viewBox="0 0 250 100" xmlns="http://www.w3.org/2000/svg">
<path transform="scale(.26458)" d="m803.15 81.225c-0.19109-0.005763-0.38471-0.003377-0.58008 0.007813-1.042 0.059678-2.1406 0.36687-3.2598 0.98438l-6.3438 3.4238 23.863 49.117 7.5762-0.125 1.0879 2.3496-3.2656 2.3106 3.9277 7.5-0.08985 5.1777-2.1426 1.0723-0.17773 1.1602 1.25 0.17774-0.08984 2.4121-24.018 37.41-16.762 17.58c-3.8416 4.1289-8.3422 5.4592-13.133 5.5547l-135.11-6.6172c-8.1874-0.03045-14.385-2.29-19.574-4.3672-49.706-19.893-100.24-36.243-151.85-48.043l0.17774-2.5c1.5285-0.7485 5.7082-1.2568 3.75-2.3223-16.726-9.6993-34.241-8.7568-51.607-9.8203l-9.916 0.70703-12.404-5.707 0.17774-1.3398h4.6426l3.3047-3.3926 28.035-1.25 0.00977-0.95508c70.582 1.0044 151.14 17.703 208.6 29.229l21.088 0.37891c-62.847-14.727-127.52-22.393-191.87-31.322 86.899-1.2063 175.91 11.854 263.91 18.064-9.9475-3.8918-198.19-27.907-301.66-22.65l0.00976-0.95899-3.6621-1.6973-20.355-0.53516 0.05468-1.8203 5.6426-0.17969c0.21026-5.4006 5.6828-7.7008 8.9648 0.25195l2.2109-0.0625c-0.08364-17.182-65.716-13.961-65.408 2.5254l14.395-0.82226c2.5489-4.7258 6.6201-6.583 10.596-6.7344l0.50782 7.8242-36.041 4.5938v2.2305c-118.89 9.71-225.04 36.75-332.62 61.836 109.97-21.018 217.09-47.975 332.62-57.445v1.1562c-46.751 11.414-87.285 32.316-119.76 46.914 3.6008 2.5834 8.0994 1.7969 12.32 2.0547 31.087-13.898 65.067-28.72 98.998-39.305-11.92 7.8562-19.434 15.112-25.775 22.207 8.7421 0.1432 16.888-0.90366 24.621-2.7793 7.8544-9.4348 19.806-21.262 35.225-29.627l5.6875-0.29883 8.207 3.1582 0.37891 1.5137-12.248 7.1973-36.365 21.215c-31.251 9.2325-59.081 23.025-87.631 35.859-8.9936 2.7752-17.584 6.1856-24.244 12.627l-41.164 37.629c-15.885 8.2368-47.289 16.477-47.652 24.711-0.1644 11.35 19.071 25.292 52.072 26.049l3.1562 2.2734 40.785 1.1367 3.6621 2.1465 5.0137 0.01953 9.0605 9.1621a8.75 8.75 0 0 0-6.0723 8.3184 8.75 8.75 0 0 0 8.75 8.75 8.75 8.75 0 0 0 8.75-8.75 8.75 8.75 0 0 0-7.1191-8.5898l8.8652-8.8047 37.654 0.14648c4.389 6.3889 18.511 7.8436 28.256 7.6934l106.34 0.21875a16.83 16.83 0 0 0-0.25 2.7734 16.83 16.83 0 0 0 16.83 16.832 16.83 16.83 0 0 0 16.83-16.832 16.83 16.83 0 0 0-1.0547-5.834l42.146-16.469 6.3125 0.25196c11.457-5.4549 23.707-9.9841 38.008-12.121l13.248-4.2832 1.5254 23.98-1.3574-24.035 25.727-8.3203 187.26-13.48c8.2046 0.77552 14.756 3.7574 20.961 7.1992 11.176-2.4465 21.995-4.2415 35.102-10.229l0.75782-4.6719 3.1582-1.0098 8.3887-19.326-9.2871-1.0703 29.434-7.1309c6.1164 4.1573 10.109 9.8315 19.193 11.869l11.111-6.5664-4.293-10.227 1.3242-13.902c-10.921 1.5-24.136 2.9577-30.365 8.5976v1.6426l-21.971 5.9336 28.537-62.439 8.2695-4.6719 1.957-2.9043h18.941c1.8866 0.04063 8.3126-3.2769 8.3965-6.377l-0.25195-8.0176-49.971-0.58399-5.4004-3.6602h-1.6074l-0.17969-5.1797-5.4453 0.13477-0.26758 5-3.4824 5-7.3223-0.26758-1.9648 1.1602-5.2676-6.1602-0.73633 0.52148-20.949-47.924c-1.008-2.3835-3.3642-4.3296-6.2305-4.416zm-503.15 136.1 21.072 0.17774c5.2584 9.3e-4 6.8734 2.5072 6.4277 6.4297l-2.4102 29.195c-0.44896 5.3974-3.8595 5.8612-8.2148 5.9824l-27.768 0.89258c-5.8491-0.28833-5.7409-6.9012-4.9102-11.07l7.0527-25.537c1.3682-4.0753 3.4571-6.0674 8.75-6.0703zm-71.428 1.25c-9.5426 15.219-19.261 30.53-29.107 45.445l-10.982-7.6777 0.44531-0.35742 39.645-37.41zm133.93 0.08985 45.447 0.80273c5.0147 0.04033 5.9266 2.4341 5.8926 5.5352l-0.53711 25.09c-0.1192 3.6442-1.1911 7.1652-7.2305 7.2324l-46.697 1.25c-2.9997 0.14704-7.1111-1.0546-6.875-5.8926l2.0527-27.857c0.46189-4.9689 3.8713-6.1896 7.9473-6.1602zm78.432 0.18555 18.561 0.3789c3.6844-0.04074 6.8869 1.6318 6.6934 5.9356l-0.50586 7.8281c-0.2273 2.6072-0.74027 4.9068-1.5137 6.3125l-6.8203 12.375c-2.0361 2.5784-3.8082 4.9424-6.4394 5.0508h-15.404c-2.457-0.26474-5.3691-2.0383-4.9238-6.1875l1.7676-25.254c0.68141-6.1014 4.8823-6.5233 8.5859-6.4394zm-199.76 0.18945c2.7156 0.05238 5.2418-0.0859 3.0938 5.5566l-12.059 30.557c-1.2623 3.0589-2.204 6.4092-6.8828 6.377l-10.1-0.63281c-5.4377-0.1104-4.1478-3.3909-3.1582-4.9863l16.416-28.475c1.8558-3.4021 3.7181-7.9648 8.459-8.1445l4.2305-0.25195zm10.344 1.0527 8.3926 0.26758c4.2621-0.04811 2.888 2.6255 2.5 4.8223l-6.7852 28.303c-1.0215 4.0896-1.884 6.3273-5.1777 6.4297l-12.232 0.44531c-2.9106 0.17386-3.5487-1.4307-2.5898-4.2852l12.232-32.68c0.72174-2.0982 1.9283-3.2248 3.6602-3.3027zm-18.482 51.16c1.7662-0.14676-0.54157 7.0373-1.3828 8.7949l-11.117 0.40234c-5.1574 0.0875-4.6392-3.718-4.7324-6.0723-0.03666-1.8172 1.3687-2.1359 3.1699-2.2754l14.062-0.84961zm-42.479 4.8242c0.82795-0.00497 1.6452 0.00704 2.4453 0.03711-2.4383 6.611-4.5436 13.556-5.8086 21.34l-11.68-0.50586c-3.5434-0.36699-7.1922-0.89905-9.0996-4.2793-1.4964-2.6518-3.3003-5.5907-3.2109-7.9688-0.03222-4.6372 14.934-8.5485 27.354-8.623z" stroke="#000" stroke-width="1px"/>
</svg>
