<?xml version="1.0" encoding="UTF-8"?>
<svg width="250mm" height="100mm" version="1.1" viewBox="0 0 250 100" xmlns="http://www.w3.org/2000/svg">
<path transform="scale(.26458)" d="m121.51 123.07c76.715-4.4352 147.12-9.0653 222.07-0.38641 6.7942 0.48215 13.057-1.3359 20.289 1.0449-0.2467 0.58545-0.44863 1.1871-0.58594 1.8106l0.26563 6.2656-11.629-1.4043-0.29297 4.6758c-107.42 7.8207-209.06 31.641-313.61 52.967-2.5759 0.6883-5.2356 1.2047-5.6836 6.3125 92.478-16.512 180.03-34.996 281.69-47.834l11.697-4.9102 25.584-1.457-0.14453 2.3047 14.271-1.8594 12.877 1.3535-0.35351 4.4805-2.6777 0.1914-36.365 21.215c-31.251 9.2325-59.081 23.025-87.631 35.859-8.9936 2.7752-17.584 6.1856-24.244 12.627l-41.164 37.629c-15.885 8.2368-47.289 16.477-47.652 24.711-0.1644 11.35 19.071 25.292 52.072 26.049l3.1562 2.2734 40.785 1.1367 3.6621 2.1465 5.0137 0.0195 9.0605 9.1621c-3.6144 1.1618-6.0672 4.5219-6.0723 8.3184 0 4.8325 3.9175 8.75 8.75 8.75s8.75-3.9175 8.75-8.75c-3e-3 -4.201-2.9917-7.8068-7.1191-8.5898l8.8652-8.8047 37.654 0.14648c4.389 6.3889 18.511 7.8436 28.256 7.6934l106.34 0.21875c-0.1598 0.91597-0.24342 1.8436-0.25 2.7734-1e-3 9.2957 7.5343 16.832 16.83 16.832s16.831-7.5363 16.83-16.832c-4e-3 -1.9918-0.36069-3.9671-1.0547-5.834l42.146-16.469 6.3125 0.25196c11.457-5.4549 23.707-9.9841 38.008-12.121l13.248-4.2832 1.5254 23.98-1.3574-24.035 25.727-8.3203 187.26-13.48c8.2046 0.77552 14.756 3.7574 20.961 7.1992 11.176-2.4465 21.995-4.2415 35.102-10.229l0.75782-4.6719 3.1582-1.0098 8.3887-19.326-9.2871-1.0703 29.434-7.1309c6.1164 4.1573 10.109 9.8315 19.193 11.869l11.111-6.5664-4.293-10.227 1.3242-13.902c-10.921 1.5-24.136 2.9577-30.365 8.5976v1.6426l-21.971 5.9336 28.537-62.439 8.2695-4.6719 1.957-2.9043h18.941c1.8866 0.0406 8.3126-3.2769 8.3965-6.377l-0.25195-8.0176-49.971-0.58399-5.4004-3.6602h-1.6074l-0.17969-5.1797-5.4453 0.13477-0.26758 5-3.4824 5-7.3223-0.26758-1.9648 1.1602-5.2676-6.1602-0.73633 0.52148-20.949-47.924c-1.4336-3.3898-5.5938-5.8939-10.07-3.4238l-6.3438 3.4238 23.863 49.117 7.5762-0.125 1.0879 2.3496-3.2656 2.3106 3.9277 7.5-0.0899 5.1777-2.1426 1.0723-0.17773 1.1602 1.25 0.17774-0.0898 2.4121-24.018 37.41-16.762 17.58c-3.8416 4.1289-8.3422 5.4592-13.133 5.5547l-135.11-6.6172c-8.1874-0.0305-14.385-2.29-19.574-4.3672-49.706-19.893-100.24-36.243-151.85-48.043l0.17774-2.5c1.5285-0.7485 5.7082-1.2568 3.75-2.3223-6.6171-3.8371-13.358-5.996-20.164-7.2852 54.354 6.2894 112.65 27.733 169.1 43.355l14.836-0.94726c-71.391-22.545-143.11-45.71-204.92-50.316l0.1582-1.0723-5.666-3.377 4.6973-1.4277 0.20898-1.8086c109.42-10.938 228.38 1.0582 342.86 8.8883l14.541-2.8497c-152.8-13.093-280.86-21.001-360.32-9.5663l-1.752-1.0938-0.73046-3.4785c-8.6978-14.361-41.961-14.13-53.895-3.4531-57.792-7.1238-155.67-3.3358-198.87-1.5276-15.594 0.37464-32.884 3.3524-46.966 5.5441zm178.49 94.26 21.072 0.17774c5.2584 9.3e-4 6.8734 2.5072 6.4277 6.4297l-2.4102 29.195c-0.44896 5.3974-3.8595 5.8612-8.2148 5.9824l-27.768 0.89258c-5.8491-0.28833-5.7409-6.9012-4.9102-11.07l7.0527-25.537c1.3682-4.0753 3.4571-6.0674 8.75-6.0703zm-71.428 1.25c-9.5426 15.219-19.261 30.53-29.107 45.445l-10.982-7.6777 0.44531-0.35742 39.645-37.41zm133.93 0.0899 45.447 0.80273c5.0147 0.0403 5.9266 2.4341 5.8926 5.5352l-0.53711 25.09c-0.1192 3.6442-1.1911 7.1652-7.2305 7.2324l-46.697 1.25c-2.9997 0.14704-7.1111-1.0546-6.875-5.8926l2.0527-27.857c0.46189-4.9689 3.8713-6.1896 7.9473-6.1602zm78.432 0.18555 18.561 0.3789c3.6844-0.0407 6.8869 1.6318 6.6934 5.9356l-0.50586 7.8281c-0.2273 2.6072-0.74027 4.9068-1.5137 6.3125l-6.8203 12.375c-2.0361 2.5784-3.8082 4.9424-6.4394 5.0508h-15.404c-2.457-0.26474-5.3691-2.0383-4.9238-6.1875l1.7676-25.254c0.68141-6.1014 4.8823-6.5233 8.5859-6.4394zm-199.76 0.18945c2.7156 0.0524 5.2418-0.0859 3.0938 5.5566l-12.059 30.557c-1.2623 3.0589-2.204 6.4092-6.8828 6.377l-10.1-0.63281c-5.4377-0.1104-4.1478-3.3909-3.1582-4.9863l16.416-28.475c1.8558-3.4021 3.7181-7.9648 8.459-8.1445l4.2305-0.25195zm10.344 1.0527 8.3926 0.26758c4.2621-0.0481 2.888 2.6255 2.5 4.8223l-6.7852 28.303c-1.0215 4.0896-1.884 6.3273-5.1777 6.4297l-12.232 0.44531c-2.9106 0.17386-3.5487-1.4307-2.5898-4.2852l12.232-32.68c0.72174-2.0982 1.9283-3.2248 3.6602-3.3027zm-18.482 51.16c1.7662-0.14676-0.54157 7.0373-1.3828 8.7949l-11.117 0.40234c-5.1574 0.0875-4.6392-3.718-4.7324-6.0723-0.0367-1.8172 1.3687-2.1359 3.1699-2.2754l14.062-0.84961zm-42.479 4.8242c0.82795-5e-3 1.6452 7e-3 2.4453 0.0371-2.4383 6.611-4.5436 13.556-5.8086 21.34l-11.68-0.50586c-3.5434-0.36699-7.1922-0.89905-9.0996-4.2793-1.4964-2.6518-3.3003-5.5907-3.2109-7.9688-0.0322-4.6372 14.934-8.5485 27.354-8.623z" stroke="#000" stroke-width="1px"/>
</svg>
