<?xml version="1.0" encoding="UTF-8" standalone="no"?>
<svg
   xmlns:dc="http://purl.org/dc/elements/1.1/"
   xmlns:cc="http://creativecommons.org/ns#"
   xmlns:rdf="http://www.w3.org/1999/02/22-rdf-syntax-ns#"
   xmlns:svg="http://www.w3.org/2000/svg"
   xmlns="http://www.w3.org/2000/svg"
   width="250mm"
   height="100mm"
   viewBox="0 0 250 100"
   version="1.1"
   id="svg939">
  <defs
     id="defs933" />
  <metadata
     id="metadata936">
    <rdf:RDF>
      <cc:Work
         rdf:about="">
        <dc:format>image/svg+xml</dc:format>
        <dc:type
           rdf:resource="http://purl.org/dc/dcmitype/StillImage" />
        <dc:title></dc:title>
      </cc:Work>
    </rdf:RDF>
  </metadata>
  <g
     id="layer1"
     transform="translate(0,-197)">
    <path
       style="fill:#000000;stroke-width:0.02874289"
       d="m 67.978356,289.52661 c -22.105314,-0.0708 -25.40063,-0.0868 -25.737066,-0.12481 -2.084131,-0.23554 -4.125162,-1.07641 -6.440601,-2.65342 -0.619572,-0.42199 -1.552115,-1.10749 -1.552115,-1.14095 0,-0.0503 1.269405,-1.40824 1.32578,-1.41826 0.02971,-0.006 0.177911,0.096 0.361098,0.24674 1.430158,1.1768 2.875253,2.01291 4.510705,2.60984 0.89987,0.32845 1.599835,0.49528 2.856426,0.68085 l 0.416771,0.0616 11.303553,0.009 11.303539,0.009 0.0276,-0.0651 c 0.0152,-0.0358 0.39221,-1.66251 0.83786,-3.61488 l 0.81027,-3.54974 -0.0407,-0.46108 c -0.0349,-0.39566 -0.0351,-0.67225 -0.002,-1.94965 0.0223,-0.84261 0.0285,-1.49861 0.0144,-1.51172 -0.0137,-0.0128 -0.74535,-0.0411 -1.62579,-0.0631 -0.88042,-0.022 -1.60635,-0.046 -1.61317,-0.0535 -0.01,-0.0106 0.0532,-2.06021 0.064,-2.09028 0.002,-0.004 0.12547,-0.007 0.27565,-0.007 0.15018,0 0.27305,-0.0115 0.27305,-0.0256 0,-0.0141 -0.0938,-0.0482 -0.20838,-0.0758 -0.38756,-0.0933 -1.35493,-0.36132 -1.93032,-0.53483 -5.054399,-1.52408 -9.875493,-3.92825 -13.238738,-6.60174 -1.254538,-0.99725 -2.468359,-2.19085 -3.357387,-3.30148 -1.845075,-2.30497 -2.916902,-4.86454 -3.165795,-7.56007 -0.07584,-0.8215 -0.08367,-2.67066 -0.01479,-3.49169 0.20687,-2.46503 1.270694,-5.53898 2.9823,-8.61741 3.018693,-5.42933 7.774293,-10.77429 13.066811,-14.68622 4.475849,-3.30829 9.061069,-5.41651 13.375409,-6.14982 1.62096,-0.27553 1.97707,-0.29996 4.27547,-0.29343 1.98848,0.006 2.24679,0.0199 2.90302,0.15994 0.34475,0.0735 0.76757,0.21467 1.10072,0.36732 0.16803,0.077 0.2008,0.0838 0.23451,0.0487 0.0215,-0.0224 0.35178,-0.51935 0.73384,-1.10427 0.39194,-0.60003 0.71306,-1.06349 0.73685,-1.06349 0.0496,0 2.53449,1.96976 2.53793,2.01174 0.002,0.0156 -0.25635,0.50177 -0.57252,1.08024 -0.31617,0.57848 -0.57486,1.06205 -0.57486,1.07462 0,0.0125 0.14223,0.15816 0.31607,0.32356 0.3646,0.34692 0.96758,1.02458 1.33712,1.50273 1.17715,1.52311 1.96584,3.31367 2.25357,5.11623 0.098,0.61397 0.12449,0.93663 0.14272,1.73895 l 0.0176,0.77606 0.33054,-0.01 c 0.1818,-0.006 0.34225,-0.0209 0.35655,-0.0346 0.0239,-0.0229 -0.0306,-9.96839 -0.0552,-10.04895 -0.01,-0.0329 -0.0634,-0.048 -0.28702,-0.0815 l -0.11498,-0.0172 0.003,-1.08373 c 0.002,-0.59604 0.0129,-1.5461 0.0241,-2.11122 0.0184,-0.92447 0.0159,-1.02924 -0.0251,-1.04502 -0.0251,-0.01 -0.38481,-0.004 -0.7993,0.0128 -0.41448,0.0167 -0.75859,0.0253 -0.76468,0.0191 -0.006,-0.006 0.009,-0.0668 0.0336,-0.13499 0.0248,-0.0688 0.06,-0.32855 0.079,-0.58379 0.0188,-0.25293 0.0431,-0.48436 0.0539,-0.51429 0.0108,-0.0299 0.0638,-0.0687 0.11802,-0.0862 l 0.0984,-0.0318 v -1.82258 -1.82258 l -0.11262,-0.0316 c -0.10752,-0.0302 -0.116,-0.0414 -0.18684,-0.24755 -0.0408,-0.11876 -0.0847,-0.23182 -0.0974,-0.25124 -0.0173,-0.0263 -0.208,-0.0353 -0.75274,-0.0353 h -0.72912 l -0.0161,-0.12216 c -0.009,-0.0671 -0.0194,-0.1739 -0.0233,-0.23713 l -0.007,-0.11497 -1.97689,-0.007 -1.97688,-0.007 -1.11298,0.14369 c -2.22153,0.28681 -4.75835,0.54919 -9.46278,0.9787 -4.38147,0.40002 -7.48441,0.73592 -9.694579,1.04947 -4.914317,0.69715 -8.636989,1.57882 -12.001818,2.84249 l -0.943298,0.35426 -2.325837,-0.28756 c -1.279216,-0.15816 -2.331507,-0.29272 -2.33842,-0.29904 -0.0069,-0.006 -0.01801,-0.0859 -0.02457,-0.17678 l -0.01196,-0.16528 0.821107,-0.31017 c 1.049879,-0.39658 1.778869,-0.64019 2.978909,-0.99545 2.712557,-0.80303 5.285286,-1.37488 8.464789,-1.88151 2.111676,-0.33647 5.954699,-0.80689 9.449217,-1.15665 0.75486,-0.0756 1.37247,-0.14528 1.37247,-0.15493 0,-0.0178 -7.263738,-0.0558 -10.676502,-0.0558 -5.874544,0 -13.738839,0.53388 -20.972106,1.42371 -6.642143,0.81713 -13.257652,1.94376 -22.70419,3.86659 l -2.4287753,0.49438 -0.474255,-0.32339 c -0.507874,-0.3463 -0.534574,-0.36625 -0.515458,-0.38516 0.01721,-0.017 5.4949903,-1.22995 6.7670303,-1.49841 13.660878,-2.88312 24.885477,-4.3431 36.790904,-4.78539 1.935848,-0.072 2.344347,-0.0719 17.906812,0.002 6.84513,0.0322 13.03418,0.0548 13.75347,0.0504 l 1.30781,-0.008 0.009,-0.19402 c 0.005,-0.10671 0.0112,-0.19604 0.0144,-0.19853 0.003,-0.002 0.3357,-0.0121 0.73881,-0.0215 l 0.73295,-0.017 -0.006,-0.32335 c -0.003,-0.17785 -0.003,-0.32593 0,-0.32907 0.003,-0.003 0.64554,-0.0129 1.42806,-0.0216 l 1.42276,-0.0159 0.008,-0.5533 0.008,-0.5533 0.75388,-1e-5 0.75388,-1e-5 -0.0101,0.84724 -0.0101,0.84723 0.0675,0.0273 c 0.0525,0.0212 0.68913,0.10054 1.24599,0.15529 0.0571,0.006 0.0902,-0.065 0.14195,-0.30309 l 0.0172,-0.0788 1.58573,-0.007 1.58573,-0.007 0.0204,-0.0862 c 0.0113,-0.0474 0.0277,-0.11857 0.0365,-0.15809 l 0.0161,-0.0719 0.6908,0.01 0.69081,0.01 0.0266,-0.0699 c 0.0146,-0.0385 0.0357,-0.13113 0.047,-0.20592 0.0152,-0.10149 0.0359,-0.14174 0.0815,-0.15874 0.0336,-0.0125 0.33273,-0.0314 0.66471,-0.0418 0.33198,-0.0105 0.69275,-0.027 0.80172,-0.0367 l 0.19814,-0.0177 -0.0198,0.20072 c -0.0239,0.24305 -0.015,0.25318 0.24867,0.28057 0.10671,0.0111 0.19401,0.0315 0.19401,0.0456 0,0.0139 -0.0258,0.091 -0.0574,0.17123 -0.0316,0.0802 -0.0575,0.15164 -0.0575,0.15873 0,0.007 0.0808,0.0546 0.17965,0.10557 0.17508,0.0903 0.19405,0.0935 0.748394,0.12605 0.31281,0.0184 0.57525,0.0399 0.58319,0.0478 0.008,0.008 -0.003,0.12609 -0.0248,0.26257 -0.0216,0.13647 -0.0329,0.25452 -0.0251,0.26233 0.008,0.008 5.20193,0.0143 11.54249,0.0144 12.76273,2.2e-4 10.93196,-0.0199 18.34035,0.20137 31.33062,0.93574 50.53809,1.8316 61.02115,2.84611 3.87696,0.3752 6.18363,0.68425 10.40824,1.39451 1.07683,0.18104 1.97254,0.32915 1.99045,0.32915 0.0209,0 0.0325,0.0667 0.0325,0.18683 v 0.18683 l -0.13656,6.5e-4 c -0.0751,3.9e-4 -1.13946,0.0631 -2.36532,0.13888 l -2.22877,0.13797 -0.90419,-0.1385 c -6.0853,-0.93219 -13.69427,-1.63441 -23.15119,-2.1366 -6.26444,-0.33267 -12.40486,-0.56118 -24.33085,-0.9055 -13.07996,-0.37764 -16.22365,-0.47942 -22.14639,-0.71705 l -2.8168,-0.11302 -12.58242,-0.0649 c -9.95715,-0.0513 -12.58988,-0.0575 -12.61813,-0.0295 -0.0196,0.0195 -0.0489,0.10277 -0.065,0.18516 l -0.0294,0.14981 -0.50168,0.008 c -0.27592,0.005 -0.512554,0.0188 -0.525864,0.0321 -0.0132,0.0132 -0.01,0.13074 0.008,0.26098 0.0178,0.13025 0.0284,0.2405 0.0235,0.24502 -0.006,0.005 -0.0905,-0.005 -0.19018,-0.0196 -0.20483,-0.0314 -0.25533,-0.01 -0.26979,0.11527 l -0.009,0.0769 -1.78744,0.007 -1.78746,0.007 -0.0184,-0.13676 c -0.0101,-0.0752 -0.0228,-0.15123 -0.0282,-0.16894 -0.012,-0.0394 -2.67955,-0.0887 -2.71618,-0.0501 -0.013,0.0136 -0.0325,0.85909 -0.0433,1.87874 l -0.0196,1.85392 0.17503,0.23613 0.17503,0.23613 v 0.24179 c 0,0.15856 0.0124,0.25195 0.0359,0.27128 0.0278,0.0228 1.00129,0.2075 1.09369,0.2075 0.0283,0 0.0262,1.30723 -0.0134,8.47228 -0.0255,4.59639 -0.0263,6.31078 -0.003,6.33392 0.0174,0.0174 0.36589,0.0683 0.77431,0.11312 2.7743,0.30411 4.43922,0.84243 5.558974,1.79738 1.3115,1.11849 2.21952,2.21967 2.81818,3.41769 l 0.22981,0.4599 6.63082,3.40279 6.63082,3.4028 0.41677,-0.0352 c 0.3174,-0.0267 0.42789,-0.0465 0.46338,-0.083 0.0256,-0.0263 0.2892,-0.42593 0.5857,-0.88799 0.49224,-0.76708 0.54691,-0.84137 0.62885,-0.85452 0.0493,-0.008 7.51214,-0.64204 16.58392,-1.40914 9.07179,-0.76709 16.50578,-1.4019 16.51997,-1.41067 0.0144,-0.009 0.0259,-0.42944 0.0259,-0.95059 v -0.93465 l 0.12216,0.009 0.12215,0.009 0.0144,-0.63183 0.0144,-0.63182 0.0969,-0.18683 c 0.12281,-0.23682 0.32345,-0.4739 0.49102,-0.58017 0.19237,-0.12201 0.49365,-0.20289 0.75176,-0.20185 0.17837,6.6e-4 0.25837,0.0174 0.43425,0.0906 0.11859,0.0493 0.2724,0.1258 0.34183,0.16987 0.14426,0.0916 0.37492,0.35081 0.50835,0.57132 l 0.091,0.15043 0.008,0.62563 0.008,0.62564 0.11919,0.0264 c 0.10758,0.0239 0.12085,0.0365 0.13621,0.12934 0.009,0.0566 0.0172,0.39637 0.0173,0.75509 3.3e-4,0.37265 0.0118,0.65932 0.0271,0.66879 0.0148,0.009 3.61711,-0.28759 8.00521,-0.65938 4.38811,-0.37179 8.00138,-0.67598 8.02952,-0.67598 0.0317,0 0.2369,-0.2252 0.53684,-0.58895 0.40508,-0.49123 0.50027,-0.59122 0.57366,-0.60269 0.0484,-0.008 0.54071,-0.0469 1.09402,-0.0875 0.55328,-0.0405 1.08003,-0.0814 1.1705,-0.0908 l 0.16452,-0.017 0.008,0.44196 0.008,0.44195 0.11498,-0.007 c 0.27742,-0.0179 23.42896,-2.1937 23.45981,-2.2048 0.0189,-0.007 0.14019,-0.17148 0.2696,-0.36597 0.12937,-0.19448 0.24645,-0.36586 0.26017,-0.38084 0.0282,-0.031 2.53046,-0.16281 2.55818,-0.13476 0.0101,0.0101 0.066,0.14762 0.1246,0.3057 0.0586,0.15808 0.12025,0.30401 0.13711,0.32429 0.022,0.0267 0.11414,0.0346 0.3353,0.0288 l 0.3047,-0.008 0.008,-0.81593 0.008,-0.81595 0.15044,0.018 c 0.0827,0.01 2.2419,0.0182 4.79815,0.0184 l 4.64772,2.1e-4 0.11961,0.22994 c 0.0658,0.12647 0.13112,0.22995 0.14519,0.22995 0.0147,0 0.0255,-2.32171 0.0255,-5.52249 0,-4.15924 0.009,-5.55042 0.034,-5.63566 0.0251,-0.0846 0.0599,-0.12627 0.13653,-0.165 0.33606,-0.16974 0.94934,-0.29025 1.99968,-0.39291 0.69966,-0.0684 2.34445,-0.0683 3.16167,1.1e-4 1.31109,0.10983 2.43005,0.26937 3.53633,0.5042 1.68728,0.35816 3.04419,0.79046 4.11454,1.31087 l 0.4364,0.21217 0.0147,0.12331 c 0.008,0.0679 0.0489,2.42562 0.0908,5.23954 0.0419,2.81393 0.0811,5.13272 0.0872,5.15286 0.009,0.0295 0.8822,0.0351 4.49566,0.0287 l 4.48451,-0.008 v 1.28926 1.28928 l -0.12218,-0.0162 c -0.0672,-0.009 -2.22455,-0.0251 -4.79421,-0.0361 l -4.67203,-0.0199 -0.33282,-0.63521 -0.33281,-0.63521 h -2.05111 c -1.93326,0 -2.05168,0.002 -2.06085,0.0504 -0.006,0.033 0.0928,0.1522 0.28704,0.34493 0.33127,0.32868 0.41003,0.4484 0.65728,0.99906 l 0.17163,0.38221 -0.14588,0.39073 c -0.32984,0.88344 -0.6129,1.20961 -0.91443,1.05367 -0.13505,-0.0698 -0.26817,-0.24642 -0.47784,-0.6339 -0.2188,-0.40433 -0.49305,-0.73325 -0.6114,-0.73325 -0.15712,0 -0.54019,0.18839 -0.80575,0.39627 l -0.0662,0.0519 0.0745,0.44422 c 0.55784,3.32735 1.2518,5.59623 2.32109,7.58898 0.62415,1.1631 1.30083,2.07791 2.16798,2.93091 0.90287,0.88811 1.61313,1.3826 2.63965,1.8378 1.00734,0.44669 1.98468,0.68689 3.2153,0.79026 0.26658,0.0224 0.4913,0.0473 0.49938,0.0553 0.0201,0.0199 0.12793,1.5159 0.11065,1.53319 -0.0197,0.0197 -0.91571,-0.0683 -1.54209,-0.15153 -4.08656,-0.54294 -6.64033,-2.42867 -8.56256,-6.32267 -0.43602,-0.88328 -0.70828,-1.54227 -1.1202,-2.71112 -0.51094,-1.44975 -1.02714,-3.42491 -1.36417,-5.21982 -0.0562,-0.2992 -0.11224,-0.55409 -0.12458,-0.56642 -0.0124,-0.0124 -3.39169,0.24216 -7.50971,0.56551 -4.11806,0.32335 -7.49057,0.58794 -7.49456,0.58797 -0.0228,3.3e-4 0.069,0.52373 0.85455,4.87085 0.47398,2.62282 0.8571,4.77345 0.85137,4.77917 -0.006,0.006 -4.49413,-1.7831 -9.97424,-3.97513 l -9.96381,-3.98553 -14.06145,1.25664 -14.06148,1.25665 -20.86014,10.87976 -20.86016,10.87976 v 0.84026 c 0,0.46216 -0.008,0.89705 -0.0173,0.96644 l -0.0173,0.12617 -1.81833,-0.009 -1.81832,-0.009 -3.70459,1.93122 c -2.03751,1.06217 -3.72079,1.94615 -3.7406,1.96438 -0.0285,0.0263 0.0114,0.16756 0.19189,0.67876 l 0.22789,0.6456 0.0204,0.68081 0.0204,0.68082 -0.23813,0.95331 -0.23815,0.95332 -0.39387,0.57906 -0.3939,0.57908 -0.30615,3.49075 c -0.18259,2.08208 -0.29564,3.50126 -0.28013,3.51676 0.0148,0.0148 0.38601,0.0217 0.86085,0.0159 l 0.83484,-0.0101 0.0157,0.17246 c 0.009,0.0949 0.019,0.51198 0.0231,0.92698 l 0.007,0.7545 -5.087504,-0.004 c -2.79812,-0.002 -16.49554,-0.0408 -30.43871,-0.0854 z m 31.22031,-1.78867 c 0.0188,-0.0183 0.0425,-0.0979 0.0524,-0.1769 l 0.0181,-0.14371 -14.00358,-5.67672 c -7.70197,-3.12219 -14.02734,-5.6808 -14.05638,-5.68578 -0.0375,-0.006 -0.0587,0.0144 -0.0731,0.0719 -0.0112,0.0444 -0.2619,0.94099 -0.55721,1.99222 l -0.53692,1.91131 -0.18999,0.0575 c -0.10449,0.0317 -0.20668,0.0743 -0.22706,0.0948 -0.0251,0.0251 -0.17305,1.26174 -0.45589,3.80843 -0.23035,2.07419 -0.41556,3.77826 -0.41156,3.78685 0.004,0.009 6.84718,0.0105 15.20704,0.005 11.4362,-0.008 15.20827,-0.0194 15.23408,-0.0444 z m 0.920334,-4.41643 0.60033,-2.94611 -0.0954,-0.50304 c -0.18587,-0.9797 -0.20764,-0.67795 0.18047,-2.50066 l 0.33967,-1.59524 0.2569,-0.33892 c 0.1413,-0.18642 0.25206,-0.34308 0.24612,-0.34816 -0.006,-0.006 -6.793854,-0.0372 -15.084274,-0.0714 -11.05619,-0.0456 -15.08173,-0.0536 -15.10438,-0.0302 -0.0222,0.0229 -0.0147,0.0444 0.0266,0.0761 0.0824,0.0632 27.99171,11.24231 28.01462,11.22125 0.0105,-0.01 0.2892,-1.34326 0.619394,-2.96362 z m 0.4969,-9.62493 c 0,-0.0265 -2.430954,-2.3975 -2.474624,-2.4136 -0.0152,-0.006 -0.026,0.33889 -0.026,0.82429 v 0.83388 l -0.1509,0.0168 c -0.083,0.009 -0.865,0.0199 -1.73778,0.0236 l -1.58689,0.007 -0.0152,-0.14371 c -0.008,-0.079 -0.0296,-0.31832 -0.0471,-0.53174 -0.0176,-0.21341 -0.0378,-0.39773 -0.0451,-0.40958 -0.007,-0.0119 -0.10472,-0.0216 -0.21652,-0.0216 h -0.20329 l 0.0161,0.10779 c 0.009,0.0593 0.0254,0.17014 0.0367,0.24636 l 0.0206,0.13856 -0.27006,-0.0174 c -0.14853,-0.01 -0.47054,-0.0202 -0.71557,-0.0236 l -0.44551,-0.006 v 0.67546 0.67546 l 2.29942,0.0146 c 4.34304,0.0277 5.561764,0.0285 5.561764,0.004 z m -11.532474,-0.59741 0.008,-0.55033 -0.134,-0.11795 -0.13399,-0.11795 h -0.4343 -0.43428 l -0.10778,0.1332 -0.10779,0.13319 v 0.52299 c 0,0.28765 0.009,0.53185 0.0197,0.54268 0.0109,0.0109 0.31155,0.0162 0.66827,0.012 l 0.64859,-0.008 0.008,-0.55032 z m -5.75638,0.36349 v -0.15809 l -0.82647,-0.0246 c -0.45456,-0.0136 -0.84583,-0.0172 -0.86947,-0.008 -0.0307,0.0118 -0.043,0.0603 -0.043,0.17069 0,0.0848 0.009,0.16302 0.0195,0.17378 0.0108,0.0107 0.40203,0.0162 0.86947,0.012 l 0.84989,-0.008 z m -4.71386,0.11502 c 0.01,-0.0158 0.0247,-0.11604 0.0332,-0.22277 l 0.0155,-0.19406 -0.13927,-0.13366 -0.13928,-0.13366 -0.41677,-0.0192 -0.41677,-0.0192 -0.18683,0.23539 -0.18683,0.23542 -2.71185,-0.0211 -2.71187,-0.021 -0.1265,0.12415 c -0.0696,0.0682 -0.1265,0.1343 -0.1265,0.14669 0,0.0125 0.81809,0.0259 1.81799,0.0302 0.9999,0.004 2.59652,0.0107 3.54805,0.0146 1.12815,0.005 1.73623,-0.003 1.7478,-0.0218 z M 132.9229,257.75414 c 10.22025,-5.35444 18.58767,-9.74038 18.59425,-9.74651 0.006,-0.006 0.004,-0.0189 -0.006,-0.0284 -0.0307,-0.0307 -32.91413,2.92155 -32.95158,2.95842 -0.0496,0.0488 -9.9491,15.93809 -9.93729,15.94991 0.006,0.006 1.15185,-0.10369 2.54761,-0.24247 1.39575,-0.13879 2.55156,-0.24735 2.56849,-0.24124 0.0176,0.006 0.0584,0.27305 0.0955,0.62478 0.0356,0.33751 0.0701,0.6303 0.0765,0.65062 0.008,0.026 0.0735,0.003 0.22063,-0.0764 0.1149,-0.0623 8.57092,-4.49422 18.79118,-9.84867 z m -26.99274,9.30901 0.44235,-0.0191 0.0991,-0.16081 c 0.5137,-0.83321 9.5656,-16.14657 9.5529,-16.16092 -0.0198,-0.0223 -12.01417,2.86369 -12.04605,2.89848 -0.0252,0.0275 0.45633,9.67181 0.48439,9.70059 0.0104,0.0106 0.39819,0.045 0.86175,0.0764 0.46356,0.0314 0.84666,0.0615 0.85133,0.0668 0.005,0.006 -0.0383,0.44294 -0.0955,0.97225 l -0.10402,0.96238 -0.6036,3.9e-4 -0.6036,3.9e-4 0.0102,0.83354 c 0.006,0.45845 0.0172,0.84497 0.0256,0.85895 0.009,0.014 0.16476,0.0173 0.34911,0.007 0.18352,-0.01 0.53272,-0.0266 0.77602,-0.037 z M 55.717114,248.04007 c 0.234644,-0.26784 -7.762883,-4.75258 -7.966353,-4.86374 -0.04357,0.0269 -0.452307,0.71327 -0.838599,1.40809 -1.695434,3.0496 -2.684417,5.90732 -2.889309,8.34884 -0.06841,0.81523 -0.06078,2.55836 0.01478,3.37672 0.108788,1.17827 0.37733,2.3496 0.778953,3.39768 0.16319,0.42586 0.337707,0.84329 0.406384,0.92849 0.02241,0.0277 0.09795,0.0359 1.071915,0.0359 h 1.260718 l 0.690301,-0.50502 c 0.37966,-0.27777 0.690278,-0.51583 0.690278,-0.52901 2.548672,-2.96326 3.478278,-4.49404 5.262537,-7.68843 m 13.941564,2.45581 c 3.389851,0.45577 4.340985,0.99156 6.59258,-1.15725 l 0.59583,-0.59144 c 0.32771,-0.32529 0.57485,-0.61104 0.57485,-0.61104 l 0.71151,-0.80125 c 0,0 1.81914,-2.26734 2.3185,-2.96052 1.00871,-1.40023 1.65343,-2.51211 2.1666,-3.73658 0.30447,-0.72646 0.54104,-1.52838 0.69104,-2.34254 0.18059,-0.98014 0.20713,-1.66141 0.15062,-3.86592 -0.0378,-1.4705 -0.0784,-1.87157 -0.26512,-2.60758 -0.22047,-0.86938 -0.64891,-1.73242 -1.1792,-2.37533 -0.34002,-0.41223 -0.94627,-0.96142 -1.33188,-1.20655 -0.41757,-0.26544 -1.0593,-0.54481 -1.5872,-0.69097 -0.51871,-0.14361 -0.76349,-0.17382 -1.39402,-0.17203 -1.8671,0.006 -3.98266,0.66918 -5.99291,1.88066 -0.48151,0.29019 -0.68866,0.43449 -1.39151,0.96927 -1.98983,1.51402 -3.94179,3.67368 -5.53899,6.12831 -0.92633,1.42363 -1.808621,3.08647 -2.074094,3.90903 -0.326626,1.01202 -0.519809,1.95889 -0.75389,3.69502 -0.06384,0.4734 -0.174165,1.25522 -0.245194,1.73739 l -0.129146,0.87666 0.0079,1.20523 0.0079,1.20522 2.572484,0.43734 c 1.41488,0.24053 2.37411,0.45278 2.37411,0.45278 l 1.612841,0.28018 c 0,0 1.424709,0.37361 1.483619,0.3608 0.013,-0.002 0.0235,-0.0113 0.0232,-0.0188 z m 41.881697,-3.46464 c 2.55702,-0.63133 4.64915,-1.15906 4.64917,-1.17274 1e-5,-0.0136 -0.0679,-0.0169 -0.15088,-0.007 -0.083,0.01 -0.5842,0.0501 -1.11379,0.0898 -4.52917,0.33937 -6.38913,0.53493 -7.9474,0.8356 -0.76944,0.14848 -1.52243,0.33824 -1.59076,0.40089 -0.0322,0.0295 -0.0329,0.14395 -0.005,0.67841 0.0188,0.35364 0.0392,0.65094 0.0451,0.66065 0.0126,0.0207 0.0471,0.0123 6.1129,-1.48539 z m -5.85315,-1.90955 c 1.85211,-0.28736 5.13035,-0.59655 9.59694,-0.90517 0.75244,-0.0519 0.85523,-0.0645 0.84249,-0.10275 -0.0137,-0.0413 -10.18068,-5.22459 -10.2052,-5.20279 -0.0117,0.0104 -0.002,0.12834 0.0215,0.26208 0.0729,0.4144 0.12419,0.87078 0.20007,1.7809 0.0402,0.48216 0.0854,0.96721 0.10047,1.07786 0.0512,0.37566 0.095,1.23453 0.0807,1.58086 -0.0119,0.28894 -0.0277,0.38037 -0.0972,0.56331 -0.10514,0.27654 -0.17819,0.35782 -0.61704,0.68658 -0.19636,0.1471 -0.36931,0.2785 -0.38433,0.29202 -0.0414,0.0373 0.053,0.0305 0.46165,-0.0329 z M 55.865512,246.363 c 0.135664,-0.42128 0.85627,-2.03752 1.350133,-3.0282 1.796755,-3.60424 3.900022,-6.59387 6.407911,-9.10835 1.34803,-1.35157 2.56427,-2.3494 4.06254,-3.33299 1.34914,-0.8857 2.99066,-1.72135 4.28751,-2.18265 0.23714,-0.0844 0.44581,-0.16755 0.46372,-0.18488 0.0241,-0.0233 -0.7238,-2.18724 -0.7238,-2.18724 l -0.565831,-1.96516 c 0,0 -0.53062,0.12761 -0.98117,0.26831 -3.43938,1.07409 -6.78167,2.83452 -10.224471,5.38535 -3.536173,2.62002 -6.927112,5.9696 -9.683291,9.56521 -0.889752,1.16073 -1.896367,2.44477 -1.832102,2.46802 0.01521,0.006 0.05324,0.004 0.250845,0.12925 3.828623,2.22795 5.256359,2.9409 7.188006,4.17333 z m 37.569874,-11.45893 c 0.0636,-1.02633 0.0834,-3.46918 0.067,-8.2492 l -0.0175,-5.0875 -0.14072,-0.0182 c -0.0774,-0.01 -0.26108,-0.023 -0.40821,-0.0287 l -0.26749,-0.0105 -0.007,6.82644 c -0.004,3.75454 -0.002,6.84299 0.006,6.86323 0.0106,0.0278 0.10328,0.0348 0.38102,0.0287 l 0.36704,-0.008 z m -4.52828,-16.75464 0.43506,-0.55561 0.0104,-0.71373 0.0105,-0.71373 -0.43115,-0.13763 c -0.23712,-0.0757 -0.44732,-0.13775 -0.46707,-0.13786 -0.0282,-2.2e-4 -0.0359,0.30052 -0.0359,1.40819 0,0.77462 0.01,1.40785 0.0215,1.40719 0.0119,-6.6e-4 0.21734,-0.25123 0.45663,-0.55682 z m 3.17217,-1.34858 c 0,-0.49535 -0.007,-0.9079 -0.0162,-0.91679 -0.0178,-0.0178 -0.49411,0.16708 -0.5515,0.21413 -0.0527,0.0433 -0.0515,1.32463 0.002,1.36852 0.0472,0.0392 0.48222,0.23008 0.53034,0.23275 0.0281,0.002 0.0359,-0.19622 0.0359,-0.89861 z"
       id="path1498" />
  </g>
</svg>
