<?xml version="1.0" encoding="UTF-8"?>
<svg width="250mm" height="100mm" version="1.1" viewBox="0 0 250 100" xmlns="http://www.w3.org/2000/svg" xmlns:cc="http://creativecommons.org/ns#" xmlns:dc="http://purl.org/dc/elements/1.1/" xmlns:rdf="http://www.w3.org/1999/02/22-rdf-syntax-ns#">
<metadata>
<rdf:RDF>
<cc:Work rdf:about="">
<dc:format>image/svg+xml</dc:format>
<dc:type rdf:resource="http://purl.org/dc/dcmitype/StillImage"/>
<dc:title/>
</cc:Work>
</rdf:RDF>
</metadata>
<g transform="matrix(1.037 0 0 1.037 -1.6299 -210.37)">
<path d="m67.978 289.53c-22.105-0.0708-25.401-0.0868-25.737-0.12481-2.0841-0.23554-4.1252-1.0764-6.4406-2.6534-0.61957-0.42199-1.5521-1.1075-1.5521-1.141 0-0.0503 1.2694-1.4082 1.3258-1.4183 0.02971-6e-3 0.17791 0.096 0.3611 0.24674 1.4302 1.1768 2.8753 2.0129 4.5107 2.6098 0.89987 0.32845 1.5998 0.49528 2.8564 0.68085l0.41677 0.0616 22.607 0.018 0.0276-0.0651c0.0152-0.0358 0.39221-1.6625 0.83786-3.6149l0.81027-3.5497-0.0407-0.46108c-0.0349-0.39566-0.0351-0.67225-2e-3 -1.9496 0.0223-0.84261 0.0285-1.4986 0.0144-1.5117-0.0137-0.0128-0.74535-0.0411-1.6258-0.0631-0.88042-0.022-1.6064-0.046-1.6132-0.0535-0.01-0.0106 0.0532-2.0602 0.064-2.0903 2e-3 -4e-3 0.12547-7e-3 0.27565-7e-3s0.27305-0.0115 0.27305-0.0256-0.0938-0.0482-0.20838-0.0758c-0.38756-0.0933-1.3549-0.36132-1.9303-0.53483-5.0544-1.5241-9.8755-3.9282-13.239-6.6017-1.2545-0.99725-2.4684-2.1908-3.3574-3.3015-1.8451-2.305-2.9169-4.8645-3.1658-7.5601-0.07584-0.8215-0.08367-2.6707-0.01479-3.4917 0.20687-2.465 1.2707-5.539 2.9823-8.6174 3.0187-5.4293 7.7743-10.774 13.067-14.686 4.4758-3.3083 9.0611-5.4165 13.375-6.1498 1.621-0.27553 1.9771-0.29996 4.2755-0.29343 1.9885 6e-3 2.2468 0.0199 2.903 0.15994 0.34475 0.0735 0.76757 0.21467 1.1007 0.36732 0.16803 0.077 0.2008 0.0838 0.23451 0.0487 0.0215-0.0224 0.35178-0.51935 0.73384-1.1043 0.39194-0.60003 0.71306-1.0635 0.73685-1.0635 0.0496 0 2.5345 1.9698 2.5379 2.0117 2e-3 0.0156-0.25635 0.50177-0.57252 1.0802-0.31617 0.57848-0.57486 1.062-0.57486 1.0746 0 0.0125 0.14223 0.15816 0.31607 0.32356 0.3646 0.34692 0.96758 1.0246 1.3371 1.5027 1.1772 1.5231 1.9658 3.3137 2.2536 5.1162 0.098 0.61397 0.12449 0.93663 0.14272 1.739l0.0176 0.77606 0.33054-0.01c0.1818-6e-3 0.34225-0.0209 0.35655-0.0346 0.0239-0.0229-0.0306-9.9684-0.0552-10.049-0.01-0.0329-0.0634-0.048-0.28702-0.0815l-0.11498-0.0172 3e-3 -1.0837c2e-3 -0.59604 0.0129-1.5461 0.0241-2.1112 0.0184-0.92447 0.0159-1.0292-0.0251-1.045-0.0251-0.01-0.38481-4e-3 -0.7993 0.0128-0.41448 0.0167-0.75859 0.0253-0.76468 0.0191-6e-3 -6e-3 9e-3 -0.0668 0.0336-0.13499 0.0248-0.0688 0.06-0.32855 0.079-0.58379 0.0188-0.25293 0.0431-0.48436 0.0539-0.51429 0.0108-0.0299 0.0638-0.0687 0.11802-0.0862l0.0984-0.0318v-3.6452l-0.11262-0.0316c-0.10752-0.0302-0.116-0.0414-0.18684-0.24755-0.0408-0.11876-0.0847-0.23182-0.0974-0.25124-0.0173-0.0263-0.208-0.0353-0.75274-0.0353h-0.72912l-0.0161-0.12216c-9e-3 -0.0671-0.0194-0.1739-0.0233-0.23713l-7e-3 -0.11497-3.9538-0.014-1.113 0.14369c-2.2215 0.28681-4.7584 0.54919-9.4628 0.9787-4.3815 0.40002-7.4844 0.73592-9.6946 1.0495-4.9143 0.69715-8.637 1.5788-12.002 2.8425l-0.9433 0.35426-2.3258-0.28756c-1.2792-0.15816-2.3315-0.29272-2.3384-0.29904-0.0069-6e-3 -0.01801-0.0859-0.02457-0.17678l-0.01196-0.16528 0.82111-0.31017c1.0499-0.39658 1.7789-0.64019 2.9789-0.99545 2.7126-0.80303 5.2853-1.3749 8.4648-1.8815 2.1117-0.33647 5.9547-0.80689 9.4492-1.1566 0.75486-0.0756 1.3725-0.14528 1.3725-0.15493 0-0.0178-7.2637-0.0558-10.677-0.0558-5.8745 0-13.739 0.53388-20.972 1.4237-6.6421 0.81713-13.258 1.9438-22.704 3.8666l-2.4288 0.49438-0.47426-0.32339c-0.50787-0.3463-0.53457-0.36625-0.51546-0.38516 0.01721-0.017 5.495-1.23 6.767-1.4984 13.661-2.8831 24.885-4.3431 36.791-4.7854 1.9358-0.072 2.3443-0.0719 17.907 2e-3 6.8451 0.0322 13.034 0.0548 13.753 0.0504l1.3078-8e-3 9e-3 -0.19402c5e-3 -0.10671 0.0112-0.19604 0.0144-0.19853 3e-3 -2e-3 0.3357-0.0121 0.73881-0.0215l0.73295-0.017-6e-3 -0.32335c-3e-3 -0.17785-3e-3 -0.32593 0-0.32907 3e-3 -3e-3 0.64554-0.0129 1.4281-0.0216l1.4228-0.0159 0.016-1.1066 1.5078-2e-5 -0.0101 0.84724-0.0101 0.84723 0.0675 0.0273c0.0525 0.0212 0.68913 0.10054 1.246 0.15529 0.0571 6e-3 0.0902-0.065 0.14195-0.30309l0.0172-0.0788 3.1715-0.014 0.0204-0.0862c0.0113-0.0474 0.0277-0.11857 0.0365-0.15809l0.0161-0.0719 1.3816 0.02 0.0266-0.0699c0.0146-0.0385 0.0357-0.13113 0.047-0.20592 0.0152-0.10149 0.0359-0.14174 0.0815-0.15874 0.0336-0.0125 0.33273-0.0314 0.66471-0.0418 0.33198-0.0105 0.69275-0.027 0.80172-0.0367l0.19814-0.0177-0.0198 0.20072c-0.0239 0.24305-0.015 0.25318 0.24867 0.28057 0.10671 0.0111 0.19401 0.0315 0.19401 0.0456 0 0.0139-0.0258 0.091-0.0574 0.17123-0.0316 0.0802-0.0575 0.15164-0.0575 0.15873 0 7e-3 0.0808 0.0546 0.17965 0.10557 0.17508 0.0903 0.19405 0.0935 0.74839 0.12605 0.31281 0.0184 0.57525 0.0399 0.58319 0.0478 8e-3 8e-3 -3e-3 0.12609-0.0248 0.26257-0.0216 0.13647-0.0329 0.25452-0.0251 0.26233 8e-3 8e-3 5.2019 0.0143 11.542 0.0144 12.763 2.2e-4 10.932-0.0199 18.34 0.20137 31.331 0.93574 50.538 1.8316 61.021 2.8461 3.877 0.3752 6.1836 0.68425 10.408 1.3945 1.0768 0.18104 1.9725 0.32915 1.9904 0.32915 0.0209 0 0.0325 0.0667 0.0325 0.18683v0.18683l-0.13656 6.5e-4c-0.0751 3.9e-4 -1.1395 0.0631-2.3653 0.13888l-2.2288 0.13797-0.90419-0.1385c-6.0853-0.93219-13.694-1.6344-23.151-2.1366-6.2644-0.33267-12.405-0.56118-24.331-0.9055-13.08-0.37764-16.224-0.47942-22.146-0.71705l-2.8168-0.11302-12.582-0.0649c-9.9572-0.0513-12.59-0.0575-12.618-0.0295-0.0196 0.0195-0.0489 0.10277-0.065 0.18516l-0.0294 0.14981-0.50168 8e-3c-0.27592 5e-3 -0.51255 0.0188-0.52586 0.0321-0.0132 0.0132-0.01 0.13074 8e-3 0.26098 0.0178 0.13025 0.0284 0.2405 0.0235 0.24502-6e-3 5e-3 -0.0905-5e-3 -0.19018-0.0196-0.20483-0.0314-0.25533-0.01-0.26979 0.11527l-9e-3 0.0769-3.5749 0.014-0.0184-0.13676c-0.0101-0.0752-0.0228-0.15123-0.0282-0.16894-0.012-0.0394-2.6796-0.0887-2.7162-0.0501-0.013 0.0136-0.0325 0.85909-0.0433 1.8787l-0.0196 1.8539 0.35006 0.47226v0.24179c0 0.15856 0.0124 0.25195 0.0359 0.27128 0.0278 0.0228 1.0013 0.2075 1.0937 0.2075 0.0283 0 0.0262 1.3072-0.0134 8.4723-0.0255 4.5964-0.0263 6.3108-3e-3 6.3339 0.0174 0.0174 0.36589 0.0683 0.77431 0.11312 2.7743 0.30411 4.4392 0.84243 5.559 1.7974 1.3115 1.1185 2.2195 2.2197 2.8182 3.4177l0.22981 0.4599 13.262 6.8056 0.41677-0.0352c0.3174-0.0267 0.42789-0.0465 0.46338-0.083 0.0256-0.0263 0.2892-0.42593 0.5857-0.88799 0.49224-0.76708 0.54691-0.84137 0.62885-0.85452 0.0493-8e-3 7.5121-0.64204 16.584-1.4091 9.0718-0.76709 16.506-1.4019 16.52-1.4107 0.0144-9e-3 0.0259-0.42944 0.0259-0.95059v-0.93465l0.12216 9e-3 0.12215 9e-3 0.0144-0.63183 0.0144-0.63182 0.0969-0.18683c0.12281-0.23682 0.32345-0.4739 0.49102-0.58017 0.19237-0.12201 0.49365-0.20289 0.75176-0.20185 0.17837 6.6e-4 0.25837 0.0174 0.43425 0.0906 0.11859 0.0493 0.2724 0.1258 0.34183 0.16987 0.14426 0.0916 0.37492 0.35081 0.50835 0.57132l0.091 0.15043 8e-3 0.62563 8e-3 0.62564 0.11919 0.0264c0.10758 0.0239 0.12085 0.0365 0.13621 0.12934 9e-3 0.0566 0.0172 0.39637 0.0173 0.75509 3.3e-4 0.37265 0.0118 0.65932 0.0271 0.66879 0.0148 9e-3 3.6171-0.28759 8.0052-0.65938 4.3881-0.37179 8.0014-0.67598 8.0295-0.67598 0.0317 0 0.2369-0.2252 0.53684-0.58895 0.40508-0.49123 0.50027-0.59122 0.57366-0.60269 0.0484-8e-3 0.54071-0.0469 1.094-0.0875 0.55328-0.0405 1.08-0.0814 1.1705-0.0908l0.16452-0.017 8e-3 0.44196 8e-3 0.44195 0.11498-7e-3c0.27742-0.0179 23.429-2.1937 23.46-2.2048 0.0189-7e-3 0.14019-0.17148 0.2696-0.36597 0.12937-0.19448 0.24645-0.36586 0.26017-0.38084 0.0282-0.031 2.5305-0.16281 2.5582-0.13476 0.0101 0.0101 0.066 0.14762 0.1246 0.3057s0.12025 0.30401 0.13711 0.32429c0.022 0.0267 0.11414 0.0346 0.3353 0.0288l0.3047-8e-3 8e-3 -0.81593 8e-3 -0.81595 0.15044 0.018c0.0827 0.01 2.2419 0.0182 4.7982 0.0184l4.6477 2.1e-4 0.11961 0.22994c0.0658 0.12647 0.13112 0.22995 0.14519 0.22995 0.0147 0 0.0255-2.3217 0.0255-5.5225 0-4.1592 9e-3 -5.5504 0.034-5.6357 0.0251-0.0846 0.0599-0.12627 0.13653-0.165 0.33606-0.16974 0.94934-0.29025 1.9997-0.39291 0.69966-0.0684 2.3444-0.0683 3.1617 1.1e-4 1.3111 0.10983 2.43 0.26937 3.5363 0.5042 1.6873 0.35816 3.0442 0.79046 4.1145 1.3109l0.4364 0.21217 0.0147 0.12331c8e-3 0.0679 0.0489 2.4256 0.0908 5.2395 0.0419 2.8139 0.0811 5.1327 0.0872 5.1529 9e-3 0.0295 0.8822 0.0351 4.4957 0.0287l4.4845-8e-3v2.5785l-0.12218-0.0162c-0.0672-9e-3 -2.2246-0.0251-4.7942-0.0361l-4.672-0.0199-0.33282-0.63521-0.33281-0.63521h-2.0511c-1.9333 0-2.0517 2e-3 -2.0608 0.0504-6e-3 0.033 0.0928 0.1522 0.28704 0.34493 0.33127 0.32868 0.41003 0.4484 0.65728 0.99906l0.17163 0.38221-0.14588 0.39073c-0.32984 0.88344-0.6129 1.2096-0.91443 1.0537-0.13505-0.0698-0.26817-0.24642-0.47784-0.6339-0.2188-0.40433-0.49305-0.73325-0.6114-0.73325-0.15712 0-0.54019 0.18839-0.80575 0.39627l-0.0662 0.0519 0.0745 0.44422c0.55784 3.3274 1.2518 5.5962 2.3211 7.589 0.62415 1.1631 1.3008 2.0779 2.168 2.9309 0.90287 0.88811 1.6131 1.3826 2.6396 1.8378 1.0073 0.44669 1.9847 0.68689 3.2153 0.79026 0.26658 0.0224 0.4913 0.0473 0.49938 0.0553 0.0201 0.0199 0.12793 1.5159 0.11065 1.5332-0.0197 0.0197-0.91571-0.0683-1.5421-0.15153-4.0866-0.54294-6.6403-2.4287-8.5626-6.3227-0.43602-0.88328-0.70828-1.5423-1.1202-2.7111-0.51094-1.4498-1.0271-3.4249-1.3642-5.2198-0.0562-0.2992-0.11224-0.55409-0.12458-0.56642-0.0124-0.0124-3.3917 0.24216-7.5097 0.56551-4.1181 0.32335-7.4906 0.58794-7.4946 0.58797-0.0228 3.3e-4 0.069 0.52373 0.85455 4.8708 0.47398 2.6228 0.8571 4.7734 0.85137 4.7792-6e-3 6e-3 -4.4941-1.7831-9.9742-3.9751l-9.9638-3.9855-28.123 2.5133-41.72 21.76v0.84026c0 0.46216-8e-3 0.89705-0.0173 0.96644l-0.0173 0.12617-3.6366-0.018-3.7046 1.9312c-2.0375 1.0622-3.7208 1.9462-3.7406 1.9644-0.0285 0.0263 0.0114 0.16756 0.19189 0.67876l0.22789 0.6456 0.0204 0.68081 0.0204 0.68082-0.23813 0.95331-0.23815 0.95332-0.39387 0.57906-0.3939 0.57908-0.30615 3.4908c-0.18259 2.0821-0.29564 3.5013-0.28013 3.5168 0.0148 0.0148 0.38601 0.0217 0.86085 0.0159l0.83484-0.0101 0.0157 0.17246c9e-3 0.0949 0.019 0.51198 0.0231 0.92698l7e-3 0.7545-5.0875-4e-3c-2.7981-2e-3 -16.496-0.0408-30.439-0.0854zm31.22-1.7887c0.0188-0.0183 0.0425-0.0979 0.0524-0.1769l0.0181-0.14371-14.004-5.6767c-7.702-3.1222-14.027-5.6808-14.056-5.6858-0.0375-6e-3 -0.0587 0.0144-0.0731 0.0719-0.0112 0.0444-0.2619 0.94099-0.55721 1.9922l-0.53692 1.9113-0.18999 0.0575c-0.10449 0.0317-0.20668 0.0743-0.22706 0.0948-0.0251 0.0251-0.17305 1.2617-0.45589 3.8084-0.23035 2.0742-0.41556 3.7783-0.41156 3.7868 4e-3 9e-3 6.8472 0.0105 15.207 5e-3 11.436-8e-3 15.208-0.0194 15.234-0.0444zm0.92033-4.4164 0.60033-2.9461-0.0954-0.50304c-0.18587-0.9797-0.20764-0.67795 0.18047-2.5007l0.33967-1.5952 0.2569-0.33892c0.1413-0.18642 0.25206-0.34308 0.24612-0.34816-6e-3 -6e-3 -6.7939-0.0372-15.084-0.0714-11.056-0.0456-15.082-0.0536-15.104-0.0302-0.0222 0.0229-0.0147 0.0444 0.0266 0.0761 0.0824 0.0632 27.992 11.242 28.015 11.221 0.0105-0.01 0.2892-1.3433 0.61939-2.9636zm0.4969-9.6249c0-0.0265-2.431-2.3975-2.4746-2.4136-0.0152-6e-3 -0.026 0.33889-0.026 0.82429v0.83388l-0.1509 0.0168c-0.083 9e-3 -0.865 0.0199-1.7378 0.0236l-1.5869 7e-3 -0.0152-0.14371c-8e-3 -0.079-0.0296-0.31832-0.0471-0.53174-0.0176-0.21341-0.0378-0.39773-0.0451-0.40958-7e-3 -0.0119-0.10472-0.0216-0.21652-0.0216h-0.20329l0.0161 0.10779c9e-3 0.0593 0.0254 0.17014 0.0367 0.24636l0.0206 0.13856-0.27006-0.0174c-0.14853-0.01-0.47054-0.0202-0.71557-0.0236l-0.44551-6e-3v1.3509l2.2994 0.0146c4.343 0.0277 5.5618 0.0285 5.5618 4e-3zm-11.532-0.59741 8e-3 -0.55033-0.134-0.11795-0.13399-0.11795h-0.86858l-0.10778 0.1332-0.10779 0.13319v0.52299c0 0.28765 9e-3 0.53185 0.0197 0.54268 0.0109 0.0109 0.31155 0.0162 0.66827 0.012l0.64859-8e-3 8e-3 -0.55032zm-5.7564 0.36349v-0.15809l-0.82647-0.0246c-0.45456-0.0136-0.84583-0.0172-0.86947-8e-3 -0.0307 0.0118-0.043 0.0603-0.043 0.17069 0 0.0848 9e-3 0.16302 0.0195 0.17378 0.0108 0.0107 0.40203 0.0162 0.86947 0.012l0.84989-8e-3zm-4.7139 0.11502c0.01-0.0158 0.0247-0.11604 0.0332-0.22277l0.0155-0.19406-0.13927-0.13366-0.13928-0.13366-0.83354-0.0384-0.18683 0.23539-0.18683 0.23542-5.4237-0.0421-0.1265 0.12415c-0.0696 0.0682-0.1265 0.1343-0.1265 0.14669 0 0.0125 0.81809 0.0259 1.818 0.0302 0.9999 4e-3 2.5965 0.0107 3.548 0.0146 1.1282 5e-3 1.7362-3e-3 1.7478-0.0218zm54.31-15.824c10.22-5.3544 18.588-9.7404 18.594-9.7465 6e-3 -6e-3 4e-3 -0.0189-6e-3 -0.0284-0.0307-0.0307-32.914 2.9216-32.952 2.9584-0.0496 0.0488-9.9491 15.938-9.9373 15.95 6e-3 6e-3 1.1518-0.10369 2.5476-0.24247 1.3958-0.13879 2.5516-0.24735 2.5685-0.24124 0.0176 6e-3 0.0584 0.27305 0.0955 0.62478 0.0356 0.33751 0.0701 0.6303 0.0765 0.65062 8e-3 0.026 0.0735 3e-3 0.22063-0.0764 0.1149-0.0623 8.5709-4.4942 18.791-9.8487zm-26.993 9.309 0.44235-0.0191 0.0991-0.16081c0.5137-0.83321 9.5656-16.147 9.5529-16.161-0.0198-0.0223-12.014 2.8637-12.046 2.8985-0.0252 0.0275 0.45633 9.6718 0.48439 9.7006 0.0104 0.0106 0.39819 0.045 0.86175 0.0764s0.84666 0.0615 0.85133 0.0668c5e-3 6e-3 -0.0383 0.44294-0.0955 0.97225l-0.10402 0.96238-1.2072 7.8e-4 0.0102 0.83354c6e-3 0.45845 0.0172 0.84497 0.0256 0.85895 9e-3 0.014 0.16476 0.0173 0.34911 7e-3 0.18352-0.01 0.53272-0.0266 0.77602-0.037zm-50.213-19.023c0.23464-0.26784-7.7629-4.7526-7.9664-4.8637-0.04357 0.0269-0.45231 0.71327-0.8386 1.4081-1.6954 3.0496-2.6844 5.9073-2.8893 8.3488-0.06841 0.81523-0.06078 2.5584 0.01478 3.3767 0.10879 1.1783 0.37733 2.3496 0.77895 3.3977 0.16319 0.42586 0.33771 0.84329 0.40638 0.92849 0.02241 0.0277 0.09795 0.0359 1.0719 0.0359h1.2607l0.6903-0.50502c0.37966-0.27777 0.69028-0.51583 0.69028-0.52901 2.5487-2.9633 3.4783-4.494 5.2625-7.6884m13.942 2.4558c3.3899 0.45577 4.341 0.99156 6.5926-1.1572l0.59583-0.59144c0.32771-0.32529 0.57485-0.61104 0.57485-0.61104l0.71151-0.80125s1.8191-2.2673 2.3185-2.9605c1.0087-1.4002 1.6534-2.5121 2.1666-3.7366 0.30447-0.72646 0.54104-1.5284 0.69104-2.3425 0.18059-0.98014 0.20713-1.6614 0.15062-3.8659-0.0378-1.4705-0.0784-1.8716-0.26512-2.6076-0.22047-0.86938-0.64891-1.7324-1.1792-2.3753-0.34002-0.41223-0.94627-0.96142-1.3319-1.2066-0.41757-0.26544-1.0593-0.54481-1.5872-0.69097-0.51871-0.14361-0.76349-0.17382-1.394-0.17203-1.8671 6e-3 -3.9827 0.66918-5.9929 1.8807-0.48151 0.29019-0.68866 0.43449-1.3915 0.96927-1.9898 1.514-3.9418 3.6737-5.539 6.1283-0.92633 1.4236-1.8086 3.0865-2.0741 3.909-0.32663 1.012-0.51981 1.9589-0.75389 3.695-0.06384 0.4734-0.17416 1.2552-0.24519 1.7374l-0.12915 0.87666 0.0079 1.2052 0.0079 1.2052 2.5725 0.43734c1.4149 0.24053 2.3741 0.45278 2.3741 0.45278l1.6128 0.28018s1.4247 0.37361 1.4836 0.3608c0.013-2e-3 0.0235-0.0113 0.0232-0.0188zm41.882-3.4646c2.557-0.63133 4.6492-1.1591 4.6492-1.1727 1e-5 -0.0136-0.0679-0.0169-0.15088-7e-3 -0.083 0.01-0.5842 0.0501-1.1138 0.0898-4.5292 0.33937-6.3891 0.53493-7.9474 0.8356-0.76944 0.14848-1.5224 0.33824-1.5908 0.40089-0.0322 0.0295-0.0329 0.14395-5e-3 0.67841 0.0188 0.35364 0.0392 0.65094 0.0451 0.66065 0.0126 0.0207 0.0471 0.0123 6.1129-1.4854zm-5.8532-1.9096c1.8521-0.28736 5.1304-0.59655 9.5969-0.90517 0.75244-0.0519 0.85523-0.0645 0.84249-0.10275-0.0137-0.0413-10.181-5.2246-10.205-5.2028-0.0117 0.0104-2e-3 0.12834 0.0215 0.26208 0.0729 0.4144 0.12419 0.87078 0.20007 1.7809 0.0402 0.48216 0.0854 0.96721 0.10047 1.0779 0.0512 0.37566 0.095 1.2345 0.0807 1.5809-0.0119 0.28894-0.0277 0.38037-0.0972 0.56331-0.10514 0.27654-0.17819 0.35782-0.61704 0.68658-0.19636 0.1471-0.36931 0.2785-0.38433 0.29202-0.0414 0.0373 0.053 0.0305 0.46165-0.0329zm-48.303-2.6682c0.13566-0.42128 0.85627-2.0375 1.3501-3.0282 1.7968-3.6042 3.9-6.5939 6.4079-9.1084 1.348-1.3516 2.5643-2.3494 4.0625-3.333 1.3491-0.8857 2.9907-1.7214 4.2875-2.1826 0.23714-0.0844 0.44581-0.16755 0.46372-0.18488 0.0241-0.0233-0.7238-2.1872-0.7238-2.1872l-0.56583-1.9652s-0.53062 0.12761-0.98117 0.26831c-3.4394 1.0741-6.7817 2.8345-10.224 5.3854-3.5362 2.62-6.9271 5.9696-9.6833 9.5652-0.88975 1.1607-1.8964 2.4448-1.8321 2.468 0.01521 6e-3 0.05324 4e-3 0.25084 0.12925 3.8286 2.228 5.2564 2.9409 7.188 4.1733zm37.57-11.459c0.0636-1.0263 0.0834-3.4692 0.067-8.2492l-0.0175-5.0875-0.14072-0.0182c-0.0774-0.01-0.26108-0.023-0.40821-0.0287l-0.26749-0.0105-7e-3 6.8264c-4e-3 3.7545-2e-3 6.843 6e-3 6.8632 0.0106 0.0278 0.10328 0.0348 0.38102 0.0287l0.36704-8e-3zm-4.5283-16.755 0.43506-0.55561 0.0104-0.71373 0.0105-0.71373-0.43115-0.13763c-0.23712-0.0757-0.44732-0.13775-0.46707-0.13786-0.0282-2.2e-4 -0.0359 0.30052-0.0359 1.4082 0 0.77462 0.01 1.4078 0.0215 1.4072 0.0119-6.6e-4 0.21734-0.25123 0.45663-0.55682zm3.1722-1.3486c0-0.49535-7e-3 -0.9079-0.0162-0.91679-0.0178-0.0178-0.49411 0.16708-0.5515 0.21413-0.0527 0.0433-0.0515 1.3246 2e-3 1.3685 0.0472 0.0392 0.48222 0.23008 0.53034 0.23275 0.0281 2e-3 0.0359-0.19622 0.0359-0.89861z" stroke-width=".028743"/>
</g>
</svg>
