<?xml version="1.0" encoding="UTF-8"?>
<svg width="250mm" height="100mm" version="1.1" viewBox="0 0 250 100" xmlns="http://www.w3.org/2000/svg" xmlns:cc="http://creativecommons.org/ns#" xmlns:dc="http://purl.org/dc/elements/1.1/" xmlns:rdf="http://www.w3.org/1999/02/22-rdf-syntax-ns#">
<metadata>
<rdf:RDF>
<cc:Work rdf:about="">
<dc:format>image/svg+xml</dc:format>
<dc:type rdf:resource="http://purl.org/dc/dcmitype/StillImage"/>
<dc:title/>
</cc:Work>
</rdf:RDF>
</metadata>
<path d="m97.567 8.5541-1.2608 0.01135-1.4058 0.88002-1.065-0.43433-1.1186 0.71829-2.3166 0.13739-0.9552 0.97089-82.736-0.06762 0.00649 0.84161 82.692 0.02921 0.97738 0.81565 2.1003-0.0076 1.0077 0.92167 1.0829 0.0503-0.02272-1.0158 0.76644 0.07032 0.19526 1.8861-1.0839 1.6259 0.52466 0.66421 0.05246 0.61228-1.0667 1.9753h-1.766l-1.3327 20.003-8.143-0.17632c-15.087-0.0092-34.162 17.156-34.705 27.378-0.20906 13.963 12.386 14.772 18.184 14.687l4.4217-0.03244v11.329h-14.267c-3.0984 0.03627-5.3608-1.089-7.2035-2.4475l-2.4475 0.06978c2.5537 2.9397 6.909 3.986 9.8608 3.9864h56.369l7.9023-1.2586-8.1825-0.34996-0.83891-0.76914 0.0699-11.05 0.34994-2.0284c0.52716-0.05246 0.80072-0.41418 0.90869-0.979l0.69936-4.1264 6.1548-0.83891-0.14009-1.7487-6.0844 0.76914 0.41972-0.76914 0.979-0.13954 0.1401-0.90923 0.83892 0.06977 0.14008-1.8882 1.6086-0.34996 0.0698-0.83891 1.3988-0.27964-0.41972-3.4968c1.943-0.0041 1.8798 5.0909 2.7974 7.693 0.14468 0.47331 0.34995 0.87233 0.90923 0.83891l3.6369-0.34941c0.6722-0.0038 0.84074-0.51153 0.76914-1.2592l-0.41973-3.7764c0.85166-0.07641 1.5416 0.28928 1.9585 1.3988l-1.1888-11.679c-0.27254 0.8636-0.44069 1.8457-1.7487 1.5388l-0.3494-2.2382c-0.25644-1.0457-0.51326-0.90374-0.76969-1.1888l90.428-12.938 3.0068 7.4129h1.2592l-3.0073-7.4129 14.66-2.0748 2.5714 14.144 4.8962-0.64311 0.29369-7.8872 4.3996 5.6939 2.6265-1.6816-6.8352-9.1577 0.70208-18.864-4.7971 0.39539-2.1322 7.9889-5.7853-7.5486-2.7839 1.7444 7.4648 9.9447-0.66962 2.5087-32.187 2.9673-0.0471-1.0325-0.39809-6e-3 -0.0347-1.879h-1.257l0.0433 1.8542-0.40784 0.01895-0.0394 1.2327-70.919 5.5365-0.20013-0.14225c-0.5679-0.28217-1.0208-0.84774-0.52952-1.7746l5.2423-13.451-7.7887 15.624-1.3105 0.10223-14.441-2.5719-3.6326-23.316-2.3117 0.09465-0.76806-3.4168-0.85243-1.1548-0.28289-1.9937 0.72046 0.17362 0.52196 1.059 0.84269 1e-3 1.0672-0.73453 2.1376-0.0411 0.81241-0.90706 111.48-0.46786-3e-3 -0.83783-111.6 0.17958-0.7026-0.69775-2.467-0.02704-0.90381-0.88218-1.0932 0.54467zm-18.518 31.95-12.413 27.595-17.235 2.4112c-3.7928-13.24 21.415-30.235 29.647-30.006zm0.27206 3.8819 6.8059 0.20608c2.6416 0.14904 5.3012 0.23426 7.7628 1.0136 1.4083 0.8749 2.0515 2.005 1.5037 3.532l-4.253 9.3427-19.336 2.9916zm17.828 28.534 6.429 0.09898 0.2223 2.5465 1.1623 0.29694 1.8547 0.19742 0.12333-2.3241 3.5114 3.4373-15.219 0.38078zm12.66 5.2418 0.0249 1.0882 0.49436 0.02435-0.099 13.031-2.9673 0.04923 0.0498-1.1375c-8e-3 -0.31324-0.23114-0.50272-0.56902-0.51925-0.42239-5.54e-4 -0.54358 0.49491-0.54358 0.49491l-0.0249 1.1867-33.8-0.07411 0.07409-11.226c12.478-0.77301 24.948-1.6233 37.361-2.9175z" stroke="#000" stroke-width=".27693px"/>
</svg>
