<?xml version="1.0" encoding="UTF-8"?>
<svg width="250mm" height="100mm" version="1.1" viewBox="0 0 250 100" xmlns="http://www.w3.org/2000/svg" xmlns:cc="http://creativecommons.org/ns#" xmlns:dc="http://purl.org/dc/elements/1.1/" xmlns:rdf="http://www.w3.org/1999/02/22-rdf-syntax-ns#">
<metadata>
<rdf:RDF>
<cc:Work rdf:about="">
<dc:format>image/svg+xml</dc:format>
<dc:type rdf:resource="http://purl.org/dc/dcmitype/StillImage"/>
<dc:title/>
</cc:Work>
</rdf:RDF>
</metadata>
<path d="m100.78 6.8676-1.2155 0.010942-1.3553 0.8484-1.0267-0.41873-1.0784 0.69248-2.2334 0.13245-0.92088 0.93601-79.764-0.065191 0.0063 0.81137 79.721 0.02816 0.94227 0.78635 2.0248-0.0073 0.9715 0.88856 1.044 0.04849-0.0219-0.97931 0.7389 0.06779 0.18825 1.8183-1.045 1.5675 0.50581 0.64035 0.0506 0.59028-1.0284 1.9043h-1.7026l-1.2848 19.284-7.8505-0.16998c-14.545-0.0089-32.935 16.54-33.458 26.394-0.20155 13.461 11.941 14.241 17.531 14.159l4.2628-0.03127v10.922h-13.754c-2.9871 0.03497-5.1682-1.0499-6.9447-2.3596l-2.3596 0.06727c2.462 2.8341 6.6608 3.8428 9.5065 3.8432h54.344l7.6184-1.2134-7.8885-0.33739-0.80877-0.74151 0.0674-10.653 0.33737-1.9555c0.50822-0.05058 0.77195-0.3993 0.87604-0.94383l0.67424-3.9782 5.9337-0.80877-0.13506-1.6859-5.8658 0.74151 0.40464-0.74151 0.94383-0.13453 0.13507-0.87656 0.80878 0.06726 0.13504-1.8204 1.5508-0.33739 0.0673-0.80877 1.3485-0.26959-0.40464-3.3712c1.8732-4e-3 1.8123 4.908 2.6969 7.4166 0.13948 0.45631 0.33738 0.84099 0.87657 0.80877l3.5062-0.33686c0.64805-0.0037 0.81053-0.49315 0.74151-1.214l-0.40465-3.6407c0.82106-0.07366 1.4862 0.27889 1.8881 1.3485l-1.1461-11.259c-0.26275 0.83258-0.42485 1.7794-1.6859 1.4835l-0.33685-2.1578c-0.24723-1.0081-0.49482-0.87127-0.74204-1.1461l87.179-12.473 2.8988 7.1466h1.214l-2.8993-7.1466 14.133-2.0003 2.479 13.636 4.7203-0.62 0.28314-7.6038 4.2415 5.4893 2.5321-1.6212-6.5896-8.8287 0.67686-18.186-4.6248 0.38119-2.0556 7.7019-5.5774-7.2774-2.6839 1.6817 7.1966 9.5874-0.64556 2.4186-31.031 2.8607-0.0454-0.99541-0.38379-0.0058-0.0335-1.8115h-1.2118l0.0418 1.7876-0.39319 0.01827-0.038 1.1884-68.371 5.3376-0.19294-0.13714c-0.5475-0.27203-0.98413-0.81728-0.5105-1.7108l5.054-12.968-7.5089 15.063-1.2634 0.09856-13.922-2.4795-3.5021-22.478-2.2286 0.09125-0.74047-3.294-0.82181-1.1133-0.27272-1.9221 0.69457 0.16738 0.50321 1.021 0.81242 9.64e-4 1.0289-0.70814 2.0608-0.03962 0.78323-0.87447 107.47-0.45105-3e-3 -0.80773-107.59 0.17313-0.67736-0.67268-2.3784-0.026069-0.87134-0.85049-1.0539 0.5251zm-17.853 30.802-11.967 26.604-16.616 2.3246c-3.6565-12.764 20.646-29.149 28.582-28.928zm0.26229 3.7424 6.5614 0.19868c2.5467 0.14369 5.1107 0.22584 7.4839 0.97719 1.3577 0.84347 1.9778 1.933 1.4497 3.4051l-4.1002 9.0071-18.641 2.8841zm17.188 27.509 6.198 0.09542 0.21431 2.455 1.1205 0.28627 1.7881 0.19033 0.1189-2.2406 3.3852 3.3138-14.672 0.3671zm12.205 5.0535 0.024 1.0491 0.4766 0.02348-0.0954 12.563-2.8607 0.04746 0.048-1.0966c-8e-3 -0.30199-0.22284-0.48466-0.54858-0.5006-0.40721-5.34e-4 -0.52405 0.47713-0.52405 0.47713l-0.024 1.1441-32.586-0.07145 0.07143-10.823c12.03-0.74524 24.052-1.565 36.019-2.8127z" stroke="#000" stroke-width=".26698px"/>
</svg>
