<?xml version="1.0" encoding="UTF-8" standalone="no"?>
<svg
   xmlns:dc="http://purl.org/dc/elements/1.1/"
   xmlns:cc="http://creativecommons.org/ns#"
   xmlns:rdf="http://www.w3.org/1999/02/22-rdf-syntax-ns#"
   xmlns:svg="http://www.w3.org/2000/svg"
   xmlns="http://www.w3.org/2000/svg"
   xmlns:sodipodi="http://sodipodi.sourceforge.net/DTD/sodipodi-0.dtd"
   xmlns:inkscape="http://www.inkscape.org/namespaces/inkscape"
   width="250mm"
   height="100mm"
   version="1.1"
   viewBox="0 0 250 100"
   id="svg6"
   sodipodi:docname="R22.svg"
   inkscape:version="0.92.2 (5c3e80d, 2017-08-06)">
  <defs
     id="defs10" />
  <sodipodi:namedview
     pagecolor="#ffffff"
     bordercolor="#666666"
     borderopacity="1"
     objecttolerance="10"
     gridtolerance="10"
     guidetolerance="10"
     inkscape:pageopacity="0"
     inkscape:pageshadow="2"
     inkscape:window-width="1920"
     inkscape:window-height="1017"
     id="namedview8"
     showgrid="false"
     inkscape:zoom="1.2149667"
     inkscape:cx="362.62685"
     inkscape:cy="113.77431"
     inkscape:window-x="1912"
     inkscape:window-y="-8"
     inkscape:window-maximized="1"
     inkscape:current-layer="svg6" />
  <metadata
     id="metadata2">
    <rdf:RDF>
      <cc:Work
         rdf:about="">
        <dc:format>image/svg+xml</dc:format>
        <dc:type
           rdf:resource="http://purl.org/dc/dcmitype/StillImage" />
        <dc:title></dc:title>
      </cc:Work>
    </rdf:RDF>
  </metadata>
  <path
     d="m 97.566719,11.199968 -1.260826,0.01135 -1.40579,0.880025 -1.064993,-0.434329 -1.118583,0.718292 -2.316608,0.137387 -0.955205,0.970886 -82.7355418,-0.06762 0.00649,0.841611 82.6915798,0.02921 0.977375,0.815653 2.10026,-0.0076 1.007666,0.92167 1.082892,0.0503 -0.02272,-1.015778 0.76644,0.07032 0.195257,1.886111 -1.083939,1.625906 0.524658,0.66421 0.05246,0.612284 -1.066668,1.975287 h -1.76595 L 90.842245,41.888186 82.699211,41.711862 C 67.612425,41.702662 48.536758,58.867927 47.99458,69.089763 47.785516,83.052419 60.380942,83.861499 66.178478,83.77672 l 4.421683,-0.03244 V 95.073549 H 56.332923 c -3.09837,0.03627 -5.36076,-1.088962 -7.203537,-2.447547 l -2.447547,0.06978 c 2.55368,2.939694 6.909003,3.985951 9.860838,3.98637 h 56.368733 l 7.9023,-1.258628 -8.1825,-0.349956 -0.83891,-0.769138 0.0699,-11.049758 0.34994,-2.028353 c 0.52716,-0.05246 0.80072,-0.414181 0.90869,-0.978998 l 0.69936,-4.126415 6.15477,-0.838911 -0.14009,-1.748681 -6.08443,0.769139 0.41972,-0.769139 0.979,-0.139543 0.1401,-0.909226 0.83892,0.06977 0.14008,-1.888203 1.60863,-0.349956 0.0698,-0.838911 1.39877,-0.27964 -0.41972,-3.496839 c 1.94305,-0.0041 1.87983,5.090926 2.79745,7.692962 0.14468,0.473307 0.34995,0.872331 0.90923,0.838911 l 3.63688,-0.349412 c 0.6722,-0.0038 0.84074,-0.511531 0.76914,-1.259151 l -0.41973,-3.776407 c 0.85166,-0.07641 1.54155,0.289281 1.95854,1.398779 l -1.18881,-11.678811 c -0.27254,0.863603 -0.44069,1.84571 -1.74869,1.538824 l -0.3494,-2.238212 c -0.25644,-1.045734 -0.51326,-0.903742 -0.76969,-1.188815 l 90.42757,-12.93796 3.00677,7.412872 h 1.25916 l -3.00731,-7.412872 14.65974,-2.074826 2.57137,14.143731 4.89615,-0.643108 0.29369,-7.887226 4.39959,5.693916 2.62654,-1.681589 -6.83522,-9.157681 0.70208,-18.86424 -4.79713,0.395392 -2.13219,7.988859 -5.78529,-7.548627 -2.78394,1.744391 7.46478,9.944676 -0.66962,2.508673 -32.18738,2.967326 -0.0471,-1.032545 -0.39809,-0.006 -0.0347,-1.878992 h -1.25705 l 0.0433,1.854186 -0.40784,0.01895 -0.0394,1.23267 -70.91856,5.536497 -0.20013,-0.142254 c -0.5679,-0.282173 -1.02084,-0.847745 -0.52952,-1.774639 l 5.24228,-13.450831 -7.78874,15.62373 -1.31054,0.102229 -14.44099,-2.571892 -3.63259,-23.315752 -2.31169,0.09465 -0.768062,-3.416769 -0.852429,-1.154796 -0.28289,-1.993709 0.720459,0.173622 0.52196,1.059027 0.842692,0.001 1.0672,-0.734526 2.13762,-0.0411 0.81241,-0.90706 111.48145,-0.467864 -0.003,-0.837832 -111.59659,0.179578 -0.7026,-0.697746 -2.46702,-0.02704 -0.90381,-0.882181 -1.093152,0.54467 z M 79.048929,43.149749 66.6364,70.744312 49.401835,73.155539 C 45.608996,59.91509 70.816824,42.920214 79.048929,43.149435 Z m 0.272063,3.881912 6.805905,0.20608 c 2.641601,0.149036 5.301204,0.234256 7.762776,1.013622 1.408302,0.874905 2.051485,2.005012 1.503655,3.532008 l -4.252958,9.342733 -19.33629,2.991609 z m 17.82803,28.534477 6.428998,0.09898 0.2223,2.546458 1.16234,0.296942 1.8547,0.197424 0.12333,-2.324144 3.51139,3.437284 -15.218674,0.38078 z m 12.659548,5.241753 0.0249,1.088229 0.49436,0.02435 -0.099,13.031115 -2.96733,0.04923 0.0498,-1.137527 c -0.008,-0.313239 -0.23114,-0.50272 -0.56902,-0.519246 -0.42239,-5.54e-4 -0.54358,0.49491 -0.54358,0.49491 l -0.0249,1.186721 -33.800301,-0.07411 0.07409,-11.2256 c 12.47847,-0.773011 24.947519,-1.623289 37.361101,-2.917504 z"
     id="path4"
     inkscape:connector-curvature="0"
     style="stroke:#000000;stroke-width:0.27692953px" />
</svg>
