<?xml version="1.0" encoding="UTF-8"?>
<svg width="250mm" height="100mm" version="1.1" viewBox="0 0 250 100" xmlns="http://www.w3.org/2000/svg" xmlns:cc="http://creativecommons.org/ns#" xmlns:dc="http://purl.org/dc/elements/1.1/" xmlns:rdf="http://www.w3.org/1999/02/22-rdf-syntax-ns#">
<metadata>
<rdf:RDF>
<cc:Work rdf:about="">
<dc:format>image/svg+xml</dc:format>
<dc:type rdf:resource="http://purl.org/dc/dcmitype/StillImage"/>
<dc:title/>
</cc:Work>
</rdf:RDF>
</metadata>
<path d="m119.18 18.914-4.7056 0.03436-0.13796 1.2457-4.4635 0.44978c-35.498 1.0421-70.387 4.5588-105.72 9.6548l0.048722 0.88059c35.363-4.8878 70.509-8.8031 105.71-9.545l3.6578 1.1458 0.77443-0.60364 1.4191 0.09744v1.4683l-1.1745 1.076 0.0826 1.4298-0.90726-0.02205-4.8927 22.556-14.581-0.7334c-17.507 0.12137-29.862 10.176-30.19 18.496-0.05701 6.9978 6.483 12.213 19.156 11.957l15.068-0.20925 0.12514 8.9983v1.225l-14.188-0.03863c-2.6376-0.21922-4.6945-1.4163-6.3523-3.0948l-1.5264 0.04872c2.0525 1.5123 3.6094 3.559 7.5838 4.0615l48.978 0.44004 6.6545-0.68468-8.3177-0.24464-1.3806-11.368c0.5193-0.11518 1.0858-0.27001 1.7232-0.47338l12.281-2.5449c0.79341-0.04585 1.131-0.76094 1.6145-1.4674 0.62031-0.69911 1.3293-0.06604 2.251-0.53851l-0.73341-1.6638 5.6267-11.4 55.245-3.8763c2.8555 4.9601 5.4908 10.351 11.423 10.514l13.359 0.07846 0.16924 0.33696 1.3207 0.0097 0.21283 1.1073 4.6923 2.8865 1.5253 0.01232 6e-3 -0.58467-1.3632-0.01232-4.3343-2.6659-0.14206-0.73905 3.8178 0.02821-0.0764-0.34464 8.5782 0.05077 0.0492-0.58724-8.7746-0.12924-2.4469-11.052 0.0298-3.2019 0.2272-1.1288 0.0631-0.02566 8.5172-7.7889-1.4458-1.995-6.3991 6.1564 2.8408-14.107-4.3061-0.44004-8.0244 18.397-21.761 0.2031-0.34619-0.58826 0.0348-1.0725c-0.0169-0.33103-0.2831-0.5055-0.5621-0.52057-0.29949 0.05276-0.52419 0.19112-0.5103 0.45184l0.0338 1.2109-0.34568 0.58826-59.682 0.51851c-0.52895-0.17598-1.1212-0.30904-1.117-0.8406l4.5501-6.9483-5.7615 7.6822-15.278 0.29336c-0.25305-0.30017-0.6056-0.51684-0.48876-1.1253l3.229-6.1159-3.4736 5.9693-0.19591-0.09796-0.92984 1.1253-3.0824-24.758-2.9833-0.07334-9e-3 -1.6565-1.2283-1.0898 0.12104-1.4704 1.5222-0.06873 0.6575 0.70879 3.2869-1.4181c33.558 0.58603 66.908 2.7018 100.08 6.158l1.2627-1.0206c-33.394-3.279-67.179-5.3236-101.36-6.1235l-3.8403-0.13848zm-30.859 30.455-10.715 18.349-12.721 0.538c0.1009-9.9732 12.054-17.344 23.437-18.887zm0.73442 2.0551 11.008 0.14719-4.6968 12.085-13.603 0.68468zm13.896 0.29388 8.7578 1.0273-2.3485 9.7861-10.96 0.29336zm123.75 2.6336 0.96112 1.9115-6.9868 6.2539 1.6417 1.9751 6.578-5.7775 3.4326 6.8273-12.789-0.18822c-5.7923-0.10924-8.0378-5.4967-10.752-9.745zm-97.855 23.469 1.3094 11.084-30.581-0.5415-0.09131-10.088 28.543-0.39645c0.2608-0.0035 0.53314-0.02334 0.81906-0.05795z" stroke="#000" stroke-width=".274px"/>
</svg>
