<?xml version="1.0" encoding="UTF-8"?>
<svg width="250mm" height="100mm" version="1.1" viewBox="0 0 250 100" xmlns="http://www.w3.org/2000/svg" xmlns:cc="http://creativecommons.org/ns#" xmlns:dc="http://purl.org/dc/elements/1.1/" xmlns:rdf="http://www.w3.org/1999/02/22-rdf-syntax-ns#">
<metadata>
<rdf:RDF>
<cc:Work rdf:about="">
<dc:format>image/svg+xml</dc:format>
<dc:type rdf:resource="http://purl.org/dc/dcmitype/StillImage"/>
<dc:title/>
</cc:Work>
</rdf:RDF>
</metadata>
<path d="m112.93 18.669-4.5021 0.15916-0.0987 1.1958-4.2592 0.54932c-33.94 1.9465-67.232 6.2451-100.9 12.066l0.070796 0.84128c33.707-5.6229 67.235-10.309 100.89-11.96l3.5306 0.99837 0.725-0.5984 1.3601 0.05529 0.0393 1.4051-1.0945 1.0614 0.0982 1.1441-0.9064-0.02222-3.6374 23.268c-0.48384 1.514-1.002 2.9974-3.1414 3.0215l-9.7043 0.05942c-16.759 0.11618-28.585 9.7408-28.9 17.705-0.05457 6.6989 6.2055 11.691 18.337 11.446l17.186-0.23873-1.6552 7.1257-11.06 0.24597c-2.2957-0.16545-3.8176-0.84663-4.5899-2.0278l-2.422-0.04289c1.617 1.8965 3.6335 3.3049 6.7658 3.3491l42.306 0.10749 5.6967-1.0149-5.3588-0.54879 2.8953-9.0788 13.588-3.3001 4.0745-11.553 0.67127 0.10025 1.0878-2.9532-0.57824-0.14934 0.55138-1.6733-4.923-0.82009 57.901-8.1745c2.8469 4.8521 6.2475 10.127 12.091 10.288l17.716-1.3963 0.28112 0.5271 1.9709 0.02687 0.16278 0.84904 7.2532 3.3663 1.4598 0.01137 6e-3 -0.55964-1.3048-0.01137-6.9106-3.1549-0.0946-0.49299 2.7569 0.03721-0.20619-1.0227 8.7565-0.68987 0.0465-0.5617-8.9259 0.64129-2.1957-10.898-0.0667-2.6842 0.49609-4.455 5.7469-5.2554-1.3839-1.91-3.9925 3.8417 1.4092-12.652-4.3759-0.16743-6.697 19.293-26.443 2.0825-0.33176-0.56276 0.0336-1.0268c-0.0162-0.31689-0.27088-0.48373-0.53795-0.49815-0.2867 0.05051-0.50214 0.18244-0.48886 0.43201l0.0331 1.1596-0.33125 0.56276-33.491 2.5735c-0.50635-0.16846-0.77239-0.20119-0.76842-0.71003l4.7532-7.3807-6.2139 7.9885-20.909 1.9316c-0.24223-0.28733-0.58004-0.49503-0.46817-1.0774l4.7413-7.2511-4.9754 7.1106-0.18758-0.09353-0.88986 1.0769-12.094 1.3167c-5.6692 0.2034-6.2385-1.8106-8.3044-3.1739l-4.5801-22.097-2.8014-0.06873-0.0496-1.4728-1.2046-1.0103 0.0765-1.4102 1.4547-0.10697 0.64801 0.66145 3.1072-1.4454c32.128-0.33676 64.097 0.79612 95.926 3.2162l1.1808-1.0103c-32.043-2.2445-64.425-3.2977-97.148-3.149l-3.6782-0.02997-0.10128-1.2562zm113.35 28.458 0.19275 0.3612-0.0661 0.05168-7.4485 6.6672 1.572 1.8908 7.1746-6.3018 4.7397 8.8796-17.179 1.234c-5.7567-0.10858-8.7708-5.4768-11.512-9.6024l22.527-3.1803zm-140.59 6.0512-8.6412 17.385-12.717 2.8942c-4.3473-9.4577 10.463-18.802 21.358-20.279zm12.735 2.5021 8.511 0.34882-0.8325 6.4528c-0.12204 1.0442-0.40621 1.8044-1.0346 1.9627l-10.429 2.0582 3.7848-10.822zm-2.129 0.05013-3.8613 11.124-13.212 3.1951 6.9153-14.079 10.157-0.24029zm30.585 24.129-2.1327 8.2015-25.189 0.0036 2.2107-7.291 21.928-0.30488c0.87507-0.0118 1.8846-0.21021 3.1832-0.60925z" stroke="#000" stroke-width=".26229px"/>
</svg>
