<?xml version="1.0" encoding="UTF-8" standalone="no"?>
<svg
   xmlns:dc="http://purl.org/dc/elements/1.1/"
   xmlns:cc="http://creativecommons.org/ns#"
   xmlns:rdf="http://www.w3.org/1999/02/22-rdf-syntax-ns#"
   xmlns:svg="http://www.w3.org/2000/svg"
   xmlns="http://www.w3.org/2000/svg"
   xmlns:sodipodi="http://sodipodi.sourceforge.net/DTD/sodipodi-0.dtd"
   xmlns:inkscape="http://www.inkscape.org/namespaces/inkscape"
   width="250mm"
   height="100mm"
   version="1.1"
   viewBox="0 0 250 100"
   id="svg6"
   sodipodi:docname="R66.svg"
   inkscape:version="0.92.2 (5c3e80d, 2017-08-06)">
  <defs
     id="defs10" />
  <sodipodi:namedview
     pagecolor="#ffffff"
     bordercolor="#666666"
     borderopacity="1"
     objecttolerance="10"
     gridtolerance="10"
     guidetolerance="10"
     inkscape:pageopacity="0"
     inkscape:pageshadow="2"
     inkscape:window-width="1920"
     inkscape:window-height="1017"
     id="namedview8"
     showgrid="false"
     inkscape:zoom="0.85911117"
     inkscape:cx="442.81831"
     inkscape:cy="74.045369"
     inkscape:window-x="1912"
     inkscape:window-y="-8"
     inkscape:window-maximized="1"
     inkscape:current-layer="svg6" />
  <metadata
     id="metadata2">
    <rdf:RDF>
      <cc:Work
         rdf:about="">
        <dc:format>image/svg+xml</dc:format>
        <dc:type
           rdf:resource="http://purl.org/dc/dcmitype/StillImage" />
        <dc:title />
      </cc:Work>
    </rdf:RDF>
  </metadata>
  <path
     d="m 112.92539,23.431525 -4.50209,0.159161 -0.0987,1.195769 -4.2592,0.549321 C 70.125064,27.282291 36.832962,31.580922 3.1651573,37.401947 l 0.070796,0.841285 C 36.943446,32.620378 70.471023,27.934137 104.13089,26.282893 l 3.53056,0.998366 0.725,-0.5984 1.3601,0.05529 0.0393,1.405052 -1.09449,1.061415 0.0982,1.144097 -0.9064,-0.02222 -3.63744,23.267959 c -0.48384,1.514032 -1.00205,2.997426 -3.14136,3.021503 l -9.704267,0.05942 c -16.759291,0.116182 -28.585224,9.740777 -28.900074,17.704635 -0.05457,6.698901 6.20546,11.691261 18.337246,11.44626 l 17.185754,-0.238734 -1.655186,7.125669 -11.059708,0.245974 C 83.012417,92.793729 81.4905,92.11255 80.718191,90.931412 l -2.422045,-0.04289 c 1.617007,1.896536 3.633477,3.304868 6.76584,3.349053 l 42.306344,0.107486 5.69667,-1.014903 -5.3588,-0.548791 2.8953,-9.078798 13.5875,-3.300107 4.07453,-11.55315 0.67127,0.100252 1.08777,-2.953242 -0.57824,-0.149342 0.55138,-1.673257 -4.92304,-0.820092 57.90069,-8.174464 c 2.84688,4.852133 6.24753,10.127329 12.09051,10.287664 l 17.71601,-1.396294 0.28112,0.527096 1.97091,0.02687 0.16278,0.849037 7.25319,3.366251 1.45985,0.01137 0.006,-0.559639 -1.3048,-0.01137 -6.91057,-3.154852 -0.0946,-0.492992 2.75692,0.03721 -0.20619,-1.022655 8.75654,-0.689866 0.0465,-0.561703 -8.92587,0.641289 -2.1957,-10.897521 -0.0667,-2.684164 0.49609,-4.454998 5.74694,-5.255353 -1.38388,-1.90995 -3.99252,3.841702 1.40921,-12.651687 -4.37589,-0.167429 -6.69705,19.293174 -26.44344,2.082536 -0.33176,-0.562762 0.0336,-1.026809 c -0.0162,-0.316887 -0.27088,-0.483731 -0.53795,-0.498151 -0.2867,0.05051 -0.50214,0.182436 -0.48886,0.432006 l 0.0331,1.159602 -0.33125,0.562761 -33.49054,2.573464 c -0.50635,-0.168461 -0.77239,-0.201194 -0.76842,-0.710027 l 4.75318,-7.380723 -6.21393,7.988464 -20.90949,1.931645 c -0.24223,-0.287334 -0.58004,-0.495029 -0.46817,-1.077449 l 4.74127,-7.251079 -4.97543,7.110587 -0.18758,-0.09353 -0.88986,1.07692 -12.09422,1.316709 c -5.66915,0.203399 -6.23853,-1.810627 -8.30437,-3.173901 l -4.58014,-22.096664 -2.80138,-0.06873 -0.0496,-1.472758 -1.20456,-1.010272 0.0765,-1.410238 1.45466,-0.10697 0.64801,0.66145 3.10723,-1.445374 c 32.12795,-0.336757 64.09715,0.796121 95.92612,3.216235 l 1.1808,-1.010273 c -32.04329,-2.244511 -64.42523,-3.297725 -97.14849,-3.149031 l -3.67819,-0.02997 -0.10128,-1.256226 z m 113.35136,28.458225 0.19275,0.361204 -0.0661,0.05168 -7.44846,6.667151 1.57198,1.890821 7.17461,-6.301766 4.73969,8.879569 -17.17918,1.234027 c -5.75673,-0.108575 -8.77083,-5.476806 -11.51188,-9.602401 l 22.52657,-3.180256 z M 85.684233,57.940959 77.04305,75.325717 64.326277,78.219958 C 59.978963,68.762281 74.788829,59.418109 85.684498,57.940959 Z m 12.735029,2.502133 8.511008,0.348822 -0.8325,6.452842 c -0.12204,1.044244 -0.40621,1.804436 -1.03456,1.962654 l -10.428685,2.058248 3.784817,-10.822381 z m -2.129049,0.05013 -3.86128,11.124267 -13.211538,3.195068 6.915328,-14.079096 10.15749,-0.240292 z m 30.585447,24.128903 -2.13267,8.201451 -25.189341,0.0036 2.210701,-7.291031 21.92812,-0.304875 c 0.87507,-0.0118 1.88455,-0.210206 3.18316,-0.609249 z"
     id="path4"
     inkscape:connector-curvature="0"
     style="stroke:#000000;stroke-width:0.26229402px" />
</svg>
