<?xml version="1.0" encoding="UTF-8"?>
<svg width="250mm" height="100mm" version="1.1" viewBox="0 0 250 100" xmlns="http://www.w3.org/2000/svg" xmlns:cc="http://creativecommons.org/ns#" xmlns:dc="http://purl.org/dc/elements/1.1/" xmlns:rdf="http://www.w3.org/1999/02/22-rdf-syntax-ns#">
<metadata>
<rdf:RDF>
<cc:Work rdf:about="">
<dc:format>image/svg+xml</dc:format>
<dc:type rdf:resource="http://purl.org/dc/dcmitype/StillImage"/>
<dc:title/>
</cc:Work>
</rdf:RDF>
</metadata>
<path d="m86.787 7.0562-0.64822 1.1225h-0.89346l-0.25788-0.44749h-0.32512l-1.1514 1.1519-3.5132 0.44243-17.124-0.05861c-8.1968-0.20313-20.389 1.9645-29.849 4.6943l3.3655 0.23613c7.8975-1.791 15.828-3.5623 26.571-3.6608h20.962v3.9561l1.2398 0.05861-0.11832 2.4801 0.64974 0.0592 0.35445 0.7084-0.21186 4.7642-4.8855-0.68008-0.35445 0.76807 1.1225 0.64923-7.8464 8.0457c-16.771 1.1055-30.955 9.0743-41.271 23.53l-0.13956 0.1972 0.14512 0.18911c3.2614 4.2496 6.6413 6.4015 11.805 9.4489 4.7129 3.1937 10.066 5.7897 24.256 7.6579l-1.5356 8.207h-6.9086v2.0625h6.8757l-1.9154 7.1497h-17.833c-2.9028 0.05039-4.3035-1.4019-5.6828-2.875l-1.1387 0.65732c1.35 1.7325 2.3485 3.6411 6.7032 3.8712h54.442v-1.7126h-1.299v-7.3808h2.5984v-1.9492h-2.7754l0.28569-8.7652 71.691-24.342 4.8425 1.5032h1.0436l6.1799-0.87678 0.58452-3.2149 9.9373-0.91874 1.9209 2.7971-3.9247 3.8408 2.2541 2.0878 2.8397-3.1309 5.2186 9.0605 1.2596-0.23613-0.17495 0.06018c0.49581 1.4374 1.1175 2.3137 1.9472 2.5398 0.41484 0.11305 0.86033 0.0454 1.3035-0.17546 0.44319-0.22086 0.89249-0.59018 1.3642-1.1008l-0.34384-0.31753c-0.44671 0.48353-0.86178 0.81581-1.2307 0.9996-0.36893 0.18384-0.68114 0.22254-0.97083 0.1436-0.57351-0.15628-1.1393-0.85306-1.6114-2.2025l2.466-0.46266-3.3817-13.611 1.0846-0.25029-0.041-1.3784 1.0016-0.1254 1.2115-1.4194 0.29226-1.0436 1.6282-1.5867 1.5447 0.79284 8.3086-8.8102-2.421-2.0868-10.898 11.065-0.83481-0.83481-1.5442-0.16737 3.2148-15.283 2.338-0.08288 2.1292-11.983-8.1837-1.5032-8.518 30.271-8.4335 0.41766-0.0835 0.58452-44.259 1.8375-23.882-4.4263-3.2199-6.0843-12.813-7.2625-10.428-1.4512v-8.3617l-0.18149-0.67806h-1.299v-3.7003h2.7334l0.2781 0.48187h1.7414l1.036-1.036h30.105c17.355 0.44475 34.467 1.7824 51.351 3.9592l1.1514-0.50159c-17.034-2.5337-34.556-3.8029-52.376-4.2923h-27.933l-2.5762-0.30693-0.54913-0.9511h-1.1685l-0.63255 0.36558h-3.8323l-0.71295-0.41159-0.20832-0.77717zm2.2157 8.1741h1.2105v7.941l-1.7814-0.24777v-5.0609l0.57086-0.32917zm-14.849 16.591 9.8072 0.45305-0.12792 5.2956-8.3117-0.21641c-13.063-0.41419-19.671 5.8213-24.51 13.936l-6.6425-8.0108c6.2548-5.0152 13.356-8.4442 21.11-10.204l1.1655 4.9987 0.42828-0.09961-1.1624-4.9926c2.6736-0.58374 5.4228-0.9732 8.2419-1.1594zm2.2127 6.8221 7.086 0.29479c1.5496 0.01232 1.9406 0.96546 1.7126 2.4215-1.6622 4.8279-4.4678 7.7681-8.4643 9.15 0.9591-3.8768 1.6042-8.0526-1.4558-10.626 0.1017-1.052 0.31283-0.99588 1.1215-1.2403zm-7.3495 0.67756c0.24385 5.18e-4 0.48956 0.01038 0.73672 0.03131 4.5517 0.88055 5.7686 3.0793 5.5504 5.8457-3.4243 14.31-12.876 14.919-16.807 15.238-1.5382-0.06164-3.2354-0.4823-4.5093-0.94756l-0.17698-5.3147c1.7204-5.448 7.6473-14.865 15.206-14.851zm-24.992 4.2312 6.6698 8.0437 0.26799-0.22248c-0.63377 1.0672-1.2362 2.1677-1.8203 3.2881l-15.382-0.24726c3.0856-4.1828 6.5209-7.81 10.265-10.862zm-10.292 12.037 14.812 0.23765c-1.3944 2.7649-2.6954 5.6327-4.0516 8.4522-4.7423-2.806-7.7823-5.0179-10.76-8.6899zm62.355 16.83-0.05815 7.263-21.198-7.1452zm-23.265 0.94452 20.608 7.1452-21.907-0.0592zm-1.9477 9.1525 25.509 0.05969 0.05815 7.3211h-26.512z" stroke="#000" stroke-width=".46764px"/>
</svg>
