<?xml version="1.0" encoding="UTF-8"?>
<svg width="250mm" height="100mm" version="1.1" viewBox="0 0 250 100" xmlns="http://www.w3.org/2000/svg">
<path transform="scale(.26458)" d="m896.77 41.287c-3.3852 0.045254-7.5415 0.63739-12.635 2.8105l-56.316 11.111-36.113-1.7676c-12.46 0.9818-24.906 2.2561-36.707 17.727l-52.143 65.713c-22.043 29.001-47.127 50.16-81.785 52.857l-212.54 2.9629 3.793-10.463 5.4453-0.35742-8.0352-0.35742-6.2226 11.248-5.0039 0.07032c-15.212-2.3937-29.975-3.6598-44.221-3.6387-6.6492 0.06006-13.505 0.47338-20.477 1.1016l0.23633-2.1348-2.0195-0.25195-0.44141 2.5879c-17.567 1.693-35.84 4.7107-53.539 7.1348l-35.758-0.29296 0.02344-2.1699-1.5156 0.06446-0.17383 2.0918-4.9121-0.03906-3.9414-1.7383-10.039-0.31445-2.9609 1.9141-2.5957-0.02148c-4.7597 0.13257-9.7564 0.27228-14.898 0.47656l-1.3262-1.3594-5.998 0.18946-1.0117 1.5703c-37.062 2.1024-80.475 9.5466-109.98 46.727-21.91 10.013-68.999 29.581-68.943 41.291-0.17067 10.711 34.398 18.603 75.867 23.564l0.44336 9.2109a10 10 0 0 0-8.3613 9.8633 10 10 0 0 0 10 9.998 10 10 0 0 0 10-9.998 10 10 0 0 0-1.0273-4.4004l4.2852-3.6367-9.7324-8.7051 0.048828-1.6738c17.251 1.9269 35.433 3.3565 52.67 4.2832l6.4707 6.9746 7.7031 0.88476-5.1855-7.418c12.652 0.56289 24.583 0.84625 34.945 0.83399l188.94-1.4473c3.9204 1.5993 7.2595 3.3708 16.559 3.3711 1.1816 1.6881 2.9001 2.2303 4.7988 2.3945l-1.0117 4.877 19.6 5.4707a15.468 15.468 0 0 0 14.537 10.227 15.468 15.468 0 0 0 15.469-15.467 15.468 15.468 0 0 0-0.99218-5.4316c2.3478-0.35116 3.521-1.2589 4.1426-2.4277 6.0092-0.52694 11.895-1.2308 16.568-3.7012l15.889-0.12109 52.023-2.5254c15.603-0.63513 41.388-3.5124 82.346-14.668l8.0976 0.60937-2.0352-2.3047c3.9964-1.1271 8.0793-2.3018 12.354-3.5859l33.371-9.1875c1.6275 1.1941 3.4425 2.3107 6.2207 3.0254 3.1265 0.98157 9.5759 1.5974 10.715 1.3379 1.3001-0.41881 9.5233-6.0717 14.285-9.1074 1.2212-0.71686 1.207-2.4586 0.64258-4.0274l105.7-29.098c3.5262-1.1909 6.458-2.8906 6.4277-7.1426l-0.17188-11.469 1.2363-0.00391-0.08203-2.5449 1.2051-0.08984-0.04493-2.5h-1.25v-3.0352l-1.1855 0.02539-0.06446-4.3106 67.322-148.93 51.607-18.75-33.291-3.7012c-1.5099-0.1418-3.2638-0.31231-5.2949-0.28516zm-765.71 185.33h5.3672c1.9554 0.08326 2.9452 0.84815 2.9043 3.4102l-0.12695 10.795c-0.07964 1.851-3.0778 3.8931-5.6816 4.4199l-7.3242 1.2617c-1.813-0.03666-3.2064-0.23923-3.3457-0.94531l-0.0625-0.31641 5.4922-15.09c0.51351-1.3192 0.80378-3.5181 2.7774-3.5352zm-6.9141 1.2051c0.88029 0.03292 0.49813 0.98955 0.22266 1.6016l-5.9492 17.104c-5.7051-1.8652-11.436-3.0281-17.979-3.8887l11.115-11.295c2.2165-1.6253 4.4719-3.2338 9.7773-3.4824l2.3535 0.00781c0.18126-0.03666 0.33323-0.05157 0.45898-0.04687zm-14.242 1.4688-12.768 13.125-11.965 1.7852c5.3781-5.086 11.716-12.472 15.582-13.93l9.1504-0.98047zm314.37 3.2383a3.6776 5.2244 0 0 1 3.6777 5.2246 3.6776 5.2244 0 0 1-3.6777 5.2246 3.6776 5.2244 0 0 1-3.6777-5.2246 3.6776 5.2244 0 0 1 3.6777-5.2246zm38.576 0.12695a3.6776 5.2244 0 0 1 3.6777 5.2227 3.6776 5.2244 0 0 1-3.6777 5.2246 3.6776 5.2244 0 0 1-3.6777-5.2246 3.6776 5.2244 0 0 1 3.6777-5.2227zm19.141 0.21875a3.6776 5.2244 0 0 1 3.6777 5.2246 3.6776 5.2244 0 0 1-3.6777 5.2246 3.6776 5.2244 0 0 1-3.6777-5.2246 3.6776 5.2244 0 0 1 3.6777-5.2246zm-38.539 0.04883a3.6776 5.2244 0 0 1 3.6777 5.2246 3.6776 5.2244 0 0 1-3.6777 5.2246 3.6776 5.2244 0 0 1-3.6777-5.2246 3.6776 5.2244 0 0 1 3.6777-5.2246zm77.115 0.07813a3.6776 5.2244 0 0 1 3.6777 5.2246 3.6776 5.2244 0 0 1-3.6777 5.2246 3.6776 5.2244 0 0 1-3.6777-5.2246 3.6776 5.2244 0 0 1 3.6777-5.2246zm73.35 0.0625a3.6776 5.2244 0 0 1 3.6777 5.2246 3.6776 5.2244 0 0 1-3.6777 5.2246 3.6776 5.2244 0 0 1-3.6758-5.2246 3.6776 5.2244 0 0 1 3.6758-5.2246zm-55.609 0.06445a3.6776 5.2244 0 0 1 3.6777 5.2227 3.6776 5.2244 0 0 1-3.6777 5.2246 3.6776 5.2244 0 0 1-3.6777-5.2246 3.6776 5.2244 0 0 1 3.6777-5.2227zm38.576 0.125a3.6776 5.2244 0 0 1 3.6777 5.2246 3.6776 5.2244 0 0 1-3.6777 5.2246 3.6776 5.2244 0 0 1-3.6777-5.2246 3.6776 5.2244 0 0 1 3.6777-5.2246zm-75.715 0.01562a3.6776 5.2244 0 0 1 3.6777 5.2246 3.6776 5.2244 0 0 1-3.6777 5.2246 3.6776 5.2244 0 0 1-3.6777-5.2246 3.6776 5.2244 0 0 1 3.6777-5.2246zm56.316 0.25391a3.6776 5.2244 0 0 1 3.6777 5.2246 3.6776 5.2244 0 0 1-3.6777 5.2227 3.6776 5.2244 0 0 1-3.6777-5.2227 3.6776 5.2244 0 0 1 3.6777-5.2246zm-342.77 0.05469a3.6776 5.2244 0 0 1 3.6777 5.2246 3.6776 5.2244 0 0 1-3.6777 5.2246 3.6776 5.2244 0 0 1-3.6777-5.2246 3.6776 5.2244 0 0 1 3.6777-5.2246zm38.574 0.12695a3.6776 5.2244 0 0 1 3.6777 5.2227 3.6776 5.2244 0 0 1-3.6777 5.2246 3.6776 5.2244 0 0 1-3.6758-5.2246 3.6776 5.2244 0 0 1 3.6758-5.2227zm-19.396 0.26758a3.6776 5.2244 0 0 1 3.6777 5.2246 3.6776 5.2244 0 0 1-3.6777 5.2246 3.6776 5.2244 0 0 1-3.6777-5.2246 3.6776 5.2244 0 0 1 3.6777-5.2246zm175.3 1.6699s0.18359 1.669 0.18359 2.5293c0 2.8854-1.6466 5.2227-3.6777 5.2226-2.0321 0.03213-3.5963-1.1986-3.6777-5.2226l7.1719-2.5293zm-313.77 78.297 7.5156 6.6894-2.7266 2.4121a10 10 0 0 0-4.9434-3.7988l0.1543-5.3027z" stroke="#000" stroke-width="1px"/>
</svg>
