<?xml version="1.0" encoding="UTF-8"?>
<svg width="250mm" height="100mm" version="1.1" viewBox="0 0 250 100" xmlns="http://www.w3.org/2000/svg">
<g>
<path d="m236.25 19.014c-0.80343 0.01074-1.7903 0.15081-2.9992 0.66659l-13.366 2.6376-8.571-0.41998c-2.9572 0.23302-5.9111 0.53547-8.712 4.2072l-12.375 15.597c-5.2316 6.883-11.186 11.905-19.411 12.545l-62.442 0.53308 0.94564-2.6098 1.2928-0.08484-1.907-0.08483-1.5441 2.7901-2.7312 0.02317c-3.6104-0.5681-7.1136-0.8686-10.495-0.86358-5.7081 0.051546-12.044 1.1737-18.095 2.0025l-8.419 0.03384-0.91134-0.40143-2.3826-0.07463-0.76208 0.49275-3.8113 0.01529 0.0075-0.69254-0.35971 0.01484-0.05656 0.67956-4.2396 0.01715 0.0079-0.73936-0.35972 0.01484-0.06026 0.72638-1.3054 0.0051c-1.0534 0.02934-2.159 0.06115-3.2921 0.1043l-0.36806-0.37733-1.4236 0.04497-0.27628 0.42878c-8.8301 0.48701-19.213 2.221-26.257 11.097-5.2 2.3765-16.376 7.0206-16.363 9.7999-0.040507 2.5421 8.1638 4.4152 18.006 5.5927l0.10523 2.1861a2.3734 2.3734 0 0 0-1.9845 2.3409 2.3734 2.3734 0 0 0 2.3734 2.3729 2.3734 2.3734 0 0 0 2.3734-2.3729 2.3734 2.3734 0 0 0-0.24383-1.0444l1.017-0.86313-2.3099-2.066 0.01159-0.39726c4.0944 0.45733 8.4097 0.79662 12.501 1.0166l1.5357 1.6553 1.8282 0.20999-1.2307-1.7606c3.0028 0.1336 5.8346 0.20085 8.2938 0.19794l6.4281-0.04079 1.1325 2.047 1.907-0.08483-1.2924-0.08483-0.68281-1.8839 48.184-0.30456c0.6932 0.25737 1.5392 0.46907 3.0979 0.46912 0.28046 0.40069 0.68871 0.52982 1.1394 0.56878l-0.24012 1.1575 4.6517 1.2989a3.6711 3.6711 0 0 0 3.4502 2.4267 3.6711 3.6711 0 0 0 3.6709-3.6713 3.6711 3.6711 0 0 0-0.23549-1.2891c0.55726-0.08334 0.83614-0.2983 0.98365-0.57573 1.0629-0.09321 2.1083-0.21183 3.0316-0.50805l16.199-0.10244 12.347-0.59937c3.3829-0.1377 8.7904-0.72406 17.109-2.842l3.0001 0.22575-0.72685-0.8228c1.432-0.38839 2.939-0.81744 4.5321-1.2961l9.4499-2.6014c0.43047 0.32944 0.8869 0.64805 1.6419 0.84227 0.74203 0.23296 2.2727 0.37958 2.543 0.318 0.30856-0.0994 2.2602-1.441 3.3904-2.1615 0.33056-0.19405 0.28166-0.70418 0.0894-1.1088l23.454-6.4563c0.8369-0.28264 1.5327-0.68606 1.5255-1.6952l-0.0282-1.8825 0.41951-0.0014-0.0195-0.60401 0.28601-0.02133-0.0106-0.59334h-0.29667v-0.72036l-0.40746 0.0083-0.0278-1.8649 15.978-35.346 12.248-4.4501-7.9012-0.87889c-0.35836-0.03366-0.77463-0.07366-1.2567-0.06722zm-203.26 44.028h1.2738c0.46409 0.01977 0.69901 0.2013 0.6893 0.80936l-0.03013 2.562c-0.0189 0.4393-0.73049 0.92399-1.3485 1.049l-1.7383 0.29945c-0.4303-0.0087-0.76099-0.05678-0.79406-0.22436l-0.01484-0.0751 1.3035-3.5814c0.12188-0.3131 0.19077-0.83499 0.65917-0.83903zm-1.641 0.28601c0.20893 0.0079 0.11822 0.23486 0.05285 0.38011l-1.412 4.0593c-1.354-0.44268-2.7142-0.71868-4.267-0.92293l2.6381-2.6807c0.52606-0.38575 1.0614-0.76751 2.3205-0.82651l0.55858 0.0019c0.04302-0.0087 0.07909-0.01224 0.10893-0.01112zm-3.3802 0.34859-3.0302 3.1151-2.8397 0.42368c1.2764-1.2071 2.7806-2.96 3.6982-3.306zm113.31 0.65129a0.87283 1.2399 0 0 1 0.87287 1.24 0.87283 1.2399 0 0 1-0.87287 1.24 0.87283 1.2399 0 0 1-0.87286-1.24 0.87283 1.2399 0 0 1 0.87286-1.24zm-14.864 0.05979a0.87283 1.2399 0 0 1 0.87287 1.24 0.87283 1.2399 0 0 1-0.87287 1.24 0.87283 1.2399 0 0 1-0.87286-1.24 0.87283 1.2399 0 0 1 0.87286-1.24zm10.44 0.0037a0.87283 1.2399 0 0 1 0.87286 1.24 0.87283 1.2399 0 0 1-0.87286 1.24 0.87283 1.2399 0 0 1-0.87287-1.24 0.87283 1.2399 0 0 1 0.87287-1.24zm18.196 9.25e-4a0.87283 1.2399 0 0 1 0.87286 1.24 0.87283 1.2399 0 0 1-0.87286 1.24 0.87283 1.2399 0 0 1-0.87286-1.24 0.87283 1.2399 0 0 1 0.87286-1.24zm-24.425 0.0255a0.87283 1.2399 0 0 1 0.87285 1.24 0.87283 1.2399 0 0 1-0.87285 1.24 0.87283 1.2399 0 0 1-0.87287-1.24 0.87283 1.2399 0 0 1 0.87287-1.24zm28.636 0.0047a0.87283 1.2399 0 0 1 0.87287 1.24 0.87283 1.2399 0 0 1-0.87287 1.24 0.87283 1.2399 0 0 1-0.87286-1.24 0.87283 1.2399 0 0 1 0.87286-1.24zm-46.714 0.0102a0.87283 1.2399 0 0 1 0.87287 1.24 0.87283 1.2399 0 0 1-0.87287 1.24 0.87283 1.2399 0 0 1-0.87287-1.24 0.87283 1.2399 0 0 1 0.87287-1.24zm9.2641 0.019a0.87283 1.2399 0 0 1 0.87287 1.2395 0.87283 1.2399 0 0 1-0.87287 1.24 0.87283 1.2399 0 0 1-0.87287-1.24 0.87283 1.2399 0 0 1 0.87287-1.2395zm23.83 9.28e-4a0.87283 1.2399 0 0 1 0.87287 1.24 0.87283 1.2399 0 0 1-0.87287 1.2395 0.87283 1.2399 0 0 1-0.87286-1.2395 0.87283 1.2399 0 0 1 0.87286-1.24zm4.8061 0.0037a0.87283 1.2399 0 0 1 0.87286 1.24 0.87283 1.2399 0 0 1-0.87286 1.2395 0.87283 1.2399 0 0 1-0.87286-1.2395 0.87283 1.2399 0 0 1 0.87286-1.24zm13.366 0.0598a0.87283 1.2399 0 0 1 0.87286 1.24 0.87283 1.2399 0 0 1-0.87286 1.24 0.87283 1.2399 0 0 1-0.87287-1.24 0.87283 1.2399 0 0 1 0.87287-1.24zm-46.596 0.01112a0.87283 1.2399 0 0 1 0.87286 1.24 0.87283 1.2399 0 0 1-0.87286 1.24 0.87283 1.2399 0 0 1-0.87287-1.24 0.87283 1.2399 0 0 1 0.87287-1.24zm-64.368 0.16688a0.87283 1.2399 0 0 1 0.87287 1.24 0.87283 1.2399 0 0 1-0.87287 1.24 0.87283 1.2399 0 0 1-0.87286-1.24 0.87283 1.2399 0 0 1 0.87286-1.24zm9.1551 0.03013a0.87283 1.2399 0 0 1 0.87287 1.2395 0.87283 1.2399 0 0 1-0.87287 1.24 0.87283 1.2399 0 0 1-0.8724-1.24 0.87283 1.2399 0 0 1 0.8724-1.2395zm-4.6035 0.06351a0.87283 1.2399 0 0 1 0.87286 1.24 0.87283 1.2399 0 0 1-0.87286 1.24 0.87283 1.2399 0 0 1-0.87287-1.24 0.87283 1.2399 0 0 1 0.87287-1.24zm13.856 0.0092a0.87283 1.2399 0 0 1 0.87286 1.24 0.87283 1.2399 0 0 1-0.87286 1.24 0.87283 1.2399 0 0 1-0.87286-1.24 0.87283 1.2399 0 0 1 0.87286-1.24zm-4.4241 0.0037a0.87283 1.2399 0 0 1 0.87287 1.24 0.87283 1.2399 0 0 1-0.87287 1.24 0.87283 1.2399 0 0 1-0.87286-1.24 0.87283 1.2399 0 0 1 0.87286-1.24zm41.963 0.25588s0.0435 0.39611 0.0435 0.6003c0 0.6848-0.39081 1.24-0.87286 1.24-0.48229 0.0077-0.85355-0.28493-0.87287-1.24zm-84.259 18.71 1.7837 1.5877-0.64712 0.57248a2.3734 2.3734 0 0 0-1.1732-0.90152z" stroke="#000" stroke-width=".23734px"/>
</g>
</svg>
