<?xml version="1.0" encoding="UTF-8"?>
<svg width="250mm" height="100mm" version="1.1" viewBox="0 0 250 100" xmlns="http://www.w3.org/2000/svg">
<g>
<path d="m235.68 23.248c-0.75025 0.01003-1.6718 0.14083-2.8006 0.62246l-12.481 2.4626-8.0036-0.39174c-2.7614 0.21759-5.5198 0.50002-8.1352 3.9287l-11.556 14.564c-4.8853 6.4273-10.445 11.117-18.126 11.715l-64.757 0.66964 0.56012-1.5453 1.2068-0.07921-1.7808-0.07921-0.94839 1.7137-1.7566 0.01818c-3.3714-0.5305-6.6427-0.81155-9.8-0.80686-1.2552 0.01134-2.5435 0.07925-3.8525 0.18483l0.0044-0.42031-0.3359 0.01428-0.03636 0.43633c-4.1397 0.35535-8.4813 1.0802-12.677 1.6548l-13.73 0.16882-0.43589-0.19219-2.2245-0.07012-0.4649 0.30041-6.9717 0.08571 0.0065-0.59779-0.3359 0.01386-0.04935 0.5887-3.962 0.04848 0.0069-0.677-0.3359 0.01386-0.0554 0.66791-1.2198 0.01515c-0.98368 0.02739-2.0161 0.0571-3.0742 0.0974l-0.34369-0.35235-1.3293 0.04198-0.25798 0.4004c-8.2454 0.45478-17.941 2.074-24.518 10.363-4.8557 2.2192-15.292 6.5559-15.28 9.1512-0.037826 2.3738 7.6234 4.1229 16.814 5.2225l0.09826 2.0414a2.2163 2.2163 0 0 0-1.8531 2.186 2.2163 2.2163 0 0 0 2.2163 2.2158 2.2163 2.2163 0 0 0 2.2163-2.2158 2.2163 2.2163 0 0 0-0.22769-0.97524l0.9497-0.80599-2.157-1.9293 0.01082-0.37096c3.8233 0.42706 7.8529 0.74388 11.673 0.94927l1.4341 1.5458 1.7072 0.19609-1.1493-1.644c2.804 0.12475 5.4483 0.18755 7.7448 0.18484l23.394-0.14761 0.91031 1.6453 1.7812-0.07921-1.2073-0.07878-0.54108-1.4934 34.792-0.21946c0.6418 0.23517 1.43 0.42673 2.8625 0.4268 0.2619 0.37417 0.64313 0.49475 1.064 0.53112l-0.22423 1.0809 4.3434 1.2125a3.4281 3.4281 0 0 0 3.2222 2.266 3.4281 3.4281 0 0 0 3.4278-3.4278 3.4281 3.4281 0 0 0-0.2199-1.2038c0.52011-0.07778 0.7803-0.27875 0.9181-0.53762 0.97833-0.08579 1.9406-0.19528 2.7937-0.46317l8.0565-0.05108 22.164-0.44758c5.5728-0.16079 14.314-1.53 25.802-4.9814l37.882-10.429c0.7815-0.26393 1.4312-0.64107 1.4246-1.5834l-0.0428-2.8807 0.30691-8.65e-4 -0.0181-0.56402 0.26707-0.01991-0.01-0.55407h-0.27704v-0.67267l-0.29564 6e-3 -9e-3 -0.61683 14.92-33.006 11.438-4.1555-7.3782-0.82071c-0.33463-0.03143-0.72292-0.06878-1.173-0.06277zm-203.91 41.561h1.1895c0.43337 0.01845 0.65274 0.18797 0.64367 0.75578l-0.02814 2.3924c-0.01765 0.41022-0.68213 0.86282-1.2592 0.97957l-1.6232 0.27963c-0.40182-0.0081-0.71061-0.05301-0.7415-0.2095l-0.01386-0.07012 1.2172-3.3443c0.11381-0.29237 0.17814-0.77971 0.61553-0.78348zm-1.5323 0.26708c0.1951 0.0073 0.1104 0.21931 0.04935 0.35495l-1.3185 3.7906c-1.2644-0.41338-2.5346-0.67111-3.9845-0.86183l2.4634-2.5033c0.49123-0.36021 0.9911-0.7167 2.1669-0.7718l0.5216 0.0017c0.04017-0.0081 0.07385-0.01143 0.10172-0.01039zm-3.1564 0.32551-2.8296 2.9088-2.6517 0.39564c1.1919-1.1272 2.5965-2.7641 3.4534-3.0872zm111.5 0.60817a0.81505 1.1579 0 0 1 0.81509 1.1579 0.81505 1.1579 0 0 1-0.81509 1.1579 0.81505 1.1579 0 0 1-0.81508-1.1579 0.81505 1.1579 0 0 1 0.81508-1.1579zm-4.1312 0.0593a0.81505 1.1579 0 0 1 0.81509 1.1579 0.81505 1.1579 0 0 1-0.81509 1.1579 0.81505 1.1579 0 0 1-0.81508-1.1579 0.81505 1.1579 0 0 1 0.81508-1.1579zm16.991 8.65e-4a0.81505 1.1579 0 0 1 0.81508 1.1579 0.81505 1.1579 0 0 1-0.81508 1.1579 0.81505 1.1579 0 0 1-0.81509-1.1579 0.81505 1.1579 0 0 1 0.81509-1.1579zm3.9317 0.02814a0.81505 1.1579 0 0 1 0.81508 1.1579 0.81505 1.1579 0 0 1-0.81508 1.1579 0.81505 1.1579 0 0 1-0.81509-1.1579 0.81505 1.1579 0 0 1 0.81509-1.1579zm8.353 0.02121a0.81505 1.1579 0 0 1 0.81508 1.1579 0.81505 1.1579 0 0 1-0.81508 1.1579 0.81505 1.1579 0 0 1-0.81508-1.1579 0.81505 1.1579 0 0 1 0.81508-1.1579zm-21.072 0.0069a0.81505 1.1579 0 0 1 0.81465 1.1579 0.81505 1.1579 0 0 1-0.81465 1.1575 0.81505 1.1579 0 0 1-0.81509-1.1575 0.81505 1.1579 0 0 1 0.81509-1.1579zm4.4879 0.0035a0.81505 1.1579 0 0 1 0.81509 1.1579 0.81505 1.1579 0 0 1-0.81509 1.1575 0.81505 1.1579 0 0 1-0.81508-1.1575 0.81505 1.1579 0 0 1 0.81508-1.1579zm-20.937 0.01515a0.81505 1.1579 0 0 1 0.81509 1.1579 0.81505 1.1579 0 0 1-0.81509 1.1579 0.81505 1.1579 0 0 1-0.81508-1.1579 0.81505 1.1579 0 0 1 0.81508-1.1579zm3.9317 0.02814a0.81505 1.1579 0 0 1 0.81509 1.1579 0.81505 1.1579 0 0 1-0.81509 1.1575 0.81505 1.1579 0 0 1-0.81508-1.1575 0.81505 1.1579 0 0 1 0.81508-1.1579zm29.486 0.01255a0.81505 1.1579 0 0 1 0.81507 1.1579 0.81505 1.1579 0 0 1-0.81507 1.1579 0.81505 1.1579 0 0 1-0.81465-1.1579 0.81505 1.1579 0 0 1 0.81465-1.1579zm-37.717 0.01861a0.81505 1.1579 0 0 1 0.81508 1.1579 0.81505 1.1579 0 0 1-0.81508 1.1579 0.81505 1.1579 0 0 1-0.81509-1.1579 0.81505 1.1579 0 0 1 0.81509-1.1579zm46.071 0.0026a0.81505 1.1579 0 0 1 0.81509 1.1579 0.81505 1.1579 0 0 1-0.81509 1.1579 0.81505 1.1579 0 0 1-0.81508-1.1579 0.81505 1.1579 0 0 1 0.81508-1.1579zm-50.36 0.0684a0.81505 1.1579 0 0 1 0.81507 1.1579 0.81505 1.1579 0 0 1-0.81507 1.1579 0.81505 1.1579 0 0 1-0.81509-1.1579 0.81505 1.1579 0 0 1 0.81509-1.1579zm-49.527 0.0541a0.81505 1.1579 0 0 1 0.81508 1.1579 0.81505 1.1579 0 0 1-0.81508 1.1579 0.81505 1.1579 0 0 1-0.81465-1.1579 0.81505 1.1579 0 0 1 0.81465-1.1579zm-17.783 0.02251a0.81505 1.1579 0 0 1 0.81508 1.1579 0.81505 1.1579 0 0 1-0.81508 1.1579 0.81505 1.1579 0 0 1-0.81508-1.1579 0.81505 1.1579 0 0 1 0.81508-1.1579zm8.5491 0.02814a0.81505 1.1579 0 0 1 0.81508 1.1575 0.81505 1.1579 0 0 1-0.81508 1.1579 0.81505 1.1579 0 0 1-0.81465-1.1579 0.81505 1.1579 0 0 1 0.81465-1.1575zm13.351 0.02251a0.81505 1.1579 0 0 1 0.81508 1.1575 0.81505 1.1579 0 0 1-0.81508 1.1579 0.81505 1.1579 0 0 1-0.81508-1.1579 0.81505 1.1579 0 0 1 0.81508-1.1575zm-9.0793 0.0095a0.81505 1.1579 0 0 1 0.81465 1.1579 0.81505 1.1579 0 0 1-0.81465 1.1579 0.81505 1.1579 0 0 1-0.81508-1.1579 0.81505 1.1579 0 0 1 0.81508-1.1579zm13.092 0.0264a0.81505 1.1579 0 0 1 0.81465 1.1579 0.81505 1.1579 0 0 1-0.81465 1.1579 0.81505 1.1579 0 0 1-0.81508-1.1579 0.81505 1.1579 0 0 1 0.81508-1.1579zm-21.663 8.66e-4a0.81505 1.1579 0 0 1 0.81508 1.1579 0.81505 1.1579 0 0 1-0.81508 1.1579 0.81505 1.1579 0 0 1-0.81508-1.1579 0.81505 1.1579 0 0 1 0.81508-1.1579zm59.658 0.31599s0.0406 0.36989 0.0406 0.56056c0 0.63947-0.36494 1.1579-0.81508 1.1579-0.45036 0.0071-0.79704-0.26607-0.81507-1.1579zm-90.346 17.407 1.6657 1.4826-0.60428 0.53459a2.2163 2.2163 0 0 0-1.0956-0.84192z" stroke="#000" stroke-width=".22163px"/>
</g>
</svg>
