<?xml version="1.0" encoding="UTF-8"?>
<svg width="250mm" height="100mm" version="1.1" viewBox="0 0 250 100" xmlns="http://www.w3.org/2000/svg">
<path transform="scale(.26458)" d="m844.26 34.859c-5.2446 0.15679-6.0975 4.0849-7.6035 5.8281l-14.773 0.12695-89.027 91.424c-17.601 18.385-36.13 23.234-48.93 22.5l-188.21-8.75c-11.799-1.4728-23.575-3.1278-35.344-4.8438-1.983-1.0178-3.1563-2.4521-1.3535-5.4238l6.4414-11.441 14.494-15.59-14.15 14.979-16.518 14.643-0.82227 1.082c-15.535-2.3041-31.066-4.642-46.625-6.7559l-0.0488-6.2129-5.873-0.37695-5.2578 5.1152c-14.983-1.9124-30-3.5552-45.082-4.6797-2.4012-1.2391-4.8876-2.4438-10.129-2.5469l-2.2148 1.75c-7.2506-0.39624-14.517-0.66484-21.805-0.76758-41.341-0.54962-66.825 20.949-86.605 36.428-10.201 0.0125-21.823 0.46728-34.18 1.3106-0.71314-14.2-1.685-26.995-2.5566-27-0.77529-0.0508-2.1562 12.739-3.2461 27.426-6.6535 0.51058-13.472 1.1231-20.391 1.8457-0.0487-16.412-1.9751-58.215-3.5566-58.225-1.3574-0.089-4.5964 38.916-4.8047 59.145-62.424 7.2033-128.46 22.475-128.23 41.57-0.35143 25.283 61.528 36.176 69.91 37.498l-1.875 12.055-0.24414 15.422-14.898 5.9336-0.06445 1.3262 11.049 11.553 1.7969-0.0332-0.5332 1.8652 0.0059 0.0625c-0.37554-0.0318-0.75207-0.0507-1.1289-0.0566-9.0726 4.6e-4 -16.427 7.3551-16.428 16.428 4.59e-4 9.0726 7.3551 16.427 16.428 16.428 9.0726-4.6e-4 16.427-7.3551 16.428-16.428-8e-3 -6.3498-3.6753-12.126-9.418-14.836l2.8242-8.416-1.0098-0.50586 2.6523-7.4492h1.0098l1.3184-4.4356 33.363-9.7812 15.146 2.4844c-0.0566 12.411 0.18915 22.81 0.97071 22.861 0.67886 0.0855 2.4287-9.7156 4.1797-22.018l9.7969 1.6074 4.6094 9.8496 0.69532-1.7695-2.7793-7.8906 42.623 4.8516 1.6074-13.393 28.035 1.6074 12.5 18.125-4.4629-10.715c-1.5036-3.9936-2.4701-7.022 2.8574-6.875l76.25 1.9648 10.453 23.652c-4.1009 4.2214-6.399 9.8724-6.4082 15.758-3.9e-4 12.518 10.148 22.666 22.666 22.666 12.518 4e-4 22.666-10.148 22.666-22.666-8e-3 -3.0274-0.62219-6.0225-1.8066-8.8086l21.893-28.816 64.893-1.2031 24.395-2.9922 0.49023 17.008-3.4824 0.3125c0.16433 1.1655 0.5388 2.2559 3.9726 3.5273l2.5 0.17969c3.8864-0.30293 7.077-1.852 9.1211-3.9551l-6.8184-0.31641-0.75781-16.793c0.62955 1.4548 0.94382 5.0246 3.4102 4.5449l19.066-2.7148c3.8509-1.1988 4.1374-2.2241 4.6719-3.9141l67.826-7.1641c0.28267 3.9085 2.033 5.6559 5.1777 5.3555l27.5-3.125-0.80273-5.5352 162.95-18.928c40.817-5.3401 69.046-17.386 69.285-20.982 0.19189-2.0095-2.3811-2.5913-3.8379-3.75l29.732-89.643 3.6602 0.98242 7.0527-21.52-2.1426-0.71289 17.947-54.018-44.932-0.60547c-4.8907-2.0522-7.6588-4.8445-16.037-5.6836-0.39017-0.02484-0.75973-0.02998-1.1094-0.01953zm-587.83 245.5c1.3316 2.3753 2.612 3.9921 5.8594 4.2637l21.393 1.8281-20.263-1.7761c-4.3509-0.49261-5.7805-2.415-6.989-4.3157zm46.051-152.87-0.56836 2.7773c-17.081 10.382-28.45 25.135-41.859 38.324-8.099-3.0087-17.865-5.8676-28.578-8.6387 19.999-16.259 41.671-30.041 71.006-32.463zm19.381 5.7461 26.264 1.1348c2.8277 0.34873 5.0575 1.3952 5.0508 5.0508l-0.75781 32.072c0.0413 4.2376-2.0711 6.9843-8.207 6.9453l-62.25-3.2832c-8.3667-1.0313-6.3907-3.2379-4.5449-5.4297l23.863-25.254c3.9217-3.5936 12.647-11.337 20.582-11.236zm52.996 3.6191c0.5277 0.0242 1.0883 0.0796 1.6797 0.16797l36.996 4.9238c4.8607 0.44007 5.7859 2.7817 5.8086 5.5566l-0.88476 29.041c-0.12042 4.6588-3.2583 5.243-6.6914 5.4297l-39.775-2.5254c-5.7455-0.86683-5.7425-3.8089-5.5547-6.8184l2.0195-31.566c0.57454-2.9757 2.7084-4.3784 6.4024-4.209zm68.27 11.629c0.79185-0.0231 1.7603 0.0563 2.9473 0.26367l26.785 3.8398c2.1465 0.58793 4.8653 0.031 4.2852 6.0723l-0.98242 20.803c-8e-3 4.7051-2.2586 6.0472-5.625 5.7148l-27.945-2.3223c-1.9476-0.58367-4.7022 0.2838-4.2871-4.5527l0.89454-25.805c0.36709-1.8876 0.49637-3.9135 3.9277-4.0137zm-344.38 108.95 3.0195 0.49414-2.9941 6.4531zm11.26 1.8457 21.852 3.584-25.164 7.5547zm-11.201 14.686-1.3242 3.2188 1.3887 0.56836-2.2734 7.1973-1.1992-0.31446-1.207 4.2285h-0.75l-9.7227-8.8379z" stroke="#000" stroke-width="1px"/>
</svg>
