<?xml version="1.0" encoding="UTF-8" standalone="no"?>
<svg xmlns="http://www.w3.org/2000/svg" width="250mm" height="100mm" viewBox="0 0 250 100">
  <path stroke="#000" stroke-width=".26458" d="M223.378 9.223c-1.388.042-1.614 1.081-2.012 1.542l-3.909.034-23.555 24.189c-4.657 4.864-9.56 6.147-12.946 5.953l-49.798-2.315c-3.122-.39-6.238-.827-9.351-1.282-.525-.269-.836-.648-.359-1.435l1.705-3.027 3.835-4.125-3.744 3.963-4.37 3.875-.218.286c-4.11-.61-8.22-1.228-12.336-1.788l-.013-1.643-1.554-.1-1.391 1.353c-3.965-.506-7.938-.94-11.928-1.238-.636-.328-1.293-.646-2.68-.674l-.586.463a142.52 142.52 0 00-5.77-.203c-10.938-.145-17.68 5.543-22.914 9.638-2.699.004-5.774.124-9.043.347-.189-3.757-.446-7.142-.677-7.144-.205-.013-.57 3.37-.858 7.257-1.76.135-3.565.297-5.395.488-.013-4.342-.523-15.403-.941-15.405-.36-.024-1.217 10.296-1.272 15.649-16.516 1.905-33.987 5.946-33.927 10.998-.093 6.69 16.279 9.572 18.497 9.922l-.496 3.19-.065 4.08-3.942 1.57-.017.35 2.923 3.057.476-.009-.141.494.001.016a4.346 4.346 0 00-.298-.015 4.347 4.347 0 104.346 4.347 4.347 4.347 0 00-2.492-3.926l.748-2.226-.268-.134.702-1.971h.267l.35-1.174 8.826-2.588 4.008.658c-.015 3.284.05 6.035.257 6.048.18.023.642-2.57 1.106-5.825l2.592.425 1.22 2.606.183-.468-.735-2.088 11.277 1.284.426-3.543 7.417.425 3.308 4.795-1.181-2.835c-.398-1.056-.654-1.857.756-1.819l20.174.52 2.766 6.258a5.997 5.997 0 00-1.696 4.17 5.997 5.997 0 1011.995 0 5.997 5.997 0 00-.478-2.331l5.792-7.624 17.17-.319 6.454-.791.13 4.5-.922.082c.044.309.143.597 1.051.934l.662.047c1.028-.08 1.872-.49 2.413-1.046l-1.804-.084-.2-4.443c.166.385.25 1.33.902 1.202l5.044-.718c1.02-.317 1.095-.588 1.236-1.036l17.946-1.895c.075 1.034.538 1.496 1.37 1.417l7.276-.827-.212-1.464 43.112-5.008c10.8-1.413 18.269-4.6 18.332-5.552.05-.532-.63-.686-1.015-.992l7.866-23.718.969.26 1.866-5.694-.567-.188 4.748-14.293-11.888-.16c-1.294-.543-2.026-1.282-4.243-1.504a3.14 3.14 0 00-.293-.005zM67.847 74.18c.352.629.69 1.057 1.55 1.129l5.66.483-5.361-.47c-1.151-.13-1.53-.639-1.85-1.142zM80.03 33.734l-.15.735c-4.52 2.747-7.528 6.65-11.076 10.14-2.143-.796-4.727-1.553-7.561-2.286 5.291-4.302 11.025-7.948 18.787-8.59zm5.128 1.52l6.949.3c.748.093 1.338.37 1.336 1.337l-.2 8.486c.01 1.12-.549 1.847-2.172 1.837l-16.47-.869c-2.214-.272-1.691-.856-1.203-1.436l6.314-6.682c1.038-.95 3.346-3 5.446-2.973zm14.022.958c.14.006.287.02.444.044l9.788 1.303c1.287.116 1.531.736 1.537 1.47l-.234 7.684c-.032 1.233-.862 1.387-1.77 1.437l-10.524-.669c-1.52-.229-1.52-1.007-1.47-1.804l.535-8.352c.152-.787.716-1.158 1.694-1.113zm18.062 3.077c.21-.007.466.014.78.07l7.087 1.015c.568.156 1.287.008 1.134 1.607l-.26 5.504c-.002 1.245-.598 1.6-1.488 1.512l-7.394-.614c-.515-.155-1.244.075-1.134-1.205l.236-6.827c.097-.5.132-1.036 1.04-1.062zM26.127 68.114l.798.13-.792 1.708zm2.979.489l5.781.948-6.658 1.999zm-2.964 3.885l-.35.852.367.15-.601 1.904-.318-.083-.319 1.119h-.198l-2.573-2.338z"/>
</svg>
