<?xml version="1.0" encoding="UTF-8"?>
<svg width="250mm" height="100mm" version="1.1" viewBox="0 0 250 100" xmlns="http://www.w3.org/2000/svg">
<path transform="scale(.26458)" d="m879.29 94.203c-8.7653 0.19188-13.305 5.2942-18.57 9.6426l-125.83 111.72c-7.5248 5.4807-12.884 8.0319-23.992 8.334l-285.33 0.084 2.8672-4.8184 0.37891-1.7051-2.5898 0.18946-6.0293 6.3359-113.41 0.0332c-25.449-3.3566-54.292-6.6486-81.639-9.2305l3.5137-5.8574v-2.1426l-1.5176 0.17773-7.1191 7.3496c-17.869-1.6391-34.914-2.9472-49.805-3.7422-0.16517-1.043-0.38677-2.0301-1.7148-1.9102-1.32 0.0199-1.5262 0.89861-1.793 1.7324-10.331-0.50592-19.568-0.76003-27.068-0.66211-30.458 0.064-47.53-1.3317-67.857 19.285-22.63 10.779-53.396 24.966-53.393 35.715 0.26021 16.751 39.456 28.872 92.354 36.379l0.0566 7.5508 2.5 1.25 5.3574 0.35547-0.0645 3.8262-1.2598-0.13477-0.59961-1.168-1.9258 0.0332 0.53711 4.5449 2.3574 0.63477-7.1465 6.9512 2.873 2.7188c-0.83877 1.324-1.2857 2.8584-1.2891 4.4258 4.6e-4 4.586 3.7186 8.3034 8.3047 8.3027 4.5853-4.6e-4 8.3023-3.7174 8.3027-8.3027-3e-3 -3.8741-2.6852-7.2311-6.4629-8.0898l-0.0547-3.0098 2.7422-1.1055 0.31641-1.5469 2.082-1.5469-0.56641-1.2305-4.6758-0.23047-0.0781-4.3574 1.875 0.17969 0.51172-8.252c38.917 4.757 83.602 7.2151 125.2 7.3574 5.9052 1.0659 12.203 1.9824 20.314 2.2207l5.1914 5.1016 1.4512-0.0625-3.2754-4.9824 45.758 0.16211c0.24639 3.4781 0.48471 6.967 1.4609 9.168 6.218 2.4781 48.451 3.959 56.542 0.37391l-7e-3 -3.4348 2.2141 0.0131 0.10288-1.3014 17.719-2.7778 11.535-1.8507 3.9155 0.13998-1.2988 5.3106-2.082 1.3262 1.3242 1.5156 11.934-2.6523 4.4824 4.1035v3.2207l-1.6836 1.4355c-1.5345-2.1271-3.9963-3.3889-6.6191-3.3926-4.5153 8e-5 -8.1757 3.6604-8.1758 8.1758 8e-5 4.5153 3.6604 8.1757 8.1758 8.1758 3.0975-3e-3 5.9271-1.757 7.3086-4.5293l5.7715-1.0918c1.1313 3.3011 4.2331 5.5204 7.7227 5.5254 4.5153-8e-5 8.1757-3.6605 8.1758-8.1758-3e-3 -2.3324-1.0023-4.5525-2.7461-6.1016l2.9043-2.5469c-4.531-4.2065-9.922-5.831-15.484-6.9434l0.30469-3.6484 1.9473-0.0332 0.98437 1.3438 13.258-0.12696-0.25196 6.6934 7.6387 4.9102c-2.0446 1.5434-3.2476 3.9559-3.25 6.5176 8e-5 4.5153 3.6605 8.1757 8.1758 8.1758 3.3387-3e-3 6.3402-2.0356 7.582-5.1348l5.6055 0.0801c1.2783 3.0214 4.2388 4.9861 7.5195 4.9902 4.5153-8e-5 8.1757-3.6605 8.1758-8.1758-2e-3 -2.7584-1.3956-5.3295-3.7051-6.8379l1.6543-2.7578-0.56836-3.7891-13.094-2.7461-0.13378-1.4904c5.8079-0.51452 11.753-0.68668 16.819-3.0555 14.799 0.10887 14.647-0.33012 28.795-1.0401l39.229 0.0312c1.7789-1.1e-4 3.9896-0.0448 6.4805-0.125l3.4961 3.9336 1.9648-0.13281 0.0449-1.3848-1.9746-2.5527c20.475-0.86858 57.294-4.0527 86.752-10.662l78.875-16.846 4.8301 3.9004 1.4277-0.0898v-1.4277l-2.2207-3.2461 151.2-32.291c6.2759-1.6724 11.648-4.274 10.178-13.928l19.285-8.2148c3.9528-1.8796 5.8741-3.361-0.71289-3.5703l-23.75-0.71485c-2.2673-0.80987-3.7766-1.5683-8.0371-1.6074h-11.07l48.928-124.11c1.1025-2.5949 0.1306-3.0726-1.4277-3.0352zm-786.61 127.5l-0.75781 7.2324c-2.0592-0.49012-4.2655-0.75914-6.5625-0.89258 1.8727-1.8564 3.5708-4.3516 5.3574-6.2949zm-4.0625 0.0898-5.8477 6.1602-7.8574 0.13282 0.22461-0.22266 6.875-5.9824zm5.9824 0.043 5.5371 0.0449 0.043 8.3496-5.7578-0.9375 0.17773-7.0547zm72.588 3.1699c1.4862-0.0257 1.9101 1.0651 1.9648 2.9023 0.0523 1.754-0.41838 2.8849-1.9648 2.9024-1.5384 0.0174-1.9337-1.0901-1.9629-2.9024-0.0276-1.7047 0.36572-2.8748 1.9629-2.9023zm6.3008 0.0371c1.4862-0.0257 1.9101 1.0651 1.9648 2.9023 0.0523 1.754-0.41838 2.8849-1.9648 2.9024-1.5384 0.0174-1.9356-1.0901-1.9648-2.9024-0.0276-1.7047 0.36768-2.8748 1.9648-2.9023zm13.119 0.14258c1.4862-0.0257 1.9101 1.0631 1.9648 2.9004 0.0523 1.754-0.41838 2.8849-1.9648 2.9023-1.5384 0.0174-1.9356-1.0901-1.9648-2.9023-0.0276-1.7047 0.36768-2.8728 1.9648-2.9004zm26.473 0.0156c1.4862-0.0257 1.9081 1.0651 1.9629 2.9024 0.0523 1.754-0.41643 2.883-1.9629 2.9004-1.5384 0.0174-1.9356-1.0881-1.9648-2.9004-0.0276-1.7047 0.36768-2.8748 1.9648-2.9024zm6.502 0c1.4862-0.0257 1.9101 1.0651 1.9648 2.9024 0.0523 1.754-0.41838 2.883-1.9648 2.9004-1.5384 0.0174-1.9337-1.0881-1.9629-2.9004-0.0276-1.7047 0.36572-2.8748 1.9629-2.9024zm-26.082 0.0215c1.4862-0.0257 1.9101 1.0631 1.9648 2.9004 0.0523 1.754-0.41838 2.8849-1.9648 2.9023-1.5384 0.0174-1.9356-1.0901-1.9648-2.9023-0.0276-1.7047 0.36768-2.8728 1.9648-2.9004zm32.471 0.0469c1.4862-0.0257 1.9101 1.0651 1.9648 2.9024 0.0523 1.754-0.41838 2.8849-1.9648 2.9023-1.5384 0.0174-1.9356-1.0901-1.9648-2.9023-0.0276-1.7047 0.36767-2.8748 1.9648-2.9024zm-46.059 4e-3c1.4862-0.0257 1.9081 1.0651 1.9629 2.9023 0.0523 1.754-0.41643 2.8849-1.9629 2.9023-1.5384 0.0174-1.9356-1.09-1.9648-2.9023-0.0276-1.7047 0.36767-2.8748 1.9648-2.9023zm26.787 0.0156c1.4862-0.0257 1.9101 1.0651 1.9648 2.9024 0.0523 1.754-0.41838 2.8849-1.9648 2.9023-1.5384 0.0174-1.9356-1.0901-1.9648-2.9023-0.0276-1.7047 0.36767-2.8748 1.9648-2.9024zm-6.6094 0.0742c1.4862-0.0257 1.9101 1.0651 1.9648 2.9023 0.0523 1.754-0.41838 2.8849-1.9648 2.9024-1.5384 0.0174-1.9356-1.0901-1.9648-2.9024-0.0276-1.7047 0.36767-2.8748 1.9648-2.9023zm-56.9 31.627c1.4862-0.0257 1.9101 1.0631 1.9648 2.9004 0.0522 1.754-0.41837 2.8849-1.9648 2.9024-1.5384 0.0174-1.9356-1.0901-1.9648-2.9024-0.0265-1.7047 0.36757-2.8728 1.9648-2.9004zm117.53 0.0254c1.4862-0.0257 1.9101 1.0651 1.9648 2.9024 0.0522 1.754-0.41837 2.883-1.9648 2.9004-1.5384 0.0174-1.9356-1.0881-1.9648-2.9004-0.0265-1.7047 0.36757-2.8748 1.9648-2.9024zm468.93 0.0899c1.4862-0.0257 1.9101 1.0631 1.9648 2.9004 0.0522 1.754-0.41838 2.8849-1.9648 2.9023-1.5384 0.0174-1.9337-1.09-1.9629-2.9023-0.0264-1.7047 0.36564-2.8728 1.9629-2.9004zm-315.89 0.0879c1.4862-0.0257 1.9101 1.0651 1.9648 2.9023 0.0522 1.754-0.41837 2.8849-1.9648 2.9024-1.5384 0.0174-1.9337-1.0901-1.9629-2.9024-0.0265-1.7047 0.36562-2.8748 1.9629-2.9023zm135.3 0.26758c1.4178-0.0245 1.8651 0.9757 1.9512 2.6621-1.307 0.0306-2.6079 0.0704-3.9121 0.10547-3e-3 -1.6289 0.40754-2.7408 1.9609-2.7676zm-10.07 0.0332c1.4862-0.0257 1.91 1.0651 1.9648 2.9023-1.3119 0.0426-2.6147 0.10124-3.9238 0.14844-2e-3 -0.0508-5e-3 -0.0964-6e-3 -0.14844-0.0265-1.7047 0.36758-2.8747 1.9648-2.9023zm23.336 0.0332c1.331-0.023 1.8068 0.85524 1.9316 2.3574-1.2985 0.0152-2.5889 0.0429-3.8848 0.0625 0.0572-1.437 0.51292-2.395 1.9531-2.4199zm-6.4961 4e-3c1.3605-0.0235 1.8257 0.89712 1.9375 2.4609-1.2974 0.0226-2.5979 0.0394-3.8926 0.0664 0.0389-1.4956 0.4799-2.5018 1.9551-2.5273zm13.266 0.0684c1.2973-0.0224 1.7844 0.80583 1.9238 2.2383-1.2924 7e-3 -2.5852 0.0155-3.875 0.0273 0.0835-1.3533 0.56126-2.2416 1.9512-2.2656zm6.6445 0.0391c1.2767-0.0221 1.7662 0.78308 1.9141 2.1738-1.2862 0-2.5719 2e-3 -3.8555 6e-3 0.0991-1.3027 0.58244-2.1562 1.9414-2.1797zm13.264 0.0664c1.2804-0.0221 1.7693 0.78893 1.916 2.1875-1.2827-0.0144-2.5713-0.0386-3.8516-0.0488 0.10631-1.278 0.59203-2.1155 1.9356-2.1387zm-6.4961 4e-3c1.2604-0.0218 1.7531 0.76649 1.9082 2.125-1.2827-8e-3 -2.5617-9e-3 -3.8418-0.0117 0.1108-1.2634 0.59923-2.0902 1.9336-2.1133zm19.289 0.041c1.3304-0.023 1.8066 0.85444 1.9316 2.3555-1.2929-0.0283-2.5905-0.0638-3.8809-0.0879 0.0831-1.3537 0.55929-2.2436 1.9492-2.2676zm-6.0234 0.0254c1.2861-0.0222 1.7756 0.79501 1.9199 2.2051-1.2895-0.0218-2.5724-0.0332-3.8594-0.0508 0.10396-1.2872 0.59032-2.131 1.9394-2.1543zm19.289 0.043c1.415-0.0245 1.8619 0.97023 1.9492 2.6504-1.3016-0.0426-2.6052-0.0885-3.9043-0.12695 0.0392-1.4943 0.48051-2.4979 1.9551-2.5234zm-6.4961 2e-3c1.3544-0.0234 1.823 0.88846 1.9375 2.4395-1.3005-0.0357-2.5926-0.0564-3.8906-0.0879 0.0687-1.4 0.53513-2.3271 1.9531-2.3516zm32.982 0.0371c1.4862-0.0257 1.91 1.0651 1.9648 2.9024 0.0522 1.754-0.41837 2.883-1.9648 2.9004-1.5384 0.0174-1.9337-1.0881-1.9629-2.9004-0.0265-1.7047 0.36562-2.8748 1.9629-2.9024zm-19.717 0.0312c1.4606-0.0253 1.8925 1.0322 1.959 2.8125-1.309-0.05-2.6135-0.0929-3.9199-0.13867 0.0137-1.5766 0.43803-2.6475 1.9609-2.6738zm32.982 0.0352c1.4862-0.0257 1.9101 1.0651 1.9648 2.9023 0.0522 1.754-0.41838 2.8849-1.9648 2.9024-1.5384 0.0174-1.9356-1.0901-1.9648-2.9024-0.0265-1.7047 0.36758-2.8748 1.9648-2.9023zm-26.338 4e-3c1.4862-0.0257 1.9082 1.0632 1.9629 2.9004 2e-3 0.0532-3e-3 0.10025-2e-3 0.15235-1.3099-0.057-2.6184-0.11126-3.9258-0.16406-0.0244-1.6981 0.3714-2.8612 1.9648-2.8887zm19.842 0c1.4862-0.0257 1.9101 1.0651 1.9648 2.9024 0.0522 1.754-0.41837 2.8849-1.9648 2.9023-1.5384 0.0174-1.9356-1.09-1.9648-2.9023-0.0265-1.7047 0.36757-2.8748 1.9648-2.9024zm-377.47 0.0684c1.4862-0.0257 1.9101 1.0651 1.9648 2.9024 0.0523 1.754-0.41837 2.8849-1.9648 2.9023-1.5384 0.0174-1.9356-1.0901-1.9648-2.9023-0.0276-1.7047 0.36767-2.8748 1.9648-2.9024zm160.54 0c1.4862-0.0257 1.91 1.0651 1.9648 2.9024 0.0521 1.754-0.41838 2.8849-1.9648 2.9023-1.5384 0.0174-1.9356-1.0901-1.9648-2.9023-0.0265-1.7047 0.36758-2.8748 1.9648-2.9024zm230.2 0c1.4862-0.0257 1.9101 1.0631 1.9648 2.9004 0.0522 1.754-0.41841 2.8849-1.9648 2.9024-1.5385 0.0174-1.9356-1.0901-1.9648-2.9024-0.0265-1.7047 0.36754-2.8728 1.9648-2.9004zm-26.34 2e-3c1.4862-0.0257 1.9102 1.0651 1.9648 2.9023 0.0521 1.754-0.41838 2.883-1.9648 2.9004-1.4147 0.016-1.8577-0.92492-1.9434-2.4844 0.42482-0.054 0.85086-0.10811 1.2754-0.16211-0.42969-0.0201-0.85573-0.035-1.2852-0.0547-2e-3 -0.0677-9e-3 -0.12942-0.01-0.19922-0.0265-1.7047 0.36559-2.8747 1.9629-2.9023zm32.982 0.0371c1.4862-0.0257 1.9101 1.0631 1.9648 2.9004 0.0521 1.754-0.41838 2.8849-1.9648 2.9023-1.5384 0.0174-1.9336-1.0901-1.9629-2.9023-0.0264-1.7047 0.36559-2.8728 1.9629-2.9004zm-384.11 0.0293c1.4862-0.0257 1.9081 1.0631 1.9629 2.9004 0.0523 1.754-0.41642 2.8849-1.9629 2.9024-1.5384 0.0174-1.9356-1.0901-1.9648-2.9024-0.0276-1.7047 0.36766-2.8728 1.9648-2.9004zm160.54 0c1.4862-0.0257 1.91 1.0631 1.9648 2.9004 0.0522 1.754-0.41837 2.885-1.9648 2.9024-1.5384 0.0174-1.9357-1.0901-1.9648-2.9024-0.0265-1.7047 0.36757-2.8728 1.9648-2.9004zm-167.03 4e-3c1.4862-0.0257 1.9081 1.0631 1.9629 2.9004 0.0523 1.754-0.41643 2.8849-1.9629 2.9023-1.5384 0.0174-1.9356-1.09-1.9648-2.9023-0.0276-1.7047 0.36767-2.8728 1.9648-2.9004zm160.54 0c1.4862-0.0257 1.9102 1.0631 1.9648 2.9004 0.0522 1.754-0.41838 2.8849-1.9648 2.9023-1.5384 0.0174-1.9356-1.09-1.9648-2.9023-0.0265-1.7047 0.36761-2.8728 1.9648-2.9004zm-402.89 0.0176c1.4862-0.0257 1.9081 1.0651 1.9629 2.9023 0.05227 1.754-0.41643 2.8849-1.9629 2.9023-1.5384 0.0174-1.9356-1.09-1.9648-2.9023-0.02752-1.7047 0.36768-2.8748 1.9648-2.9023zm646.23 0.0156c1.4862-0.0257 1.9101 1.0651 1.9648 2.9024 0.0522 1.754-0.41837 2.883-1.9648 2.9004-1.5384 0.0174-1.9356-1.0881-1.9648-2.9004-0.0264-1.7047 0.36754-2.8748 1.9648-2.9024zm-6.4961 4e-3c1.4862-0.0257 1.9101 1.0631 1.9648 2.9004 0.0522 1.754-0.41839 2.8849-1.9648 2.9023-1.5384 0.0174-1.9337-1.09-1.9629-2.9023-0.0264-1.7047 0.36563-2.8728 1.9629-2.9004zm-521.86 4e-3c1.4862-0.0257 1.9101 1.0651 1.9648 2.9023 0.0523 1.754-0.41837 2.8849-1.9648 2.9023-1.5384 0.0174-1.9356-1.09-1.9648-2.9023-0.0276-1.7047 0.36771-2.8748 1.9648-2.9023zm137.74 0.0254c1.4862-0.0257 1.9101 1.0651 1.9648 2.9023 0.0523 1.754-0.41837 2.883-1.9648 2.9004-1.5384 0.0174-1.9337-1.0881-1.9629-2.9004-0.0276-1.7047 0.36572-2.8748 1.9629-2.9023zm160.54 0c1.4862-0.0257 1.9082 1.0651 1.9629 2.9023 0.0522 1.754-0.41646 2.883-1.9629 2.9004-1.5385 0.0174-1.9356-1.0881-1.9648-2.9004-0.0265-1.7047 0.36754-2.8747 1.9648-2.9023zm242.87 0.0117c1.4862-0.0257 1.9101 1.0651 1.9648 2.9024 0.0522 1.754-0.41841 2.8849-1.9648 2.9023-1.5385 0.0174-1.9337-1.09-1.9629-2.9023-0.0265-1.7047 0.36558-2.8748 1.9629-2.9024zm-645.76 8e-3c1.4862-0.0257 1.9101 1.0631 1.9648 2.9004 0.05227 1.754-0.41838 2.8849-1.9648 2.9023-1.5384 0.0174-1.9337-1.0901-1.9629-2.9023-0.02759-1.7047 0.36571-2.8728 1.9629-2.9004zm-6.4941 4e-3c1.4862-0.0257 1.9081 1.0631 1.9629 2.9004 0.05227 1.754-0.41642 2.8849-1.9629 2.9024-1.5384 0.0174-1.9356-1.0901-1.9648-2.9024-0.02759-1.7047 0.36766-2.8728 1.9648-2.9004zm646.23 0.01253c1.4862-0.0257 1.9101 1.0651 1.9648 2.9023 0.0522 1.754-0.41837 2.883-1.9648 2.9004-1.5384 0.0174-1.9356-1.0881-1.9648-2.9004-0.0265-1.7047 0.36757-2.8748 1.9648-2.9023zm-390.74 2e-3c1.4862-0.0257 1.9101 1.0651 1.9648 2.9023 0.0523 1.754-0.41838 2.883-1.9648 2.9004-1.5384 0.0174-1.9356-1.0881-1.9648-2.9004-0.0276-1.7047 0.36767-2.8748 1.9648-2.9023zm160.54 0c1.4862-0.0257 1.91 1.0651 1.9648 2.9023 0.0522 1.754-0.41837 2.883-1.9648 2.9004-1.5384 0.0174-1.9356-1.0881-1.9648-2.9004-0.0265-1.7047 0.36754-2.8747 1.9648-2.9023zm-291.65 4e-3c1.4862-0.0257 1.9101 1.0631 1.9648 2.9004 0.0523 1.754-0.41838 2.8849-1.9648 2.9024-1.5384 0.0174-1.9356-1.0901-1.9648-2.9024-0.0276-1.7047 0.36765-2.8728 1.9648-2.9004zm-6.4961 4e-3c1.4862-0.0257 1.9101 1.0631 1.9648 2.9004 0.0523 1.754-0.41837 2.8849-1.9648 2.9024-1.5384 0.0174-1.9356-1.0901-1.9648-2.9024-0.0276-1.7047 0.36767-2.8728 1.9648-2.9004zm547.64 0.0312c1.4862-0.0257 1.9101 1.0651 1.9648 2.9023 0.0521 1.754-0.41838 2.8849-1.9648 2.9024-1.5384 0.0174-1.9356-1.0901-1.9648-2.9024-0.0265-1.7047 0.36754-2.8748 1.9648-2.9023zm-6.4961 4e-3c1.4862-0.0257 1.9101 1.0651 1.9648 2.9023 0.0522 1.754-0.41837 2.8849-1.9648 2.9023-1.5385 0.0174-1.9356-1.09-1.9648-2.9023-0.0264-1.7047 0.36754-2.8748 1.9648-2.9023zm-645.76 8e-3c1.4862-0.0257 1.9101 1.0651 1.9648 2.9023 0.05227 1.754-0.41838 2.883-1.9648 2.9004-1.5384 0.0174-1.9337-1.0881-1.9629-2.9004-0.02759-1.7047 0.36571-2.8748 1.9629-2.9023zm255.5 0.0156c1.4862-0.0257 1.9081 1.0651 1.9629 2.9024 0.0523 1.754-0.41643 2.8849-1.9629 2.9023-1.5384 0.0174-1.9356-1.09-1.9648-2.9023-0.0276-1.7047 0.36766-2.8748 1.9648-2.9024zm160.54 0c1.4862-0.0257 1.91 1.0651 1.9648 2.9024 0.0522 1.754-0.41838 2.8849-1.9648 2.9023-1.5384 0.0174-1.9356-1.09-1.9648-2.9023-0.0265-1.7047 0.36754-2.8748 1.9648-2.9024zm-167.03 4e-3c1.4862-0.0257 1.9081 1.0651 1.9629 2.9023 0.0523 1.754-0.41643 2.8849-1.9629 2.9024-1.5384 0.0174-1.9356-1.0901-1.9648-2.9024-0.0276-1.7047 0.36766-2.8748 1.9648-2.9023zm160.54 0c1.4862-0.0257 1.91 1.0651 1.9648 2.9023 0.0522 1.754-0.41837 2.885-1.9648 2.9024-1.5384 0.0174-1.9356-1.0901-1.9648-2.9024-0.0265-1.7047 0.36757-2.8747 1.9648-2.9023zm-291.65 4e-3c1.4862-0.0257 1.9081 1.0651 1.9629 2.9023 0.0523 1.754-0.41643 2.883-1.9629 2.9004-1.5384 0.0174-1.9356-1.0881-1.9648-2.9004-0.0276-1.7047 0.36767-2.8748 1.9648-2.9023zm-111.24 0.0156c1.4862-0.0257 1.9101 1.0651 1.9648 2.9024 0.05227 1.754-0.41838 2.883-1.9648 2.9004-1.5384 0.0174-1.9356-1.0881-1.9648-2.9004-0.02759-1.7047 0.36766-2.8748 1.9648-2.9024zm117.88 0.0234c1.4862-0.0257 1.9101 1.0651 1.9648 2.9023 0.0523 1.754-0.41837 2.883-1.9648 2.9004-1.5384 0.0174-1.9356-1.0881-1.9648-2.9004-0.0276-1.7047 0.36767-2.8748 1.9648-2.9023zm143.77 0c1.4862-0.0257 1.9081 1.0631 1.9629 2.9004 0.0523 1.754-0.41644 2.8849-1.9629 2.9023-1.5384 0.0174-1.9356-1.09-1.9648-2.9023-0.0276-1.7047 0.3677-2.8728 1.9648-2.9004zm160.54 0c1.4862-0.0257 1.9102 1.0631 1.9648 2.9004 0.0332 1.1171-0.14984 1.978-0.6836 2.4629-0.7663 0.0654-1.5296 0.13603-2.2949 0.20313-0.70721-0.41115-0.92997-1.3486-0.95117-2.666-0.0265-1.7047 0.36754-2.8728 1.9648-2.9004zm-166.56 0.0234c1.4862-0.0257 1.9101 1.0651 1.9648 2.9023 0.0523 1.754-0.41839 2.8849-1.9648 2.9023-1.5384 0.0174-1.9337-1.09-1.9629-2.9023-0.0276-1.7047 0.36572-2.8748 1.9629-2.9023zm160.54 0c1.4862-0.0257 1.9081 1.0651 1.9629 2.9023 0.0521 1.754-0.41643 2.8849-1.9629 2.9023-1.5384 0.0174-1.9356-1.09-1.9648-2.9023-0.0265-1.7047 0.36758-2.8747 1.9648-2.9023zm-402.89 0.0195c1.4862-0.0257 1.9081 1.0651 1.9629 2.9023 0.05227 1.754-0.41642 2.8849-1.9629 2.9024-1.5384 0.0174-1.9356-1.0901-1.9648-2.9024-0.02759-1.7047 0.36766-2.8748 1.9648-2.9023zm-6.4961 4e-3c1.4862-0.0257 1.9081 1.0651 1.9629 2.9024 0.05227 1.754-0.41642 2.8849-1.9629 2.9023-1.5384 0.0174-1.9356-1.09-1.9648-2.9023-0.02759-1.7047 0.36766-2.8748 1.9648-2.9024zm124.38 0.0195c1.4862-0.0257 1.9101 1.0651 1.9648 2.9023 0.0523 1.754-0.41838 2.8849-1.9648 2.9023-1.5384 0.0174-1.9356-1.09-1.9648-2.9023-0.0276-1.7047 0.36767-2.8748 1.9648-2.9023zm143.77 0c1.4862-0.0257 1.9081 1.0651 1.9629 2.9023 0.0523 1.754-0.41643 2.883-1.9629 2.9004-1.5384 0.0174-1.9356-1.0881-1.9648-2.9004-0.0276-1.7047 0.36767-2.8748 1.9648-2.9023zm160.54 0c1.4862-0.0257 1.9101 1.0651 1.9648 2.9023 0.0147 0.49419-0.0189 0.93233-0.0996 1.3164-1.2119 0.0869-2.4292 0.16487-3.6387 0.25585-0.12401-0.43512-0.18141-0.95932-0.19141-1.5723-0.0265-1.7047 0.36754-2.8747 1.9648-2.9023zm-310.8 4e-3c1.4862-0.0257 1.9101 1.0651 1.9648 2.9024 0.0523 1.754-0.41839 2.8849-1.9648 2.9023-1.5384 0.0174-1.9356-1.0901-1.9648-2.9023-0.0276-1.7047 0.36766-2.8748 1.9648-2.9024zm143.77 0c1.4862-0.0257 1.9081 1.0651 1.9629 2.9024 0.0523 1.754-0.41643 2.883-1.9629 2.9004-1.5384 0.0174-1.9356-1.0881-1.9648-2.9004-0.0276-1.7047 0.36766-2.8748 1.9648-2.9024zm160.54 0c1.4862-0.0257 1.91 1.0631 1.9648 2.9004 0.0216 0.72531-0.0537 1.335-0.25 1.8125-1.0977 0.0859-2.1934 0.17633-3.2891 0.26563-0.27238-0.49908-0.37652-1.2036-0.39062-2.0781-0.0265-1.7047 0.36754-2.8728 1.9648-2.9004zm-402.89 0.01692c1.4862-0.0257 1.9081 1.0651 1.9629 2.9023 0.05227 1.754-0.41643 2.8849-1.9629 2.9024-1.5384 0.0174-1.9356-1.0901-1.9648-2.9024-0.02759-1.7047 0.3677-2.8748 1.9648-2.9023zm117.88 0.0234c1.4862-0.0257 1.9101 1.0651 1.9648 2.9023 0.0523 1.754-0.41839 2.8849-1.9648 2.9023-1.5384 0.0174-1.9356-1.09-1.9648-2.9023-0.0276-1.7047 0.3677-2.8748 1.9648-2.9023zm-123.91 2e-3c1.4862-0.0257 1.9101 1.0651 1.9648 2.9023 0.05227 1.754-0.41838 2.8849-1.9648 2.9024-1.5384 0.0174-1.9337-1.0901-1.9629-2.9024-0.02759-1.7047 0.36571-2.8748 1.9629-2.9023zm117.88 0.0234c1.4862-0.0257 1.9081 1.0651 1.9629 2.9023 0.0523 1.754-0.41644 2.8849-1.9629 2.9024-1.5384 0.0174-1.9356-1.0901-1.9648-2.9024-0.0276-1.7047 0.36767-2.8748 1.9648-2.9023zm143.76 0c1.4862-0.0257 1.9101 1.0651 1.9648 2.9023 0.0523 1.754-0.41837 2.8849-1.9648 2.9024-1.5384 0.0174-1.9337-1.0901-1.9629-2.9024-0.0276-1.7047 0.36571-2.8748 1.9629-2.9023zm160.54 0c1.4862-0.0257 1.9081 1.0651 1.9629 2.9023 8e-3 0.27465-2e-3 0.5274-0.0215 0.76953-1.2788 0.0832-2.5501 0.17978-3.8262 0.26758-0.0458-0.31444-0.0741-0.65645-0.0801-1.0371-0.0265-1.7047 0.36754-2.8747 1.9648-2.9023zm-402.9 0.0195c1.4862-0.0257 1.9101 1.0631 1.9648 2.9004 0.0523 1.754-0.41838 2.8849-1.9648 2.9023-1.5384 0.0174-1.9337-1.09-1.9629-2.9023-0.02759-1.7047 0.36572-2.8728 1.9629-2.9004zm-6.4961 4e-3c1.4862-0.0257 1.9101 1.0631 1.9648 2.9004 0.05227 1.754-0.41838 2.8849-1.9648 2.9023-1.5384 0.0174-1.9337-1.0901-1.9629-2.9023-0.02759-1.7047 0.36571-2.8728 1.9629-2.9004zm255.5 0.0156c1.4862-0.0257 1.9101 1.0651 1.9648 2.9023 0.0523 1.754-0.41838 2.883-1.9648 2.9004-1.5384 0.0174-1.9356-1.0881-1.9648-2.9004-0.0276-1.7047 0.36766-2.8748 1.9648-2.9023zm160.54 0c1.4862-0.0257 1.9101 1.0651 1.9648 2.9023 3e-3 0.11476-3e-3 0.21886-4e-3 0.32813-1.3003 0.0763-2.6029 0.14947-3.9004 0.23047-0.0127-0.17873-0.0224-0.36286-0.0254-0.5586-0.0265-1.7047 0.36758-2.8747 1.9648-2.9023zm-291.65 4e-3c1.4862-0.0257 1.9101 1.0631 1.9648 2.9004 0.0523 1.754-0.41838 2.8849-1.9648 2.9023-1.5384 0.0174-1.9356-1.0901-1.9648-2.9023-0.0276-1.7047 0.36767-2.8728 1.9648-2.9004zm-6.4961 4e-3c1.4862-0.0257 1.9101 1.0631 1.9648 2.9004 0.0523 1.754-0.41838 2.8849-1.9648 2.9024-1.5384 0.0174-1.9356-1.0901-1.9648-2.9024-0.0276-1.7047 0.36766-2.8728 1.9648-2.9004zm-104.62 0.043c1.4862-0.0257 1.9101 1.0651 1.9648 2.9024 0.0523 1.754-0.41838 2.883-1.9648 2.9004-1.5384 0.0174-1.9336-1.0881-1.9629-2.9004-0.0276-1.7047 0.36573-2.8748 1.9629-2.9024zm249 0.0195c1.4862-0.0257 1.9081 1.0651 1.9629 2.9024 0.0523 1.754-0.41643 2.8849-1.9629 2.9023-1.5384 0.0174-1.9356-1.0901-1.9648-2.9023-0.0276-1.7047 0.36765-2.8748 1.9648-2.9024zm160.54 0c1.45-0.0251 1.8857 1.0185 1.957 2.7754-1.3083 0.0684-2.6124 0.1437-3.918 0.2168-1e-3 -0.031-3e-3 -0.0583-4e-3 -0.0898-0.0264-1.7047 0.36754-2.8748 1.9648-2.9024zm-291.65 4e-3c1.4862-0.0257 1.9081 1.0651 1.9629 2.9023 0.0523 1.754-0.41642 2.883-1.9629 2.9004-1.5384 0.0174-1.9356-1.0881-1.9648-2.9004-0.0276-1.7047 0.36767-2.8748 1.9648-2.9023zm-111.24 0.0156c1.4862-0.0257 1.9101 1.0651 1.9648 2.9024 0.0523 1.754-0.41838 2.883-1.9648 2.9004-1.5384 0.0174-1.9356-1.0881-1.9648-2.9004-0.0276-1.7047 0.36767-2.8748 1.9648-2.9024zm248.57 0.0156c1.4862-0.0257 1.9101 1.0651 1.9648 2.9023 0.0523 1.754-0.41838 2.8849-1.9648 2.9024-1.5384 0.0174-1.9356-1.0901-1.9648-2.9024-0.0276-1.7047 0.3677-2.8748 1.9648-2.9023zm-130.69 8e-3c1.4862-0.0257 1.9101 1.0651 1.9648 2.9024 0.0523 1.754-0.41838 2.883-1.9648 2.9004-1.5384 0.0174-1.9356-1.0881-1.9648-2.9004-0.0276-1.7047 0.36766-2.8748 1.9648-2.9024zm-111.11 0.0469c1.4862-0.0257 1.9081 1.0651 1.9629 2.9023 0.0523 1.754-0.41643 2.8849-1.9629 2.9023-1.5384 0.0174-1.9356-1.09-1.9648-2.9023-0.0276-1.7047 0.36767-2.8748 1.9648-2.9023zm255.07 0.0137c1.4862-0.0257 1.9082 1.0631 1.9629 2.9004 0.0522 1.754-0.41643 2.8849-1.9629 2.9023-1.5384 0.0174-1.9356-1.09-1.9648-2.9023-0.0265-1.7047 0.36757-2.8728 1.9648-2.9004zm-6.4961 0.00342c1.4862-0.0257 1.9082 1.0631 1.9629 2.9004 0.0521 1.754-0.41642 2.8849-1.9629 2.9023-1.5384 0.0174-1.9356-1.0901-1.9648-2.9023-0.0276-1.7047 0.36767-2.8728 1.9648-2.9004zm-130.69 6e-3c1.4862-0.0257 1.9101 1.0651 1.9648 2.9024 0.0523 1.754-0.41838 2.8849-1.9648 2.9023-1.5384 0.0174-1.9356-1.09-1.9648-2.9023-0.0276-1.7047 0.36765-2.8748 1.9648-2.9024zm143.95 0.0605c1.4862-0.0257 1.9101 1.0651 1.9648 2.9024 0.0521 1.754-0.41842 2.883-1.9648 2.9004-1.5384 0.0174-1.9337-1.0881-1.9629-2.9004-0.0265-1.7047 0.36559-2.8748 1.9629-2.9024zm6.6445 0.0391c1.4862-0.0257 1.9101 1.0651 1.9648 2.9024 0.0522 1.754-0.41838 2.883-1.9648 2.9004-1.5384 0.0174-1.9356-1.0881-1.9648-2.9004-0.0265-1.7047 0.36754-2.8748 1.9648-2.9024zm240.49 2.9375c-0.12195 1.2531-0.65677 2.0325-1.9316 2.0469-1.1102 0.0125-1.6218-0.56721-1.834-1.5684 1.2565-0.15926 2.5099-0.31921 3.7656-0.47852zm-6.8379 0.86719c-0.27174 0.71041-0.80701 1.1301-1.7383 1.1406-0.74759 8e-3 -1.2222-0.25245-1.5195-0.72657 1.0862-0.13783 2.1708-0.27627 3.2578-0.41406zm-505.04 55.852-0.0937 5.6562c-1.7392 0.43613-3.2904 1.4235-4.4219 2.8145l-2.043-1.9121zm355.71 1.377 8.5605 1.3516-1.4766 2.7012c-2.895 0.16832-5.4843 1.8576-6.8047 4.4394l-0.30469-0.95312zm-36.328 0.0898 3.2832 0.82031-0.74609 3.1973c-0.33865-0.0454-0.67981-0.0696-1.0215-0.0723-3.5286 3e-3 -6.6572 2.2692-7.7598 5.6211l-0.38477-1.1074 0.47071-5.6465z" stroke="#000" stroke-width="1.0016"/>
</svg>
