<?xml version="1.0" encoding="UTF-8"?>
<svg width="250mm" height="100mm" version="1.1" viewBox="0 0 250 100" xmlns="http://www.w3.org/2000/svg">
<path transform="scale(.26458)" d="m879.29 94.203c-8.7653 0.19188-13.305 5.2942-18.57 9.6426l-125.83 111.72c-7.5248 5.4807-12.884 8.0319-23.992 8.334l-171.47-0.13282c-5.001-2.1912-21.991-2.2351-27.652-0.02148l-86.023-0.06641 2.6856-4.5137 0.37891-1.7051-2.5898 0.18946-5.7344 6.0254-14.771-0.01172c-33.636-4.4364-90.376-12.608-141.34-14.342-7.967-0.27097-22.569-0.47472-38.844-0.59375l2.5039-4.1719v-2.1426l-1.5176 0.17773-5.9082 6.0996c-14.416-0.08615-29.68-0.09877-43.281-0.01172-0.19639-0.709-0.56723-1.2422-1.5625-1.1523-1.0244 0.01545-1.3711 0.55421-1.6035 1.1816-16.012 0.12494-29.203 0.38548-33.805 0.84766-30.458 0.06401-48.245-1.154-68.572 19.463-22.63 10.779-53.396 24.966-53.393 35.715 0.26021 16.751 39.456 28.872 92.354 36.379l0.05664 7.5508 2.5 1.25 5.3574 0.35547-0.06446 3.8262-1.2598-0.13477-0.59961-1.168-1.9258 0.0332 0.53711 4.5449 2.3574 0.63477-7.1465 6.9512 2.873 2.7188a8.3036 8.3036 0 0 0-1.2891 4.4258 8.3036 8.3036 0 0 0 8.3047 8.3027 8.3036 8.3036 0 0 0 8.3027-8.3027 8.3036 8.3036 0 0 0-6.4629-8.0898l-0.05469-3.0098 2.7422-1.1055 0.31641-1.5469 2.082-1.5469-0.56641-1.2305-4.6758-0.23047-0.07813-4.3574 1.875 0.17969 0.51172-8.252c22.495 2.7497 46.905 4.7281 71.551 5.9355l7.3867 7.291 1.4512-0.06446-4.4726-7.0156c16.549 0.74901 33.148 1.1558 49.279 1.2109 6.3362 1.1437 13.096 2.1268 22.096 2.2715l38.18 0.13477c-0.05696 3.9294-0.29671 8.2026 0.65039 10.338 4.2412 7.2788 50.389 4.3963 58.594 0.53515l-2.0566-1.9219 45.066-6.9824-0.90625 3.7051-2.082 1.3262 1.3242 1.5156 11.934-2.6523 4.4824 4.1035v3.2207l-1.6836 1.4355a8.1759 8.1759 0 0 0-6.6191-3.3926 8.1759 8.1759 0 0 0-8.1758 8.1758 8.1759 8.1759 0 0 0 8.1758 8.1758 8.1759 8.1759 0 0 0 7.3086-4.5293l5.7715-1.0918a8.1759 8.1759 0 0 0 7.7227 5.5254 8.1759 8.1759 0 0 0 8.1758-8.1758 8.1759 8.1759 0 0 0-2.7461-6.1016l2.9043-2.5469c-4.531-4.2065-9.922-5.831-15.484-6.9434l0.30469-3.6484 1.9473-0.0332 0.98437 1.3438 13.258-0.12696-0.25196 6.6934 7.6387 4.9102a8.1759 8.1759 0 0 0-3.25 6.5176 8.1759 8.1759 0 0 0 8.1758 8.1758 8.1759 8.1759 0 0 0 7.582-5.1348l5.6055 0.08008a8.1759 8.1759 0 0 0 7.5195 4.9902 8.1759 8.1759 0 0 0 8.1758-8.1758 8.1759 8.1759 0 0 0-3.7051-6.8379l1.6543-2.7578-0.56836-3.7891-13.094-2.7461 0.0039-1.3965 4.7559-0.33984 0.82032-1.0098 8.082 0.0625 0.05078-1.1094c10.753-0.06556 21.727-0.43251 31.768-1.793l3.1426 0.00195 8.6524 8.3926 2.5449-1.0723-4.6523-7.3144 29.541 0.02344c5.3644-3.1e-4 14.28-0.3631 25.037-1.1406l3.502 3.9395 1.9648-0.13477 0.04297-1.3828-2.0684-2.6738c20.326-1.585 46.359-4.6118 68.285-9.5312l78.875-16.846 4.8301 3.9004 1.4277-0.08985v-1.4277l-2.2207-3.2461 151.2-32.291c6.2759-1.6724 11.648-4.274 10.178-13.928l19.285-8.2148c3.9528-1.8796 5.8741-3.361-0.71289-3.5703l-23.75-0.71485c-2.2673-0.80987-3.7766-1.5683-8.0371-1.6074h-11.07l48.928-124.11c1.1025-2.5949 0.1306-3.0726-1.4277-3.0352h-43.93zm-786.61 127.5-0.75781 7.2324c-2.0592-0.49012-4.2655-0.75914-6.5625-0.89258 1.8727-1.8564 3.5708-4.3516 5.3574-6.2949l1.9629-0.04493zm-4.0625 0.08985-5.8477 6.1602-7.8574 0.13282 0.22461-0.22266 6.875-5.9824 6.6055-0.08789zm5.9824 0.04297 5.5371 0.04492 0.04296 8.3496-5.7578-0.9375 0.17773-7.0547v-0.40234zm130.95 3.2539c1.4862-0.0257 1.9081 1.0651 1.9629 2.9024 0.05227 1.754-0.41642 2.8849-1.9629 2.9023-1.5384 0.01739-1.9356-1.0901-1.9648-2.9023-0.02759-1.7047 0.36766-2.8748 1.9648-2.9024zm13.264 0.06836c1.4862-0.0257 1.9101 1.0631 1.9648 2.9004 0.05227 1.754-0.41838 2.8849-1.9648 2.9024-1.5384 0.01738-1.9336-1.0901-1.9629-2.9024-0.02759-1.7047 0.36571-2.8728 1.9629-2.9004zm-6.4941 0.00391c1.4862-0.0257 1.9081 1.0631 1.9629 2.9004 0.05227 1.754-0.41642 2.8849-1.9629 2.9023-1.5384 0.01739-1.9356-1.09-1.9648-2.9023-0.02759-1.7047 0.36766-2.8728 1.9648-2.9004zm-92.914 0.04297c1.4862-0.0257 1.9101 1.0631 1.9648 2.9004 0.05228 1.754-0.41837 2.8849-1.9648 2.9023-1.5384 0.01739-1.9337-1.09-1.9629-2.9023-0.02759-1.7047 0.36571-2.8728 1.9629-2.9004zm106.18 0.02344c1.4862-0.02571 1.9101 1.0651 1.9648 2.9023 0.05227 1.754-0.41838 2.883-1.9648 2.9004-1.5384 0.01739-1.9336-1.0881-1.9629-2.9004-0.02759-1.7047 0.36573-2.8748 1.9629-2.9023zm6.6445 0.03906c1.4862-0.0257 1.9101 1.0651 1.9648 2.9023 0.05227 1.754-0.41838 2.883-1.9648 2.9004-1.5384 0.01739-1.9356-1.0881-1.9648-2.9004-0.02759-1.7047 0.36767-2.8748 1.9648-2.9023zm-99.557 0.0039c1.4862-0.0257 1.9101 1.0651 1.9648 2.9024 0.05227 1.754-0.41838 2.883-1.9648 2.9004-1.5384 0.01738-1.9356-1.0881-1.9648-2.9004-0.02759-1.7047 0.36767-2.8748 1.9648-2.9024zm-6.4961 0.00391c1.4862-0.0257 1.9101 1.0651 1.9648 2.9023 0.05227 1.754-0.41838 2.883-1.9648 2.9004-1.5384 0.01739-1.9356-1.0881-1.9648-2.9004-0.02759-1.7047 0.36766-2.8748 1.9648-2.9023zm19.289 0.04102c1.4862-0.0257 1.9101 1.0651 1.9648 2.9023 0.05227 1.754-0.41838 2.8849-1.9648 2.9023-1.5384 0.01739-1.9356-1.09-1.9648-2.9023-0.02759-1.7047 0.3677-2.8748 1.9648-2.9023zm100.03 0.01757c1.4862-0.0257 1.9081 1.0651 1.9629 2.9024 0.05227 1.754-0.41642 2.8849-1.9629 2.9023-1.5384 0.01739-1.9356-1.09-1.9648-2.9023-0.02759-1.7047 0.36766-2.8748 1.9648-2.9024zm-6.4961 0.00391c1.4862-0.0257 1.9081 1.0651 1.9629 2.9023 0.05227 1.754-0.41643 2.8849-1.9629 2.9024-1.5384 0.01738-1.9356-1.0901-1.9648-2.9024-0.02759-1.7047 0.36767-2.8748 1.9648-2.9023zm-99.557 0.00391c1.4862-0.0257 1.9101 1.0651 1.9648 2.9023 0.05227 1.754-0.41838 2.8849-1.9648 2.9023-1.5384 0.01739-1.9356-1.09-1.9648-2.9023-0.02759-1.7047 0.36767-2.8748 1.9648-2.9023zm118.85 0.03906c1.4862-0.0257 1.9081 1.0631 1.9629 2.9004 0.05227 1.754-0.41643 2.8849-1.9629 2.9023-1.5384 0.01739-1.9356-1.09-1.9648-2.9023-0.02759-1.7047 0.3677-2.8728 1.9648-2.9004zm-99.557 0.00195c1.4862-0.0257 1.9101 1.0651 1.9648 2.9024 0.05227 1.754-0.41838 2.8849-1.9648 2.9023-1.5384 0.01739-1.9356-1.0901-1.9648-2.9023-0.02759-1.7047 0.36766-2.8748 1.9648-2.9024zm-6.4961 0.00391c1.4862-0.0257 1.9101 1.0651 1.9648 2.9023 0.05227 1.754-0.41838 2.8849-1.9648 2.9024-1.5384 0.01738-1.9356-1.0901-1.9648-2.9024-0.02759-1.7047 0.36766-2.8748 1.9648-2.9023zm100.03 0.01758c1.4862-0.0257 1.9101 1.0651 1.9648 2.9023 0.05227 1.754-0.41838 2.8849-1.9648 2.9023-1.5384 0.01739-1.9337-1.09-1.9629-2.9023-0.02759-1.7047 0.36571-2.8748 1.9629-2.9023zm19.016 0.02539c1.4862-0.0257 1.9101 1.0651 1.9648 2.9023 0.05227 1.754-0.41838 2.8849-1.9648 2.9024-1.5384 0.01737-1.9336-1.0901-1.9629-2.9024-0.02759-1.7047 0.36571-2.8748 1.9629-2.9023zm-6.2207 0.02148c1.4862-0.0257 1.9081 1.0631 1.9629 2.9004 0.05227 1.754-0.41643 2.8849-1.9629 2.9024-1.5384 0.01738-1.9356-1.0901-1.9648-2.9024-0.02759-1.7047 0.36765-2.8728 1.9648-2.9004zm-99.557 0.00391c1.4862-0.0257 1.9081 1.0631 1.9629 2.9004 0.05227 1.754-0.41642 2.8849-1.9629 2.9023-1.5384 0.01739-1.9356-1.09-1.9648-2.9023-0.02759-1.7047 0.36767-2.8728 1.9648-2.9004zm6.6426 0.03906c1.4862-0.0257 1.9101 1.0631 1.9648 2.9004 0.05227 1.754-0.41837 2.8849-1.9648 2.9024-1.5384 0.01737-1.9337-1.0901-1.9629-2.9024-0.02759-1.7047 0.36571-2.8728 1.9629-2.9004zm6.7695 0.07031c1.4862-0.0257 1.9101 1.0651 1.9648 2.9024 0.05227 1.754-0.41838 2.883-1.9648 2.9004-1.5384 0.01738-1.9356-1.0881-1.9648-2.9004-0.02759-1.7047 0.36766-2.8748 1.9648-2.9024zm-55.719 31.426c1.4862-0.0257 1.9101 1.0631 1.9648 2.9004 0.05216 1.754-0.41837 2.8849-1.9648 2.9024-1.5384 0.01738-1.9356-1.0901-1.9648-2.9024-0.02646-1.7047 0.36757-2.8728 1.9648-2.9004zm117.53 0.02539c1.4862-0.02569 1.9101 1.0651 1.9648 2.9024 0.05216 1.754-0.41837 2.883-1.9648 2.9004-1.5384 0.01739-1.9356-1.0881-1.9648-2.9004-0.02646-1.7047 0.36757-2.8748 1.9648-2.9024zm468.93 0.08985c1.4862-0.0257 1.9101 1.0631 1.9648 2.9004 0.05216 1.754-0.41838 2.8849-1.9648 2.9023-1.5384 0.01739-1.9337-1.09-1.9629-2.9023-0.02645-1.7047 0.36564-2.8728 1.9629-2.9004zm-315.89 0.08789c1.4862-0.0257 1.9101 1.0651 1.9648 2.9023 0.05216 1.754-0.41837 2.8849-1.9648 2.9024-1.5384 0.01738-1.9337-1.0901-1.9629-2.9024-0.02646-1.7047 0.36562-2.8748 1.9629-2.9023zm135.3 0.26758c1.4178-0.02452 1.8651 0.9757 1.9512 2.6621-1.307 0.03057-2.6079 0.07037-3.9121 0.10547-0.0028-1.6289 0.40754-2.7408 1.9609-2.7676zm-10.07 0.0332c1.4862-0.0257 1.91 1.0651 1.9648 2.9023-1.3119 0.04261-2.6147 0.10124-3.9238 0.14844-2e-3 -0.05084-0.00502-0.09644-0.00586-0.14844-0.02645-1.7047 0.36758-2.8747 1.9648-2.9023zm23.336 0.0332c1.331-0.02301 1.8068 0.85524 1.9316 2.3574-1.2985 0.0152-2.5889 0.0429-3.8848 0.0625 0.05722-1.437 0.51292-2.395 1.9531-2.4199zm-6.4961 0.00391c1.3605-0.02353 1.8257 0.89712 1.9375 2.4609-1.2974 0.0226-2.5979 0.0394-3.8926 0.0664 0.0389-1.4956 0.4799-2.5018 1.9551-2.5273zm13.266 0.06836c1.2973-0.02243 1.7844 0.80583 1.9238 2.2383-1.2924 0.0074-2.5852 0.01554-3.875 0.02734 0.08347-1.3533 0.56126-2.2416 1.9512-2.2656zm6.6445 0.03906c1.2767-0.02208 1.7662 0.78308 1.9141 2.1738-1.2862 0-2.5719 0.00186-3.8555 0.00586 0.09908-1.3027 0.58244-2.1562 1.9414-2.1797zm13.264 0.06641c1.2804-0.02214 1.7693 0.78893 1.916 2.1875-1.2827-0.0144-2.5713-0.03863-3.8516-0.04883 0.10631-1.278 0.59203-2.1155 1.9356-2.1387zm-6.4961 0.0039c1.2604-0.02179 1.7531 0.76649 1.9082 2.125-1.2827-0.0077-2.5617-0.00871-3.8418-0.01171 0.1108-1.2634 0.59923-2.0902 1.9336-2.1133zm59.041 0.14844c1.4862-0.0257 1.91 1.0651 1.9648 2.9024 0.05216 1.754-0.41837 2.883-1.9648 2.9004-1.5384 0.01738-1.9337-1.0881-1.9629-2.9004-0.02646-1.7047 0.36562-2.8748 1.9629-2.9024zm13.266 0.06641c1.4862-0.0257 1.9101 1.0651 1.9648 2.9023 0.05216 1.754-0.41838 2.8849-1.9648 2.9024-1.5384 0.01738-1.9356-1.0901-1.9648-2.9024-0.02646-1.7047 0.36758-2.8748 1.9648-2.9023zm-6.4961 0.0039c1.4862-0.0257 1.9101 1.0651 1.9648 2.9024 0.05216 1.754-0.41837 2.8849-1.9648 2.9023-1.5384 0.01739-1.9356-1.09-1.9648-2.9023-0.02646-1.7047 0.36757-2.8748 1.9648-2.9024zm-377.47 0.06836c1.4862-0.0257 1.9101 1.0651 1.9648 2.9024 0.05231 1.754-0.41837 2.8849-1.9648 2.9023-1.5384 0.01739-1.9356-1.0901-1.9648-2.9023-0.02759-1.7047 0.36767-2.8748 1.9648-2.9024zm160.54 0c1.4862-0.0257 1.91 1.0651 1.9648 2.9024 0.05215 1.754-0.41838 2.8849-1.9648 2.9023-1.5384 0.01739-1.9356-1.0901-1.9648-2.9023-0.02646-1.7047 0.36758-2.8748 1.9648-2.9024zm230.2 0c1.4862-0.0257 1.9101 1.0631 1.9648 2.9004 0.05216 1.754-0.41841 2.8849-1.9648 2.9024-1.5385 0.01738-1.9356-1.0901-1.9648-2.9024-0.02645-1.7047 0.36754-2.8728 1.9648-2.9004zm-26.34 0.00196c1.4862-0.0257 1.9102 1.0651 1.9648 2.9023 0.05215 1.754-0.41838 2.883-1.9648 2.9004-1.4147 0.01599-1.8577-0.92492-1.9434-2.4844 0.42482-0.05399 0.85086-0.10811 1.2754-0.16211-0.42969-0.0201-0.85573-0.03499-1.2852-0.05469-2e-3 -0.0677-0.00877-0.12942-0.00977-0.19922-0.02646-1.7047 0.36559-2.8747 1.9629-2.9023zm32.982 0.03711c1.4862-0.0257 1.9101 1.0631 1.9648 2.9004 0.05215 1.754-0.41838 2.8849-1.9648 2.9023-1.5384 0.01739-1.9336-1.0901-1.9629-2.9023-0.02645-1.7047 0.36559-2.8728 1.9629-2.9004zm-384.11 0.02929c1.4862-0.0257 1.9081 1.0631 1.9629 2.9004 0.05231 1.754-0.41642 2.8849-1.9629 2.9024-1.5384 0.01738-1.9356-1.0901-1.9648-2.9024-0.02759-1.7047 0.36766-2.8728 1.9648-2.9004zm160.54 0c1.4862-0.0257 1.91 1.0631 1.9648 2.9004 0.05216 1.754-0.41837 2.885-1.9648 2.9024-1.5384 0.01738-1.9357-1.0901-1.9648-2.9024-0.02646-1.7047 0.36757-2.8728 1.9648-2.9004zm-167.03 0.00391c1.4862-0.0257 1.9081 1.0631 1.9629 2.9004 0.05231 1.754-0.41643 2.8849-1.9629 2.9023-1.5384 0.01739-1.9356-1.09-1.9648-2.9023-0.02758-1.7047 0.36767-2.8728 1.9648-2.9004zm160.54 0c1.4862-0.0257 1.9102 1.0631 1.9648 2.9004 0.05216 1.754-0.41838 2.8849-1.9648 2.9023-1.5384 0.01739-1.9356-1.09-1.9648-2.9023-0.02646-1.7047 0.36761-2.8728 1.9648-2.9004zm-402.89 0.01758c1.4862-0.0257 1.9081 1.0651 1.9629 2.9023 0.052271 1.754-0.41643 2.8849-1.9629 2.9023-1.5384 0.01739-1.9356-1.09-1.9648-2.9023-0.027515-1.7047 0.36768-2.8748 1.9648-2.9023zm646.23 0.01562c1.4862-0.0257 1.9101 1.0651 1.9648 2.9024 0.05216 1.754-0.41837 2.883-1.9648 2.9004-1.5384 0.01738-1.9356-1.0881-1.9648-2.9004-0.02644-1.7047 0.36754-2.8748 1.9648-2.9024zm-6.4961 0.00391c1.4862-0.0257 1.9101 1.0631 1.9648 2.9004 0.05216 1.754-0.41839 2.8849-1.9648 2.9023-1.5384 0.01739-1.9337-1.09-1.9629-2.9023-0.02645-1.7047 0.36563-2.8728 1.9629-2.9004zm-521.86 0.00391c1.4862-0.02571 1.9101 1.0651 1.9648 2.9023 0.05231 1.754-0.41837 2.8849-1.9648 2.9023-1.5384 0.01739-1.9356-1.09-1.9648-2.9023-0.02759-1.7047 0.36771-2.8748 1.9648-2.9023zm137.74 0.02539c1.4862-0.02571 1.9101 1.0651 1.9648 2.9023 0.05231 1.754-0.41837 2.883-1.9648 2.9004-1.5384 0.01739-1.9337-1.0881-1.9629-2.9004-0.02759-1.7047 0.36572-2.8748 1.9629-2.9023zm160.54 0c1.4862-0.02571 1.9082 1.0651 1.9629 2.9023 0.05216 1.754-0.41646 2.883-1.9629 2.9004-1.5385 0.01739-1.9356-1.0881-1.9648-2.9004-0.02646-1.7047 0.36754-2.8747 1.9648-2.9023zm242.87 0.01171c1.4862-0.0257 1.9101 1.0651 1.9648 2.9024 0.05216 1.754-0.41841 2.8849-1.9648 2.9023-1.5385 0.01739-1.9337-1.09-1.9629-2.9023-0.02646-1.7047 0.36558-2.8748 1.9629-2.9024zm-645.76 0.00782c1.4862-0.0257 1.9101 1.0631 1.9648 2.9004 0.052271 1.754-0.41838 2.8849-1.9648 2.9023-1.5384 0.01739-1.9337-1.0901-1.9629-2.9023-0.027591-1.7047 0.36571-2.8728 1.9629-2.9004zm-6.4941 0.0039c1.4862-0.0257 1.9081 1.0631 1.9629 2.9004 0.05227 1.754-0.41642 2.8849-1.9629 2.9024-1.5384 0.01738-1.9356-1.0901-1.9648-2.9024-0.02759-1.7047 0.36766-2.8728 1.9648-2.9004zm646.23 0.01368c1.4862-0.02571 1.9101 1.0651 1.9648 2.9023 0.05216 1.754-0.41837 2.883-1.9648 2.9004-1.5384 0.01739-1.9356-1.0881-1.9648-2.9004-0.02646-1.7047 0.36757-2.8748 1.9648-2.9023zm-390.74 0.00195c1.4862-0.0257 1.9101 1.0651 1.9648 2.9023 0.0523 1.754-0.41838 2.883-1.9648 2.9004-1.5384 0.01739-1.9356-1.0881-1.9648-2.9004-0.02759-1.7047 0.36767-2.8748 1.9648-2.9023zm160.54 0c1.4862-0.0257 1.91 1.0651 1.9648 2.9023 0.05216 1.754-0.41837 2.883-1.9648 2.9004-1.5384 0.01739-1.9356-1.0881-1.9648-2.9004-0.02645-1.7047 0.36754-2.8747 1.9648-2.9023zm-291.65 0.0039c1.4862-0.0257 1.9101 1.0631 1.9648 2.9004 0.05229 1.754-0.41838 2.8849-1.9648 2.9024-1.5384 0.01738-1.9356-1.0901-1.9648-2.9024-0.02759-1.7047 0.36765-2.8728 1.9648-2.9004zm-6.4961 0.00391c1.4862-0.0257 1.9101 1.0631 1.9648 2.9004 0.05231 1.754-0.41837 2.8849-1.9648 2.9024-1.5384 0.01737-1.9356-1.0901-1.9648-2.9024-0.02759-1.7047 0.36767-2.8728 1.9648-2.9004zm547.64 0.03125c1.4862-0.0257 1.9101 1.0651 1.9648 2.9023 0.05215 1.754-0.41838 2.8849-1.9648 2.9024-1.5384 0.01738-1.9356-1.0901-1.9648-2.9024-0.02646-1.7047 0.36754-2.8748 1.9648-2.9023zm-6.4961 0.00391c1.4862-0.0257 1.9101 1.0651 1.9648 2.9023 0.05216 1.754-0.41837 2.8849-1.9648 2.9023-1.5385 0.01739-1.9356-1.09-1.9648-2.9023-0.02644-1.7047 0.36754-2.8748 1.9648-2.9023zm-645.76 0.00781c1.4862-0.0257 1.9101 1.0651 1.9648 2.9023 0.05227 1.754-0.41838 2.883-1.9648 2.9004-1.5384 0.01739-1.9337-1.0881-1.9629-2.9004-0.02759-1.7047 0.36571-2.8748 1.9629-2.9023zm255.5 0.01562c1.4862-0.0257 1.9081 1.0651 1.9629 2.9024 0.05231 1.754-0.41643 2.8849-1.9629 2.9023-1.5384 0.01739-1.9356-1.09-1.9648-2.9023-0.02759-1.7047 0.36766-2.8748 1.9648-2.9024zm160.54 0c1.4862-0.0257 1.91 1.0651 1.9648 2.9024 0.05215 1.754-0.41838 2.8849-1.9648 2.9023-1.5384 0.01739-1.9356-1.09-1.9648-2.9023-0.02646-1.7047 0.36754-2.8748 1.9648-2.9024zm-167.03 0.00391c1.4862-0.0257 1.9081 1.0651 1.9629 2.9023 0.05231 1.754-0.41643 2.8849-1.9629 2.9024-1.5384 0.01738-1.9356-1.0901-1.9648-2.9024-0.02759-1.7047 0.36766-2.8748 1.9648-2.9023zm160.54 0c1.4862-0.0257 1.91 1.0651 1.9648 2.9023 0.05216 1.754-0.41837 2.885-1.9648 2.9024-1.5384 0.01738-1.9356-1.0901-1.9648-2.9024-0.02646-1.7047 0.36757-2.8747 1.9648-2.9023zm-291.65 0.00391c1.4862-0.0257 1.9081 1.0651 1.9629 2.9023 0.05231 1.754-0.41643 2.883-1.9629 2.9004-1.5384 0.01739-1.9356-1.0881-1.9648-2.9004-0.02759-1.7047 0.36767-2.8748 1.9648-2.9023zm-111.24 0.01562c1.4862-0.0257 1.9101 1.0651 1.9648 2.9024 0.052271 1.754-0.41838 2.883-1.9648 2.9004-1.5384 0.01738-1.9356-1.0881-1.9648-2.9004-0.02759-1.7047 0.36766-2.8748 1.9648-2.9024zm117.88 0.02344c1.4862-0.0257 1.9101 1.0651 1.9648 2.9023 0.05231 1.754-0.41837 2.883-1.9648 2.9004-1.5384 0.01739-1.9356-1.0881-1.9648-2.9004-0.02759-1.7047 0.36767-2.8748 1.9648-2.9023zm143.77 0c1.4862-0.0257 1.9081 1.0631 1.9629 2.9004 0.0523 1.754-0.41644 2.8849-1.9629 2.9023-1.5384 0.01739-1.9356-1.09-1.9648-2.9023-0.02759-1.7047 0.3677-2.8728 1.9648-2.9004zm160.54 0c1.4862-0.0257 1.9102 1.0631 1.9648 2.9004 0.03321 1.1171-0.14984 1.978-0.6836 2.4629-0.7663 0.06541-1.5296 0.13603-2.2949 0.20313-0.70721-0.41115-0.92997-1.3486-0.95117-2.666-0.02646-1.7047 0.36754-2.8728 1.9648-2.9004zm-166.56 0.02344c1.4862-0.0257 1.9101 1.0651 1.9648 2.9023 0.05231 1.754-0.41839 2.8849-1.9648 2.9023-1.5384 0.01739-1.9337-1.09-1.9629-2.9023-0.02759-1.7047 0.36572-2.8748 1.9629-2.9023zm160.54 0c1.4862-0.0257 1.9081 1.0651 1.9629 2.9023 0.05212 1.754-0.41643 2.8849-1.9629 2.9023-1.5384 0.01739-1.9356-1.09-1.9648-2.9023-0.02646-1.7047 0.36758-2.8747 1.9648-2.9023zm-402.89 0.01953c1.4862-0.0257 1.9081 1.0651 1.9629 2.9023 0.052271 1.754-0.41642 2.8849-1.9629 2.9024-1.5384 0.01738-1.9356-1.0901-1.9648-2.9024-0.02759-1.7047 0.36766-2.8748 1.9648-2.9023zm-6.4961 0.0039c1.4862-0.0257 1.9081 1.0651 1.9629 2.9024 0.052271 1.754-0.41642 2.8849-1.9629 2.9023-1.5384 0.01739-1.9356-1.09-1.9648-2.9023-0.027591-1.7047 0.36766-2.8748 1.9648-2.9024zm124.38 0.01954c1.4862-0.02571 1.9101 1.0651 1.9648 2.9023 0.05231 1.754-0.41838 2.8849-1.9648 2.9023-1.5384 0.01739-1.9356-1.09-1.9648-2.9023-0.02759-1.7047 0.36767-2.8748 1.9648-2.9023zm143.77 0c1.4862-0.02571 1.9081 1.0651 1.9629 2.9023 0.05231 1.754-0.41643 2.883-1.9629 2.9004-1.5384 0.01739-1.9356-1.0881-1.9648-2.9004-0.02759-1.7047 0.36767-2.8748 1.9648-2.9023zm160.54 0c1.4862-0.02571 1.9101 1.0651 1.9648 2.9023 0.01471 0.49419-0.01891 0.93233-0.09961 1.3164-1.2119 0.08692-2.4292 0.16487-3.6387 0.25585-0.12401-0.43512-0.18141-0.95932-0.19141-1.5723-0.02645-1.7047 0.36754-2.8747 1.9648-2.9023zm-310.8 0.0039c1.4862-0.0257 1.9101 1.0651 1.9648 2.9024 0.0523 1.754-0.41839 2.8849-1.9648 2.9023-1.5384 0.01739-1.9356-1.0901-1.9648-2.9023-0.02759-1.7047 0.36766-2.8748 1.9648-2.9024zm143.77 0c1.4862-0.0257 1.9081 1.0651 1.9629 2.9024 0.05231 1.754-0.41643 2.883-1.9629 2.9004-1.5384 0.01738-1.9356-1.0881-1.9648-2.9004-0.02759-1.7047 0.36766-2.8748 1.9648-2.9024zm160.54 0c1.4862-0.0257 1.91 1.0631 1.9648 2.9004 0.02156 0.72531-0.05371 1.335-0.25 1.8125-1.0977 0.08588-2.1934 0.17633-3.2891 0.26563-0.27238-0.49908-0.37652-1.2036-0.39062-2.0781-0.02646-1.7047 0.36754-2.8728 1.9648-2.9004zm-402.89 0.01758c1.4862-0.0257 1.9081 1.0651 1.9629 2.9023 0.052271 1.754-0.41643 2.8849-1.9629 2.9024-1.5384 0.01738-1.9356-1.0901-1.9648-2.9024-0.02759-1.7047 0.3677-2.8748 1.9648-2.9023zm117.88 0.02344c1.4862-0.0257 1.9101 1.0651 1.9648 2.9023 0.05231 1.754-0.41839 2.8849-1.9648 2.9023-1.5384 0.01739-1.9356-1.09-1.9648-2.9023-0.02759-1.7047 0.3677-2.8748 1.9648-2.9023zm-123.91 0.00195c1.4862-0.0257 1.9101 1.0651 1.9648 2.9023 0.052271 1.754-0.41838 2.8849-1.9648 2.9024-1.5384 0.01738-1.9337-1.0901-1.9629-2.9024-0.027591-1.7047 0.36571-2.8748 1.9629-2.9023zm117.88 0.02344c1.4862-0.0257 1.9081 1.0651 1.9629 2.9023 0.05231 1.754-0.41644 2.8849-1.9629 2.9024-1.5384 0.01738-1.9356-1.0901-1.9648-2.9024-0.02759-1.7047 0.36767-2.8748 1.9648-2.9023zm143.76 0c1.4862-0.0257 1.9101 1.0651 1.9648 2.9023 0.05231 1.754-0.41837 2.8849-1.9648 2.9024-1.5384 0.01738-1.9337-1.0901-1.9629-2.9024-0.02759-1.7047 0.36571-2.8748 1.9629-2.9023zm160.54 0c1.4862-0.0257 1.9081 1.0651 1.9629 2.9023 0.0082 0.27465-0.00199 0.5274-0.02149 0.76953-1.2788 0.08324-2.5501 0.17978-3.8262 0.26758-0.0458-0.31444-0.07408-0.65645-0.08008-1.0371-0.02645-1.7047 0.36754-2.8747 1.9648-2.9023zm-402.9 0.01953c1.4862-0.0257 1.9101 1.0631 1.9648 2.9004 0.05227 1.754-0.41838 2.8849-1.9648 2.9023-1.5384 0.01739-1.9337-1.09-1.9629-2.9023-0.02759-1.7047 0.36572-2.8728 1.9629-2.9004zm-6.4961 0.00391c1.4862-0.02571 1.9101 1.0631 1.9648 2.9004 0.052271 1.754-0.41838 2.8849-1.9648 2.9023-1.5384 0.01739-1.9337-1.0901-1.9629-2.9023-0.02759-1.7047 0.36571-2.8728 1.9629-2.9004zm255.5 0.01562c1.4862-0.0257 1.9101 1.0651 1.9648 2.9023 0.05231 1.754-0.41838 2.883-1.9648 2.9004-1.5384 0.01739-1.9356-1.0881-1.9648-2.9004-0.02759-1.7047 0.36766-2.8748 1.9648-2.9023zm160.54 0c1.4862-0.0257 1.9101 1.0651 1.9648 2.9023 3e-3 0.11476-0.00291 0.21886-0.00391 0.32813-1.3003 0.07635-2.6029 0.14947-3.9004 0.23047-0.0127-0.17873-0.02239-0.36286-0.02539-0.5586-0.02645-1.7047 0.36758-2.8747 1.9648-2.9023zm-291.65 0.00391c1.4862-0.0257 1.9101 1.0631 1.9648 2.9004 0.05231 1.754-0.41838 2.8849-1.9648 2.9023-1.5384 0.01739-1.9356-1.0901-1.9648-2.9023-0.02759-1.7047 0.36767-2.8728 1.9648-2.9004zm-6.4961 0.0039c1.4862-0.0257 1.9101 1.0631 1.9648 2.9004 0.05231 1.754-0.41838 2.8849-1.9648 2.9024-1.5384 0.01738-1.9356-1.0901-1.9648-2.9024-0.02759-1.7047 0.36766-2.8728 1.9648-2.9004zm-104.62 0.04297c1.4862-0.0257 1.9101 1.0651 1.9648 2.9024 0.05227 1.754-0.41838 2.883-1.9648 2.9004-1.5384 0.01738-1.9336-1.0881-1.9629-2.9004-0.02759-1.7047 0.36573-2.8748 1.9629-2.9024zm249 0.01953c1.4862-0.0257 1.9081 1.0651 1.9629 2.9024 0.05231 1.754-0.41643 2.8849-1.9629 2.9023-1.5384 0.01739-1.9356-1.0901-1.9648-2.9023-0.02759-1.7047 0.36765-2.8748 1.9648-2.9024zm160.54 0c1.45-0.02507 1.8857 1.0185 1.957 2.7754-1.3083 0.06844-2.6124 0.1437-3.918 0.2168-1e-3 -0.031-0.0034-0.05834-0.00391-0.08984-0.02645-1.7047 0.36754-2.8748 1.9648-2.9024zm-291.65 0.00391c1.4862-0.0257 1.9081 1.0651 1.9629 2.9023 0.05231 1.754-0.41642 2.883-1.9629 2.9004-1.5384 0.01739-1.9356-1.0881-1.9648-2.9004-0.02759-1.7047 0.36767-2.8748 1.9648-2.9023zm-111.24 0.01562c1.4862-0.0257 1.9101 1.0651 1.9648 2.9024 0.05227 1.754-0.41838 2.883-1.9648 2.9004-1.5384 0.01738-1.9356-1.0881-1.9648-2.9004-0.02759-1.7047 0.36767-2.8748 1.9648-2.9024zm248.57 0.01563c1.4862-0.0257 1.9101 1.0651 1.9648 2.9023 0.05231 1.754-0.41838 2.8849-1.9648 2.9024-1.5384 0.01738-1.9356-1.0901-1.9648-2.9024-0.02758-1.7047 0.3677-2.8748 1.9648-2.9023zm-130.69 0.00781c1.4862-0.0257 1.9101 1.0651 1.9648 2.9024 0.05231 1.754-0.41838 2.883-1.9648 2.9004-1.5384 0.01738-1.9356-1.0881-1.9648-2.9004-0.02758-1.7047 0.36766-2.8748 1.9648-2.9024zm-111.11 0.04688c1.4862-0.0257 1.9081 1.0651 1.9629 2.9023 0.05227 1.754-0.41643 2.8849-1.9629 2.9023-1.5384 0.01739-1.9356-1.09-1.9648-2.9023-0.02759-1.7047 0.36767-2.8748 1.9648-2.9023zm255.07 0.01367c1.4862-0.0257 1.9082 1.0631 1.9629 2.9004 0.05216 1.754-0.41643 2.8849-1.9629 2.9023-1.5384 0.01739-1.9356-1.09-1.9648-2.9023-0.02646-1.7047 0.36757-2.8728 1.9648-2.9004zm-6.4961 0.0039c1.4862-0.02569 1.9082 1.0631 1.9629 2.9004 0.05208 1.754-0.41642 2.8849-1.9629 2.9023-1.5384 0.01739-1.9356-1.0901-1.9648-2.9023-0.02759-1.7047 0.36767-2.8728 1.9648-2.9004zm-130.69 0.00586c1.4862-0.0257 1.9101 1.0651 1.9648 2.9024 0.05231 1.754-0.41838 2.8849-1.9648 2.9023-1.5384 0.01739-1.9356-1.09-1.9648-2.9023-0.02759-1.7047 0.36765-2.8748 1.9648-2.9024zm143.95 0.06055c1.4862-0.0257 1.9101 1.0651 1.9648 2.9024 0.05215 1.754-0.41842 2.883-1.9648 2.9004-1.5384 0.01738-1.9337-1.0881-1.9629-2.9004-0.02646-1.7047 0.36559-2.8748 1.9629-2.9024zm6.6445 0.03906c1.4862-0.0257 1.9101 1.0651 1.9648 2.9024 0.05215 1.754-0.41838 2.883-1.9648 2.9004-1.5384 0.01738-1.9356-1.0881-1.9648-2.9004-0.02646-1.7047 0.36754-2.8748 1.9648-2.9024zm-271.38 59.656-0.09375 5.6562a8.3036 8.3036 0 0 0-4.4219 2.8145l-2.043-1.9121 6.5586-6.5586zm355.71 1.377 8.5605 1.3516-1.4766 2.7012a8.1759 8.1759 0 0 0-6.8047 4.4394l-0.30469-0.95312 0.0254-7.5391zm-36.328 0.08984 3.2832 0.82031-0.74609 3.1973a8.1759 8.1759 0 0 0-1.0215-0.07227 8.1759 8.1759 0 0 0-7.7598 5.6211l-0.38477-1.1074 0.47071-5.6465 6.1582-2.8125z" stroke="#000" stroke-width="1.0016"/>
</svg>
