<?xml version="1.0" encoding="UTF-8"?>
<svg width="250mm" height="100mm" version="1.1" viewBox="0 0 250 100" xmlns="http://www.w3.org/2000/svg">
<path transform="scale(.26458)" d="m925 109.56l-41.607 0.17773c-8.7653 0.19188-13.305 5.2942-18.57 9.6426l-116.9 102.62c-7.5248 5.4807-12.884 8.0319-23.992 8.334l-13.873-0.05078 0.875-1.4707 0.37891-1.7051-2.5898 0.18946-2.8262 2.9707-121.15-0.44922 1.9316-3.248 0.3789-1.7051-2.5898 0.18946-4.5156 4.7461-155.42-0.57812c-33.636-4.4364-108.05-11.597-159.02-13.33-10.187-0.34647-30.866-0.33432-52.537-0.21875l2.3828-3.9707v-2.1426l-1.5176 0.17773-5.7773 5.9648c-14.364 0.08622-28.297 0.20147-40.236 0.29688-0.16479-1.0241-0.39618-1.9794-1.7031-1.8613-1.4046 0.02118-1.5548 1.0115-1.8516 1.8887-10.785 0.08415-19.223 0.13674-22.777 0.09766-30.458 0.06401-53.131-2.2711-73.459 18.346-22.63 10.779-50.404 23.812-50.4 34.561-0.078116 9.7802 21.99 26.031 86.406 34.936l0.03906 4.9902 2.418 1.2109 5.1836 0.34375-0.0625 3.7031-1.2207-0.13086-0.58008-1.1289-1.8613 0.0293 0.51758 4.3984 2.2812 0.61524-6.9141 6.7246 2.7793 2.6309a8.0336 8.0336 0 0 0 -1.2461 4.2793 8.0336 8.0336 0 0 0 8.0332 8.0332 8.0336 8.0336 0 0 0 8.0352 -8.0332 8.0336 8.0336 0 0 0 -6.2539 -7.8262l-0.05273-2.9102 2.6543-1.0703 0.30468-1.4961 2.0156-1.4961-0.54883-1.1914-4.5234-0.22266-0.07422-4.2168 1.8125 0.17383 0.35938-5.7812c26.589 2.9984 59.419 4.8183 99.73 4.6777 5.0612-0.06702 45.014 0.4971 77.189 0.75195l3.1367 3.0957 1.4531-0.0625-1.9199-3.0117c2.9432 0.02191 6.225 0.05722 8.9707 0.07226 5.7289 0.03137 19.787 1.7512 33.715 1.4258l1.0508 0.00781c-0.1251 6.2335-0.19058 13.63 0.78711 15.221 4.1951 6.2739 55.605 2.1136 66.428-1.0703l-5.0449-2.7168 3.7383-1.6797-2.9883-1.5606 11.285-3.2441 0.0625-1.3887 10.293-3.2344 9.459-0.16016-1.2539 5.1309-2.082 1.3242 1.3242 1.5156 10.438-2.3203c0.08332 0.30562 0.17237 0.57214 0.2793 0.74609 0.62336 0.93226 2.3082 1.6298 4.7285 2.1387l0.9707 0.88867v3.2188l-1.6836 1.4356a8.1759 8.1759 0 0 0 -6.6191 -3.3926 8.1759 8.1759 0 0 0 -8.1758 8.1758 8.1759 8.1759 0 0 0 8.1758 8.1758 8.1759 8.1759 0 0 0 7.3066 -4.5273l5.7734-1.0918a8.1759 8.1759 0 0 0 7.7227 5.5254 8.1759 8.1759 0 0 0 8.1758 -8.1758 8.1759 8.1759 0 0 0 -2.7461 -6.1035l2.9043-2.5469c-0.20394-0.18934-0.41177-0.36584-0.61914-0.54492 6.1844-0.16146 12.666-0.58271 18.723-1.123l-0.10156 3.168 0.89453 1.6973 0.13281 1.7852-0.98438 0.23242a8.1759 8.1759 0 0 0 -7.502 -4.9297 8.1759 8.1759 0 0 0 -8.1758 8.1758 8.1759 8.1759 0 0 0 8.1758 8.1758 8.1759 8.1759 0 0 0 7.8281 -5.8418l5.0801 0.04297a8.1759 8.1759 0 0 0 7.8008 5.7344 8.1759 8.1759 0 0 0 8.1758 -8.1758 8.1759 8.1759 0 0 0 -3.707 -6.8379l1.6543-2.7578-0.43359-2.9004c1.1546-0.23314 2.1824-0.46603 2.9551-0.69336l-5.0469-2.7148 3.7383-1.6816-2.9258-1.5254c12.397-0.10997 24.827-0.47719 32.145-1.4688l12.25-0.19922 4.377 4.9238 1.9648-0.13476 0.04492-1.3848-2.6816-3.4648 5.4688-0.08789c15.722-9.1e-4 65.589 1.2702 100.8-6.6309l233.47-49.115c6.2759-1.6724 11.65-4.2759 10.18-13.93l16.508-7.4551c3.9529-1.8796 5.8722-3.363-0.71485-3.5723l-21.855-0.83984c-2.2673-0.80988-3.4602-2.1054-7.7207-2.1445l-8.8613-0.09375 45.662-113.93c1.1025-2.5949 0.13061-3.0726-1.4277-3.0352zm-837.21 118.74l-0.7168 6.834c-1.9462-0.46324-4.0321-0.71763-6.2031-0.84375 1.77-1.7546 3.3758-4.1124 5.0645-5.9492l1.8555-0.04101zm-3.8398 0.08398l-5.5273 5.8223-7.4258 0.12695 0.21094-0.21094 6.498-5.6543 6.2441-0.08399zm5.6543 0.04102l5.2324 0.04297 0.042969 7.8906-5.4434-0.88672 0.16797-6.666v-0.38086zm41.811 2.6289c1.384-0.02381 1.7791 0.99029 1.8301 2.7012 0.04868 1.6334-0.38999 2.6869-1.8301 2.7031-1.4326 0.01625-1.8009-1.0155-1.8281-2.7031-0.0257-1.5875 0.34082-2.6755 1.8281-2.7012zm12.354 0.0625c1.384-0.02381 1.7771 0.99029 1.8281 2.7012 0.04868 1.6334-0.38804 2.6869-1.8281 2.7031-1.4326 0.01625-1.8028-1.0155-1.8301-2.7031-0.0257-1.5875 0.34277-2.6755 1.8301-2.7012zm-6.0488 0.00391c1.384-0.02381 1.7771 0.99029 1.8281 2.7012 0.04868 1.6334-0.38804 2.6869-1.8281 2.7031-1.4326 0.01625-1.8028-1.0155-1.8301-2.7031-0.02571-1.5875 0.34277-2.6755 1.8301-2.7012zm73.529 0.00195c1.384-0.02381 1.7791 0.9903 1.8301 2.7012 0.04868 1.6334-0.38999 2.6869-1.8301 2.7031-1.4326 0.01625-1.8028-1.0155-1.8301-2.7031-0.0257-1.5874 0.34278-2.6755 1.8301-2.7012zm-55.568 0.03516c1.384-0.02381 1.7791 0.99224 1.8301 2.7031 0.04868 1.6334-0.39 2.685-1.8301 2.7012-1.4326 0.01625-1.8009-1.0136-1.8281-2.7012-0.0257-1.5875 0.34085-2.6774 1.8281-2.7031zm-5.6094 0.02344c1.384-0.02381 1.7791 0.99223 1.8301 2.7031 0.04868 1.6334-0.38999 2.685-1.8301 2.7012-1.4326 0.01626-1.8009-1.0136-1.8281-2.7012-0.0257-1.5875 0.34082-2.6774 1.8281-2.7031zm73.531 0.0039c1.384-0.02381 1.7771 0.99031 1.8281 2.7012 0.04868 1.6334-0.38804 2.6869-1.8281 2.7031-1.4326 0.01625-1.8029-1.0155-1.8301-2.7031-0.0257-1.5874 0.34277-2.6755 1.8301-2.7012zm-6.0508 0.00196c1.384-0.02381 1.7791 0.99223 1.8301 2.7031 0.04868 1.6334-0.39001 2.6869-1.8301 2.7031-1.4326 0.01625-1.8009-1.0155-1.8281-2.7031-0.0257-1.5875 0.34082-2.6774 1.8281-2.7031zm-49.518 0.0332c1.384-0.02381 1.7771 0.99224 1.8281 2.7031 0.04868 1.6334-0.38804 2.685-1.8281 2.7012-1.4326 0.01625-1.8029-1.0136-1.8301-2.7012-0.0257-1.5875 0.34277-2.6774 1.8301-2.7031zm-6.0488 0.00391c1.384-0.02382 1.7771 0.99223 1.8281 2.7031 0.04868 1.6334-0.38803 2.685-1.8281 2.7012-1.4326 0.01625-1.8028-1.0136-1.8301-2.7012-0.0257-1.5875 0.34277-2.6774 1.8301-2.7031zm67.92 0.02539c1.384-0.02381 1.7771 0.99223 1.8281 2.7031 0.04868 1.6334-0.38804 2.685-1.8281 2.7012-1.4326 0.01626-1.8028-1.0136-1.8301-2.7012-0.0257-1.5875 0.34278-2.6774 1.8301-2.7031zm92.84 0.03515c1.384-0.02381 1.7771 0.99224 1.8281 2.7031 0.04868 1.6334-0.38804 2.685-1.8281 2.7012-1.4326 0.01625-1.8028-1.0136-1.8301-2.7012-0.0257-1.5875 0.34277-2.6774 1.8301-2.7031zm-148.41 0.00196c1.384-0.02382 1.7791 0.99223 1.8301 2.7031 0.04868 1.6334-0.38999 2.685-1.8301 2.7012-1.4326 0.01625-1.8009-1.0136-1.8281-2.7012-0.0257-1.5875 0.34082-2.6774 1.8281-2.7031zm61.756 0c1.384-0.02382 1.7771 0.99223 1.8281 2.7031 0.04868 1.6334-0.38804 2.685-1.8281 2.7012-1.4326 0.01625-1.8028-1.0136-1.8301-2.7012-0.0257-1.5875 0.34277-2.6774 1.8301-2.7031zm-55.568 0.0371c1.384-0.02379 1.7771 0.99029 1.8281 2.7012 0.04868 1.6334-0.38804 2.6869-1.8281 2.7031-1.4326 0.01625-1.8028-1.0155-1.8301-2.7031-0.0257-1.5875 0.34278-2.6755 1.8301-2.7012zm67.92 0.0254c1.384-0.02382 1.7791 0.99028 1.8301 2.7012 0.04868 1.6334-0.38999 2.6869-1.8301 2.7031-1.4326 0.01625-1.8009-1.0155-1.8281-2.7031-0.0257-1.5875 0.34081-2.6755 1.8281-2.7012zm80.604 0.00195c1.384-0.02381 1.7791 0.99028 1.8301 2.7012 0.04868 1.6334-0.38999 2.6869-1.8301 2.7031-1.4326 0.01625-1.8009-1.0155-1.8281-2.7031-0.0257-1.5875 0.34082-2.6755 1.8281-2.7012zm-86.652 0.00195c1.384-0.02381 1.7771 0.99029 1.8281 2.7012 0.04868 1.6334-0.38804 2.6869-1.8281 2.7031-1.4326 0.01625-1.8028-1.0155-1.8301-2.7031-0.0257-1.5875 0.34279-2.6755 1.8301-2.7012zm-55.568 0.03516c1.384-0.02381 1.7791 0.99223 1.8301 2.7031 0.04868 1.6334-0.38999 2.685-1.8301 2.7012-1.4326 0.01623-1.8009-1.0136-1.8281-2.7012-0.0257-1.5875 0.34082-2.6774 1.8281-2.7031zm73.531 0.0039c1.384-0.02381 1.7771 0.99029 1.8281 2.7012 0.04868 1.6334-0.38804 2.6869-1.8281 2.7031-1.4326 0.01625-1.8029-1.0155-1.8301-2.7031-0.0257-1.5875 0.34281-2.6755 1.8301-2.7012zm-5.6113 0.02344c1.384-0.02381 1.7791 0.99028 1.8301 2.7012 0.04868 1.6334-0.39 2.6869-1.8301 2.7031-1.4326 0.01625-1.8009-1.0155-1.8281-2.7031-0.0257-1.5875 0.34082-2.6755 1.8281-2.7012zm17.963 0.03906c1.384-0.02381 1.7791 0.99029 1.8301 2.7012 0.04868 1.6334-0.38999 2.6869-1.8301 2.7031-1.4326 0.01625-1.8009-1.0155-1.8281-2.7031-0.0257-1.5875 0.34082-2.6755 1.8281-2.7012zm-6.0488 0.00196c1.384-0.02381 1.7791 0.99223 1.8301 2.7031 0.04868 1.6334-0.38999 2.685-1.8301 2.7012-1.4326 0.01626-1.8028-1.0136-1.8301-2.7012-0.0257-1.5875 0.34277-2.6774 1.8301-2.7031zm12.354 0.0625c1.384-0.02381 1.7771 0.99223 1.8281 2.7031 0.04868 1.6334-0.38803 2.685-1.8281 2.7012-1.4326 0.01626-1.8029-1.0135-1.8301-2.7012-0.0257-1.5875 0.34277-2.6774 1.8301-2.7031zm18.547 0.00976c1.384-0.02381 1.7771 0.99028 1.8281 2.7012 0.04868 1.6334-0.38804 2.6869-1.8281 2.7031-1.4326 0.01625-1.8028-1.0155-1.8301-2.7031-0.0257-1.5875 0.34278-2.6755 1.8301-2.7012zm-12.361 0.02735c1.384-0.02381 1.7791 0.99028 1.8301 2.7012 0.04868 1.6334-0.38999 2.6869-1.8301 2.7031-1.4326 0.01626-1.8009-1.0155-1.8281-2.7031-0.0257-1.5875 0.34082-2.6755 1.8281-2.7012zm6.3047 0.0664c1.384-0.02381 1.7772 0.9903 1.8281 2.7012 0.04869 1.6334-0.38803 2.6869-1.8281 2.7031-1.4326 0.01625-1.8028-1.0155-1.8301-2.7031-0.0257-1.5874 0.34278-2.6755 1.8301-2.7012zm11.213 29.564c1.384-0.02381 1.7791 0.99223 1.8301 2.7031 0.04868 1.6334-0.39 2.685-1.8301 2.7012-1.4326 0.01626-1.8009-1.0136-1.8281-2.7012-0.02571-1.5875 0.34081-2.6774 1.8281-2.7031zm12.354 0.0625c1.384-0.02381 1.7771 0.99223 1.8281 2.7031 0.04868 1.6334-0.38804 2.685-1.8281 2.7012-1.4326 0.01626-1.8029-1.0136-1.8301-2.7012-0.0257-1.5875 0.34277-2.6774 1.8301-2.7031zm-6.0488 0.0039c1.384-0.02381 1.7771 0.99224 1.8281 2.7031 0.04868 1.6334-0.38803 2.685-1.8281 2.7012-1.4326 0.01625-1.8029-1.0136-1.8301-2.7012-0.0257-1.5875 0.34277-2.6774 1.8301-2.7031zm12.352 0.0625c1.384-0.02381 1.7791 0.99224 1.8301 2.7031 0.04868 1.6334-0.38999 2.685-1.8301 2.7012-1.4326 0.01625-1.8009-1.0136-1.8281-2.7012-0.02571-1.5875 0.34082-2.6774 1.8281-2.7031zm6.1875 0.03711c1.384-0.02381 1.7771 0.99028 1.8281 2.7012 0.04868 1.6334-0.38804 2.6869-1.8281 2.7031-1.4326 0.01625-1.8028-1.0155-1.8301-2.7031-0.0257-1.5875 0.34277-2.6755 1.8301-2.7012zm12.352 0.0625c1.384-0.02381 1.7791 0.99029 1.8301 2.7012 0.04868 1.6334-0.38999 2.6869-1.8301 2.7031-1.4326 0.01625-1.8009-1.0155-1.8281-2.7031-0.0257-1.5875 0.34081-2.6755 1.8281-2.7012zm-6.0488 0.00196c1.384-0.02382 1.7791 0.99223 1.8301 2.7031 0.04868 1.6334-0.39001 2.6869-1.8301 2.7031-1.4326 0.01626-1.8009-1.0155-1.8281-2.7031-0.0257-1.5875 0.34082-2.6775 1.8281-2.7031zm17.963 0.03906c1.384-0.02381 1.7771 0.99224 1.8281 2.7031 0.04868 1.6334-0.38804 2.685-1.8281 2.7012-1.4326 0.01626-1.8029-1.0135-1.8301-2.7012-0.0257-1.5875 0.34281-2.6774 1.8301-2.7031zm-5.6094 0.02344c1.384-0.02382 1.7771 0.99223 1.8281 2.7031 0.04868 1.6334-0.38805 2.685-1.8281 2.7012-1.4326 0.01625-1.8028-1.0136-1.8301-2.7012-0.0257-1.5875 0.34277-2.6775 1.8301-2.7031zm17.963 0.03906c1.384-0.02381 1.7771 0.99224 1.8281 2.7031 0.04868 1.6334-0.38804 2.685-1.8281 2.7012-1.4326 0.01626-1.8028-1.0135-1.8301-2.7012-0.0257-1.5875 0.34278-2.6774 1.8301-2.7031zm-6.0508 0.0039c1.384-0.02381 1.7791 0.99224 1.8301 2.7031 0.04868 1.6334-0.38999 2.685-1.8301 2.7012-1.4326 0.01625-1.8009-1.0136-1.8281-2.7012-0.02571-1.5875 0.34081-2.6774 1.8281-2.7031zm12.354 0.0625c1.384-0.02381 1.7771 0.99224 1.8281 2.7031 0.04868 1.6334-0.38803 2.685-1.8281 2.7012-1.4326 0.01625-1.8029-1.0136-1.8301-2.7012-0.0257-1.5875 0.34277-2.6774 1.8301-2.7031zm6.1855 0.03711c1.384-0.02381 1.7791 0.99031 1.8301 2.7012 0.04876 1.6334-0.38998 2.6869-1.8301 2.7031-1.4326 0.01625-1.8009-1.0155-1.8281-2.7031-0.0257-1.5874 0.34082-2.6755 1.8281-2.7012zm12.479 0.01172c1.384-0.02381 1.7771 0.99224 1.8281 2.7031 0.04876 1.6334-0.38805 2.685-1.8281 2.7012-1.4326 0.01625-1.8029-1.0136-1.8301-2.7012-0.02646-1.5875 0.34257-2.6774 1.8301-2.7031zm-6.1738 0.05274c1.384-0.02381 1.7771 0.99223 1.8281 2.7031 0.04873 1.6334-0.38802 2.685-1.8281 2.7012-1.4326 0.01626-1.8029-1.0136-1.8301-2.7012-0.02645-1.5875 0.34299-2.6774 1.8301-2.7031zm18.525 0.00976c1.384-0.02381 1.7791 0.99029 1.8301 2.7012 0.04875 1.6334-0.38997 2.6869-1.8301 2.7031-1.4326 0.01625-1.8009-1.0155-1.8281-2.7031-0.02646-1.5875 0.34065-2.6755 1.8281-2.7012zm-6.0488 0.00391c1.384-0.02381 1.7791 0.99028 1.8301 2.7012 0.04876 1.6334-0.39 2.6869-1.8301 2.7031-1.4326 0.01623-1.8009-1.0155-1.8281-2.7031-0.02646-1.5875 0.34099-2.6755 1.8281-2.7012zm12.354 0.0625c1.384-0.02381 1.7771 0.99028 1.8281 2.7012 0.04876 1.6334-0.38805 2.6869-1.8281 2.7031-1.4326 0.01623-1.8029-1.0155-1.8301-2.7031-0.02646-1.5875 0.34257-2.6755 1.8301-2.7012zm6.1856 0.03515c1.384-0.02381 1.7791 0.99224 1.8301 2.7031 0.04876 1.6334-0.38998 2.685-1.8301 2.7012-1.4326 0.01625-1.8009-1.0136-1.8281-2.7012-0.02646-1.5875 0.34103-2.6774 1.8281-2.7031zm39.201 0.00782c1.384-0.02381 1.7791 0.99028 1.8301 2.7012 0.04876 1.6334-0.39 2.6869-1.8301 2.7031-1.4326 0.01626-1.8009-1.0155-1.8281-2.7031-0.02645-1.5875 0.341-2.6755 1.8281-2.7012zm-419.88 0.02929c1.384-0.02381 1.7771 0.99224 1.8281 2.7031 0.048676 1.6334-0.38804 2.685-1.8281 2.7012-1.4326 0.01625-1.8029-1.0136-1.8301-2.7012-0.025626-1.5875 0.34278-2.6774 1.8301-2.7031zm432.23 0.03321c1.384-0.02381 1.7771 0.99028 1.8281 2.7012 0.04875 1.6334-0.38805 2.6869-1.8281 2.7031-1.4326 0.01626-1.8029-1.0155-1.8301-2.7031-0.02645-1.5875 0.34299-2.6755 1.8301-2.7012zm-6.0488 0.00195c1.384-0.02381 1.7771 0.99226 1.8281 2.7031 0.04876 1.6334-0.38805 2.6869-1.8281 2.7031-1.4326 0.01625-1.8028-1.0155-1.8301-2.7031-0.02646-1.5874 0.34294-2.6774 1.8301-2.7031zm-413.83 0.02734c1.384-0.02381 1.7791 0.99224 1.8301 2.7031 0.048681 1.6334-0.38999 2.685-1.8301 2.7012-1.4326 0.01625-1.8009-1.0136-1.8281-2.7012-0.025701-1.5875 0.34082-2.6774 1.8281-2.7031zm-6.0488 0.00391c1.384-0.02381 1.7791 0.99029 1.8301 2.7012 0.048681 1.6334-0.38999 2.6869-1.8301 2.7031-1.4326 0.01625-1.8009-1.0155-1.8281-2.7031-0.025701-1.5875 0.34082-2.6755 1.8281-2.7012zm432.23 0.03125c1.384-0.02381 1.7791 0.99226 1.8301 2.7031 0.04873 1.6334-0.38997 2.685-1.8301 2.7012-1.4326 0.01625-1.8009-1.0136-1.8281-2.7012-0.02645-1.5874 0.34103-2.6774 1.8281-2.7031zm-419.88 0.03125c1.384-0.02381 1.7771 0.99029 1.8281 2.7012 0.04868 1.6334-0.38804 2.6869-1.8281 2.7031-1.4326 0.01625-1.8029-1.0155-1.8301-2.7031-0.025701-1.5875 0.34277-2.6755 1.8301-2.7012zm426.06 0.00586c1.384-0.02381 1.7771 0.99223 1.8281 2.7031 0.04876 1.6334-0.38801 2.685-1.8281 2.7012-1.4326 0.01625-1.8029-1.0136-1.8301-2.7012-0.02646-1.5875 0.34298-2.6774 1.8301-2.7031zm-419.88 0.03125c1.384-0.02381 1.7791 0.99028 1.8301 2.7012 0.04868 1.6334-0.38999 2.6869-1.8301 2.7031-1.4326 0.01625-1.8009-1.0155-1.8281-2.7031-0.025701-1.5875 0.34082-2.6755 1.8281-2.7012zm432.23 0.03125c1.384-0.02381 1.7791 0.99028 1.8301 2.7012 0.04875 1.6334-0.39001 2.6869-1.8301 2.7031-1.4326 0.01625-1.8009-1.0155-1.8281-2.7031-0.02645-1.5875 0.341-2.6755 1.8281-2.7012zm-6.0488 0.00391c1.384-0.02382 1.7791 0.99028 1.8301 2.7012 0.04876 1.6334-0.38997 2.6869-1.8301 2.7031-1.4326 0.01625-1.8009-1.0155-1.8281-2.7031-0.02646-1.5875 0.34103-2.6755 1.8281-2.7012zm-413.83 0.02539c1.384-0.02381 1.7771 0.99223 1.8281 2.7031 0.048681 1.6334-0.38803 2.685-1.8281 2.7012-1.4326 0.01626-1.8029-1.0136-1.8301-2.7012-0.025701-1.5875 0.34277-2.6774 1.8301-2.7031zm-6.0488 0.0039c1.384-0.02381 1.7771 0.99224 1.8281 2.7031 0.04868 1.6334-0.38804 2.685-1.8281 2.7012-1.4326 0.01625-1.8029-1.0136-1.8301-2.7012-0.025701-1.5875 0.34277-2.6774 1.8301-2.7031zm437.84 0.00977c1.384-0.02381 1.7771 0.99028 1.8281 2.7012 0.04875 1.6334-0.38805 2.6869-1.8281 2.7031-1.4326 0.01623-1.8028-1.0155-1.8301-2.7031-0.02645-1.5875 0.34295-2.6755 1.8301-2.7012zm-5.6094 0.02344c1.384-0.02382 1.7771 0.99028 1.8281 2.7012 0.04876 1.6334-0.38805 2.6869-1.8281 2.7031-1.4326 0.01625-1.8029-1.0155-1.8301-2.7031-0.02646-1.5875 0.34295-2.6755 1.8301-2.7012zm-414.27 0.00586c1.384-0.02382 1.7791 0.99223 1.8301 2.7031 0.04868 1.6334-0.39 2.685-1.8301 2.7012-1.4326 0.01625-1.8009-1.0136-1.8281-2.7012-0.025701-1.5875 0.34085-2.6775 1.8281-2.7031zm-5.6094 0.02343c1.384-0.02381 1.7791 0.99224 1.8301 2.7031 0.04868 1.6334-0.39 2.685-1.8301 2.7012-1.4326 0.01625-1.8009-1.0136-1.8281-2.7012-0.025701-1.5875 0.34082-2.6774 1.8281-2.7031zm437.84 0.00977c1.384-0.02381 1.7791 0.99028 1.8301 2.7012 0.04876 1.6334-0.38996 2.6869-1.8301 2.7031-1.4326 0.01623-1.8009-1.0155-1.8281-2.7031-0.02646-1.5875 0.34103-2.6755 1.8281-2.7012zm-6.0488 0.00195c1.384-0.02381 1.7791 0.99224 1.8301 2.7031 0.04876 1.6334-0.38996 2.685-1.8301 2.7012-1.4326 0.01625-1.8009-1.0136-1.8281-2.7012-0.02646-1.5875 0.34103-2.6774 1.8281-2.7031zm-413.83 0.02735c1.384-0.02382 1.7771 0.99223 1.8281 2.7031 0.048681 1.6334-0.38804 2.685-1.8281 2.7012-1.4326 0.01625-1.8029-1.0136-1.8301-2.7012-0.025701-1.5875 0.34277-2.6775 1.8301-2.7031zm-6.0488 0.0039c1.384-0.02381 1.7771 0.99028 1.8281 2.7012 0.04868 1.6334-0.38804 2.6869-1.8281 2.7031-1.4326 0.01625-1.8028-1.0155-1.8301-2.7031-0.025701-1.5875 0.34277-2.6755 1.8301-2.7012zm347.21 0.0293c1.384-0.02381 1.7791 0.99028 1.8301 2.7012 0.04876 1.6334-0.38996 2.6869-1.8301 2.7031-1.4326 0.01623-1.8009-1.0155-1.8281-2.7031-0.02646-1.5875 0.34103-2.6755 1.8281-2.7012zm85.018 0.00195c1.384-0.02381 1.7771 0.99224 1.8281 2.7031 0.04875 1.6334-0.38805 2.685-1.8281 2.7012-1.4326 0.01625-1.8029-1.0136-1.8301-2.7012-0.02645-1.5875 0.34295-2.6774 1.8301-2.7031zm50.922 0.00781c1.384-0.02381 1.7791 0.99224 1.8301 2.7031 0.01564 0.52382-0.02536 0.97995-0.12695 1.3691l-3.2676 0.3418c-0.17637-0.44433-0.25247-1.0177-0.26367-1.7109-0.02645-1.5875 0.341-2.6774 1.8281-2.7031zm177.53 0c1.384-0.02381 1.7771 0.99224 1.8281 2.7031 0.04875 1.6334-0.38805 2.685-1.8281 2.7012-1.4326 0.01625-1.8028-1.0136-1.8301-2.7012-0.02645-1.5875 0.34295-2.6774 1.8301-2.7031zm-605.96 0.01758c1.384-0.02381 1.7771 0.99224 1.8281 2.7031 0.04868 1.6334-0.38804 2.685-1.8281 2.7012-1.4326 0.01625-1.8028-1.0136-1.8301-2.7012-0.0257-1.5875 0.34277-2.6774 1.8301-2.7031zm-42.371 0.00586c1.384-0.02381 1.7791 0.99028 1.8301 2.7012 0.04868 1.6334-0.38998 2.6869-1.8301 2.7031-1.4326 0.01625-1.8009-1.0155-1.8281-2.7031-0.025701-1.5875 0.34081-2.6755 1.8281-2.7012zm426.06 0.00586c1.384-0.02381 1.7791 0.99029 1.8301 2.7012 0.04875 1.6334-0.38997 2.6869-1.8301 2.7031-1.4326 0.01625-1.8009-1.0155-1.8281-2.7031-0.02645-1.5875 0.34066-2.6755 1.8281-2.7012zm12.479 0.01172c1.384-0.02381 1.7771 0.99223 1.8281 2.7031 0.04876 1.6334-0.38805 2.685-1.8281 2.7012-1.4326 0.01625-1.8028-1.0136-1.8301-2.7012-0.02646-1.5875 0.34294-2.6774 1.8301-2.7031zm-432.36 0.01758c1.384-0.02381 1.7771 0.99224 1.8281 2.7031 0.04868 1.6334-0.38804 2.685-1.8281 2.7012-1.4326 0.01626-1.8029-1.0135-1.8301-2.7012-0.0257-1.5875 0.34277-2.6774 1.8301-2.7031zm48.535 0.02148c1.384-0.02381 1.7791 0.99224 1.8301 2.7031 0.04868 1.6334-0.38999 2.685-1.8301 2.7012-1.4326 0.01625-1.8009-1.0136-1.8281-2.7012-0.0257-1.5875 0.34082-2.6774 1.8281-2.7031zm-6.0488 0.00391c1.384-0.02381 1.7791 0.99028 1.8301 2.7012 0.04868 1.6334-0.38999 2.6869-1.8301 2.7031-1.4326 0.01626-1.8009-1.0155-1.8281-2.7031-0.0257-1.5875 0.34082-2.6755 1.8281-2.7012zm-15.016 0.00586c1.384-0.02381 1.7791 0.99028 1.8301 2.7012 0.04868 1.6334-0.39 2.6869-1.8301 2.7031-1.4326 0.01626-1.8009-1.0155-1.8281-2.7031-0.0257-1.5875 0.34082-2.6755 1.8281-2.7012zm158.48 0c1.384-0.02381 1.7791 0.99028 1.8301 2.7012 0.04868 1.6334-0.39 2.6869-1.8301 2.7031-1.4326 0.01626-1.8009-1.0155-1.8281-2.7031-0.02571-1.5875 0.34081-2.6755 1.8281-2.7012zm240.23 0.00586c1.384-0.02381 1.7771 0.99028 1.8281 2.7012 0.04876 1.6334-0.38805 2.6869-1.8281 2.7031-1.4326 0.01626-1.8029-1.0155-1.8301-2.7031-0.02646-1.5875 0.34257-2.6755 1.8301-2.7012zm18.525 0.00781c1.384-0.02381 1.7792 0.99224 1.8301 2.7031 0.04871 1.6334-0.38997 2.685-1.8301 2.7012-1.4326 0.01625-1.8009-1.0136-1.8281-2.7012-0.02645-1.5875 0.34103-2.6774 1.8281-2.7031zm-6.0488 0.00391c1.384-0.02382 1.7791 0.99223 1.8301 2.7031 0.04875 1.6334-0.38997 2.685-1.8301 2.7012-1.4326 0.01625-1.8009-1.0136-1.8281-2.7012-0.02645-1.5875 0.34104-2.6774 1.8281-2.7031zm-432.36 0.01757c1.384-0.02381 1.7791 0.99224 1.8301 2.7031 0.04868 1.6334-0.38999 2.685-1.8301 2.7012-1.4326 0.01625-1.8009-1.0136-1.8281-2.7012-0.02571-1.5875 0.34082-2.6774 1.8281-2.7031zm48.537 0.02149c1.384-0.02381 1.7771 0.99028 1.8281 2.7012 0.04868 1.6334-0.38803 2.6869-1.8281 2.7031-1.4326 0.01626-1.8028-1.0155-1.8301-2.7031-0.0257-1.5875 0.34277-2.6755 1.8301-2.7012zm6.1856 0.03711c1.384-0.02381 1.7791 0.99028 1.8301 2.7012 0.04868 1.6334-0.38999 2.6869-1.8301 2.7031-1.4326 0.01626-1.8009-1.0155-1.8281-2.7031-0.0257-1.5875 0.34082-2.6755 1.8281-2.7012zm431.29 0.03711c0.80674-0.01388 1.2708 0.33315 1.5332 0.95703l-3.2207 0.33984c0.21348-0.78783 0.70089-1.2799 1.6875-1.2969zm-18.436 0.01367c1.384-0.02381 1.7771 0.99223 1.8281 2.7031 1e-3 0.05119-0.00251 0.09639-0.00196 0.14649l-3.6113 0.38086c-0.0135-0.17744-0.04193-0.3316-0.04493-0.52735-0.02645-1.5875 0.34295-2.6774 1.8301-2.7031zm-400.51 0.00976c1.384-0.02381 1.7771 0.99224 1.8281 2.7031 0.04868 1.6334-0.38804 2.685-1.8281 2.7012-1.4326 0.01625-1.8028-1.0136-1.8301-2.7012-0.0257-1.5875 0.34277-2.6774 1.8301-2.7031zm-6.0488 0.00391c1.384-0.02381 1.7771 0.99224 1.8281 2.7031 0.04868 1.6334-0.38804 2.685-1.8281 2.7012-1.4326 0.01625-1.8028-1.0136-1.8301-2.7012-0.02571-1.5875 0.34277-2.6774 1.8301-2.7031zm431.29 0.03711c0.43409-0.00747 0.76207 0.09867 1.0215 0.28516l-2.3223 0.24414c0.28325-0.32503 0.69533-0.5188 1.3008-0.5293zm-413.33 0.00195c1.384-0.02381 1.7791 0.99224 1.8301 2.7031 0.04868 1.6334-0.39 2.685-1.8301 2.7012-1.4326 0.01625-1.8009-1.0136-1.8281-2.7012-0.0257-1.5875 0.34085-2.6774 1.8281-2.7031zm400.95 0.00977c1.0191-0.01753 1.499 0.53163 1.7031 1.5039l-3.4941 0.36524c0.12009-1.1193 0.58449-1.8483 1.791-1.8691zm-6.0488 0.0039c1.2104-0.02079 1.6445 0.78783 1.7734 2.127l-3.5976 0.3789c0.00857-1.4766 0.40138-2.4813 1.8242-2.5059zm-400.51 0.00977c1.384-0.02381 1.7791 0.99224 1.8301 2.7031 0.04868 1.6334-0.38999 2.685-1.8301 2.7012-1.4326 0.01625-1.8009-1.0136-1.8281-2.7012-0.0257-1.5875 0.34082-2.6774 1.8281-2.7031zm17.963 0.03906c1.384-0.02381 1.7771 0.99224 1.8281 2.7031 0.04868 1.6334-0.38804 2.685-1.8281 2.7012-1.4326 0.01625-1.8029-1.0136-1.8301-2.7012-0.0257-1.5875 0.34277-2.6774 1.8301-2.7031zm-6.0488 0.00391c1.384-0.02381 1.7771 0.99028 1.8281 2.7012 0.04868 1.6334-0.38803 2.6869-1.8281 2.7031-1.4326 0.01625-1.8028-1.0155-1.8301-2.7031-0.0257-1.5875 0.34277-2.6755 1.8301-2.7012zm12.352 0.0625c1.384-0.02381 1.7791 0.99028 1.8301 2.7012 0.04868 1.6334-0.38999 2.6869-1.8301 2.7031-1.4326 0.01625-1.8009-1.0155-1.8281-2.7031-0.0257-1.5875 0.34082-2.6755 1.8281-2.7012zm6.1875 0.03516c1.384-0.02382 1.7771 0.99223 1.8281 2.7031 0.04868 1.6334-0.38804 2.685-1.8281 2.7012-1.4326 0.01625-1.8028-1.0136-1.8301-2.7012-0.0257-1.5875 0.34278-2.6774 1.8301-2.7031zm12.477 0.01367c1.384-0.02381 1.7791 0.99028 1.8301 2.7012 0.04868 1.6334-0.38999 2.6869-1.8301 2.7031-1.4326 0.01626-1.8009-1.0155-1.8281-2.7031-0.0257-1.5875 0.34082-2.6755 1.8281-2.7012zm-6.1738 0.05273c1.384-0.02381 1.7791 0.99224 1.8301 2.7031 0.04868 1.6334-0.38999 2.685-1.8301 2.7012-1.4326 0.01625-1.8009-1.0136-1.8281-2.7012-0.0257-1.5875 0.34082-2.6774 1.8281-2.7031zm18.527 0.00977c1.384-0.02381 1.7771 0.99028 1.8281 2.7012 0.04868 1.6334-0.38803 2.6869-1.8281 2.7031-1.4326 0.01626-1.8028-1.0155-1.8301-2.7031-0.0257-1.5875 0.34277-2.6755 1.8301-2.7012zm-6.0508 0.0039c1.384-0.02381 1.7791 0.99029 1.8301 2.7012 0.04868 1.6334-0.38999 2.6869-1.8301 2.7031-1.4326 0.01625-1.8009-1.0155-1.8281-2.7031-0.0257-1.5875 0.34082-2.6755 1.8281-2.7012zm424.87 0.02149c1.384-0.02381 1.7791 0.99028 1.8301 2.7012 0.04876 1.6334-0.38996 2.6869-1.8301 2.7031-1.4326 0.01621-1.8009-1.0155-1.8281-2.7031-0.02646-1.5875 0.34103-2.6755 1.8281-2.7012zm-412.51 0.03906c1.384-0.02381 1.7791 0.99224 1.8301 2.7031 0.04868 1.6334-0.38999 2.6869-1.8301 2.7031-1.4326 0.01625-1.8028-1.0155-1.8301-2.7031-0.02571-1.5875 0.34277-2.6774 1.8301-2.7031zm406.93 0.00195c1.0077 0.1996 1.3166 1.1644 1.3613 2.6641 0.04875 1.6334-0.38997 2.685-1.8301 2.7012-1.4326 0.01625-1.8009-1.0136-1.8281-2.7012-0.01888-1.1332 0.17186-2.0058 0.81836-2.4258l1.4785-0.23829zm11.885 0.02344c1.384-0.02381 1.7771 0.99224 1.8281 2.7031 0.04875 1.6334-0.38805 2.685-1.8281 2.7012-1.4326 0.01625-1.8029-1.0136-1.8301-2.7012-0.02643-1.5875 0.34295-2.6774 1.8301-2.7031zm-412.63 0.01172c1.384-0.02381 1.7771 0.99223 1.8281 2.7031 0.04868 1.6334-0.38804 2.685-1.8281 2.7012-1.4326 0.01625-1.8028-1.0136-1.8301-2.7012-0.02571-1.5875 0.34277-2.6774 1.8301-2.7031zm418.82 0.02539c1.384-0.02381 1.7791 0.99029 1.8301 2.7012 0.04875 1.6334-0.38997 2.6869-1.8301 2.7031-1.4326 0.01625-1.8009-1.0155-1.8281-2.7031-0.02643-1.5875 0.34066-2.6755 1.8281-2.7012zm12.477 0.01172c1.384-0.02381 1.7791 0.99223 1.8301 2.7031 0.04876 1.6334-0.39 2.685-1.8301 2.7012-1.4326 0.01625-1.8009-1.0136-1.8281-2.7012-0.02646-1.5875 0.34099-2.6774 1.8281-2.7031zm-418.94 0.02539c1.384-0.02381 1.7791 0.99224 1.8301 2.7031 0.04868 1.6334-0.38998 2.685-1.8301 2.7012-1.4326 0.01625-1.8009-1.0136-1.8281-2.7012-0.0257-1.5875 0.34081-2.6774 1.8281-2.7031zm-6.0488 0.00391c1.384-0.02381 1.7791 0.99028 1.8301 2.7012 0.04868 1.6334-0.38999 2.6869-1.8301 2.7031-1.4326 0.01626-1.8029-1.0155-1.8301-2.7031-0.0257-1.5875 0.34277-2.6755 1.8301-2.7012zm418.82 0.02539c1.384-0.02381 1.7771 0.99028 1.8281 2.7012 0.04876 1.6334-0.38805 2.6869-1.8281 2.7031-1.4326 0.01626-1.8029-1.0155-1.8301-2.7031-0.02646-1.5875 0.34257-2.6755 1.8301-2.7012zm18.525 0.00781c1.384-0.02381 1.7791 0.99224 1.8301 2.7031 0.04875 1.6334-0.38997 2.685-1.8301 2.7012-1.4326 0.01625-1.8029-1.0136-1.8301-2.7012-0.02646-1.5875 0.34299-2.6774 1.8301-2.7031zm-6.0488 0.00391c1.384-0.02382 1.7772 0.99223 1.8281 2.7031 0.04876 1.6334-0.38801 2.685-1.8281 2.7012-1.4326 0.01625-1.8029-1.0136-1.8301-2.7012-0.02645-1.5875 0.34299-2.6774 1.8301-2.7031zm-418.94 0.02539c1.384-0.02381 1.7771 0.99028 1.8281 2.7012 0.04868 1.6334-0.38804 2.6869-1.8281 2.7031-1.4326 0.01626-1.8028-1.0155-1.8301-2.7031-0.02571-1.5875 0.34277-2.6755 1.8301-2.7012zm431.29 0.03711c1.384-0.02382 1.7791 0.99028 1.8301 2.7012 0.04876 1.6334-0.38996 2.6869-1.8301 2.7031-1.4326 0.01625-1.8009-1.0155-1.8281-2.7031-0.02646-1.5875 0.34103-2.6755 1.8281-2.7012zm6.1875 0.03711c1.384-0.02382 1.7771 0.99028 1.8281 2.7012 0.04875 1.6334-0.38801 2.6869-1.8281 2.7031-1.4326 0.01625-1.8029-1.0155-1.8301-2.7031-0.02645-1.5875 0.34299-2.6755 1.8301-2.7012zm12.354 0.06054c1.384-0.02381 1.7771 0.99224 1.8281 2.7031 0.04876 1.6334-0.38805 2.6869-1.8281 2.7031-1.4326 0.01625-1.8029-1.0155-1.8301-2.7031-0.02646-1.5875 0.34295-2.6774 1.8301-2.7031zm-6.0508 0.00391c1.384-0.02381 1.7791 0.99224 1.8301 2.7031 0.04873 1.6334-0.39001 2.685-1.8301 2.7012-1.4326 0.01626-1.8009-1.0135-1.8281-2.7012-0.02645-1.5875 0.341-2.6774 1.8281-2.7031zm12.354 0.0625c1.384-0.02381 1.7771 0.99223 1.8281 2.7031 0.04875 1.6334-0.38805 2.685-1.8281 2.7012-1.4326 0.01626-1.8028-1.0136-1.8301-2.7012-0.02645-1.5875 0.34295-2.6774 1.8301-2.7031zm-79.289 0.48437c0.18869 0.44691 0.27753 1.0321 0.29883 1.748 0.04875 1.6334-0.38805 2.6869-1.8281 2.7031-1.4326 0.01621-1.8029-1.0155-1.8301-2.7031-0.00752-0.45368 0.02365-0.8598 0.09765-1.2188l3.2617-0.5293zm-5.3984 0.87696c0.0409 0.27815 0.07789 0.56082 0.08789 0.89453 0.04876 1.6334-0.39 2.6869-1.8301 2.7031-1.4326 0.01625-1.8009-1.0155-1.8281-2.7031-2e-3 -0.1101 0.00386-0.21131 0.00586-0.31641l3.5644-0.57812zm-6.2168 1.0078c0.01008 1.527-0.44344 2.5078-1.8281 2.5234-1.1926 0.01352-1.629-0.72862-1.7637-1.9414l3.5918-0.58203zm-6.127 0.99414c-0.18104 0.94752-0.69369 1.5213-1.75 1.5332-0.84583 0.0096-1.3151-0.35378-1.5684-0.99414l3.3184-0.53906zm-6.959 1.1289c-0.27372 0.20788-0.62635 0.33289-1.0938 0.33789-0.21326 0.0024-0.39594-0.02566-0.56445-0.06836l1.6582-0.26953zm-513.97 50.711l-0.0918 5.4707a8.0336 8.0336 0 0 0 -4.2793 2.7246l-1.9746-1.8496 6.3457-6.3457zm387.67 1.5625l2.7598 0.43555-1.4746 2.6992a8.1759 8.1759 0 0 0 -7.0059 4.8457l-1.2695-0.2793-0.17969-2.0547 0.75977-1.293 0.14062-3.6113c2.2057-0.23533 4.3326-0.4826 6.2695-0.74219zm-45.242 2.1152c2.5943 0.20042 5.5374 0.29255 8.666 0.30859l-0.23828 1.0195a8.1759 8.1759 0 0 0 -1.0215 -0.07226 8.1759 8.1759 0 0 0 -7.7598 5.6211l-0.38476-1.1074 0.4707-5.6484 0.26758-0.12109z" stroke="#000" stroke-width="1.0016"/>
</svg>
