<svg width="2560" height="1700" xmlns="http://www.w3.org/2000/svg"><path style="fill:none;stroke:#000;stroke-width:1px;stroke-linecap:butt;stroke-linejoin:miter;stroke-opacity:1" d="M64.975 216.3184c.3977-.9544 2.545-3.2607 2.545-3.2607s.0795-.0795 0 0c-.0796.0795 1.8291-1.511 3.022-2.0678 1.193-.5567 11.134-4.5331 11.134-4.5331l1.5907-.3976 2.1472-.6363 6.3623-3.9764 1.511-1.0339s6.601-3.1812 6.9191-3.3402c.3181-.159 15.349-4.374 15.349-4.374 2.2269-.4773 11.0546-2.2269 11.6113-2.3064.5567-.0795 6.76-.8749 6.76-.8749l7.5551-.9543 4.8513-.6362 4.374-.3181 4.7718-.4772 9.0663-.5567 22.8248-.5567.318-.3977 3.9765-.0795.3977.3977 30.8571.159 39.1282.1591.8748-.159.0795-.6363 3.3403.0795.159.6362 40.8778.2386 5.567-4.4536 1.9087.0795-2.704 4.5332 115.635.4771 28.7098.0795s.5567-.6362 1.352-.7953c.7953-.159 7.5553-.0795 7.5553-.0795l1.7496.3182.7953.318.2386.1591 32.8454.159 77.6996.0796 5.249-3.897h2.0677l-2.704 4.2151 61.0781.2386 22.9839.0795s4.4536-.3181 5.726-.5567a73946.907 73946.907 0 0 1 11.0545-2.0678s-1.0338.2386 0 0c1.0339-.2386 12.4065-3.8969 12.4065-3.8969l6.6804-3.2607 24.1768-14.5537 26.7217-16.1444 31.1753-18.9278 21.95-13.52 16.3829-9.8615s2.3063-1.4315 3.022-1.5906c.7158-.159 3.1017-.3976 3.1017-.3976l35.3903.2386 1.511-.0795-16.2238 23.0633-19.246 28.9485-20.916 31.2548-5.9647 9.8616 3.022.159 1.7497 3.0221 12.645 1.352 1.034.0795 30.9366-2.1472 13.52-.8749s4.8512-.2385 5.6465-.2385c.7953 0 8.112-.2386 8.112-.2386h5.4079l15.5081.4772-10.816 1.67-46.9219 5.3285-4.056.4771 2.863 1.193.1591.8748-.6362 2.3063-1.5906 1.5906s-4.6922 1.9882-5.0898 1.9087c-.3977-.0795-5.408 1.7496-5.408 1.7496s-5.1694 1.034-5.8851 1.193c-.7158.159-5.726.7953-5.726.7953s-4.1356.4771-6.76.8748c-2.6245.3976-6.1238.5567-6.1238.5567l-8.0324.9543-13.4403 1.9882-7.0781.7158-10.3388 1.4315-13.2017 1.6701-26.6422 3.5788-34.754 4.5332-33.0045 3.9764-31.732 2.863-15.5877.6363-21.7909.8748h-8.7481l2.4654 4.4536h-2.863l-4.3742-4.374-26.0854-.3182-30.1414.0795-22.3476-.3976 2.5449 1.9882-3.0221.8748 1.9087 1.511-13.9176 2.4655 1.034 3.022s4.9307-1.352 5.726-1.4315c.7953-.0795 5.6465.3977 5.6465.3977l5.4875 1.1134s1.9882.7157 2.6245 1.352c.6362.6362 1.9087 3.022 1.511 4.1355-.3976 1.1134-2.704 3.5788-2.704 3.5788l-2.2268 1.1134-4.1355.159s-5.8056-.4772-6.5213-.4772c-.7158 0-2.7835-.7952-2.7835-.7952s-2.0678-.3977-2.7835-.7953c-.7158-.3977-1.511-.8748-1.511-.8748l-1.7497.159s-.3977.4772-1.5906 1.193c-1.193.7157-3.022 1.4315-3.022 1.4315l-4.3742.159-6.2032-.3976s-4.7718-.5567-5.0103-1.0339c-.2386-.4772-3.3402-2.545-3.9765-2.6244-.6362-.0795-2.704-.3977-3.2607-1.193-.5567-.7953-3.9764-.7157-3.9764-.7157s-2.0677 1.9087-2.3859 2.0677c-.318.159-2.7835.3977-2.7835.3977l-5.0103.159s-4.6127-.3976-6.1237-.6362c-1.511-.2386-4.1355-2.1473-4.6922-2.704-.5567-.5567-.7158-2.545-.7158-2.545s1.352-2.863 1.8292-3.4197c.4772-.5567-11.5317.3182-11.5317.3182l-3.4992.3976-1.1134 2.863 4.5331-.0795-.0795.4772-2.4654.6362-27.2784.4772v.7158h-1.5906l-.318-.5567s-26.006-.2386-27.2785-.3181c-1.2724-.0795-10.6568-.5567-11.6112-.7158-.9543-.159-4.215-.7158-4.215-.7158s-.7953-1.0338-1.352-1.7496c-.5567-.7158-.9543-1.4315-.9543-1.4315l-22.8248-.3181-10.7364-.3977-6.5213-.9543-1.2725-.4772s-2.0678-3.4197-2.4654-4.374c-.3976-.9544.3976-1.5907.3976-1.5907l-27.517.0795H239.859l-33.4021-.0795-25.0516-.2385-25.4492-1.511-6.6804-.6363-.2386 4.5331-.0795.7953-2.9426-.0795-.0795 1.6701-1.9882.4772.0795.6362 2.7835.159 1.7497.3182.318 1.193-2.7834 2.1472s2.0677.7158 2.9425 1.2725 1.5906 2.4654 1.6701 2.863c.0795.3976-.159 2.2268-.5567 2.4654-.3976.2386-1.9087 1.2725-2.5449 1.5906-.6362.318-2.1473.6362-2.1473.6362h-4.4536s-3.1016-.5567-3.8174-.7953c-.7157-.2386-3.2606-2.0677-3.2606-2.545 0-.477-.3182-1.1133-.3182-1.1133s1.8292-3.3402 2.863-3.7379c1.034-.3976 3.1812-1.0338 3.1812-1.0338v-.9544l-5.6465-.0795v-.7953l-4.215-.0795s.159-1.4315.6362-1.8291c.4772-.3977 3.6583-1.034 3.6583-1.034v-.318h-1.511l4.056-1.1134.2385-1.193-10.4183-1.0338 1.9087-5.1694-3.7378-.0795s-8.5096-1.193-9.5435-1.2725c-1.0339-.0795-14.7128-3.3402-14.7128-3.3402s-8.0324-2.1473-9.7025-2.545c-1.6701-.3976-8.9868-2.2267-10.2592-2.6244-1.2725-.3976-8.9073-2.863-9.464-3.2606-.5567-.3977-3.8173-2.4654-4.8512-3.6584-1.0339-1.1929-1.352-2.4654-1.2725-2.863"/><path style="fill:#000;stroke-width:.951155" d="M462.2615 258.0908c-6.41-3.3804-7.0585-3.6567-8.581-3.6567-.8102 0-2.5408.6996-3.8458 1.5546-2.8255 1.8514-12.9927 1.408-16.4378-.7168-2.0423-1.2596-2.139-2.1594-.6274-5.8314.6077-1.4761.0413-1.6645-5.0045-1.6645-7.7626 0-11.4798.8676-12.101 2.8245-.462 1.4556-2.4813 1.7022-17.3867 2.1233-9.2752.262-24.6732.2104-34.2177-.1148-16.2759-.5545-17.4418-.717-18.7718-2.6158-1.3568-1.937-2.2852-2.039-21.483-2.3587-18.7566-.3123-20.1558-.4581-21.46-2.2364-.7674-1.0463-1.2008-2.6514-.9632-3.5669.4081-1.572-2.8377-1.6645-58.3748-1.6645-51.7073 0-79.4728-.7233-91.5353-2.3847-3.4409-.4739-3.5668-.39-3.5668 2.3735 0 1.5756-.4586 2.8647-1.0191 2.8647-1.3169 0-3.7367 2.4198-3.7367 3.7367 0 .5605.9416 1.019 2.0925 1.019 1.6276 0 1.839.2537.9512 1.1414-1.6058 1.6058-1.4241 2.4454.673 3.111 2.6237.8327 3.3744 3.5414 1.3846 4.9963-2.3165 1.694-9.0028 1.516-11.6081-.3089-2.0677-1.4483-2.0942-1.6114-.5398-3.329.899-.9934 2.2102-1.8061 2.9138-1.8061.7036 0 1.2793-.856 1.2793-1.9023 0-1.6323-.6413-1.9054-4.518-1.924l-4.518-.0217 3.0913-1.5239c5.226-2.5761 3.6103-5.0908-3.2708-5.0908-2.603 0-3.2239-.3192-2.7757-1.4268.3175-.7847.8137-2.0077 1.1026-2.7177.4025-.9894-1.1568-1.4435-6.6731-1.9434-7.513-.6808-36.8118-7.5955-46.596-10.997-5.4928-1.9096-10.0324-5.0873-10.0324-7.0227 0-2.1252 3.4208-4.4352 10.7803-7.2797 4.272-1.651 8.6233-3.4699 9.6695-4.0416 19.2178-10.5026 28.0435-12.9484 61.3496-17.0012 10.2785-1.2507 161.9742-2.7048 162.4858-1.5575.1727.3872 60.9188.699 134.9913.693 105.0536-.009 134.9941-.2681 136.1172-1.1796 1.2057-.9784 1.3353-.8899.7973.5448-.6145 1.6386 1.4387 1.6992 47.142 1.3922 45.6097-.3064 48.1194-.415 55.1483-2.3857 14.8717-4.1699 15.4882-4.5208 123.8455-70.492l18.9732-11.5515h18.3597c10.0978 0 18.3596.2544 18.3596.5653 0 .311-2.5042 4.0561-5.565 8.3226-5.7073 7.9557-49.4892 73.496-53.2286 79.6818-2.4625 4.0735-2.5427 4.6435-.6536 4.6435.7847 0 2.215.7883 3.1785 1.7518 2.6914 2.6913 12.4895 3.1492 33.9185 1.585 10.4617-.7637 25.8695-1.6017 34.2397-1.8623l15.2184-.4738-26.432 3.1832c-14.5376 1.7508-26.6797 3.4309-26.9823 3.7336-.3027.3027.5702.8316 1.9397 1.1753 7.7635 1.9485-4.0175 7.2038-21.2887 9.4966-40.5698 5.3856-120.3191 15.7285-138.3931 17.9486-31.8168 3.9081-75.3864 7.1674-96.3686 7.209-2.832.006-3.088.2255-2.4976 2.1463l.6579 2.14-2.398-2.2137-2.3979-2.2137-40.76-.4512c-31.2303-.3458-40.499-.1899-39.6436.6668 1.8949 1.8979-1.5424 4.4025-7.061 5.1451-5.1566.694-5.6737 1.2503-4.0252 4.3305.7932 1.482 1.407 1.643 3.391.8886 3.1176-1.1853 5.8366-1.162 11.7214.1 5.4763 1.1745 7.0573 3.6177 4.3073 6.6565-2.1012 2.3218-10.7324 2.5063-17.0415.3644-3.9043-1.3256-4.5349-1.3256-6.4274 0-3.2565 2.281-14.487 1.9427-19.2714-.5804z"/><path style="fill:#f9f9f9;stroke:#000;stroke-width:1px;stroke-linecap:butt;stroke-linejoin:miter;stroke-opacity:1" d="M466.373 246.3812c.8499-2.7383.7554-2.7383.8499-2.7383.0944 0 .8498-.1417.8498-.1417v-.5193l-.8498-.4721.1888-.3305 2.0301-.0944 4.5796 2.0773 2.5494 1.5108 2.455 4.4851-2.3134.4722-2.219-1.0387-.8025-1.8413-2.5023-.3777-2.3133.2361-1.0387.6138s-3.3048-.3305-3.7297-.3305c-.425 0-2.3134.236-2.3134.236l-2.4078.897-1.983 1.3692-.9914.1888.0472-.9442 1.2275-.2833.3305-.4249-.8026-.0944-.0944-1.8884z"/><path style="fill:#fff;stroke:#000;stroke-width:.2;stroke-linecap:butt;stroke-linejoin:miter;stroke-miterlimit:4;stroke-dasharray:none;stroke-opacity:1" d="M171.1823 207.9105c.6465 0 1.1545 0 1.3392.1847.1847.1848.3694.4157.1385.6466-.2309.2309-1.1083.508-1.3392.4156-.2309-.0924-.4618-.1386-.7389-.4156-.277-.2771.1386-.6466.1386-.6466zM682.569 207.648c.6465 0 1.1545 0 1.3392.1847.1848.1847.3695.4156.1386.6465-.231.2309-1.1083.508-1.3392.4156-.231-.0924-.4618-.1385-.7389-.4156-.277-.277.1385-.6465.1385-.6465z"/><path style="fill:#fff;stroke:#000;stroke-width:.3;stroke-linecap:butt;stroke-linejoin:miter;stroke-miterlimit:4;stroke-dasharray:none;stroke-opacity:1" d="M214.2696 211.4295c1.4617-.1994.9302-.133 1.4617-.1994.5315-.0664.3322 0 1.1295.2658.7973.2658 1.063.1993 1.063.465 0 .2658-.1328-.3321 0 .2658.133.598.133-.2657.133.7309 0 .9966.1993.1329 0 1.063-.1994.9302.3986.598-.1994.9302-.598.3322-.465.3322-1.3952.3986-.9302.0664.0664.2658-.9302.0664-.9966-.1993-.1329.0664-.9966-.1993s-.3986.2658-.8637-.2657c-.4651-.5316-.2658 0-.4651-.5316-.1993-.5315-.0664-.0664-.1993-.598-.133-.5315-.0664-.3321.0664-1.063.1328-.7308 0-.598.1328-.7308.133-.1329 1.0631-.598 1.0631-.598zM222.2696 211.4295c1.4617-.1994.9302-.133 1.4617-.1994.5315-.0664.3322 0 1.1295.2658.7973.2658 1.063.1993 1.063.465 0 .2658-.1328-.3321 0 .2658.133.598.133-.2657.133.7309 0 .9966.1993.1329 0 1.063-.1994.9302.3986.598-.1994.9302-.598.3322-.465.3322-1.3952.3986-.9302.0664.0664.2658-.9302.0664-.9966-.1993-.1329.0664-.9966-.1993s-.3986.2658-.8637-.2657c-.4651-.5316-.2658 0-.4651-.5316-.1993-.5315-.0664-.0664-.1993-.598-.133-.5315-.0664-.3321.0664-1.063.1328-.7308 0-.598.1328-.7308.133-.1329 1.0631-.598 1.0631-.598zM230.2696 211.4295c1.4617-.1994.9302-.133 1.4617-.1994.5315-.0664.3322 0 1.1295.2658.7973.2658 1.063.1993 1.063.465 0 .2658-.1328-.3321 0 .2658.133.598.133-.2657.133.7309 0 .9966.1993.1329 0 1.063-.1994.9302.3986.598-.1994.9302-.598.3322-.465.3322-1.3952.3986-.9302.0664.0664.2658-.9302.0664-.9966-.1993-.1329.0664-.9966-.1993s-.3986.2658-.8637-.2657c-.4651-.5316-.2658 0-.4651-.5316-.1993-.5315-.0664-.0664-.1993-.598-.133-.5315-.0664-.3321.0664-1.063.1328-.7308 0-.598.1328-.7308.133-.1329 1.0631-.598 1.0631-.598zM238.2696 211.4295c1.4617-.1994.9302-.133 1.4617-.1994.5315-.0664.3322 0 1.1295.2658.7973.2658 1.063.1993 1.063.465 0 .2658-.1328-.3321 0 .2658.133.598.133-.2657.133.7309 0 .9966.1993.1329 0 1.063-.1994.9302.3986.598-.1994.9302-.598.3322-.465.3322-1.3952.3986-.9302.0664.0664.2658-.9302.0664-.9966-.1993-.1329.0664-.9966-.1993s-.3986.2658-.8637-.2657c-.4651-.5316-.2658 0-.4651-.5316-.1993-.5315-.0664-.0664-.1993-.598-.133-.5315-.0664-.3321.0664-1.063.1328-.7308 0-.598.1328-.7308.133-.1329 1.0631-.598 1.0631-.598zM246.2696 211.4295c1.4617-.1994.9302-.133 1.4617-.1994.5315-.0664.3322 0 1.1295.2658.7973.2658 1.063.1993 1.063.465 0 .2658-.1328-.3321 0 .2658.133.598.133-.2657.133.7309 0 .9966.1993.1329 0 1.063-.1994.9302.3986.598-.1994.9302-.598.3322-.465.3322-1.3952.3986-.9302.0664.0664.2658-.9302.0664-.9966-.1993-.1329.0664-.9966-.1993s-.3986.2658-.8637-.2657c-.4651-.5316-.2658 0-.4651-.5316-.1993-.5315-.0664-.0664-.1993-.598-.133-.5315-.0664-.3321.0664-1.063.1328-.7308 0-.598.1328-.7308.133-.1329 1.0631-.598 1.0631-.598zM254.2696 211.4295c1.4617-.1994.9302-.133 1.4617-.1994.5315-.0664.3322 0 1.1295.2658.7973.2658 1.063.1993 1.063.465 0 .2658-.1328-.3321 0 .2658.133.598.133-.2657.133.7309 0 .9966.1992.1329 0 1.063-.1994.9302.3986.598-.1994.9302-.598.3322-.465.3322-1.3952.3986-.9302.0664.0664.2658-.9302.0664-.9966-.1993-.1329.0664-.9966-.1993s-.3986.2658-.8637-.2657c-.4651-.5316-.2658 0-.4651-.5316-.1993-.5315-.0664-.0664-.1993-.598-.133-.5315-.0664-.3321.0664-1.063.1328-.7308 0-.598.1328-.7308.133-.1329 1.0631-.598 1.0631-.598zM262.2696 211.4295c1.4617-.1994.9302-.133 1.4617-.1994.5315-.0664.3322 0 1.1295.2658.7973.2658 1.063.1993 1.063.465 0 .2658-.1328-.3321 0 .2658.133.598.133-.2657.133.7309 0 .9966.1992.1329 0 1.063-.1994.9302.3986.598-.1994.9302-.598.3322-.465.3322-1.3952.3986-.9302.0664.0664.2658-.9302.0664-.9966-.1993-.1329.0664-.9966-.1993s-.3986.2658-.8637-.2657c-.4651-.5316-.2658 0-.4651-.5316-.1993-.5315-.0664-.0664-.1993-.598-.133-.5315-.0664-.3321.0664-1.063.1329-.7308 0-.598.1329-.7308.1328-.1329 1.063-.598 1.063-.598zM270.2696 211.4295c1.4617-.1994.9302-.133 1.4617-.1994.5315-.0664.3322 0 1.1295.2658.7973.2658 1.063.1993 1.063.465 0 .2658-.1328-.3321 0 .2658.133.598.133-.2657.133.7309 0 .9966.1992.1329 0 1.063-.1994.9302.3986.598-.1994.9302-.598.3322-.465.3322-1.3952.3986-.9302.0664.0664.2658-.9302.0664-.9966-.1993-.1329.0664-.9966-.1993s-.3986.2658-.8637-.2657c-.4651-.5316-.2658 0-.4651-.5316-.1993-.5315-.0664-.0664-.1993-.598-.133-.5315-.0664-.3321.0664-1.063.1329-.7308 0-.598.1329-.7308.1328-.1329 1.063-.598 1.063-.598zM278.2696 211.4295c1.4617-.1994.9302-.133 1.4617-.1994.5315-.0664.3322 0 1.1295.2658.7973.2658 1.063.1993 1.063.465 0 .2658-.1328-.3321 0 .2658.133.598.133-.2657.133.7309 0 .9966.1992.1329 0 1.063-.1994.9302.3986.598-.1994.9302-.598.3322-.465.3322-1.3952.3986-.9302.0664.0664.2658-.9302.0664-.9966-.1993-.1329.0664-.9966-.1993s-.3986.2658-.8637-.2657c-.4651-.5316-.2658 0-.4651-.5316-.1993-.5315-.0664-.0664-.1993-.598-.133-.5315-.0664-.3321.0664-1.063.1329-.7308 0-.598.1329-.7308.1328-.1329 1.063-.598 1.063-.598zM286.2696 211.4295c1.4617-.1994.9302-.133 1.4617-.1994.5315-.0664.3322 0 1.1295.2658.7973.2658 1.063.1993 1.063.465 0 .2658-.1328-.3321 0 .2658.133.598.133-.2657.133.7309 0 .9966.1992.1329 0 1.063-.1994.9302.3986.598-.1994.9302-.598.3322-.465.3322-1.3952.3986-.9302.0664.0664.2658-.9302.0664-.9966-.1993-.1329.0664-.9966-.1993s-.3986.2658-.8637-.2657c-.4651-.5316-.2658 0-.4651-.5316-.1993-.5315-.0664-.0664-.1993-.598-.133-.5315-.0664-.3321.0664-1.063.1329-.7308 0-.598.1329-.7308.1328-.1329 1.063-.598 1.063-.598zM294.2696 211.4295c1.4617-.1994.9302-.133 1.4617-.1994.5315-.0664.3322 0 1.1295.2658.7973.2658 1.063.1993 1.063.465 0 .2658-.1328-.3321 0 .2658.133.598.133-.2657.133.7309 0 .9966.1992.1329 0 1.063-.1994.9302.3986.598-.1994.9302-.598.3322-.465.3322-1.3952.3986-.9302.0664.0664.2658-.9302.0664-.9966-.1993-.1329.0664-.9966-.1993s-.3986.2658-.8637-.2657c-.4651-.5316-.2658 0-.4651-.5316-.1993-.5315-.0664-.0664-.1993-.598-.133-.5315-.0664-.3321.0664-1.063.1329-.7308 0-.598.1329-.7308.1328-.1329 1.063-.598 1.063-.598zM302.2696 211.4295c1.4617-.1994.9302-.133 1.4617-.1994.5315-.0664.3322 0 1.1295.2658.7973.2658 1.063.1993 1.063.465 0 .2658-.1328-.3321 0 .2658.133.598.133-.2657.133.7309 0 .9966.1992.1329 0 1.063-.1994.9302.3986.598-.1994.9302-.598.3322-.465.3322-1.3952.3986-.9302.0664.0664.2658-.9302.0664-.9966-.1993-.1329.0664-.9966-.1993s-.3986.2658-.8637-.2657c-.4651-.5316-.2658 0-.4651-.5316-.1993-.5315-.0664-.0664-.1993-.598-.133-.5315-.0664-.3321.0664-1.063.1329-.7308 0-.598.1329-.7308.1328-.1329 1.063-.598 1.063-.598z"/><path style="fill:none;stroke:#000;stroke-width:1px;stroke-linecap:butt;stroke-linejoin:miter;stroke-opacity:1" d="M310.7884 185.06c-.6677 1.5132-.535.93-.681 1.6599"/><path style="fill:none;stroke:#000;stroke-width:1px;stroke-linecap:butt;stroke-linejoin:miter;stroke-opacity:1" d="M311.7673 184.1661c-.1084.5212-.4942.919-.681 1.4046-.155.403.3714-.327-.0426.4256-.3392.6168-.3675.5684-.9364.7236"/><path style="fill:none;stroke:#000;stroke-width:1px;stroke-linecap:butt;stroke-linejoin:miter;stroke-opacity:1" d="M309.171 187.2732c1.7462-1.9254 1.7509-1.0116 1.6174-2.2133-.8413.2988-1.553 1.379-2.0856 2.0005"/><path style="fill:none;stroke:#000;stroke-width:1px;stroke-linecap:butt;stroke-linejoin:miter;stroke-opacity:1" d="M309.852 185.5707c-1.894 1.7092-2.5207 1.6856-1.1492 1.4897M313.4698 182.9318c-.5736 1.434.2602-.6202-2.0005 3.4901-.1714.3118-.2837.6527-.4256.979M313.4698 182.9318c-1.4148.0707-.8207-.143-2.2558 1.362-.3.3147-.3154.4354-.4256.7661M313.4698 182.9318c-.9289 1.2772-.4081.6635-1.5748 1.8302l-.1703.1703c-.085.085-.136.239-.2553.2553-.2289.0312-.454-.085-.681-.1276"/><path style="fill:none;stroke:#000;stroke-width:1px;stroke-linecap:butt;stroke-linejoin:miter;stroke-opacity:1" d="M314.8545 182.0414c-.4048.1975-.8484.3301-1.2145.5925-.2777.199-.4443.5196-.681.7661-.1044.1088-.2308.1944-.3405.298-.4863.4593-.9407.98-1.3194 1.5322-.8997 1.312-.2088.577-1.1917 1.4897M310.7884 185.06c.055-.1413-1.1756-.5372-.681-.0427.0284.0284.045.0826.085.0851.1988.0125.3973-.0283.596-.0425M309.171 187.2732c4.4476-.3704 8.9039.1966 13.322.6384.791.0791 1.5884-.085 2.3834-.085.8659 0 1.7307.061 2.5963.085.241.007.4888.0552.7236 0 .1616-.038.3081-.1258.4681-.1702.1158-.1357.2571-.0174.383-.0426.5987-.1198 1.2181-.298 1.8303-.298"/><path style="fill:none;stroke:#000;stroke-width:1px;stroke-linecap:butt;stroke-linejoin:miter;stroke-opacity:1" d="M328.6644 187.7414c-.085-.1135-.1144-.3244-.2553-.3405-.9593-.9397-2.0199.1027-3.022 0-.455-.0467-.9064-.1276-1.362-.1703-1.0354-.097-2.0687-.1277-3.107-.1277-.242 0-1.3588-.002-1.5322.0851M328.6644 187.7414c5.5977-.3844 1.0191-.1459 6.4598-.227 1.5218-.0228 3.9458-.2107 5.822-.1214 3.5381.1685 3.589.2042 6.0645.3033.9916.0397 1.9792-.182 2.9716-.182.885 0 2.9422.4319 3.9419.182.0277-.007.0338-.051.0607-.0606.3324-.121.7286-.2426 1.0916-.2426"/><path style="fill:none;stroke:#000;stroke-width:1px;stroke-linecap:butt;stroke-linejoin:miter;stroke-opacity:1" d="M352.2868 187.6356c1.5369-.0113 3.072.0606 4.609.0606h3.2748c.8288.0404 1.6567.1152 2.4865.1213 1.9002.0141 3.8003-.0607 5.7006-.0607.9503 0 1.9002.0809 2.8503.0607.9518-.0203 1.8985-.1635 2.8503-.182 2.1828-.0421 4.3668.0386 6.5497 0 1.2546-.022 2.5056-.1493 3.76-.1819.324-.008.7007-.119.9703.0606.0606.0404.1304.0698.182.1213.0451.0452-.003.182.0605.182.0202 0 0-.0404 0-.0607"/><path style="fill:none;stroke:#000;stroke-width:1px;stroke-linecap:butt;stroke-linejoin:miter;stroke-opacity:1" d="M385.5808 187.7568c1.3726 1.3747.1732.2021 5.64.0608.4888-.0126.9704-.1213 1.4555-.182 1.9407-.0606 3.8805-.165 5.822-.182.4063-.004.8127.192 1.2129.1214 1.0113-.1785 2.0073-.48 3.0322-.5458 1.9568-.1258 3.925-.1119 5.8826 0 6.6486.3799-1.1002-.1202 3.2748.3032.2213.0214.4458-.0214.6671 0 .8045.0778 1.7565.298 2.547.4245.2796.0447.5661 0 .8491 0 .5458 0 1.1022-.107 1.6374 0 .3485.0697-.0174.0607.182.0607"/><path style="fill:none;stroke:#000;stroke-width:1px;stroke-linecap:butt;stroke-linejoin:miter;stroke-opacity:1" d="M411.173 187.8176c-3.1375.1729-6.2665-.1213-9.4-.1213-1.6026 0-.9889.1332-1.8799-.1213M388.977 187.6963h-3.8206c-1.0792 0-.67.12-1.2736-.1213"/><path style="fill:none;stroke:#000;stroke-width:1px;stroke-linecap:butt;stroke-linejoin:miter;stroke-opacity:1" d="M385.5808 187.7568c2.6818-.4939 1.5636-.6714 3.3962-.0605M417.7834 187.8176c.8692.101 1.736.2254 2.6077.3032 1.0478.0935 2.1029-.0696 3.1535-.1213 1.5318-.0753.9803-.0606 2.3045-.0606.9347 0 1.8593.0497 2.7897.1213 1.5923.1224 3.1946-.0448 4.791 0 .6696.0188 1.3316.1677 2.0013.1819.2858.006.5635-.1058.849-.1213 1.5756-.0856 3.1527-.1507 4.7303-.182.4855-.01.9699.0607 1.4555.0607 2.264-.1415 4.5247-.3582 6.7922-.4245 1.213-.0355 2.426.1685 3.6387.1213 1.5364-.06 3.0716-.1684 4.609-.182 1.0412-.009 1.9281.182 2.911.182M435.4917 187.8782h-7.2167"/><path style="fill:none;stroke:#000;stroke-width:1px;stroke-linecap:butt;stroke-linejoin:miter;stroke-opacity:1" d="M420.9976 187.7569c-.1365-.4884-1.2108.2253-1.5162-.182-.0653-.087.1951-.1087.3033-.1212.1463-.017 2.203-.1986 2.4864-.1213.1137.031.1978.1292.3032.182.2211.1105.6065.0998.7884.1212 1.7034.2004 3.9227.5335 5.3368.849 1.0734.2396 2.096.6682 3.1535.9704.2173.062.4425.1468.6671.1212.262-.0298 2.4447-.4784 3.0323-.7277.3416-.145.6357-.3852.9703-.5458.1729-.083.3832-.0803.5458-.182.0383-.0238-.0271-.091-.0607-.1212-.486-.4374-.5823-.4816-1.213-.6671-.622-.183-.9302.3766-.4244.6064.3245.1476 1.4546-.194.1213-.0607M460.4168 187.6963c-.2426-.2224-1.056-.6906-.7277-.6671.5774.0413 1.0064.6285 1.5767.7277.4062.0707.8016-.2139 1.213-.2426.4642-.0324.9445-.0568 1.3948.0607.0978.0255.0972.2755 0 .3032-.2728.078-.976.1932-.849-.0606.1358-.2718.632-.184.9096-.0607.1443.0641-.211.3425-.3639.3033-.7098-.182-1.47-.405-2.0012-.9097-.5955-.5657 1.6681-.2695 1.1522.182-.213.1863-1.115-.0968-.849 0 .481.1748 1.0188.1215 1.5161.2425.2554.0621.4676.266.7277.3032.1282.0183-.4092-.1683-.3032-.2425.5432-.3802 1.695-.0673 2.1832 0 .1615.0223.6482.0606.4852.0606-.6082 0-2.2567-.2627-2.547-.3033-.2832-.0395-1.125-.1965-.8491-.1213.4972.1356 1.0145.1847 1.5161.3033.6108.1443 1.2152.3152 1.8194.4851.0435.0122.0962.0983.1212.0606.086-.1289-.4083-1.0959-.4851-1.1522-.1859-.1363-.444-.1241-.6671-.182-.3227-.0837-.6398-.199-.9703-.2425-.6005-.079-1.9222-.0606-2.5471-.0606-.4882 0-.8496-.0201-1.3342.0606-.1452.0242-.2792.098-.4245.1212-.124.0198-1.223.0101-1.5162.3033-.0143.0143.0404-.0004.0607 0 1.031.0198 2.0651-.0224 3.093.0606.9773.079 1.946.2503 2.9109.4245.4921.0889.9695.246 1.4555.3639.1811.0439.37.0593.5458.1213.713.2516.2809.2425.5458.2425"/><path style="fill:none;stroke:#000;stroke-width:1px;stroke-linecap:butt;stroke-linejoin:miter;stroke-opacity:1" d="M460.4168 187.6963c-.8562-.7779-1.9228-.2264-2.911-.6065-.379-.1458.5001-.182.6671-.182M467.1522 186.5746c-.001.293-.245.7126-.004.879 1.5075 1.0407 4.4224.6065 6.2464.6065 1.0916 0 2.1834-.019 3.2749 0 .324.006.648.094.9703.0606.5662-.0586 1.1288-.1747 1.698-.1819 1.2666-.016 2.5927.1213 3.8813.1213"/><path style="fill:none;stroke:#000;stroke-width:1px;stroke-linecap:butt;stroke-linejoin:miter;stroke-opacity:1" d="M468.186 187.0517c2.8366.84 1.2736.651 3.0863.584.2634-.01.7883-.203.7883.0605M483.2191 188.06c1.0513-.1212 2.096-.3916 3.1538-.3637 1.266.0333 2.4947.4903 3.76.5458 1.5158.0664 3.0314-.147 4.5483-.182 1.3137-.0303 2.628-.0118 3.942 0 3.9456.0356 7.8809.0606 11.8257.0606 1.2199 0 2.4128-.1327 3.6387-.0606.3683.0217.7237.1557 1.0916.182 1.7176.1226 3.4915-.0606 5.2155-.0606"/><path style="fill:none;stroke:#000;stroke-width:1px;stroke-linecap:butt;stroke-linejoin:miter;stroke-opacity:1" d="M492.68 187.8176c-2.1876-.0663-1.3498.084-2.5472-.182"/><path style="fill:#fff;stroke:#000;stroke-width:.3;stroke-linecap:butt;stroke-linejoin:miter;stroke-miterlimit:4;stroke-dasharray:none;stroke-opacity:1" d="M358.2696 211.4295c1.4617-.1994.9302-.133 1.4617-.1994.5315-.0664.3322 0 1.1295.2658.7973.2658 1.063.1993 1.063.465 0 .2658-.1328-.3321 0 .2658.133.598.133-.2657.133.7309 0 .9966.1992.1329 0 1.063-.1994.9302.3986.598-.1994.9302-.598.3322-.465.3322-1.3952.3986-.9302.0664.0664.2658-.9302.0664-.9966-.1993-.1329.0664-.9966-.1993s-.3986.2658-.8637-.2657c-.4651-.5316-.2658 0-.4651-.5316-.1993-.5315-.0664-.0664-.1993-.598-.133-.5315-.0664-.3321.0664-1.063.1329-.7308 0-.598.1329-.7308.1328-.1329 1.063-.598 1.063-.598zM374.2696 211.4295c1.4617-.1994.9302-.133 1.4617-.1994.5315-.0664.3322 0 1.1295.2658.7973.2658 1.063.1993 1.063.465 0 .2658-.1328-.3321 0 .2658.133.598.133-.2657.133.7309 0 .9966.1992.1329 0 1.063-.1994.9302.3986.598-.1994.9302-.598.3322-.465.3322-1.3952.3986-.9302.0664.0664.2658-.9302.0664-.9966-.1993-.1329.0664-.9966-.1993s-.3986.2658-.8637-.2657c-.4651-.5316-.2658 0-.4651-.5316-.1993-.5315-.0664-.0664-.1993-.598-.133-.5315-.0664-.3321.0664-1.063.1329-.7308 0-.598.1329-.7308.1328-.1329 1.063-.598 1.063-.598zM382.2696 211.4295c1.4617-.1994.9302-.133 1.4617-.1994.5315-.0664.3322 0 1.1295.2658.7973.2658 1.063.1993 1.063.465 0 .2658-.1328-.3321 0 .2658.133.598.133-.2657.133.7309 0 .9966.1992.1329 0 1.063-.1994.9302.3986.598-.1994.9302-.598.3322-.465.3322-1.3952.3986-.9302.0664.0664.2658-.9302.0664-.9966-.1993-.1329.0664-.9966-.1993s-.3986.2658-.8637-.2657c-.4651-.5316-.2658 0-.4651-.5316-.1993-.5315-.0664-.0664-.1993-.598-.133-.5315-.0664-.3321.0664-1.063.1329-.7308 0-.598.1329-.7308.1328-.1329 1.063-.598 1.063-.598z"/><path style="fill:none;stroke:none;stroke-width:1.1;stroke-linecap:butt;stroke-linejoin:miter;stroke-opacity:1;stroke-miterlimit:4;stroke-dasharray:none" d="M414.4734 518.1662c4.3205.149 3.4266-.2235 4.3205.149.894.3725.3725-.149.894.3725.5214.5214.8938.149.8938 1.4153 0 1.2664.0745 6.9278.0745 6.9278s.298-.8194 0 0-1.8623 1.5643-2.3837 1.6388c-.5215.0745-4.395.0745-4.395.0745s-2.2348-1.0429-2.6073-1.2664c-.3724-.2235-.3724-8.343-.3724-8.343s-.2235.6703.0745-.0746 3.5011-.8939 3.5011-.8939z"/><path style="fill:none;stroke:#fff;stroke-width:1px;stroke-linecap:butt;stroke-linejoin:miter;stroke-opacity:1" d="m420.9601 212.5108-.3039 4.52s-1.264 1.383-2.0942 1.383c-.8301 0-4.6845.3303-4.6845.3303l-2.5098-1.1604-.369-4.335-.101-4.114 1.5768-1.0512 1.999.0827 3.6273.01 2.1214.83z"/><path style="fill:#fff;stroke:#000;stroke-width:.3;stroke-linecap:butt;stroke-linejoin:miter;stroke-miterlimit:4;stroke-dasharray:none;stroke-opacity:1" d="M414.2696 211.4295c1.4617-.1994.9302-.133 1.4617-.1994.5315-.0664.3322 0 1.1295.2658.7973.2658 1.063.1993 1.063.465 0 .2658-.1328-.3321 0 .2658.133.598.133-.2657.133.7309 0 .9966.1992.1329 0 1.063-.1994.9302.3986.598-.1994.9302-.598.3322-.465.3322-1.3952.3986-.9302.0664.0664.2658-.9302.0664-.9966-.1993-.1329.0664-.9966-.1993s-.3986.2658-.8637-.2657c-.4651-.5316-.2658 0-.4651-.5316-.1993-.5315-.0664-.0664-.1993-.598-.133-.5315-.0664-.3321.0664-1.063.1329-.7308 0-.598.1329-.7308.1328-.1329 1.063-.598 1.063-.598zM426.2696 211.4295c1.4617-.1994.9302-.133 1.4617-.1994.5315-.0664.3322 0 1.1295.2658.7973.2658 1.063.1993 1.063.465 0 .2658-.1328-.3321 0 .2658.133.598.133-.2657.133.7309 0 .9966.1992.1329 0 1.063-.1994.9302.3986.598-.1994.9302-.598.3322-.465.3322-1.3952.3986-.9302.0664.0664.2658-.9302.0664-.9966-.1993-.1329.0664-.9966-.1993s-.3986.2658-.8637-.2657c-.4651-.5316-.2658 0-.4651-.5316-.1993-.5315-.0664-.0664-.1993-.598-.133-.5315-.0664-.3321.0664-1.063.1329-.7308 0-.598.1329-.7308.1328-.1329 1.063-.598 1.063-.598zM434.2696 211.4295c1.4617-.1994.9302-.133 1.4617-.1994.5315-.0664.3322 0 1.1295.2658.7973.2658 1.063.1993 1.063.465 0 .2658-.1328-.3321 0 .2658.133.598.133-.2657.133.7309 0 .9966.1992.1329 0 1.063-.1994.9302.3986.598-.1994.9302-.598.3322-.465.3322-1.3952.3986-.9302.0664.0664.2658-.9302.0664-.9966-.1993-.1329.0664-.9966-.1993s-.3986.2658-.8637-.2657c-.4651-.5316-.2658 0-.4651-.5316-.1993-.5315-.0664-.0664-.1993-.598-.133-.5315-.0664-.3321.0664-1.063.1329-.7308 0-.598.1329-.7308.1328-.1329 1.063-.598 1.063-.598zM442.2696 211.4295c1.4617-.1994.9302-.133 1.4617-.1994.5315-.0664.3322 0 1.1295.2658.7973.2658 1.063.1993 1.063.465 0 .2658-.1328-.3321 0 .2658.133.598.133-.2657.133.7309 0 .9966.1992.1329 0 1.063-.1994.9302.3986.598-.1994.9302-.598.3322-.465.3322-1.3952.3986-.9302.0664.0664.2658-.9302.0664-.9966-.1993-.1329.0664-.9966-.1993s-.3986.2658-.8637-.2657c-.4651-.5316-.2658 0-.4651-.5316-.1993-.5315-.0664-.0664-.1993-.598-.133-.5315-.0664-.3321.0664-1.063.1329-.7308 0-.598.1329-.7308.1328-.1329 1.063-.598 1.063-.598zM450.2696 211.4295c1.4617-.1994.9302-.133 1.4617-.1994.5315-.0664.3322 0 1.1295.2658.7973.2658 1.063.1993 1.063.465 0 .2658-.1328-.3321 0 .2658.133.598.133-.2657.133.7309 0 .9966.1992.1329 0 1.063-.1994.9302.3986.598-.1994.9302-.598.3322-.465.3322-1.3952.3986-.9302.0664.0664.2658-.9302.0664-.9966-.1993-.1329.0664-.9966-.1993s-.3986.2658-.8637-.2657c-.4651-.5316-.2658 0-.4651-.5316-.1993-.5315-.0664-.0664-.1993-.598-.133-.5315-.0664-.3321.0664-1.063.1329-.7308 0-.598.1329-.7308.1328-.1329 1.063-.598 1.063-.598zM458.2696 211.4295c1.4617-.1994.9302-.133 1.4617-.1994.5315-.0664.3322 0 1.1295.2658.7973.2658 1.063.1993 1.063.465 0 .2658-.1328-.3321 0 .2658.133.598.133-.2657.133.7309 0 .9966.1992.1329 0 1.063-.1994.9302.3986.598-.1994.9302-.598.3322-.465.3322-1.3952.3986-.9302.0664.0664.2658-.9302.0664-.9966-.1993-.1329.0664-.9966-.1993s-.3986.2658-.8637-.2657c-.4651-.5316-.2658 0-.4651-.5316-.1993-.5315-.0664-.0664-.1993-.598-.133-.5315-.0664-.3321.0664-1.063.1329-.7308 0-.598.1329-.7308.1328-.1329 1.063-.598 1.063-.598zM466.2696 211.4295c1.4617-.1994.9302-.133 1.4617-.1994.5315-.0664.3322 0 1.1295.2658.7973.2658 1.063.1993 1.063.465 0 .2658-.1328-.3321 0 .2658.133.598.133-.2657.133.7309 0 .9966.1992.1329 0 1.063-.1994.9302.3986.598-.1994.9302-.598.3322-.465.3322-1.3952.3986-.9302.0664.0664.2658-.9302.0664-.9966-.1993-.1329.0664-.9966-.1993s-.3986.2658-.8637-.2657c-.4651-.5316-.2658 0-.4651-.5316-.1993-.5315-.0664-.0664-.1993-.598-.133-.5315-.0664-.3321.0664-1.063.1329-.7308 0-.598.1329-.7308.1328-.1329 1.063-.598 1.063-.598zM474.2696 211.4295c1.4617-.1994.9302-.133 1.4617-.1994.5315-.0664.3322 0 1.1295.2658.7973.2658 1.063.1993 1.063.465 0 .2658-.1328-.3321 0 .2658.133.598.133-.2657.133.7309 0 .9966.1992.1329 0 1.063-.1994.9302.3986.598-.1994.9302-.598.3322-.465.3322-1.3952.3986-.9302.0664.0664.2658-.9302.0664-.9966-.1993-.1329.0664-.9966-.1993s-.3986.2658-.8637-.2657c-.4651-.5316-.2658 0-.4651-.5316-.1993-.5315-.0664-.0664-.1993-.598-.133-.5315-.0664-.3321.0664-1.063.1329-.7308 0-.598.1329-.7308.1328-.1329 1.063-.598 1.063-.598zM482.2696 211.4295c1.4617-.1994.9302-.133 1.4617-.1994.5315-.0664.3322 0 1.1295.2658.7973.2658 1.063.1993 1.063.465 0 .2658-.1328-.3321 0 .2658.133.598.133-.2657.133.7309 0 .9966.1992.1329 0 1.063-.1994.9302.3986.598-.1994.9302-.598.3322-.465.3322-1.3952.3986-.9302.0664.0664.2658-.9302.0664-.9966-.1993-.1329.0664-.9966-.1993s-.3986.2658-.8637-.2657c-.4651-.5316-.2658 0-.4651-.5316-.1993-.5315-.0664-.0664-.1993-.598-.133-.5315-.0664-.3321.0664-1.063.1329-.7308 0-.598.1329-.7308.1328-.1329 1.063-.598 1.063-.598zM490.2696 211.4295c1.4617-.1994.9302-.133 1.4617-.1994.5315-.0664.3322 0 1.1295.2658.7973.2658 1.063.1993 1.063.465 0 .2658-.1328-.3321 0 .2658.133.598.133-.2657.133.7309 0 .9966.1992.1329 0 1.063-.1994.9302.3986.598-.1994.9302-.598.3322-.465.3322-1.3952.3986-.9302.0664.0664.2658-.9302.0664-.9966-.1993-.1329.0664-.9966-.1993s-.3986.2658-.8637-.2657c-.4651-.5316-.2658 0-.4651-.5316-.1993-.5315-.0664-.0664-.1993-.598-.133-.5315-.0664-.3321.0664-1.063.1329-.7308 0-.598.1329-.7308.1328-.1329 1.063-.598 1.063-.598zM498.2696 211.4295c1.4617-.1994.9302-.133 1.4617-.1994.5315-.0664.3322 0 1.1295.2658.7973.2658 1.063.1993 1.063.465 0 .2658-.1328-.3321 0 .2658.133.598.133-.2657.133.7309 0 .9966.1992.1329 0 1.063-.1994.9302.3986.598-.1994.9302-.598.3322-.465.3322-1.3952.3986-.9302.0664.0664.2658-.9302.0664-.9966-.1993-.1329.0664-.9966-.1993s-.3986.2658-.8637-.2657c-.4651-.5316-.2658 0-.4651-.5316-.1993-.5315-.0664-.0664-.1993-.598-.133-.5315-.0664-.3321.0664-1.063.1329-.7308 0-.598.1329-.7308.1328-.1329 1.063-.598 1.063-.598zM506.2696 211.4295c1.4617-.1994.9302-.133 1.4617-.1994.5315-.0664.3322 0 1.1295.2658.7973.2658 1.063.1993 1.063.465 0 .2658-.1328-.3321 0 .2658.133.598.133-.2657.133.7309 0 .9966.1992.1329 0 1.063-.1994.9302.3986.598-.1994.9302-.598.3322-.465.3322-1.3952.3986-.9302.0664.0664.2658-.9302.0664-.9966-.1993-.1329.0664-.9966-.1993s-.3986.2658-.8637-.2657c-.4651-.5316-.2658 0-.4651-.5316-.1993-.5315-.0664-.0664-.1993-.598-.133-.5315-.0664-.3321.0664-1.063.1329-.7308 0-.598.1329-.7308.1328-.1329 1.063-.598 1.063-.598zM514.2696 211.4295c1.4617-.1994.9302-.133 1.4617-.1994.5315-.0664.3322 0 1.1295.2658.7973.2658 1.063.1993 1.063.465 0 .2658-.1328-.3321 0 .2658.133.598.133-.2657.133.7309 0 .9966.1992.1329 0 1.063-.1994.9302.3986.598-.1994.9302-.598.3322-.465.3322-1.3952.3986-.9302.0664.0664.2658-.9302.0664-.9966-.1993-.1329.0664-.9966-.1993s-.3986.2658-.8637-.2657c-.4651-.5316-.2658 0-.4651-.5316-.1993-.5315-.0664-.0664-.1993-.598-.133-.5315-.0664-.3321.0664-1.063.1329-.7308 0-.598.1329-.7308.1328-.1329 1.063-.598 1.063-.598zM524.2696 211.4295c1.4617-.1994.9302-.133 1.4617-.1994.5315-.0664.3322 0 1.1295.2658.7973.2658 1.063.1993 1.063.465 0 .2658-.1328-.3321 0 .2658.133.598.133-.2657.133.7309 0 .9966.1992.1329 0 1.063-.1994.9302.3986.598-.1994.9302-.598.3322-.465.3322-1.3952.3986-.9302.0664.0664.2658-.9302.0664-.9966-.1993-.1329.0664-.9966-.1993s-.3986.2658-.8637-.2657c-.4651-.5316-.2658 0-.4651-.5316-.1993-.5315-.0664-.0664-.1993-.598-.133-.5315-.0664-.3321.0664-1.063.1329-.7308 0-.598.1329-.7308.1328-.1329 1.063-.598 1.063-.598zM534.2696 211.4295c1.4617-.1994.9302-.133 1.4617-.1994.5315-.0664.3322 0 1.1295.2658.7973.2658 1.063.1993 1.063.465 0 .2658-.1328-.3321 0 .2658.133.598.133-.2657.133.7309 0 .9966.1992.1329 0 1.063-.1994.9302.3986.598-.1994.9302-.598.3322-.465.3322-1.3952.3986-.9302.0664.0664.2658-.9302.0664-.9966-.1993-.1329.0664-.9966-.1993s-.3986.2658-.8637-.2657c-.4651-.5316-.2658 0-.4651-.5316-.1993-.5315-.0664-.0664-.1993-.598-.133-.5315-.0664-.3321.0664-1.063.1329-.7308 0-.598.1329-.7308.1328-.1329 1.063-.598 1.063-.598zM544.2696 211.4295c1.4617-.1994.9302-.133 1.4617-.1994.5315-.0664.3322 0 1.1295.2658.7973.2658 1.063.1993 1.063.465 0 .2658-.1328-.3321 0 .2658.133.598.133-.2657.133.7309 0 .9966.1992.1329 0 1.063-.1994.9302.3986.598-.1994.9302-.598.3322-.465.3322-1.3952.3986-.9302.0664.0664.2658-.9302.0664-.9966-.1993-.1329.0664-.9966-.1993s-.3986.2658-.8637-.2657c-.4651-.5316-.2658 0-.4651-.5316-.1993-.5315-.0664-.0664-.1993-.598-.133-.5315-.0664-.3321.0664-1.063.1329-.7308 0-.598.1329-.7308.1328-.1329 1.063-.598 1.063-.598zM556.2696 211.4295c1.4617-.1994.9302-.133 1.4617-.1994.5315-.0664.3322 0 1.1295.2658.7973.2658 1.063.1993 1.063.465 0 .2658-.1328-.3321 0 .2658.133.598.133-.2657.133.7309 0 .9966.1992.1329 0 1.063-.1994.9302.3986.598-.1994.9302-.598.3322-.465.3322-1.3952.3986-.9302.0664.0664.2658-.9302.0664-.9966-.1993-.1329.0664-.9966-.1993s-.3986.2658-.8637-.2657c-.4651-.5316-.2658 0-.4651-.5316-.1993-.5315-.0664-.0664-.1993-.598-.133-.5315-.0664-.3321.0664-1.063.1329-.7308 0-.598.1329-.7308.1328-.1329 1.063-.598 1.063-.598zM566.2696 211.4295c1.4617-.1994.9302-.133 1.4617-.1994.5315-.0664.3322 0 1.1295.2658.7973.2658 1.063.1993 1.063.465 0 .2658-.1328-.3321 0 .2658.133.598.133-.2657.133.7309 0 .9966.1992.1329 0 1.063-.1994.9302.3986.598-.1994.9302-.598.3322-.465.3322-1.3952.3986-.9302.0664.0664.2658-.9302.0664-.9966-.1993-.1329.0664-.9966-.1993s-.3986.2658-.8637-.2657c-.4651-.5316-.2658 0-.4651-.5316-.1993-.5315-.0664-.0664-.1993-.598-.133-.5315-.0664-.3321.0664-1.063.1329-.7308 0-.598.1329-.7308.1328-.1329 1.063-.598 1.063-.598zM578.2696 211.4295c1.4617-.1994.9302-.133 1.4617-.1994.5315-.0664.3322 0 1.1295.2658.7973.2658 1.063.1993 1.063.465 0 .2658-.1328-.3321 0 .2658.133.598.133-.2657.133.7309 0 .9966.1992.1329 0 1.063-.1994.9302.3986.598-.1994.9302-.598.3322-.465.3322-1.3952.3986-.9302.0664.0664.2658-.9302.0664-.9966-.1993-.1329.0664-.9966-.1993s-.3986.2658-.8637-.2657c-.4651-.5316-.2658 0-.4651-.5316-.1993-.5315-.0664-.0664-.1993-.598-.133-.5315-.0664-.3321.0664-1.063.1329-.7308 0-.598.1329-.7308.1328-.1329 1.063-.598 1.063-.598zM588.2696 211.4295c1.4617-.1994.9302-.133 1.4617-.1994.5315-.0664.3322 0 1.1295.2658.7973.2658 1.063.1993 1.063.465 0 .2658-.1328-.3321 0 .2658.133.598.133-.2657.133.7309 0 .9966.1992.1329 0 1.063-.1994.9302.3986.598-.1994.9302-.598.3322-.465.3322-1.3952.3986-.9302.0664.0664.2658-.9302.0664-.9966-.1993-.1329.0664-.9966-.1993s-.3986.2658-.8637-.2657c-.4651-.5316-.2658 0-.4651-.5316-.1993-.5315-.0664-.0664-.1993-.598-.133-.5315-.0664-.3321.0664-1.063.1329-.7308 0-.598.1329-.7308.1328-.1329 1.063-.598 1.063-.598zM598.2696 211.4295c1.4617-.1994.9302-.133 1.4617-.1994.5315-.0664.3322 0 1.1295.2658.7973.2658 1.063.1993 1.063.465 0 .2658-.1328-.3321 0 .2658.133.598.133-.2657.133.7309 0 .9966.1992.1329 0 1.063-.1994.9302.3986.598-.1994.9302-.598.3322-.465.3322-1.3952.3986-.9302.0664.0664.2658-.9302.0664-.9966-.1993-.1329.0664-.9966-.1993s-.3986.2658-.8637-.2657c-.4651-.5316-.2658 0-.4651-.5316-.1993-.5315-.0664-.0664-.1993-.598-.133-.5315-.0664-.3321.0664-1.063.1329-.7308 0-.598.1329-.7308.1328-.1329 1.063-.598 1.063-.598zM608.2696 211.4295c1.4617-.1994.9302-.133 1.4617-.1994.5315-.0664.3322 0 1.1295.2658.7973.2658 1.063.1993 1.063.465 0 .2658-.1328-.3321 0 .2658.133.598.133-.2657.133.7309 0 .9966.1992.1329 0 1.063-.1994.9302.3986.598-.1994.9302-.598.3322-.465.3322-1.3952.3986-.9302.0664.0664.2658-.9302.0664-.9966-.1993-.1329.0664-.9966-.1993s-.3986.2658-.8637-.2657c-.4651-.5316-.2658 0-.4651-.5316-.1993-.5315-.0664-.0664-.1993-.598-.133-.5315-.0664-.3321.0664-1.063.1329-.7308 0-.598.1329-.7308.1328-.1329 1.063-.598 1.063-.598zM618.2696 211.4295c1.4617-.1994.9302-.133 1.4617-.1994.5315-.0664.3322 0 1.1295.2658.7973.2658 1.063.1993 1.063.465 0 .2658-.1328-.3321 0 .2658.133.598.133-.2657.133.7309 0 .9966.1992.1329 0 1.063-.1994.9302.3986.598-.1994.9302-.598.3322-.465.3322-1.3952.3986-.9302.0664.0664.2658-.9302.0664-.9966-.1993-.1329.0664-.9966-.1993s-.3986.2658-.8637-.2657c-.4651-.5316-.2658 0-.4651-.5316-.1993-.5315-.0664-.0664-.1993-.598-.133-.5315-.0664-.3321.0664-1.063.1329-.7308 0-.598.1329-.7308.1328-.1329 1.063-.598 1.063-.598zM628.2696 211.4295c1.4617-.1994.9302-.133 1.4617-.1994.5315-.0664.3322 0 1.1295.2658.7973.2658 1.063.1993 1.063.465 0 .2658-.1328-.3321 0 .2658.133.598.133-.2657.133.7309 0 .9966.1992.1329 0 1.063-.1994.9302.3986.598-.1994.9302-.598.3322-.465.3322-1.3952.3986-.9302.0664.0664.2658-.9302.0664-.9966-.1993-.1329.0664-.9966-.1993s-.3986.2658-.8637-.2657c-.4651-.5316-.2658 0-.4651-.5316-.1993-.5315-.0664-.0664-.1993-.598-.133-.5315-.0664-.3321.0664-1.063.1329-.7308 0-.598.1329-.7308.1328-.1329 1.063-.598 1.063-.598zM638.2696 211.4295c1.4617-.1994.9302-.133 1.4617-.1994.5315-.0664.3322 0 1.1295.2658.7973.2658 1.063.1993 1.063.465 0 .2658-.1328-.3321 0 .2658.133.598.133-.2657.133.7309 0 .9966.1992.1329 0 1.063-.1994.9302.3986.598-.1994.9302-.598.3322-.465.3322-1.3952.3986-.9302.0664.0664.2658-.9302.0664-.9966-.1993-.1329.0664-.9966-.1993s-.3986.2658-.8637-.2657c-.4651-.5316-.2658 0-.4651-.5316-.1993-.5315-.0664-.0664-.1993-.598-.133-.5315-.0664-.3321.0664-1.063.1329-.7308 0-.598.1329-.7308.1328-.1329 1.063-.598 1.063-.598zM650.2696 211.4295c1.4617-.1994.9302-.133 1.4617-.1994.5315-.0664.3322 0 1.1295.2658.7973.2658 1.063.1993 1.063.465 0 .2658-.1328-.3321 0 .2658.133.598.133-.2657.133.7309 0 .9966.1992.1329 0 1.063-.1994.9302.3986.598-.1994.9302-.598.3322-.465.3322-1.3952.3986-.9302.0664.0664.2658-.9302.0664-.9966-.1993-.1329.0664-.9966-.1993s-.3986.2658-.8637-.2657c-.4651-.5316-.2658 0-.4651-.5316-.1993-.5315-.0664-.0664-.1993-.598-.133-.5315-.0664-.3321.0664-1.063.1329-.7308 0-.598.1329-.7308.1328-.1329 1.063-.598 1.063-.598z"/><path style="fill:#fff;stroke:#000;stroke-width:.4;stroke-linecap:butt;stroke-linejoin:miter;stroke-miterlimit:4;stroke-dasharray:none;stroke-opacity:1" d="M85.438 207.8543c5.9542-5.2619 5.6772-5.4003 5.9542-5.2619.277.1385 7.8928-.1384 7.8928-.1384l-5.2619 5.8157zM95.58 207.788l4.7-5.4832h6.658l-2.7415 7.0498zM108.3089 202.4027l5.679.2938.1958 6.5602s-.3916-.2937-2.0562-.1958c-1.6645.0979-6.6581.9791-6.6581.9791z"/></svg>