<?xml version="1.0" encoding="UTF-8" standalone="no"?>
<!-- Created with Inkscape (http://www.inkscape.org/) -->

<svg
   version="1.1"
   id="svg9"
   width="2560"
   height="1700"
   viewBox="0 0 2560 1700"
   sodipodi:docname="767200trace.jpg.svg"
   inkscape:version="1.1.1 (c3084ef, 2021-09-22)"
   xmlns:inkscape="http://www.inkscape.org/namespaces/inkscape"
   xmlns:sodipodi="http://sodipodi.sourceforge.net/DTD/sodipodi-0.dtd"
   xmlns="http://www.w3.org/2000/svg"
   xmlns:svg="http://www.w3.org/2000/svg">
  <defs
     id="defs13">
    <linearGradient
       id="linearGradient8598"
       inkscape:swatch="solid">
      <stop
         style="stop-color:#2cd559;stop-opacity:1;"
         offset="0"
         id="stop8596" />
    </linearGradient>
  </defs>
  <sodipodi:namedview
     id="namedview11"
     pagecolor="#ffffff"
     bordercolor="#666666"
     borderopacity="1.0"
     inkscape:pageshadow="2"
     inkscape:pageopacity="0.0"
     inkscape:pagecheckerboard="0"
     showgrid="false"
     inkscape:zoom="0.8399714"
     inkscape:cx="569.66225"
     inkscape:cy="214.29301"
     inkscape:window-width="1440"
     inkscape:window-height="900"
     inkscape:window-x="0"
     inkscape:window-y="0"
     inkscape:window-maximized="0"
     inkscape:current-layer="g15" />
  <g
     inkscape:groupmode="layer"
     inkscape:label="Image"
     id="g15">
    <path
       style="fill:none;stroke:#000000;stroke-width:1px;stroke-linecap:butt;stroke-linejoin:miter;stroke-opacity:1"
       d="m 64.975038,216.31836 c 0.397644,-0.95434 2.544921,-3.26068 2.544921,-3.26068 0,0 0.07953,-0.0795 0,0 -0.07953,0.0795 1.829163,-1.51105 3.022095,-2.06775 1.192932,-0.5567 11.134034,-4.53314 11.134034,-4.53314 l 1.590576,-0.39764 2.147278,-0.63623 6.362304,-3.97644 1.511048,-1.03388 c 0,0 6.600891,-3.18115 6.919006,-3.34021 0.31812,-0.15906 15.34906,-4.37408 15.34906,-4.37408 2.22681,-0.47718 11.05451,-2.22681 11.61121,-2.30634 0.5567,-0.0795 6.75995,-0.87482 6.75995,-0.87482 l 7.55523,-0.95434 4.85126,-0.63623 4.37408,-0.31812 4.77173,-0.47717 9.06629,-0.5567 22.82477,-0.5567 0.31811,-0.39765 3.97644,-0.0795 0.39765,0.39765 30.85717,0.15905 39.12818,0.15906 0.87482,-0.15906 0.0795,-0.63623 3.34021,0.0795 0.15906,0.63623 40.87781,0.23859 5.56702,-4.45361 1.90869,0.0795 -2.70398,4.53314 115.63489,0.47717 28.7099,0.0795 c 0,0 0.5567,-0.63623 1.35199,-0.79529 0.79529,-0.15906 7.55523,-0.0795 7.55523,-0.0795 l 1.74964,0.31812 0.79529,0.31811 0.23858,0.15906 32.8454,0.15906 77.69965,0.0795 5.2489,-3.89691 h 2.06775 l -2.70398,4.21502 61.07813,0.23859 22.98382,0.0795 c 0,0 4.45361,-0.31812 5.72608,-0.5567 1.27246,-0.23859 11.0545,-2.06775 11.0545,-2.06775 0,0 -1.03387,0.23858 0,0 1.03387,-0.23859 12.40649,-3.89691 12.40649,-3.89691 l 6.68042,-3.26069 24.17676,-14.55377 26.72168,-16.14435 31.1753,-18.92785 21.94995,-13.5199 16.38293,-9.86157 c 0,0 2.30634,-1.43152 3.0221,-1.59058 0.71576,-0.15906 3.10162,-0.39764 3.10162,-0.39764 l 35.39032,0.23858 1.51105,-0.0795 -16.22388,23.06336 -19.24597,28.94849 -20.91608,31.25482 -5.96466,9.86157 3.0221,0.15906 1.74963,3.02209 12.64508,1.35199 1.03388,0.0795 30.9367,-2.14728 13.5199,-0.87481 c 0,0 4.85126,-0.23859 5.64655,-0.23859 0.79528,0 8.11193,-0.23859 8.11193,-0.23859 h 5.40796 l 15.50812,0.47718 -10.81592,1.6701 -46.92199,5.32843 -4.05597,0.47717 2.86303,1.19294 0.15906,0.87481 -0.63623,2.30634 -1.59058,1.59058 c 0,0 -4.6922,1.98822 -5.08984,1.90869 -0.39764,-0.0795 -5.40796,1.74963 -5.40796,1.74963 0,0 -5.16937,1.03387 -5.88513,1.19293 -0.71576,0.15906 -5.72607,0.79529 -5.72607,0.79529 0,0 -4.1355,0.47717 -6.75995,0.87482 -2.62445,0.39764 -6.12372,0.5567 -6.12372,0.5567 l -8.03241,0.95434 -13.44037,1.98823 -7.07806,0.71575 -10.33875,1.43152 -13.20178,1.67011 -26.64215,3.57879 -34.75409,4.53315 -33.00446,3.97644 -31.73199,2.86303 -15.58765,0.63623 -21.7909,0.87482 h -8.74816 l 2.46539,4.45362 h -2.86304 l -4.37408,-4.37409 -26.08545,-0.31811 -30.14142,0.0795 -22.3476,-0.39764 2.54493,1.98822 -3.0221,0.87482 1.90869,1.51104 -13.91754,2.4654 1.03387,3.02209 c 0,0 4.93079,-1.35199 5.72608,-1.43152 0.79529,-0.0795 5.64654,0.39765 5.64654,0.39765 l 5.48749,1.1134 c 0,0 1.98822,0.71576 2.62445,1.35199 0.63623,0.63623 1.90869,3.0221 1.51105,4.1355 -0.39764,1.1134 -2.70398,3.5788 -2.70398,3.5788 l -2.22681,1.1134 -4.13549,0.15906 c 0,0 -5.80561,-0.47718 -6.52137,-0.47718 -0.71576,0 -2.7835,-0.79528 -2.7835,-0.79528 0,0 -2.06775,-0.39765 -2.78351,-0.79529 -0.71576,-0.39765 -1.51105,-0.87482 -1.51105,-0.87482 l -1.74963,0.15906 c 0,0 -0.39765,0.47717 -1.59058,1.19293 -1.19293,0.71576 -3.0221,1.43152 -3.0221,1.43152 l -4.37408,0.15906 -6.20325,-0.39765 c 0,0 -4.77173,-0.5567 -5.01031,-1.03387 -0.23859,-0.47717 -3.34021,-2.54492 -3.97644,-2.62445 -0.63623,-0.0795 -2.70398,-0.39765 -3.26068,-1.19293 -0.55671,-0.79529 -3.97644,-0.71576 -3.97644,-0.71576 0,0 -2.06775,1.90869 -2.38587,2.06774 -0.31811,0.15906 -2.78351,0.39765 -2.78351,0.39765 l -5.01031,0.15906 c 0,0 -4.61267,-0.39765 -6.12372,-0.63623 -1.51105,-0.23859 -4.1355,-2.14728 -4.6922,-2.70398 -0.5567,-0.55671 -0.71576,-2.54493 -0.71576,-2.54493 0,0 1.35199,-2.86303 1.82916,-3.41973 0.47718,-0.55671 -11.53167,0.31811 -11.53167,0.31811 l -3.49927,0.39765 -1.1134,2.86303 4.53314,-0.0795 -0.0795,0.47718 -2.46539,0.63623 -27.27839,0.47717 v 0.71576 h -1.59057 l -0.31812,-0.5567 c 0,0 -26.00592,-0.23859 -27.27838,-0.31812 -1.27246,-0.0795 -10.65686,-0.5567 -11.61121,-0.71576 -0.95434,-0.15905 -4.21502,-0.71576 -4.21502,-0.71576 0,0 -0.79529,-1.03387 -1.35199,-1.74963 -0.5567,-0.71576 -0.95435,-1.43152 -0.95435,-1.43152 l -22.82477,-0.31811 -10.73639,-0.39765 -6.52136,-0.95434 -1.27246,-0.47718 c 0,0 -2.06775,-3.41974 -2.46539,-4.37408 -0.39765,-0.95435 0.39764,-1.59058 0.39764,-1.59058 l -27.51697,0.0795 h -32.52728 l -33.4021,-0.0795 -25.05157,-0.23858 -25.44922,-1.51105 -6.68042,-0.63623 -0.23859,4.53314 -0.0795,0.79529 -2.94257,-0.0795 -0.0795,1.6701 -1.98822,0.47718 0.0795,0.63623 2.78351,0.15906 1.74964,0.31811 0.31811,1.19293 -2.78351,2.14728 c 0,0 2.06775,0.71576 2.94257,1.27246 0.87482,0.5567 1.59058,2.46539 1.6701,2.86304 0.0795,0.39764 -0.15905,2.22681 -0.5567,2.46539 -0.39764,0.23859 -1.90869,1.27246 -2.54492,1.59058 -0.63623,0.31811 -2.14728,0.63623 -2.14728,0.63623 h -4.45361 c 0,0 -3.10162,-0.5567 -3.81738,-0.79529 -0.71576,-0.23859 -3.26068,-2.06775 -3.26068,-2.54492 0,-0.47717 -0.31812,-1.1134 -0.31812,-1.1134 0,0 1.82916,-3.34021 2.86304,-3.73786 1.03387,-0.39764 3.18115,-1.03387 3.18115,-1.03387 v -0.95435 l -5.64655,-0.0795 v -0.79529 l -4.21502,-0.0795 c 0,0 0.15906,-1.43152 0.63623,-1.82917 0.47717,-0.39764 3.65832,-1.03387 3.65832,-1.03387 v -0.31812 h -1.51104 l 4.05597,-1.1134 0.23858,-1.19293 -10.41827,-1.03388 1.90869,-5.16937 -3.73786,-0.0795 c 0,0 -8.50958,-1.19293 -9.54345,-1.27246 -1.03388,-0.0795 -14.71283,-3.34021 -14.71283,-3.34021 0,0 -8.032412,-2.14728 -9.702517,-2.54492 -1.670105,-0.39765 -8.986755,-2.22681 -10.259216,-2.62445 -1.272461,-0.39765 -8.907227,-2.86304 -9.463929,-3.26068 -0.556701,-0.39765 -3.817383,-2.4654 -4.851257,-3.65833 -1.033875,-1.19293 -1.35199,-2.46539 -1.272461,-2.86304"
       id="path307" />
    <path
       style="fill:#000000;stroke-width:0.951155"
       d="m 462.26149,258.09084 c -6.41003,-3.38046 -7.05846,-3.65679 -8.58095,-3.65679 -0.81021,0 -2.54084,0.69961 -3.84585,1.55468 -2.82554,1.85137 -12.99269,1.408 -16.43782,-0.71681 -2.04225,-1.25958 -2.13905,-2.15939 -0.62734,-5.83143 0.60769,-1.47613 0.0413,-1.66453 -5.00455,-1.66453 -7.76258,0 -11.47983,0.86767 -12.10092,2.82456 -0.46199,1.45559 -2.48139,1.7022 -17.38674,2.12332 -9.27522,0.26205 -24.67321,0.21038 -34.21775,-0.11481 -16.27584,-0.55454 -17.44179,-0.71701 -18.77178,-2.61584 -1.35678,-1.93708 -2.28517,-2.03902 -21.48294,-2.35869 -18.75666,-0.31233 -20.15582,-0.45814 -21.46007,-2.23642 -0.76737,-1.04627 -1.20077,-2.65135 -0.96314,-3.56684 0.40806,-1.57197 -2.83775,-1.66452 -58.37483,-1.66452 -51.7073,0 -79.47278,-0.72335 -91.53532,-2.3847 -3.44089,-0.4739 -3.56684,-0.39009 -3.56684,2.37346 0,1.57559 -0.45859,2.86471 -1.01909,2.86471 -1.31685,0 -3.73668,2.41982 -3.73668,3.73668 0,0.5605 0.94164,1.01909 2.09254,1.01909 1.62753,0 1.8389,0.25365 0.95115,1.14139 -1.60575,1.60576 -1.42412,2.44531 0.67306,3.11093 2.62371,0.83273 3.37434,3.54141 1.38458,4.99636 -2.31652,1.69387 -9.00279,1.51595 -11.60813,-0.30891 -2.06773,-1.44829 -2.09419,-1.61147 -0.5398,-3.32904 0.89897,-0.99336 2.21019,-1.8061 2.91382,-1.8061 0.70362,0 1.27931,-0.85604 1.27931,-1.90231 0,-1.63228 -0.64132,-1.90539 -4.51799,-1.92397 l -4.51798,-0.0217 3.09125,-1.52387 c 5.22594,-2.57618 3.61029,-5.09087 -3.27081,-5.09087 -2.60295,0 -3.22386,-0.31916 -2.77567,-1.42674 0.31753,-0.7847 0.81371,-2.00769 1.10261,-2.71776 0.40252,-0.98935 -1.15685,-1.44347 -6.67316,-1.94334 -7.51303,-0.68082 -36.811736,-7.59553 -46.595868,-10.99698 -5.492914,-1.9096 -10.032496,-5.08732 -10.032496,-7.02276 0,-2.12519 3.420838,-4.4352 10.780256,-7.27964 4.272,-1.65114 8.623313,-3.46991 9.669583,-4.04169 19.217735,-10.50256 28.043445,-12.94833 61.349515,-17.00111 10.27854,-1.25073 161.97426,-2.7048 162.48589,-1.5575 0.17264,0.38715 60.91872,0.69894 134.99128,0.69288 105.0536,-0.009 134.99408,-0.26805 136.11719,-1.17949 1.20568,-0.97846 1.33534,-0.88989 0.79732,0.54474 -0.61452,1.63858 1.43864,1.69921 47.14189,1.39223 45.60982,-0.30636 48.1195,-0.41493 55.14837,-2.38574 14.87173,-4.16986 15.48819,-4.52075 123.84553,-70.49201 l 18.97319,-11.55146 h 18.35965 c 10.09781,0 18.35966,0.2544 18.35966,0.56533 0,0.31093 -2.50425,4.0561 -5.565,8.32261 -5.70733,7.95568 -49.48919,73.49591 -53.22862,79.68177 -2.46246,4.07345 -2.5427,4.64351 -0.65359,4.64351 0.78471,0 2.21502,0.78828 3.17847,1.75174 2.69138,2.69137 12.48952,3.14925 33.91855,1.58503 10.46163,-0.76366 25.86947,-1.60166 34.23963,-1.86225 l 15.21849,-0.47379 -26.43202,3.18319 c -14.53761,1.75076 -26.67968,3.43085 -26.98237,3.73355 -0.3027,0.30269 0.5702,0.83159 1.93976,1.17533 7.76349,1.94851 -4.01752,7.20382 -21.28875,9.49656 -40.56974,5.38561 -120.31907,15.72854 -138.39311,17.94863 -31.8168,3.90814 -75.38634,7.1674 -96.36857,7.20892 -2.83201,0.006 -3.08794,0.22555 -2.49754,2.14634 l 0.65782,2.1401 -2.39793,-2.21374 -2.39793,-2.21374 -40.75999,-0.45123 c -31.23028,-0.34573 -40.49898,-0.18982 -39.64361,0.66688 1.89489,1.89785 -1.54238,4.40243 -7.0611,5.14508 -5.15648,0.69392 -5.67358,1.25024 -4.02507,4.3305 0.79316,1.48204 1.40703,1.64291 3.39096,0.88862 3.1176,-1.18531 5.83656,-1.16212 11.72143,0.1 5.4763,1.17445 7.05728,3.6177 4.30727,6.65642 -2.10122,2.32182 -10.73243,2.50638 -17.04147,0.36441 -3.90433,-1.32556 -4.53489,-1.32556 -6.42738,0 -3.25656,2.28098 -14.48706,1.94275 -19.27146,-0.5804 z"
       id="path3947" />
    <path
       style="fill:#f9f9f9;stroke:#000000;stroke-width:1px;stroke-linecap:butt;stroke-linejoin:miter;stroke-opacity:1"
       d="m 466.37303,246.38116 c 0.84982,-2.73829 0.75539,-2.73829 0.84982,-2.73829 0.0944,0 0.84981,-0.14163 0.84981,-0.14163 v -0.51933 l -0.84981,-0.47212 0.18884,-0.33048 2.03011,-0.0944 4.57955,2.07732 2.54944,1.51078 2.45502,4.48513 -2.31338,0.47212 -2.21896,-1.03866 -0.8026,-1.84127 -2.50223,-0.37769 -2.31338,0.23606 -1.03866,0.61375 c 0,0 -3.30483,-0.33048 -3.72974,-0.33048 -0.4249,0 -2.31338,0.23606 -2.31338,0.23606 l -2.4078,0.89702 -1.9829,1.36915 -0.99145,0.18885 0.0472,-0.94424 1.22751,-0.28327 0.33049,-0.42491 -0.80261,-0.0944 -0.0944,-1.88848 z"
       id="path4353" />
    <path
       style="fill:#ffffff;stroke:#000000;stroke-width:0.2;stroke-linecap:butt;stroke-linejoin:miter;stroke-miterlimit:4;stroke-dasharray:none;stroke-opacity:1"
       d="m 171.18227,207.91053 c 0.64651,0 1.15449,0 1.33921,0.18472 0.18471,0.18472 0.36943,0.41561 0.13854,0.64651 -0.2309,0.2309 -1.10831,0.50798 -1.33921,0.41562 -0.2309,-0.0924 -0.46179,-0.13854 -0.73887,-0.41562 -0.27708,-0.27708 0.13854,-0.64651 0.13854,-0.64651 z"
       id="path4671" />
    <path
       style="fill:#ffffff;stroke:#000000;stroke-width:0.2;stroke-linecap:butt;stroke-linejoin:miter;stroke-miterlimit:4;stroke-dasharray:none;stroke-opacity:1"
       d="m 682.56903,207.64796 c 0.64651,0 1.15449,0 1.33921,0.18472 0.18471,0.18472 0.36943,0.41561 0.13854,0.64651 -0.2309,0.2309 -1.10831,0.50798 -1.33921,0.41562 -0.2309,-0.0924 -0.46179,-0.13854 -0.73887,-0.41562 -0.27708,-0.27708 0.13854,-0.64651 0.13854,-0.64651 z"
       id="path5761" />
    <path
       style="fill:#ffffff;stroke:#000000;stroke-width:0.3;stroke-linecap:butt;stroke-linejoin:miter;stroke-miterlimit:4;stroke-dasharray:none;stroke-opacity:1"
       d="m 214.26964,211.42946 c 1.46168,-0.19932 0.93016,-0.13288 1.46168,-0.19932 0.53152,-0.0664 0.3322,0 1.12948,0.26576 0.79729,0.26576 1.06305,0.19932 1.06305,0.46508 0,0.26576 -0.13288,-0.3322 0,0.26576 0.13288,0.59797 0.13288,-0.26576 0.13288,0.73085 0,0.9966 0.19932,0.13288 0,1.06304 -0.19932,0.93016 0.39864,0.59796 -0.19932,0.93016 -0.59797,0.3322 -0.46509,0.3322 -1.39525,0.39864 -0.93016,0.0664 0.0664,0.26576 -0.93016,0.0664 -0.9966,-0.19932 -0.13288,0.0664 -0.9966,-0.19932 -0.86373,-0.26576 -0.39864,0.26576 -0.86373,-0.26576 -0.46508,-0.53152 -0.26576,0 -0.46508,-0.53152 -0.19932,-0.53152 -0.0664,-0.0664 -0.19932,-0.59796 -0.13288,-0.53152 -0.0664,-0.3322 0.0664,-1.06304 0.13288,-0.73085 0,-0.59797 0.13288,-0.73085 0.13288,-0.13288 1.06305,-0.59796 1.06305,-0.59796 z"
       id="path5796" />
    <path
       style="fill:#ffffff;stroke:#000000;stroke-width:0.3;stroke-linecap:butt;stroke-linejoin:miter;stroke-miterlimit:4;stroke-dasharray:none;stroke-opacity:1"
       d="m 222.26964,211.42946 c 1.46168,-0.19932 0.93016,-0.13288 1.46168,-0.19932 0.53152,-0.0664 0.3322,0 1.12948,0.26576 0.79729,0.26576 1.06305,0.19932 1.06305,0.46508 0,0.26576 -0.13288,-0.3322 0,0.26576 0.13288,0.59797 0.13288,-0.26576 0.13288,0.73085 0,0.9966 0.19932,0.13288 0,1.06304 -0.19932,0.93016 0.39864,0.59796 -0.19932,0.93016 -0.59797,0.3322 -0.46509,0.3322 -1.39525,0.39864 -0.93016,0.0664 0.0664,0.26576 -0.93016,0.0664 -0.9966,-0.19932 -0.13288,0.0664 -0.9966,-0.19932 -0.86373,-0.26576 -0.39864,0.26576 -0.86373,-0.26576 -0.46508,-0.53152 -0.26576,0 -0.46508,-0.53152 -0.19932,-0.53152 -0.0664,-0.0664 -0.19932,-0.59796 -0.13288,-0.53152 -0.0664,-0.3322 0.0664,-1.06304 0.13288,-0.73085 0,-0.59797 0.13288,-0.73085 0.13288,-0.13288 1.06305,-0.59796 1.06305,-0.59796 z"
       id="path6208" />
    <path
       style="fill:#ffffff;stroke:#000000;stroke-width:0.3;stroke-linecap:butt;stroke-linejoin:miter;stroke-miterlimit:4;stroke-dasharray:none;stroke-opacity:1"
       d="m 230.26964,211.42946 c 1.46168,-0.19932 0.93016,-0.13288 1.46168,-0.19932 0.53152,-0.0664 0.3322,0 1.12948,0.26576 0.79729,0.26576 1.06305,0.19932 1.06305,0.46508 0,0.26576 -0.13288,-0.3322 0,0.26576 0.13288,0.59797 0.13288,-0.26576 0.13288,0.73085 0,0.9966 0.19932,0.13288 0,1.06304 -0.19932,0.93016 0.39864,0.59796 -0.19932,0.93016 -0.59797,0.3322 -0.46509,0.3322 -1.39525,0.39864 -0.93016,0.0664 0.0664,0.26576 -0.93016,0.0664 -0.9966,-0.19932 -0.13288,0.0664 -0.9966,-0.19932 -0.86373,-0.26576 -0.39864,0.26576 -0.86373,-0.26576 -0.46508,-0.53152 -0.26576,0 -0.46508,-0.53152 -0.19932,-0.53152 -0.0664,-0.0664 -0.19932,-0.59796 -0.13288,-0.53152 -0.0664,-0.3322 0.0664,-1.06304 0.13288,-0.73085 0,-0.59797 0.13288,-0.73085 0.13288,-0.13288 1.06305,-0.59796 1.06305,-0.59796 z"
       id="path6210" />
    <path
       style="fill:#ffffff;stroke:#000000;stroke-width:0.3;stroke-linecap:butt;stroke-linejoin:miter;stroke-miterlimit:4;stroke-dasharray:none;stroke-opacity:1"
       d="m 238.26964,211.42946 c 1.46168,-0.19932 0.93016,-0.13288 1.46168,-0.19932 0.53152,-0.0664 0.3322,0 1.12948,0.26576 0.79729,0.26576 1.06305,0.19932 1.06305,0.46508 0,0.26576 -0.13288,-0.3322 0,0.26576 0.13288,0.59797 0.13288,-0.26576 0.13288,0.73085 0,0.9966 0.19932,0.13288 0,1.06304 -0.19932,0.93016 0.39864,0.59796 -0.19932,0.93016 -0.59797,0.3322 -0.46509,0.3322 -1.39525,0.39864 -0.93016,0.0664 0.0664,0.26576 -0.93016,0.0664 -0.9966,-0.19932 -0.13288,0.0664 -0.9966,-0.19932 -0.86373,-0.26576 -0.39864,0.26576 -0.86373,-0.26576 -0.46508,-0.53152 -0.26576,0 -0.46508,-0.53152 -0.19932,-0.53152 -0.0664,-0.0664 -0.19932,-0.59796 -0.13288,-0.53152 -0.0664,-0.3322 0.0664,-1.06304 0.13288,-0.73085 0,-0.59797 0.13288,-0.73085 0.13288,-0.13288 1.06305,-0.59796 1.06305,-0.59796 z"
       id="path6212" />
    <path
       style="fill:#ffffff;stroke:#000000;stroke-width:0.3;stroke-linecap:butt;stroke-linejoin:miter;stroke-miterlimit:4;stroke-dasharray:none;stroke-opacity:1"
       d="m 246.26964,211.42946 c 1.46168,-0.19932 0.93016,-0.13288 1.46168,-0.19932 0.53152,-0.0664 0.3322,0 1.12948,0.26576 0.79729,0.26576 1.06305,0.19932 1.06305,0.46508 0,0.26576 -0.13288,-0.3322 0,0.26576 0.13288,0.59797 0.13288,-0.26576 0.13288,0.73085 0,0.9966 0.19932,0.13288 0,1.06304 -0.19932,0.93016 0.39864,0.59796 -0.19932,0.93016 -0.59797,0.3322 -0.46509,0.3322 -1.39525,0.39864 -0.93016,0.0664 0.0664,0.26576 -0.93016,0.0664 -0.9966,-0.19932 -0.13288,0.0664 -0.9966,-0.19932 -0.86373,-0.26576 -0.39864,0.26576 -0.86373,-0.26576 -0.46508,-0.53152 -0.26576,0 -0.46508,-0.53152 -0.19932,-0.53152 -0.0664,-0.0664 -0.19932,-0.59796 -0.13288,-0.53152 -0.0664,-0.3322 0.0664,-1.06304 0.13288,-0.73085 0,-0.59797 0.13288,-0.73085 0.13288,-0.13288 1.06305,-0.59796 1.06305,-0.59796 z"
       id="path6214" />
    <path
       style="fill:#ffffff;stroke:#000000;stroke-width:0.3;stroke-linecap:butt;stroke-linejoin:miter;stroke-miterlimit:4;stroke-dasharray:none;stroke-opacity:1"
       d="m 254.26964,211.42946 c 1.46168,-0.19932 0.93016,-0.13288 1.46168,-0.19932 0.53152,-0.0664 0.3322,0 1.12948,0.26576 0.79729,0.26576 1.06305,0.19932 1.06305,0.46508 0,0.26576 -0.13288,-0.3322 0,0.26576 0.13288,0.59797 0.13288,-0.26576 0.13288,0.73085 0,0.9966 0.19932,0.13288 0,1.06304 -0.19932,0.93016 0.39864,0.59796 -0.19932,0.93016 -0.59797,0.3322 -0.46509,0.3322 -1.39525,0.39864 -0.93016,0.0664 0.0664,0.26576 -0.93016,0.0664 -0.9966,-0.19932 -0.13288,0.0664 -0.9966,-0.19932 -0.86373,-0.26576 -0.39864,0.26576 -0.86373,-0.26576 -0.46508,-0.53152 -0.26576,0 -0.46508,-0.53152 -0.19932,-0.53152 -0.0664,-0.0664 -0.19932,-0.59796 -0.13288,-0.53152 -0.0664,-0.3322 0.0664,-1.06304 0.13288,-0.73085 0,-0.59797 0.13288,-0.73085 0.13288,-0.13288 1.06305,-0.59796 1.06305,-0.59796 z"
       id="path6216" />
    <path
       style="fill:#ffffff;stroke:#000000;stroke-width:0.3;stroke-linecap:butt;stroke-linejoin:miter;stroke-miterlimit:4;stroke-dasharray:none;stroke-opacity:1"
       d="m 262.26964,211.42946 c 1.46168,-0.19932 0.93016,-0.13288 1.46168,-0.19932 0.53152,-0.0664 0.3322,0 1.12948,0.26576 0.79729,0.26576 1.06305,0.19932 1.06305,0.46508 0,0.26576 -0.13288,-0.3322 0,0.26576 0.13288,0.59797 0.13288,-0.26576 0.13288,0.73085 0,0.9966 0.19932,0.13288 0,1.06304 -0.19932,0.93016 0.39864,0.59796 -0.19932,0.93016 -0.59797,0.3322 -0.46509,0.3322 -1.39525,0.39864 -0.93016,0.0664 0.0664,0.26576 -0.93016,0.0664 -0.9966,-0.19932 -0.13288,0.0664 -0.9966,-0.19932 -0.86373,-0.26576 -0.39864,0.26576 -0.86373,-0.26576 -0.46508,-0.53152 -0.26576,0 -0.46508,-0.53152 -0.19932,-0.53152 -0.0664,-0.0664 -0.19932,-0.59796 -0.13288,-0.53152 -0.0664,-0.3322 0.0664,-1.06304 0.13288,-0.73085 0,-0.59797 0.13288,-0.73085 0.13288,-0.13288 1.06305,-0.59796 1.06305,-0.59796 z"
       id="path6218" />
    <path
       style="fill:#ffffff;stroke:#000000;stroke-width:0.3;stroke-linecap:butt;stroke-linejoin:miter;stroke-miterlimit:4;stroke-dasharray:none;stroke-opacity:1"
       d="m 270.26964,211.42946 c 1.46168,-0.19932 0.93016,-0.13288 1.46168,-0.19932 0.53152,-0.0664 0.3322,0 1.12948,0.26576 0.79729,0.26576 1.06305,0.19932 1.06305,0.46508 0,0.26576 -0.13288,-0.3322 0,0.26576 0.13288,0.59797 0.13288,-0.26576 0.13288,0.73085 0,0.9966 0.19932,0.13288 0,1.06304 -0.19932,0.93016 0.39864,0.59796 -0.19932,0.93016 -0.59797,0.3322 -0.46509,0.3322 -1.39525,0.39864 -0.93016,0.0664 0.0664,0.26576 -0.93016,0.0664 -0.9966,-0.19932 -0.13288,0.0664 -0.9966,-0.19932 -0.86373,-0.26576 -0.39864,0.26576 -0.86373,-0.26576 -0.46508,-0.53152 -0.26576,0 -0.46508,-0.53152 -0.19932,-0.53152 -0.0664,-0.0664 -0.19932,-0.59796 -0.13288,-0.53152 -0.0664,-0.3322 0.0664,-1.06304 0.13288,-0.73085 0,-0.59797 0.13288,-0.73085 0.13288,-0.13288 1.06305,-0.59796 1.06305,-0.59796 z"
       id="path6220" />
    <path
       style="fill:#ffffff;stroke:#000000;stroke-width:0.3;stroke-linecap:butt;stroke-linejoin:miter;stroke-miterlimit:4;stroke-dasharray:none;stroke-opacity:1"
       d="m 278.26964,211.42946 c 1.46168,-0.19932 0.93016,-0.13288 1.46168,-0.19932 0.53152,-0.0664 0.3322,0 1.12948,0.26576 0.79729,0.26576 1.06305,0.19932 1.06305,0.46508 0,0.26576 -0.13288,-0.3322 0,0.26576 0.13288,0.59797 0.13288,-0.26576 0.13288,0.73085 0,0.9966 0.19932,0.13288 0,1.06304 -0.19932,0.93016 0.39864,0.59796 -0.19932,0.93016 -0.59797,0.3322 -0.46509,0.3322 -1.39525,0.39864 -0.93016,0.0664 0.0664,0.26576 -0.93016,0.0664 -0.9966,-0.19932 -0.13288,0.0664 -0.9966,-0.19932 -0.86373,-0.26576 -0.39864,0.26576 -0.86373,-0.26576 -0.46508,-0.53152 -0.26576,0 -0.46508,-0.53152 -0.19932,-0.53152 -0.0664,-0.0664 -0.19932,-0.59796 -0.13288,-0.53152 -0.0664,-0.3322 0.0664,-1.06304 0.13288,-0.73085 0,-0.59797 0.13288,-0.73085 0.13288,-0.13288 1.06305,-0.59796 1.06305,-0.59796 z"
       id="path6222" />
    <path
       style="fill:#ffffff;stroke:#000000;stroke-width:0.3;stroke-linecap:butt;stroke-linejoin:miter;stroke-miterlimit:4;stroke-dasharray:none;stroke-opacity:1"
       d="m 286.26964,211.42946 c 1.46168,-0.19932 0.93016,-0.13288 1.46168,-0.19932 0.53152,-0.0664 0.3322,0 1.12948,0.26576 0.79729,0.26576 1.06305,0.19932 1.06305,0.46508 0,0.26576 -0.13288,-0.3322 0,0.26576 0.13288,0.59797 0.13288,-0.26576 0.13288,0.73085 0,0.9966 0.19932,0.13288 0,1.06304 -0.19932,0.93016 0.39864,0.59796 -0.19932,0.93016 -0.59797,0.3322 -0.46509,0.3322 -1.39525,0.39864 -0.93016,0.0664 0.0664,0.26576 -0.93016,0.0664 -0.9966,-0.19932 -0.13288,0.0664 -0.9966,-0.19932 -0.86373,-0.26576 -0.39864,0.26576 -0.86373,-0.26576 -0.46508,-0.53152 -0.26576,0 -0.46508,-0.53152 -0.19932,-0.53152 -0.0664,-0.0664 -0.19932,-0.59796 -0.13288,-0.53152 -0.0664,-0.3322 0.0664,-1.06304 0.13288,-0.73085 0,-0.59797 0.13288,-0.73085 0.13288,-0.13288 1.06305,-0.59796 1.06305,-0.59796 z"
       id="path6224" />
    <path
       style="fill:#ffffff;stroke:#000000;stroke-width:0.3;stroke-linecap:butt;stroke-linejoin:miter;stroke-miterlimit:4;stroke-dasharray:none;stroke-opacity:1"
       d="m 294.26964,211.42946 c 1.46168,-0.19932 0.93016,-0.13288 1.46168,-0.19932 0.53152,-0.0664 0.3322,0 1.12948,0.26576 0.79729,0.26576 1.06305,0.19932 1.06305,0.46508 0,0.26576 -0.13288,-0.3322 0,0.26576 0.13288,0.59797 0.13288,-0.26576 0.13288,0.73085 0,0.9966 0.19932,0.13288 0,1.06304 -0.19932,0.93016 0.39864,0.59796 -0.19932,0.93016 -0.59797,0.3322 -0.46509,0.3322 -1.39525,0.39864 -0.93016,0.0664 0.0664,0.26576 -0.93016,0.0664 -0.9966,-0.19932 -0.13288,0.0664 -0.9966,-0.19932 -0.86373,-0.26576 -0.39864,0.26576 -0.86373,-0.26576 -0.46508,-0.53152 -0.26576,0 -0.46508,-0.53152 -0.19932,-0.53152 -0.0664,-0.0664 -0.19932,-0.59796 -0.13288,-0.53152 -0.0664,-0.3322 0.0664,-1.06304 0.13288,-0.73085 0,-0.59797 0.13288,-0.73085 0.13288,-0.13288 1.06305,-0.59796 1.06305,-0.59796 z"
       id="path6226" />
    <path
       style="fill:#ffffff;stroke:#000000;stroke-width:0.3;stroke-linecap:butt;stroke-linejoin:miter;stroke-miterlimit:4;stroke-dasharray:none;stroke-opacity:1"
       d="m 302.26964,211.42946 c 1.46168,-0.19932 0.93016,-0.13288 1.46168,-0.19932 0.53152,-0.0664 0.3322,0 1.12948,0.26576 0.79729,0.26576 1.06305,0.19932 1.06305,0.46508 0,0.26576 -0.13288,-0.3322 0,0.26576 0.13288,0.59797 0.13288,-0.26576 0.13288,0.73085 0,0.9966 0.19932,0.13288 0,1.06304 -0.19932,0.93016 0.39864,0.59796 -0.19932,0.93016 -0.59797,0.3322 -0.46509,0.3322 -1.39525,0.39864 -0.93016,0.0664 0.0664,0.26576 -0.93016,0.0664 -0.9966,-0.19932 -0.13288,0.0664 -0.9966,-0.19932 -0.86373,-0.26576 -0.39864,0.26576 -0.86373,-0.26576 -0.46508,-0.53152 -0.26576,0 -0.46508,-0.53152 -0.19932,-0.53152 -0.0664,-0.0664 -0.19932,-0.59796 -0.13288,-0.53152 -0.0664,-0.3322 0.0664,-1.06304 0.13288,-0.73085 0,-0.59797 0.13288,-0.73085 0.13288,-0.13288 1.06305,-0.59796 1.06305,-0.59796 z"
       id="path6228" />
    <path
       style="fill:none;stroke:#000000;stroke-width:1px;stroke-linecap:butt;stroke-linejoin:miter;stroke-opacity:1"
       d="m 310.78836,185.05995 c -0.66763,1.5133 -0.53503,0.93013 -0.68099,1.65993"
       id="path6964" />
    <path
       style="fill:none;stroke:#000000;stroke-width:1px;stroke-linecap:butt;stroke-linejoin:miter;stroke-opacity:1"
       d="m 311.76729,184.16615 c -0.1084,0.52112 -0.49422,0.91892 -0.681,1.40455 -0.15502,0.40307 0.37142,-0.32707 -0.0426,0.42562 -0.33921,0.61674 -0.3675,0.56841 -0.93636,0.72356"
       id="path6966" />
    <path
       style="fill:none;stroke:#000000;stroke-width:1px;stroke-linecap:butt;stroke-linejoin:miter;stroke-opacity:1"
       d="m 309.171,187.27318 c 1.74623,-1.92533 1.75087,-1.0116 1.61736,-2.21323 -0.84128,0.29878 -1.55291,1.37901 -2.08554,2.00042"
       id="path6968" />
    <path
       style="fill:none;stroke:#000000;stroke-width:1px;stroke-linecap:butt;stroke-linejoin:miter;stroke-opacity:1"
       d="m 309.85199,185.5707 c -1.894,1.70922 -2.52069,1.68561 -1.14917,1.48967"
       id="path6970" />
    <path
       style="fill:none;stroke:#000000;stroke-width:1px;stroke-linecap:butt;stroke-linejoin:miter;stroke-opacity:1"
       d="m 313.46977,182.93185 c -0.57357,1.43393 0.26025,-0.62022 -2.00042,3.49009 -0.17147,0.31177 -0.28375,0.65262 -0.42562,0.97893"
       id="path6972" />
    <path
       style="fill:none;stroke:#000000;stroke-width:1px;stroke-linecap:butt;stroke-linejoin:miter;stroke-opacity:1"
       d="m 313.46977,182.93185 c -1.41474,0.0707 -0.82068,-0.14313 -2.25579,1.36199 -0.30002,0.31465 -0.31537,0.43536 -0.42562,0.76611"
       id="path6974" />
    <path
       style="fill:none;stroke:#000000;stroke-width:1px;stroke-linecap:butt;stroke-linejoin:miter;stroke-opacity:1"
       d="m 313.46977,182.93185 c -0.92882,1.27712 -0.40809,0.66347 -1.5748,1.83017 -0.0568,0.0567 -0.1135,0.1135 -0.17025,0.17025 -0.0851,0.0851 -0.13609,0.23911 -0.25537,0.25537 -0.22883,0.0312 -0.45399,-0.0851 -0.68099,-0.12769"
       id="path6976" />
    <path
       style="fill:none;stroke:#000000;stroke-width:1px;stroke-linecap:butt;stroke-linejoin:miter;stroke-opacity:1"
       d="m 314.85454,182.04142 c -0.40484,0.1975 -0.84841,0.33008 -1.21452,0.5925 -0.27771,0.19904 -0.44437,0.51963 -0.68099,0.76611 -0.10445,0.1088 -0.23086,0.19438 -0.3405,0.29794 -0.48637,0.45935 -0.94076,0.98001 -1.31943,1.53223 -0.89966,1.31202 -0.2088,0.57695 -1.19173,1.48968"
       id="path6978" />
    <path
       style="fill:none;stroke:#000000;stroke-width:1px;stroke-linecap:butt;stroke-linejoin:miter;stroke-opacity:1"
       d="m 310.78836,185.05995 c 0.0551,-0.14126 -1.17557,-0.53713 -0.68099,-0.0426 0.0284,0.0284 0.0451,0.0826 0.0851,0.0851 0.19874,0.0124 0.39725,-0.0284 0.59587,-0.0426"
       id="path6980" />
    <path
       style="fill:none;stroke:#000000;stroke-width:1px;stroke-linecap:butt;stroke-linejoin:miter;stroke-opacity:1"
       d="m 309.171,187.27318 c 4.44763,-0.37037 8.90386,0.19663 13.32193,0.63843 0.79106,0.0791 1.58848,-0.0851 2.38348,-0.0851 0.86589,0 1.73073,0.0611 2.59629,0.0851 0.24109,0.007 0.48878,0.0552 0.72355,0 0.16165,-0.038 0.30818,-0.1258 0.46819,-0.17024 0.11577,-0.13566 0.25708,-0.0174 0.38305,-0.0426 0.5986,-0.11972 1.21801,-0.29793 1.83017,-0.29793"
       id="path6982" />
    <path
       style="fill:none;stroke:#000000;stroke-width:1px;stroke-linecap:butt;stroke-linejoin:miter;stroke-opacity:1"
       d="m 328.66444,187.74137 c -0.0851,-0.1135 -0.11442,-0.32439 -0.25538,-0.3405 -0.95924,-0.93965 -2.01986,0.10277 -3.02191,0 -0.45514,-0.0467 -0.90645,-0.12754 -1.36198,-0.17025 -1.03549,-0.0971 -2.06879,-0.12769 -3.10703,-0.12769 -0.24195,0 -1.35888,-0.002 -1.53224,0.0851"
       id="path6984" />
    <path
       style="fill:none;stroke:#000000;stroke-width:1px;stroke-linecap:butt;stroke-linejoin:miter;stroke-opacity:1"
       d="m 328.66444,187.74137 c 5.59768,-0.3844 1.01906,-0.14584 6.4598,-0.22705 1.5218,-0.0227 3.94571,-0.21063 5.82192,-0.12129 3.53816,0.16849 3.5891,0.20421 6.0645,0.30323 0.9916,0.0397 1.97922,-0.18194 2.97161,-0.18194 0.88497,0 2.94227,0.43185 3.94192,0.18194 0.0277,-0.007 0.0338,-0.0509 0.0607,-0.0606 0.33243,-0.12088 0.72861,-0.24258 1.09161,-0.24258"
       id="path6986" />
    <path
       style="fill:none;stroke:#000000;stroke-width:1px;stroke-linecap:butt;stroke-linejoin:miter;stroke-opacity:1"
       d="m 352.28678,187.63561 c 1.53692,-0.0113 3.07207,0.0606 4.60902,0.0606 1.09161,0 2.18322,0 3.27483,0 0.82881,0.0404 1.65666,0.11514 2.48644,0.12129 1.90027,0.0141 3.80031,-0.0607 5.70063,-0.0607 0.95032,0 1.90021,0.0809 2.85031,0.0607 0.95183,-0.0203 1.89846,-0.16351 2.85032,-0.18194 2.18281,-0.0422 4.36678,0.0385 6.54966,0 1.2546,-0.0221 2.50561,-0.14935 3.75999,-0.18193 0.32396,-0.008 0.70067,-0.11912 0.97032,0.0606 0.0606,0.0404 0.13039,0.0698 0.18193,0.12129 0.0452,0.0452 -0.003,0.18194 0.0606,0.18194 0.0202,0 0,-0.0404 0,-0.0607"
       id="path6988" />
    <path
       style="fill:none;stroke:#000000;stroke-width:1px;stroke-linecap:butt;stroke-linejoin:miter;stroke-opacity:1"
       d="m 385.58083,187.75676 c 1.37254,1.37472 0.17322,0.20217 5.64003,0.0608 0.48877,-0.0126 0.97032,-0.12129 1.45548,-0.18194 1.94064,-0.0606 3.88041,-0.16505 5.82192,-0.18193 0.4063,-0.004 0.81277,0.1919 1.2129,0.12129 1.01137,-0.17848 2.00737,-0.47992 3.03225,-0.54581 1.95682,-0.12579 3.9249,-0.11186 5.88257,0 6.64861,0.37993 -1.10015,-0.12016 3.27483,0.30323 0.22133,0.0214 0.44576,-0.0214 0.66709,0 0.80448,0.0778 1.7565,0.29802 2.54709,0.42451 0.27946,0.0447 0.56602,0 0.84903,0 0.54581,0 1.10221,-0.10704 1.63742,0 0.34842,0.0697 -0.0174,0.0607 0.18193,0.0607"
       id="path6990" />
    <path
       style="fill:none;stroke:#000000;stroke-width:1px;stroke-linecap:butt;stroke-linejoin:miter;stroke-opacity:1"
       d="m 411.17307,187.81755 c -3.13757,0.17292 -6.26658,-0.12129 -9.39998,-0.12129 -1.60265,0 -0.98899,0.13328 -1.87999,-0.12129"
       id="path6992" />
    <path
       style="fill:none;stroke:#000000;stroke-width:1px;stroke-linecap:butt;stroke-linejoin:miter;stroke-opacity:1"
       d="m 388.977,187.69626 c -1.27355,0 -2.54709,0 -3.82064,0 -1.07918,0 -0.67001,0.12012 -1.27354,-0.12129"
       id="path6994" />
    <path
       style="fill:none;stroke:#000000;stroke-width:1px;stroke-linecap:butt;stroke-linejoin:miter;stroke-opacity:1"
       d="m 385.58083,187.75676 c 2.68177,-0.49383 1.56354,-0.67138 3.39617,-0.0605"
       id="path6996" />
    <path
       style="fill:none;stroke:#000000;stroke-width:1px;stroke-linecap:butt;stroke-linejoin:miter;stroke-opacity:1"
       d="m 417.78337,187.81761 c 0.86925,0.10105 1.7361,0.22536 2.60774,0.30316 1.04779,0.0935 2.10285,-0.0696 3.15353,-0.12129 1.53175,-0.0753 0.98022,-0.0606 2.30451,-0.0606 0.93467,0 1.85922,0.0497 2.78967,0.12129 1.59229,0.12248 3.1946,-0.0448 4.79096,0 0.66958,0.0188 1.33159,0.16769 2.00128,0.18193 0.28582,0.006 0.56357,-0.10577 0.84903,-0.12129 1.57561,-0.0856 3.15269,-0.15069 4.73031,-0.18193 0.48549,-0.01 0.9699,0.0606 1.45548,0.0606 2.26408,-0.1415 4.52471,-0.35821 6.79224,-0.42451 1.21306,-0.0355 2.42605,0.16854 3.6387,0.12129 1.53637,-0.0599 3.07155,-0.16833 4.60902,-0.18194 1.04118,-0.009 1.92811,0.18194 2.91096,0.18194"
       id="path6998" />
    <path
       style="fill:none;stroke:#000000;stroke-width:1px;stroke-linecap:butt;stroke-linejoin:miter;stroke-opacity:1"
       d="m 435.49171,187.87819 c -2.40559,0 -4.81117,0 -7.21676,0"
       id="path7000" />
    <path
       style="fill:none;stroke:#000000;stroke-width:1px;stroke-linecap:butt;stroke-linejoin:miter;stroke-opacity:1"
       d="m 420.99756,187.7569 c -0.13647,-0.48845 -1.21073,0.22527 -1.51613,-0.18193 -0.0653,-0.0871 0.19508,-0.10881 0.30323,-0.12129 0.14632,-0.0169 2.20295,-0.19861 2.48644,-0.12129 0.11372,0.031 0.1978,0.12922 0.30323,0.18193 0.22108,0.11055 0.60642,0.0999 0.78838,0.12129 1.70343,0.20041 3.92265,0.53349 5.33676,0.84903 1.07342,0.23953 2.09604,0.66818 3.15354,0.97032 0.21731,0.0621 0.44253,0.14681 0.66709,0.12129 0.26202,-0.0298 2.44474,-0.47849 3.03225,-0.72774 0.34163,-0.14493 0.63577,-0.38521 0.97032,-0.5458 0.17289,-0.083 0.38318,-0.0803 0.54581,-0.18194 0.0383,-0.0239 -0.0271,-0.091 -0.0607,-0.12129 -0.48602,-0.43742 -0.58229,-0.48162 -1.2129,-0.66709 -0.62199,-0.18294 -0.93025,0.37657 -0.42451,0.60645 0.32456,0.14753 1.45463,-0.19397 0.12129,-0.0607"
       id="path7002" />
    <path
       style="fill:none;stroke:#000000;stroke-width:1px;stroke-linecap:butt;stroke-linejoin:miter;stroke-opacity:1"
       d="m 460.4168,187.69626 c -0.24258,-0.22237 -1.05598,-0.69054 -0.72774,-0.6671 0.5774,0.0413 1.00646,0.62856 1.57677,0.72774 0.40621,0.0707 0.80159,-0.21388 1.2129,-0.24258 0.46426,-0.0324 0.94452,-0.0568 1.39484,0.0607 0.0978,0.0255 0.0972,0.27546 0,0.30322 -0.27282,0.078 -0.97592,0.19314 -0.84903,-0.0606 0.1359,-0.27182 0.63197,-0.18407 0.90967,-0.0607 0.14428,0.0641 -0.21093,0.34244 -0.36387,0.30323 -0.70981,-0.182 -1.47002,-0.40498 -2.00128,-0.90968 -0.59543,-0.56565 1.66818,-0.2695 1.15225,0.18194 -0.21299,0.18636 -1.115,-0.0967 -0.84903,0 0.48099,0.1749 1.01882,0.12161 1.51613,0.24258 0.25535,0.0621 0.46758,0.26606 0.72774,0.30322 0.12813,0.0183 -0.40927,-0.16835 -0.30323,-0.24258 0.54315,-0.3802 1.69497,-0.0673 2.18322,0 0.16145,0.0223 0.64814,0.0606 0.48516,0.0606 -0.60818,0 -2.25668,-0.2627 -2.54709,-0.30323 -0.28314,-0.0395 -1.12484,-0.19651 -0.84903,-0.12129 0.49722,0.13561 1.01456,0.18468 1.51613,0.30323 0.61081,0.14437 1.21515,0.31523 1.81935,0.48516 0.0435,0.0122 0.0962,0.0983 0.12129,0.0606 0.0859,-0.12889 -0.40831,-1.09589 -0.48516,-1.15225 -0.18587,-0.1363 -0.44399,-0.12409 -0.6671,-0.18194 -0.32272,-0.0837 -0.63977,-0.19908 -0.97032,-0.24258 -0.60042,-0.079 -1.92216,-0.0606 -2.54709,-0.0606 -0.48815,0 -0.84953,-0.0201 -1.33419,0.0606 -0.14516,0.0242 -0.27919,0.098 -0.42451,0.12129 -0.12407,0.0198 -1.22297,0.0101 -1.51613,0.30323 -0.0143,0.0143 0.0404,-3.9e-4 0.0607,0 1.03097,0.0198 2.06508,-0.0224 3.09289,0.0606 0.9774,0.079 1.94598,0.25029 2.91096,0.42452 0.49214,0.0889 0.96947,0.24605 1.45548,0.36387 0.18113,0.0439 0.37006,0.0593 0.54581,0.12129 0.71292,0.25162 0.2809,0.24258 0.5458,0.24258"
       id="path7004" />
    <path
       style="fill:none;stroke:#000000;stroke-width:1px;stroke-linecap:butt;stroke-linejoin:miter;stroke-opacity:1"
       d="m 460.4168,187.69626 c -0.85622,-0.77781 -1.92277,-0.22638 -2.91096,-0.60645 -0.37899,-0.14577 0.50007,-0.18194 0.6671,-0.18194"
       id="path7006" />
    <path
       style="fill:none;stroke:#000000;stroke-width:1px;stroke-linecap:butt;stroke-linejoin:miter;stroke-opacity:1"
       d="m 467.15221,186.57456 c -0.001,0.29304 -0.24498,0.71265 -0.004,0.87912 1.50753,1.04058 4.42235,0.60645 6.24643,0.60645 1.09161,0 2.18339,-0.0191 3.27483,0 0.32402,0.006 0.64797,0.094 0.97032,0.0606 0.56624,-0.0586 1.12885,-0.17473 1.69806,-0.18193 1.26659,-0.016 2.59261,0.12129 3.88128,0.12129"
       id="path7008" />
    <path
       style="fill:none;stroke:#000000;stroke-width:1px;stroke-linecap:butt;stroke-linejoin:miter;stroke-opacity:1"
       d="m 468.18608,187.05173 c 2.83648,0.83997 1.27349,0.65102 3.08618,0.58388 0.26339,-0.01 0.78838,-0.20292 0.78838,0.0606"
       id="path7010" />
    <path
       style="fill:none;stroke:#000000;stroke-width:1px;stroke-linecap:butt;stroke-linejoin:miter;stroke-opacity:1"
       d="m 483.21913,188.06009 c 1.05124,-0.12128 2.09588,-0.39167 3.15373,-0.36383 1.26603,0.0333 2.49474,0.49039 3.75999,0.5458 1.51588,0.0664 3.03144,-0.14692 4.54837,-0.18193 1.31363,-0.0303 2.62801,-0.0118 3.94193,0 3.9456,0.0356 7.88093,0.0606 11.82577,0.0606 1.21985,0 2.41282,-0.13275 3.6387,-0.0606 0.36825,0.0217 0.72366,0.15565 1.09161,0.18193 1.71753,0.12268 3.49145,-0.0606 5.21547,-0.0606"
       id="path7012" />
    <path
       style="fill:none;stroke:#000000;stroke-width:1px;stroke-linecap:butt;stroke-linejoin:miter;stroke-opacity:1"
       d="m 492.67994,187.81755 c -2.18757,-0.0663 -1.34978,0.0841 -2.54709,-0.18194"
       id="path7014" />
    <path
       style="fill:#ffffff;stroke:#000000;stroke-width:0.3;stroke-linecap:butt;stroke-linejoin:miter;stroke-miterlimit:4;stroke-dasharray:none;stroke-opacity:1"
       d="m 358.26964,211.42946 c 1.46168,-0.19932 0.93016,-0.13288 1.46168,-0.19932 0.53152,-0.0664 0.3322,0 1.12948,0.26576 0.79729,0.26576 1.06305,0.19932 1.06305,0.46508 0,0.26576 -0.13288,-0.3322 0,0.26576 0.13288,0.59797 0.13288,-0.26576 0.13288,0.73085 0,0.9966 0.19932,0.13288 0,1.06304 -0.19932,0.93016 0.39864,0.59796 -0.19932,0.93016 -0.59797,0.3322 -0.46509,0.3322 -1.39525,0.39864 -0.93016,0.0664 0.0664,0.26576 -0.93016,0.0664 -0.9966,-0.19932 -0.13288,0.0664 -0.9966,-0.19932 -0.86373,-0.26576 -0.39864,0.26576 -0.86373,-0.26576 -0.46508,-0.53152 -0.26576,0 -0.46508,-0.53152 -0.19932,-0.53152 -0.0664,-0.0664 -0.19932,-0.59796 -0.13288,-0.53152 -0.0664,-0.3322 0.0664,-1.06304 0.13288,-0.73085 0,-0.59797 0.13288,-0.73085 0.13288,-0.13288 1.06305,-0.59796 1.06305,-0.59796 z"
       id="path7096" />
    <path
       style="fill:#ffffff;stroke:#000000;stroke-width:0.3;stroke-linecap:butt;stroke-linejoin:miter;stroke-miterlimit:4;stroke-dasharray:none;stroke-opacity:1"
       d="m 374.26964,211.42946 c 1.46168,-0.19932 0.93016,-0.13288 1.46168,-0.19932 0.53152,-0.0664 0.3322,0 1.12948,0.26576 0.79729,0.26576 1.06305,0.19932 1.06305,0.46508 0,0.26576 -0.13288,-0.3322 0,0.26576 0.13288,0.59797 0.13288,-0.26576 0.13288,0.73085 0,0.9966 0.19932,0.13288 0,1.06304 -0.19932,0.93016 0.39864,0.59796 -0.19932,0.93016 -0.59797,0.3322 -0.46509,0.3322 -1.39525,0.39864 -0.93016,0.0664 0.0664,0.26576 -0.93016,0.0664 -0.9966,-0.19932 -0.13288,0.0664 -0.9966,-0.19932 -0.86373,-0.26576 -0.39864,0.26576 -0.86373,-0.26576 -0.46508,-0.53152 -0.26576,0 -0.46508,-0.53152 -0.19932,-0.53152 -0.0664,-0.0664 -0.19932,-0.59796 -0.13288,-0.53152 -0.0664,-0.3322 0.0664,-1.06304 0.13288,-0.73085 0,-0.59797 0.13288,-0.73085 0.13288,-0.13288 1.06305,-0.59796 1.06305,-0.59796 z"
       id="path7098" />
    <path
       style="fill:#ffffff;stroke:#000000;stroke-width:0.3;stroke-linecap:butt;stroke-linejoin:miter;stroke-miterlimit:4;stroke-dasharray:none;stroke-opacity:1"
       d="m 382.26964,211.42946 c 1.46168,-0.19932 0.93016,-0.13288 1.46168,-0.19932 0.53152,-0.0664 0.3322,0 1.12948,0.26576 0.79729,0.26576 1.06305,0.19932 1.06305,0.46508 0,0.26576 -0.13288,-0.3322 0,0.26576 0.13288,0.59797 0.13288,-0.26576 0.13288,0.73085 0,0.9966 0.19932,0.13288 0,1.06304 -0.19932,0.93016 0.39864,0.59796 -0.19932,0.93016 -0.59797,0.3322 -0.46509,0.3322 -1.39525,0.39864 -0.93016,0.0664 0.0664,0.26576 -0.93016,0.0664 -0.9966,-0.19932 -0.13288,0.0664 -0.9966,-0.19932 -0.86373,-0.26576 -0.39864,0.26576 -0.86373,-0.26576 -0.46508,-0.53152 -0.26576,0 -0.46508,-0.53152 -0.19932,-0.53152 -0.0664,-0.0664 -0.19932,-0.59796 -0.13288,-0.53152 -0.0664,-0.3322 0.0664,-1.06304 0.13288,-0.73085 0,-0.59797 0.13288,-0.73085 0.13288,-0.13288 1.06305,-0.59796 1.06305,-0.59796 z"
       id="path7100" />
    <path
       style="fill:none;stroke:none;stroke-width:1.1;stroke-linecap:butt;stroke-linejoin:miter;stroke-opacity:1;stroke-miterlimit:4;stroke-dasharray:none"
       d="m 414.47339,518.16622 c 4.32053,0.14899 3.42663,-0.22347 4.32053,0.14899 0.8939,0.37246 0.37246,-0.14899 0.8939,0.37246 0.52145,0.52144 0.89391,0.14898 0.89391,1.41535 0,1.26636 0.0745,6.92775 0.0745,6.92775 0,0 0.29797,-0.81941 0,0 -0.29797,0.81941 -1.8623,1.56433 -2.38374,1.63882 -0.52145,0.0745 -4.39503,0.0745 -4.39503,0.0745 0,0 -2.23476,-1.04289 -2.60722,-1.26637 -0.37246,-0.22347 -0.37246,-8.3431 -0.37246,-8.3431 0,0 -0.22348,0.67043 0.0745,-0.0745 0.29797,-0.74492 3.50113,-0.89391 3.50113,-0.89391 z"
       id="path7135" />
    <path
       style="fill:none;stroke:#ffffff;stroke-width:1px;stroke-linecap:butt;stroke-linejoin:miter;stroke-opacity:1"
       d="m 420.96011,212.51075 -0.30388,4.52002 c 0,0 -1.26411,1.38301 -2.09422,1.38301 -0.83012,0 -4.68455,0.33031 -4.68455,0.33031 l -2.50978,-1.16042 -0.36894,-4.33504 -0.10096,-4.11401 1.57672,-1.05115 1.99891,0.0827 3.62742,0.01 2.12141,0.83011 z"
       id="path8580" />
    <path
       style="fill:#ffffff;stroke:#000000;stroke-width:0.3;stroke-linecap:butt;stroke-linejoin:miter;stroke-miterlimit:4;stroke-dasharray:none;stroke-opacity:1"
       d="m 414.26964,211.42946 c 1.46168,-0.19932 0.93016,-0.13288 1.46168,-0.19932 0.53152,-0.0664 0.3322,0 1.12948,0.26576 0.79729,0.26576 1.06305,0.19932 1.06305,0.46508 0,0.26576 -0.13288,-0.3322 0,0.26576 0.13288,0.59797 0.13288,-0.26576 0.13288,0.73085 0,0.9966 0.19932,0.13288 0,1.06304 -0.19932,0.93016 0.39864,0.59796 -0.19932,0.93016 -0.59797,0.3322 -0.46509,0.3322 -1.39525,0.39864 -0.93016,0.0664 0.0664,0.26576 -0.93016,0.0664 -0.9966,-0.19932 -0.13288,0.0664 -0.9966,-0.19932 -0.86373,-0.26576 -0.39864,0.26576 -0.86373,-0.26576 -0.46508,-0.53152 -0.26576,0 -0.46508,-0.53152 -0.19932,-0.53152 -0.0664,-0.0664 -0.19932,-0.59796 -0.13288,-0.53152 -0.0664,-0.3322 0.0664,-1.06304 0.13288,-0.73085 0,-0.59797 0.13288,-0.73085 0.13288,-0.13288 1.06305,-0.59796 1.06305,-0.59796 z"
       id="path11711" />
    <path
       style="fill:#ffffff;stroke:#000000;stroke-width:0.3;stroke-linecap:butt;stroke-linejoin:miter;stroke-miterlimit:4;stroke-dasharray:none;stroke-opacity:1"
       d="m 426.26964,211.42946 c 1.46168,-0.19932 0.93016,-0.13288 1.46168,-0.19932 0.53152,-0.0664 0.3322,0 1.12948,0.26576 0.79729,0.26576 1.06305,0.19932 1.06305,0.46508 0,0.26576 -0.13288,-0.3322 0,0.26576 0.13288,0.59797 0.13288,-0.26576 0.13288,0.73085 0,0.9966 0.19932,0.13288 0,1.06304 -0.19932,0.93016 0.39864,0.59796 -0.19932,0.93016 -0.59797,0.3322 -0.46509,0.3322 -1.39525,0.39864 -0.93016,0.0664 0.0664,0.26576 -0.93016,0.0664 -0.9966,-0.19932 -0.13288,0.0664 -0.9966,-0.19932 -0.86373,-0.26576 -0.39864,0.26576 -0.86373,-0.26576 -0.46508,-0.53152 -0.26576,0 -0.46508,-0.53152 -0.19932,-0.53152 -0.0664,-0.0664 -0.19932,-0.59796 -0.13288,-0.53152 -0.0664,-0.3322 0.0664,-1.06304 0.13288,-0.73085 0,-0.59797 0.13288,-0.73085 0.13288,-0.13288 1.06305,-0.59796 1.06305,-0.59796 z"
       id="path11713" />
    <path
       style="fill:#ffffff;stroke:#000000;stroke-width:0.3;stroke-linecap:butt;stroke-linejoin:miter;stroke-miterlimit:4;stroke-dasharray:none;stroke-opacity:1"
       d="m 434.26964,211.42946 c 1.46168,-0.19932 0.93016,-0.13288 1.46168,-0.19932 0.53152,-0.0664 0.3322,0 1.12948,0.26576 0.79729,0.26576 1.06305,0.19932 1.06305,0.46508 0,0.26576 -0.13288,-0.3322 0,0.26576 0.13288,0.59797 0.13288,-0.26576 0.13288,0.73085 0,0.9966 0.19932,0.13288 0,1.06304 -0.19932,0.93016 0.39864,0.59796 -0.19932,0.93016 -0.59797,0.3322 -0.46509,0.3322 -1.39525,0.39864 -0.93016,0.0664 0.0664,0.26576 -0.93016,0.0664 -0.9966,-0.19932 -0.13288,0.0664 -0.9966,-0.19932 -0.86373,-0.26576 -0.39864,0.26576 -0.86373,-0.26576 -0.46508,-0.53152 -0.26576,0 -0.46508,-0.53152 -0.19932,-0.53152 -0.0664,-0.0664 -0.19932,-0.59796 -0.13288,-0.53152 -0.0664,-0.3322 0.0664,-1.06304 0.13288,-0.73085 0,-0.59797 0.13288,-0.73085 0.13288,-0.13288 1.06305,-0.59796 1.06305,-0.59796 z"
       id="path11715" />
    <path
       style="fill:#ffffff;stroke:#000000;stroke-width:0.3;stroke-linecap:butt;stroke-linejoin:miter;stroke-miterlimit:4;stroke-dasharray:none;stroke-opacity:1"
       d="m 442.26964,211.42946 c 1.46168,-0.19932 0.93016,-0.13288 1.46168,-0.19932 0.53152,-0.0664 0.3322,0 1.12948,0.26576 0.79729,0.26576 1.06305,0.19932 1.06305,0.46508 0,0.26576 -0.13288,-0.3322 0,0.26576 0.13288,0.59797 0.13288,-0.26576 0.13288,0.73085 0,0.9966 0.19932,0.13288 0,1.06304 -0.19932,0.93016 0.39864,0.59796 -0.19932,0.93016 -0.59797,0.3322 -0.46509,0.3322 -1.39525,0.39864 -0.93016,0.0664 0.0664,0.26576 -0.93016,0.0664 -0.9966,-0.19932 -0.13288,0.0664 -0.9966,-0.19932 -0.86373,-0.26576 -0.39864,0.26576 -0.86373,-0.26576 -0.46508,-0.53152 -0.26576,0 -0.46508,-0.53152 -0.19932,-0.53152 -0.0664,-0.0664 -0.19932,-0.59796 -0.13288,-0.53152 -0.0664,-0.3322 0.0664,-1.06304 0.13288,-0.73085 0,-0.59797 0.13288,-0.73085 0.13288,-0.13288 1.06305,-0.59796 1.06305,-0.59796 z"
       id="path11717" />
    <path
       style="fill:#ffffff;stroke:#000000;stroke-width:0.3;stroke-linecap:butt;stroke-linejoin:miter;stroke-miterlimit:4;stroke-dasharray:none;stroke-opacity:1"
       d="m 450.26964,211.42946 c 1.46168,-0.19932 0.93016,-0.13288 1.46168,-0.19932 0.53152,-0.0664 0.3322,0 1.12948,0.26576 0.79729,0.26576 1.06305,0.19932 1.06305,0.46508 0,0.26576 -0.13288,-0.3322 0,0.26576 0.13288,0.59797 0.13288,-0.26576 0.13288,0.73085 0,0.9966 0.19932,0.13288 0,1.06304 -0.19932,0.93016 0.39864,0.59796 -0.19932,0.93016 -0.59797,0.3322 -0.46509,0.3322 -1.39525,0.39864 -0.93016,0.0664 0.0664,0.26576 -0.93016,0.0664 -0.9966,-0.19932 -0.13288,0.0664 -0.9966,-0.19932 -0.86373,-0.26576 -0.39864,0.26576 -0.86373,-0.26576 -0.46508,-0.53152 -0.26576,0 -0.46508,-0.53152 -0.19932,-0.53152 -0.0664,-0.0664 -0.19932,-0.59796 -0.13288,-0.53152 -0.0664,-0.3322 0.0664,-1.06304 0.13288,-0.73085 0,-0.59797 0.13288,-0.73085 0.13288,-0.13288 1.06305,-0.59796 1.06305,-0.59796 z"
       id="path11719" />
    <path
       style="fill:#ffffff;stroke:#000000;stroke-width:0.3;stroke-linecap:butt;stroke-linejoin:miter;stroke-miterlimit:4;stroke-dasharray:none;stroke-opacity:1"
       d="m 458.26964,211.42946 c 1.46168,-0.19932 0.93016,-0.13288 1.46168,-0.19932 0.53152,-0.0664 0.3322,0 1.12948,0.26576 0.79729,0.26576 1.06305,0.19932 1.06305,0.46508 0,0.26576 -0.13288,-0.3322 0,0.26576 0.13288,0.59797 0.13288,-0.26576 0.13288,0.73085 0,0.9966 0.19932,0.13288 0,1.06304 -0.19932,0.93016 0.39864,0.59796 -0.19932,0.93016 -0.59797,0.3322 -0.46509,0.3322 -1.39525,0.39864 -0.93016,0.0664 0.0664,0.26576 -0.93016,0.0664 -0.9966,-0.19932 -0.13288,0.0664 -0.9966,-0.19932 -0.86373,-0.26576 -0.39864,0.26576 -0.86373,-0.26576 -0.46508,-0.53152 -0.26576,0 -0.46508,-0.53152 -0.19932,-0.53152 -0.0664,-0.0664 -0.19932,-0.59796 -0.13288,-0.53152 -0.0664,-0.3322 0.0664,-1.06304 0.13288,-0.73085 0,-0.59797 0.13288,-0.73085 0.13288,-0.13288 1.06305,-0.59796 1.06305,-0.59796 z"
       id="path11721" />
    <path
       style="fill:#ffffff;stroke:#000000;stroke-width:0.3;stroke-linecap:butt;stroke-linejoin:miter;stroke-miterlimit:4;stroke-dasharray:none;stroke-opacity:1"
       d="m 466.26964,211.42946 c 1.46168,-0.19932 0.93016,-0.13288 1.46168,-0.19932 0.53152,-0.0664 0.3322,0 1.12948,0.26576 0.79729,0.26576 1.06305,0.19932 1.06305,0.46508 0,0.26576 -0.13288,-0.3322 0,0.26576 0.13288,0.59797 0.13288,-0.26576 0.13288,0.73085 0,0.9966 0.19932,0.13288 0,1.06304 -0.19932,0.93016 0.39864,0.59796 -0.19932,0.93016 -0.59797,0.3322 -0.46509,0.3322 -1.39525,0.39864 -0.93016,0.0664 0.0664,0.26576 -0.93016,0.0664 -0.9966,-0.19932 -0.13288,0.0664 -0.9966,-0.19932 -0.86373,-0.26576 -0.39864,0.26576 -0.86373,-0.26576 -0.46508,-0.53152 -0.26576,0 -0.46508,-0.53152 -0.19932,-0.53152 -0.0664,-0.0664 -0.19932,-0.59796 -0.13288,-0.53152 -0.0664,-0.3322 0.0664,-1.06304 0.13288,-0.73085 0,-0.59797 0.13288,-0.73085 0.13288,-0.13288 1.06305,-0.59796 1.06305,-0.59796 z"
       id="path11723" />
    <path
       style="fill:#ffffff;stroke:#000000;stroke-width:0.3;stroke-linecap:butt;stroke-linejoin:miter;stroke-miterlimit:4;stroke-dasharray:none;stroke-opacity:1"
       d="m 474.26964,211.42946 c 1.46168,-0.19932 0.93016,-0.13288 1.46168,-0.19932 0.53152,-0.0664 0.3322,0 1.12948,0.26576 0.79729,0.26576 1.06305,0.19932 1.06305,0.46508 0,0.26576 -0.13288,-0.3322 0,0.26576 0.13288,0.59797 0.13288,-0.26576 0.13288,0.73085 0,0.9966 0.19932,0.13288 0,1.06304 -0.19932,0.93016 0.39864,0.59796 -0.19932,0.93016 -0.59797,0.3322 -0.46509,0.3322 -1.39525,0.39864 -0.93016,0.0664 0.0664,0.26576 -0.93016,0.0664 -0.9966,-0.19932 -0.13288,0.0664 -0.9966,-0.19932 -0.86373,-0.26576 -0.39864,0.26576 -0.86373,-0.26576 -0.46508,-0.53152 -0.26576,0 -0.46508,-0.53152 -0.19932,-0.53152 -0.0664,-0.0664 -0.19932,-0.59796 -0.13288,-0.53152 -0.0664,-0.3322 0.0664,-1.06304 0.13288,-0.73085 0,-0.59797 0.13288,-0.73085 0.13288,-0.13288 1.06305,-0.59796 1.06305,-0.59796 z"
       id="path11725" />
    <path
       style="fill:#ffffff;stroke:#000000;stroke-width:0.3;stroke-linecap:butt;stroke-linejoin:miter;stroke-miterlimit:4;stroke-dasharray:none;stroke-opacity:1"
       d="m 482.26964,211.42946 c 1.46168,-0.19932 0.93016,-0.13288 1.46168,-0.19932 0.53152,-0.0664 0.3322,0 1.12948,0.26576 0.79729,0.26576 1.06305,0.19932 1.06305,0.46508 0,0.26576 -0.13288,-0.3322 0,0.26576 0.13288,0.59797 0.13288,-0.26576 0.13288,0.73085 0,0.9966 0.19932,0.13288 0,1.06304 -0.19932,0.93016 0.39864,0.59796 -0.19932,0.93016 -0.59797,0.3322 -0.46509,0.3322 -1.39525,0.39864 -0.93016,0.0664 0.0664,0.26576 -0.93016,0.0664 -0.9966,-0.19932 -0.13288,0.0664 -0.9966,-0.19932 -0.86373,-0.26576 -0.39864,0.26576 -0.86373,-0.26576 -0.46508,-0.53152 -0.26576,0 -0.46508,-0.53152 -0.19932,-0.53152 -0.0664,-0.0664 -0.19932,-0.59796 -0.13288,-0.53152 -0.0664,-0.3322 0.0664,-1.06304 0.13288,-0.73085 0,-0.59797 0.13288,-0.73085 0.13288,-0.13288 1.06305,-0.59796 1.06305,-0.59796 z"
       id="path11727" />
    <path
       style="fill:#ffffff;stroke:#000000;stroke-width:0.3;stroke-linecap:butt;stroke-linejoin:miter;stroke-miterlimit:4;stroke-dasharray:none;stroke-opacity:1"
       d="m 490.26964,211.42946 c 1.46168,-0.19932 0.93016,-0.13288 1.46168,-0.19932 0.53152,-0.0664 0.3322,0 1.12948,0.26576 0.79729,0.26576 1.06305,0.19932 1.06305,0.46508 0,0.26576 -0.13288,-0.3322 0,0.26576 0.13288,0.59797 0.13288,-0.26576 0.13288,0.73085 0,0.9966 0.19932,0.13288 0,1.06304 -0.19932,0.93016 0.39864,0.59796 -0.19932,0.93016 -0.59797,0.3322 -0.46509,0.3322 -1.39525,0.39864 -0.93016,0.0664 0.0664,0.26576 -0.93016,0.0664 -0.9966,-0.19932 -0.13288,0.0664 -0.9966,-0.19932 -0.86373,-0.26576 -0.39864,0.26576 -0.86373,-0.26576 -0.46508,-0.53152 -0.26576,0 -0.46508,-0.53152 -0.19932,-0.53152 -0.0664,-0.0664 -0.19932,-0.59796 -0.13288,-0.53152 -0.0664,-0.3322 0.0664,-1.06304 0.13288,-0.73085 0,-0.59797 0.13288,-0.73085 0.13288,-0.13288 1.06305,-0.59796 1.06305,-0.59796 z"
       id="path11729" />
    <path
       style="fill:#ffffff;stroke:#000000;stroke-width:0.3;stroke-linecap:butt;stroke-linejoin:miter;stroke-miterlimit:4;stroke-dasharray:none;stroke-opacity:1"
       d="m 498.26964,211.42946 c 1.46168,-0.19932 0.93016,-0.13288 1.46168,-0.19932 0.53152,-0.0664 0.3322,0 1.12948,0.26576 0.79729,0.26576 1.06305,0.19932 1.06305,0.46508 0,0.26576 -0.13288,-0.3322 0,0.26576 0.13288,0.59797 0.13288,-0.26576 0.13288,0.73085 0,0.9966 0.19932,0.13288 0,1.06304 -0.19932,0.93016 0.39864,0.59796 -0.19932,0.93016 -0.59797,0.3322 -0.46509,0.3322 -1.39525,0.39864 -0.93016,0.0664 0.0664,0.26576 -0.93016,0.0664 -0.9966,-0.19932 -0.13288,0.0664 -0.9966,-0.19932 -0.86373,-0.26576 -0.39864,0.26576 -0.86373,-0.26576 -0.46508,-0.53152 -0.26576,0 -0.46508,-0.53152 -0.19932,-0.53152 -0.0664,-0.0664 -0.19932,-0.59796 -0.13288,-0.53152 -0.0664,-0.3322 0.0664,-1.06304 0.13288,-0.73085 0,-0.59797 0.13288,-0.73085 0.13288,-0.13288 1.06305,-0.59796 1.06305,-0.59796 z"
       id="path11731" />
    <path
       style="fill:#ffffff;stroke:#000000;stroke-width:0.3;stroke-linecap:butt;stroke-linejoin:miter;stroke-miterlimit:4;stroke-dasharray:none;stroke-opacity:1"
       d="m 506.26964,211.42946 c 1.46168,-0.19932 0.93016,-0.13288 1.46168,-0.19932 0.53152,-0.0664 0.3322,0 1.12948,0.26576 0.79729,0.26576 1.06305,0.19932 1.06305,0.46508 0,0.26576 -0.13288,-0.3322 0,0.26576 0.13288,0.59797 0.13288,-0.26576 0.13288,0.73085 0,0.9966 0.19932,0.13288 0,1.06304 -0.19932,0.93016 0.39864,0.59796 -0.19932,0.93016 -0.59797,0.3322 -0.46509,0.3322 -1.39525,0.39864 -0.93016,0.0664 0.0664,0.26576 -0.93016,0.0664 -0.9966,-0.19932 -0.13288,0.0664 -0.9966,-0.19932 -0.86373,-0.26576 -0.39864,0.26576 -0.86373,-0.26576 -0.46508,-0.53152 -0.26576,0 -0.46508,-0.53152 -0.19932,-0.53152 -0.0664,-0.0664 -0.19932,-0.59796 -0.13288,-0.53152 -0.0664,-0.3322 0.0664,-1.06304 0.13288,-0.73085 0,-0.59797 0.13288,-0.73085 0.13288,-0.13288 1.06305,-0.59796 1.06305,-0.59796 z"
       id="path11733" />
    <path
       style="fill:#ffffff;stroke:#000000;stroke-width:0.3;stroke-linecap:butt;stroke-linejoin:miter;stroke-miterlimit:4;stroke-dasharray:none;stroke-opacity:1"
       d="m 514.26964,211.42946 c 1.46168,-0.19932 0.93016,-0.13288 1.46168,-0.19932 0.53152,-0.0664 0.3322,0 1.12948,0.26576 0.79729,0.26576 1.06305,0.19932 1.06305,0.46508 0,0.26576 -0.13288,-0.3322 0,0.26576 0.13288,0.59797 0.13288,-0.26576 0.13288,0.73085 0,0.9966 0.19932,0.13288 0,1.06304 -0.19932,0.93016 0.39864,0.59796 -0.19932,0.93016 -0.59797,0.3322 -0.46509,0.3322 -1.39525,0.39864 -0.93016,0.0664 0.0664,0.26576 -0.93016,0.0664 -0.9966,-0.19932 -0.13288,0.0664 -0.9966,-0.19932 -0.86373,-0.26576 -0.39864,0.26576 -0.86373,-0.26576 -0.46508,-0.53152 -0.26576,0 -0.46508,-0.53152 -0.19932,-0.53152 -0.0664,-0.0664 -0.19932,-0.59796 -0.13288,-0.53152 -0.0664,-0.3322 0.0664,-1.06304 0.13288,-0.73085 0,-0.59797 0.13288,-0.73085 0.13288,-0.13288 1.06305,-0.59796 1.06305,-0.59796 z"
       id="path11735" />
    <path
       style="fill:#ffffff;stroke:#000000;stroke-width:0.3;stroke-linecap:butt;stroke-linejoin:miter;stroke-miterlimit:4;stroke-dasharray:none;stroke-opacity:1"
       d="m 524.26964,211.42946 c 1.46168,-0.19932 0.93016,-0.13288 1.46168,-0.19932 0.53152,-0.0664 0.3322,0 1.12948,0.26576 0.79729,0.26576 1.06305,0.19932 1.06305,0.46508 0,0.26576 -0.13288,-0.3322 0,0.26576 0.13288,0.59797 0.13288,-0.26576 0.13288,0.73085 0,0.9966 0.19932,0.13288 0,1.06304 -0.19932,0.93016 0.39864,0.59796 -0.19932,0.93016 -0.59797,0.3322 -0.46509,0.3322 -1.39525,0.39864 -0.93016,0.0664 0.0664,0.26576 -0.93016,0.0664 -0.9966,-0.19932 -0.13288,0.0664 -0.9966,-0.19932 -0.86373,-0.26576 -0.39864,0.26576 -0.86373,-0.26576 -0.46508,-0.53152 -0.26576,0 -0.46508,-0.53152 -0.19932,-0.53152 -0.0664,-0.0664 -0.19932,-0.59796 -0.13288,-0.53152 -0.0664,-0.3322 0.0664,-1.06304 0.13288,-0.73085 0,-0.59797 0.13288,-0.73085 0.13288,-0.13288 1.06305,-0.59796 1.06305,-0.59796 z"
       id="path11737" />
    <path
       style="fill:#ffffff;stroke:#000000;stroke-width:0.3;stroke-linecap:butt;stroke-linejoin:miter;stroke-miterlimit:4;stroke-dasharray:none;stroke-opacity:1"
       d="m 534.26964,211.42946 c 1.46168,-0.19932 0.93016,-0.13288 1.46168,-0.19932 0.53152,-0.0664 0.3322,0 1.12948,0.26576 0.79729,0.26576 1.06305,0.19932 1.06305,0.46508 0,0.26576 -0.13288,-0.3322 0,0.26576 0.13288,0.59797 0.13288,-0.26576 0.13288,0.73085 0,0.9966 0.19932,0.13288 0,1.06304 -0.19932,0.93016 0.39864,0.59796 -0.19932,0.93016 -0.59797,0.3322 -0.46509,0.3322 -1.39525,0.39864 -0.93016,0.0664 0.0664,0.26576 -0.93016,0.0664 -0.9966,-0.19932 -0.13288,0.0664 -0.9966,-0.19932 -0.86373,-0.26576 -0.39864,0.26576 -0.86373,-0.26576 -0.46508,-0.53152 -0.26576,0 -0.46508,-0.53152 -0.19932,-0.53152 -0.0664,-0.0664 -0.19932,-0.59796 -0.13288,-0.53152 -0.0664,-0.3322 0.0664,-1.06304 0.13288,-0.73085 0,-0.59797 0.13288,-0.73085 0.13288,-0.13288 1.06305,-0.59796 1.06305,-0.59796 z"
       id="path11739" />
    <path
       style="fill:#ffffff;stroke:#000000;stroke-width:0.3;stroke-linecap:butt;stroke-linejoin:miter;stroke-miterlimit:4;stroke-dasharray:none;stroke-opacity:1"
       d="m 544.26964,211.42946 c 1.46168,-0.19932 0.93016,-0.13288 1.46168,-0.19932 0.53152,-0.0664 0.3322,0 1.12948,0.26576 0.79729,0.26576 1.06305,0.19932 1.06305,0.46508 0,0.26576 -0.13288,-0.3322 0,0.26576 0.13288,0.59797 0.13288,-0.26576 0.13288,0.73085 0,0.9966 0.19932,0.13288 0,1.06304 -0.19932,0.93016 0.39864,0.59796 -0.19932,0.93016 -0.59797,0.3322 -0.46509,0.3322 -1.39525,0.39864 -0.93016,0.0664 0.0664,0.26576 -0.93016,0.0664 -0.9966,-0.19932 -0.13288,0.0664 -0.9966,-0.19932 -0.86373,-0.26576 -0.39864,0.26576 -0.86373,-0.26576 -0.46508,-0.53152 -0.26576,0 -0.46508,-0.53152 -0.19932,-0.53152 -0.0664,-0.0664 -0.19932,-0.59796 -0.13288,-0.53152 -0.0664,-0.3322 0.0664,-1.06304 0.13288,-0.73085 0,-0.59797 0.13288,-0.73085 0.13288,-0.13288 1.06305,-0.59796 1.06305,-0.59796 z"
       id="path11741" />
    <path
       style="fill:#ffffff;stroke:#000000;stroke-width:0.3;stroke-linecap:butt;stroke-linejoin:miter;stroke-miterlimit:4;stroke-dasharray:none;stroke-opacity:1"
       d="m 556.26964,211.42946 c 1.46168,-0.19932 0.93016,-0.13288 1.46168,-0.19932 0.53152,-0.0664 0.3322,0 1.12948,0.26576 0.79729,0.26576 1.06305,0.19932 1.06305,0.46508 0,0.26576 -0.13288,-0.3322 0,0.26576 0.13288,0.59797 0.13288,-0.26576 0.13288,0.73085 0,0.9966 0.19932,0.13288 0,1.06304 -0.19932,0.93016 0.39864,0.59796 -0.19932,0.93016 -0.59797,0.3322 -0.46509,0.3322 -1.39525,0.39864 -0.93016,0.0664 0.0664,0.26576 -0.93016,0.0664 -0.9966,-0.19932 -0.13288,0.0664 -0.9966,-0.19932 -0.86373,-0.26576 -0.39864,0.26576 -0.86373,-0.26576 -0.46508,-0.53152 -0.26576,0 -0.46508,-0.53152 -0.19932,-0.53152 -0.0664,-0.0664 -0.19932,-0.59796 -0.13288,-0.53152 -0.0664,-0.3322 0.0664,-1.06304 0.13288,-0.73085 0,-0.59797 0.13288,-0.73085 0.13288,-0.13288 1.06305,-0.59796 1.06305,-0.59796 z"
       id="path11743" />
    <path
       style="fill:#ffffff;stroke:#000000;stroke-width:0.3;stroke-linecap:butt;stroke-linejoin:miter;stroke-miterlimit:4;stroke-dasharray:none;stroke-opacity:1"
       d="m 566.26964,211.42946 c 1.46168,-0.19932 0.93016,-0.13288 1.46168,-0.19932 0.53152,-0.0664 0.3322,0 1.12948,0.26576 0.79729,0.26576 1.06305,0.19932 1.06305,0.46508 0,0.26576 -0.13288,-0.3322 0,0.26576 0.13288,0.59797 0.13288,-0.26576 0.13288,0.73085 0,0.9966 0.19932,0.13288 0,1.06304 -0.19932,0.93016 0.39864,0.59796 -0.19932,0.93016 -0.59797,0.3322 -0.46509,0.3322 -1.39525,0.39864 -0.93016,0.0664 0.0664,0.26576 -0.93016,0.0664 -0.9966,-0.19932 -0.13288,0.0664 -0.9966,-0.19932 -0.86373,-0.26576 -0.39864,0.26576 -0.86373,-0.26576 -0.46508,-0.53152 -0.26576,0 -0.46508,-0.53152 -0.19932,-0.53152 -0.0664,-0.0664 -0.19932,-0.59796 -0.13288,-0.53152 -0.0664,-0.3322 0.0664,-1.06304 0.13288,-0.73085 0,-0.59797 0.13288,-0.73085 0.13288,-0.13288 1.06305,-0.59796 1.06305,-0.59796 z"
       id="path11745" />
    <path
       style="fill:#ffffff;stroke:#000000;stroke-width:0.3;stroke-linecap:butt;stroke-linejoin:miter;stroke-miterlimit:4;stroke-dasharray:none;stroke-opacity:1"
       d="m 578.26964,211.42946 c 1.46168,-0.19932 0.93016,-0.13288 1.46168,-0.19932 0.53152,-0.0664 0.3322,0 1.12948,0.26576 0.79729,0.26576 1.06305,0.19932 1.06305,0.46508 0,0.26576 -0.13288,-0.3322 0,0.26576 0.13288,0.59797 0.13288,-0.26576 0.13288,0.73085 0,0.9966 0.19932,0.13288 0,1.06304 -0.19932,0.93016 0.39864,0.59796 -0.19932,0.93016 -0.59797,0.3322 -0.46509,0.3322 -1.39525,0.39864 -0.93016,0.0664 0.0664,0.26576 -0.93016,0.0664 -0.9966,-0.19932 -0.13288,0.0664 -0.9966,-0.19932 -0.86373,-0.26576 -0.39864,0.26576 -0.86373,-0.26576 -0.46508,-0.53152 -0.26576,0 -0.46508,-0.53152 -0.19932,-0.53152 -0.0664,-0.0664 -0.19932,-0.59796 -0.13288,-0.53152 -0.0664,-0.3322 0.0664,-1.06304 0.13288,-0.73085 0,-0.59797 0.13288,-0.73085 0.13288,-0.13288 1.06305,-0.59796 1.06305,-0.59796 z"
       id="path11747" />
    <path
       style="fill:#ffffff;stroke:#000000;stroke-width:0.3;stroke-linecap:butt;stroke-linejoin:miter;stroke-miterlimit:4;stroke-dasharray:none;stroke-opacity:1"
       d="m 588.26964,211.42946 c 1.46168,-0.19932 0.93016,-0.13288 1.46168,-0.19932 0.53152,-0.0664 0.3322,0 1.12948,0.26576 0.79729,0.26576 1.06305,0.19932 1.06305,0.46508 0,0.26576 -0.13288,-0.3322 0,0.26576 0.13288,0.59797 0.13288,-0.26576 0.13288,0.73085 0,0.9966 0.19932,0.13288 0,1.06304 -0.19932,0.93016 0.39864,0.59796 -0.19932,0.93016 -0.59797,0.3322 -0.46509,0.3322 -1.39525,0.39864 -0.93016,0.0664 0.0664,0.26576 -0.93016,0.0664 -0.9966,-0.19932 -0.13288,0.0664 -0.9966,-0.19932 -0.86373,-0.26576 -0.39864,0.26576 -0.86373,-0.26576 -0.46508,-0.53152 -0.26576,0 -0.46508,-0.53152 -0.19932,-0.53152 -0.0664,-0.0664 -0.19932,-0.59796 -0.13288,-0.53152 -0.0664,-0.3322 0.0664,-1.06304 0.13288,-0.73085 0,-0.59797 0.13288,-0.73085 0.13288,-0.13288 1.06305,-0.59796 1.06305,-0.59796 z"
       id="path11749" />
    <path
       style="fill:#ffffff;stroke:#000000;stroke-width:0.3;stroke-linecap:butt;stroke-linejoin:miter;stroke-miterlimit:4;stroke-dasharray:none;stroke-opacity:1"
       d="m 598.26964,211.42946 c 1.46168,-0.19932 0.93016,-0.13288 1.46168,-0.19932 0.53152,-0.0664 0.3322,0 1.12948,0.26576 0.79729,0.26576 1.06305,0.19932 1.06305,0.46508 0,0.26576 -0.13288,-0.3322 0,0.26576 0.13288,0.59797 0.13288,-0.26576 0.13288,0.73085 0,0.9966 0.19932,0.13288 0,1.06304 -0.19932,0.93016 0.39864,0.59796 -0.19932,0.93016 -0.59797,0.3322 -0.46509,0.3322 -1.39525,0.39864 -0.93016,0.0664 0.0664,0.26576 -0.93016,0.0664 -0.9966,-0.19932 -0.13288,0.0664 -0.9966,-0.19932 -0.86373,-0.26576 -0.39864,0.26576 -0.86373,-0.26576 -0.46508,-0.53152 -0.26576,0 -0.46508,-0.53152 -0.19932,-0.53152 -0.0664,-0.0664 -0.19932,-0.59796 -0.13288,-0.53152 -0.0664,-0.3322 0.0664,-1.06304 0.13288,-0.73085 0,-0.59797 0.13288,-0.73085 0.13288,-0.13288 1.06305,-0.59796 1.06305,-0.59796 z"
       id="path11751" />
    <path
       style="fill:#ffffff;stroke:#000000;stroke-width:0.3;stroke-linecap:butt;stroke-linejoin:miter;stroke-miterlimit:4;stroke-dasharray:none;stroke-opacity:1"
       d="m 608.26964,211.42946 c 1.46168,-0.19932 0.93016,-0.13288 1.46168,-0.19932 0.53152,-0.0664 0.3322,0 1.12948,0.26576 0.79729,0.26576 1.06305,0.19932 1.06305,0.46508 0,0.26576 -0.13288,-0.3322 0,0.26576 0.13288,0.59797 0.13288,-0.26576 0.13288,0.73085 0,0.9966 0.19932,0.13288 0,1.06304 -0.19932,0.93016 0.39864,0.59796 -0.19932,0.93016 -0.59797,0.3322 -0.46509,0.3322 -1.39525,0.39864 -0.93016,0.0664 0.0664,0.26576 -0.93016,0.0664 -0.9966,-0.19932 -0.13288,0.0664 -0.9966,-0.19932 -0.86373,-0.26576 -0.39864,0.26576 -0.86373,-0.26576 -0.46508,-0.53152 -0.26576,0 -0.46508,-0.53152 -0.19932,-0.53152 -0.0664,-0.0664 -0.19932,-0.59796 -0.13288,-0.53152 -0.0664,-0.3322 0.0664,-1.06304 0.13288,-0.73085 0,-0.59797 0.13288,-0.73085 0.13288,-0.13288 1.06305,-0.59796 1.06305,-0.59796 z"
       id="path11753" />
    <path
       style="fill:#ffffff;stroke:#000000;stroke-width:0.3;stroke-linecap:butt;stroke-linejoin:miter;stroke-miterlimit:4;stroke-dasharray:none;stroke-opacity:1"
       d="m 618.26964,211.42946 c 1.46168,-0.19932 0.93016,-0.13288 1.46168,-0.19932 0.53152,-0.0664 0.3322,0 1.12948,0.26576 0.79729,0.26576 1.06305,0.19932 1.06305,0.46508 0,0.26576 -0.13288,-0.3322 0,0.26576 0.13288,0.59797 0.13288,-0.26576 0.13288,0.73085 0,0.9966 0.19932,0.13288 0,1.06304 -0.19932,0.93016 0.39864,0.59796 -0.19932,0.93016 -0.59797,0.3322 -0.46509,0.3322 -1.39525,0.39864 -0.93016,0.0664 0.0664,0.26576 -0.93016,0.0664 -0.9966,-0.19932 -0.13288,0.0664 -0.9966,-0.19932 -0.86373,-0.26576 -0.39864,0.26576 -0.86373,-0.26576 -0.46508,-0.53152 -0.26576,0 -0.46508,-0.53152 -0.19932,-0.53152 -0.0664,-0.0664 -0.19932,-0.59796 -0.13288,-0.53152 -0.0664,-0.3322 0.0664,-1.06304 0.13288,-0.73085 0,-0.59797 0.13288,-0.73085 0.13288,-0.13288 1.06305,-0.59796 1.06305,-0.59796 z"
       id="path11755" />
    <path
       style="fill:#ffffff;stroke:#000000;stroke-width:0.3;stroke-linecap:butt;stroke-linejoin:miter;stroke-miterlimit:4;stroke-dasharray:none;stroke-opacity:1"
       d="m 628.26964,211.42946 c 1.46168,-0.19932 0.93016,-0.13288 1.46168,-0.19932 0.53152,-0.0664 0.3322,0 1.12948,0.26576 0.79729,0.26576 1.06305,0.19932 1.06305,0.46508 0,0.26576 -0.13288,-0.3322 0,0.26576 0.13288,0.59797 0.13288,-0.26576 0.13288,0.73085 0,0.9966 0.19932,0.13288 0,1.06304 -0.19932,0.93016 0.39864,0.59796 -0.19932,0.93016 -0.59797,0.3322 -0.46509,0.3322 -1.39525,0.39864 -0.93016,0.0664 0.0664,0.26576 -0.93016,0.0664 -0.9966,-0.19932 -0.13288,0.0664 -0.9966,-0.19932 -0.86373,-0.26576 -0.39864,0.26576 -0.86373,-0.26576 -0.46508,-0.53152 -0.26576,0 -0.46508,-0.53152 -0.19932,-0.53152 -0.0664,-0.0664 -0.19932,-0.59796 -0.13288,-0.53152 -0.0664,-0.3322 0.0664,-1.06304 0.13288,-0.73085 0,-0.59797 0.13288,-0.73085 0.13288,-0.13288 1.06305,-0.59796 1.06305,-0.59796 z"
       id="path11757" />
    <path
       style="fill:#ffffff;stroke:#000000;stroke-width:0.3;stroke-linecap:butt;stroke-linejoin:miter;stroke-miterlimit:4;stroke-dasharray:none;stroke-opacity:1"
       d="m 638.26964,211.42946 c 1.46168,-0.19932 0.93016,-0.13288 1.46168,-0.19932 0.53152,-0.0664 0.3322,0 1.12948,0.26576 0.79729,0.26576 1.06305,0.19932 1.06305,0.46508 0,0.26576 -0.13288,-0.3322 0,0.26576 0.13288,0.59797 0.13288,-0.26576 0.13288,0.73085 0,0.9966 0.19932,0.13288 0,1.06304 -0.19932,0.93016 0.39864,0.59796 -0.19932,0.93016 -0.59797,0.3322 -0.46509,0.3322 -1.39525,0.39864 -0.93016,0.0664 0.0664,0.26576 -0.93016,0.0664 -0.9966,-0.19932 -0.13288,0.0664 -0.9966,-0.19932 -0.86373,-0.26576 -0.39864,0.26576 -0.86373,-0.26576 -0.46508,-0.53152 -0.26576,0 -0.46508,-0.53152 -0.19932,-0.53152 -0.0664,-0.0664 -0.19932,-0.59796 -0.13288,-0.53152 -0.0664,-0.3322 0.0664,-1.06304 0.13288,-0.73085 0,-0.59797 0.13288,-0.73085 0.13288,-0.13288 1.06305,-0.59796 1.06305,-0.59796 z"
       id="path11759" />
    <path
       style="fill:#ffffff;stroke:#000000;stroke-width:0.3;stroke-linecap:butt;stroke-linejoin:miter;stroke-miterlimit:4;stroke-dasharray:none;stroke-opacity:1"
       d="m 650.26964,211.42946 c 1.46168,-0.19932 0.93016,-0.13288 1.46168,-0.19932 0.53152,-0.0664 0.3322,0 1.12948,0.26576 0.79729,0.26576 1.06305,0.19932 1.06305,0.46508 0,0.26576 -0.13288,-0.3322 0,0.26576 0.13288,0.59797 0.13288,-0.26576 0.13288,0.73085 0,0.9966 0.19932,0.13288 0,1.06304 -0.19932,0.93016 0.39864,0.59796 -0.19932,0.93016 -0.59797,0.3322 -0.46509,0.3322 -1.39525,0.39864 -0.93016,0.0664 0.0664,0.26576 -0.93016,0.0664 -0.9966,-0.19932 -0.13288,0.0664 -0.9966,-0.19932 -0.86373,-0.26576 -0.39864,0.26576 -0.86373,-0.26576 -0.46508,-0.53152 -0.26576,0 -0.46508,-0.53152 -0.19932,-0.53152 -0.0664,-0.0664 -0.19932,-0.59796 -0.13288,-0.53152 -0.0664,-0.3322 0.0664,-1.06304 0.13288,-0.73085 0,-0.59797 0.13288,-0.73085 0.13288,-0.13288 1.06305,-0.59796 1.06305,-0.59796 z"
       id="path11761" />
  </g>
</svg>
