<?xml version="1.0" encoding="UTF-8" standalone="no"?>
<!-- Created with Inkscape (http://www.inkscape.org/) -->

<svg
   width="210mm"
   height="297mm"
   viewBox="0 0 210 297"
   version="1.1"
   id="svg5"
   inkscape:version="1.1.1 (c3084ef, 2021-09-22)"
   sodipodi:docname="B763.svg"
   xmlns:inkscape="http://www.inkscape.org/namespaces/inkscape"
   xmlns:sodipodi="http://sodipodi.sourceforge.net/DTD/sodipodi-0.dtd"
   xmlns="http://www.w3.org/2000/svg"
   xmlns:svg="http://www.w3.org/2000/svg">
  <sodipodi:namedview
     id="namedview7"
     pagecolor="#ffffff"
     bordercolor="#666666"
     borderopacity="1.0"
     inkscape:pageshadow="2"
     inkscape:pageopacity="0.0"
     inkscape:pagecheckerboard="0"
     inkscape:document-units="mm"
     showgrid="false"
     inkscape:zoom="2.6122858"
     inkscape:cx="122.68949"
     inkscape:cy="98.189869"
     inkscape:window-width="1312"
     inkscape:window-height="771"
     inkscape:window-x="0"
     inkscape:window-y="25"
     inkscape:window-maximized="0"
     inkscape:current-layer="layer1" />
  <defs
     id="defs2" />
  <g
     inkscape:label="Layer 1"
     inkscape:groupmode="layer"
     id="layer1">
    <path
       style="fill:#000000;stroke:#000000;stroke-width:0.157023;stroke-linecap:butt;stroke-linejoin:miter;stroke-miterlimit:4;stroke-dasharray:none;stroke-opacity:1"
       d="M 2.8263355,12.114306 C 2.6442281,12.007184 2.5049691,11.878638 2.5049691,11.878638 l -0.064273,-0.107123 c 0,0 -0.021425,0 -0.053561,-0.07499 -0.032135,-0.07499 -0.053561,-0.235669 -0.053561,-0.235669 0,0 -0.032135,-0.02142 0,-0.07498 0.032135,-0.05356 0.28923,-0.353503 0.28923,-0.353503 l 0.2785171,-0.224957 0.4606254,-0.278517 c 0,0 0.042849,-0.02142 0.1071221,-0.09641 0.064273,-0.07498 0.4499129,-0.4499122 0.4499129,-0.4499122 0,0 -0.021424,-0.01071 0.053561,-0.074985 0.074985,-0.064273 1.0176602,-0.4927619 1.0176602,-0.4927619 0,0 0.032137,0 0.09641,-0.032135 0.064273,-0.032135 0.7712795,-0.1928194 0.7712795,-0.1928194 0,0 0.2249563,-0.053561 0.2999416,-0.064273 0.074986,-0.01071 0.5034743,-0.09641 0.5034743,-0.09641 0,0 0.3856393,-0.064273 0.460625,-0.074986 0.074985,-0.01071 0.8784016,-0.021425 0.8784016,-0.021425 l 4.2313232,-0.053561 4.059929,0.042849 2.870873,-0.021425 3.567166,-0.01071 3.738563,0.021425 3.556453,-0.01071 h 3.406485 l 0.417775,-0.01071 0.289231,-0.3642149 h 0.09641 l -0.02143,0.3856393 3.738564,0.021425 0.67487,-0.032135 c 0,0 -0.171397,0.032135 0,0 0.171394,-0.032135 0.97481,-0.2999424 0.97481,-0.2999424 0,0 0.214245,-0.1285466 0.299943,-0.1821075 0.0857,-0.053561 2.388822,-2.270989 2.388822,-2.270989 l 2.474524,-2.4637996 1.4033,-1.3925794 0.514184,-0.5141818 2.056743,0.01071 -1.671104,4.0384823 -0.771278,1.9603351 -0.674868,1.649681 -0.07452,0.2485873 0.65521,-0.030301 0.799128,0.022724 -0.07575,0.1666429 0.802916,-0.018936 1.200586,0.026512 h 0.14013 l 0.007,0.066819 -1.451505,0.3642152 -0.278514,0.07499 0.0054,0.0482 0.230314,0.09641 c 0,0 -0.01605,-0.02678 0,0.0054 0.01605,0.03214 0.04284,0.171395 0.04284,0.171395 0,0 0.0054,-0.02142 0,0.02678 -0.0054,0.04821 -0.06963,0.144615 -0.06963,0.144615 l -0.14461,0.112479 c 0,0 -0.09105,0.04285 -0.128549,0.06427 -0.0375,0.02143 -0.262449,0.12319 -0.262449,0.12319 l -0.289229,0.0857 -0.465979,0.112478 -0.482053,0.09641 -0.851618,0.155327 -0.685583,0.128547 v 0 l -0.765926,0.160683 -0.621307,0.133903 -0.915893,0.208888 -1.344383,0.310654 -2.040676,0.417776 -0.878402,0.166039 c 0,0 -0.107122,0.02678 -0.278517,0.0482 -0.171396,0.02143 -0.316012,0.0482 -0.385641,0.05892 -0.06963,0.01071 -0.712361,0.07499 -0.712361,0.07499 l -0.642734,0.05356 -0.669512,0.05356 -1.140852,-0.01607 -1.306889,-0.01071 -1.756803,0.04285 0.128547,0.337435 -0.139259,0.01071 -0.230314,-0.353503 -1.772869,0.01607 -1.301534,-0.0054 -1.017661,-0.02678 0.09641,0.144615 -0.112479,0.0482 v 0 l 0.0054,0.07499 0.07498,0.02142 -0.112477,0.05892 -0.519542,0.176751 -0.09105,0.03749 0.01607,0.0857 c 0,0 0.0054,0.01071 0.03214,0.0054 0.02678,-0.0054 0.12319,0.04285 0.12319,0.04285 0,0 -0.0054,0.0054 0.01607,0.01607 0.02142,0.01071 0.08034,0.107122 0.08034,0.107122 0,0 -0.02142,-0.0054 0.04285,-0.01607 0.06427,-0.01071 0.214245,-0.02678 0.214245,-0.02678 l 0.155328,0.01071 c 0,0 0.01071,-0.0054 0.06963,0.01607 0.05892,0.02143 0.198175,0.139259 0.198175,0.139259 0,0 0.02678,0.01607 0.05356,0.06427 0.02678,0.04821 0.08034,0.187464 0.08034,0.187464 0,0 -0.01071,-0.09105 0,0 0.01071,0.09105 -0.02142,0.241024 -0.02142,0.241024 0,0 -0.03214,0.07499 -0.04285,0.112479 -0.01071,0.03749 -0.06963,0.12319 -0.06963,0.12319 l -0.128547,0.05892 -0.326722,-0.0054 h -0.257092 c 0,0 0.03749,0.05356 -0.03214,-0.02143 -0.06963,-0.07498 -0.03749,-0.0857 -0.149972,-0.112478 -0.112477,-0.02678 -0.20353,-0.01071 -0.20353,-0.01071 0,0 -0.03214,0.01607 -0.07499,0.05892 -0.04285,0.04285 -0.176751,0.06963 -0.224956,0.07498 -0.04821,0.0054 -0.133903,0.02143 -0.198176,0.01607 -0.06427,-0.0054 -0.149972,-0.0054 -0.246382,-0.04285 -0.09641,-0.03749 -0.14997,-0.05356 -0.14997,-0.05356 l -0.08034,-0.06427 c 0,0 0.04285,-0.01071 -0.0054,0 -0.04821,0.01071 -0.144615,0.03214 -0.144615,0.03214 0,0 0,-0.0054 -0.06427,-0.01071 -0.06427,-0.0054 -0.112478,-0.02143 -0.144614,-0.03749 -0.03214,-0.01607 -0.03749,-0.02143 -0.09641,-0.06427 -0.05891,-0.04285 -0.117832,-0.09105 -0.144613,-0.117834 -0.02678,-0.02678 -0.04285,-0.06963 -0.05892,-0.133902 -0.01607,-0.06427 -0.01071,-0.04821 -0.01071,-0.107123 0,-0.05892 0.05356,-0.166039 0.05892,-0.19282 0.0054,-0.02678 0.0482,-0.112478 0.08034,-0.144614 0.03214,-0.03214 0.14997,-0.123191 0.19282,-0.13926 0.04285,-0.01607 0.123189,-0.0482 0.187464,-0.04285 0.06427,0.0054 0.123189,0.02142 0.123189,0.02142 l 0.09105,-0.117835 -0.0857,-0.101766 -0.09106,-0.396351 -0.166038,-0.0054 0.03214,0.299941 c 0,0 -0.294586,0 -0.374927,0.01071 -0.08034,0.01071 -0.508831,0.09105 -0.508831,0.09105 l -1.11407,0.160683 -0.449913,0.02678 v 0.203532 0.03749 h 0.19282 l -0.0054,0.09641 c 0,0 -0.396351,0.03214 -0.465981,0.03749 -0.06963,0.0054 -0.637376,0.02142 -0.637376,0.02142 0,0 -0.01607,-0.01071 -0.0857,0.0054 -0.06963,0.01607 -0.471338,0.03213 -0.471338,0.03213 l -0.744498,0.01071 c 0,0 0,-0.0054 -0.05892,-0.0054 -0.05892,0 -0.278518,-0.01607 -0.278518,-0.01607 0,0 0.128547,0.01071 -0.02143,0 -0.149971,-0.01071 -0.492762,-0.03749 -0.492762,-0.03749 0,0 0.107123,0.01607 -0.0054,0 -0.112478,-0.01607 -0.449913,-0.08034 -0.449913,-0.08034 0,0 0,-0.02142 -0.01072,-0.04285 -0.01071,-0.02143 -0.02142,-0.139259 -0.02142,-0.139259 0,0 -0.112479,-0.0054 -0.203532,-0.0054 -0.09105,0 -0.407064,-0.04285 -0.407064,-0.04285 l -0.224957,-0.06963 c 0,0 0.0054,-0.0054 -0.01071,-0.06427 -0.01607,-0.05892 -0.02678,-0.06963 -0.04285,-0.155327 -0.01607,-0.0857 -0.01071,-0.166039 -0.01071,-0.166039 v -0.07499 c 0,0 -0.01607,-0.02142 -0.0857,-0.03214 -0.06963,-0.01071 -0.07499,-0.02678 -0.07499,-0.02678 l -0.03214,-0.06963 -0.953387,0.0054 -1.976404,0.0054 -1.542558,0.01071 -2.078169,-0.02678 H 8.9590734 L 7.5343491,13.4105 c 0,0 -0.064273,-0.0054 -0.1713954,-0.01071 -0.1071222,-0.0054 -0.7980599,-0.117834 -0.7980599,-0.117834 l -0.01071,0.407064 -0.080341,0.0482 -0.01607,0.160684 -0.1017661,-0.03213 -0.00536,0.12319 0.1285466,-0.04285 0.1017661,0.139259 -0.1339025,0.224956 c 0,0 -0.01071,-0.01607 0.042849,0.02678 0.053561,0.04285 0.1285462,0.0857 0.1446146,0.133902 0.01607,0.04821 0.02678,0.241025 0.02678,0.241025 0,0 0.00536,0 -0.00536,0.04821 -0.01071,0.0482 -0.091054,0.192819 -0.091054,0.192819 0,0 -0.042849,0.03749 -0.080342,0.07499 -0.037495,0.03749 -0.2838735,0.03213 -0.2838735,0.03213 0,0 0.01071,0 -0.064273,0 -0.074985,0 -0.069629,-0.0054 -0.1017658,-0.03749 -0.032135,-0.03214 -0.1606834,-0.144616 -0.1606834,-0.144616 0,0 0.00536,0.01071 -0.00536,-0.01071 -0.010715,-0.02143 -0.010715,-0.246381 -0.010715,-0.246381 0,0 -0.021425,-0.09105 0.01607,-0.128547 0.037495,-0.03749 0.058917,-0.06963 0.085698,-0.09641 0.02678,-0.02678 0.139259,-0.09105 0.139259,-0.09105 l 0.1017658,-0.02678 -0.021425,-0.112479 -0.321366,-0.02142 -0.2303127,-0.05356 -0.048205,-0.01071 c 0,0 -0.00536,-0.03749 0.01071,-0.06427 0.01607,-0.02678 0.1285466,-0.187464 0.1285466,-0.187464 0,0 -0.02678,0.03214 0,0 0.02678,-0.03214 0.1392586,-0.06427 0.1392586,-0.06427 h 0.176766 L 6.0239339,13.672952 5.4829672,13.555118 5.5847333,13.137342 4.8723711,12.949878 c 0,0 -0.1124782,-0.02678 -0.2945859,-0.09105 C 4.3956776,12.79455 3.8975598,12.612443 3.8975598,12.612443 l -0.4820496,-0.2196 c 0,0 -0.042849,-0.02142 -0.069629,-0.03749 -0.02678,-0.01607 -0.5463227,-0.251737 -0.5463227,-0.251737 z"
       id="path3586" />
    <path
       style="fill:#ffffff;stroke:#000000;stroke-width:0.0660146px;stroke-linecap:butt;stroke-linejoin:miter;stroke-opacity:1"
       d="M 3.2232086,10.686424 3.701723,10.215272 4.2096844,10.207972 3.8047876,10.74538 Z"
       id="path4617" />
    <path
       style="fill:#ffffff;stroke:#000000;stroke-width:0.0595008px;stroke-linecap:butt;stroke-linejoin:miter;stroke-opacity:1"
       d="m 3.8424333,10.710967 0.3848479,-0.51092 0.3317656,0.0066 -0.2189652,0.656895 c 0,0 -0.02654,-0.02654 -0.086259,-0.04645 -0.059718,-0.0199 -0.2056948,-0.06635 -0.2056948,-0.06635 z"
       id="path4765" />
    <path
       style="fill:#ffffff;stroke:#000000;stroke-width:0.0552121px;stroke-linecap:butt;stroke-linejoin:miter;stroke-opacity:1"
       d="m 4.5885808,10.234183 0.2955394,0.03694 0.012313,0.517194 -0.5171939,0.06157 z"
       id="path4948" />
    <path
       style="fill:#ffffff;stroke:#000000;stroke-width:0.0369757px;stroke-linecap:butt;stroke-linejoin:miter;stroke-opacity:1"
       d="m 7.0942954,10.733288 c -0.027793,0.0043 -0.067059,0 -0.067059,0 0,0 0.00428,-0.0014 -0.00144,-0.0057 -0.0057,-0.0043 -0.014609,-0.02031 -0.014609,-0.02031 l -0.00144,-0.04229 c 0,0 -0.00144,-0.01461 0.00428,-0.02174 0.0057,-0.0071 0.033494,-0.01176 0.033494,-0.01176 0,0 0.030643,0 0.036451,0 0.0057,0 0.018885,0.0057 0.018885,0.0057 0,0 0,-0.0043 0.00713,0.0057 0.00713,0.01033 0.00713,0.05249 0.00713,0.05249 0,0 0.00144,0.0014 0,0.01033 -0.00144,0.0089 -0.02316,0.02779 -0.02316,0.02779 z"
       id="path5244" />
    <path
       style="fill:none;stroke:#ffffff;stroke-width:0.264583px;stroke-linecap:butt;stroke-linejoin:miter;stroke-opacity:1"
       d="m 96.611348,50.294469 -0.04173,3.40075 c 0,0 -0.08346,0.187773 -0.187772,0.333817 -0.104317,0.146045 -0.333817,0.271227 -0.333817,0.271227 h -1.919441 c 0,0 -0.06259,0 -0.187772,-0.08346 -0.125182,-0.08345 -0.292089,-0.542451 -0.292089,-0.542451 l 0.02085,-3.212981 V 49.68942 c 0,0 -0.02085,0.04173 0.06259,-0.08345 0.08345,-0.125182 0.458997,-0.312955 0.458997,-0.312955 l 1.25181,-0.04172 0.584178,0.04172 c 0,0 0.02085,0 0.125183,0.104318 0.104317,0.10432 0.312952,0.396405 0.333814,0.47986 0.02088,0.08346 0.125182,0.417272 0.125182,0.417272 z"
       id="path5392" />
    <path
       style="fill:none;stroke:#ffffff;stroke-width:0.264583px;stroke-linecap:butt;stroke-linejoin:miter;stroke-opacity:1"
       d="m 102.4322,50.294469 -0.0417,3.40075 c 0,0 -0.0835,0.187773 -0.18778,0.333817 -0.10432,0.146045 -0.33382,0.271227 -0.33382,0.271227 h -1.919447 c 0,0 -0.0626,0 -0.18777,-0.08346 -0.12518,-0.08345 -0.292087,-0.542451 -0.292087,-0.542451 l 0.0208,-3.212981 V 49.68942 c 0,0 -0.0208,0.04173 0.0626,-0.08345 0.0834,-0.125182 0.459004,-0.312955 0.459004,-0.312955 l 1.25182,-0.04172 0.58418,0.04172 c 0,0 0.0208,0 0.12518,0.104318 0.10432,0.10432 0.31296,0.396405 0.33382,0.47986 0.0209,0.08346 0.12518,0.417272 0.12518,0.417272 z"
       id="path5696" />
    <path
       style="fill:#ffffff;stroke:#000000;stroke-width:0.0442302px;stroke-linecap:butt;stroke-linejoin:miter;stroke-opacity:1"
       d="m 8.4113916,10.76876 v 0.203179 c 0,0 0,0 -0.021161,0.01693 -0.021167,0.01693 -0.067728,0.04233 -0.067728,0.04233 h -0.080428 c 0,0 0.00845,0.01693 -0.012696,0 -0.02116,-0.01693 -0.050791,-0.05926 -0.050791,-0.05926 l -0.021167,-0.04232 0.00425,-0.135453 v -0.04232 c 0,0 0,-0.0043 0.012696,-0.0254 0.012696,-0.02117 0.076193,-0.0508 0.076193,-0.0508 h 0.097356 c 0,0 0.00845,-0.0127 0.021167,0.0084 0.012696,0.02117 0.042328,0.08466 0.042328,0.08466 z"
       id="path5731" />
    <path
       style="fill:#ffffff;stroke:#000000;stroke-width:0.0368458px;stroke-linecap:butt;stroke-linejoin:miter;stroke-opacity:1"
       d="m 38.031501,10.568534 c 0.0276,-0.0043 0.06683,0 0.06683,0 0,0 -0.0043,0.0014 0.0014,0.0058 0.0058,0.0043 0.01453,0.02033 0.01453,0.02033 l 0.0014,0.04213 c 0,0 0.0014,0.01453 -0.0043,0.0218 -0.0058,0.0072 -0.03341,0.01168 -0.03341,0.01168 0,0 -0.03051,0 -0.03631,0 -0.0058,0 -0.01889,-0.0058 -0.01889,-0.0058 0,0 0,0.0043 -0.0072,-0.0058 -0.0072,-0.01016 -0.0072,-0.0523 -0.0072,-0.0523 0,0 -0.0014,-0.0014 0,-0.01016 0.0014,-0.0088 0.02324,-0.0276 0.02324,-0.0276 z"
       id="path5916" />
    <path
       style="fill:#ffffff;stroke:#000000;stroke-width:0.0519914px;stroke-linecap:butt;stroke-linejoin:miter;stroke-opacity:1"
       d="m 30.525198,10.914867 c -0.199026,0.01492 -0.174148,-0.005 -0.174148,-0.005 l -0.02488,-0.05473 0.005,-0.159221 c 0,0 0.01493,-0.0099 0.03483,-0.01492 0.0199,-0.005 0.114439,-0.005 0.114439,-0.005 l 0.0398,0.02488 0.02488,0.02488 c 0,0 0,-0.03483 0,0 0,0.03483 0.005,0.179124 0.005,0.179124 z"
       id="path6038" />
    <path
       style="fill:#ffffff;stroke:#000000;stroke-width:0.0388769px;stroke-linecap:butt;stroke-linejoin:miter;stroke-opacity:1"
       d="m 30.826775,10.829418 v -0.07441 c 0,0 0.0074,-0.02233 0.01117,-0.03721 0.0038,-0.01488 0.06324,-0.04836 0.06324,-0.04836 h 0.05208 l 0.04464,0.01488 c 0,0 0.02233,0.02604 0.02976,0.04093 0.0074,0.01488 0.01117,0.02233 0.01117,0.04092 0,0.01861 0,0.05581 0,0.05581 v 0.02233 l -0.215793,0.0074 z"
       id="path6073" />
    <path
       style="fill:#ffffff;stroke:#000000;stroke-width:0.0445917px;stroke-linecap:butt;stroke-linejoin:miter;stroke-opacity:1"
       d="m 31.359757,10.808851 c 0,0 -0.0085,0.01706 0,-0.02134 0.0085,-0.03841 0.0085,-0.06828 0.0085,-0.06828 0,0 -0.0085,0.0043 0.0043,-0.02134 0.01281,-0.02561 0.07255,-0.02561 0.07255,-0.02561 h 0.06828 l 0.04267,0.0128 c 0,0 0.02561,0.01707 0.02987,0.03841 0.0043,0.02134 0.01281,0.07682 0.01281,0.07682 l -0.0085,0.0128 -0.0043,0.0128 -0.20484,0.0085 -0.03841,-0.0043 z"
       id="path6108" />
    <path
       style="fill:#ffffff;stroke:#000000;stroke-width:0.0594839px;stroke-linecap:butt;stroke-linejoin:miter;stroke-opacity:1"
       d="m 32.114378,10.833442 h -0.284636 c 0,0 0,-0.01138 0,-0.03985 0,-0.02846 0.06831,-0.09108 0.06831,-0.09108 0,0 0.03985,-0.02277 0.07401,-0.02277 0.03416,0 0.04554,0 0.0797,0.01708 0.03415,0.01708 0.05693,0.03985 0.06831,0.06262 0.01137,0.02277 -0.0057,0.07401 -0.0057,0.07401 z"
       id="path6143" />
    <path
       style="fill:#ffffff;stroke:#000000;stroke-width:0.0638865px;stroke-linecap:butt;stroke-linejoin:miter;stroke-opacity:1"
       d="m 32.673002,10.837051 -0.336274,-0.0061 c 0,0 0.0061,-0.0428 0.03057,-0.07337 0.02445,-0.03057 -0.0061,-0.04892 0.06114,-0.06726 0.06726,-0.01834 0.201765,0 0.201765,0 l 0.04891,0.03057 c 0,0 -0.0061,-0.02445 0,0.02445 0.0061,0.04891 -0.0061,0.09171 -0.0061,0.09171 z"
       id="path6178" />
    <path
       style="fill:#ffffff;stroke:#000000;stroke-width:0.0617821px;stroke-linecap:butt;stroke-linejoin:miter;stroke-opacity:1"
       d="m 33.696001,10.844137 -0.360674,-0.01774 c 0,0 -0.01775,-0.01183 0.01775,-0.04139 0.03547,-0.02956 0.189207,-0.0946 0.189207,-0.0946 l 0.106428,0.0059 c 0,0 -0.01181,-0.03548 0.01182,0 0.02365,0.03547 0.0473,0.0473 0.0473,0.0946 0,0.0473 -0.01182,0.05321 -0.01182,0.05321 z"
       id="path6213" />
    <path
       style="fill:#ffffff;stroke:#000000;stroke-width:0.053434px;stroke-linecap:butt;stroke-linejoin:miter;stroke-opacity:1"
       d="m 33.134271,10.83031 -0.08678,0.02531 -0.216958,-0.02893 c 0,0 0.0072,-0.04701 0.01085,-0.0687 0.0036,-0.0217 0.09763,-0.07232 0.09763,-0.07232 h 0.07955 c 0,0 0.03616,-0.01085 0.06147,0.0072 0.02531,0.01808 0.04701,0.04701 0.04701,0.0687 0,0.0217 0.02531,0.06509 0.02531,0.06509 z"
       id="path6659" />
    <path
       style="fill:none;stroke:#ffffff;stroke-width:0.045;stroke-linecap:butt;stroke-linejoin:miter;stroke-miterlimit:4;stroke-dasharray:none;stroke-opacity:1"
       d="m 20.892097,10.459029 0.278532,-0.0063 c 0,0 0.03165,0.01267 0.05064,0.0633 0.01899,0.05064 0.04431,0.278532 0.04431,0.278532 l 0.0063,0.30385 c 0,0 0,0.20257 -0.05697,0.221559 -0.05697,0.019 -0.291192,0.02532 -0.291192,0.02532 0,0 -0.0633,0.03165 -0.107614,-0.019 -0.04431,-0.05064 -0.05064,-0.06963 -0.05064,-0.101285 0,-0.03165 -0.0063,-0.417796 -0.0063,-0.417796 l -0.0063,-0.265872 c 0,0 0.04431,-0.06963 0.07596,-0.07596 0.03165,-0.0063 0.0633,-0.0063 0.0633,-0.0063 z"
       id="path144" />
    <path
       style="fill:none;stroke:#ffffff;stroke-width:0.045;stroke-linecap:butt;stroke-linejoin:miter;stroke-miterlimit:4;stroke-dasharray:none;stroke-opacity:1"
       d="m 21.68189,10.433174 0.278532,-0.0063 c 0,0 0.03165,0.01267 0.05064,0.0633 0.01899,0.05064 0.04431,0.278532 0.04431,0.278532 l 0.0063,0.30385 c 0,0 0,0.20257 -0.05697,0.221559 -0.05697,0.019 -0.291192,0.02532 -0.291192,0.02532 0,0 -0.0633,0.03165 -0.107614,-0.019 -0.04431,-0.05064 -0.05064,-0.06963 -0.05064,-0.101285 0,-0.03165 -0.0063,-0.417796 -0.0063,-0.417796 l -0.0063,-0.265872 c 0,0 0.04431,-0.06963 0.07596,-0.07596 0.03165,-0.0063 0.0633,-0.0063 0.0633,-0.0063 z"
       id="path1041" />
    <path
       style="fill:#ffffff;stroke:#000000;stroke-width:0.0442302px;stroke-linecap:butt;stroke-linejoin:miter;stroke-opacity:1"
       d="m 8.9405583,10.76876 v 0.203179 c 0,0 0,0 -0.021161,0.01693 -0.021167,0.01693 -0.067728,0.04233 -0.067728,0.04233 h -0.080428 c 0,0 0.00845,0.01693 -0.012696,0 -0.02116,-0.01693 -0.050791,-0.05926 -0.050791,-0.05926 l -0.021167,-0.04232 0.00425,-0.135453 v -0.04232 c 0,0 0,-0.0043 0.012696,-0.0254 0.012696,-0.02117 0.076193,-0.0508 0.076193,-0.0508 h 0.097356 c 0,0 0.00845,-0.0127 0.021167,0.0084 0.012696,0.02117 0.042328,0.08466 0.042328,0.08466 z"
       id="path3899" />
    <path
       style="fill:#ffffff;stroke:#000000;stroke-width:0.0442302px;stroke-linecap:butt;stroke-linejoin:miter;stroke-opacity:1"
       d="m 9.4697246,10.76876 v 0.203179 c 0,0 0,0 -0.02116,0.01693 -0.02117,0.01693 -0.06773,0.04233 -0.06773,0.04233 h -0.08043 c 0,0 0.0084,0.01693 -0.0127,0 -0.02116,-0.01693 -0.05079,-0.05926 -0.05079,-0.05926 l -0.02117,-0.04232 0.0043,-0.135453 v -0.04232 c 0,0 0,-0.0043 0.0127,-0.0254 0.0127,-0.02117 0.07619,-0.0508 0.07619,-0.0508 h 0.09736 c 0,0 0.0084,-0.0127 0.02117,0.0084 0.0127,0.02117 0.04233,0.08466 0.04233,0.08466 z"
       id="path3901" />
    <path
       style="fill:#ffffff;stroke:#000000;stroke-width:0.0442302px;stroke-linecap:butt;stroke-linejoin:miter;stroke-opacity:1"
       d="m 11.586392,10.76876 v 0.203179 c 0,0 0,0 -0.02116,0.01693 -0.02117,0.01693 -0.06773,0.04233 -0.06773,0.04233 h -0.08043 c 0,0 0.0084,0.01693 -0.0127,0 -0.02116,-0.01693 -0.05079,-0.05926 -0.05079,-0.05926 l -0.02117,-0.04232 0.0043,-0.135453 v -0.04232 c 0,0 0,-0.0043 0.0127,-0.0254 0.0127,-0.02117 0.07619,-0.0508 0.07619,-0.0508 h 0.09736 c 0,0 0.0084,-0.0127 0.02117,0.0084 0.0127,0.02117 0.04233,0.08466 0.04233,0.08466 z"
       id="path3903" />
    <path
       style="fill:#ffffff;stroke:#000000;stroke-width:0.0442302px;stroke-linecap:butt;stroke-linejoin:miter;stroke-opacity:1"
       d="m 11.057225,10.76876 v 0.203179 c 0,0 0,0 -0.02116,0.01693 -0.02117,0.01693 -0.06773,0.04233 -0.06773,0.04233 h -0.08043 c 0,0 0.0084,0.01693 -0.0127,0 -0.02116,-0.01693 -0.05079,-0.05926 -0.05079,-0.05926 l -0.02117,-0.04232 0.0043,-0.135453 v -0.04232 c 0,0 0,-0.0043 0.0127,-0.0254 0.0127,-0.02117 0.07619,-0.0508 0.07619,-0.0508 h 0.09736 c 0,0 0.0084,-0.0127 0.02117,0.0084 0.0127,0.02117 0.04233,0.08466 0.04233,0.08466 z"
       id="path3905" />
    <path
       style="fill:#ffffff;stroke:#000000;stroke-width:0.0442302px;stroke-linecap:butt;stroke-linejoin:miter;stroke-opacity:1"
       d="m 9.9988913,10.76876 v 0.203179 c 0,0 0,0 -0.02116,0.01693 -0.02117,0.01693 -0.06773,0.04233 -0.06773,0.04233 h -0.08043 c 0,0 0.0084,0.01693 -0.0127,0 -0.02116,-0.01693 -0.05079,-0.05926 -0.05079,-0.05926 l -0.02117,-0.04232 0.0043,-0.135453 v -0.04232 c 0,0 0,-0.0043 0.0127,-0.0254 0.0127,-0.02117 0.07619,-0.0508 0.07619,-0.0508 h 0.09736 c 0,0 0.0084,-0.0127 0.02117,0.0084 0.0127,0.02117 0.04233,0.08466 0.04233,0.08466 z"
       id="path3907" />
    <path
       style="fill:#ffffff;stroke:#000000;stroke-width:0.0442302px;stroke-linecap:butt;stroke-linejoin:miter;stroke-opacity:1"
       d="m 10.528058,10.76876 v 0.203179 c 0,0 0,0 -0.02116,0.01693 -0.02117,0.01693 -0.06773,0.04233 -0.06773,0.04233 h -0.08043 c 0,0 0.0084,0.01693 -0.0127,0 -0.02116,-0.01693 -0.05079,-0.05926 -0.05079,-0.05926 l -0.02117,-0.04232 0.0043,-0.135453 v -0.04232 c 0,0 0,-0.0043 0.0127,-0.0254 0.0127,-0.02117 0.07619,-0.0508 0.07619,-0.0508 h 0.09736 c 0,0 0.0084,-0.0127 0.02117,0.0084 0.0127,0.02117 0.04233,0.08466 0.04233,0.08466 z"
       id="path3909" />
    <path
       style="fill:#ffffff;stroke:#000000;stroke-width:0.0442302px;stroke-linecap:butt;stroke-linejoin:miter;stroke-opacity:1"
       d="m 12.115559,10.76876 v 0.203179 c 0,0 0,0 -0.02116,0.01693 -0.02117,0.01693 -0.06773,0.04233 -0.06773,0.04233 h -0.08043 c 0,0 0.0084,0.01693 -0.0127,0 -0.02116,-0.01693 -0.05079,-0.05926 -0.05079,-0.05926 l -0.02117,-0.04232 0.0043,-0.135453 v -0.04232 c 0,0 0,-0.0043 0.0127,-0.0254 0.0127,-0.02117 0.07619,-0.0508 0.07619,-0.0508 h 0.09736 c 0,0 0.0084,-0.0127 0.02117,0.0084 0.0127,0.02117 0.04233,0.08466 0.04233,0.08466 z"
       id="path3911" />
    <path
       style="fill:#ffffff;stroke:#000000;stroke-width:0.0442302px;stroke-linecap:butt;stroke-linejoin:miter;stroke-opacity:1"
       d="m 12.644726,10.76876 v 0.203179 c 0,0 0,0 -0.02116,0.01693 -0.02117,0.01693 -0.06773,0.04233 -0.06773,0.04233 h -0.08043 c 0,0 0.0084,0.01693 -0.0127,0 -0.02116,-0.01693 -0.05079,-0.05926 -0.05079,-0.05926 l -0.02117,-0.04232 0.0043,-0.135453 v -0.04232 c 0,0 0,-0.0043 0.0127,-0.0254 0.0127,-0.02117 0.07619,-0.0508 0.07619,-0.0508 h 0.09736 c 0,0 0.0084,-0.0127 0.02117,0.0084 0.0127,0.02117 0.04233,0.08466 0.04233,0.08466 z"
       id="path3913" />
    <path
       style="fill:#ffffff;stroke:#000000;stroke-width:0.0442302px;stroke-linecap:butt;stroke-linejoin:miter;stroke-opacity:1"
       d="m 13.173893,10.76876 v 0.203179 c 0,0 0,0 -0.02116,0.01693 -0.02117,0.01693 -0.06773,0.04233 -0.06773,0.04233 h -0.08043 c 0,0 0.0084,0.01693 -0.0127,0 -0.02116,-0.01693 -0.05079,-0.05926 -0.05079,-0.05926 l -0.02117,-0.04232 0.0043,-0.135453 v -0.04232 c 0,0 0,-0.0043 0.0127,-0.0254 0.0127,-0.02117 0.07619,-0.0508 0.07619,-0.0508 h 0.09736 c 0,0 0.0084,-0.0127 0.02117,0.0084 0.0127,0.02117 0.04233,0.08466 0.04233,0.08466 z"
       id="path3915" />
    <path
       style="fill:#ffffff;stroke:#000000;stroke-width:0.0442302px;stroke-linecap:butt;stroke-linejoin:miter;stroke-opacity:1"
       d="m 13.70306,10.76876 v 0.203179 c 0,0 0,0 -0.02116,0.01693 -0.02117,0.01693 -0.06773,0.04233 -0.06773,0.04233 h -0.08043 c 0,0 0.0084,0.01693 -0.0127,0 -0.02116,-0.01693 -0.05079,-0.05926 -0.05079,-0.05926 l -0.02117,-0.04232 0.0043,-0.135453 v -0.04232 c 0,0 0,-0.0043 0.0127,-0.0254 0.0127,-0.02117 0.07619,-0.0508 0.07619,-0.0508 h 0.09736 c 0,0 0.0084,-0.0127 0.02117,0.0084 0.0127,0.02117 0.04233,0.08466 0.04233,0.08466 z"
       id="path3917" />
    <path
       style="fill:#ffffff;stroke:#000000;stroke-width:0.0442302px;stroke-linecap:butt;stroke-linejoin:miter;stroke-opacity:1"
       d="m 14.232227,10.76876 v 0.203179 c 0,0 0,0 -0.02116,0.01693 -0.02117,0.01693 -0.06773,0.04233 -0.06773,0.04233 h -0.08043 c 0,0 0.0084,0.01693 -0.0127,0 -0.02116,-0.01693 -0.05079,-0.05926 -0.05079,-0.05926 l -0.02117,-0.04232 0.0043,-0.135453 v -0.04232 c 0,0 0,-0.0043 0.0127,-0.0254 0.0127,-0.02117 0.07619,-0.0508 0.07619,-0.0508 h 0.09736 c 0,0 0.0084,-0.0127 0.02117,0.0084 0.0127,0.02117 0.04233,0.08466 0.04233,0.08466 z"
       id="path3919" />
    <path
       style="fill:#ffffff;stroke:#000000;stroke-width:0.0442302px;stroke-linecap:butt;stroke-linejoin:miter;stroke-opacity:1"
       d="m 14.232227,10.76876 v 0.203179 c 0,0 0,0 -0.02116,0.01693 -0.02117,0.01693 -0.06773,0.04233 -0.06773,0.04233 h -0.08043 c 0,0 0.0084,0.01693 -0.0127,0 -0.02116,-0.01693 -0.05079,-0.05926 -0.05079,-0.05926 l -0.02117,-0.04232 0.0043,-0.135453 v -0.04232 c 0,0 0,-0.0043 0.0127,-0.0254 0.0127,-0.02117 0.07619,-0.0508 0.07619,-0.0508 h 0.09736 c 0,0 0.0084,-0.0127 0.02117,0.0084 0.0127,0.02117 0.04233,0.08466 0.04233,0.08466 z"
       id="path3921" />
    <path
       style="fill:#ffffff;stroke:#000000;stroke-width:0.0442302px;stroke-linecap:butt;stroke-linejoin:miter;stroke-opacity:1"
       d="m 15.290561,10.76876 v 0.203179 c 0,0 0,0 -0.02116,0.01693 -0.02117,0.01693 -0.06773,0.04233 -0.06773,0.04233 h -0.08043 c 0,0 0.0084,0.01693 -0.0127,0 -0.02116,-0.01693 -0.05079,-0.05926 -0.05079,-0.05926 l -0.02117,-0.04232 0.0043,-0.135453 v -0.04232 c 0,0 0,-0.0043 0.0127,-0.0254 0.0127,-0.02117 0.07619,-0.0508 0.07619,-0.0508 h 0.09736 c 0,0 0.0084,-0.0127 0.02117,0.0084 0.0127,0.02117 0.04233,0.08466 0.04233,0.08466 z"
       id="path3923" />
    <path
       style="fill:#ffffff;stroke:#000000;stroke-width:0.0442302px;stroke-linecap:butt;stroke-linejoin:miter;stroke-opacity:1"
       d="m 15.819728,10.76876 v 0.203179 c 0,0 0,0 -0.02116,0.01693 -0.02117,0.01693 -0.06773,0.04233 -0.06773,0.04233 h -0.08043 c 0,0 0.0084,0.01693 -0.0127,0 -0.02116,-0.01693 -0.05079,-0.05926 -0.05079,-0.05926 l -0.02117,-0.04232 0.0043,-0.135453 v -0.04232 c 0,0 0,-0.0043 0.0127,-0.0254 0.0127,-0.02117 0.07619,-0.0508 0.07619,-0.0508 h 0.09736 c 0,0 0.0084,-0.0127 0.02117,0.0084 0.0127,0.02117 0.04233,0.08466 0.04233,0.08466 z"
       id="path3925" />
    <path
       style="fill:#ffffff;stroke:#000000;stroke-width:0.0442302px;stroke-linecap:butt;stroke-linejoin:miter;stroke-opacity:1"
       d="m 16.348895,10.76876 v 0.203179 c 0,0 0,0 -0.02116,0.01693 -0.02117,0.01693 -0.06773,0.04233 -0.06773,0.04233 h -0.08043 c 0,0 0.0084,0.01693 -0.0127,0 -0.02116,-0.01693 -0.05079,-0.05926 -0.05079,-0.05926 l -0.02117,-0.04232 0.0043,-0.135453 v -0.04232 c 0,0 0,-0.0043 0.0127,-0.0254 0.0127,-0.02117 0.07619,-0.0508 0.07619,-0.0508 h 0.09736 c 0,0 0.0084,-0.0127 0.02117,0.0084 0.0127,0.02117 0.04233,0.08466 0.04233,0.08466 z"
       id="path3927" />
    <path
       style="fill:#ffffff;stroke:#000000;stroke-width:0.0442302px;stroke-linecap:butt;stroke-linejoin:miter;stroke-opacity:1"
       d="m 16.878062,10.76876 v 0.203179 c 0,0 0,0 -0.02116,0.01693 -0.02117,0.01693 -0.06773,0.04233 -0.06773,0.04233 h -0.08043 c 0,0 0.0084,0.01693 -0.0127,0 -0.02116,-0.01693 -0.05079,-0.05926 -0.05079,-0.05926 l -0.02117,-0.04232 0.0043,-0.135453 v -0.04232 c 0,0 0,-0.0043 0.0127,-0.0254 0.0127,-0.02117 0.07619,-0.0508 0.07619,-0.0508 h 0.09736 c 0,0 0.0084,-0.0127 0.02117,0.0084 0.0127,0.02117 0.04233,0.08466 0.04233,0.08466 z"
       id="path3929" />
    <path
       style="fill:#ffffff;stroke:#000000;stroke-width:0.0442302px;stroke-linecap:butt;stroke-linejoin:miter;stroke-opacity:1"
       d="m 17.407229,10.76876 v 0.203179 c 0,0 0,0 -0.02116,0.01693 -0.02117,0.01693 -0.06773,0.04233 -0.06773,0.04233 h -0.08043 c 0,0 0.0084,0.01693 -0.0127,0 -0.02116,-0.01693 -0.05079,-0.05926 -0.05079,-0.05926 l -0.02117,-0.04232 0.0043,-0.135453 v -0.04232 c 0,0 0,-0.0043 0.0127,-0.0254 0.0127,-0.02117 0.07619,-0.0508 0.07619,-0.0508 h 0.09736 c 0,0 0.0084,-0.0127 0.02117,0.0084 0.0127,0.02117 0.04233,0.08466 0.04233,0.08466 z"
       id="path3931" />
    <path
       style="fill:#ffffff;stroke:#000000;stroke-width:0.0442302px;stroke-linecap:butt;stroke-linejoin:miter;stroke-opacity:1"
       d="m 17.837094,10.76876 v 0.203179 c 0,0 0,0 -0.02116,0.01693 -0.02117,0.01693 -0.06773,0.04233 -0.06773,0.04233 h -0.08043 c 0,0 0.0084,0.01693 -0.0127,0 -0.02116,-0.01693 -0.05079,-0.05926 -0.05079,-0.05926 l -0.02117,-0.04232 0.0043,-0.135453 v -0.04232 c 0,0 0,-0.0043 0.0127,-0.0254 0.0127,-0.02117 0.07619,-0.0508 0.07619,-0.0508 h 0.09736 c 0,0 0.0084,-0.0127 0.02117,0.0084 0.0127,0.02117 0.04233,0.08466 0.04233,0.08466 z"
       id="path3933" />
    <path
       style="fill:#ffffff;stroke:#000000;stroke-width:0.0442302px;stroke-linecap:butt;stroke-linejoin:miter;stroke-opacity:1"
       d="m 18.99473,10.76876 v 0.203179 c 0,0 0,0 -0.02116,0.01693 -0.02117,0.01693 -0.06773,0.04233 -0.06773,0.04233 h -0.08043 c 0,0 0.0084,0.01693 -0.0127,0 -0.02116,-0.01693 -0.05079,-0.05926 -0.05079,-0.05926 l -0.02117,-0.04232 0.0043,-0.135453 v -0.04232 c 0,0 0,-0.0043 0.0127,-0.0254 0.0127,-0.02117 0.07619,-0.0508 0.07619,-0.0508 h 0.09736 c 0,0 0.0084,-0.0127 0.02117,0.0084 0.0127,0.02117 0.04233,0.08466 0.04233,0.08466 z"
       id="path3935" />
    <path
       style="fill:#ffffff;stroke:#000000;stroke-width:0.0442302px;stroke-linecap:butt;stroke-linejoin:miter;stroke-opacity:1"
       d="m 21.111398,10.76876 v 0.203179 c 0,0 0,0 -0.02116,0.01693 -0.02117,0.01693 -0.06773,0.04233 -0.06773,0.04233 h -0.08043 c 0,0 0.0084,0.01693 -0.0127,0 -0.02116,-0.01693 -0.05079,-0.05926 -0.05079,-0.05926 l -0.02117,-0.04232 0.0043,-0.135453 v -0.04232 c 0,0 0,-0.0043 0.0127,-0.0254 0.0127,-0.02117 0.07619,-0.0508 0.07619,-0.0508 h 0.09736 c 0,0 0.0084,-0.0127 0.02117,0.0084 0.0127,0.02117 0.04233,0.08466 0.04233,0.08466 z"
       id="path3937" />
    <path
       style="fill:#ffffff;stroke:#000000;stroke-width:0.0442302px;stroke-linecap:butt;stroke-linejoin:miter;stroke-opacity:1"
       d="m 19.523897,10.76876 v 0.203179 c 0,0 0,0 -0.02116,0.01693 -0.02117,0.01693 -0.06773,0.04233 -0.06773,0.04233 h -0.08043 c 0,0 0.0084,0.01693 -0.0127,0 -0.02116,-0.01693 -0.05079,-0.05926 -0.05079,-0.05926 l -0.02117,-0.04232 0.0043,-0.135453 v -0.04232 c 0,0 0,-0.0043 0.0127,-0.0254 0.0127,-0.02117 0.07619,-0.0508 0.07619,-0.0508 h 0.09736 c 0,0 0.0084,-0.0127 0.02117,0.0084 0.0127,0.02117 0.04233,0.08466 0.04233,0.08466 z"
       id="path3939" />
    <path
       style="fill:#ffffff;stroke:#000000;stroke-width:0.0442302px;stroke-linecap:butt;stroke-linejoin:miter;stroke-opacity:1"
       d="m 21.896261,10.76876 v 0.203179 c 0,0 0,0 -0.02116,0.01693 -0.02117,0.01693 -0.06773,0.04233 -0.06773,0.04233 h -0.08043 c 0,0 0.0084,0.01693 -0.0127,0 -0.02116,-0.01693 -0.05079,-0.05926 -0.05079,-0.05926 l -0.02117,-0.04232 0.0043,-0.135453 v -0.04232 c 0,0 0,-0.0043 0.0127,-0.0254 0.0127,-0.02117 0.07619,-0.0508 0.07619,-0.0508 h 0.09736 c 0,0 0.0084,-0.0127 0.02117,0.0084 0.0127,0.02117 0.04233,0.08466 0.04233,0.08466 z"
       id="path3941" />
    <path
       style="fill:#ffffff;stroke:#000000;stroke-width:0.0442302px;stroke-linecap:butt;stroke-linejoin:miter;stroke-opacity:1"
       d="m 22.576261,10.76876 v 0.203179 c 0,0 0,0 -0.02116,0.01693 -0.02117,0.01693 -0.06773,0.04233 -0.06773,0.04233 h -0.08043 c 0,0 0.0084,0.01693 -0.0127,0 -0.02116,-0.01693 -0.05079,-0.05926 -0.05079,-0.05926 l -0.02117,-0.04232 0.0043,-0.135453 v -0.04232 c 0,0 0,-0.0043 0.0127,-0.0254 0.0127,-0.02117 0.07619,-0.0508 0.07619,-0.0508 h 0.09736 c 0,0 0.0084,-0.0127 0.02117,0.0084 0.0127,0.02117 0.04233,0.08466 0.04233,0.08466 z"
       id="path4392" />
    <path
       style="fill:#ffffff;stroke:#000000;stroke-width:0.0442302px;stroke-linecap:butt;stroke-linejoin:miter;stroke-opacity:1"
       d="m 23.076261,10.76876 v 0.203179 c 0,0 0,0 -0.02116,0.01693 -0.02117,0.01693 -0.06773,0.04233 -0.06773,0.04233 h -0.08043 c 0,0 0.0084,0.01693 -0.0127,0 -0.02116,-0.01693 -0.05079,-0.05926 -0.05079,-0.05926 l -0.02117,-0.04232 0.0043,-0.135453 v -0.04232 c 0,0 0,-0.0043 0.0127,-0.0254 0.0127,-0.02117 0.07619,-0.0508 0.07619,-0.0508 h 0.09736 c 0,0 0.0084,-0.0127 0.02117,0.0084 0.0127,0.02117 0.04233,0.08466 0.04233,0.08466 z"
       id="path4394" />
    <path
       style="fill:#ffffff;stroke:#000000;stroke-width:0.0442302px;stroke-linecap:butt;stroke-linejoin:miter;stroke-opacity:1"
       d="m 23.576261,10.76876 v 0.203179 c 0,0 0,0 -0.02116,0.01693 -0.02117,0.01693 -0.06773,0.04233 -0.06773,0.04233 h -0.08043 c 0,0 0.0084,0.01693 -0.0127,0 -0.02116,-0.01693 -0.05079,-0.05926 -0.05079,-0.05926 l -0.02117,-0.04232 0.0043,-0.135453 v -0.04232 c 0,0 0,-0.0043 0.0127,-0.0254 0.0127,-0.02117 0.07619,-0.0508 0.07619,-0.0508 h 0.09736 c 0,0 0.0084,-0.0127 0.02117,0.0084 0.0127,0.02117 0.04233,0.08466 0.04233,0.08466 z"
       id="path4396" />
    <path
       style="fill:#ffffff;stroke:#000000;stroke-width:0.0442302px;stroke-linecap:butt;stroke-linejoin:miter;stroke-opacity:1"
       d="m 24.076261,10.76876 v 0.203179 c 0,0 0,0 -0.02116,0.01693 -0.02117,0.01693 -0.06773,0.04233 -0.06773,0.04233 h -0.08043 c 0,0 0.0084,0.01693 -0.0127,0 -0.02116,-0.01693 -0.05079,-0.05926 -0.05079,-0.05926 l -0.02117,-0.04232 0.0043,-0.135453 v -0.04232 c 0,0 0,-0.0043 0.0127,-0.0254 0.0127,-0.02117 0.07619,-0.0508 0.07619,-0.0508 h 0.09736 c 0,0 0.0084,-0.0127 0.02117,0.0084 0.0127,0.02117 0.04233,0.08466 0.04233,0.08466 z"
       id="path4398" />
    <path
       style="fill:#ffffff;stroke:#000000;stroke-width:0.0442302px;stroke-linecap:butt;stroke-linejoin:miter;stroke-opacity:1"
       d="m 24.576261,10.76876 v 0.203179 c 0,0 0,0 -0.02116,0.01693 -0.02117,0.01693 -0.06773,0.04233 -0.06773,0.04233 h -0.08043 c 0,0 0.0084,0.01693 -0.0127,0 -0.02116,-0.01693 -0.05079,-0.05926 -0.05079,-0.05926 l -0.02117,-0.04232 0.0043,-0.135453 v -0.04232 c 0,0 0,-0.0043 0.0127,-0.0254 0.0127,-0.02117 0.07619,-0.0508 0.07619,-0.0508 h 0.09736 c 0,0 0.0084,-0.0127 0.02117,0.0084 0.0127,0.02117 0.04233,0.08466 0.04233,0.08466 z"
       id="path4400" />
    <path
       style="fill:#ffffff;stroke:#000000;stroke-width:0.0442302px;stroke-linecap:butt;stroke-linejoin:miter;stroke-opacity:1"
       d="m 25.076261,10.76876 v 0.203179 c 0,0 0,0 -0.02116,0.01693 -0.02117,0.01693 -0.06773,0.04233 -0.06773,0.04233 h -0.08043 c 0,0 0.0084,0.01693 -0.0127,0 -0.02116,-0.01693 -0.05079,-0.05926 -0.05079,-0.05926 l -0.02117,-0.04232 0.0043,-0.135453 v -0.04232 c 0,0 0,-0.0043 0.0127,-0.0254 0.0127,-0.02117 0.07619,-0.0508 0.07619,-0.0508 h 0.09736 c 0,0 0.0084,-0.0127 0.02117,0.0084 0.0127,0.02117 0.04233,0.08466 0.04233,0.08466 z"
       id="path4402" />
    <path
       style="fill:#ffffff;stroke:#000000;stroke-width:0.0442302px;stroke-linecap:butt;stroke-linejoin:miter;stroke-opacity:1"
       d="m 25.576261,10.76876 v 0.203179 c 0,0 0,0 -0.02116,0.01693 -0.02117,0.01693 -0.06773,0.04233 -0.06773,0.04233 h -0.08043 c 0,0 0.0084,0.01693 -0.0127,0 -0.02116,-0.01693 -0.05079,-0.05926 -0.05079,-0.05926 l -0.02117,-0.04232 0.0043,-0.135453 v -0.04232 c 0,0 0,-0.0043 0.0127,-0.0254 0.0127,-0.02117 0.07619,-0.0508 0.07619,-0.0508 h 0.09736 c 0,0 0.0084,-0.0127 0.02117,0.0084 0.0127,0.02117 0.04233,0.08466 0.04233,0.08466 z"
       id="path4495" />
    <path
       style="fill:#ffffff;stroke:#000000;stroke-width:0.0442302px;stroke-linecap:butt;stroke-linejoin:miter;stroke-opacity:1"
       d="m 26.076261,10.76876 v 0.203179 c 0,0 0,0 -0.02116,0.01693 -0.02117,0.01693 -0.06773,0.04233 -0.06773,0.04233 h -0.08043 c 0,0 0.0084,0.01693 -0.0127,0 -0.02116,-0.01693 -0.05079,-0.05926 -0.05079,-0.05926 l -0.02117,-0.04232 0.0043,-0.135453 v -0.04232 c 0,0 0,-0.0043 0.0127,-0.0254 0.0127,-0.02117 0.07619,-0.0508 0.07619,-0.0508 h 0.09736 c 0,0 0.0084,-0.0127 0.02117,0.0084 0.0127,0.02117 0.04233,0.08466 0.04233,0.08466 z"
       id="path4497" />
    <path
       style="fill:#ffffff;stroke:#000000;stroke-width:0.0442302px;stroke-linecap:butt;stroke-linejoin:miter;stroke-opacity:1"
       d="m 26.576115,10.76876 v 0.203179 c 0,0 0,0 -0.021,0.01693 -0.021,0.01693 -0.068,0.04233 -0.068,0.04233 h -0.08 c 0,0 0.01,0.01693 -0.013,0 -0.021,-0.01693 -0.051,-0.05926 -0.051,-0.05926 l -0.021,-0.04232 v -0.135453 -0.04232 c 0,0 0,-0.0043 0.013,-0.0254 0.013,-0.02117 0.076,-0.0508 0.076,-0.0508 h 0.097 c 0,0 0.01,-0.0127 0.021,0.0084 0.013,0.02117 0.042,0.08466 0.042,0.08466 z"
       id="path4499" />
    <path
       style="fill:#ffffff;stroke:#000000;stroke-width:0.0442302px;stroke-linecap:butt;stroke-linejoin:miter;stroke-opacity:1"
       d="m 27.076261,10.76876 v 0.203179 c 0,0 0,0 -0.02116,0.01693 -0.02117,0.01693 -0.06773,0.04233 -0.06773,0.04233 h -0.08043 c 0,0 0.0084,0.01693 -0.0127,0 -0.02116,-0.01693 -0.05079,-0.05926 -0.05079,-0.05926 l -0.02117,-0.04232 0.0043,-0.135453 v -0.04232 c 0,0 0,-0.0043 0.0127,-0.0254 0.0127,-0.02117 0.07619,-0.0508 0.07619,-0.0508 h 0.09736 c 0,0 0.0084,-0.0127 0.02117,0.0084 0.0127,0.02117 0.04233,0.08466 0.04233,0.08466 z"
       id="path4501" />
    <path
       style="fill:#ffffff;stroke:#000000;stroke-width:0.0442302px;stroke-linecap:butt;stroke-linejoin:miter;stroke-opacity:1"
       d="m 27.576261,10.76876 v 0.203179 c 0,0 0,0 -0.02116,0.01693 -0.02117,0.01693 -0.06773,0.04233 -0.06773,0.04233 h -0.08043 c 0,0 0.0084,0.01693 -0.0127,0 -0.02116,-0.01693 -0.05079,-0.05926 -0.05079,-0.05926 l -0.02117,-0.04232 0.0043,-0.135453 v -0.04232 c 0,0 0,-0.0043 0.0127,-0.0254 0.0127,-0.02117 0.07619,-0.0508 0.07619,-0.0508 h 0.09736 c 0,0 0.0084,-0.0127 0.02117,0.0084 0.0127,0.02117 0.04233,0.08466 0.04233,0.08466 z"
       id="path4503" />
    <path
       style="fill:#ffffff;stroke:#000000;stroke-width:0.0442302px;stroke-linecap:butt;stroke-linejoin:miter;stroke-opacity:1"
       d="m 28.076261,10.76876 v 0.203179 c 0,0 0,0 -0.02116,0.01693 -0.02117,0.01693 -0.06773,0.04233 -0.06773,0.04233 h -0.08043 c 0,0 0.0084,0.01693 -0.0127,0 -0.02116,-0.01693 -0.05079,-0.05926 -0.05079,-0.05926 l -0.02117,-0.04232 0.0043,-0.135453 v -0.04232 c 0,0 0,-0.0043 0.0127,-0.0254 0.0127,-0.02117 0.07619,-0.0508 0.07619,-0.0508 h 0.09736 c 0,0 0.0084,-0.0127 0.02117,0.0084 0.0127,0.02117 0.04233,0.08466 0.04233,0.08466 z"
       id="path4505" />
    <path
       style="fill:#ffffff;stroke:#000000;stroke-width:0.0442302px;stroke-linecap:butt;stroke-linejoin:miter;stroke-opacity:1"
       d="m 28.576261,10.76876 v 0.203179 c 0,0 0,0 -0.02116,0.01693 -0.02117,0.01693 -0.06773,0.04233 -0.06773,0.04233 h -0.08043 c 0,0 0.0084,0.01693 -0.0127,0 -0.02116,-0.01693 -0.05079,-0.05926 -0.05079,-0.05926 l -0.02117,-0.04232 0.0043,-0.135453 v -0.04232 c 0,0 0,-0.0043 0.0127,-0.0254 0.0127,-0.02117 0.07619,-0.0508 0.07619,-0.0508 h 0.09736 c 0,0 0.0084,-0.0127 0.02117,0.0084 0.0127,0.02117 0.04233,0.08466 0.04233,0.08466 z"
       id="path4507" />
    <path
       style="fill:#ffffff;stroke:#000000;stroke-width:0.0442302px;stroke-linecap:butt;stroke-linejoin:miter;stroke-opacity:1"
       d="m 29.076261,10.76876 v 0.203179 c 0,0 0,0 -0.02116,0.01693 -0.02117,0.01693 -0.06773,0.04233 -0.06773,0.04233 h -0.08043 c 0,0 0.0084,0.01693 -0.0127,0 -0.02116,-0.01693 -0.05079,-0.05926 -0.05079,-0.05926 l -0.02117,-0.04232 0.0043,-0.135453 v -0.04232 c 0,0 0,-0.0043 0.0127,-0.0254 0.0127,-0.02117 0.07619,-0.0508 0.07619,-0.0508 h 0.09736 c 0,0 0.0084,-0.0127 0.02117,0.0084 0.0127,0.02117 0.04233,0.08466 0.04233,0.08466 z"
       id="path4509" />
    <path
       style="fill:#ffffff;stroke:#000000;stroke-width:0.0442302px;stroke-linecap:butt;stroke-linejoin:miter;stroke-opacity:1"
       d="m 30.076261,10.76876 v 0.203179 c 0,0 0,0 -0.02116,0.01693 -0.02117,0.01693 -0.06773,0.04233 -0.06773,0.04233 h -0.08043 c 0,0 0.0084,0.01693 -0.0127,0 -0.02116,-0.01693 -0.05079,-0.05926 -0.05079,-0.05926 l -0.02117,-0.04232 0.0043,-0.135453 v -0.04232 c 0,0 0,-0.0043 0.0127,-0.0254 0.0127,-0.02117 0.07619,-0.0508 0.07619,-0.0508 h 0.09736 c 0,0 0.0084,-0.0127 0.02117,0.0084 0.0127,0.02117 0.04233,0.08466 0.04233,0.08466 z"
       id="path4511" />
    <path
       style="fill:#ffffff;stroke:#000000;stroke-width:0.0442302px;stroke-linecap:butt;stroke-linejoin:miter;stroke-opacity:1"
       d="m 29.576261,10.76876 v 0.203179 c 0,0 0,0 -0.02116,0.01693 -0.02117,0.01693 -0.06773,0.04233 -0.06773,0.04233 h -0.08043 c 0,0 0.0084,0.01693 -0.0127,0 -0.02116,-0.01693 -0.05079,-0.05926 -0.05079,-0.05926 l -0.02117,-0.04232 0.0043,-0.135453 v -0.04232 c 0,0 0,-0.0043 0.0127,-0.0254 0.0127,-0.02117 0.07619,-0.0508 0.07619,-0.0508 h 0.09736 c 0,0 0.0084,-0.0127 0.02117,0.0084 0.0127,0.02117 0.04233,0.08466 0.04233,0.08466 z"
       id="path4522" />
    <path
       style="fill:#ffffff;stroke:#000000;stroke-width:0.0442302px;stroke-linecap:butt;stroke-linejoin:miter;stroke-opacity:1"
       d="m 34.076261,10.76876 v 0.203179 c 0,0 0,0 -0.02116,0.01693 -0.02117,0.01693 -0.06773,0.04233 -0.06773,0.04233 h -0.08043 c 0,0 0.0084,0.01693 -0.0127,0 -0.02116,-0.01693 -0.05079,-0.05926 -0.05079,-0.05926 l -0.02117,-0.04232 0.0043,-0.135453 v -0.04232 c 0,0 0,-0.0043 0.0127,-0.0254 0.0127,-0.02117 0.07619,-0.0508 0.07619,-0.0508 h 0.09736 c 0,0 0.0084,-0.0127 0.02117,0.0084 0.0127,0.02117 0.04233,0.08466 0.04233,0.08466 z"
       id="path4630" />
    <path
       style="fill:#ffffff;stroke:#000000;stroke-width:0.0442302px;stroke-linecap:butt;stroke-linejoin:miter;stroke-opacity:1"
       d="m 34.576261,10.76876 v 0.203179 c 0,0 0,0 -0.02116,0.01693 -0.02117,0.01693 -0.06773,0.04233 -0.06773,0.04233 h -0.08043 c 0,0 0.0084,0.01693 -0.0127,0 -0.02116,-0.01693 -0.05079,-0.05926 -0.05079,-0.05926 l -0.02117,-0.04232 0.0043,-0.135453 v -0.04232 c 0,0 0,-0.0043 0.0127,-0.0254 0.0127,-0.02117 0.07619,-0.0508 0.07619,-0.0508 h 0.09736 c 0,0 0.0084,-0.0127 0.02117,0.0084 0.0127,0.02117 0.04233,0.08466 0.04233,0.08466 z"
       id="path4632" />
    <path
       style="fill:#ffffff;stroke:#000000;stroke-width:0.0442302px;stroke-linecap:butt;stroke-linejoin:miter;stroke-opacity:1"
       d="m 34.576261,10.76876 v 0.203179 c 0,0 0,0 -0.02116,0.01693 -0.02117,0.01693 -0.06773,0.04233 -0.06773,0.04233 h -0.08043 c 0,0 0.0084,0.01693 -0.0127,0 -0.02116,-0.01693 -0.05079,-0.05926 -0.05079,-0.05926 l -0.02117,-0.04232 0.0043,-0.135453 v -0.04232 c 0,0 0,-0.0043 0.0127,-0.0254 0.0127,-0.02117 0.07619,-0.0508 0.07619,-0.0508 h 0.09736 c 0,0 0.0084,-0.0127 0.02117,0.0084 0.0127,0.02117 0.04233,0.08466 0.04233,0.08466 z"
       id="path4634" />
    <path
       style="fill:#ffffff;stroke:#000000;stroke-width:0.0442302px;stroke-linecap:butt;stroke-linejoin:miter;stroke-opacity:1"
       d="m 35.076261,10.76876 v 0.203179 c 0,0 0,0 -0.02116,0.01693 -0.02117,0.01693 -0.06773,0.04233 -0.06773,0.04233 h -0.08043 c 0,0 0.0084,0.01693 -0.0127,0 -0.02116,-0.01693 -0.05079,-0.05926 -0.05079,-0.05926 l -0.02117,-0.04232 0.0043,-0.135453 v -0.04232 c 0,0 0,-0.0043 0.0127,-0.0254 0.0127,-0.02117 0.07619,-0.0508 0.07619,-0.0508 h 0.09736 c 0,0 0.0084,-0.0127 0.02117,0.0084 0.0127,0.02117 0.04233,0.08466 0.04233,0.08466 z"
       id="path4645" />
    <path
       style="fill:#ffffff;stroke:#000000;stroke-width:0.0442302px;stroke-linecap:butt;stroke-linejoin:miter;stroke-opacity:1"
       d="m 35.576261,10.76876 v 0.203179 c 0,0 0,0 -0.02116,0.01693 -0.02117,0.01693 -0.06773,0.04233 -0.06773,0.04233 h -0.08043 c 0,0 0.0084,0.01693 -0.0127,0 -0.02116,-0.01693 -0.05079,-0.05926 -0.05079,-0.05926 l -0.02117,-0.04232 0.0043,-0.135453 v -0.04232 c 0,0 0,-0.0043 0.0127,-0.0254 0.0127,-0.02117 0.07619,-0.0508 0.07619,-0.0508 h 0.09736 c 0,0 0.0084,-0.0127 0.02117,0.0084 0.0127,0.02117 0.04233,0.08466 0.04233,0.08466 z"
       id="path4647" />
    <path
       style="fill:#ffffff;stroke:#000000;stroke-width:0.0442302px;stroke-linecap:butt;stroke-linejoin:miter;stroke-opacity:1"
       d="m 36.076261,10.76876 v 0.203179 c 0,0 0,0 -0.02116,0.01693 -0.02117,0.01693 -0.06773,0.04233 -0.06773,0.04233 h -0.08043 c 0,0 0.0084,0.01693 -0.0127,0 -0.02116,-0.01693 -0.05079,-0.05926 -0.05079,-0.05926 l -0.02117,-0.04232 0.0043,-0.135453 v -0.04232 c 0,0 0,-0.0043 0.0127,-0.0254 0.0127,-0.02117 0.07619,-0.0508 0.07619,-0.0508 h 0.09736 c 0,0 0.0084,-0.0127 0.02117,0.0084 0.0127,0.02117 0.04233,0.08466 0.04233,0.08466 z"
       id="path4649" />
  </g>
</svg>
