<?xml version="1.0" encoding="UTF-8" standalone="no"?>
<!-- Created with Inkscape (http://www.inkscape.org/) -->

<svg
   width="210mm"
   height="297mm"
   viewBox="0 0 210 297"
   version="1.1"
   id="svg5"
   inkscape:version="1.1.1 (c3084ef, 2021-09-22)"
   sodipodi:docname="B764.svg"
   xmlns:inkscape="http://www.inkscape.org/namespaces/inkscape"
   xmlns:sodipodi="http://sodipodi.sourceforge.net/DTD/sodipodi-0.dtd"
   xmlns="http://www.w3.org/2000/svg"
   xmlns:svg="http://www.w3.org/2000/svg">
  <sodipodi:namedview
     id="namedview7"
     pagecolor="#ffffff"
     bordercolor="#666666"
     borderopacity="1.0"
     inkscape:pageshadow="2"
     inkscape:pageopacity="0.0"
     inkscape:pagecheckerboard="0"
     inkscape:document-units="mm"
     showgrid="false"
     inkscape:zoom="2.7666446"
     inkscape:cx="189.21838"
     inkscape:cy="134.27818"
     inkscape:window-width="1440"
     inkscape:window-height="771"
     inkscape:window-x="0"
     inkscape:window-y="25"
     inkscape:window-maximized="0"
     inkscape:current-layer="layer1"
     showguides="true" />
  <defs
     id="defs2" />
  <g
     inkscape:label="Layer 1"
     inkscape:groupmode="layer"
     id="layer1">
    <g
       id="g102"
       transform="matrix(0.20239902,0,0,0.19085234,4.2668769,19.59803)">
      <path
         style="fill:#000000;stroke:#000000;stroke-width:0.264583px;stroke-linecap:butt;stroke-linejoin:miter;stroke-opacity:1"
         d="m 5.6127049,71.013215 c 0,0 1.2172129,-1.622941 1.4877049,-1.825808 0.2704918,-0.20287 1.7581967,-1.352454 2.2315572,-1.555321 0.4733608,-0.20287 2.840164,-2.569655 3.44877,-3.043015 0.608607,-0.473357 2.637296,-1.690568 3.178279,-1.893428 0.540984,-0.20287 4.125,-1.555321 5.071722,-1.758191 0.946721,-0.202867 4.936475,-0.946714 4.936475,-0.946714 0,0 3.043032,-0.473357 3.381148,-0.473357 0.338114,0 3.178278,-0.13525 3.178278,-0.13525 l 4.868852,-0.0676 4.463116,-0.0676 5.139343,-0.13525 h 4.260247 5.950818 l 6.018442,-0.13525 7.438525,-0.0676 h 5.680329 l 1.284835,-1.420071 h 0.540983 l -0.473361,1.420071 h 14.741806 l 16.499996,-0.13524 12.17213,-0.135247 24.1414,-0.27049 23.46516,-0.13525 6.82992,0.0676 1.35246,-1.690561 0.27049,0.13525 -0.47336,1.690561 20.55738,-0.270487 c 0,0 3.2459,-0.608607 3.78688,-0.879097 0.54099,-0.270487 3.92213,-2.299165 3.92213,-2.299165 l 4.73361,-4.665956 6.42418,-6.627011 9.39959,-9.534786 6.76229,-6.965121 c 0,0 2.29918,-2.502035 2.70492,-2.637285 0.40574,-0.13524 9.80533,-0.20287 9.80533,-0.20287 l -5.68033,14.403609 -3.65164,9.399536 -2.97541,7.438488 -2.3668,6.424147 5.07172,-0.879094 h 4.73361 l 0.49587,0.009 -0.45426,0.370577 3.29935,0.1315 -0.38253,0.394477 -5.18811,2.175648 0.95633,0.382527 c 0,0 0.76618,0.39093 0.90142,0.559987 0.13525,0.16906 0.13525,0.946717 0.13525,0.946717 0,0 -0.20287,0.912904 -0.40574,1.014344 -0.20287,0.101427 -1.69058,1.048144 -1.69058,1.048144 0,0 -0.71004,0.270487 -1.04815,0.405737 -0.33812,0.13525 -2.87398,0.777654 -2.87398,0.777654 l -3.31352,0.710047 -3.00922,0.608597 v 0 c 0,0 -2.97541,0.540987 -3.21209,0.608607 -0.23668,0.0676 -3.61783,0.743844 -3.85451,0.811464 -0.23668,0.0676 -2.3668,0.608607 -2.3668,0.608607 0,0 -0.82739,0.602677 -1.09038,0.650497 -0.26299,0.0478 -0.52598,0.11954 -0.52598,0.11954 l -0.0239,0.812874 -0.31081,0.382537 0.11954,0.31081 c 0,0 -0.0717,0.0956 -0.16735,0.11954 -0.0956,0.0239 -0.40644,-0.2869 -0.40644,-0.2869 l -0.19127,-0.382537 -0.62162,-0.549887 -0.0717,-0.14345 -1.02806,0.0478 c 0,0 0.0478,0.0239 -0.0717,-0.0239 -0.11954,-0.0478 -2.55819,0.454257 -2.55819,0.454257 l -4.68603,0.980234 -4.63821,1.099774 c 0,0 -3.82533,0.884607 -4.20787,0.956324 -0.38253,0.0717 -7.43548,1.267144 -7.81802,1.291054 -0.38253,0.0239 -7.12468,0.621607 -7.31595,0.621607 -0.19126,0 -3.27544,0.14345 -3.49061,0.16736 -0.21518,0.0239 -8.3201,0.0717 -8.3201,0.0717 l -5.78581,-0.0239 h -9.01344 l -6.09662,0.0239 0.62161,1.817028 c 0,0 -0.38253,0.11954 -0.62161,-0.0478 -0.23909,-0.16736 -0.98024,-0.980234 -0.98024,-0.980234 l -0.35863,-0.669434 h -4.68603 l -5.61845,0.0717 h -3.75361 l -3.63407,0.0478 -0.8607,-0.0478 -0.0717,0.19127 -1.50623,-0.0478 c 0,0 0.0956,0.215184 0.19127,0.215184 0.0956,0 0.50208,0.0239 0.66943,0.11954 0.16736,0.0956 0.50208,0.549887 0.50208,0.669427 0,0.11954 -0.45426,0.334717 -0.45426,0.334717 l 0.14345,0.26299 -0.26299,0.262987 -1.45841,0.430347 0.66943,0.21518 0.43035,1.028044 c 0,0 0.64553,0.0239 0.88461,0.14345 0.23909,0.11954 0.81288,0.549887 0.81288,0.549887 0,0 0.21518,0.11955 0.35863,0.358627 0.14345,0.23908 0.47817,0.908514 0.47817,1.028054 0,0.11954 0.0239,0.836787 -0.0717,1.075864 -0.0956,0.23909 -0.5738,0.980234 -0.76507,1.147594 -0.19126,0.16736 -0.8846,0.525987 -1.07587,0.525987 -0.19127,0 -0.40644,-0.0956 -0.40644,-0.0956 0,0 -0.62162,0.765067 -0.95633,0.884604 -0.33472,0.11954 -1.12369,0.11954 -1.12369,0.11954 l -1.4106,0.0239 c 0,0 -0.83679,-0.502067 -0.93242,-0.597707 -0.0956,-0.0956 -0.38253,-0.454257 -0.38253,-0.454257 l -0.59771,-0.0239 c 0,0 -0.19127,0.502067 -0.40644,0.669427 -0.21518,0.16736 -0.59771,0.310807 -0.78898,0.310807 -0.19127,0 -1.36277,0.0478 -1.36277,0.0478 l -1.07588,-0.0239 c 0,0 -0.38253,-0.0239 -0.5738,-0.191267 -0.19126,-0.16736 -0.52598,-0.956324 -0.54989,-1.219314 -0.0239,-0.262997 -0.16736,-1.147604 -0.0239,-1.434491 0.14346,-0.2869 0.5499,-1.099784 0.81289,-1.267144 0.26299,-0.16735 0.98024,-0.717237 1.21932,-0.717237 0.23909,0 0.64553,-0.0478 0.64553,-0.0478 0,0 0.26299,-0.40644 0.43035,-0.43035 0.16736,-0.0239 0.33471,-0.0478 0.33471,-0.0478 l -0.50207,-1.075861 -3.29935,1.028054 -0.69334,-0.35863 1.4345,-3.347146 -3.65797,0.573791 c 0,0 0.16735,0.43035 0.11954,0.573797 -0.0478,0.14346 -0.19127,0.31081 -0.19127,0.31081 h -1.00415 l -6.14444,0.956334 0.0239,0.23908 0.50208,0.119537 -0.0239,0.19127 -3.4428,0.19126 -0.0956,-0.3108 -0.98025,0.19126 c 0,0 0.0956,0.14345 0.0478,0.406437 -0.0478,0.263 -0.14345,0.525987 -0.14345,0.525987 l 0.74116,0.14345 0.0239,0.215167 c 0,0 -2.43865,0.23908 -2.74946,0.23908 -0.31081,0 -3.897056,0.11955 -4.351317,0.11955 -0.454257,0 -3.299348,0.14345 -3.657973,0.14345 -0.358624,0 -2.916814,-0.0717 -3.323256,-0.14345 -0.406443,-0.0717 -2.056117,-0.21518 -2.462557,-0.33472 -0.406442,-0.119537 -0.310808,-0.119537 -0.310808,-0.119537 0,0 -0.07173,-0.0956 -0.215175,-0.31081 -0.143449,-0.215167 -0.310809,-1.123684 -0.382532,-1.577941 -0.07173,-0.454257 -0.07173,-1.649661 -0.07173,-1.649661 l -0.693341,-0.0956 -0.43035,-0.478157 -17.285718,0.0717 -11.021737,0.0717 -10.926104,0.0717 -10.232763,0.0478 -7.722388,-0.11954 c 0,0 -0.741159,-0.0239 -0.932424,-0.0239 -0.191267,0 -2.988541,-0.334724 -2.988541,-0.334724 l -0.2869,1.960475 -0.5738,0.0956 -0.07173,1.004144 1.00415,0.262987 -0.788975,1.219314 c 0,0 0.454258,0.16736 0.5738,0.33472 0.119542,0.16736 0.358625,0.38253 0.454258,0.621617 0.09563,0.23908 0.14345,0.932417 0.14345,0.932417 0,0 -0.215175,0.717244 -0.406441,0.908514 -0.191267,0.19126 -0.5738,0.549887 -0.5738,0.549887 l -2.223474,-0.0239 c 0,0 -0.597708,-0.573797 -0.645525,-0.693337 -0.04782,-0.11954 -0.119542,0 -0.167358,-0.358617 -0.04782,-0.358627 -0.07173,-0.454257 -0.07173,-0.597707 0,-0.14345 0.14345,-0.549897 0.191266,-0.693337 0.04782,-0.143447 0.262992,-0.525987 0.406442,-0.645527 0.14345,-0.11954 0.788975,-0.525977 0.788975,-0.525977 l -0.04782,-0.40644 h -1.195416 l -0.167359,-0.262997 -0.956333,-0.0239 c 0,0 0.358625,-1.004144 0.478167,-1.075874 0.119542,-0.0717 1.386683,-0.717247 1.386683,-0.717247 0,0 -2.366924,-0.430347 -2.462558,-0.478157 -0.09563,-0.0478 0.04782,-2.151745 0.04782,-2.151745 0,0 -2.366924,-0.358627 -3.13199,-0.621617 -0.765067,-0.26299 -3.801424,-1.410584 -4.231774,-1.577944 C 12.025995,76.629885 10.017695,75.817008 9.682979,75.673558 9.3482626,75.530111 7.38778,74.454237 7.1247884,74.310797 6.8617968,74.167337 6.0010972,73.282743 5.8815555,72.971936 5.7620139,72.661126 5.5468391,72.278599 5.4990225,72.087329 c -0.047817,-0.191267 0.047817,-0.812874 0.047817,-0.812874 z"
         id="path165" />
    </g>
    <path
       style="fill:#ffffff;stroke:#000000;stroke-width:0.0520013px;stroke-linecap:butt;stroke-linejoin:miter;stroke-opacity:1"
       d="m 6.1970022,32.512496 0.3290532,-0.29659 0.3096976,-0.05475 -0.3193754,0.392411 c 0,0 -0.038713,-0.01824 -0.067747,-0.02282 -0.029033,-0.0046 -0.1354925,-0.01368 -0.1354925,-0.01368 z"
       id="path341" />
    <path
       style="fill:#ffffff;stroke:#000000;stroke-width:0.0520013px;stroke-linecap:butt;stroke-linejoin:miter;stroke-opacity:1"
       d="m 6.8937161,32.163124 0.2720255,-0.0015 -0.2104347,0.459775 c 0,0 -0.034217,-0.01612 -0.047904,-0.02096 -0.013686,-0.0048 -0.102651,-0.04033 -0.102651,-0.04033 0,0 -0.042771,-0.0113 -0.063303,-0.01289 -0.020529,-0.0015 -0.1300247,-0.0097 -0.1300247,-0.0097 z"
       id="path489" />
    <path
       style="fill:#ffffff;stroke:#000000;stroke-width:0.0520013px;stroke-linecap:butt;stroke-linejoin:miter;stroke-opacity:1"
       d="m 7.2410193,32.163395 0.2343867,0.02581 -0.015401,0.408153 -0.4311346,0.06614 z"
       id="path637" />
    <path
       style="fill:#ffffff;stroke:#000000;stroke-width:0.039308;stroke-linecap:butt;stroke-linejoin:miter;stroke-miterlimit:4;stroke-dasharray:none;stroke-opacity:1"
       d="m 9.6430305,32.461257 c 0,0 0.021772,-0.0046 0.029039,0.0068 0.00723,0.0114 0.019346,0.04563 0.019346,0.04563 0,0 0.00485,0.0091 -0.00732,0.02053 -0.012099,0.01141 -0.024188,0.01824 -0.048385,0.01824 -0.024188,0 -0.038717,-0.02509 -0.038717,-0.02509 0,0 -0.00967,-0.01368 -0.00723,-0.02739 0.00238,-0.01369 0,-0.0365 0.016931,-0.04106 0.016931,-0.0046 0.036295,0.0022 0.036295,0.0022 z"
       id="path785" />
    <path
       style="fill:#ffffff;stroke:#000000;stroke-width:0.039308;stroke-linecap:butt;stroke-linejoin:miter;stroke-miterlimit:4;stroke-dasharray:none;stroke-opacity:1"
       d="m 20.429029,32.461257 c 0,0 0.02177,-0.0046 0.02903,0.0068 0.0072,0.0114 0.01934,0.04563 0.01934,0.04563 0,0 0.0049,0.0091 -0.0073,0.02053 -0.0121,0.01141 -0.02419,0.01824 -0.04839,0.01824 -0.0242,0 -0.03871,-0.02509 -0.03871,-0.02509 0,0 -0.0097,-0.01368 -0.0073,-0.02739 0.0024,-0.01369 0,-0.0365 0.01693,-0.04106 0.01693,-0.0046 0.03629,0.0022 0.03629,0.0022 z"
       id="path1715" />
    <path
       style="fill:#ffffff;stroke:#000000;stroke-width:0.039308;stroke-linecap:butt;stroke-linejoin:miter;stroke-miterlimit:4;stroke-dasharray:none;stroke-opacity:1"
       d="m 43.991774,32.461257 c 0,0 0.02177,-0.0046 0.02904,0.0068 0.0072,0.0114 0.01934,0.04563 0.01934,0.04563 0,0 0.0048,0.0091 -0.0072,0.02053 -0.01211,0.01141 -0.02419,0.01824 -0.04839,0.01824 -0.02419,0 -0.03871,-0.02509 -0.03871,-0.02509 0,0 -0.0097,-0.01368 -0.0073,-0.02739 0.0024,-0.01369 0,-0.0365 0.01694,-0.04106 0.01694,-0.0046 0.03629,0.0022 0.03629,0.0022 z"
       id="path1717" />
    <path
       style="fill:#ffffff;stroke:#000000;stroke-width:0.0157233;stroke-linecap:butt;stroke-linejoin:miter;stroke-miterlimit:4;stroke-dasharray:none;stroke-opacity:1"
       d="m 31.78881,32.278831 c 0,0 0.03266,-0.0022 0.04475,0.0022 0.01211,0.0046 0.02177,0.05475 0.02177,0.05475 0,0 -0.006,0.04335 -0.01694,0.0479 -0.01089,0.0046 -0.07258,0.0034 -0.07258,0.0034 0,0 -0.03871,-0.01711 -0.03991,-0.02739 -0.0012,-0.01026 0.0037,-0.05475 0.01089,-0.06273 0.0072,-0.008 0.05201,-0.01824 0.05201,-0.01824 z"
       id="path1787" />
    <g
       id="g105"
       transform="matrix(0.20239902,0,0,0.19085234,4.2668769,19.59803)">
      <path
         style="fill:#ffffff;stroke:#000000;stroke-width:0.165;stroke-linecap:butt;stroke-linejoin:miter;stroke-miterlimit:4;stroke-dasharray:none;stroke-opacity:1"
         d="m 34.70748,68.196803 c 0,0 0.490265,0.118337 0.498719,0.185957 0.0084,0.0676 0.11834,0.414187 0.11834,0.600147 0,0.18596 -0.04227,0.633967 -0.135247,0.693137 -0.09298,0.0592 -0.355021,0.15215 -0.549437,0.13524 -0.194415,-0.0169 -0.456453,-0.12679 -0.481811,-0.27049 -0.02537,-0.1437 -0.01691,-0.760757 -0.01691,-0.760757 l 0.05072,-0.397277 c 0,0 0.160605,-0.160607 0.23668,-0.160607 0.07608,0 0.278945,-0.0253 0.278945,-0.0253 z"
         id="path2005" />
    </g>
    <path
       style="fill:#ffffff;stroke:#000000;stroke-width:0.0324291;stroke-linecap:butt;stroke-linejoin:miter;stroke-miterlimit:4;stroke-dasharray:none;stroke-opacity:1"
       d="m 11.720048,32.61355 c 0,0 0.09923,0.0226 0.100941,0.0355 0.0016,0.01289 0.02395,0.07905 0.02395,0.114539 0,0.0355 -0.0085,0.120994 -0.02737,0.132286 -0.01881,0.0113 -0.07185,0.02904 -0.111206,0.02581 -0.03936,-0.0032 -0.09239,-0.02421 -0.09752,-0.05163 -0.0052,-0.02743 -0.0034,-0.145191 -0.0034,-0.145191 l 0.01027,-0.07583 c 0,0 0.0325,-0.03066 0.0479,-0.03066 0.01539,0 0.05646,-0.0048 0.05646,-0.0048 z"
       id="path2177" />
    <path
       style="fill:#ffffff;stroke:#000000;stroke-width:0.0324291;stroke-linecap:butt;stroke-linejoin:miter;stroke-miterlimit:4;stroke-dasharray:none;stroke-opacity:1"
       d="m 12.148459,32.61355 c 0,0 0.09923,0.0226 0.100941,0.0355 0.0016,0.01289 0.02395,0.07905 0.02395,0.114539 0,0.0355 -0.0085,0.120994 -0.02737,0.132286 -0.01881,0.0113 -0.07186,0.02904 -0.111205,0.02581 -0.03935,-0.0032 -0.09239,-0.02421 -0.09752,-0.05163 -0.0052,-0.02743 -0.0034,-0.145191 -0.0034,-0.145191 l 0.01027,-0.07583 c 0,0 0.0325,-0.03066 0.0479,-0.03066 0.01539,0 0.05646,-0.0048 0.05646,-0.0048 z"
       id="path2179" />
    <g
       id="g108"
       transform="matrix(0.20239902,0,0,0.19085234,4.2668769,19.59803)">
      <path
         style="fill:#ffffff;stroke:#000000;stroke-width:0.165;stroke-linecap:butt;stroke-linejoin:miter;stroke-miterlimit:4;stroke-dasharray:none;stroke-opacity:1"
         d="m 41.057484,68.196803 c 0,0 0.490265,0.118337 0.498719,0.185957 0.0084,0.0676 0.11834,0.414187 0.11834,0.600147 0,0.18596 -0.04227,0.633967 -0.135247,0.693137 -0.09298,0.0592 -0.355021,0.15215 -0.549437,0.13524 -0.194415,-0.0169 -0.456453,-0.12679 -0.481811,-0.27049 -0.02537,-0.1437 -0.01691,-0.760757 -0.01691,-0.760757 l 0.05072,-0.397277 c 0,0 0.160605,-0.160607 0.23668,-0.160607 0.07608,0 0.278945,-0.0253 0.278945,-0.0253 z"
         id="path2181" />
    </g>
    <path
       style="fill:#ffffff;stroke:#000000;stroke-width:0.0324291;stroke-linecap:butt;stroke-linejoin:miter;stroke-miterlimit:4;stroke-dasharray:none;stroke-opacity:1"
       d="m 13.005283,32.61355 c 0,0 0.09923,0.0226 0.100941,0.0355 0.0016,0.01289 0.02395,0.07905 0.02395,0.114539 0,0.0355 -0.0085,0.120994 -0.02737,0.132286 -0.01881,0.0113 -0.07185,0.02904 -0.111206,0.02581 -0.03936,-0.0032 -0.09239,-0.02421 -0.09752,-0.05163 -0.0052,-0.02743 -0.0034,-0.145191 -0.0034,-0.145191 l 0.01027,-0.07583 c 0,0 0.0325,-0.03066 0.0479,-0.03066 0.01539,0 0.05646,-0.0048 0.05646,-0.0048 z"
       id="path2183" />
    <path
       style="fill:#ffffff;stroke:#000000;stroke-width:0.0324291;stroke-linecap:butt;stroke-linejoin:miter;stroke-miterlimit:4;stroke-dasharray:none;stroke-opacity:1"
       d="m 13.433694,32.61355 c 0,0 0.09923,0.0226 0.100941,0.0355 0.0016,0.01289 0.02395,0.07905 0.02395,0.114539 0,0.0355 -0.0085,0.120994 -0.02737,0.132286 -0.01881,0.0113 -0.07186,0.02904 -0.111204,0.02581 -0.03935,-0.0032 -0.09238,-0.02421 -0.09752,-0.05163 -0.0052,-0.02743 -0.0034,-0.145191 -0.0034,-0.145191 l 0.01027,-0.07583 c 0,0 0.0325,-0.03066 0.0479,-0.03066 0.01539,0 0.05646,-0.0048 0.05646,-0.0048 z"
       id="path2185" />
    <path
       style="fill:#ffffff;stroke:#000000;stroke-width:0.0324291;stroke-linecap:butt;stroke-linejoin:miter;stroke-miterlimit:4;stroke-dasharray:none;stroke-opacity:1"
       d="m 13.862107,32.61355 c 0,0 0.09923,0.0226 0.10094,0.0355 0.0016,0.01289 0.02395,0.07905 0.02395,0.114539 0,0.0355 -0.0085,0.120994 -0.02737,0.132286 -0.01881,0.0113 -0.07185,0.02904 -0.111205,0.02581 -0.03936,-0.0032 -0.09238,-0.02421 -0.09752,-0.05163 -0.0052,-0.02743 -0.0034,-0.145191 -0.0034,-0.145191 l 0.01027,-0.07583 c 0,0 0.0325,-0.03066 0.0479,-0.03066 0.01539,0 0.05646,-0.0048 0.05646,-0.0048 z"
       id="path2187" />
    <path
       style="fill:#ffffff;stroke:#000000;stroke-width:0.0324291;stroke-linecap:butt;stroke-linejoin:miter;stroke-miterlimit:4;stroke-dasharray:none;stroke-opacity:1"
       d="m 14.290518,32.61355 c 0,0 0.09923,0.0226 0.100941,0.0355 0.0016,0.01289 0.02395,0.07905 0.02395,0.114539 0,0.0355 -0.0085,0.120994 -0.02737,0.132286 -0.01881,0.0113 -0.07185,0.02904 -0.111205,0.02581 -0.03936,-0.0032 -0.09238,-0.02421 -0.09752,-0.05163 -0.0052,-0.02743 -0.0034,-0.145191 -0.0034,-0.145191 l 0.01027,-0.07583 c 0,0 0.0325,-0.03066 0.0479,-0.03066 0.01539,0 0.05646,-0.0048 0.05646,-0.0048 z"
       id="path2189" />
    <path
       style="fill:#ffffff;stroke:#000000;stroke-width:0.0324291;stroke-linecap:butt;stroke-linejoin:miter;stroke-miterlimit:4;stroke-dasharray:none;stroke-opacity:1"
       d="m 14.718928,32.61355 c 0,0 0.09923,0.0226 0.100942,0.0355 0.0016,0.01289 0.02395,0.07905 0.02395,0.114539 0,0.0355 -0.0085,0.120994 -0.02737,0.132286 -0.01881,0.0113 -0.07185,0.02904 -0.111204,0.02581 -0.03936,-0.0032 -0.09238,-0.02421 -0.09752,-0.05163 -0.0052,-0.02743 -0.0034,-0.145191 -0.0034,-0.145191 l 0.01027,-0.07583 c 0,0 0.0325,-0.03066 0.0479,-0.03066 0.01539,0 0.05646,-0.0048 0.05646,-0.0048 z"
       id="path2191" />
    <path
       style="fill:#ffffff;stroke:#000000;stroke-width:0.0324291;stroke-linecap:butt;stroke-linejoin:miter;stroke-miterlimit:4;stroke-dasharray:none;stroke-opacity:1"
       d="m 15.14734,32.61355 c 0,0 0.09923,0.0226 0.100942,0.0355 0.0016,0.01289 0.02395,0.07905 0.02395,0.114539 0,0.0355 -0.0085,0.120994 -0.02737,0.132286 -0.01881,0.0113 -0.07185,0.02904 -0.111204,0.02581 -0.03935,-0.0032 -0.09238,-0.02421 -0.09752,-0.05163 -0.0052,-0.02743 -0.0034,-0.145191 -0.0034,-0.145191 l 0.01027,-0.07583 c 0,0 0.0325,-0.03066 0.0479,-0.03066 0.01539,0 0.05646,-0.0048 0.05646,-0.0048 z"
       id="path2193" />
    <path
       style="fill:#ffffff;stroke:#000000;stroke-width:0.0324291;stroke-linecap:butt;stroke-linejoin:miter;stroke-miterlimit:4;stroke-dasharray:none;stroke-opacity:1"
       d="m 15.575752,32.61355 c 0,0 0.09923,0.0226 0.100942,0.0355 0.0016,0.01289 0.02395,0.07905 0.02395,0.114539 0,0.0355 -0.0085,0.120994 -0.02737,0.132286 -0.01881,0.0113 -0.07185,0.02904 -0.111205,0.02581 -0.03936,-0.0032 -0.09238,-0.02421 -0.09752,-0.05163 -0.0052,-0.02743 -0.0034,-0.145191 -0.0034,-0.145191 l 0.01027,-0.07583 c 0,0 0.0325,-0.03066 0.04791,-0.03066 0.01539,0 0.05646,-0.0048 0.05646,-0.0048 z"
       id="path2195" />
    <path
       style="fill:#ffffff;stroke:#000000;stroke-width:0.0324291;stroke-linecap:butt;stroke-linejoin:miter;stroke-miterlimit:4;stroke-dasharray:none;stroke-opacity:1"
       d="m 16.004164,32.61355 c 0,0 0.09923,0.0226 0.100939,0.0355 0.0016,0.01289 0.02395,0.07905 0.02395,0.114539 0,0.0355 -0.0085,0.120994 -0.02737,0.132286 -0.01881,0.0113 -0.07185,0.02904 -0.111205,0.02581 -0.03935,-0.0032 -0.09238,-0.02421 -0.09752,-0.05163 -0.0052,-0.02743 -0.0034,-0.145191 -0.0034,-0.145191 l 0.01027,-0.07583 c 0,0 0.0325,-0.03066 0.04791,-0.03066 0.01539,0 0.05646,-0.0048 0.05646,-0.0048 z"
       id="path2197" />
    <path
       style="fill:#ffffff;stroke:#000000;stroke-width:0.0324291;stroke-linecap:butt;stroke-linejoin:miter;stroke-miterlimit:4;stroke-dasharray:none;stroke-opacity:1"
       d="m 16.432575,32.61355 c 0,0 0.09923,0.0226 0.100941,0.0355 0.0016,0.01289 0.02395,0.07905 0.02395,0.114539 0,0.0355 -0.0085,0.120994 -0.02737,0.132286 -0.01881,0.0113 -0.07185,0.02904 -0.111205,0.02581 -0.03935,-0.0032 -0.09239,-0.02421 -0.09752,-0.05163 -0.0052,-0.02743 -0.0034,-0.145191 -0.0034,-0.145191 l 0.01027,-0.07583 c 0,0 0.0325,-0.03066 0.0479,-0.03066 0.01539,0 0.05646,-0.0048 0.05646,-0.0048 z"
       id="path2199" />
    <path
       style="fill:#ffffff;stroke:#000000;stroke-width:0.0324291;stroke-linecap:butt;stroke-linejoin:miter;stroke-miterlimit:4;stroke-dasharray:none;stroke-opacity:1"
       d="m 16.860987,32.61355 c 0,0 0.09923,0.0226 0.100941,0.0355 0.0016,0.01289 0.02395,0.07905 0.02395,0.114539 0,0.0355 -0.0085,0.120994 -0.02737,0.132286 -0.01881,0.0113 -0.07185,0.02904 -0.111206,0.02581 -0.03935,-0.0032 -0.09238,-0.02421 -0.09752,-0.05163 -0.0052,-0.02743 -0.0034,-0.145191 -0.0034,-0.145191 l 0.01027,-0.07583 c 0,0 0.0325,-0.03066 0.04791,-0.03066 0.01539,0 0.05646,-0.0048 0.05646,-0.0048 z"
       id="path2201" />
    <path
       style="fill:#ffffff;stroke:#000000;stroke-width:0.0324291;stroke-linecap:butt;stroke-linejoin:miter;stroke-miterlimit:4;stroke-dasharray:none;stroke-opacity:1"
       d="m 17.289399,32.61355 c 0,0 0.09923,0.0226 0.10094,0.0355 0.0016,0.01289 0.02395,0.07905 0.02395,0.114539 0,0.0355 -0.0085,0.120994 -0.02737,0.132286 -0.01881,0.0113 -0.07186,0.02904 -0.111207,0.02581 -0.03935,-0.0032 -0.09238,-0.02421 -0.09751,-0.05163 -0.0052,-0.02743 -0.0034,-0.145191 -0.0034,-0.145191 l 0.01027,-0.07583 c 0,0 0.0325,-0.03066 0.0479,-0.03066 0.01539,0 0.05646,-0.0048 0.05646,-0.0048 z"
       id="path2203" />
    <path
       style="fill:#ffffff;stroke:#000000;stroke-width:0.0324291;stroke-linecap:butt;stroke-linejoin:miter;stroke-miterlimit:4;stroke-dasharray:none;stroke-opacity:1"
       d="m 17.71781,32.61355 c 0,0 0.09923,0.0226 0.10094,0.0355 0.0016,0.01289 0.02395,0.07905 0.02395,0.114539 0,0.0355 -0.0085,0.120994 -0.02737,0.132286 -0.01881,0.0113 -0.07185,0.02904 -0.111208,0.02581 -0.03935,-0.0032 -0.09238,-0.02421 -0.09752,-0.05163 -0.0052,-0.02743 -0.0034,-0.145191 -0.0034,-0.145191 l 0.01027,-0.07583 c 0,0 0.0325,-0.03066 0.0479,-0.03066 0.01539,0 0.05646,-0.0048 0.05646,-0.0048 z"
       id="path2205" />
    <path
       style="fill:#ffffff;stroke:#000000;stroke-width:0.0324291;stroke-linecap:butt;stroke-linejoin:miter;stroke-miterlimit:4;stroke-dasharray:none;stroke-opacity:1"
       d="m 18.146221,32.61355 c 0,0 0.09923,0.0226 0.100941,0.0355 0.0016,0.01289 0.02395,0.07905 0.02395,0.114539 0,0.0355 -0.0085,0.120994 -0.02737,0.132286 -0.01881,0.0113 -0.07185,0.02904 -0.111207,0.02581 -0.03935,-0.0032 -0.09238,-0.02421 -0.09752,-0.05163 -0.0052,-0.02743 -0.0035,-0.145191 -0.0035,-0.145191 l 0.01027,-0.07583 c 0,0 0.0325,-0.03066 0.0479,-0.03066 0.01539,0 0.05646,-0.0048 0.05646,-0.0048 z"
       id="path2207" />
    <path
       style="fill:#ffffff;stroke:#000000;stroke-width:0.0324291;stroke-linecap:butt;stroke-linejoin:miter;stroke-miterlimit:4;stroke-dasharray:none;stroke-opacity:1"
       d="m 18.574634,32.61355 c 0,0 0.09923,0.0226 0.100939,0.0355 0.0016,0.01289 0.02395,0.07905 0.02395,0.114539 0,0.0355 -0.0085,0.120994 -0.02737,0.132286 -0.01881,0.0113 -0.07185,0.02904 -0.111206,0.02581 -0.03936,-0.0032 -0.09238,-0.02421 -0.09752,-0.05163 -0.0052,-0.02743 -0.0034,-0.145191 -0.0034,-0.145191 l 0.01027,-0.07583 c 0,0 0.0325,-0.03066 0.04791,-0.03066 0.01539,0 0.05646,-0.0048 0.05646,-0.0048 z"
       id="path2209" />
    <path
       style="fill:#ffffff;stroke:#000000;stroke-width:0.0324291;stroke-linecap:butt;stroke-linejoin:miter;stroke-miterlimit:4;stroke-dasharray:none;stroke-opacity:1"
       d="m 22.001924,32.61355 c 0,0 0.09923,0.0226 0.100942,0.0355 0.0016,0.01289 0.02395,0.07905 0.02395,0.114539 0,0.0355 -0.0085,0.120994 -0.02737,0.132286 -0.01881,0.0113 -0.07185,0.02904 -0.111206,0.02581 -0.03936,-0.0032 -0.09239,-0.02421 -0.09752,-0.05163 -0.0052,-0.02743 -0.0034,-0.145191 -0.0034,-0.145191 l 0.01027,-0.07583 c 0,0 0.0325,-0.03066 0.0479,-0.03066 0.01539,0 0.05646,-0.0048 0.05646,-0.0048 z"
       id="path2211" />
    <path
       style="fill:#ffffff;stroke:#000000;stroke-width:0.0324291;stroke-linecap:butt;stroke-linejoin:miter;stroke-miterlimit:4;stroke-dasharray:none;stroke-opacity:1"
       d="m 22.858749,32.61355 c 0,0 0.09923,0.0226 0.100939,0.0355 0.0016,0.01289 0.02395,0.07905 0.02395,0.114539 0,0.0355 -0.0085,0.120994 -0.02737,0.132286 -0.01881,0.0113 -0.07185,0.02904 -0.111205,0.02581 -0.03936,-0.0032 -0.09238,-0.02421 -0.09751,-0.05163 -0.0052,-0.02743 -0.0034,-0.145191 -0.0034,-0.145191 l 0.01027,-0.07583 c 0,0 0.0325,-0.03066 0.04789,-0.03066 0.01539,0 0.05646,-0.0048 0.05646,-0.0048 z"
       id="path2213" />
    <path
       style="fill:#ffffff;stroke:#000000;stroke-width:0.0324291;stroke-linecap:butt;stroke-linejoin:miter;stroke-miterlimit:4;stroke-dasharray:none;stroke-opacity:1"
       d="m 23.715571,32.61355 c 0,0 0.09923,0.0226 0.10094,0.0355 0.0016,0.01289 0.02395,0.07905 0.02395,0.114539 0,0.0355 -0.0085,0.120994 -0.02737,0.132286 -0.01881,0.0113 -0.07185,0.02904 -0.111205,0.02581 -0.03935,-0.0032 -0.09238,-0.02421 -0.09752,-0.05163 -0.0052,-0.02743 -0.0034,-0.145191 -0.0034,-0.145191 l 0.01027,-0.07583 c 0,0 0.0325,-0.03066 0.0479,-0.03066 0.01539,0 0.05646,-0.0048 0.05646,-0.0048 z"
       id="path2215" />
    <path
       style="fill:#ffffff;stroke:#000000;stroke-width:0.0324291;stroke-linecap:butt;stroke-linejoin:miter;stroke-miterlimit:4;stroke-dasharray:none;stroke-opacity:1"
       d="m 24.143984,32.61355 c 0,0 0.09923,0.0226 0.100939,0.0355 0.0016,0.01289 0.02395,0.07905 0.02395,0.114539 0,0.0355 -0.0085,0.120994 -0.02737,0.132286 -0.01881,0.0113 -0.07185,0.02904 -0.111206,0.02581 -0.03935,-0.0032 -0.09238,-0.02421 -0.09752,-0.05163 -0.0052,-0.02743 -0.0034,-0.145191 -0.0034,-0.145191 l 0.01027,-0.07583 c 0,0 0.0325,-0.03066 0.0479,-0.03066 0.01539,0 0.05646,-0.0048 0.05646,-0.0048 z"
       id="path2217" />
    <path
       style="fill:#ffffff;stroke:#000000;stroke-width:0.0324291;stroke-linecap:butt;stroke-linejoin:miter;stroke-miterlimit:4;stroke-dasharray:none;stroke-opacity:1"
       d="m 24.572395,32.61355 c 0,0 0.09923,0.0226 0.10094,0.0355 0.0016,0.01289 0.02395,0.07905 0.02395,0.114539 0,0.0355 -0.0085,0.120994 -0.02737,0.132286 -0.01881,0.0113 -0.07185,0.02904 -0.111206,0.02581 -0.03935,-0.0032 -0.09238,-0.02421 -0.09752,-0.05163 -0.0052,-0.02743 -0.0034,-0.145191 -0.0034,-0.145191 l 0.01026,-0.07583 c 0,0 0.0325,-0.03066 0.0479,-0.03066 0.01539,0 0.05646,-0.0048 0.05646,-0.0048 z"
       id="path2219" />
    <path
       style="fill:#ffffff;stroke:#000000;stroke-width:0.0324291;stroke-linecap:butt;stroke-linejoin:miter;stroke-miterlimit:4;stroke-dasharray:none;stroke-opacity:1"
       d="m 25.000808,32.61355 c 0,0 0.09923,0.0226 0.100942,0.0355 0.0016,0.01289 0.02395,0.07905 0.02395,0.114539 0,0.0355 -0.0085,0.120994 -0.02737,0.132286 -0.01882,0.0113 -0.07185,0.02904 -0.111207,0.02581 -0.03934,-0.0032 -0.09238,-0.02421 -0.09752,-0.05163 -0.0052,-0.02743 -0.0034,-0.145191 -0.0034,-0.145191 l 0.01027,-0.07583 c 0,0 0.0325,-0.03066 0.0479,-0.03066 0.01539,0 0.05646,-0.0048 0.05646,-0.0048 z"
       id="path2221" />
    <path
       style="fill:#ffffff;stroke:#000000;stroke-width:0.0324291;stroke-linecap:butt;stroke-linejoin:miter;stroke-miterlimit:4;stroke-dasharray:none;stroke-opacity:1"
       d="m 25.429223,32.61355 c 0,0 0.09923,0.0226 0.10094,0.0355 0.0016,0.01289 0.02395,0.07905 0.02395,0.114539 0,0.0355 -0.0085,0.120994 -0.02737,0.132286 -0.01881,0.0113 -0.07185,0.02904 -0.111208,0.02581 -0.03934,-0.0032 -0.09238,-0.02421 -0.09752,-0.05163 -0.0052,-0.02743 -0.0034,-0.145191 -0.0034,-0.145191 l 0.01026,-0.07583 c 0,0 0.0325,-0.03066 0.0479,-0.03066 0.0154,0 0.05646,-0.0048 0.05646,-0.0048 z"
       id="path2223" />
    <path
       style="fill:#ffffff;stroke:#000000;stroke-width:0.0324291;stroke-linecap:butt;stroke-linejoin:miter;stroke-miterlimit:4;stroke-dasharray:none;stroke-opacity:1"
       d="m 25.857638,32.61355 c 0,0 0.09923,0.0226 0.100941,0.0355 0.0016,0.01289 0.02395,0.07905 0.02395,0.114539 0,0.0355 -0.0085,0.120994 -0.02737,0.132286 -0.01882,0.0113 -0.07186,0.02904 -0.111205,0.02581 -0.03936,-0.0032 -0.09238,-0.02421 -0.09752,-0.05163 -0.0052,-0.02743 -0.0034,-0.145191 -0.0034,-0.145191 l 0.01026,-0.07583 c 0,0 0.0325,-0.03066 0.0479,-0.03066 0.0154,0 0.05646,-0.0048 0.05646,-0.0048 z"
       id="path2225" />
    <path
       style="fill:#ffffff;stroke:#000000;stroke-width:0.0324291;stroke-linecap:butt;stroke-linejoin:miter;stroke-miterlimit:4;stroke-dasharray:none;stroke-opacity:1"
       d="m 26.28605,32.61355 c 0,0 0.09923,0.0226 0.100943,0.0355 0.0016,0.01289 0.02395,0.07905 0.02395,0.114539 0,0.0355 -0.0085,0.120994 -0.02737,0.132286 -0.01882,0.0113 -0.07186,0.02904 -0.111207,0.02581 -0.03935,-0.0032 -0.09238,-0.02421 -0.09752,-0.05163 -0.0052,-0.02743 -0.0034,-0.145191 -0.0034,-0.145191 l 0.01027,-0.07583 c 0,0 0.0325,-0.03066 0.0479,-0.03066 0.0154,0 0.05646,-0.0048 0.05646,-0.0048 z"
       id="path2227" />
    <path
       style="fill:#ffffff;stroke:#000000;stroke-width:0.0324291;stroke-linecap:butt;stroke-linejoin:miter;stroke-miterlimit:4;stroke-dasharray:none;stroke-opacity:1"
       d="m 26.714466,32.61355 c 0,0 0.09923,0.0226 0.100939,0.0355 0.0016,0.01289 0.02395,0.07905 0.02395,0.114539 0,0.0355 -0.0085,0.120994 -0.02737,0.132286 -0.01881,0.0113 -0.07186,0.02904 -0.111206,0.02581 -0.03936,-0.0032 -0.09238,-0.02421 -0.09752,-0.05163 -0.0052,-0.02743 -0.0034,-0.145191 -0.0034,-0.145191 l 0.01026,-0.07583 c 0,0 0.0325,-0.03066 0.0479,-0.03066 0.01539,0 0.05646,-0.0048 0.05646,-0.0048 z"
       id="path2229" />
    <path
       style="fill:#ffffff;stroke:#000000;stroke-width:0.0324291;stroke-linecap:butt;stroke-linejoin:miter;stroke-miterlimit:4;stroke-dasharray:none;stroke-opacity:1"
       d="m 27.14288,32.61355 c 0,0 0.09923,0.0226 0.100939,0.0355 0.0016,0.01289 0.02395,0.07905 0.02395,0.114539 0,0.0355 -0.0085,0.120994 -0.02737,0.132286 -0.01882,0.0113 -0.07186,0.02904 -0.111206,0.02581 -0.03936,-0.0032 -0.09238,-0.02421 -0.09751,-0.05163 -0.0052,-0.02743 -0.0034,-0.145191 -0.0034,-0.145191 l 0.01027,-0.07583 c 0,0 0.0325,-0.03066 0.0479,-0.03066 0.0154,0 0.05646,-0.0048 0.05646,-0.0048 z"
       id="path2231" />
    <path
       style="fill:#ffffff;stroke:#000000;stroke-width:0.0324291;stroke-linecap:butt;stroke-linejoin:miter;stroke-miterlimit:4;stroke-dasharray:none;stroke-opacity:1"
       d="m 27.571293,32.61355 c 0,0 0.09923,0.0226 0.10094,0.0355 0.0016,0.01289 0.02395,0.07905 0.02395,0.114539 0,0.0355 -0.0085,0.120994 -0.02737,0.132286 -0.01882,0.0113 -0.07185,0.02904 -0.111206,0.02581 -0.03935,-0.0032 -0.09238,-0.02421 -0.09752,-0.05163 -0.0052,-0.02743 -0.0034,-0.145191 -0.0034,-0.145191 l 0.01027,-0.07583 c 0,0 0.0325,-0.03066 0.0479,-0.03066 0.0154,0 0.05646,-0.0048 0.05646,-0.0048 z"
       id="path2233" />
    <path
       style="fill:#ffffff;stroke:#000000;stroke-width:0.0324291;stroke-linecap:butt;stroke-linejoin:miter;stroke-miterlimit:4;stroke-dasharray:none;stroke-opacity:1"
       d="m 27.999708,32.61355 c 0,0 0.09923,0.0226 0.10094,0.0355 0.0016,0.01289 0.02395,0.07905 0.02395,0.114539 0,0.0355 -0.0085,0.120994 -0.02737,0.132286 -0.01882,0.0113 -0.07185,0.02904 -0.111205,0.02581 -0.03935,-0.0032 -0.09238,-0.02421 -0.09752,-0.05163 -0.0052,-0.02743 -0.0034,-0.145191 -0.0034,-0.145191 l 0.01026,-0.07583 c 0,0 0.0325,-0.03066 0.0479,-0.03066 0.0154,0 0.05646,-0.0048 0.05646,-0.0048 z"
       id="path2235" />
    <path
       style="fill:#ffffff;stroke:#000000;stroke-width:0.0324291;stroke-linecap:butt;stroke-linejoin:miter;stroke-miterlimit:4;stroke-dasharray:none;stroke-opacity:1"
       d="m 28.42812,32.61355 c 0,0 0.09923,0.0226 0.100941,0.0355 0.0016,0.01289 0.02395,0.07905 0.02395,0.114539 0,0.0355 -0.0085,0.120994 -0.02737,0.132286 -0.01882,0.0113 -0.07185,0.02904 -0.111205,0.02581 -0.03935,-0.0032 -0.09238,-0.02421 -0.09752,-0.05163 -0.0052,-0.02743 -0.0034,-0.145191 -0.0034,-0.145191 l 0.01027,-0.07583 c 0,0 0.0325,-0.03066 0.0479,-0.03066 0.0154,0 0.05646,-0.0048 0.05646,-0.0048 z"
       id="path2237" />
    <path
       style="fill:#ffffff;stroke:#000000;stroke-width:0.0324291;stroke-linecap:butt;stroke-linejoin:miter;stroke-miterlimit:4;stroke-dasharray:none;stroke-opacity:1"
       d="m 28.856536,32.61355 c 0,0 0.09923,0.0226 0.100939,0.0355 0.0016,0.01289 0.02395,0.07905 0.02395,0.114539 0,0.0355 -0.0085,0.120994 -0.02737,0.132286 -0.01882,0.0113 -0.07185,0.02904 -0.111206,0.02581 -0.03936,-0.0032 -0.09238,-0.02421 -0.09752,-0.05163 -0.0052,-0.02743 -0.0034,-0.145191 -0.0034,-0.145191 l 0.01027,-0.07583 c 0,0 0.0325,-0.03066 0.0479,-0.03066 0.0154,0 0.05646,-0.0048 0.05646,-0.0048 z"
       id="path2239" />
    <path
       style="fill:#ffffff;stroke:#000000;stroke-width:0.0324291;stroke-linecap:butt;stroke-linejoin:miter;stroke-miterlimit:4;stroke-dasharray:none;stroke-opacity:1"
       d="m 29.284948,32.61355 c 0,0 0.09923,0.0226 0.100943,0.0355 0.0016,0.01289 0.02395,0.07905 0.02395,0.114539 0,0.0355 -0.0085,0.120994 -0.02737,0.132286 -0.01882,0.0113 -0.07185,0.02904 -0.111207,0.02581 -0.03936,-0.0032 -0.09238,-0.02421 -0.09752,-0.05163 -0.0052,-0.02743 -0.0034,-0.145191 -0.0034,-0.145191 l 0.01027,-0.07583 c 0,0 0.0325,-0.03066 0.0479,-0.03066 0.0154,0 0.05646,-0.0048 0.05646,-0.0048 z"
       id="path2241" />
    <path
       style="fill:#ffffff;stroke:#000000;stroke-width:0.0324291;stroke-linecap:butt;stroke-linejoin:miter;stroke-miterlimit:4;stroke-dasharray:none;stroke-opacity:1"
       d="m 29.713363,32.61355 c 0,0 0.09923,0.0226 0.10094,0.0355 0.0016,0.01289 0.02395,0.07905 0.02395,0.114539 0,0.0355 -0.0085,0.120994 -0.02737,0.132286 -0.01882,0.0113 -0.07185,0.02904 -0.111206,0.02581 -0.03936,-0.0032 -0.09238,-0.02421 -0.09752,-0.05163 -0.0052,-0.02743 -0.0034,-0.145191 -0.0034,-0.145191 l 0.01027,-0.07583 c 0,0 0.0325,-0.03066 0.0479,-0.03066 0.0154,0 0.05646,-0.0048 0.05646,-0.0048 z"
       id="path2243" />
    <path
       style="fill:#ffffff;stroke:#000000;stroke-width:0.0324291;stroke-linecap:butt;stroke-linejoin:miter;stroke-miterlimit:4;stroke-dasharray:none;stroke-opacity:1"
       d="m 30.141776,32.61355 c 0,0 0.09923,0.0226 0.100942,0.0355 0.0016,0.01289 0.02395,0.07905 0.02395,0.114539 0,0.0355 -0.0085,0.120994 -0.02737,0.132286 -0.01882,0.0113 -0.07186,0.02904 -0.111205,0.02581 -0.03936,-0.0032 -0.09238,-0.02421 -0.09752,-0.05163 -0.0052,-0.02743 -0.0034,-0.145191 -0.0034,-0.145191 l 0.01027,-0.07583 c 0,0 0.0325,-0.03066 0.0479,-0.03066 0.0154,0 0.05646,-0.0048 0.05646,-0.0048 z"
       id="path2245" />
    <path
       style="fill:#ffffff;stroke:#000000;stroke-width:0.0324291;stroke-linecap:butt;stroke-linejoin:miter;stroke-miterlimit:4;stroke-dasharray:none;stroke-opacity:1"
       d="m 30.570191,32.61355 c 0,0 0.09923,0.0226 0.100941,0.0355 0.0016,0.01289 0.02395,0.07905 0.02395,0.114539 0,0.0355 -0.0085,0.120994 -0.02737,0.132286 -0.01882,0.0113 -0.07186,0.02904 -0.111208,0.02581 -0.03935,-0.0032 -0.09238,-0.02421 -0.09752,-0.05163 -0.0052,-0.02743 -0.0034,-0.145191 -0.0034,-0.145191 l 0.01027,-0.07583 c 0,0 0.0325,-0.03066 0.04791,-0.03066 0.01541,0 0.05646,-0.0048 0.05646,-0.0048 z"
       id="path2247" />
    <path
       style="fill:#ffffff;stroke:#000000;stroke-width:0.0324291;stroke-linecap:butt;stroke-linejoin:miter;stroke-miterlimit:4;stroke-dasharray:none;stroke-opacity:1"
       d="m 37.103505,32.61355 c 0,0 0.09923,0.0226 0.100938,0.0355 0.0016,0.01289 0.02395,0.07905 0.02395,0.114539 0,0.0355 -0.0085,0.120994 -0.02737,0.132286 -0.01882,0.0113 -0.07186,0.02904 -0.111207,0.02581 -0.03935,-0.0032 -0.09238,-0.02421 -0.09752,-0.05163 -0.0052,-0.02743 -0.0034,-0.145191 -0.0034,-0.145191 l 0.01027,-0.07583 c 0,0 0.0325,-0.03066 0.04789,-0.03066 0.01541,0 0.05646,-0.0048 0.05646,-0.0048 z"
       id="path2249" />
    <path
       style="fill:#ffffff;stroke:#000000;stroke-width:0.0324291;stroke-linecap:butt;stroke-linejoin:miter;stroke-miterlimit:4;stroke-dasharray:none;stroke-opacity:1"
       d="m 37.531918,32.61355 c 0,0 0.09923,0.0226 0.100941,0.0355 0.0016,0.01289 0.02395,0.07905 0.02395,0.114539 0,0.0355 -0.0085,0.120994 -0.02737,0.132286 -0.01882,0.0113 -0.07186,0.02904 -0.111206,0.02581 -0.03934,-0.0032 -0.09238,-0.02421 -0.09752,-0.05163 -0.0052,-0.02743 -0.0034,-0.145191 -0.0034,-0.145191 l 0.01027,-0.07583 c 0,0 0.0325,-0.03066 0.04791,-0.03066 0.01541,0 0.05646,-0.0048 0.05646,-0.0048 z"
       id="path2251" />
    <path
       style="fill:#ffffff;stroke:#000000;stroke-width:0.0324291;stroke-linecap:butt;stroke-linejoin:miter;stroke-miterlimit:4;stroke-dasharray:none;stroke-opacity:1"
       d="m 37.960332,32.61355 c 0,0 0.09923,0.0226 0.10094,0.0355 0.0016,0.01289 0.02395,0.07905 0.02395,0.114539 0,0.0355 -0.0085,0.120994 -0.02737,0.132286 -0.01882,0.0113 -0.07186,0.02904 -0.111206,0.02581 -0.03935,-0.0032 -0.09238,-0.02421 -0.09751,-0.05163 -0.0052,-0.02743 -0.0034,-0.145191 -0.0034,-0.145191 l 0.01027,-0.07583 c 0,0 0.0325,-0.03066 0.0479,-0.03066 0.0154,0 0.05646,-0.0048 0.05646,-0.0048 z"
       id="path2253" />
    <path
       style="fill:#ffffff;stroke:#000000;stroke-width:0.0324291;stroke-linecap:butt;stroke-linejoin:miter;stroke-miterlimit:4;stroke-dasharray:none;stroke-opacity:1"
       d="m 38.388746,32.61355 c 0,0 0.09923,0.0226 0.10094,0.0355 0.0016,0.01289 0.02395,0.07905 0.02395,0.114539 0,0.0355 -0.0085,0.120994 -0.02737,0.132286 -0.01882,0.0113 -0.07185,0.02904 -0.111207,0.02581 -0.03934,-0.0032 -0.09238,-0.02421 -0.09752,-0.05163 -0.0052,-0.02743 -0.0034,-0.145191 -0.0034,-0.145191 l 0.01027,-0.07583 c 0,0 0.0325,-0.03066 0.0479,-0.03066 0.0154,0 0.05646,-0.0048 0.05646,-0.0048 z"
       id="path2255" />
    <path
       style="fill:#ffffff;stroke:#000000;stroke-width:0.0324291;stroke-linecap:butt;stroke-linejoin:miter;stroke-miterlimit:4;stroke-dasharray:none;stroke-opacity:1"
       d="m 38.817161,32.61355 c 0,0 0.09923,0.0226 0.100939,0.0355 0.0016,0.01289 0.02395,0.07905 0.02395,0.114539 0,0.0355 -0.0085,0.120994 -0.02737,0.132286 -0.01882,0.0113 -0.07185,0.02904 -0.111208,0.02581 -0.03934,-0.0032 -0.09239,-0.02421 -0.09752,-0.05163 -0.0052,-0.02743 -0.0034,-0.145191 -0.0034,-0.145191 l 0.01027,-0.07583 c 0,0 0.0325,-0.03066 0.0479,-0.03066 0.0154,0 0.05646,-0.0048 0.05646,-0.0048 z"
       id="path2257" />
    <path
       style="fill:#ffffff;stroke:#000000;stroke-width:0.0324291;stroke-linecap:butt;stroke-linejoin:miter;stroke-miterlimit:4;stroke-dasharray:none;stroke-opacity:1"
       d="m 39.245574,32.61355 c 0,0 0.09923,0.0226 0.100941,0.0355 0.0016,0.01289 0.02395,0.07905 0.02395,0.114539 0,0.0355 -0.0085,0.120994 -0.02737,0.132286 -0.01882,0.0113 -0.07185,0.02904 -0.111209,0.02581 -0.03935,-0.0032 -0.09238,-0.02421 -0.09751,-0.05163 -0.0052,-0.02743 -0.0034,-0.145191 -0.0034,-0.145191 l 0.01027,-0.07583 c 0,0 0.0325,-0.03066 0.0479,-0.03066 0.0154,0 0.05646,-0.0048 0.05646,-0.0048 z"
       id="path2259" />
    <path
       style="fill:#ffffff;stroke:#000000;stroke-width:0.0324291;stroke-linecap:butt;stroke-linejoin:miter;stroke-miterlimit:4;stroke-dasharray:none;stroke-opacity:1"
       d="m 39.673988,32.61355 c 0,0 0.09923,0.0226 0.100939,0.0355 0.0016,0.01289 0.02395,0.07905 0.02395,0.114539 0,0.0355 -0.0085,0.120994 -0.02737,0.132286 -0.01882,0.0113 -0.07186,0.02904 -0.111208,0.02581 -0.03935,-0.0032 -0.09238,-0.02421 -0.09752,-0.05163 -0.0052,-0.02743 -0.0034,-0.145191 -0.0034,-0.145191 l 0.01027,-0.07583 c 0,0 0.0325,-0.03066 0.0479,-0.03066 0.0154,0 0.05646,-0.0048 0.05646,-0.0048 z"
       id="path2261" />
    <path
       style="fill:#ffffff;stroke:#000000;stroke-width:0.0324291;stroke-linecap:butt;stroke-linejoin:miter;stroke-miterlimit:4;stroke-dasharray:none;stroke-opacity:1"
       d="m 40.102401,32.61355 c 0,0 0.09923,0.0226 0.100943,0.0355 0.0016,0.01289 0.02395,0.07905 0.02395,0.114539 0,0.0355 -0.0085,0.120994 -0.02737,0.132286 -0.01882,0.0113 -0.07186,0.02904 -0.111207,0.02581 -0.03936,-0.0032 -0.09238,-0.02421 -0.09751,-0.05163 -0.0052,-0.02743 -0.0034,-0.145191 -0.0034,-0.145191 l 0.01027,-0.07583 c 0,0 0.0325,-0.03066 0.0479,-0.03066 0.0154,0 0.05646,-0.0048 0.05646,-0.0048 z"
       id="path2263" />
    <path
       style="fill:#ffffff;stroke:#000000;stroke-width:0.0324291;stroke-linecap:butt;stroke-linejoin:miter;stroke-miterlimit:4;stroke-dasharray:none;stroke-opacity:1"
       d="m 40.530815,32.61355 c 0,0 0.09923,0.0226 0.100941,0.0355 0.0016,0.01289 0.02395,0.07905 0.02395,0.114539 0,0.0355 -0.0085,0.120994 -0.02737,0.132286 -0.01882,0.0113 -0.07186,0.02904 -0.111205,0.02581 -0.03936,-0.0032 -0.09238,-0.02421 -0.09752,-0.05163 -0.0052,-0.02743 -0.0034,-0.145191 -0.0034,-0.145191 l 0.01027,-0.07583 c 0,0 0.0325,-0.03066 0.0479,-0.03066 0.0154,0 0.05646,-0.0048 0.05646,-0.0048 z"
       id="path2265" />
    <path
       style="fill:#ffffff;stroke:#000000;stroke-width:0.0324291;stroke-linecap:butt;stroke-linejoin:miter;stroke-miterlimit:4;stroke-dasharray:none;stroke-opacity:1"
       d="m 40.959229,32.61355 c 0,0 0.09923,0.0226 0.100941,0.0355 0.0016,0.01289 0.02395,0.07905 0.02395,0.114539 0,0.0355 -0.0085,0.120994 -0.02737,0.132286 -0.01882,0.0113 -0.07186,0.02904 -0.111204,0.02581 -0.03936,-0.0032 -0.09239,-0.02421 -0.09752,-0.05163 -0.0052,-0.02743 -0.0034,-0.145191 -0.0034,-0.145191 l 0.01027,-0.07583 c 0,0 0.0325,-0.03066 0.0479,-0.03066 0.01541,0 0.05646,-0.0048 0.05646,-0.0048 z"
       id="path2267" />
    <path
       style="fill:#ffffff;stroke:#000000;stroke-width:0.0324291;stroke-linecap:butt;stroke-linejoin:miter;stroke-miterlimit:4;stroke-dasharray:none;stroke-opacity:1"
       d="m 41.387645,32.61355 c 0,0 0.09923,0.0226 0.100938,0.0355 0.0016,0.01289 0.02395,0.07905 0.02395,0.114539 0,0.0355 -0.0085,0.120994 -0.02737,0.132286 -0.01882,0.0113 -0.07186,0.02904 -0.111206,0.02581 -0.03936,-0.0032 -0.09239,-0.02421 -0.09752,-0.05163 -0.0052,-0.02743 -0.0034,-0.145191 -0.0034,-0.145191 l 0.01027,-0.07583 c 0,0 0.0325,-0.03066 0.0479,-0.03066 0.01541,0 0.05646,-0.0048 0.05646,-0.0048 z"
       id="path2269" />
    <path
       style="fill:#ffffff;stroke:#000000;stroke-width:0.0324291;stroke-linecap:butt;stroke-linejoin:miter;stroke-miterlimit:4;stroke-dasharray:none;stroke-opacity:1"
       d="m 41.816056,32.61355 c 0,0 0.09923,0.0226 0.100942,0.0355 0.0016,0.01289 0.02395,0.07905 0.02395,0.114539 0,0.0355 -0.0085,0.120994 -0.02737,0.132286 -0.01882,0.0113 -0.07186,0.02904 -0.111202,0.02581 -0.03936,-0.0032 -0.09238,-0.02421 -0.09752,-0.05163 -0.0052,-0.02743 -0.0034,-0.145191 -0.0034,-0.145191 l 0.01027,-0.07583 c 0,0 0.0325,-0.03066 0.0479,-0.03066 0.0154,0 0.05646,-0.0048 0.05646,-0.0048 z"
       id="path2271" />
    <path
       style="fill:#ffffff;stroke:#000000;stroke-width:0.0324291;stroke-linecap:butt;stroke-linejoin:miter;stroke-miterlimit:4;stroke-dasharray:none;stroke-opacity:1"
       d="m 42.244471,32.61355 c 0,0 0.09923,0.0226 0.100939,0.0355 0.0016,0.01289 0.02395,0.07905 0.02395,0.114539 0,0.0355 -0.0085,0.120994 -0.02737,0.132286 -0.01882,0.0113 -0.07186,0.02904 -0.111206,0.02581 -0.03935,-0.0032 -0.09239,-0.02421 -0.09752,-0.05163 -0.0052,-0.02743 -0.0034,-0.145191 -0.0034,-0.145191 l 0.01027,-0.07583 c 0,0 0.0325,-0.03066 0.0479,-0.03066 0.01541,0 0.05646,-0.0048 0.05646,-0.0048 z"
       id="path2273" />
    <path
       style="fill:#ffffff;stroke:#000000;stroke-width:0.0324291;stroke-linecap:butt;stroke-linejoin:miter;stroke-miterlimit:4;stroke-dasharray:none;stroke-opacity:1"
       d="m 42.672887,32.61355 c 0,0 0.09923,0.0226 0.10094,0.0355 0.0016,0.01289 0.02395,0.07905 0.02395,0.114539 0,0.0355 -0.0085,0.120994 -0.02737,0.132286 -0.01882,0.0113 -0.07186,0.02904 -0.111203,0.02581 -0.03936,-0.0032 -0.09239,-0.02421 -0.09751,-0.05163 -0.0052,-0.02743 -0.0034,-0.145191 -0.0034,-0.145191 l 0.01027,-0.07583 c 0,0 0.0325,-0.03066 0.04789,-0.03066 0.0154,0 0.05646,-0.0048 0.05646,-0.0048 z"
       id="path2275" />
    <path
       style="fill:#ffffff;stroke:#000000;stroke-width:0.0324291;stroke-linecap:butt;stroke-linejoin:miter;stroke-miterlimit:4;stroke-dasharray:none;stroke-opacity:1"
       d="m 33.359073,32.829771 c 0,0 -0.0048,-0.03195 0,-0.06845 0.0049,-0.0365 0.0097,-0.100386 0.03387,-0.109511 0.02419,-0.0091 0.09678,-0.01824 0.120976,-0.0091 0.02418,0.0091 0.05807,0.06845 0.05807,0.0867 0,0.01824 0,0.09126 0,0.09126 l -0.0048,0.02282 z"
       id="path2310" />
    <path
       style="fill:#ffffff;stroke:#000000;stroke-width:0.0324291;stroke-linecap:butt;stroke-linejoin:miter;stroke-miterlimit:4;stroke-dasharray:none;stroke-opacity:1"
       d="m 34.002663,32.733949 c 0,0 0.01449,-0.0365 -0.01934,-0.05932 -0.03387,-0.02281 -0.03387,-0.05475 -0.06774,-0.05019 -0.03387,0.0046 -0.0871,0.02738 -0.09678,0.04563 -0.0097,0.01823 -0.05807,0.08213 -0.02419,0.08213 0.03387,0 0.208077,-0.01824 0.208077,-0.01824 z"
       id="path2505" />
    <path
       style="fill:#ffffff;stroke:#000000;stroke-width:0.0324291;stroke-linecap:butt;stroke-linejoin:miter;stroke-miterlimit:4;stroke-dasharray:none;stroke-opacity:1"
       d="m 34.244612,32.711133 c 0,0 0.03871,-0.04562 0.05807,-0.05475 0.01934,-0.0091 0.0629,-0.0365 0.09194,-0.01824 0.02903,0.01824 0.07742,0.01368 0.07742,0.04107 0,0.02739 0,0.05019 0,0.05019 l -0.241949,0.0046 z"
       id="path2663" />
    <path
       style="fill:#ffffff;stroke:#000000;stroke-width:0.0324291;stroke-linecap:butt;stroke-linejoin:miter;stroke-miterlimit:4;stroke-dasharray:none;stroke-opacity:1"
       d="m 34.684965,32.700607 c 0,0 -0.0049,-0.02281 0.02419,-0.0365 0.02903,-0.01368 0.0097,-0.02739 0.05323,-0.02739 0.04355,0 0.07742,-0.01823 0.106461,0.0046 0.02903,0.02282 0.04355,0.05019 0.04355,0.05019 z"
       id="path2755" />
    <path
       style="fill:#ffffff;stroke:#000000;stroke-width:0.0324291;stroke-linecap:butt;stroke-linejoin:miter;stroke-miterlimit:4;stroke-dasharray:none;stroke-opacity:1"
       d="m 35.125317,32.676415 c 0,0 0.01935,-0.04562 0.04839,-0.05019 0.02903,-0.0046 0.01934,-0.01368 0.04839,-0.01368 0.02903,0 0.05323,0 0.07258,0.01824 0.01934,0.01824 0.04839,0.01368 0.04839,0.03195 0,0.01824 0.0048,0.0365 0.0048,0.0365 z"
       id="path2917" />
    <path
       style="fill:#ffffff;stroke:#000000;stroke-width:0.0324291;stroke-linecap:butt;stroke-linejoin:miter;stroke-miterlimit:4;stroke-dasharray:none;stroke-opacity:1"
       d="m 35.791042,32.855176 c 0,0 -0.0034,0.04839 0.0171,0.0597 0.02052,0.0113 0.08554,0.01451 0.08554,0.01451 0,0 0.03764,0.0048 0.04961,-0.0015 0.01199,-0.0065 0.03078,-0.04033 0.03078,-0.05001 0,-0.0097 -0.0051,-0.04194 -0.0051,-0.04194 z"
       id="path3236" />
    <path
       style="fill:#ffffff;stroke:#000000;stroke-width:0.0324291;stroke-linecap:butt;stroke-linejoin:miter;stroke-miterlimit:4;stroke-dasharray:none;stroke-opacity:1"
       d="m 35.816706,32.68957 c 0,0 -0.0069,-0.05001 0.01199,-0.05646 0.01882,-0.0065 0.05475,-0.02742 0.08212,-0.02096 0.02737,0.0065 0.06501,0.02259 0.06501,0.03388 0,0.0113 0.0052,0.04516 0.0052,0.04516 z"
       id="path3328" />
    <path
       style="fill:#ffffff;stroke:#000000;stroke-width:0.0324291;stroke-linecap:butt;stroke-linejoin:miter;stroke-miterlimit:4;stroke-dasharray:none;stroke-opacity:1"
       d="m 36.259817,32.826825 c 0,0 0.0016,0.0597 0.02052,0.07422 0.01882,0.01451 0.03422,0.03387 0.06502,0.03226 0.03079,-0.0015 0.09581,-0.01935 0.09581,-0.01935 0,0 0.02052,-0.01774 0.01882,-0.03872 -0.0016,-0.02096 -0.0085,-0.06292 -0.0085,-0.06292 z"
       id="path3420" />
    <path
       style="fill:#ffffff;stroke:#000000;stroke-width:0.0324291;stroke-linecap:butt;stroke-linejoin:miter;stroke-miterlimit:4;stroke-dasharray:none;stroke-opacity:1"
       d="m 36.264949,32.68997 c 0,0 0.01027,-0.0597 0.02737,-0.06614 0.0171,-0.0065 0.02224,-0.01774 0.03421,-0.01774 0.01199,0 0.05474,-0.0015 0.06501,0.0065 0.01027,0.0081 0.04277,0.02904 0.04449,0.04033 0.0016,0.0113 0.01027,0.03871 0.01027,0.03871 z"
       id="path3512" />
    <path
       style="fill:#ffffff;stroke:#000000;stroke-width:0.0324291;stroke-linecap:butt;stroke-linejoin:miter;stroke-miterlimit:4;stroke-dasharray:none;stroke-opacity:1"
       d="m 36.682397,32.705834 c 0,0 0.0069,-0.0242 0.0154,-0.03711 0.0085,-0.0129 0.01369,-0.03388 0.02052,-0.0355 0.0069,-0.0015 0.02737,-0.0015 0.03764,-0.0032 0.01027,-0.0015 0.03078,0 0.03934,0.0015 0.0085,0.0015 0.02052,-0.0048 0.03936,0.0048 0.01882,0.0097 0.0325,0.0097 0.03764,0.02581 0.0052,0.01612 0.01027,0.0613 0.01027,0.0613 l 0.01027,0.130671 c 0,0 -0.01027,0.04033 -0.02737,0.05001 -0.0171,0.0097 -0.03935,0.02581 -0.06844,0.02581 -0.02908,0 -0.06673,-0.01451 -0.08041,-0.01774 -0.01369,-0.0032 -0.03592,-0.05645 -0.03592,-0.06615 0,-0.0097 -0.0069,-0.06936 -0.0069,-0.06936 l 0.0016,-0.0113 0.143713,-0.02743 0.02224,-0.03066 z"
       id="path3639" />
  </g>
</svg>
