<?xml version="1.0" encoding="UTF-8"?>
<svg width="250mm" height="100mm" version="1.1" viewBox="0 0 250 100" xmlns="http://www.w3.org/2000/svg">
<path transform="scale(.26458)" d="m867.97 82.357-121.22 122.86c-5.7067 5.6046-13.038 9.9178-20.203 9.5332-5.2137-0.36047-9.846-1.012-15.91-0.94727l-49.518 0.04688 0.88867-2.5391-2.1777-1.2617-3.1191 3.8047-24.324 0.02148c0.03484-1.9506 0.21449-3.8796 0.7832-5.7539l-5.1777 5.7578-41.535 0.03906 0.81445-2.3242-2.1777-1.2637-2.9434 3.5918-242.67 0.2246c0.02007-2.0511 0.18589-4.0822 0.78321-6.0508l-5.4453 6.0566-30.84 0.02735-0.04297-1.1582h-1.1152l-0.06641 1.1602-116.11 0.10742-0.04492-1.2207h-1.1172l-0.07031 1.2227-13.809 0.01171-0.04882-1.3223h-1.1172l-0.07617 1.3242-4.709 0.0039c-0.43233-0.00696-1.1552 0.00692-1.7285 0.00977l-0.05078-1.4102h-1.1172l-0.08203 1.418c-20.967 0.33464-105.88 6.1873-128.34 36.096-5.7766 2.7832-16.54 9.5116-16.92 15.656-0.24546 12.928 30.524 23.275 67.648 29.307l-1.1465 10.068 16.287 2.7988 0.28711 7.6641-2.043-0.625-1.6113-2.082 1.4844 2.3672 2.1875 0.85352 0.01563 0.39258-5.1387 0.08007-0.88476-1.2949-0.37891 1.8945h6.4277l0.20312 5.416a7.9234 7.9234 0 0 0-6.5977 7.8106 7.9234 7.9234 0 0 0 7.9219 7.9238 7.9234 7.9234 0 0 0 7.9238-7.9238 7.9234 7.9234 0 0 0-3.0996-6.2734l4.8359-4.0488-7.4219-6.2637-0.01562-5.1875 2.4746 0.42578v-7.2324l1.9922-3.582c6.022 0.64836 12.073 1.1842 18.062 1.5996l5.9707 6.6387c-0.62271-2.0523-0.77856-4.1702-0.78516-6.3106 10.222 0.59408 20.182 0.83201 29.402 0.67383 47.536 0.86045 95.12 1.4842 143.12 0-0.0377 6.3071 0.07057 15.166 1.0254 18.838 0.16677 0.79512 0.71276 2.0411 2.1895 2.0547h2.0527l0.17969 1.0703c12.798 2.383 25.595 1.9399 38.393 0.53516l0.08984-1.0703c9.4508-0.58387 19.577 0.74617 27.143-5.1797l0.08984-4.9102c4.1696-0.7397 8.5821-1.1133 12.32-2.5v-1.7852l3.75-0.08984v-1.1602l4.5098-0.01562 0.06446-1.3535 12.857 0.0586 0.07617 1.3457h1.1152l0.05078-1.3398 33.031 0.15429 2.2402 6.0312 5.7559-0.5664 1.0215 7.125-17.195-4.2871-0.9375 4.9766a10.322 10.322 0 0 0-9.7637 10.303 10.322 10.322 0 0 0 10.322 10.322 10.322 10.322 0 0 0 10.26-9.2168l1.8848 0.00977a10.322 10.322 0 0 0 10.246 9.1777 10.322 10.322 0 0 0 10.238-9.0762l1.9805 0.00977a10.322 10.322 0 0 0 10.189 8.7188 10.322 10.322 0 0 0 10.322-10.324 10.322 10.322 0 0 0-10.322-10.322 10.322 10.322 0 0 0-10.135 8.3867l-2.2188 0.00781a10.322 10.322 0 0 0-2.1074-4.2949l3.8809-3.1211-11.271-7.0879-0.13867-1.9219 15.578-1.5332-1.6074-3.1856 47.037 0.2168c13.553 0.46075 26.848-1.1715 43.66-3.75l30.01-0.44336 4.9219 5.4727c-0.54712-1.8032-0.73562-3.6584-0.78125-5.5332l25.438-0.375 5.1426 5.7188c-0.57136-1.8831-0.7497-3.8233-0.7832-5.7832l19.887-0.29297c18.111-0.39955 36.868-3.0239 56.316-7.3242l56.822-11.617c49.181-10.04 97.816-20.512 142.43-32.83l0.37891-16.162 21.338-10.48c1.6177-0.74205 2.4983-2.0324 0.37891-2.0195l-22.98 0.75781c-5.9624 0.23698-11.621 1.3488-16.035 2.1465l-21.34 4.166-13.764-2.0195 56.568-143.19-38.387-0.25195zm-819.36 162.47 4.2871 0.08985-2.8574 8.168-6.0723-1.9629 4.6426-6.2949zm-2.4102 0.22266-4.2852 5.8047-4.5098-0.3125 4.0625-4.9121 4.7324-0.58008zm9.1523 0 3.8398 0.49219 0.042968 6.8301-6.4277 1.3379 2.5449-8.6602zm208.08 2.4551a1.7411 3.6161 0 0 1 1.7402 3.6172 1.7411 3.6161 0 0 1-1.7402 3.6152 1.7411 3.6161 0 0 1-1.7402-3.6152 1.7411 3.6161 0 0 1 1.7402-3.6172zm-129.5 0.20117a2.115 3.1094 0 0 1 2.1152 3.1094 2.115 3.1094 0 0 1-2.1152 3.1094 2.115 3.1094 0 0 1-2.1152-3.1094 2.115 3.1094 0 0 1 2.1152-3.1094zm443.32 0.08985a2.115 3.1094 0 0 1 2.1152 3.1094 2.115 3.1094 0 0 1-2.1152 3.1094 2.115 3.1094 0 0 1-2.1152-3.1094 2.115 3.1094 0 0 1 2.1152-3.1094zm-378.13 0.01757a2.115 3.1094 0 0 1 2.1152 3.1094 2.115 3.1094 0 0 1-2.1152 3.1094 2.115 3.1094 0 0 1-2.1133-3.1094 2.115 3.1094 0 0 1 2.1133-3.1094zm266.62 0.00196a2.115 3.1094 0 0 1 2.0156 2.1855l-4.123 0.67578a2.115 3.1094 0 0 1 2.1074-2.8613zm-315.58 0.03125a2.115 3.1094 0 0 1 2.1152 3.1094 2.115 3.1094 0 0 1-2.1152 3.1094 2.115 3.1094 0 0 1-2.1152-3.1094 2.115 3.1094 0 0 1 2.1152-3.1094zm93.938 0.02343a2.115 3.1094 0 0 1 2.1152 3.1094 2.115 3.1094 0 0 1-2.1152 3.1094 2.115 3.1094 0 0 1-2.1152-3.1094 2.115 3.1094 0 0 1 2.1152-3.1094zm398.34 0.03516a2.115 3.1094 0 0 1 2.1152 3.1094 2.115 3.1094 0 0 1-2.1152 3.1094 2.115 3.1094 0 0 1-2.1152-3.1094 2.115 3.1094 0 0 1 2.1152-3.1094zm78.34 0.00195a1.2723 3.0804 0 0 1 1.2715 3.0801 1.2723 3.0804 0 0 1-1.2715 3.0801 1.2723 3.0804 0 0 1-1.2715-3.0801 1.2723 3.0804 0 0 1 1.2715-3.0801zm-579.14 0.00391a2.115 3.1094 0 0 1 2.1152 3.1094 2.115 3.1094 0 0 1-2.1152 3.1094 2.115 3.1094 0 0 1-2.1152-3.1094 2.115 3.1094 0 0 1 2.1152-3.1094zm226.46 0a2.115 3.1094 0 0 1 2.1152 3.1094 2.115 3.1094 0 0 1-2.1152 3.1094 2.115 3.1094 0 0 1-2.1152-3.1094 2.115 3.1094 0 0 1 2.1152-3.1094zm-8.4922 0.00195a2.115 3.1094 0 0 1 2.1152 3.1094 2.115 3.1094 0 0 1-2.1152 3.1094 2.115 3.1094 0 0 1-2.1152-3.1094 2.115 3.1094 0 0 1 2.1152-3.1094zm-73.045 0.00196a2.115 3.1094 0 0 1 2.1152 3.1094 2.115 3.1094 0 0 1-2.1152 3.1094 2.115 3.1094 0 0 1-2.1133-3.1094 2.115 3.1094 0 0 1 2.1133-3.1094zm89.365 0.01171a2.115 3.1094 0 0 1 2.1152 3.1094 2.115 3.1094 0 0 1-2.1152 3.1094 2.115 3.1094 0 0 1-2.1152-3.1094 2.115 3.1094 0 0 1 2.1152-3.1094zm217.55 0.00977a2.115 3.1094 0 0 1 2.1152 3.1094 2.115 3.1094 0 0 1-2.1152 3.1094 2.115 3.1094 0 0 1-2.1152-3.1094 2.115 3.1094 0 0 1 2.1152-3.1094zm-209.06 0.00195a2.115 3.1094 0 0 1 2.1152 3.1094 2.115 3.1094 0 0 1-2.1152 3.1094 2.115 3.1094 0 0 1-2.1152-3.1094 2.115 3.1094 0 0 1 2.1152-3.1094zm49.186 0.00391a2.115 3.1094 0 0 1 2.1152 3.1094 2.115 3.1094 0 0 1-2.1152 3.1094 2.115 3.1094 0 0 1-2.1152-3.1094 2.115 3.1094 0 0 1 2.1152-3.1094zm15.973 0a2.115 3.1094 0 0 1 2.1152 3.1094 2.115 3.1094 0 0 1-0.31836 1.6348l-3.3047 0.54297a2.115 3.1094 0 0 1-0.60547-2.1777 2.115 3.1094 0 0 1 2.1133-3.1094zm119.89 0a2.115 3.1094 0 0 1 2.1152 3.1094 2.115 3.1094 0 0 1-2.1152 3.1094 2.115 3.1094 0 0 1-2.1133-3.1094 2.115 3.1094 0 0 1 2.1133-3.1094zm-354.12 0.01172a2.115 3.1094 0 0 1 2.1152 3.1094 2.115 3.1094 0 0 1-2.1152 3.1094 2.115 3.1094 0 0 1-2.1152-3.1094 2.115 3.1094 0 0 1 2.1152-3.1094zm369.61 0.04687a2.115 3.1094 0 0 1 2.1152 3.1094 2.115 3.1094 0 0 1-2.1152 3.1094 2.115 3.1094 0 0 1-2.1152-3.1094 2.115 3.1094 0 0 1 2.1152-3.1094zm-127.23 0.00391a2.115 3.1094 0 0 1 2.1152 3.1094 2.115 3.1094 0 0 1-0.00586 0.18555l-4.1387 0.67969a2.115 3.1094 0 0 1-0.08398-0.86524 2.115 3.1094 0 0 1 2.1133-3.1094zm-183.51 0.00781a2.115 3.1094 0 0 1 2.1133 3.1094 2.115 3.1094 0 0 1-2.1133 3.1094 2.115 3.1094 0 0 1-2.1152-3.1094 2.115 3.1094 0 0 1 2.1152-3.1094zm-67.393 0.00781a2.115 3.1094 0 0 1 2.1152 3.1094 2.115 3.1094 0 0 1-2.1152 3.1094 2.115 3.1094 0 0 1-2.1152-3.1094 2.115 3.1094 0 0 1 2.1152-3.1094zm144.93 0.00391a2.115 3.1094 0 0 1 2.1133 3.1094 2.115 3.1094 0 0 1-2.1133 3.1094 2.115 3.1094 0 0 1-2.1152-3.1094 2.115 3.1094 0 0 1 2.1152-3.1094zm306.91 0.02149a2.115 3.1094 0 0 1 2.1133 3.1094 2.115 3.1094 0 0 1-2.1133 3.1094 2.115 3.1094 0 0 1-2.1152-3.1094 2.115 3.1094 0 0 1 2.1152-3.1094zm-500.8 0.00585a2.115 3.1094 0 0 1 2.1152 3.1094 2.115 3.1094 0 0 1-2.1152 3.1094 2.115 3.1094 0 0 1-2.1133-3.1094 2.115 3.1094 0 0 1 2.1133-3.1094zm144.93 0.00391a2.115 3.1094 0 0 1 2.1152 3.1094 2.115 3.1094 0 0 1-2.1152 3.1094 2.115 3.1094 0 0 1-2.1152-3.1094 2.115 3.1094 0 0 1 2.1152-3.1094zm-136.19 0.00586a2.115 3.1094 0 0 1 2.1152 3.1094 2.115 3.1094 0 0 1-2.1152 3.1094 2.115 3.1094 0 0 1-2.1152-3.1094 2.115 3.1094 0 0 1 2.1152-3.1094zm23.959 0a2.115 3.1094 0 0 1 2.1152 3.1094 2.115 3.1094 0 0 1-2.1152 3.1094 2.115 3.1094 0 0 1-2.1152-3.1094 2.115 3.1094 0 0 1 2.1152-3.1094zm250.74 0.00586a2.115 3.1094 0 0 1 2.1152 3.1094 2.115 3.1094 0 0 1-2.1152 3.1094 2.115 3.1094 0 0 1-2.1152-3.1094 2.115 3.1094 0 0 1 2.1152-3.1094zm-40.725 0.01172a2.115 3.1094 0 0 1 2.1152 3.1094 2.115 3.1094 0 0 1-2.1152 3.1094 2.115 3.1094 0 0 1-2.1152-3.1094 2.115 3.1094 0 0 1 2.1152-3.1094zm249.56 0.03125a2.115 3.1094 0 0 1 2.1133 3.1094 2.115 3.1094 0 0 1-2.1133 3.1094 2.115 3.1094 0 0 1-2.1152-3.1094 2.115 3.1094 0 0 1 2.1152-3.1094zm-355.87 0.00976a2.115 3.1094 0 0 1 2.1152 3.1094 2.115 3.1094 0 0 1-2.1152 3.1094 2.115 3.1094 0 0 1-2.1152-3.1094 2.115 3.1094 0 0 1 2.1152-3.1094zm-176.6 0.00977a1.875 3.2589 0 0 1 1.875 3.2598 1.875 3.2589 0 0 1-1.875 3.2578 1.875 3.2589 0 0 1-1.875-3.2578 1.875 3.2589 0 0 1 1.875-3.2598zm299.45 0.00195a2.115 3.1094 0 0 1 2.1152 3.1094 2.115 3.1094 0 0 1-2.1152 3.1094 2.115 3.1094 0 0 1-2.1133-3.1094 2.115 3.1094 0 0 1 2.1133-3.1094zm-234.23 0.00781a2.115 3.1094 0 0 1 2.1152 3.1094 2.115 3.1094 0 0 1-2.1152 3.1094 2.115 3.1094 0 0 1-2.1152-3.1094 2.115 3.1094 0 0 1 2.1152-3.1094zm-8.2715 0.00196a2.115 3.1094 0 0 1 2.1152 3.1094 2.115 3.1094 0 0 1-2.1152 3.1094 2.115 3.1094 0 0 1-2.1152-3.1094 2.115 3.1094 0 0 1 2.1152-3.1094zm426.56 0a2.115 3.1094 0 0 1 2.1152 3.1094 2.115 3.1094 0 0 1-2.1152 3.1094 2.115 3.1094 0 0 1-2.1152-3.1094 2.115 3.1094 0 0 1 2.1152-3.1094zm32.699 0.00976a2.115 3.1094 0 0 1 2.1152 3.1094 2.115 3.1094 0 0 1-2.1152 3.1094 2.115 3.1094 0 0 1-2.1152-3.1094 2.115 3.1094 0 0 1 2.1152-3.1094zm-23.961 0.00196a2.115 3.1094 0 0 1 2.1152 3.1094 2.115 3.1094 0 0 1-2.1152 3.1094 2.115 3.1094 0 0 1-2.1133-3.1094 2.115 3.1094 0 0 1 2.1133-3.1094zm-386.87 0.00586a2.115 3.1094 0 0 1 2.1152 3.1094 2.115 3.1094 0 0 1-2.1152 3.1094 2.115 3.1094 0 0 1-2.1152-3.1094 2.115 3.1094 0 0 1 2.1152-3.1094zm185.42 0a2.115 3.1094 0 0 1 2.1152 3.1094 2.115 3.1094 0 0 1-2.1152 3.1094 2.115 3.1094 0 0 1-2.1152-3.1094 2.115 3.1094 0 0 1 2.1152-3.1094zm-176.69 0.01172a2.115 3.1094 0 0 1 2.1152 3.1094 2.115 3.1094 0 0 1-2.1152 3.1094 2.115 3.1094 0 0 1-2.1152-3.1094 2.115 3.1094 0 0 1 2.1152-3.1094zm394.42 0.05859a2.115 3.1094 0 0 1 2.1152 3.1094 2.115 3.1094 0 0 1-2.1152 3.1094 2.115 3.1094 0 0 1-2.1152-3.1094 2.115 3.1094 0 0 1 2.1152-3.1094zm-8.2695 0.00195a2.115 3.1094 0 0 1 2.1152 3.1094 2.115 3.1094 0 0 1-2.1152 3.1094 2.115 3.1094 0 0 1-2.1152-3.1094 2.115 3.1094 0 0 1 2.1152-3.1094zm48.426 0.01953a2.115 3.1094 0 0 1 2.1152 3.1094 2.115 3.1094 0 0 1-2.1152 3.1094 2.115 3.1094 0 0 1-2.1152-3.1094 2.115 3.1094 0 0 1 2.1152-3.1094zm-355.87 0.00977a2.115 3.1094 0 0 1 2.1152 3.1094 2.115 3.1094 0 0 1-2.1152 3.1094 2.115 3.1094 0 0 1-2.1152-3.1094 2.115 3.1094 0 0 1 2.1152-3.1094zm364.61 0.00195a2.115 3.1094 0 0 1 2.1152 3.1094 2.115 3.1094 0 0 1-2.1152 3.1094 2.115 3.1094 0 0 1-2.1152-3.1094 2.115 3.1094 0 0 1 2.1152-3.1094zm-331.91 0.00781a2.115 3.1094 0 0 1 2.1133 3.1094 2.115 3.1094 0 0 1-2.1133 3.1094 2.115 3.1094 0 0 1-2.1152-3.1094 2.115 3.1094 0 0 1 2.1152-3.1094zm-23.961 0.00196a2.115 3.1094 0 0 1 2.1152 3.1094 2.115 3.1094 0 0 1-2.1152 3.1094 2.115 3.1094 0 0 1-2.1152-3.1094 2.115 3.1094 0 0 1 2.1152-3.1094zm73.266 0.06054a2.115 3.1094 0 0 1 2.1152 3.1094 2.115 3.1094 0 0 1-2.1152 3.1094 2.115 3.1094 0 0 1-2.1152-3.1094 2.115 3.1094 0 0 1 2.1152-3.1094zm-56.977 0.01563a2.115 3.1094 0 0 1 2.1152 3.1094 2.115 3.1094 0 0 1-2.1152 3.1094 2.115 3.1094 0 0 1-2.1152-3.1094 2.115 3.1094 0 0 1 2.1152-3.1094zm-8.2715 0.00195a2.115 3.1094 0 0 1 2.1152 3.1094 2.115 3.1094 0 0 1-2.1152 3.1094 2.115 3.1094 0 0 1-2.1152-3.1094 2.115 3.1094 0 0 1 2.1152-3.1094zm364.08 0.05274a2.115 3.1094 0 0 1 2.1152 3.1094 2.115 3.1094 0 0 1-2.1152 3.1094 2.115 3.1094 0 0 1-2.1152-3.1094 2.115 3.1094 0 0 1 2.1152-3.1094zm-8.5234 0.06445a2.115 3.1094 0 0 1 2.1152 3.1094 2.115 3.1094 0 0 1-2.1152 3.1094 2.115 3.1094 0 0 1-2.1152-3.1094 2.115 3.1094 0 0 1 2.1152-3.1094zm16.227 0.14063a2.115 3.1094 0 0 1 2.1152 3.1094 2.115 3.1094 0 0 1-2.1152 3.1094 2.115 3.1094 0 0 1-2.1152-3.1094 2.115 3.1094 0 0 1 2.1152-3.1094zm-241.06 65.295 9.5977 5.7129-2.5703 2.877a10.322 10.322 0 0 0-6.6504-3.3926l-0.37696-5.1973zm-21.969 1.1035 16.607 4.1524 0.13868 0.96289a10.322 10.322 0 0 0-5.5059 7.043l-2.248 0.00781a10.322 10.322 0 0 0-9.0723-8.0449l0.08008-4.1211zm-331.68 0.28711 5.9668 5.1738-4.1074 3.4922a7.9234 7.9234 0 0 0-1.8359-0.82227l-0.02344-7.8438z" stroke="#000" stroke-width="1px"/>
</svg>
