<?xml version="1.0" encoding="UTF-8"?>
<svg width="250mm" height="100mm" version="1.1" viewBox="0 0 250 100" xmlns="http://www.w3.org/2000/svg">
<path transform="scale(.26458)" d="m870.18 114.69-98.928 100.4c-5.1846 4.9702-10.759 12.83-19.865 13.035l-16.027-0.05859h-44.77c0.12472-0.89843 0.30386-1.7898 0.57031-2.668l-2.3984 2.668h-22.357c0.07748-1.6299 0.2884-3.2416 0.76563-4.8145l-4.3301 4.8145h-58.969c-2.2682-1.3352-4.8314-2.4771-7.709-2.4414l-10.312 0.26758c-2.3906 0.2554-3.3851 1.1539-3.8457 2.1738h-285.51c0.06001-1.7692 0.26231-3.5188 0.7793-5.2227l-4.6973 5.2227h-128.36l-0.03516-0.94922h-1.1152l-0.05469 0.94922h-13.51c-10.431 0-93.018 4.1952-111.42 31.152-4.1178 1.1828-15.037 9.0014-15.037 14.682 0 6.7663 18.836 18.292 58.998 24.938l-1.1836 10.393 14.156 2.4336 0.25 6.6602-1.7773-0.54297-1.3984-1.8106 1.2891 2.0586 1.9023 0.74218 0.013672 0.3418-4.4668 0.06836-0.76953-1.125-0.32812 1.6465h5.5859l0.17578 4.707a6.8873 6.8873 0 0 0-5.7344 6.7891 6.8873 6.8873 0 0 0 6.8867 6.8887 6.8873 6.8873 0 0 0 6.8867-6.8887 6.8873 6.8873 0 0 0-2.6934-5.4531l4.2031-3.5195-6.4531-5.4453-0.013672-4.5059 2.1523 0.36914v-6.2871l2.5527-4.7207c4.4929 0.45826 9.186 0.85859 14.076 1.1914l5.0976 5.668c-0.53274-1.7558-0.7267-3.5604-0.77929-5.3848 9.4936 0.5554 19.699 0.86328 30.648 0.86328h175.73l0.87109 15.668c0.55239 4.648 16.225 3.8398 20.357 3.8398 15.06 0.0068 27.617-1.027 40.537-5.5352l-0.26954-5.2676 17.729-3.7383 0.07422-1.3262h10.867l0.08398 1.4648h1.1172l0.05273-1.4648h24.791l0.28515 4.082 10.014 0.11915 1.1113 9.1465-14.514-3.6172-0.78711 4.1738a8.6592 8.6592 0 0 0-8.1894 8.6426 8.6592 8.6592 0 0 0 8.6602 8.6602 8.6592 8.6592 0 0 0 8.6055-7.7344l1.582 0.00977a8.6592 8.6592 0 0 0 8.5957 7.7012 8.6592 8.6592 0 0 0 8.5879-7.6133l1.6602 0.00781a8.6592 8.6592 0 0 0 8.5488 7.3125 8.6592 8.6592 0 0 0 8.6582-8.6602 8.6592 8.6592 0 0 0-8.6582-8.6582 8.6592 8.6592 0 0 0-8.502 7.0332l-1.8613 0.00586a8.6592 8.6592 0 0 0-1.7676-3.6016l3.2558-2.6172-9.7109-6.1074-0.40625-4.0254 7.6172 0.08984c2.315-0.22639 3.0056-1.2646 2.9473-2.6777l-0.04297-1.6719h28.781l4.3144 4.7969c-0.4757-1.5678-0.68752-3.1723-0.76562-4.7969h5.8203c13.934 0.03837 27.901-0.38906 42.07-3.4102h82.545l4.0254 4.4746c-0.44418-1.4639-0.65372-2.9602-0.74414-4.4746h34.484c28.637 0.18693 56.748-6.0556 84.854-12.373 47.779-10.91 96.049-19.365 143.23-33.26l0.08789-13.572 20.805-10.713h-10.537c-8.6445-0.12639-16.848 0.95631-24.82 2.6777l-17.59 3.4824-12.143-1.7852 48.75-123.97h-32.947zm-819.4 139.27 3.8867 0.08008-2.5918 7.4082-5.5039-1.7812 4.209-5.707zm-2.1855 0.20118-3.8867 5.2637-4.0879-0.28321 3.6836-4.4531 4.291-0.52734zm8.2969 0 3.4824 0.44531 0.039062 6.1934-5.8281 1.2148 2.3066-7.8535zm537.52 2.4922a1.6707 2.4561 0 0 1 1.6719 2.457 1.6707 2.4561 0 0 1-1.6719 2.4551 1.6707 2.4561 0 0 1-1.6699-2.4551 1.6707 2.4561 0 0 1 1.6699-2.457zm51.49 0.08594a1.6707 2.4561 0 0 1 1.6719 2.457 1.6707 2.4561 0 0 1-1.6719 2.4551 1.6707 2.4561 0 0 1-1.6699-2.4551 1.6707 2.4561 0 0 1 1.6699-2.457zm-38.672 0.02539a1.6707 2.4561 0 0 1 1.6699 2.457 1.6707 2.4561 0 0 1-1.6699 2.4551 1.6707 2.4561 0 0 1-1.6719-2.4551 1.6707 2.4561 0 0 1 1.6719-2.457zm-6.7324 0.05078a1.6707 2.4561 0 0 1 1.6699 2.457 1.6707 2.4561 0 0 1-1.6699 2.4551 1.6707 2.4561 0 0 1-1.6719-2.4551 1.6707 2.4561 0 0 1 1.6719-2.457zm58.221 0.03516a1.6707 2.4561 0 0 1 1.6719 2.457 1.6707 2.4561 0 0 1-1.6719 2.4551 1.6707 2.4561 0 0 1-1.6699-2.4551 1.6707 2.4561 0 0 1 1.6699-2.457zm-235.73 0.04101a1.2898 2.5797 0 0 1 1.2891 2.5781 1.2898 2.5797 0 0 1-1.2891 2.5801 1.2898 2.5797 0 0 1-1.291-2.5801 1.2898 2.5797 0 0 1 1.291-2.5781zm228.99 0.00977a1.6707 2.4561 0 0 1 1.6719 2.457 1.6707 2.4561 0 0 1-1.6719 2.4551 1.6707 2.4561 0 0 1-1.6699-2.4551 1.6707 2.4561 0 0 1 1.6699-2.457zm-38.672 0.02539a1.6707 2.4561 0 0 1 1.6699 2.457 1.6707 2.4561 0 0 1-1.6699 2.4551 1.6707 2.4561 0 0 1-1.6719-2.4551 1.6707 2.4561 0 0 1 1.6719-2.457zm25.828 0.00781a1.6707 2.4561 0 0 1 1.6719 2.457 1.6707 2.4561 0 0 1-1.6719 2.4551 1.6707 2.4561 0 0 1-1.6699-2.4551 1.6707 2.4561 0 0 1 1.6699-2.457zm-18.926 0.00196a1.6707 2.4561 0 0 1 1.6719 2.4551 1.6707 2.4561 0 0 1-1.6719 2.457 1.6707 2.4561 0 0 1-1.6699-2.457 1.6707 2.4561 0 0 1 1.6699-2.4551zm12.867 0.06054a1.6707 2.4561 0 0 1 1.6719 2.457 1.6707 2.4561 0 0 1-1.6719 2.4551 1.6707 2.4561 0 0 1-1.6699-2.4551 1.6707 2.4561 0 0 1 1.6699-2.457zm-6.5332 0.00196a1.6707 2.4561 0 0 1 1.6699 2.4551 1.6707 2.4561 0 0 1-1.6699 2.457 1.6707 2.4561 0 0 1-1.6699-2.457 1.6707 2.4561 0 0 1 1.6699-2.4551zm38.254 0.01367a1.6707 2.4561 0 0 1 1.6699 2.457 1.6707 2.4561 0 0 1-1.6699 2.4551 1.6707 2.4561 0 0 1-1.6719-2.4551 1.6707 2.4561 0 0 1 1.6719-2.457zm6.9023 0.00976a1.6707 2.4561 0 0 1 1.6699 2.4551 1.6707 2.4561 0 0 1-1.6699 2.457 1.6707 2.4561 0 0 1-1.6699-2.457 1.6707 2.4561 0 0 1 1.6699-2.4551zm-429.27 0.01368a1.6707 2.4561 0 0 1 1.6699 2.457 1.6707 2.4561 0 0 1-1.6699 2.4551 1.6707 2.4561 0 0 1-1.6719-2.4551 1.6707 2.4561 0 0 1 1.6719-2.457zm-132.52 0.01562a1.5152 3.0305 0 0 1 1.5137 3.0293 1.5152 3.0305 0 0 1-1.5137 3.0312 1.5152 3.0305 0 0 1-1.5156-3.0312 1.5152 3.0305 0 0 1 1.5156-3.0293zm575.07 0.01758a1.6707 2.4561 0 0 1 1.6699 2.457 1.6707 2.4561 0 0 1-1.6699 2.4551 1.6707 2.4561 0 0 1-1.6719-2.4551 1.6707 2.4561 0 0 1 1.6719-2.457zm-391.06 0.05273a1.6707 2.4561 0 0 1 1.6719 2.457 1.6707 2.4561 0 0 1-1.6719 2.4551 1.6707 2.4561 0 0 1-1.6699-2.4551 1.6707 2.4561 0 0 1 1.6699-2.457zm397.18 0a1.6707 2.4561 0 0 1 1.6699 2.457 1.6707 2.4561 0 0 1-1.6699 2.4551 1.6707 2.4561 0 0 1-1.6699-2.4551 1.6707 2.4561 0 0 1 1.6699-2.457zm-12.959 0.00196a1.6707 2.4561 0 0 1 1.6699 2.4551 1.6707 2.4561 0 0 1-1.6699 2.457 1.6707 2.4561 0 0 1-1.6719-2.457 1.6707 2.4561 0 0 1 1.6719-2.4551zm-422.9 0.02343a1.6707 2.4561 0 0 1 1.6699 2.4551 1.6707 2.4561 0 0 1-1.6699 2.457 1.6707 2.4561 0 0 1-1.6699-2.457 1.6707 2.4561 0 0 1 1.6699-2.4551zm-23.867 0.00782a1.5152 3.0305 0 0 1 1.5137 3.0312 1.5152 3.0305 0 0 1-1.5137 3.0293 1.5152 3.0305 0 0 1-1.5156-3.0293 1.5152 3.0305 0 0 1 1.5156-3.0312zm17.135 0.04297a1.6707 2.4561 0 0 1 1.6699 2.457 1.6707 2.4561 0 0 1-1.6699 2.4551 1.6707 2.4561 0 0 1-1.6719-2.4551 1.6707 2.4561 0 0 1 1.6719-2.457zm58.223 0.03515a1.6707 2.4561 0 0 1 1.6699 2.457 1.6707 2.4561 0 0 1-1.6699 2.4551 1.6707 2.4561 0 0 1-1.6719-2.4551 1.6707 2.4561 0 0 1 1.6719-2.457zm397.18 0a1.6707 2.4561 0 0 1 1.6719 2.4551 1.6707 2.4561 0 0 1-1.6719 2.457 1.6707 2.4561 0 0 1-1.6699-2.457 1.6707 2.4561 0 0 1 1.6699-2.4551zm-403.91 0.05078a1.6707 2.4561 0 0 1 1.6699 2.457 1.6707 2.4561 0 0 1-1.6699 2.4551 1.6707 2.4561 0 0 1-1.6719-2.4551 1.6707 2.4561 0 0 1 1.6719-2.457zm397.18 0a1.6707 2.4561 0 0 1 1.6719 2.457 1.6707 2.4561 0 0 1-1.6719 2.4551 1.6707 2.4561 0 0 1-1.6699-2.4551 1.6707 2.4561 0 0 1 1.6699-2.457zm-435.86 0.02539a1.6707 2.4561 0 0 1 1.6699 2.4551 1.6707 2.4561 0 0 1-1.6699 2.457 1.6707 2.4561 0 0 1-1.6699-2.457 1.6707 2.4561 0 0 1 1.6699-2.4551zm25.83 0.00782a1.6707 2.4561 0 0 1 1.6699 2.4551 1.6707 2.4561 0 0 1-1.6699 2.457 1.6707 2.4561 0 0 1-1.6719-2.457 1.6707 2.4561 0 0 1 1.6719-2.4551zm-18.926 0.00195a1.6707 2.4561 0 0 1 1.6699 2.4551 1.6707 2.4561 0 0 1-1.6699 2.457 1.6707 2.4561 0 0 1-1.6719-2.457 1.6707 2.4561 0 0 1 1.6719-2.4551zm289.17 0.05273a1.6707 2.4561 0 0 1 1.6719 2.457 1.6707 2.4561 0 0 1-1.6719 2.4551 1.6707 2.4561 0 0 1-1.6699-2.4551 1.6707 2.4561 0 0 1 1.6699-2.457zm-282.84 0.00782a1.6707 2.4561 0 0 1 1.6719 2.457 1.6707 2.4561 0 0 1-1.6719 2.457 1.6707 2.4561 0 0 1-1.6699-2.457 1.6707 2.4561 0 0 1 1.6699-2.457zm6.5332 0a1.6707 2.4561 0 0 1 1.6719 2.4551 1.6707 2.4561 0 0 1-1.6719 2.457 1.6707 2.4561 0 0 1-1.6699-2.457 1.6707 2.4561 0 0 1 1.6699-2.4551zm31.721 0.01562a1.6707 2.4561 0 0 1 1.6699 2.457 1.6707 2.4561 0 0 1-1.6699 2.4551 1.6707 2.4561 0 0 1-1.6719-2.4551 1.6707 2.4561 0 0 1 1.6719-2.457zm397.18 0a1.6707 2.4561 0 0 1 1.6699 2.4551 1.6707 2.4561 0 0 1-1.6699 2.457 1.6707 2.4561 0 0 1-1.6719-2.457 1.6707 2.4561 0 0 1 1.6719-2.4551zm6.9023 0.00781a1.6707 2.4561 0 0 1 1.6699 2.457 1.6707 2.4561 0 0 1-1.6699 2.457 1.6707 2.4561 0 0 1-1.6699-2.457 1.6707 2.4561 0 0 1 1.6699-2.457zm-397.18 0.00196a1.6707 2.4561 0 0 1 1.6719 2.4551 1.6707 2.4561 0 0 1-1.6719 2.457 1.6707 2.4561 0 0 1-1.6699-2.457 1.6707 2.4561 0 0 1 1.6699-2.4551zm13.287 0.04687a1.6707 2.4561 0 0 1 1.6699 2.457 1.6707 2.4561 0 0 1-1.6699 2.4551 1.6707 2.4561 0 0 1-1.6699-2.4551 1.6707 2.4561 0 0 1 1.6699-2.457zm230.47 0.00977a1.6707 2.4561 0 0 1 1.6699 2.457 1.6707 2.4561 0 0 1-1.6699 2.4551 1.6707 2.4561 0 0 1-1.6719-2.4551 1.6707 2.4561 0 0 1 1.6719-2.457zm159.76 0.0039a1.6707 2.4561 0 0 1 1.6699 2.457 1.6707 2.4561 0 0 1-1.6699 2.4551 1.6707 2.4561 0 0 1-1.6719-2.4551 1.6707 2.4561 0 0 1 1.6719-2.457zm19.973 0.02735a1.5152 3.0305 0 0 1 1.5156 3.0312 1.5152 3.0305 0 0 1-1.5156 3.0293 1.5152 3.0305 0 0 1-1.5137-3.0293 1.5152 3.0305 0 0 1 1.5137-3.0312zm-404.08 0.01172a1.6707 2.4561 0 0 1 1.6719 2.4551 1.6707 2.4561 0 0 1-1.6719 2.457 1.6707 2.4561 0 0 1-1.6699-2.457 1.6707 2.4561 0 0 1 1.6699-2.4551zm-12.959 0.00195a1.6707 2.4561 0 0 1 1.6699 2.4551 1.6707 2.4561 0 0 1-1.6699 2.457 1.6707 2.4561 0 0 1-1.6719-2.457 1.6707 2.4561 0 0 1 1.6719-2.4551zm64.449 0.08398a1.6707 2.4561 0 0 1 1.6699 2.457 1.6707 2.4561 0 0 1-1.6699 2.4551 1.6707 2.4561 0 0 1-1.6699-2.4551 1.6707 2.4561 0 0 1 1.6699-2.457zm44.154 0.02149a1.6707 2.4561 0 0 1 1.6719 2.4551 1.6707 2.4561 0 0 1-1.6719 2.457 1.6707 2.4561 0 0 1-1.6699-2.457 1.6707 2.4561 0 0 1 1.6699-2.4551zm-82.826 0.0039a1.6707 2.4561 0 0 1 1.6699 2.4551 1.6707 2.4561 0 0 1-1.6699 2.457 1.6707 2.4561 0 0 1-1.6719-2.457 1.6707 2.4561 0 0 1 1.6719-2.4551zm89.73 0.00391a1.6707 2.4561 0 0 1 1.6699 2.457 1.6707 2.4561 0 0 1-1.6699 2.4551 1.6707 2.4561 0 0 1-1.6719-2.4551 1.6707 2.4561 0 0 1 1.6719-2.457zm-96.465 0.04688a1.6707 2.4561 0 0 1 1.6719 2.4551 1.6707 2.4561 0 0 1-1.6719 2.457 1.6707 2.4561 0 0 1-1.6699-2.457 1.6707 2.4561 0 0 1 1.6699-2.4551zm109.75 0a1.6707 2.4561 0 0 1 1.6699 2.457 1.6707 2.4561 0 0 1-0.15234 1.0195l-2.8398 0.48242a1.6707 2.4561 0 0 1-0.34961-1.502 1.6707 2.4561 0 0 1 1.6719-2.457zm128.15 0.02343a1.5152 3.0305 0 0 1 1.5156 3.0312 1.5152 3.0305 0 0 1-1.5156 3.0312 1.5152 3.0305 0 0 1-1.5156-3.0312 1.5152 3.0305 0 0 1 1.5156-3.0312zm-179.68 0.01172a1.6707 2.4561 0 0 1 1.6719 2.4551 1.6707 2.4561 0 0 1-1.6719 2.457 1.6707 2.4561 0 0 1-1.6699-2.457 1.6707 2.4561 0 0 1 1.6699-2.4551zm-281.52 0.01758a1.6707 2.4561 0 0 1 1.6719 2.457 1.6707 2.4561 0 0 1-1.6719 2.4551 1.6707 2.4561 0 0 1-1.6699-2.4551 1.6707 2.4561 0 0 1 1.6699-2.457zm326.21 0.00195a1.6707 2.4561 0 0 1 1.6719 2.457 1.6707 2.4561 0 0 1-1.0566 2.2832l-0.85156 0.14453a1.6707 2.4561 0 0 1-1.4336-2.4277 1.6707 2.4561 0 0 1 1.6699-2.457zm18.752 0.0293a1.6707 2.4561 0 0 1 1.4961 1.3691l-3.123 0.53125a1.6707 2.4561 0 0 1 1.627-1.9004zm-70.172 0.00195a1.6707 2.4561 0 0 1 1.6719 2.457 1.6707 2.4561 0 0 1-1.6719 2.4551 1.6707 2.4561 0 0 1-1.6699-2.4551 1.6707 2.4561 0 0 1 1.6699-2.457zm-38.672 0.02539a1.6707 2.4561 0 0 1 1.6699 2.4551 1.6707 2.4561 0 0 1-1.6699 2.457 1.6707 2.4561 0 0 1-1.6719-2.457 1.6707 2.4561 0 0 1 1.6719-2.4551zm6.9023 0.00782a1.6707 2.4561 0 0 1 1.6719 2.457 1.6707 2.4561 0 0 1-1.6719 2.4551 1.6707 2.4561 0 0 1-1.6699-2.4551 1.6707 2.4561 0 0 1 1.6699-2.457zm18.926 0a1.6707 2.4561 0 0 1 1.6719 2.4551 1.6707 2.4561 0 0 1-1.6719 2.457 1.6707 2.4561 0 0 1-1.6699-2.457 1.6707 2.4561 0 0 1 1.6699-2.4551zm-210.45 0.01953a1.6707 2.4561 0 0 1 1.6719 2.457 1.6707 2.4561 0 0 1-1.6719 2.457 1.6707 2.4561 0 0 1-1.6699-2.457 1.6707 2.4561 0 0 1 1.6699-2.457zm287.66 0.00976a1.6707 2.4561 0 0 1 1.6641 2.2637l-3.3144 0.56446a1.6707 2.4561 0 0 1-0.02149-0.37305 1.6707 2.4561 0 0 1 1.6719-2.4551zm-326.33 0.01563a1.6707 2.4561 0 0 1 1.6699 2.457 1.6707 2.4561 0 0 1-1.6699 2.4551 1.6707 2.4561 0 0 1-1.6719-2.4551 1.6707 2.4561 0 0 1 1.6719-2.457zm236.53 0.01758a1.6707 2.4561 0 0 1 1.6699 2.457 1.6707 2.4561 0 0 1-1.6699 2.4551 1.6707 2.4561 0 0 1-1.6699-2.4551 1.6707 2.4561 0 0 1 1.6699-2.457zm6.5332 0a1.6707 2.4561 0 0 1 1.6699 2.4551 1.6707 2.4561 0 0 1-1.6699 2.457 1.6707 2.4561 0 0 1-1.6699-2.457 1.6707 2.4561 0 0 1 1.6699-2.4551zm-249.8 0.0332a1.6707 2.4561 0 0 1 1.6699 2.457 1.6707 2.4561 0 0 1-1.6699 2.4551 1.6707 2.4561 0 0 1-1.6719-2.4551 1.6707 2.4561 0 0 1 1.6719-2.457zm58.221 0.03516a1.6707 2.4561 0 0 1 1.6719 2.457 1.6707 2.4561 0 0 1-1.6719 2.4551 1.6707 2.4561 0 0 1-1.6699-2.4551 1.6707 2.4561 0 0 1 1.6699-2.457zm-6.7324 0.05078a1.6707 2.4561 0 0 1 1.6719 2.457 1.6707 2.4561 0 0 1-1.6719 2.457 1.6707 2.4561 0 0 1-1.6699-2.457 1.6707 2.4561 0 0 1 1.6699-2.457zm-38.672 0.02539a1.6707 2.4561 0 0 1 1.6699 2.457 1.6707 2.4561 0 0 1-1.6699 2.4551 1.6707 2.4561 0 0 1-1.6719-2.4551 1.6707 2.4561 0 0 1 1.6719-2.457zm25.828 0.00781a1.6707 2.4561 0 0 1 1.6719 2.457 1.6707 2.4561 0 0 1-1.6719 2.4551 1.6707 2.4561 0 0 1-1.6699-2.4551 1.6707 2.4561 0 0 1 1.6699-2.457zm-18.926 0.00195a1.6707 2.4561 0 0 1 1.6719 2.4551 1.6707 2.4561 0 0 1-1.6719 2.457 1.6707 2.4561 0 0 1-1.6699-2.457 1.6707 2.4561 0 0 1 1.6699-2.4551zm12.867 0.06055a1.6707 2.4561 0 0 1 1.6699 2.457 1.6707 2.4561 0 0 1-1.6699 2.4551 1.6707 2.4561 0 0 1-1.6699-2.4551 1.6707 2.4561 0 0 1 1.6699-2.457zm-6.5332 0.00195a1.6707 2.4561 0 0 1 1.6699 2.4551 1.6707 2.4561 0 0 1-1.6699 2.457 1.6707 2.4561 0 0 1-1.6699-2.457 1.6707 2.4561 0 0 1 1.6699-2.4551zm38.254 0.01367a1.6707 2.4561 0 0 1 1.6699 2.457 1.6707 2.4561 0 0 1-1.6699 2.4551 1.6707 2.4561 0 0 1-1.6719-2.4551 1.6707 2.4561 0 0 1 1.6719-2.457zm6.9024 0.00977a1.6707 2.4561 0 0 1 1.6699 2.4551 1.6707 2.4561 0 0 1-1.6699 2.457 1.6707 2.4561 0 0 1-1.6699-2.457 1.6707 2.4561 0 0 1 1.6699-2.4551zm13.287 0.04688a1.6707 2.4561 0 0 1 1.6699 2.457 1.6707 2.4561 0 0 1-1.6699 2.4551 1.6707 2.4561 0 0 1-1.6719-2.4551 1.6707 2.4561 0 0 1 1.6719-2.457zm-6.8398 0.05468a1.6707 2.4561 0 0 1 1.6699 2.4551 1.6707 2.4561 0 0 1-1.6699 2.457 1.6707 2.4561 0 0 1-1.6719-2.457 1.6707 2.4561 0 0 1 1.6719-2.4551zm254.29 58.846 8.2734 4.9238-2.1562 2.4141a8.6592 8.6592 0 0 0-5.666-2.8477l-0.45117-4.4902zm-361.36 0.75586 5.1875 4.4961-3.5684 3.0371a6.8873 6.8873 0 0 0-1.5996-0.71484l-0.019531-6.8184zm343.16 0.30273 14.006 3.502 0.09375 0.76758a8.6592 8.6592 0 0 0-4.6719 5.9277l-1.8848 0.00781a8.6592 8.6592 0 0 0-7.6094-6.748l0.06641-3.457z" stroke="#000" stroke-width="1px"/>
</svg>
