<?xml version="1.0" encoding="UTF-8"?>
<svg width="250mm" height="100mm" version="1.1" viewBox="0 0 250 100" xmlns="http://www.w3.org/2000/svg">
<g>
<path d="m240.45 22.295c-3.3808 0.0445-9.2058 0.0157-10.769 1.7948l-30.593 29.59c-1.4616 1.4354-5.619 3.7837-7.907 3.7837-1.4002 0-2.4407 0.01592-3.9938 0.03251l-9.021 0.01601 0.12006-0.34215-0.55825-0.32364-0.54724 0.66779-6.1342 0.011c0.0214-0.40393 0.0752-0.80294 0.19359-1.193l-1.074 1.1945-0.78034 0.0015c1.9986-4.1608 4.6177-6.1044 3.8712-5.9326-1.2138 0.14649-5.8172 2.2851-9.4316 5.9426l-2.8132 5e-3c-0.54792-0.30782-1.1608-0.55769-1.8423-0.54924l-2.6412 0.06853c-0.56017 0.05985-0.82223 0.2571-0.95341 0.49022l-82.945 0.14856c9e-3 -0.49923 0.05503-0.99293 0.20059-1.4726l-1.3261 1.4746-26.123 0.04652-0.0115-0.31264h-0.28613l-0.01801 0.31314-2.1189 4e-3 -0.01251-0.33965h-0.28562l-0.01951 0.34015h-0.06303c-0.34359-0.0055-0.91488 0.0057-1.5847 0.02751l-0.01451-0.38617h-0.28613l-0.02251 0.39668c-6.7906 0.25658-26.317 2.0115-31.724 9.211-1.4795 0.71282-4.2362 2.436-4.3334 4.0098-0.062182 3.2751 7.6475 5.9029 17.016 7.4548l-0.30964 2.7182 4.0178 0.6903 0.07103 1.8908-0.50422-0.15407-0.39717-0.51373 0.36616 0.58376 0.53974 0.21109 4e-3 0.09654-1.2681 0.01951-0.2181-0.31914-0.09354 0.4672h1.5857l0.05002 1.3361a1.9547 1.9547 0 0 0-1.6277 1.9268 1.9547 1.9547 0 0 0 1.9544 1.9549 1.9547 1.9547 0 0 0 1.9549-1.9549 1.9547 1.9547 0 0 0-0.76433-1.5477l1.1925-0.99894-1.8308-1.5452-4e-3 -1.2796 0.61077 0.10504v-1.7838l0.60427-1.088c1.5411 0.1717 3.0907 0.31436 4.628 0.42669l1.3266 1.4751c-0.13838-0.45605-0.18755-0.92458-0.20009-1.3986 2.8437 0.18088 5.6212 0.25743 8.1761 0.2136 12.175 0.22037 27.014 0.38012 39.308 0-0.0097 1.6153 0.01757 3.8843 0.26212 4.8246 0.2365 0.6717 0.38331 0.74001 1.1095 0.93741 3.0053 0.59364 17.504 1.6294 22.176-1.4401 0.87791-0.57678-1.26-0.50272-1.26-0.50272l0.0685-1.3176c-3e-3 0.01531 2.5888-0.12614 3.3054-1.4121l1.6472 0.012 0.02 0.34765h0.28562l0.013-0.34565 8.2361 0.05952 0.43119 1.1615 1.4742-0.14506 0.26161 1.8248-4.4039-1.098-0.2401 1.2746a2.6437 2.6437 0 0 0-2.5006 2.6387 2.6437 2.6437 0 0 0 2.6437 2.6437 2.6437 2.6437 0 0 0 2.6276-2.3605l0.48271 0.0025a2.6437 2.6437 0 0 0 2.6242 2.3505 2.6437 2.6437 0 0 0 2.6222-2.324l0.50723 0.0025a2.6437 2.6437 0 0 0 2.6096 2.2325 2.6437 2.6437 0 0 0 2.6437-2.6437 2.6437 2.6437 0 0 0-2.6437-2.6442 2.6437 2.6437 0 0 0-2.5956 2.1479l-0.56825 2e-3a2.6437 2.6437 0 0 0-0.53923-1.1l0.99343-0.79935-2.8863-1.8153-0.0355-0.49222 3.9892-0.39267-0.20859-0.41368 7.8194 0.05602 0.9194 1.0224c-0.10109-0.33316-0.15529-0.67324-0.18258-1.0169l0.49772 0.0035c3.471 0.118 6.8761-0.30003 11.182-0.96042l17.147-0.11205 0.80385 0.89389c-0.0894-0.29478-0.14153-0.59463-0.17158-0.89789l10.936-0.07153c4.6384-0.10233 9.4424-0.77396 14.423-1.8753l14.552-2.9753c12.596-2.5714 25.052-5.2533 36.478-8.4082l0.097-4.1393 5.4654-2.6842c0.41432-0.19005 0.63985-0.52102 0.097-0.51773l-5.8856 0.19409c-1.527 0.06069-2.9769 0.34543-4.1073 0.54974l-5.4654 1.0675-3.525-0.51773zm-227.86 43.276 1.098 0.02301-0.73182 2.0919-1.5552-0.50272zm-0.61727 0.05703-1.0975 1.4867-1.155-0.08004 1.0405-1.2581zm2.344 0 0.98343 0.12606 0.01101 1.7493-1.6462 0.34265zm145.4 0.43269a0.49059 0.72124 0 0 1 0.49072 0.72082 0.49059 0.72124 0 0 1-0.49072 0.72131 0.49059 0.72124 0 0 1-0.49021-0.72131 0.49059 0.72124 0 0 1 0.49021-0.72082zm-129.67 5e-3a0.49317 0.79797 0 0 1 0.49322 0.79785 0.49317 0.79797 0 0 1-0.49322 0.79785 0.49317 0.79797 0 0 1-0.49322-0.79785 0.49317 0.79797 0 0 1 0.49322-0.79785zm126.06 2e-3a0.49059 0.72124 0 0 1 0.49071 0.72082 0.49059 0.72124 0 0 1-0.49071 0.72132 0.49059 0.72124 0 0 1-0.49022-0.72132 0.49059 0.72124 0 0 1 0.49022-0.72082zm-122.81 0.0065a0.50074 0.73616 0 0 1 0.50072 0.73632 0.50074 0.73616 0 0 1-0.50072 0.73582 0.50074 0.73616 0 0 1-0.50072-0.73582 0.50074 0.73616 0 0 1 0.50072-0.73632zm141.55 0.0115a0.49059 0.72124 0 0 1 0.49072 0.72132 0.49059 0.72124 0 0 1-0.49072 0.72132 0.49059 0.72124 0 0 1-0.49071-0.72132 0.49059 0.72124 0 0 1 0.49071-0.72132zm-11.356 0.0075a0.49059 0.72124 0 0 1 0.49072 0.72132 0.49059 0.72124 0 0 1-0.49072 0.72082 0.49059 0.72124 0 0 1-0.49021-0.72082 0.49059 0.72124 0 0 1 0.49021-0.72132zm-5.5689 9.99e-4a0.49059 0.72124 0 0 1 0.49071 0.72132 0.49059 0.72124 0 0 1-0.49071 0.72132 0.49059 0.72124 0 0 1-0.49072-0.72132 0.49059 0.72124 0 0 1 0.49072-0.72132zm35.265 0.0025a0.29156 0.76033 0 0 1 0.29112 0.76033 0.29156 0.76033 0 0 1-0.29112 0.76033 0.29156 0.76033 0 0 1-0.29163-0.76033 0.29156 0.76033 0 0 1 0.29163-0.76033zm-38.88 0.0045a0.49059 0.72124 0 0 1 0.49071 0.72132 0.49059 0.72124 0 0 1-0.49071 0.72132 0.49059 0.72124 0 0 1-0.49072-0.72132 0.49059 0.72124 0 0 1 0.49072-0.72132zm-117.16 6e-3a0.50074 0.73616 0 0 1 0.50072 0.73632 0.50074 0.73616 0 0 1-0.50072 0.73632 0.50074 0.73616 0 0 1-0.50072-0.73632 0.50074 0.73616 0 0 1 0.50072-0.73632zm124.37 9.98e-4a0.49059 0.72124 0 0 1 0.49072 0.72132 0.49059 0.72124 0 0 1-0.49072 0.72082 0.49059 0.72124 0 0 1-0.49071-0.72082 0.49059 0.72124 0 0 1 0.49071-0.72132zm17.097 0.01a0.49059 0.72124 0 0 1 0.49072 0.72132 0.49059 0.72124 0 0 1-0.49072 0.72132 0.49059 0.72124 0 0 1-0.49071-0.72132 0.49059 0.72124 0 0 1 0.49071-0.72132zm-104.95 4e-3a0.37998 0.75188 0 0 1 0.38017 0.75186 0.37998 0.75188 0 0 1-0.38017 0.75183 0.37998 0.75188 0 0 1-0.38017-0.75183 0.37998 0.75188 0 0 1 0.38017-0.75183zm-38.538 5e-4a0.50074 0.73616 0 0 1 0.50072 0.73632 0.50074 0.73616 0 0 1-0.50072 0.73582 0.50074 0.73616 0 0 1-0.50072-0.73582 0.50074 0.73616 0 0 1 0.50072-0.73632zm141.51 0.0105a0.49059 0.72124 0 0 1 0.49071 0.72132 0.49059 0.72124 0 0 1-0.49071 0.72132 0.49059 0.72124 0 0 1-0.49022-0.72132 0.49059 0.72124 0 0 1 0.49022-0.72132zm-52.82 3e-3a0.54168 0.79635 0 0 1 0.51623 0.55974l-1.056 0.17308a0.54168 0.79635 0 0 1 0.53974-0.73282zm41.464 0.0045a0.49059 0.72124 0 0 1 0.49071 0.72132 0.49059 0.72124 0 0 1-0.49071 0.72132 0.49059 0.72124 0 0 1-0.49072-0.72132 0.49059 0.72124 0 0 1 0.49072-0.72132zm7.5848 2e-3a0.49059 0.72124 0 0 1 0.49072 0.72131 0.49059 0.72124 0 0 1-0.49072 0.72132 0.49059 0.72124 0 0 1-0.49071-0.72132 0.49059 0.72124 0 0 1 0.49071-0.72131zm-5.5574 4.99e-4a0.49059 0.72124 0 0 1 0.49022 0.72132 0.49059 0.72124 0 0 1-0.49022 0.72132 0.49059 0.72124 0 0 1-0.49071-0.72132 0.49059 0.72124 0 0 1 0.49071-0.72132zm-118.89 0.0025a0.50074 0.73616 0 0 1 0.50122 0.73632 0.50074 0.73616 0 0 1-0.50122 0.73582 0.50074 0.73616 0 0 1-0.50072-0.73582 0.50074 0.73616 0 0 1 0.50072-0.73632zm-9.4471 0.0105a0.50074 0.73616 0 0 1 0.50072 0.73582 0.50074 0.73616 0 0 1-0.50072 0.73632 0.50074 0.73616 0 0 1-0.50072-0.73632 0.50074 0.73616 0 0 1 0.50072-0.73582zm2.0689 0.0025a0.50074 0.73616 0 0 1 0.50072 0.73632 0.50074 0.73616 0 0 1-0.50072 0.73582 0.50074 0.73616 0 0 1-0.50072-0.73582 0.50074 0.73616 0 0 1 0.50072-0.73632zm16.747 0a0.50074 0.73616 0 0 1 0.50072 0.73632 0.50074 0.73616 0 0 1-0.50072 0.73632 0.50074 0.73616 0 0 1-0.50072-0.73632 0.50074 0.73616 0 0 1 0.50072-0.73632zm113.3 0.0025a0.49059 0.72124 0 0 1 0.49072 0.72132 0.49059 0.72124 0 0 1-0.49072 0.72131 0.49059 0.72124 0 0 1-0.49071-0.72131 0.49059 0.72124 0 0 1 0.49071-0.72132zm-1.9183 5.02e-4a0.49059 0.72124 0 0 1 0.49022 0.72132 0.49059 0.72124 0 0 1-0.49022 0.72082 0.49059 0.72124 0 0 1-0.49072-0.72082 0.49059 0.72124 0 0 1 0.49072-0.72132zm11.232 4e-3a0.49059 0.72124 0 0 1 0.49071 0.72132 0.49059 0.72124 0 0 1-0.49071 0.72132 0.49059 0.72124 0 0 1-0.49022-0.72132 0.49059 0.72124 0 0 1 0.49022-0.72132zm-60.723 3e-3a0.54168 0.79635 0 0 1 0.54174 0.79635 0.54168 0.79635 0 0 1-0.0815 0.41868l-0.84637 0.13906a0.54168 0.79635 0 0 1-0.15506-0.55775 0.54168 0.79635 0 0 1 0.54123-0.79635zm62.751 0a0.49059 0.72124 0 0 1 0.49071 0.72132 0.49059 0.72124 0 0 1-0.49071 0.72082 0.49059 0.72124 0 0 1-0.49072-0.72082 0.49059 0.72124 0 0 1 0.49072-0.72132zm-105.44 0.0025a0.54168 0.79635 0 0 1 0.54174 0.79635 0.54168 0.79635 0 0 1-0.54174 0.79635 0.54168 0.79635 0 0 1-0.54174-0.79635 0.54168 0.79635 0 0 1 0.54174-0.79635zm-34.053 6e-3a0.50074 0.73616 0 0 1 0.50072 0.73632 0.50074 0.73616 0 0 1-0.50072 0.73632 0.50074 0.73616 0 0 1-0.50072-0.73632 0.50074 0.73616 0 0 1 0.50072-0.73632zm1.9584 0a0.50074 0.73616 0 0 1 0.50072 0.73582 0.50074 0.73616 0 0 1-0.50072 0.73632 0.50074 0.73616 0 0 1-0.50072-0.73632 0.50074 0.73616 0 0 1 0.50072-0.73582zm7.3632 2e-3a0.50074 0.73616 0 0 1 0.50072 0.73582 0.50074 0.73616 0 0 1-0.50072 0.73632 0.50074 0.73616 0 0 1-0.50072-0.73632 0.50074 0.73616 0 0 1 0.50072-0.73582zm40.138 2e-3a0.51844 0.76219 0 0 1 0.51873 0.76233 0.51844 0.76219 0 0 1-0.51873 0.76233 0.51844 0.76219 0 0 1-0.51823-0.76233 0.51844 0.76219 0 0 1 0.51823-0.76233zm3.4185 0.0035a0.51844 0.76219 0 0 1 0.51873 0.76233 0.51844 0.76219 0 0 1-0.51873 0.76233 0.51844 0.76219 0 0 1-0.51822-0.76233 0.51844 0.76219 0 0 1 0.51822-0.76233zm25.948 0h5e-4a0.54168 0.79635 0 0 1 0.54174 0.79635 0.54168 0.79635 0 0 1-2e-3 0.04752l-1.06 0.17408a0.54168 0.79635 0 0 1-0.0215-0.2216 0.54168 0.79635 0 0 1 0.54124-0.79635zm-23.868 3e-3a0.51844 0.76219 0 0 1 0.51823 0.76233 0.51844 0.76219 0 0 1-0.51823 0.76183 0.51844 0.76219 0 0 1-0.51823-0.76183 0.51844 0.76219 0 0 1 0.51823-0.76233zm-38.286 9.99e-4a0.50074 0.73616 0 0 1 0.50072 0.73632 0.50074 0.73616 0 0 1-0.50072 0.73582 0.50074 0.73616 0 0 1-0.50072-0.73582 0.50074 0.73616 0 0 1 0.50072-0.73632zm-9.3681 0.0055a0.50074 0.73616 0 0 1 0.50072 0.73632 0.50074 0.73616 0 0 1-0.50072 0.73582 0.50074 0.73616 0 0 1-0.50072-0.73582 0.50074 0.73616 0 0 1 0.50072-0.73632zm67.319 0.0065a0.54168 0.79635 0 0 1 0.54174 0.79635 0.54168 0.79635 0 0 1-0.54174 0.79635 0.54168 0.79635 0 0 1-0.54173-0.79635 0.54168 0.79635 0 0 1 0.54173-0.79635zm68.632 5e-4a0.49059 0.72124 0 0 1 0.49071 0.72132 0.49059 0.72124 0 0 1-0.49071 0.72132 0.49059 0.72124 0 0 1-0.49072-0.72132 0.49059 0.72124 0 0 1 0.49072-0.72132zm-95.722 7e-3a0.51844 0.76219 0 0 1 0.51873 0.76233 0.51844 0.76219 0 0 1-0.51873 0.76233 0.51844 0.76219 0 0 1-0.51823-0.76233 0.51844 0.76219 0 0 1 0.51823-0.76233zm93.745 8e-3a0.49059 0.72124 0 0 1 0.49021 0.72132 0.49059 0.72124 0 0 1-0.49021 0.72132 0.49059 0.72124 0 0 1-0.49072-0.72132 0.49059 0.72124 0 0 1 0.49072-0.72132zm-120.76 0.0055a0.50074 0.73616 0 0 1 0.50072 0.73632 0.50074 0.73616 0 0 1-0.50072 0.73632 0.50074 0.73616 0 0 1-0.50072-0.73632 0.50074 0.73616 0 0 1 0.50072-0.73632zm38.406 5e-4a0.51844 0.76219 0 0 1 0.51872 0.76183 0.51844 0.76219 0 0 1-0.51872 0.76234 0.51844 0.76219 0 0 1-0.51823-0.76234 0.51844 0.76219 0 0 1 0.51823-0.76183zm-47.774 0.0055a0.50074 0.73616 0 0 1 0.50072 0.73582 0.50074 0.73616 0 0 1-0.50072 0.73632 0.50074 0.73616 0 0 1-0.50072-0.73632 0.50074 0.73616 0 0 1 0.50072-0.73582zm1.9774 0.0025a0.50074 0.73616 0 0 1 0.50072 0.73632 0.50074 0.73616 0 0 1-0.50072 0.73582 0.50074 0.73616 0 0 1-0.50072-0.73582 0.50074 0.73616 0 0 1 0.50072-0.73632zm49.853 0.0045a0.51844 0.76219 0 0 1 0.51822 0.76233 0.51844 0.76219 0 0 1-0.51822 0.76184 0.51844 0.76219 0 0 1-0.51873-0.76184 0.51844 0.76219 0 0 1 0.51873-0.76233zm-44.48 0.0025a0.50074 0.73616 0 0 1 0.50072 0.73632 0.50074 0.73616 0 0 1-0.50072 0.73582 0.50074 0.73616 0 0 1-0.50072-0.73582 0.50074 0.73616 0 0 1 0.50072-0.73632zm42.359 4e-3a0.51844 0.76219 0 0 1 0.51822 0.76234 0.51844 0.76219 0 0 1-0.51822 0.76233 0.51844 0.76219 0 0 1-0.51873-0.76233 0.51844 0.76219 0 0 1 0.51873-0.76234zm84.186 0.0075a0.49059 0.72124 0 0 1 0.49022 0.72132 0.49059 0.72124 0 0 1-0.49022 0.72132 0.49059 0.72124 0 0 1-0.49071-0.72132 0.49059 0.72124 0 0 1 0.49071-0.72132zm-80.064 0.01501a0.51844 0.76219 0 0 1 0.51873 0.76234 0.51844 0.76219 0 0 1-0.51873 0.76233 0.51844 0.76219 0 0 1-0.51822-0.76233 0.51844 0.76219 0 0 1 0.51822-0.76234zm-27.558 0.0025a0.51844 0.76219 0 0 1 0.51873 0.76233 0.51844 0.76219 0 0 1-0.51873 0.76233 0.51844 0.76219 0 0 1-0.51823-0.76233 0.51844 0.76219 0 0 1 0.51823-0.76233zm8.0155 0.0025a0.51844 0.76219 0 0 1 0.51873 0.76234 0.51844 0.76219 0 0 1-0.51873 0.76233 0.51844 0.76219 0 0 1-0.51823-0.76233 0.51844 0.76219 0 0 1 0.51823-0.76234zm-5.8731 5.02e-4a0.51844 0.76219 0 0 1 0.51823 0.76233 0.51844 0.76219 0 0 1-0.51823 0.76183 0.51844 0.76219 0 0 1-0.51823-0.76183 0.51844 0.76219 0 0 1 0.51823-0.76233zm-17.225 0.0015a0.50074 0.73616 0 0 1 0.50072 0.73582 0.50074 0.73616 0 0 1-0.50072 0.73632 0.50074 0.73616 0 0 1-0.50072-0.73632 0.50074 0.73616 0 0 1 0.50072-0.73582zm46.696 6e-3a0.51844 0.76219 0 0 1 0.51823 0.76183 0.51844 0.76219 0 0 1-0.51823 0.76234 0.51844 0.76219 0 0 1-0.51873-0.76234 0.51844 0.76219 0 0 1 0.51873-0.76183zm-2.1214 0.0065a0.51844 0.76219 0 0 1 0.51873 0.76233 0.51844 0.76219 0 0 1-0.51873 0.76183 0.51844 0.76219 0 0 1-0.51823-0.76183 0.51844 0.76219 0 0 1 0.51823-0.76233zm-9.9729 9.99e-4a0.51844 0.76219 0 0 1 0.51873 0.76233 0.51844 0.76219 0 0 1-0.51873 0.76234 0.51844 0.76219 0 0 1-0.51823-0.76234 0.51844 0.76219 0 0 1 0.51823-0.76233zm-13.384 4e-3a0.51844 0.76219 0 0 1 0.51873 0.76183 0.51844 0.76219 0 0 1-0.51873 0.76233 0.51844 0.76219 0 0 1-0.51823-0.76233 0.51844 0.76219 0 0 1 0.51823-0.76183zm-2.0274 4.99e-4a0.51844 0.76219 0 0 1 0.51873 0.76183 0.51844 0.76219 0 0 1-0.51873 0.76233 0.51844 0.76219 0 0 1-0.51822-0.76233 0.51844 0.76219 0 0 1 0.51822-0.76183zm-17.449 0.03251a0.50074 0.73616 0 0 1 0.50072 0.73582 0.50074 0.73616 0 0 1-0.50072 0.73632 0.50074 0.73616 0 0 1-0.50072-0.73632 0.50074 0.73616 0 0 1 0.50072-0.73582zm53.22 16.53 2.4576 1.4626-0.65829 0.73682a2.6437 2.6437 0 0 0-1.7032-0.86838zm-5.627 0.28212 4.2534 1.0635 0.0355 0.24661a2.6437 2.6437 0 0 0-1.4101 1.8038l-0.57575 2e-3a2.6437 2.6437 0 0 0-2.3235-2.0604zm-88.254 0.48121 1.4721 1.2766-1.0124 0.86138a1.9547 1.9547 0 0 0-0.4537-0.20309z" stroke="#000" stroke-width=".25611px"/>
</g>
</svg>
