<?xml version="1.0" encoding="UTF-8"?>
<svg width="250mm" height="100mm" version="1.1" viewBox="0 0 250 100" xmlns="http://www.w3.org/2000/svg">
<g>
<path d="m241.59 28.709c-3.058 0.04025-8.3274 0.0142-9.7411 1.6234l-27.672 26.766c-1.322 1.2984-5.0821 3.4224-7.1517 3.4224-1.2666 0-2.2081 0.0144-3.6129 0.02941l-8.757 0.01312 0.21039-0.60087-0.5045-0.29229-0.73344 0.89498-5.3165 0.0081c6e-3 -0.4639 0.0463-0.92322 0.18144-1.3687l-1.2321 1.3701-13.541 0.02036c1.8215-4.6607 4.8166-6.8426 4.0677-6.6702-1.2351 0.14906-6.3494 2.5781-9.7058 6.6788l-1.2728 0.0023c-0.48338-0.26596-1.021-0.47842-1.6176-0.47102l-2.389 0.06244c-0.48391 0.0517-0.71993 0.21744-0.84384 0.41582l-75.149 0.11357c0.01954-0.36382 0.06803-0.72368 0.17465-1.0751l-0.96782 1.0764-33.418 0.05068-0.0095-0.26107h-0.25836l-0.01539 0.26153-0.98773 0.0014-0.01041-0.2837h-0.25881l-0.01629 0.28415-1.6601 0.0027-0.01-0.26198h-0.25881l-0.01493 0.26198-0.16198 4.52e-4c-3.3064-0.05329-24.931 1.0559-30.421 8.3661-1.3382 0.64477-3.8318 2.2035-3.9197 3.627-0.056246 2.9625 6.9174 5.3394 15.392 6.7431l-0.28008 2.4587 3.6342 0.6244 0.06425 1.7103-0.45608-0.13936-0.35926-0.46468 0.3312 0.52803 0.48821 0.19094 0.0036 0.08732-1.147 0.01765-0.19727-0.28867-0.08461 0.4226h1.4343l0.04525 1.2085a1.7681 1.7681 0 0 0-1.4723 1.7429 1.7681 1.7681 0 0 0 1.7678 1.7682 1.7681 1.7681 0 0 0 1.7682-1.7682 1.7681 1.7681 0 0 0-0.69137-1.3999l1.0787-0.90357-1.656-1.3977-0.0036-1.1574 0.55246 0.09502v-1.6135l0.54658-0.98411c1.394 0.1553 2.7956 0.28435 4.1862 0.38595l1.1999 1.3343c-0.12517-0.41252-0.16964-0.83631-0.18099-1.2651 2.5722 0.16362 5.0846 0.23285 7.3955 0.1932 11.012 0.19933 35.026 0.27505 46.147-0.06878-0.0087 1.4611 0.01634 3.5139 0.23754 4.3645 0.21392 0.60757 0.34672 0.66936 1.0036 0.84792 2.7184 0.53696 15.833 1.4738 20.059-1.3026 0.7941-0.52172-1.1398-0.45473-1.1398-0.45473l0.062-1.1922c-3e-3 0.01385 2.3417-0.11365 2.9899-1.2769l9.2276 0.06606 0.32894 0.88548 1.3334-0.13122 0.23664 1.6506-3.9835-0.99316-0.21718 1.1529a2.3913 2.3913 0 0 0-2.2619 2.3868 2.3913 2.3913 0 0 0 2.3913 2.3913 2.3913 2.3913 0 0 0 2.3768-2.1356l0.43663 0.0023a2.3913 2.3913 0 0 0 2.3736 2.1266 2.3913 2.3913 0 0 0 2.3718-2.1026l0.4588 0.0023a2.3913 2.3913 0 0 0 2.3605 2.0194 2.3913 2.3913 0 0 0 2.3913-2.3913 2.3913 2.3913 0 0 0-2.3913-2.3913 2.3913 2.3913 0 0 0-2.3478 1.9429l-0.514 0.0018a2.3913 2.3913 0 0 0-0.48821-0.99497l0.89905-0.72304-2.6112-1.642-0.0321-0.44523 3.6089-0.35518-0.10542-0.20904 7.1508 0.05158 0.78729 0.87552c-0.0867-0.28574-0.13561-0.57657-0.16154-0.87099l0.39139 0.0027c3.1396 0.10674 6.2196-0.27139 10.114-0.86873l27.808-0.07194 0.83706 0.93072c-0.0927-0.30558-0.14129-0.61718-0.1656-0.93253l10.565-0.02715c4.1956-0.09256 8.541-0.70007 13.046-1.6963l13.163-2.6913c11.393-2.326 22.66-4.7518 32.996-7.6055l0.0878-3.7441 4.9436-2.4279c0.37476-0.1719 0.57876-0.47128 0.0878-0.4683l-5.3237 0.17556c-1.3812 0.0549-2.6927 0.31245-3.7152 0.49726l-4.9436 0.96556-3.1881-0.4683zm-229.77 39.145 0.99316 0.02081-0.66196 1.8922-1.4067-0.45473zm-0.55834 0.05158-0.99271 1.3447-1.0447-0.0724 0.94113-1.138zm2.1203 0 0.88955 0.11402 0.01 1.5823-1.4891 0.30994zm14.226 0.39591a0.44609 0.72179 0 0 1 0.44613 0.72168 0.44609 0.72179 0 0 1-0.44613 0.72168 0.44609 0.72179 0 0 1-0.44613-0.72168 0.44609 0.72179 0 0 1 0.44613-0.72168zm95.276 0.02217a0.48997 0.72032 0 0 1 0.46694 0.50631l-0.95515 0.15655a0.48997 0.72032 0 0 1 0.48821-0.66286zm-3.7446 0.02941a0.48997 0.72032 0 0 1 0.49002 0.72032 0.48997 0.72032 0 0 1-0.0738 0.37871l-0.76558 0.12579a0.48997 0.72032 0 0 1-0.14026-0.5045 0.48997 0.72032 0 0 1 0.48957-0.72032zm-33.612 0.01176a0.46895 0.68943 0 0 1 0.46921 0.6891 0.46895 0.68943 0 0 1-0.46921 0.68956 0.46895 0.68943 0 0 1-0.46875-0.68956 0.46895 0.68943 0 0 1 0.46875-0.6891zm35.499 0.0027h4.5e-4a0.48997 0.72032 0 0 1 0.49002 0.72032 0.48997 0.72032 0 0 1-2e-3 0.04298l-0.95877 0.15746a0.48997 0.72032 0 0 1-0.0195-0.20044 0.48997 0.72032 0 0 1 0.48957-0.72032zm55.497 0.0041a0.43816 0.64415 0 0 1 0.43799 0.64386 0.43816 0.64415 0 0 1-0.43799 0.64431 0.43816 0.64415 0 0 1-0.43799-0.64431 0.43816 0.64415 0 0 1 0.43799-0.64386zm-75.537 0.0063a0.45133 0.66353 0 0 1 0.45111 0.66331 0.45133 0.66353 0 0 1-0.45111 0.66377 0.45133 0.66353 0 0 1-0.45156-0.66377 0.45133 0.66353 0 0 1 0.45156-0.66331zm65.394 0a0.43816 0.64415 0 0 1 0.43799 0.64431 0.43816 0.64415 0 0 1-0.43799 0.64386 0.43816 0.64415 0 0 1-0.43798-0.64386 0.43816 0.64415 0 0 1 0.43798-0.64431zm-49.157 0.0041a0.48997 0.72032 0 0 1 0.49002 0.72033 0.48997 0.72032 0 0 1-0.49002 0.72032 0.48997 0.72032 0 0 1-0.49002-0.72032 0.48997 0.72032 0 0 1 0.49002-0.72033zm-86.607 0.0014a0.44324 0.65164 0 0 1 0.44342 0.65155 0.44324 0.65164 0 0 1-0.44342 0.65155 0.44324 0.65164 0 0 1-0.44296-0.65155 0.44324 0.65164 0 0 1 0.44296-0.65155zm53.167 0.0059a0.46895 0.68943 0 0 1 0.46921 0.68956 0.46895 0.68943 0 0 1-0.46921 0.6891 0.46895 0.68943 0 0 1-0.46875-0.6891 0.46895 0.68943 0 0 1 0.46875-0.68956zm25.646 4.52e-4a0.45133 0.66353 0 0 1 0.45156 0.66377 0.45133 0.66353 0 0 1-0.45156 0.66331 0.45133 0.66353 0 0 1-0.45111-0.66331 0.45133 0.66353 0 0 1 0.45111-0.66377zm55.185 0.0018a0.43816 0.64415 0 0 1 0.43799 0.64386 0.43816 0.64415 0 0 1-0.43799 0.64431 0.43816 0.64415 0 0 1-0.43844-0.64431 0.43816 0.64415 0 0 1 0.43844-0.64386zm15.269 9e-3a0.43816 0.64415 0 0 1 0.43799 0.64431 0.43816 0.64415 0 0 1-0.43799 0.64386 0.43816 0.64415 0 0 1-0.43798-0.64386 0.43816 0.64415 0 0 1 0.43798-0.64431zm-75.436 0.0072a0.45133 0.66353 0 0 1 0.45156 0.66377 0.45133 0.66353 0 0 1-0.45156 0.66332 0.45133 0.66353 0 0 1-0.45111-0.66332 0.45133 0.66353 0 0 1 0.45111-0.66377zm-17.112 0.0014a0.46895 0.68943 0 0 1 0.46875 0.68956 0.46895 0.68943 0 0 1-0.46875 0.68956 0.46895 0.68943 0 0 1-0.46921-0.68956 0.46895 0.68943 0 0 1 0.46921-0.68956zm1.6334 0.0027a0.46895 0.68943 0 0 1 0.46875 0.68956 0.46895 0.68943 0 0 1-0.46875 0.6891 0.46895 0.68943 0 0 1-0.46876-0.6891 0.46895 0.68943 0 0 1 0.46876-0.68956zm-54.953 9.03e-4a0.44324 0.65164 0 0 1 0.44296 0.65155 0.44324 0.65164 0 0 1-0.44296 0.65155 0.44324 0.65164 0 0 1-0.44342-0.65155 0.44324 0.65164 0 0 1 0.44342-0.65155zm144.1 0.0014a0.43816 0.64415 0 0 1 0.43798 0.64386 0.43816 0.64415 0 0 1-0.43798 0.64431 0.43816 0.64415 0 0 1-0.43844-0.64431 0.43816 0.64415 0 0 1 0.43844-0.64386zm-80.457 9.06e-4a0.44787 0.65844 0 0 1 0.44749 0.65879 0.44787 0.65844 0 0 1-0.44749 0.65834 0.44787 0.65844 0 0 1-0.44794-0.65834 0.44787 0.65844 0 0 1 0.44794-0.65879zm13.412 0.0014a0.45133 0.66353 0 0 1 0.45156 0.66377 0.45133 0.66353 0 0 1-0.45156 0.66332 0.45133 0.66353 0 0 1-0.45111-0.66332 0.45133 0.66353 0 0 1 0.45111-0.66377zm56.903 0.0041a0.43816 0.64415 0 0 1 0.43798 0.64431 0.43816 0.64415 0 0 1-0.43798 0.64386 0.43816 0.64415 0 0 1-0.43844-0.64386 0.43816 0.64415 0 0 1 0.43844-0.64431zm-12.277 4.52e-4a0.44375 0.65238 0 0 1 0.44387 0.65246 0.44375 0.65238 0 0 1-0.44387 0.65245 0.44375 0.65238 0 0 1-0.44342-0.65245 0.44375 0.65238 0 0 1 0.44342-0.65246zm-53.07 9.06e-4a0.45133 0.66353 0 0 1 0.45156 0.66331 0.45133 0.66353 0 0 1-0.45156 0.66376 0.45133 0.66353 0 0 1-0.45111-0.66376 0.45133 0.66353 0 0 1 0.45111-0.66331zm67.157 9.03e-4a0.43816 0.64415 0 0 1 0.43798 0.64431 0.43816 0.64415 0 0 1-0.43798 0.64431 0.43816 0.64415 0 0 1-0.43799-0.64431 0.43816 0.64415 0 0 1 0.43799-0.64431zm4.9635 0a0.43816 0.64415 0 0 1 0.43844 0.64386 0.43816 0.64415 0 0 1-0.43844 0.64431 0.43816 0.64415 0 0 1-0.43798-0.64431 0.43816 0.64415 0 0 1 0.43798-0.64386zm-142.52 0.0036a0.44324 0.65164 0 0 1 0.44296 0.65155 0.44324 0.65164 0 0 1-0.44296 0.65155 0.44324 0.65164 0 0 1-0.44342-0.65155 0.44324 0.65164 0 0 1 0.44342-0.65155zm120.2 9.03e-4a0.44375 0.65238 0 0 1 0.44386 0.65246 0.44375 0.65238 0 0 1-0.44386 0.65246 0.44375 0.65238 0 0 1-0.44387-0.65246 0.44375 0.65238 0 0 1 0.44387-0.65246zm-74.538 0.0081a0.34371 0.6801 0 0 1 0.34387 0.68006 0.34371 0.6801 0 0 1-0.34387 0.68005 0.34371 0.6801 0 0 1-0.34342-0.68005 0.34371 0.6801 0 0 1 0.34342-0.68006zm-33.726 0.0018a0.44667 0.65667 0 0 1 0.44658 0.65698 0.44667 0.65667 0 0 1-0.44658 0.65653 0.44667 0.65667 0 0 1-0.44658-0.65653 0.44667 0.65667 0 0 1 0.44658-0.65698zm127.28 0.0018a0.43816 0.64415 0 0 1 0.43799 0.64431 0.43816 0.64415 0 0 1-0.43799 0.64431 0.43816 0.64415 0 0 1-0.43799-0.64431 0.43816 0.64415 0 0 1 0.43799-0.64431zm1.7135 0a0.43816 0.64415 0 0 1 0.43799 0.64386 0.43816 0.64415 0 0 1-0.43799 0.64431 0.43816 0.64415 0 0 1-0.43798-0.64431 0.43816 0.64415 0 0 1 0.43798-0.64386zm-103.64 9.04e-4a0.65164 0.44324 89.282 0 1 0.45156 0.64612 0.65164 0.44324 89.282 0 1-0.43527 0.65698 0.65164 0.44324 89.282 0 1-0.45111-0.64567 0.65164 0.44324 89.282 0 1 0.43482-0.65743zm23.03 0.0032a0.46895 0.68943 0 0 1 0.46921 0.6891 0.46895 0.68943 0 0 1-0.46921 0.68956 0.46895 0.68943 0 0 1-0.46876-0.68956 0.46895 0.68943 0 0 1 0.46876-0.6891zm88.927 0a0.43816 0.64415 0 0 1 0.43798 0.64431 0.43816 0.64415 0 0 1-0.43798 0.64386 0.43816 0.64415 0 0 1-0.43844-0.64386 0.43816 0.64415 0 0 1 0.43844-0.64431zm1.8103 0.0023a0.43816 0.64415 0 0 1 0.43799 0.64431 0.43816 0.64415 0 0 1-0.43799 0.64431 0.43816 0.64415 0 0 1-0.43799-0.64431 0.43816 0.64415 0 0 1 0.43799-0.64431zm-83.983 0.0014a0.44787 0.65844 0 0 1 0.44794 0.65834 0.44787 0.65844 0 0 1-0.44794 0.65834 0.44787 0.65844 0 0 1-0.44794-0.65834 0.44787 0.65844 0 0 1 0.44794-0.65834zm-46.784 0.0023a0.44667 0.65667 0 0 1 0.44703 0.65698 0.44667 0.65667 0 0 1-0.44703 0.65653 0.44667 0.65667 0 0 1-0.44658-0.65653 0.44667 0.65667 0 0 1 0.44658-0.65698zm18.629 0.0018a0.65164 0.44324 89.282 0 1 0.45111 0.64567 0.65164 0.44324 89.282 0 1-0.43482 0.65743 0.65164 0.44324 89.282 0 1-0.45156-0.64612 0.65164 0.44324 89.282 0 1 0.43527-0.65698zm34.94 9.04e-4a0.45133 0.66353 0 0 1 0.45156 0.66331 0.45133 0.66353 0 0 1-0.45156 0.66377 0.45133 0.66353 0 0 1-0.45111-0.66377 0.45133 0.66353 0 0 1 0.45111-0.66331zm47.974 0a0.44375 0.65238 0 0 1 0.44387 0.652 0.44375 0.65238 0 0 1-0.44387 0.65245 0.44375 0.65238 0 0 1-0.44387-0.65245 0.44375 0.65238 0 0 1 0.44387-0.652zm-46.192 0.0023a0.45133 0.66353 0 0 1 0.45156 0.66376 0.45133 0.66353 0 0 1-0.45156 0.66331 0.45133 0.66353 0 0 1-0.45111-0.66331 0.45133 0.66353 0 0 1 0.45111-0.66376zm-72.243 0.0018a0.44324 0.65164 0 0 1 0.44342 0.65155 0.44324 0.65164 0 0 1-0.44342 0.65155 0.44324 0.65164 0 0 1-0.44296-0.65155 0.44324 0.65164 0 0 1 0.44296-0.65155zm1.8316 0.0023a0.44324 0.65164 0 0 1 0.44342 0.65155 0.44324 0.65164 0 0 1-0.44342 0.652 0.44324 0.65164 0 0 1-0.44342-0.652 0.44324 0.65164 0 0 1 0.44342-0.65155zm113.33 0a0.44375 0.65238 0 0 1 0.44342 0.65245 0.44375 0.65238 0 0 1-0.44342 0.652 0.44375 0.65238 0 0 1-0.44387-0.652 0.44375 0.65238 0 0 1 0.44387-0.65245zm-38.08 0.0023a0.45133 0.66353 0 0 1 0.45156 0.66377 0.45133 0.66353 0 0 1-0.45156 0.66331 0.45133 0.66353 0 0 1-0.45111-0.66331 0.45133 0.66353 0 0 1 0.45111-0.66377zm-44.927 0.0018a0.65164 0.44324 89.282 0 1 0.45111 0.64612 0.65164 0.44324 89.282 0 1-0.43482 0.65698 0.65164 0.44324 89.282 0 1-0.45156-0.64612 0.65164 0.44324 89.282 0 1 0.43527-0.65698zm-5.1264 0.0023a0.65164 0.44324 89.282 0 1 0.45111 0.64612 0.65164 0.44324 89.282 0 1-0.43482 0.65698 0.65164 0.44324 89.282 0 1-0.45156-0.64612 0.65164 0.44324 89.282 0 1 0.43527-0.65698zm3.446 0.0023a0.65164 0.44324 89.282 0 1 0.45111 0.64612 0.65164 0.44324 89.282 0 1-0.43482 0.65698 0.65164 0.44324 89.282 0 1-0.45156-0.64612 0.65164 0.44324 89.282 0 1 0.43527-0.65698zm-18.517 4.51e-4a0.44667 0.65667 0 0 1 0.44703 0.65653 0.44667 0.65667 0 0 1-0.44703 0.65653 0.44667 0.65667 0 0 1-0.44658-0.65653 0.44667 0.65667 0 0 1 0.44658-0.65653zm-6.7164 0.0072a0.44324 0.65164 0 0 1 0.44296 0.65155 0.44324 0.65164 0 0 1-0.44296 0.65155 0.44324 0.65164 0 0 1-0.44342-0.65155 0.44324 0.65164 0 0 1 0.44342-0.65155zm-1.7334 4.52e-4a0.44324 0.65164 0 0 1 0.44296 0.65155 0.44324 0.65164 0 0 1-0.44296 0.65155 0.44324 0.65164 0 0 1-0.44342-0.65155 0.44324 0.65164 0 0 1 0.44342-0.65155zm147.51 0a0.43816 0.64415 0 0 1 0.43799 0.64386 0.43816 0.64415 0 0 1-0.43799 0.64431 0.43816 0.64415 0 0 1-0.43798-0.64431 0.43816 0.64415 0 0 1 0.43798-0.64386zm-132.5 9.05e-4a0.44667 0.65667 0 0 1 0.44658 0.65653 0.44667 0.65667 0 0 1-0.44658 0.65698 0.44667 0.65667 0 0 1-0.44658-0.65698 0.44667 0.65667 0 0 1 0.44658-0.65653zm5.1138 0.0018a0.65164 0.44324 89.282 0 1 0.45156 0.64612 0.65164 0.44324 89.282 0 1-0.43527 0.65698 0.65164 0.44324 89.282 0 1-0.45111-0.64612 0.65164 0.44324 89.282 0 1 0.43482-0.65698zm-13.47 0.0032a0.44667 0.65667 0 0 1 0.44658 0.65653 0.44667 0.65667 0 0 1-0.44658 0.65698 0.44667 0.65667 0 0 1-0.44658-0.65698 0.44667 0.65667 0 0 1 0.44658-0.65653zm34.729 0.0045a0.46895 0.68943 0 0 1 0.46875 0.68956 0.46895 0.68943 0 0 1-0.46875 0.68956 0.46895 0.68943 0 0 1-0.46876-0.68956 0.46895 0.68943 0 0 1 0.46876-0.68956zm-16.243 0.0018a0.65164 0.44324 89.282 0 1 0.45156 0.64612 0.65164 0.44324 89.282 0 1-0.43527 0.65698 0.65164 0.44324 89.282 0 1-0.45111-0.64567 0.65164 0.44324 89.282 0 1 0.43482-0.65743zm120.61 9.03e-4a0.43816 0.64415 0 0 1 0.43798 0.64431 0.43816 0.64415 0 0 1-0.43798 0.64431 0.43816 0.64415 0 0 1-0.43844-0.64431 0.43816 0.64415 0 0 1 0.43844-0.64431zm-90.583 0.0018a0.46895 0.68943 0 0 1 0.46876 0.68956 0.46895 0.68943 0 0 1-0.46876 0.6891 0.46895 0.68943 0 0 1-0.46921-0.6891 0.46895 0.68943 0 0 1 0.46921-0.68956zm-3.5419 0.0095a0.46895 0.68943 0 0 1 0.46921 0.6893 0.46895 0.68943 0 0 1-0.46921 0.68956 0.46895 0.68943 0 0 1-0.46875-0.68956 0.46895 0.68943 0 0 1 0.46875-0.68956zm-29.884 6.5e-4a0.65164 0.44324 89.282 0 1 0.45111 0.64612 0.65164 0.44324 89.282 0 1-0.43482 0.65698 0.65164 0.44324 89.282 0 1-0.45156-0.64567 0.65164 0.44324 89.282 0 1 0.43527-0.65743zm137.31 0.0023a0.26372 0.68775 0 0 1 0.26379 0.68775 0.26372 0.68775 0 0 1-0.26379 0.68775 0.26372 0.68775 0 0 1-0.26379-0.68775 0.26372 0.68775 0 0 1 0.26379-0.68775zm-155.68 0.0032a0.44324 0.65164 0 0 1 0.44296 0.65155 0.44324 0.65164 0 0 1-0.44296 0.65155 0.44324 0.65164 0 0 1-0.44342-0.65155 0.44324 0.65164 0 0 1 0.44342-0.65155zm6.7146 5e-3a0.44667 0.65667 0 0 1 0.44704 0.65653 0.44667 0.65667 0 0 1-0.44704 0.65653 0.44667 0.65667 0 0 1-0.44658-0.65653 0.44667 0.65667 0 0 1 0.44658-0.65653zm1.7642 0.0023a0.44667 0.65667 0 0 1 0.44658 0.65653 0.44667 0.65667 0 0 1-0.44658 0.65698 0.44667 0.65667 0 0 1-0.44658-0.65698 0.44667 0.65667 0 0 1 0.44658-0.65653zm137.26 0.0045a0.43816 0.64415 0 0 1 0.43799 0.64386 0.43816 0.64415 0 0 1-0.43799 0.64431 0.43816 0.64415 0 0 1-0.43844-0.64431 0.43816 0.64415 0 0 1 0.43844-0.64386zm-132.47 0.0018a0.44667 0.65667 0 0 1 0.44658 0.65653 0.44667 0.65667 0 0 1-0.44658 0.65653 0.44667 0.65667 0 0 1-0.44658-0.65653 0.44667 0.65667 0 0 1 0.44658-0.65653zm135.91 0.05294a0.43816 0.64415 0 0 1 0.43799 0.64431 0.43816 0.64415 0 0 1-0.43799 0.64386 0.43816 0.64415 0 0 1-0.43844-0.64386 0.43816 0.64415 0 0 1 0.43844-0.64431zm-1.766 0.01358a0.43816 0.64415 0 0 1 0.43799 0.64386 0.43816 0.64415 0 0 1-0.43799 0.64431 0.43816 0.64415 0 0 1-0.43799-0.64431 0.43816 0.64415 0 0 1 0.43799-0.64386zm3.3614 0.02896a0.43816 0.64415 0 0 1 0.43844 0.64386 0.43816 0.64415 0 0 1-0.43844 0.64431 0.43816 0.64415 0 0 1-0.43798-0.64431 0.43816 0.64415 0 0 1 0.43798-0.64386zm-73.574 14.635 2.2234 1.3235-0.59544 0.66648a2.3913 2.3913 0 0 0-1.5406-0.78593zm-5.0893 0.25564 3.8473 0.96194 0.0321 0.22306a2.3913 2.3913 0 0 0-1.2755 1.6316l-0.52079 0.0018a2.3913 2.3913 0 0 0-2.1017-1.8637zm-90.36 0.6692 1.3316 1.1547-0.91579 0.77914a1.7681 1.7681 0 0 0-0.41039-0.1837z" stroke="#000" stroke-width=".23166px"/>
</g>
</svg>
