<?xml version="1.0" encoding="UTF-8"?>
<svg width="250mm" height="100mm" version="1.1" viewBox="0 0 250 100" xmlns="http://www.w3.org/2000/svg">
<path transform="scale(.26458)" d="m812.14 24.068c-2.7072 0.15544-4.0991 0.66132-4.084 1.5625l0.15625 6.25-83.215 92.5c-11.668 12.887-25.245 21.26-42.143 21.787l-190.41-4.0859c-5.358-0.52217-10.692-1.0985-16.018-1.6973l-1.5215-1.6289c-0.69687-0.68307-0.64056-1.8164 0.44726-3.5703 5.3581-8.3326 18.788-26.161 16.07-25l-28 28.684c-15.948-1.9256-31.823-4.0212-47.771-5.9356l-0.29883-6.543-6.0723 0.04493s-3.247 2.9471-5.5098 5.1191c-15.823-1.7759-31.759-3.2792-47.969-4.1328-1.5095-0.74602-2.9917-1.3467-3.7539-1.3887h-7.5879l-1.1191 0.86719c-6.8104-0.20912-13.673-0.29454-20.602-0.22266-29.997-0.85717-67.234 15.518-92.43 41.922-31.121 2.6905-69.133 8.8624-102.09 16.857-5.8514-15.02-13.09-40.546-14.031-39.115-4.8167 12.012-2.2213 28.076 0.02344 42.711-35.699 9.7016-62.539 21.469-62.695 32.832 0.06511 18.211 37.113 26.022 64.744 32.281-0.26462 17.855 0.51542 35.709 1.4883 53.564a16.786 16.786 0 0 0-4.8926 11.83 16.786 16.786 0 0 0 16.785 16.785 16.786 16.786 0 0 0 16.785-16.785 16.786 16.786 0 0 0-9.7871-15.238l2.7344-13.334 13.482 2.6797 0.80274-3.8398-9.9102-1.9648 28.047-11.959 70.703 8.1191 1.7852-13.393 80.535 0.53711v7.5s6.596 13.555 11.631 24.064a24.464 24.464 0 0 0-5.916 15.936 24.464 24.464 0 0 0 24.465 24.463 24.464 24.464 0 0 0 24.465-24.463 24.464 24.464 0 0 0-0.76562-5.9824l24.336-34.912-0.17774-7.5 40.535-1.25c15.185-0.7155 30.371-1.4629 45.557-3.1465l2.5684 18.059-3.75 0.44531 3.5723 4.1074 7.7676-0.17773 6.3398-3.3926-8.3047-0.625-2.9043-19.039c5.5913-0.70482 11.182-1.5498 16.773-2.584l79.422-11.869 0.75782 5.2383 29.043-5.2383-0.88477-4.9258 158.87-23.994c20.507-5.2416 41.959-9.2986 59.959-17.674l34.725-1.6426-29.043-13.889 25.297-84.34 3.2148 0.89453 6.3828-21.965-3.0801-0.66992 17.143-53.393-76.451 1.8887-0.22071-5.5879c0.05632-0.94443-1.3136-1.3656-3.998-1.4355zm-499.56 105.45c0.06505 1.6117 0.41416 2.5359-2.7773 4.7988-14.958 8.9656-26.217 24.097-38.322 37.818-2.4918 2.6646-4.2567 1.5391-5.8711 1.0098l-27.338-7.7656c15.514-16.986 52.305-34.844 74.309-35.861zm23.225 5.043 25.27 0.89257c3.7439 0.11184 7.0273 2.1502 6.7852 5.4453l-0.17969 34.555c0.0426 3.7649-2.4946 5.2732-6.25 5.7148l-69.91-1.0723c-3.0067 0.16963-6.1713-1.347-2.5-6.25 8.7135-9.8906 16.359-20.715 26.785-29.107 4.9296-4.1655 11.283-10.14 20-10.178zm-178.6 0.33203c-2.261-0.04282-3.3906 27.618-3.7031 44.127l10.338-2.2363c-4.5398-13.187-4.0502-42.041-6.6348-41.891zm232.85 3.127c0.52968-0.00727 1.0751 0.00187 1.6289 0.02149l38.385 4.4199c3.8033 0.55311 5.721 1.7444 5.998 3.9141l1.2617 30.621c0.01777 5.7196-3.0274 7.151-7.1973 7.0078l-39.711-0.69532c-3.1959 0.12096-8.0594-1.0186-8.082-7.0078l0.94726-33.271c0.09571-4.0797 3.0618-4.9589 6.7695-5.0098zm65.383 7.7832c1.0139 0.03736 2.143 0.22218 3.3086 0.45313l68.84 17.412c2.4513 0.8513 6.1366 4.313 3.5703 9.1055l-5.4453 9.0195c-1.3069 2.1678-3.0564 3.739-6.1621 3.4805l-58.838-1.5176c-3.1191-0.11251-8.5338 0.1921-8.75-6.4277l-0.71484-27.232c-0.20783-3.0619 1.1556-4.1172 3.2188-4.2773 0.30946-0.02403 0.63468-0.02808 0.97266-0.01563zm-330.88 110.29c2.6651 0.6386 5.2272 1.2722 7.5137 1.9062l-0.67382 11.795-3.1152 6.0078 2.5586 9.7422-0.80274 1.25-6.9648 1.4668c1.4505-10.34 1.8709-21.093 1.4844-32.168zm17.482 16.396 26.146 3.002-27.479 9.1582 1.332-12.16zm-8.7442 16.982-2.4102 7.3223-8.3848-4.8047c0.03476-0.20891 0.06964-0.41769 0.10352-0.62695l10.691-1.8906zm-11.229 5.0176 8.3281 7.3047 0.22266 0.49023 1.5879 0.71094a16.786 16.786 0 0 0-2.5703-0.2207 16.786 16.786 0 0 0-10.318 3.5566c1.0931-3.8767 2.0081-7.8246 2.75-11.842z" stroke="#000" stroke-width="1px"/>
</svg>
