<?xml version="1.0" encoding="UTF-8" standalone="no"?>
<svg xmlns="http://www.w3.org/2000/svg" width="250mm" height="100mm" viewBox="0 0 250 100">
  <path stroke="#000" stroke-width=".26458" d="M214.88 6.368c-.717.041-1.085.175-1.081.413l.041 1.654-22.017 24.474c-3.087 3.41-6.68 5.625-11.15 5.765l-50.38-1.081c-1.417-.139-2.828-.291-4.237-.45l-.403-.43c-.184-.181-.17-.481.119-.945 1.417-2.205 4.97-6.922 4.252-6.615l-7.409 7.59c-4.22-.51-8.42-1.064-12.64-1.571l-.078-1.731-1.607.012s-.86.78-1.458 1.354c-4.186-.47-8.403-.867-12.691-1.093-.4-.198-.792-.357-.994-.368H91.14l-.296.23a132.641 132.641 0 00-5.451-.06c-7.937-.226-17.79 4.107-24.456 11.093-8.234.711-18.291 2.344-27.012 4.46-1.548-3.974-3.463-10.728-3.712-10.35-1.275 3.179-.588 7.43.006 11.301-9.446 2.567-16.547 5.68-16.588 8.687.017 4.818 9.82 6.885 17.13 8.541-.07 4.724.136 9.448.394 14.172a4.441 4.441 0 00-1.295 3.13 4.441 4.441 0 004.441 4.441 4.441 4.441 0 004.441-4.44 4.441 4.441 0 00-2.59-4.032l.724-3.528 3.568.709.212-1.016-2.622-.52L45.454 73l18.707 2.148.473-3.544 21.308.143v1.984s1.745 3.586 3.077 6.367a6.473 6.473 0 00-1.565 4.216 6.473 6.473 0 006.473 6.473 6.473 6.473 0 006.473-6.473 6.473 6.473 0 00-.202-1.583l6.438-9.237-.047-1.984 10.725-.33c4.018-.19 8.036-.388 12.054-.833l.68 4.778-.993.117.945 1.087 2.056-.047 1.677-.897-2.197-.166-.769-5.037c1.48-.187 2.959-.41 4.438-.684l21.014-3.14.2 1.386 7.685-1.386-.234-1.304 42.033-6.348c5.425-1.387 11.101-2.46 15.864-4.676l9.187-.435-7.684-3.675 6.693-22.314.85.236 1.69-5.811-.815-.178 4.535-14.126-20.227.5-.059-1.48c.015-.249-.347-.36-1.058-.379zm-132.177 27.9c.017.427.11.671-.735 1.27-3.958 2.372-6.937 6.376-10.14 10.006-.659.705-1.126.407-1.553.267l-7.233-2.054c4.105-4.495 13.84-9.22 19.661-9.489zm6.145 1.334l6.686.237c.99.03 1.859.569 1.795 1.44l-.048 9.143c.012.996-.66 1.395-1.653 1.512L77.13 47.65c-.796.045-1.633-.356-.662-1.653 2.306-2.617 4.329-5.481 7.087-7.702 1.304-1.102 2.985-2.683 5.292-2.693zm-47.254.088c-.598-.011-.897 7.307-.98 11.676l2.735-.592c-1.2-3.49-1.071-11.123-1.755-11.084zm61.609.828c.14-.002.284 0 .431.005l10.156 1.17c1.006.146 1.514.461 1.587 1.035l.334 8.102c.004 1.514-.801 1.892-1.905 1.854L103.3 48.5c-.846.032-2.133-.27-2.139-1.854l.25-8.803c.026-1.08.811-1.312 1.792-1.325zm17.3 2.059c.267.01.566.059.875.12l18.213 4.607c.65.225 1.624 1.141.945 2.409l-1.44 2.386c-.346.574-.81.99-1.631.921l-15.568-.401c-.825-.03-2.257.05-2.315-1.7l-.189-7.206c-.055-.81.306-1.09.852-1.132a2.26 2.26 0 01.257-.004zm-87.545 29.18c.705.17 1.383.337 1.988.505l-.179 3.12-.824 1.59.677 2.578-.212.33-1.843.389c.384-2.736.495-5.581.393-8.511zm4.625 4.339l6.918.794-7.27 2.423.352-3.217zm-2.313 4.493l-.638 1.937-2.218-1.27.027-.167 2.829-.5zm-2.971 1.328l2.203 1.932.06.13.42.188a4.441 4.441 0 00-.68-.058 4.441 4.441 0 00-2.73.94c.288-1.025.53-2.07.727-3.132z"/>
</svg>
