<?xml version="1.0" encoding="UTF-8"?>
<svg width="250mm" height="100mm" version="1.1" viewBox="0 0 250 100" xmlns="http://www.w3.org/2000/svg">
<path transform="scale(.26458)" d="m907.41 81.256c-5.5001-0.25307-8.1613 1.4715-14.553 6.9648l-132.26 115.56c-2.4109 2.1977-7.2421 5.0823-11.848 3.8691-30.272-7.7532-60.301-18.411-91.004-20.984-9.3285-0.60687-23.027-0.90719-38.707-1.084l1.0957-2.4883 0.2793-1.7051-1.9141 0.18945-2.7988 3.9727c-39.878-0.39569-92.402-0.01686-128.08-1.2305-8.7824-0.29871-102.64-1.8505-168.4-2.7773l1.4961-2.4942v-2.1426l-1.5176 0.17968-4.2578 4.3945c-26.546-0.37003-48.782-0.64801-56.469-0.64649-13.945 0.00273-52.581-3.0238-81.086 21.086-5.6069 2.5574-12.048 4.7864-19.148 7.377-5.4094 0.16427-10.299 0.15999-13.711 0.17578-0.17838-0.83448-0.51159-1.5127-1.625-1.4121-1.1785 0.01777-1.464 0.72507-1.7031 1.4688-0.24963 0.01022-0.69037 0.01214-0.8418 0.02735-30.458 0.06401-48.245-1.154-68.572 19.463-22.63 10.779-53.396 24.966-53.393 35.715 0.26021 16.751 39.456 28.872 92.354 36.379l0.05664 7.5508 2.5 1.25 5.3574 0.35547-0.06446 3.8262-1.2598-0.13477-0.59961-1.168-1.9258 0.0332 0.53711 4.5449 2.3574 0.63477-7.1465 6.9512 2.873 2.7188a8.3036 8.3036 0 0 0-1.2891 4.4258 8.3036 8.3036 0 0 0 8.3047 8.3027 8.3036 8.3036 0 0 0 8.3027-8.3027 8.3036 8.3036 0 0 0-6.4629-8.0898l-0.05469-3.0098 2.7422-1.1055 0.31641-1.5469 2.082-1.5469-0.56641-1.2305-4.6758-0.23047-0.07813-4.3574 1.875 0.17969 0.51172-8.252c22.495 2.7497 46.905 4.7281 71.551 5.9355l7.3867 7.291 1.4512-0.06446-4.4726-7.0156c16.549 0.74901 33.148 1.1558 49.279 1.2109 6.3362 1.1437 13.096 2.1268 22.096 2.2715l38.18 0.13477c-0.05696 3.9294-0.29671 8.2026 0.65039 10.338 4.2412 7.2788 50.389 4.3963 58.594 0.53515l-2.0566-1.9219 45.066-6.9824-0.90625 3.7051-2.082 1.3262 1.3242 1.5156 11.934-2.6523 4.4824 4.1035v3.2207l-1.6836 1.4355a8.1759 8.1759 0 0 0-6.6191-3.3926 8.1759 8.1759 0 0 0-8.1758 8.1758 8.1759 8.1759 0 0 0 8.1758 8.1758 8.1759 8.1759 0 0 0 7.3086-4.5293l5.7715-1.0918a8.1759 8.1759 0 0 0 7.7227 5.5254 8.1759 8.1759 0 0 0 8.1758-8.1758 8.1759 8.1759 0 0 0-2.7461-6.1016l2.9043-2.5469c-4.531-4.2065-9.922-5.831-15.484-6.9434l0.30469-3.6484 1.9473-0.0332 0.98437 1.3438 13.258-0.12696-0.25196 6.6934 7.6387 4.9102a8.1759 8.1759 0 0 0-3.25 6.5176 8.1759 8.1759 0 0 0 8.1758 8.1758 8.1759 8.1759 0 0 0 7.582-5.1348l5.6055 0.08008a8.1759 8.1759 0 0 0 7.5195 4.9902 8.1759 8.1759 0 0 0 8.1758-8.1758 8.1759 8.1759 0 0 0-3.7051-6.8379l1.6543-2.7578-0.56836-3.7891-13.094-2.7461 0.0039-1.3965 4.7559-0.33984 0.82032-1.0098 8.082 0.0625 0.05078-1.1094c10.753-0.06556 21.727-0.43251 31.768-1.793l3.1426 0.00195 8.6524 8.3926 2.5449-1.0723-4.6523-7.3144 29.541 0.02344c5.3644-3.1e-4 14.28-0.3631 25.037-1.1406l3.502 3.9395 1.9648-0.13477 0.04297-1.3828-2.0684-2.6738c20.326-1.585 46.359-4.6118 68.285-9.5312l78.875-16.846 4.8301 3.9004 1.4277-0.08985v-1.4277l-2.2207-3.2461 151.2-32.291c6.2759-1.6724 11.648-4.274 10.178-13.928l19.285-8.2148c3.9528-1.8796 5.8741-3.361-0.71289-3.5703l-23.75-0.71485c-2.2673-0.80987-3.7766-1.5683-8.0371-1.6074h-11.07l55.535-139.82-23.84-0.26758zm-814.73 140.45-0.75781 7.2324c-2.0592-0.49012-4.2655-0.75914-6.5625-0.89258 1.8727-1.8564 3.5708-4.3516 5.3574-6.2949l1.9629-0.04493zm-4.0625 0.08985-5.8477 6.1602-7.8574 0.13282 0.22461-0.22266 6.875-5.9824 6.6055-0.08789zm5.9824 0.04297 5.5371 0.04492 0.04296 8.3496-5.7578-0.9375 0.17773-7.0547v-0.40234zm-37.123 36.955c1.4862-0.02571 1.9081 1.0651 1.9629 2.9023 0.052271 1.754-0.41642 2.8849-1.9629 2.9023-1.5384 0.01739-1.9356-1.09-1.9648-2.9023-0.027591-1.7047 0.36766-2.8748 1.9648-2.9023zm6.752 0.20312c1.4862-0.0257 1.9101 1.0651 1.9648 2.9023 0.052271 1.754-0.41838 2.8849-1.9648 2.9024-1.5384 0.01738-1.9337-1.0901-1.9629-2.9024-0.027591-1.7047 0.36571-2.8748 1.9629-2.9023zm13.266 0.06641c1.4862-0.0257 1.9101 1.0651 1.9648 2.9023 0.052271 1.754-0.41838 2.8849-1.9648 2.9023-1.5384 0.01739-1.9356-1.09-1.9648-2.9023-0.027591-1.7047 0.36766-2.8748 1.9648-2.9023zm-6.4961 0.0039c1.4862-0.0257 1.9101 1.0651 1.9648 2.9024 0.052269 1.754-0.41838 2.8849-1.9648 2.9023-1.5384 0.01739-1.9356-1.0901-1.9648-2.9023-0.027591-1.7047 0.36766-2.8748 1.9648-2.9024zm13.266 0.06836c1.4862-0.0257 1.9101 1.0631 1.9648 2.9004 0.052271 1.754-0.41838 2.8849-1.9648 2.9024-1.5384 0.01738-1.9356-1.0901-1.9648-2.9024-0.027591-1.7047 0.36766-2.8728 1.9648-2.9004zm6.6426 0.03907c1.4862-0.02571 1.9101 1.0631 1.9648 2.9004 0.05227 1.754-0.41838 2.8849-1.9648 2.9023-1.5384 0.01739-1.9337-1.0901-1.9629-2.9023-0.02759-1.7047 0.36571-2.8728 1.9629-2.9004zm6.7695 0.07031c1.4862-0.0257 1.9101 1.0651 1.9648 2.9023 0.052271 1.754-0.41838 2.883-1.9648 2.9004-1.5384 0.01739-1.9356-1.0881-1.9648-2.9004-0.02759-1.7047 0.36766-2.8748 1.9648-2.9023zm28.914 0.57617c1.4862-0.0257 1.9101 1.0631 1.9648 2.9004 0.05228 1.754-0.41837 2.8849-1.9648 2.9023-1.5384 0.01739-1.9356-1.09-1.9648-2.9023-0.02759-1.7047 0.36766-2.8728 1.9648-2.9004zm6.7695 0.07031c1.4862-0.0257 1.9081 1.0651 1.9629 2.9024 0.05227 1.754-0.41642 2.883-1.9629 2.9004-1.5384 0.01738-1.9356-1.0881-1.9648-2.9004-0.02759-1.7047 0.36766-2.8748 1.9648-2.9024zm21.699 0.13086c1.4862-0.0257 1.9101 1.0651 1.9648 2.9024 0.05216 1.754-0.41837 2.8849-1.9648 2.9023-1.5384 0.01738-1.9356-1.0901-1.9648-2.9023-0.02646-1.7047 0.36757-2.8748 1.9648-2.9024zm-36.533 58.383-0.09375 5.6562a8.3036 8.3036 0 0 0-4.4219 2.8145l-2.043-1.9121 6.5586-6.5586zm355.71 1.377 8.5605 1.3516-1.4766 2.7012a8.1759 8.1759 0 0 0-6.8047 4.4394l-0.30469-0.95312 0.0254-7.5391zm-36.328 0.08984 3.2832 0.82031-0.74609 3.1973a8.1759 8.1759 0 0 0-1.0215-0.07227 8.1759 8.1759 0 0 0-7.7598 5.6211l-0.38477-1.1074 0.47071-5.6465 6.1582-2.8125z" stroke="#000" stroke-width="1.0016"/>
</svg>
