<?xml version="1.0" encoding="UTF-8"?>
<svg width="250mm" height="100mm" version="1.1" viewBox="0 0 250 100" xmlns="http://www.w3.org/2000/svg" xmlns:cc="http://creativecommons.org/ns#" xmlns:dc="http://purl.org/dc/elements/1.1/" xmlns:rdf="http://www.w3.org/1999/02/22-rdf-syntax-ns#">
<metadata>
<rdf:RDF>
<cc:Work rdf:about="">
<dc:format>image/svg+xml</dc:format>
<dc:type rdf:resource="http://purl.org/dc/dcmitype/StillImage"/>
<dc:title/>
</cc:Work>
</rdf:RDF>
</metadata>
<path transform="scale(.26458)" d="m852.25 55.711c-1.5374 0.095754-3.1122 1.5127-3.3262 4.0098l0.17969 4.1973-2.3223-0.089844-0.17774-3.4824-5.1797-0.35742-89.324 88.266c-12.57 9.3433-25.599 17.413-41.164 18.436l-200.4 13.834c-10.383-0.38924-21.625 0.31793-29.822-2.8555l-59.463-27.5 7.5-8.0371-34.113-34.789-15.785-3.1562 12.248-9.0918-14.773 8.5859c-45.015-13.704-72.43-13.431-101.86-14.762-15.424-0.29409-31.189-1.3872-41.07 11.25l-0.89258 20.535 6.0703 8.0352c-18.966 7.843-34.251 20.838-48.49 35.299-42.066 0.77831-84.592 0.782-120.46 11.996l-0.50586 2.2715-4.2695 1.2402-0.021484-0.22851c1.1881-11.605-7.5953-34.872-9.9766-34.977-2.4839 0.05755-4.3404 22.663 0.50586 37.627l0.10742 0.30468-27.635 8.0293 35.777 15.312 0.20898 0.59766c1.8139 9.9942 4.8345 19.339 7.5762 28.916-1.2557-9.3353-1.2801-19.532-3.9531-27.875l3.6543 1.5645c14.01 37.1 19.99 44.899 33.508 46.008l0.50586 16.668 7.1973-0.12696-0.12695-13.637c11.842 8.8274 25.764 11.07 39.838 12.83l-8.3692 21.59a17.768 17.768 0 0 0-0.51562-0.01758 17.768 17.768 0 0 0-17.768 17.768 17.768 17.768 0 0 0 17.768 17.77 17.768 17.768 0 0 0 17.768-17.77 17.768 17.768 0 0 0-9.4375-15.678l3.6328-6.5527 14.197-0.80469 1.875-1.709-11.271-10.791 1.4883-2.625c0.34983 0.04589 0.70133 0.08576 1.0508 0.13281l97.1 4.7988c0.60008 3.9051 3.1502 4.5114 6.1875 4.293h12.627c7.2407 0.41114 10.313-1.7838 11.869-4.9258l34.219-0.75781-1.2617 4.5469-2.6426 11.113a23.297 23.297 0 0 0-2.2188-0.1289 23.297 23.297 0 0 0-23.297 23.297 23.297 23.297 0 0 0 23.297 23.297 23.297 23.297 0 0 0 23.297-23.297 23.297 23.297 0 0 0-8.7695-18.209l7.3809-20.871 5.6816 0.12696 8.207-3.0312 42.682-0.25977 5.0898 6.7852h3.3027l0.35743-7.4102 108.8-7.3223c1.2531 4.7454 4.6616 5.9875 9.7227 4.5449l14.646-3.1562c1.7232-0.47571 2.4769-1.5632 2.7774-3.2832l243.51-16.141c0.71376 3.8352 1.8481 6.1569 3.75 5.7148l13.035-1.0723c-3.819-0.94768-11.187-0.12083-10.357-3.3926l0.35743-1.9629 41.383-9.2832 5.5566 3.0293c9.6472 0.22242 19.987 1.4024 26.264-3.0293l-11.111-5.5566 5.0508-2.5254-2.0215-22.729 54.043-135.36-55.861-5.084 0.26953-5c-0.06489-2.7908-1.5661-4.0157-3.1035-3.9199zm-614.67 75.617c2.7457 4.4209 7.6074 6.5342 12.947 8.125-0.70205 14.842-3.6645 28.555-6.6973 42.232-16.853-2.2738-34.149-0.76865-49.195-18.393 12.894-13.06 26.96-24.136 42.945-31.965zm40.143 17.928c0.34415-0.0153 0.69199-0.01411 1.0449 0.00195 0.40335 0.01837 0.8123 0.05509 1.2246 0.10547l64.732 5.3574c3.7514 0.17243 4.6525 2.3262 4.5527 5.1777l-1.6973 22.232c-0.50767 3.5487 1.1379 8.0991-8.4805 7.4121l-69.912-5.625c-2.2564-0.91172-6.0275-0.67206-4.7324-6.6973l7.0547-24.018c1.6305-2.8879 3.8038-3.8402 6.2129-3.9473zm90.07 8.6309c0.42002-0.00439 0.85631 0.01406 1.3066 0.04883l31.518 2.0527c8.0561 0.59401 18.44 1.6655 21.875 7.1426l11.16 14.912c6.3874 9.7556-18.966 9.3202-28.84 10.268l-34.018 0.44531c-4.3199-0.78634-11.499 1.8572-10.982-4.7324l2.2324-24.463c0.66014-4.4932 2.8081-5.6432 5.748-5.6738zm67.684 1.0996 39.838 19.697c-2.1428 5.0615-12.22 5.3629-21.213 6.3145l-18.625-26.012zm-278.12 116.92 9.0723 8.2129-11.6 0.46289 2.5274-8.6758z" stroke="#000" stroke-width="1px"/>
</svg>
