<?xml version="1.0" encoding="UTF-8"?>
<svg width="250mm" height="100mm" version="1.1" viewBox="0 0 250 100" xmlns="http://www.w3.org/2000/svg" xmlns:cc="http://creativecommons.org/ns#" xmlns:dc="http://purl.org/dc/elements/1.1/" xmlns:rdf="http://www.w3.org/1999/02/22-rdf-syntax-ns#">
<metadata>
<rdf:RDF>
<cc:Work rdf:about="">
<dc:format>image/svg+xml</dc:format>
<dc:type rdf:resource="http://purl.org/dc/dcmitype/StillImage"/>
<dc:title/>
</cc:Work>
</rdf:RDF>
</metadata>
<path transform="scale(.26458)" d="m847.59 41.738c-1.2689 0.0498-2.4262 0.67026-2.4746 2.1074l-0.0625 4.5449-0.75781 0.25195-0.0644 3.9785c-5.1998 0.80836-7.9717 4.2871-10.859 7.6387l-52.527 54.549c-23.143 27.45-49.252 43.593-77.781 50.508l-164.85 20.494-56.787-2.8574-62.5-24.643 8.2148-6.0723-25.357-28.57c-16.199-3.5551-19.928-4.7453-36.55-7.1371-0.19885-0.0286-2.4724-0.25647-2.7207-1.865-0.41881-2.7131 12.647-14.91 12.647-14.91s-17.069 15.649-17.701 15.563c-13.953-1.9117-36.636-4.5328-51.032-5.2228-15.465 0.27659-31.142 0.31679-40.713 7.1426l-20 16.785v5.3574c-16.194 3.8441-27.171 6.5448-65 32.857-35.4 4.4376-71.266 7.9475-103.93 17.857-1.736 0.38291-3.3625 0.76553-4.9355 1.1484l-2e-3 -0.043c-0.06115-30.175-1.3523-56.965-7.2051-82.891-5.5112 23.422 0.01958 56.141 0.25977 84.406l2e-3 0.34961c-14.941 4.2486-21.85 8.4957-31.332 12.744 9.4472 5.6595 19.826 10.386 31.457 13.861v0.1914c1.7097 35.685 3.2917 43.231 5.9336 69.195 2.151-22.191 4.6486-44.108 1.9375-67.277 1.7463 0.41595 3.5127 0.81137 5.3145 1.1719 4.6801 24.392 15.274 42.775 41.07 45.715l-0.53516 3.3926 4.1973 2.3203 3.8379-0.625 0.0898-3.75 2.5-0.89258 9.7324 2.6797 4.0176 3.3027 12.564 8.3281-2.832 9.5293-4.4648 4.2852c-13.614-0.54783-27.721 1.5004-32.1 12.781-1.3784 4.6094 6.3462 10.75 10.607 14.648 1.7082 0.20206 3.511 0.39364 5.3984 0.57812 2.2383 6.8049 8.5884 11.407 15.752 11.416 6.6589-4.5e-4 12.673-3.979 15.279-10.107 0.2417 6.5e-4 0.44872 5e-3 0.69336 6e-3l26.516-1.3887c4.3034-0.058 4.8603-1.99 5.9356-3.6621l0.63086-6.9434c0.30962-5.4626-1.5318-8.3828-4.9238-9.4707l-35.986-7.4492 2.3555-4.4902 13.859 2.9219 3.7051-3.0801-9.3672-9.0606 0.0371-0.26953 2.1426-0.17969 49.465-2.3203 0.44726 7.9453 5.9141 0.88281 1.9434-8.1152 35.689 1.4336c1.0926 2.2755 0.99193 5.6188 5.0508 5.2402l17.93-1.7051c3.7315-0.43692 2.2423-2.6907 3.3476-4.041l18.371 0.44141c7.2859-0.45235 14.572-0.88982 21.857-1.3301-1.0551 4.1676-2.5571 10.276-3.9473 15.967-11.525 1.0623-20.345 10.725-20.354 22.299 5.5e-4 12.376 10.034 22.409 22.41 22.41 12.377 5.5e-4 22.411-10.033 22.412-22.41-8e-3 -7.2212-3.4951-13.996-9.3672-18.199l8.4355-21.26c40.396-2.4748 80.792-5.1906 121.19-9.8496l140.64-13.996c70.134-4.5012 139.32-11.357 205.45-25.893l3.5723 0.0898 1.875 1.7852 12.5 0.80469 2.5-4.6445 2.7676-1.7852-7.1426-2.8574v-6.5176l2.7676-1.6074c1.5188-1.5825 0.79333-3.2515-0.35742-3.9277l-2.7676-0.98242 2.6797-0.53515 2.5879-4.457 68.482-137.78c5.1047-0.99958 8.0223-2.2575 7.4102-3.9297-18.452-10.672-35.58-12.111-53.543-13.732l-5.6816 1.3887-1.957 0.12695 0.0625-4.4199-0.75781 0.0625 0.12695-4.2285c0.11413-1.2927-1.7025-2.1714-3.334-2.1074zm-603.52 100.6c-1.5318 4.8161 0.64342 6.9845 3.7871 8.4609l9.7246 2.2734-11.996 41.037c-19.615-5.8156-38.678-13.424-56.947-23.613 17.764-12.665 35.992-23.201 55.432-28.158zm31.566 19.32 67.555 4.293c2.2664 0.46939 3.8692 1.6039 3.7891 4.4199l-1.3906 26.516c-0.75925 3.3224-3.3123 3.6549-6.0606 3.6621l-71.721-5.6816 7.8281-33.209zm145.27 0.0625 54.232 21.656c-3.767 0.24056-7.5338 1.2922-11.301 0l-41.732-16.037c-2.1191-1.2166-2.8872-2.5292-2.6504-3.9141l1.4512-1.7051zm-55.396 5.2695c0.46516 2e-3 0.94829 0.0286 1.4434 0.0742 27.967 1.873 51.893 7.3765 66.607 21.16l-3.2148 5.1777c-22.106 6.7638-44.829 5.4857-67.41 6.0723-2.604 7.1e-4 -4.281-0.98486-4.1973-3.8398l0.53516-23.57c0.53594-3.9286 2.9802-5.0898 6.2363-5.0742zm-205.56 119.27 5.9356 3.9336 0.17969-1.3184 6.875 4.2188-0.89454 0.84961-12.668-4.416 0.57226-3.2676z" stroke="#000" stroke-width="1px"/>
</svg>
