<?xml version="1.0" encoding="UTF-8"?>
<svg width="250mm" height="100mm" version="1.1" viewBox="0 0 250 100" xmlns="http://www.w3.org/2000/svg">
<path d="m220.81 26.835-11.66 0.03735c-1.0641 0.02467-2.1946 0.41513-2.6343 1.1707l-9.952 18.636c-0.99364 1.7214-3.0882 2.5797-4.8786 2.9758-0.59849 0.11969-33.523 5.5884-34.769 5.7953l3.3995-4.0387-4.3898 4.1401-25.906-0.4813c-2.3226-1.2013-4.7834-1.7099-7.3662-1.6104 0.46676-0.48699 0.95556-0.94021 1.1707-1.8046l0.3415-2.1466c-8.7814-0.51221-17.563-0.72353-26.344-0.58535-1.3849-0.04343-3.1976 0.17036-4.4395 0.73155l-7.4191 0.18889c-0.12581-0.82894-0.80794-0.93318-1.4146-0.93112l-3.034 0.02402-0.29188-2.8307 0.01228 0.19476-0.14354 2.6397-0.70594 0.0053-0.45569-3.4374-0.24492 3.5404c-0.8472 0.25271-1.8588 0.94875-1.8628 1.7267l0.03415 1.2764-1.2764 0.55173c-0.76308 0.1174-1.5298 0.23028-2.2496 0.39966 0.2076-1.9911 0.47833-3.9684 0.4162-10.544-0.422 2.2467-0.76413 6.2264-0.92685 8.6351-0.256-3.4309-0.78814-7.4488-1.5127-10.903 0.23544 4.7247 0.37992 8.5454 0.63017 13.267-0.2566 0.11405-0.50325 0.24026-0.72782 0.39272l-13.429-0.03949c-3.9134 0.02156-8.3953 0.05387-11.729 3.105l-9.038 7.1752-20.284 4.6225c-4.4278 1.1748-10.479 3.9032-10.349 7.6581 0.12242 2.4162 3.208 3.2614 5.1161 3.2373l13.782-0.05389v1.5175l-0.36551 0.7561 0.21931 1.366-0.01547 1.2091a2.7597 2.7597 0 0 0-2.1088 2.6792 2.7597 2.7597 0 0 0 2.7597 2.7597 2.7597 2.7597 0 0 0 2.7597-2.7597 2.7597 2.7597 0 0 0-1.4716-2.439l-0.01708-2.0879 7.7387-3.0383 12.712-0.05016c0.0767 0.33784 0.28712 0.70704 0.85642 0.73316l2.4839-0.05176c0.46769-0.01193 0.68159-0.33225 0.74116-0.6974l4.1791-0.01654 1.6739 2.6626 3.5308-0.06296-0.03469-0.24172-2.7251-0.17235-0.85481-2.1915 23.07-0.09072c2.7068-0.07763 4.9963 0.5988 7.2446 1.311l5.7265 1.6557c3.9015 1.3386 10.051 2.4582 12.488 2.4492l0.60028-8e-3a4.5363 4.5363 0 0 0-0.0485 0.6227 4.5363 4.5363 0 0 0 4.5366 4.5366 4.5363 4.5363 0 0 0 4.5361-4.5366 4.5363 4.5363 0 0 0-0.0625-0.73956l1.0282-0.01334c1.8353 0.0024 4.7102-0.39252 7.0028-1.1035l11.487-3.0361c1.2918-0.37594 2.3468-0.7583 3.8637-0.75876l16.503-0.15741c1.2029 8.2e-4 3.1693-0.2476 4.781-0.53679l21.173-3.9027c2.0752-0.40847 3.3357-0.5857 5.9068-0.61203l5.7265 0.06883 18.321-3.5062-0.0485-1.366c3.3243-0.42166 6.0241-1.6862 7.513-4.5857 2.0841-0.23884 4.2937-0.22592 5.854-1.5122l6.2937 0.09765c4.1061 0.06508 8.3858-0.68146 12.684-1.5127-4.351-0.99614-8.6406-1.1985-12.928-1.366l-14.611-0.04749 5.8988-2.1733c0.4064-0.14605 0.8913-0.19053 0.86228-0.89643l-0.0342-8.6244c0.0661-0.79475-0.50866-0.62873-0.93164-0.68993l-1.1728-20.422c1e-3 -0.60726-0.11845-1.1106-0.79346-1.1382zm-174.09 31.394 1.0368 0.73155c0.19254 0.12731 0.10915 0.34998-0.01228 0.49998l-4.2319 5.4154c-0.32427 0.36274-0.58893 0.48993-1.0368 0.17075l-2.3419-1.3414zm2.9758 1.6461 1.8782 0.04909c0.61671-8.4e-5 0.92292 0.34263 0.92685 0.87829l-0.04856 5.7078c-0.03249 0.5642-0.1468 1.0754-1.1707 0.99995l-4.9032 0.02455c-2.6353-0.04244-2.5303-1.0548-1.5122-2.3905l4.0249-4.9517c0.19285-0.18118 0.38922-0.31016 0.80466-0.31749zm22.307 1.8969h2.2806c0.82713 0.04186 1.1334 0.37374 1.159 1.1584l-5.35e-4 2.0063c0.0062 0.77267-0.29676 1.1488-1.183 1.128l-2.1952 0.01227c-0.90719-0.05132-1.1556-0.3367-1.183-1.2193l0.01228-1.8724c-0.01126-0.80963 0.27282-1.219 1.1099-1.2134zm-7.8299 0.04856h2.2806c0.82713 0.04186 1.1328 0.37427 1.1584 1.159v2.0063c0.0062 0.77267-0.29676 1.1488-1.183 1.128l-2.1952 0.01228c-0.90719-0.05132-1.1556-0.33723-1.183-1.2198l0.01227-1.8724c-0.01126-0.80963 0.27282-1.2191 1.1099-1.2134zm53.369 0.32442h2.2811c0.82714 0.04186 1.1328 0.37427 1.1584 1.159v2.0063c6e-3 0.77267-0.29677 1.1488-1.183 1.128l-2.1957 0.01228c-0.90719-0.05133-1.1556-0.33724-1.183-1.2198l0.0123-1.8718c-0.0113-0.80963 0.27282-1.2196 1.1099-1.2139zm31.566 0.04749h2.2806c0.82714 0.04186 1.1328 0.37427 1.1584 1.159v2.0063c6e-3 0.77267-0.29677 1.1488-1.183 1.128l-2.1952 0.01228c-0.90718-0.05131-1.1556-0.33723-1.183-1.2198l0.0123-1.8718c-0.0113-0.80963 0.27283-1.2196 1.1099-1.2139zm-20.907 0.02188h2.2806c0.82713 0.04186 1.1334 0.37374 1.159 1.1584v2.0063c6e-3 0.77267-0.29677 1.1488-1.183 1.128l-2.1957 0.01228c-0.90719-0.05132-1.1556-0.3367-1.183-1.2193l0.0122-1.8724c-0.0113-0.80963 0.27283-1.219 1.1099-1.2134zm-23.682 0.02881h2.2806c0.82713 0.04186 1.1334 0.37374 1.159 1.1584v2.0063c6e-3 0.77267-0.2973 1.1493-1.1835 1.1285l-2.1952 0.01228c-0.9072-0.05132-1.1556-0.33723-1.183-1.2198l0.0123-1.8724c-0.0113-0.80963 0.27283-1.219 1.1099-1.2134zm-18.725 0.75023v2.0063c0.0062 0.77268-0.29676 1.1488-1.183 1.128l-2.1952 0.01228c-0.90719-0.05132-1.1556-0.33723-1.183-1.2198l0.01174-1.8718c2.1636-0.01721 2.4765-0.0043 4.5494-0.05496zm-52.783 16.535-4.9816 1.9551-0.01547-1.9353z" stroke="#000" stroke-width=".2732px"/>
</svg>
