<?xml version="1.0" encoding="UTF-8"?>
<svg width="250mm" height="100mm" version="1.1" viewBox="0 0 250 100" xmlns="http://www.w3.org/2000/svg" xmlns:cc="http://creativecommons.org/ns#" xmlns:dc="http://purl.org/dc/elements/1.1/" xmlns:rdf="http://www.w3.org/1999/02/22-rdf-syntax-ns#">
<metadata>
<rdf:RDF>
<cc:Work rdf:about="">
<dc:format>image/svg+xml</dc:format>
<dc:type rdf:resource="http://purl.org/dc/dcmitype/StillImage"/>
<dc:title/>
</cc:Work>
</rdf:RDF>
</metadata>
<path d="m41.479 24.642-1.6366 1.8211-8.7643 0.42271c-6.3851 0.45724-7.8661 3.1703-9.3979 5.8601-5.0825 0.67243-10.622 0.74154-12.733 5.3315-1.0096 2.9995 2.1396 5.785 3.3435 6.7763 3.7344 2.8509 7.5563 5.091 11.431 6.9577l0.0088 5.7382 0.3669 0.07131 1.3343-5.0886s3.7929 1.3411 5.9598 1.9864c2.1669 0.6454 7.1897 1.9017 7.1897 1.9017-2.8234 11.28-3.6396 16.499-3.6675 20.091 2.5591-5.2049 3.8777-12.271 5.0498-19.556l1.2594 0.28784-0.26148 4.4473 1.8293 1.8293 9.2961 1.8288-0.56017 3.808 6.1598 1.1198 1.5679-3.4716 1.7172-1.5679 10.369 1.7451-1.5922 7.6228a6.7238 6.7238 0 0 0-0.7307-0.04237 6.7238 6.7238 0 0 0-6.7236 6.7236 6.7238 6.7238 0 0 0 6.7236 6.7236 6.7238 6.7238 0 0 0 6.7241-6.7236 6.7238 6.7238 0 0 0-0.293-1.9425l13.827-9.8655 0.48576 0.06666c33.881 3.8137 56.676 9.902 110.47 9.6299l6.6538 4.0163 0.12144-0.14211a2.653 2.653 0 0 0-0.25786 1.1327 2.653 2.653 0 0 0 2.6531 2.6531 2.653 2.653 0 0 0 2.6531-2.6531 2.653 2.653 0 0 0-2.6531-2.6526 2.653 2.653 0 0 0-1.4867 0.45837l0.12558-0.14676-2.3926-3.1724 38.5 0.48731-0.91312-2.7585-1.5591-0.97152-0.0341-3.3621 1.7606-5.3687 1.6666-28.869c-2.5314-1.9924-4.7847-3.2838-7.4156-4.2814l-6.5691-0.87333c-2.8072 0.20224-6.1988 0.56614-9.232 2.0133l-20.199 18.018c-2.3582 1.3056-4.7163 1.8059-7.0745 1.3203l-36.059-5.2793c-39.035-7.5606-78.485-18.227-117.02-22.043l0.55449-1.2666 4.6462-0.13229zm-16.842 5.2922 3.4318 0.87178-1.3338 2.7714-3.946-0.85834zm4.2891 1.1353 1.386 0.31678-1.1085 2.7456-1.4919-0.43615zm2.4686 0.65991 3.9202 0.73897-0.67283 3.9207-5.2927-0.63355zm39.095 11.628 4.9888 0.81804-0.94981 3.6959-5.0416-0.95033zm11.749 2.4402 4.8286 0.9648-0.97668 3.6432-4.8834-1.0025zm11.696 2.4014 4.6116 0.99167-0.99942 3.6173-4.5666-1.0036zm11.648 2.6086 4.0137 0.54105-0.24236 0.91467c-1.2572-0.55815-2.6462-0.4123-4.0504-0.18604zm11.778 2.128 4.3682 1.0454-0.63407 3.3228-3.0055-0.6165c-0.26735-0.46283-0.6079-0.89792-1.2697-1.2128zm11.527 2.3802 4.7315 1.0563-1.0558 3.4184-4.686-1.017zm11.793 2.4551 4.4085 1.0289-0.95085 3.4323-4.4876-1.109zm-68.207 9.3958 14.847 2.0417-12.448 8.7871a6.7238 6.7238 0 0 0-3.8659-3.1326z" stroke="#000" stroke-width=".41812px"/>
</svg>
