<?xml version="1.0" encoding="UTF-8"?>
<svg width="250mm" height="100mm" version="1.1" viewBox="0 0 250 100" xmlns="http://www.w3.org/2000/svg" xmlns:cc="http://creativecommons.org/ns#" xmlns:dc="http://purl.org/dc/elements/1.1/" xmlns:rdf="http://www.w3.org/1999/02/22-rdf-syntax-ns#">
<metadata>
<rdf:RDF>
<cc:Work rdf:about="">
<dc:format>image/svg+xml</dc:format>
<dc:type rdf:resource="http://purl.org/dc/dcmitype/StillImage"/>
<dc:title/>
</cc:Work>
</rdf:RDF>
</metadata>
<path d="m222.63 23.328c-3.7438 4.0928-9.1502 12.484-11.18 14.039-1.6774 1.2856-9.4516 5.947-14.203 9.7879l-18.308 2.9397-58.353-0.22117-2e-3 -0.0041-0.16691-1.3027-0.92447 1.3027-12.677-0.04806 0.48368-2.0913 2.9056-0.23616v-0.09457l-3.8033 0.02377-1.6102 2.3905-58.083-0.22014c-1.9289-0.01752-3.8121 0.10632-5.5123 1.7037l-6.4476 5.3453s-27.262 7.3506-27.262 11.226c0.042986 4.224 15.645 4.2851 21.615 4.2328v2.0143l1.0692 0.03359-0.13384 0.83507 0.83509 2.4391-1.0687 1.6366 1.2692 0.30075 0.10955 2.1616a2.4214 2.4214 0 0 0-1.5177 2.2453 2.4214 2.4214 0 0 0 2.4215 2.421 2.4214 2.4214 0 0 0 2.421-2.421 2.4214 2.4214 0 0 0-1.8159-2.3414l-0.11472-2.0655 1.5363-0.30075-2.0712-4.6436h1.203l0.05426-2.3161 45.815 0.3116c1.9876 0.63214 3.7615 1.4173 5.8708 1.9161 0.12259 2.0442 0.27117 4.0968 0.47646 6.1684 0.24441-1.5523 0.3943-3.6697 0.51522-5.9628 1.0877 0.19587 2.2738 0.30927 3.6277 0.28371 4.6473 1.6253 10.268 2.1629 15.435 2.5388 3.4607 0.21248 6.9384 0.39123 10.436 0.53019l0.046 1.8536 0.44907 0.68521-0.0476 2.0081 2.8474 0.10128-9e-3 0.14521a3.2363 3.2363 0 0 0-1.8459 2.9186 3.2363 3.2363 0 0 0 3.2364 3.2363 3.2363 3.2363 0 0 0 3.2363-3.2363 3.2363 3.2363 0 0 0-0.12971-0.90174l0.84076-0.39171 0.21704-1.4531-0.96892-2.1213 0.16691-0.86867 1.9616-1.6991c6.5679 0.0983 13.221 0.02752 19.988-0.2718 8.4904-0.43145 19.05-1.3034 27.839-6.0885l10.394-0.85007 4.4415 2.9289c13.508-2.9696 27.188-5.5951 41.198-7.559 0.90248-7.794 6.1772-17.91 12.473-42.899l-19.182-0.09405zm-181.45 28.175 2.7559 0.23461-3.9388 4.2365-4.0592-0.01654 5.2419-4.4545zm3.9232 0.45786 2.7146 0.13642-1.7911 3.8298h-3.9465l3.0231-3.9661zm4.2674 0.36226 3.1517 0.15037-0.3979 3.534-4.2767-0.06666 1.5229-3.6179zm55.43 1.4542a2.2206 2.4332 0 0 1 2.2205 2.4334 2.2206 2.4332 0 0 1-2.2205 2.4329 2.2206 2.4332 0 0 1-2.221-2.4329 2.2206 2.4332 0 0 1 2.221-2.4334zm6.9452 0a2.2206 2.4332 0 0 1 2.2205 2.4334 2.2206 2.4332 0 0 1-2.2205 2.4329 2.2206 2.4332 0 0 1-2.221-2.4329 2.2206 2.4332 0 0 1 2.221-2.4334zm-33.877 0.02635a2.2206 2.4332 0 0 1 2.2205 2.4329 2.2206 2.4332 0 0 1-2.2205 2.4334 2.2206 2.4332 0 0 1-2.2205-2.4334 2.2206 2.4332 0 0 1 2.2205-2.4329zm13.371 0.02119a2.2206 2.4332 0 0 1 2.2205 2.4329 2.2206 2.4332 0 0 1-2.2205 2.4334 2.2206 2.4332 0 0 1-2.221-2.4334 2.2206 2.4332 0 0 1 2.221-2.4329zm28.585 0a2.2206 2.4332 0 0 1 2.2205 2.4329 2.2206 2.4332 0 0 1-2.2205 2.4334 2.2206 2.4332 0 0 1-2.2205-2.4334 2.2206 2.4332 0 0 1 2.2205-2.4329zm-21.828 0.09457a2.2206 2.4332 0 0 1 2.2205 2.4329 2.2206 2.4332 0 0 1-2.2205 2.4334 2.2206 2.4332 0 0 1-2.2205-2.4334 2.2206 2.4332 0 0 1 2.2205-2.4329zm30.239 0.04702a2.2206 2.4332 0 0 1 2.2205 2.4334 2.2206 2.4332 0 0 1-2.2205 2.4329 2.2206 2.4332 0 0 1-2.2205-2.4329 2.2206 2.4332 0 0 1 2.2205-2.4334zm13.654 0.09457a2.2206 2.4332 0 0 1 2.2205 2.4329 2.2206 2.4332 0 0 1-2.2205 2.4334 2.2206 2.4332 0 0 1-2.2205-2.4334 2.2206 2.4332 0 0 1 2.2205-2.4329zm6.9452 0a2.2206 2.4332 0 0 1 2.2205 2.4329 2.2206 2.4332 0 0 1-2.2205 2.4334 2.2206 2.4332 0 0 1-2.2205-2.4334 2.2206 2.4332 0 0 1 2.2205-2.4329zm-13.701 0.04703a2.2206 2.4332 0 0 1 2.2205 2.4334 2.2206 2.4332 0 0 1-2.2205 2.4329 2.2206 2.4332 0 0 1-2.2205-2.4329 2.2206 2.4332 0 0 1 2.2205-2.4334zm20.599 0.04754a2.2206 2.4332 0 0 1 2.2205 2.4329 2.2206 2.4332 0 0 1-2.2205 2.4334 2.2206 2.4332 0 0 1-2.221-2.4334 2.2206 2.4332 0 0 1 2.221-2.4329zm-34.485 26.908 1.6702 0.06718 0.90227 1.9043-0.13848 0.87745-0.64595 0.20825a3.2363 3.2363 0 0 0-2.7905-1.7549v-0.26664l1.1364-0.03307-0.13384-1.0025z" stroke="#000" stroke-width=".26458px"/>
</svg>
