<?xml version="1.0" encoding="UTF-8"?>
<svg width="250mm" height="100mm" version="1.1" viewBox="0 0 250 100" xmlns="http://www.w3.org/2000/svg" xmlns:cc="http://creativecommons.org/ns#" xmlns:dc="http://purl.org/dc/elements/1.1/" xmlns:rdf="http://www.w3.org/1999/02/22-rdf-syntax-ns#">
<metadata>
<rdf:RDF>
<cc:Work rdf:about="">
<dc:format>image/svg+xml</dc:format>
<dc:type rdf:resource="http://purl.org/dc/dcmitype/StillImage"/>
<dc:title/>
</cc:Work>
</rdf:RDF>
</metadata>
<path transform="scale(.26458)" d="m841.43 66.168c-14.15 15.469-34.584 47.184-42.254 53.063-6.34 4.859-35.723 22.477-53.682 36.994l-69.195 11.111-220.55-0.83594-0.00586-0.01562-0.63086-4.9238-3.4941 4.9238-47.912-0.18165 1.8281-7.9043 10.982-0.89258v-0.35742l-14.375 0.08984-6.0859 9.0352-219.53-0.83203c-7.2904-0.06622-14.408 0.40184-20.834 6.4394l-24.369 20.203s-103.04 27.782-103.04 42.428c0.16247 15.965 59.13 16.196 81.695 15.998v7.6133l4.041 0.12695-0.50586 3.1562 3.1563 9.2188-4.0391 6.1856 4.7969 1.1367 0.41406 8.1699a9.1518 9.1518 0 0 0-5.7363 8.4863 9.1518 9.1518 0 0 0 9.1524 9.1504 9.1518 9.1518 0 0 0 9.1504-9.1504 9.1518 9.1518 0 0 0-6.8633-8.8496l-0.4336-7.8066 5.8066-1.1367-7.8281-17.551h4.5469l0.20508-8.7539 173.16 1.1777c7.5122 2.3892 14.217 5.3568 22.189 7.2422 0.46334 7.7262 1.0249 15.484 1.8008 23.314 0.92375-5.867 1.4903-13.87 1.9473-22.537 4.1111 0.7403 8.5939 1.1689 13.711 1.0723 17.565 6.1428 38.81 8.175 58.336 9.5957 13.08 0.80308 26.224 1.4787 39.443 2.0039l0.17383 7.0059 1.6973 2.5898-0.17969 7.5898 10.762 0.38281-0.03516 0.54883a12.232 12.232 0 0 0-6.9766 11.031 12.232 12.232 0 0 0 12.232 12.232 12.232 12.232 0 0 0 12.232-12.232 12.232 12.232 0 0 0-0.49023-3.4082l3.1777-1.4805 0.82032-5.4922-3.6621-8.0176 0.63086-3.2832 7.4141-6.4219c24.824 0.37153 49.969 0.104 75.545-1.0273 32.09-1.6307 72.001-4.9264 105.22-23.012l39.285-3.2129 16.787 11.07c51.055-11.224 102.76-21.147 155.71-28.57 3.411-29.458 23.347-67.691 47.143-162.14l-72.5-0.35547zm-685.81 106.49 10.416 0.88672-14.887 16.012-15.342-0.0625 19.812-16.836zm14.828 1.7305 10.26 0.51563-6.7695 14.475h-14.916l11.426-14.99zm16.129 1.3692 11.912 0.56835-1.5039 13.357-16.164-0.25196 5.7559-13.674zm209.5 5.4961a8.3929 9.1964 0 0 1 8.3926 9.1973 8.3929 9.1964 0 0 1-8.3926 9.1953 8.3929 9.1964 0 0 1-8.3945-9.1953 8.3929 9.1964 0 0 1 8.3945-9.1973zm26.25 0a8.3929 9.1964 0 0 1 8.3926 9.1973 8.3929 9.1964 0 0 1-8.3926 9.1953 8.3929 9.1964 0 0 1-8.3945-9.1953 8.3929 9.1964 0 0 1 8.3945-9.1973zm-128.04 0.09961a8.3929 9.1964 0 0 1 8.3926 9.1953 8.3929 9.1964 0 0 1-8.3926 9.1973 8.3929 9.1964 0 0 1-8.3926-9.1973 8.3929 9.1964 0 0 1 8.3926-9.1953zm50.537 0.08008a8.3929 9.1964 0 0 1 8.3926 9.1953 8.3929 9.1964 0 0 1-8.3926 9.1973 8.3929 9.1964 0 0 1-8.3945-9.1973 8.3929 9.1964 0 0 1 8.3945-9.1953zm108.04 0a8.3929 9.1964 0 0 1 8.3926 9.1953 8.3929 9.1964 0 0 1-8.3926 9.1973 8.3929 9.1964 0 0 1-8.3926-9.1973 8.3929 9.1964 0 0 1 8.3926-9.1953zm-82.5 0.35742a8.3929 9.1964 0 0 1 8.3926 9.1953 8.3929 9.1964 0 0 1-8.3926 9.1973 8.3929 9.1964 0 0 1-8.3926-9.1973 8.3929 9.1964 0 0 1 8.3926-9.1953zm114.29 0.17773a8.3929 9.1964 0 0 1 8.3926 9.1973 8.3929 9.1964 0 0 1-8.3926 9.1953 8.3929 9.1964 0 0 1-8.3926-9.1953 8.3929 9.1964 0 0 1 8.3926-9.1973zm51.607 0.35742a8.3929 9.1964 0 0 1 8.3926 9.1953 8.3929 9.1964 0 0 1-8.3926 9.1973 8.3929 9.1964 0 0 1-8.3926-9.1973 8.3929 9.1964 0 0 1 8.3926-9.1953zm26.25 0a8.3929 9.1964 0 0 1 8.3926 9.1953 8.3929 9.1964 0 0 1-8.3926 9.1973 8.3929 9.1964 0 0 1-8.3926-9.1973 8.3929 9.1964 0 0 1 8.3926-9.1953zm-51.785 0.17774a8.3929 9.1964 0 0 1 8.3926 9.1973 8.3929 9.1964 0 0 1-8.3926 9.1953 8.3929 9.1964 0 0 1-8.3926-9.1953 8.3929 9.1964 0 0 1 8.3926-9.1973zm77.857 0.17969a8.3929 9.1964 0 0 1 8.3926 9.1953 8.3929 9.1964 0 0 1-8.3926 9.1973 8.3929 9.1964 0 0 1-8.3945-9.1973 8.3929 9.1964 0 0 1 8.3945-9.1953zm-130.34 101.7 6.3125 0.2539 3.4102 7.1973-0.52343 3.3164-2.4414 0.78711a12.232 12.232 0 0 0-10.547-6.6328v-1.0078l4.2949-0.125-0.50586-3.7891z" stroke="#000" stroke-width="1px"/>
</svg>
