<?xml version="1.0" encoding="UTF-8"?>
<svg width="250mm" height="100mm" version="1.1" viewBox="0 0 250 100" xmlns="http://www.w3.org/2000/svg" xmlns:cc="http://creativecommons.org/ns#" xmlns:dc="http://purl.org/dc/elements/1.1/" xmlns:rdf="http://www.w3.org/1999/02/22-rdf-syntax-ns#">
<metadata>
<rdf:RDF>
<cc:Work rdf:about="">
<dc:format>image/svg+xml</dc:format>
<dc:type rdf:resource="http://purl.org/dc/dcmitype/StillImage"/>
<dc:title/>
</cc:Work>
</rdf:RDF>
</metadata>
<path transform="scale(.26458)" d="m764.82 37.238-4.1074 126.96-123.21 4.1074-17.777-2.7402c-3.4946-1.7849-6.8779-3.6121-2.9941-8.0801 6.9805-9.6225 22.047-27.478 20.941-28.867-1.2608-0.89459-21.93 20.495-35.889 34.18l-131.07-20.207c-28.06-4.7448-54.109-7.7321-79.309-9.6484-4.0444-2.1097-8.8144-3.9562-4.2637-9.1914 7.4702-10.298 23.593-29.406 22.41-30.893-1.4164-1.005-25.677 24.219-40.527 38.639-22.491-1.2059-44.564-1.6951-67.061-1.9414-34.95 0.10048-67.148 20.482-98.93 43.928-26.458 1.077-81.757 1.8321-114.18 7.627-1.8848 0.3369-3.8415 0.73438-5.8242 1.1582v-0.03516c4.9777-25.986 2.1275-81.077-0.71289-80.893-2.249-0.09143-6.131 53.036-6.25 82.5l-0.003907 0.04102c-22.103 5.4818-46.001 14.726-46.068 19.244-0.15928 4.5722 22.249 13.583 43.213 19.322-1.0713 31.908-2.5413 85.155 1.0723 85.5 1.5638 0.11056 8.9633-50.243 7.8574-83.035l0.003906-0.20899c1.9177 0.44292 3.8048 0.85916 5.6113 1.2148 9.9717 15.564 20.347 30.737 40.545 36.404l28.57 16.473-5.4004 10.76 0.17968 7.2754 7.1328 8.5156a20.329 20.329 0 0 0-8.0195 16.158 20.329 20.329 0 0 0 20.328 20.33 20.329 20.329 0 0 0 20.33-20.33 20.329 20.329 0 0 0-18.766-20.25l-2.3457-7.3242-1.8301-0.26758-1.084-3.0332 84.635 8.7793 2.1465-18.057 55.73 4.0957c1.9144 2.2921 2.5164 6.7338 6.0723 6.3398l21.875-0.80469c3.7465-0.57379 3.0349-2.2616 4.5527-3.3926l13.84-0.35742 1.0723 7.4102-3.5723 2.5898-2.5898 32.59h9.3359a24.822 23.658 0 0 0 21.646 12.139 24.822 23.658 0 0 0 23.305-15.596c4.3412-0.68118 8.521-1.5594 12.41-2.793 0.84397-0.28129 2.3052-0.99715 2.3203-2.3223l-0.08789-11.16-2.7676-16.072 10.893-9.5527 37.143-1.9648c2.5298 1.2202 3.3394 3.8185 7.5898 3.6621 1.6207-0.04784 2.4585-1.9225 3.3926-3.5723l26.717 0.15039 136.05-12.203 3.75 2.0527 12.277-1.0273 3.125-2.2324 18.525-1.5176 2.4551 1.6523 0.08985 4.5527 1.6074 2.1875 6.7402-0.13282 2.2324-1.9199-0.08789-5.4902 1.4726-2.1445 66.205-5.3555 19.465-2.1445 16.963 0.17968 5.8945-2.1426 88.859-14.594c4.7679-0.97386 24.148-3.45 26.496-21.791 1.6829-0.78219 3.3992-1.1506 3.2598-3.3027 0.01867-2.6019-1.4754-1.833-3.1699-3.2148l-78.42-174.42-72.025-2.502zm-490.45 99.285-27.322 47.5-15.268-0.53516c-4.1598 0.04471-6.25-1.7852-6.25-1.7852-5.0599-3.3925-9.7999-7.1051-15.982-9.375 20.596-14.462 41.417-28.365 64.822-35.805zm5.0898 10.895 62.678 0.89258-1.7852 39.643-82.322-3.0352 21.43-37.5zm71.428 1.0703 95.893 9.1074-1.0703 34.107-96.607-3.2148 1.7852-40zm-192.55 141.21 7.1328 0.74024 1.084 3.6328-0.80273 1.8301s1.2944 3.6311 1.959 5.5684a20.329 20.329 0 0 0-4.9043 1.5039l-5.9844-9.6152 1.5156-3.6602z" stroke="#000" stroke-width="1px"/>
</svg>
