<?xml version="1.0" encoding="UTF-8"?>
<svg width="250mm" height="100mm" version="1.1" viewBox="0 0 250 100" xmlns="http://www.w3.org/2000/svg" xmlns:cc="http://creativecommons.org/ns#" xmlns:dc="http://purl.org/dc/elements/1.1/" xmlns:rdf="http://www.w3.org/1999/02/22-rdf-syntax-ns#">
<metadata>
<rdf:RDF>
<cc:Work rdf:about="">
<dc:format>image/svg+xml</dc:format>
<dc:type rdf:resource="http://purl.org/dc/dcmitype/StillImage"/>
<dc:title/>
</cc:Work>
</rdf:RDF>
</metadata>
<path transform="scale(.26458)" d="m870.85 59.109c-2.9118-0.054526-5.7402 0.32004-8.1836 2.666l-86.621 86.367c-2.8971 2.7362-5.7869 4.8084-8.9004 4.8613-3.6963-0.12607-12.879-1.9431-26.832-2.1465l-14.018 0.31641c-3.3512 0.74022-5.9627 1.9723-5.8066 5.0508l0.31445 33.334c0.49826 2.1637 14.549 7.1373 22.16 7.3242v6.3145l-129.55-3.5371-145.95-0.53125 3.3379-7.293h-3.9277l-6.209 7.2676-160.55-0.58594c-4.2493-1.4858-8.5103-2.7843-12.85-2.7715l-12.879-0.25195c-1.6708 0.03171-2.364 1.3677-2.8945 2.9199l-73.498-0.26758c-23.24 0.27466-132.24-3.6649-159.24 34.002-6.2891 4.7998-16.019 7.1416-16.273 16.252-0.53351 15.907 53.082 30.903 109.88 35.865l-0.12696 8.3301 6.9648-0.08984 4.7305 6.1621 0.26954 1.875-2.5898 2.3203-7.4102-0.625-0.26954 1.875 7.5898 0.625 1.875 2.7676-0.01953 0.69726a7.1875 7.1875 0 0 0-6.2305 7.1152 7.1875 7.1875 0 0 0 7.1875 7.1875 7.1875 7.1875 0 0 0 7.1875-7.1875 7.1875 7.1875 0 0 0-4.1836-6.5195l-0.01171-0.84571 1.7852-1.6074 1.875-0.17773 0.26758-3.125-2.0527-0.35742-1.6973-1.3398-0.17773-1.1602 1.7852-0.35743 0.17774-3.0352 1.3398-1.4297v-1.1602l2.9473-0.17968v-8.3926c2.5104 0.10279 5.0141 0.18971 7.5078 0.24805l5.9726 7.3418 3.6621 0.17774-3.5918-7.4258c0.36283 0.0031 0.72958 0.01353 1.0918 0.01562l185.72 1.7461-0.37695 15.467c0.2422 3.6677 15.11 4.9671 20.014 4.9883l21.592-0.18945c5.1584-0.07665 11.462-0.57105 26.715-3.5742l-0.08789-0.98242-2.5449-0.35742 0.04297-2.5879 32.68-5.9375 0.22266-2.1426 20.67-4.4648 17.412-0.08789 0.0957 11.484 5.3672 0.06445-0.09961 4.5781a11.607 11.607 0 0 0-8.5801-3.8066 11.607 11.607 0 0 0-11.605 11.607 11.607 11.607 0 0 0 11.605 11.605 11.607 11.607 0 0 0 11.389-9.377l1.4258-0.01171a11.607 11.607 0 0 0 11.383 9.3887 11.607 11.607 0 0 0 11.607-11.605 11.607 11.607 0 0 0-11.607-11.607 11.607 11.607 0 0 0-9.248 4.6172l-0.58789-0.71679v-3.5371l3.9785 0.06445 1.8926-2.5898 15.09-0.44141 0.23438-9.8828 90.605-0.46094 51.604-1.0469 6.3652 8.3613 3.2832 0.0625-4.123-8.5371 13.229-0.26757c31.309-1.776 63.931-6.7445 98.57-16.607 34.158-9.4139 68.618-18.655 99.555-29.91l0.17773-23.572 8.9277-6.3398-41.963 1.6973-4.6426-8.4824 25.088 0.26758 9.2871-3.0352-1.6074-1.6973 0.09961-3.0156 25.506-3.2832-0.25195-4.5449 24.496-4.041-24.496-6.8184v-3.0312l21.719 0.25196-2.7773-8.8379v-13.385l-51.518-5.3027 38.133-85.105-34.094-1.7676c-0.97803-0.056306-1.9572-0.12245-2.9277-0.14062zm-805.23 166.01-0.021484 9.6211-10.121-0.68555 3.4688-8.9121 6.6738-0.02343zm-9.2773 0.05078-3.0625 8.6172-6.0293-3.125 4.1074-5.1641 4.9844-0.32812zm391.34 0.51953a1.6573 1.6573 0 0 1 1.6562 1.6582 1.6573 1.6573 0 0 1-1.6562 1.6562 1.6573 1.6573 0 0 1-1.6582-1.6562 1.6573 1.6573 0 0 1 1.6582-1.6582zm-398.76 0.05469-3.793 4.3535-3.6172-0.02148 4.1973-4.1973 3.2129-0.13476zm669.13 0.29297a1.6573 1.6573 0 0 1 1.6582 1.6582 1.6573 1.6573 0 0 1-1.6582 1.6562 1.6573 1.6573 0 0 1-1.6562-1.6562 1.6573 1.6573 0 0 1 1.6562-1.6582zm-624.45 0.55273a1.6573 1.6573 0 0 1 1.6562 1.6562 1.6573 1.6573 0 0 1-1.6562 1.6582 1.6573 1.6573 0 0 1-1.6582-1.6582 1.6573 1.6573 0 0 1 1.6582-1.6562zm141.94 0.04688a1.6573 1.6573 0 0 1 1.6582 1.6582 1.6573 1.6573 0 0 1-1.6582 1.6562 1.6573 1.6573 0 0 1-1.6562-1.6562 1.6573 1.6573 0 0 1 1.6562-1.6582zm-117.56 4.1543a2.2097 3.283 0 0 1 2.2109 3.2832 2.2097 3.283 0 0 1-2.2109 3.2812 2.2097 3.283 0 0 1-2.209-3.2812 2.2097 3.283 0 0 1 2.209-3.2832zm7.2988 0a2.2097 3.283 0 0 1 2.209 3.2832 2.2097 3.283 0 0 1-2.209 3.2812 2.2097 3.283 0 0 1-2.2109-3.2812 2.2097 3.283 0 0 1 2.2109-3.2832zm7.918 0a2.2097 3.283 0 0 1 2.209 3.2832 2.2097 3.283 0 0 1-2.209 3.2812 2.2097 3.283 0 0 1-2.2109-3.2812 2.2097 3.283 0 0 1 2.2109-3.2832zm7.4492 0a2.2097 3.283 0 0 1 2.209 3.2832 2.2097 3.283 0 0 1-2.209 3.2812 2.2097 3.283 0 0 1-2.2109-3.2812 2.2097 3.283 0 0 1 2.2109-3.2832zm8.0801 0a2.2097 3.283 0 0 1 2.2109 3.2832 2.2097 3.283 0 0 1-2.2109 3.2812 2.2097 3.283 0 0 1-2.209-3.2812 2.2097 3.283 0 0 1 2.209-3.2832zm7.9941 0a2.2097 3.283 0 0 1 2.2109 3.2832 2.2097 3.283 0 0 1-2.2109 3.2812 2.2097 3.283 0 0 1-2.209-3.2812 2.2097 3.283 0 0 1 2.209-3.2832zm7.2988 0a2.2097 3.283 0 0 1 2.209 3.2832 2.2097 3.283 0 0 1-2.209 3.2812 2.2097 3.283 0 0 1-2.2109-3.2812 2.2097 3.283 0 0 1 2.2109-3.2832zm7.918 0a2.2097 3.283 0 0 1 2.209 3.2832 2.2097 3.283 0 0 1-2.209 3.2812 2.2097 3.283 0 0 1-2.2109-3.2812 2.2097 3.283 0 0 1 2.2109-3.2832zm7.4492 0a2.2097 3.283 0 0 1 2.209 3.2832 2.2097 3.283 0 0 1-2.209 3.2812 2.2097 3.283 0 0 1-2.209-3.2812 2.2097 3.283 0 0 1 2.209-3.2832zm8.082 0a2.2097 3.283 0 0 1 2.209 3.2832 2.2097 3.283 0 0 1-2.209 3.2812 2.2097 3.283 0 0 1-2.2109-3.2812 2.2097 3.283 0 0 1 2.2109-3.2832zm8.1816 0a2.2097 3.283 0 0 1 2.2109 3.2832 2.2097 3.283 0 0 1-2.2109 3.2812 2.2097 3.283 0 0 1-2.209-3.2812 2.2097 3.283 0 0 1 2.209-3.2832zm7.2988 0a2.2097 3.283 0 0 1 2.209 3.2832 2.2097 3.283 0 0 1-2.209 3.2812 2.2097 3.283 0 0 1-2.2109-3.2812 2.2097 3.283 0 0 1 2.2109-3.2832zm7.918 0a2.2097 3.283 0 0 1 2.209 3.2832 2.2097 3.283 0 0 1-2.209 3.2812 2.2097 3.283 0 0 1-2.2109-3.2812 2.2097 3.283 0 0 1 2.2109-3.2832zm44.529 0a2.2097 3.283 0 0 1 2.209 3.2832 2.2097 3.283 0 0 1-2.209 3.2812 2.2097 3.283 0 0 1-2.2109-3.2812 2.2097 3.283 0 0 1 2.2109-3.2832zm7.2969 0a2.2097 3.283 0 0 1 2.2109 3.2832 2.2097 3.283 0 0 1-2.2109 3.2812 2.2097 3.283 0 0 1-2.209-3.2812 2.2097 3.283 0 0 1 2.209-3.2832zm7.6621 0a2.2097 3.283 0 0 1 2.2109 3.2832 2.2097 3.283 0 0 1-2.2109 3.2812 2.2097 3.283 0 0 1-2.209-3.2812 2.2097 3.283 0 0 1 2.209-3.2832zm7.2988 0a2.2097 3.283 0 0 1 2.209 3.2832 2.2097 3.283 0 0 1-2.209 3.2812 2.2097 3.283 0 0 1-2.2109-3.2812 2.2097 3.283 0 0 1 2.2109-3.2832zm7.918 0a2.2097 3.283 0 0 1 2.209 3.2832 2.2097 3.283 0 0 1-2.209 3.2812 2.2097 3.283 0 0 1-2.2109-3.2812 2.2097 3.283 0 0 1 2.2109-3.2832zm7.4492 0a2.2097 3.283 0 0 1 2.209 3.2832 2.2097 3.283 0 0 1-2.209 3.2812 2.2097 3.283 0 0 1-2.209-3.2812 2.2097 3.283 0 0 1 2.209-3.2832zm8.082 0a2.2097 3.283 0 0 1 2.209 3.2832 2.2097 3.283 0 0 1-2.209 3.2812 2.2097 3.283 0 0 1-2.2109-3.2812 2.2097 3.283 0 0 1 2.2109-3.2832zm8.1055 0a2.2097 3.283 0 0 1 2.209 3.2832 2.2097 3.283 0 0 1-2.209 3.2812 2.2097 3.283 0 0 1-2.2109-3.2812 2.2097 3.283 0 0 1 2.2109-3.2832zm7.2969 0a2.2097 3.283 0 0 1 2.2109 3.2832 2.2097 3.283 0 0 1-2.2109 3.2812 2.2097 3.283 0 0 1-2.209-3.2812 2.2097 3.283 0 0 1 2.209-3.2832zm7.918 0a2.2097 3.283 0 0 1 2.2109 3.2832 2.2097 3.283 0 0 1-2.2109 3.2812 2.2097 3.283 0 0 1-2.209-3.2812 2.2097 3.283 0 0 1 2.209-3.2832zm7.4492 0a2.2097 3.283 0 0 1 2.2109 3.2832 2.2097 3.283 0 0 1-2.2109 3.2812 2.2097 3.283 0 0 1-2.209-3.2812 2.2097 3.283 0 0 1 2.209-3.2832zm8.082 0a2.2097 3.283 0 0 1 2.209 3.2832 2.2097 3.283 0 0 1-2.209 3.2812 2.2097 3.283 0 0 1-2.209-3.2812 2.2097 3.283 0 0 1 2.209-3.2832zm8.334 0a2.2097 3.283 0 0 1 2.209 3.2832 2.2097 3.283 0 0 1-2.209 3.2812 2.2097 3.283 0 0 1-2.209-3.2812 2.2097 3.283 0 0 1 2.209-3.2832zm7.2969 0a2.2097 3.283 0 0 1 2.2109 3.2832 2.2097 3.283 0 0 1-2.2109 3.2812 2.2097 3.283 0 0 1-2.209-3.2812 2.2097 3.283 0 0 1 2.209-3.2832zm7.918 0a2.2097 3.283 0 0 1 2.2109 3.2832 2.2097 3.283 0 0 1-2.2109 3.2812 2.2097 3.283 0 0 1-2.209-3.2812 2.2097 3.283 0 0 1 2.209-3.2832zm7.4512 0a2.2097 3.283 0 0 1 2.209 3.2832 2.2097 3.283 0 0 1-2.209 3.2812 2.2097 3.283 0 0 1-2.2109-3.2812 2.2097 3.283 0 0 1 2.2109-3.2832zm8.0801 0a2.2097 3.283 0 0 1 2.2109 3.2832 2.2097 3.283 0 0 1-2.2109 3.2812 2.2097 3.283 0 0 1-2.209-3.2812 2.2097 3.283 0 0 1 2.209-3.2832zm8.1074 0a2.2097 3.283 0 0 1 2.209 3.2832 2.2097 3.283 0 0 1-2.209 3.2812 2.2097 3.283 0 0 1-2.2109-3.2812 2.2097 3.283 0 0 1 2.2109-3.2832zm7.2969 0a2.2097 3.283 0 0 1 2.209 3.2832 2.2097 3.283 0 0 1-2.209 3.2812 2.2097 3.283 0 0 1-2.209-3.2812 2.2097 3.283 0 0 1 2.209-3.2832zm7.918 0a2.2097 3.283 0 0 1 2.209 3.2832 2.2097 3.283 0 0 1-2.209 3.2812 2.2097 3.283 0 0 1-2.209-3.2812 2.2097 3.283 0 0 1 2.209-3.2832zm7.4492 0a2.2097 3.283 0 0 1 2.2109 3.2832 2.2097 3.283 0 0 1-2.2109 3.2812 2.2097 3.283 0 0 1-2.209-3.2812 2.2097 3.283 0 0 1 2.209-3.2832zm8.082 0a2.2097 3.283 0 0 1 2.209 3.2832 2.2097 3.283 0 0 1-2.209 3.2812 2.2097 3.283 0 0 1-2.2109-3.2812 2.2097 3.283 0 0 1 2.2109-3.2832zm7.9356 0a2.2097 3.283 0 0 1 2.2109 3.2832 2.2097 3.283 0 0 1-2.2109 3.2812 2.2097 3.283 0 0 1-2.209-3.2812 2.2097 3.283 0 0 1 2.209-3.2832zm37.049 0a2.2097 3.283 0 0 1 2.209 3.2832 2.2097 3.283 0 0 1-2.209 3.2812 2.2097 3.283 0 0 1-2.2109-3.2812 2.2097 3.283 0 0 1 2.2109-3.2832zm7.2969 0a2.2097 3.283 0 0 1 2.209 3.2832 2.2097 3.283 0 0 1-2.209 3.2812 2.2097 3.283 0 0 1-2.209-3.2812 2.2097 3.283 0 0 1 2.209-3.2832zm7.918 0a2.2097 3.283 0 0 1 2.209 3.2832 2.2097 3.283 0 0 1-2.209 3.2812 2.2097 3.283 0 0 1-2.209-3.2812 2.2097 3.283 0 0 1 2.209-3.2832zm7.4492 0a2.2097 3.283 0 0 1 2.2109 3.2832 2.2097 3.283 0 0 1-2.2109 3.2812 2.2097 3.283 0 0 1-2.209-3.2812 2.2097 3.283 0 0 1 2.209-3.2832zm8.082 0a2.2097 3.283 0 0 1 2.209 3.2832 2.2097 3.283 0 0 1-2.209 3.2812 2.2097 3.283 0 0 1-2.209-3.2812 2.2097 3.283 0 0 1 2.209-3.2832zm8.1055 0a2.2097 3.283 0 0 1 2.2109 3.2832 2.2097 3.283 0 0 1-2.2109 3.2812 2.2097 3.283 0 0 1-2.209-3.2812 2.2097 3.283 0 0 1 2.209-3.2832zm7.2988 0a2.2097 3.283 0 0 1 2.209 3.2832 2.2097 3.283 0 0 1-2.209 3.2812 2.2097 3.283 0 0 1-2.2109-3.2812 2.2097 3.283 0 0 1 2.2109-3.2832zm7.916 0a2.2097 3.283 0 0 1 2.2109 3.2832 2.2097 3.283 0 0 1-2.2109 3.2812 2.2097 3.283 0 0 1-2.209-3.2812 2.2097 3.283 0 0 1 2.209-3.2832zm7.4512 0a2.2097 3.283 0 0 1 2.209 3.2832 2.2097 3.283 0 0 1-2.209 3.2812 2.2097 3.283 0 0 1-2.2109-3.2812 2.2097 3.283 0 0 1 2.2109-3.2832zm8.0801 0a2.2097 3.283 0 0 1 2.2109 3.2832 2.2097 3.283 0 0 1-2.2109 3.2812 2.2097 3.283 0 0 1-2.209-3.2812 2.2097 3.283 0 0 1 2.209-3.2832zm7.7422 0a2.2097 3.283 0 0 1 2.209 3.2832 2.2097 3.283 0 0 1-2.209 3.2812 2.2097 3.283 0 0 1-2.2109-3.2812 2.2097 3.283 0 0 1 2.2109-3.2832zm7.2969 0a2.2097 3.283 0 0 1 2.209 3.2832 2.2097 3.283 0 0 1-2.209 3.2812 2.2097 3.283 0 0 1-2.209-3.2812 2.2097 3.283 0 0 1 2.209-3.2832zm7.918 0a2.2097 3.283 0 0 1 2.209 3.2832 2.2097 3.283 0 0 1-2.209 3.2812 2.2097 3.283 0 0 1-2.209-3.2812 2.2097 3.283 0 0 1 2.209-3.2832zm7.4492 0a2.2097 3.283 0 0 1 2.2109 3.2832 2.2097 3.283 0 0 1-2.2109 3.2812 2.2097 3.283 0 0 1-2.209-3.2812 2.2097 3.283 0 0 1 2.209-3.2832zm8.082 0a2.2097 3.283 0 0 1 2.209 3.2832 2.2097 3.283 0 0 1-2.209 3.2812 2.2097 3.283 0 0 1-2.2109-3.2812 2.2097 3.283 0 0 1 2.2109-3.2832zm8.1055 0a2.2097 3.283 0 0 1 2.2109 3.2832 2.2097 3.283 0 0 1-2.2109 3.2812 2.2097 3.283 0 0 1-2.209-3.2812 2.2097 3.283 0 0 1 2.209-3.2832zm7.2988 0a2.2097 3.283 0 0 1 2.209 3.2832 2.2097 3.283 0 0 1-2.209 3.2812 2.2097 3.283 0 0 1-2.2109-3.2812 2.2097 3.283 0 0 1 2.2109-3.2832zm7.916 0a2.2097 3.283 0 0 1 2.2109 3.2832 2.2097 3.283 0 0 1-2.2109 3.2812 2.2097 3.283 0 0 1-2.209-3.2812 2.2097 3.283 0 0 1 2.209-3.2832zm7.4512 0a2.2097 3.283 0 0 1 2.209 3.2832 2.2097 3.283 0 0 1-2.209 3.2812 2.2097 3.283 0 0 1-2.2109-3.2812 2.2097 3.283 0 0 1 2.2109-3.2832zm8.0801 0a2.2097 3.283 0 0 1 2.2109 3.2832 2.2097 3.283 0 0 1-2.2109 3.2812 2.2097 3.283 0 0 1-2.209-3.2812 2.2097 3.283 0 0 1 2.209-3.2832zm8.4356 0a2.2097 3.283 0 0 1 2.209 3.2832 2.2097 3.283 0 0 1-2.209 3.2812 2.2097 3.283 0 0 1-2.2109-3.2812 2.2097 3.283 0 0 1 2.2109-3.2832zm7.2969 0a2.2097 3.283 0 0 1 2.209 3.2832 2.2097 3.283 0 0 1-2.209 3.2812 2.2097 3.283 0 0 1-2.209-3.2812 2.2097 3.283 0 0 1 2.209-3.2832zm7.918 0a2.2097 3.283 0 0 1 2.209 3.2832 2.2097 3.283 0 0 1-2.209 3.2812 2.2097 3.283 0 0 1-2.209-3.2812 2.2097 3.283 0 0 1 2.209-3.2832zm6.832 0a2.2097 3.283 0 0 1 2.2109 3.2832 2.2097 3.283 0 0 1-2.2109 3.2812 2.2097 3.283 0 0 1-2.209-3.2812 2.2097 3.283 0 0 1 2.209-3.2832zm6.8809 0a2.2097 3.283 0 0 1 2.2109 3.2832 2.2097 3.283 0 0 1-2.2109 3.2812 2.2097 3.283 0 0 1-2.209-3.2812 2.2097 3.283 0 0 1 2.209-3.2832zm32.59 0a2.2097 3.283 0 0 1 2.209 3.2832 2.2097 3.283 0 0 1-2.209 3.2812 2.2097 3.283 0 0 1-2.2109-3.2812 2.2097 3.283 0 0 1 2.2109-3.2832zm8.0801 0a2.2097 3.283 0 0 1 2.2109 3.2832 2.2097 3.283 0 0 1-2.2109 3.2812 2.2097 3.283 0 0 1-2.209-3.2812 2.2097 3.283 0 0 1 2.209-3.2832zm7.8359 0a2.2097 3.283 0 0 1 2.2109 3.2832 2.2097 3.283 0 0 1-2.2109 3.2812 2.2097 3.283 0 0 1-2.209-3.2812 2.2097 3.283 0 0 1 2.209-3.2832zm8.082 0a2.2097 3.283 0 0 1 2.209 3.2832 2.2097 3.283 0 0 1-2.209 3.2812 2.2097 3.283 0 0 1-2.209-3.2812 2.2097 3.283 0 0 1 2.209-3.2832zm-593.48 0.42774a2.2097 3.283 0 0 1 2.2109 3.2832 2.2097 3.283 0 0 1-2.2109 3.2832 2.2097 3.283 0 0 1-2.209-3.2832 2.2097 3.283 0 0 1 2.209-3.2832z" stroke="#000" stroke-width="1px"/>
</svg>
