<?xml version="1.0" encoding="UTF-8"?>
<svg width="250mm" height="100mm" version="1.1" viewBox="0 0 250 100" xmlns="http://www.w3.org/2000/svg" xmlns:cc="http://creativecommons.org/ns#" xmlns:dc="http://purl.org/dc/elements/1.1/" xmlns:rdf="http://www.w3.org/1999/02/22-rdf-syntax-ns#">
<metadata>
<rdf:RDF>
<cc:Work rdf:about="">
<dc:format>image/svg+xml</dc:format>
<dc:type rdf:resource="http://purl.org/dc/dcmitype/StillImage"/>
<dc:title/>
</cc:Work>
</rdf:RDF>
</metadata>
<path d="m230.41 19.343c-0.7704-0.01443-1.5187 0.08468-2.1652 0.70537l-22.918 22.851c-0.76651 0.72394-1.5311 1.2722-2.3549 1.2862-0.97796-0.03336-3.4075-0.51411-7.0992-0.56792l-3.7089 0.08372c-0.88666 0.19585-1.5776 0.52183-1.5363 1.3363l0.0832 8.8195c0.13183 0.57247 3.8494 1.8884 5.8631 1.9378v1.6707l-34.276-0.93585-38.615-0.14056 0.88314-1.9296h-1.0392l-1.6428 1.9229-42.478-0.15503c-1.1243-0.39311-2.2517-0.73667-3.3999-0.73328l-3.4075-0.06666c-0.44206 0.0084-0.62547 0.36187-0.76583 0.77255l-19.446-0.0708c-6.1488 0.072672-34.988-0.96966-42.132 8.9963-1.664 1.2699-4.2383 1.8895-4.3055 4.3-0.14116 4.2087 14.044 8.1763 29.072 9.4892l-0.03359 2.204 1.8427-0.02377 1.2516 1.6304 0.07131 0.49609-0.68521 0.6139-1.9606-0.16536-0.07131 0.49609 2.0081 0.16536 0.49609 0.73225-0.0052 0.18448a1.9017 1.9017 0 0 0-1.6485 1.8825 1.9017 1.9017 0 0 0 1.9017 1.9017 1.9017 1.9017 0 0 0 1.9017-1.9017 1.9017 1.9017 0 0 0-1.1069-1.7249l-0.0031-0.22376 0.47233-0.42529 0.49609-0.04702 0.0708-0.82681-0.5431-0.09457-0.44907-0.35448-0.04702-0.30697 0.47233-0.09457 0.04703-0.80305 0.35448-0.37827v-0.30697l0.7798-0.04754v-2.2205c0.6642 0.0272 1.3266 0.05019 1.9864 0.06563l1.5802 1.9425 0.96892 0.04703-0.95032-1.9647c0.096 8.21e-4 0.19303 0.0036 0.28887 0.0041l49.138 0.46198-0.09973 4.0923c0.06408 0.9704 3.9978 1.3142 5.2953 1.3198l5.7128-0.05012c1.3648-0.02028 3.0326-0.15109 7.0682-0.94566l-0.0233-0.25993-0.67333-0.09457 0.0114-0.68471 8.6465-1.5709 0.0589-0.56689 5.4689-1.1813 4.6069-0.02325 0.0253 3.0384 1.42 0.01705-0.0264 1.2113a3.071 3.071 0 0 0-2.2701-1.0072 3.071 3.071 0 0 0-3.0704 3.071 3.071 3.071 0 0 0 3.0704 3.0705 3.071 3.071 0 0 0 3.0133-2.481l0.37724-0.0031a3.071 3.071 0 0 0 3.0117 2.4841 3.071 3.071 0 0 0 3.071-3.0705 3.071 3.071 0 0 0-3.071-3.071 3.071 3.071 0 0 0-2.4468 1.2216l-0.15554-0.18965v-0.93585l1.0526 0.01705 0.50075-0.68521 3.9925-0.11679 0.062-2.6148 23.972-0.12196 13.653-0.27699 1.6841 2.2122 0.86867 0.01654-1.0909-2.2587 3.5001-0.07079c8.2837-0.46989 16.915-1.7845 26.08-4.3939 9.0375-2.4907 18.155-4.9357 26.34-7.9136l0.047-6.2367 2.3621-1.6774-11.103 0.44907-1.2283-2.2443 6.6378 0.0708 2.4572-0.80305-0.42529-0.44907 0.0264-0.79787 6.7484-0.86867-0.0667-1.2025 6.4812-1.0692-6.4812-1.804v-0.80199l5.7464 0.06666-0.73482-2.3383v-3.5414l-13.631-1.403 10.089-22.517-9.0206-0.46767c-0.25877-0.0149-0.51784-0.0324-0.77462-0.03721zm-213.05 43.923-0.0057 2.5456-2.6778-0.18138 0.91778-2.358 1.7658-0.0062zm-2.4546 0.01344-0.81028 2.2799-1.5952-0.82681 1.0867-1.3663 1.3188-0.08681zm103.54 0.13746a0.43849 0.43849 0 0 1 0.4382 0.43873 0.43849 0.43849 0 0 1-0.4382 0.4382 0.43849 0.43849 0 0 1-0.43873-0.4382 0.43849 0.43849 0 0 1 0.43873-0.43873zm-105.5 0.01447-1.0036 1.1518-0.95704-0.0057 1.1105-1.1105 0.85007-0.03565zm177.04 0.07751a0.43849 0.43849 0 0 1 0.43873 0.43873 0.43849 0.43849 0 0 1-0.43873 0.4382 0.43849 0.43849 0 0 1-0.43819-0.4382 0.43849 0.43849 0 0 1 0.43819-0.43873zm-165.22 0.14624a0.43849 0.43849 0 0 1 0.4382 0.4382 0.43849 0.43849 0 0 1-0.4382 0.43873 0.43849 0.43849 0 0 1-0.43873-0.43873 0.43849 0.43849 0 0 1 0.43873-0.4382zm37.554 0.0124a0.43849 0.43849 0 0 1 0.43873 0.43873 0.43849 0.43849 0 0 1-0.43873 0.4382 0.43849 0.43849 0 0 1-0.4382-0.4382 0.43849 0.43849 0 0 1 0.4382-0.43873zm-31.104 1.0991a0.58464 0.86862 0 0 1 0.58496 0.86867 0.58464 0.86862 0 0 1-0.58496 0.86814 0.58464 0.86862 0 0 1-0.58446-0.86814 0.58464 0.86862 0 0 1 0.58446-0.86867zm1.9311 0a0.58464 0.86862 0 0 1 0.58446 0.86867 0.58464 0.86862 0 0 1-0.58446 0.86814 0.58464 0.86862 0 0 1-0.58496-0.86814 0.58464 0.86862 0 0 1 0.58496-0.86867zm2.0949 0a0.58464 0.86862 0 0 1 0.58446 0.86867 0.58464 0.86862 0 0 1-0.58446 0.86814 0.58464 0.86862 0 0 1-0.58496-0.86814 0.58464 0.86862 0 0 1 0.58496-0.86867zm1.9709 0a0.58464 0.86862 0 0 1 0.58446 0.86867 0.58464 0.86862 0 0 1-0.58446 0.86814 0.58464 0.86862 0 0 1-0.58496-0.86814 0.58464 0.86862 0 0 1 0.58496-0.86867zm2.1378 0a0.58464 0.86862 0 0 1 0.58496 0.86867 0.58464 0.86862 0 0 1-0.58496 0.86814 0.58464 0.86862 0 0 1-0.58446-0.86814 0.58464 0.86862 0 0 1 0.58446-0.86867zm2.1151 0a0.58464 0.86862 0 0 1 0.58496 0.86867 0.58464 0.86862 0 0 1-0.58496 0.86814 0.58464 0.86862 0 0 1-0.58446-0.86814 0.58464 0.86862 0 0 1 0.58446-0.86867zm1.9311 0a0.58464 0.86862 0 0 1 0.58446 0.86867 0.58464 0.86862 0 0 1-0.58446 0.86814 0.58464 0.86862 0 0 1-0.58496-0.86814 0.58464 0.86862 0 0 1 0.58496-0.86867zm2.0949 0a0.58464 0.86862 0 0 1 0.58446 0.86867 0.58464 0.86862 0 0 1-0.58446 0.86814 0.58464 0.86862 0 0 1-0.58496-0.86814 0.58464 0.86862 0 0 1 0.58496-0.86867zm1.9709 0a0.58464 0.86862 0 0 1 0.58446 0.86867 0.58464 0.86862 0 0 1-0.58446 0.86814 0.58464 0.86862 0 0 1-0.58446-0.86814 0.58464 0.86862 0 0 1 0.58446-0.86867zm2.1383 0a0.58464 0.86862 0 0 1 0.58446 0.86867 0.58464 0.86862 0 0 1-0.58446 0.86814 0.58464 0.86862 0 0 1-0.58496-0.86814 0.58464 0.86862 0 0 1 0.58496-0.86867zm2.1647 0a0.58464 0.86862 0 0 1 0.58496 0.86867 0.58464 0.86862 0 0 1-0.58496 0.86814 0.58464 0.86862 0 0 1-0.58446-0.86814 0.58464 0.86862 0 0 1 0.58446-0.86867zm1.9311 0a0.58464 0.86862 0 0 1 0.58446 0.86867 0.58464 0.86862 0 0 1-0.58446 0.86814 0.58464 0.86862 0 0 1-0.58496-0.86814 0.58464 0.86862 0 0 1 0.58496-0.86867zm2.0949 0a0.58464 0.86862 0 0 1 0.58446 0.86867 0.58464 0.86862 0 0 1-0.58446 0.86814 0.58464 0.86862 0 0 1-0.58496-0.86814 0.58464 0.86862 0 0 1 0.58496-0.86867zm11.781 0a0.58464 0.86862 0 0 1 0.58446 0.86867 0.58464 0.86862 0 0 1-0.58446 0.86814 0.58464 0.86862 0 0 1-0.58496-0.86814 0.58464 0.86862 0 0 1 0.58496-0.86867zm1.9306 0a0.58464 0.86862 0 0 1 0.58496 0.86867 0.58464 0.86862 0 0 1-0.58496 0.86814 0.58464 0.86862 0 0 1-0.58446-0.86814 0.58464 0.86862 0 0 1 0.58446-0.86867zm2.0272 0a0.58464 0.86862 0 0 1 0.58496 0.86867 0.58464 0.86862 0 0 1-0.58496 0.86814 0.58464 0.86862 0 0 1-0.58446-0.86814 0.58464 0.86862 0 0 1 0.58446-0.86867zm1.9311 0a0.58464 0.86862 0 0 1 0.58446 0.86867 0.58464 0.86862 0 0 1-0.58446 0.86814 0.58464 0.86862 0 0 1-0.58496-0.86814 0.58464 0.86862 0 0 1 0.58496-0.86867zm2.0949 0a0.58464 0.86862 0 0 1 0.58446 0.86867 0.58464 0.86862 0 0 1-0.58446 0.86814 0.58464 0.86862 0 0 1-0.58496-0.86814 0.58464 0.86862 0 0 1 0.58496-0.86867zm1.9709 0a0.58464 0.86862 0 0 1 0.58446 0.86867 0.58464 0.86862 0 0 1-0.58446 0.86814 0.58464 0.86862 0 0 1-0.58446-0.86814 0.58464 0.86862 0 0 1 0.58446-0.86867zm2.1383 0a0.58464 0.86862 0 0 1 0.58446 0.86867 0.58464 0.86862 0 0 1-0.58446 0.86814 0.58464 0.86862 0 0 1-0.58496-0.86814 0.58464 0.86862 0 0 1 0.58496-0.86867zm2.1446 0a0.58464 0.86862 0 0 1 0.58446 0.86867 0.58464 0.86862 0 0 1-0.58446 0.86814 0.58464 0.86862 0 0 1-0.58496-0.86814 0.58464 0.86862 0 0 1 0.58496-0.86867zm1.9306 0a0.58464 0.86862 0 0 1 0.58496 0.86867 0.58464 0.86862 0 0 1-0.58496 0.86814 0.58464 0.86862 0 0 1-0.58446-0.86814 0.58464 0.86862 0 0 1 0.58446-0.86867zm2.0949 0a0.58464 0.86862 0 0 1 0.58496 0.86867 0.58464 0.86862 0 0 1-0.58496 0.86814 0.58464 0.86862 0 0 1-0.58446-0.86814 0.58464 0.86862 0 0 1 0.58446-0.86867zm1.9709 0a0.58464 0.86862 0 0 1 0.58496 0.86867 0.58464 0.86862 0 0 1-0.58496 0.86814 0.58464 0.86862 0 0 1-0.58446-0.86814 0.58464 0.86862 0 0 1 0.58446-0.86867zm2.1383 0a0.58464 0.86862 0 0 1 0.58446 0.86867 0.58464 0.86862 0 0 1-0.58446 0.86814 0.58464 0.86862 0 0 1-0.58446-0.86814 0.58464 0.86862 0 0 1 0.58446-0.86867zm2.205 0a0.58464 0.86862 0 0 1 0.58446 0.86867 0.58464 0.86862 0 0 1-0.58446 0.86814 0.58464 0.86862 0 0 1-0.58446-0.86814 0.58464 0.86862 0 0 1 0.58446-0.86867zm1.9306 0a0.58464 0.86862 0 0 1 0.58496 0.86867 0.58464 0.86862 0 0 1-0.58496 0.86814 0.58464 0.86862 0 0 1-0.58446-0.86814 0.58464 0.86862 0 0 1 0.58446-0.86867zm2.0949 0a0.58464 0.86862 0 0 1 0.58496 0.86867 0.58464 0.86862 0 0 1-0.58496 0.86814 0.58464 0.86862 0 0 1-0.58446-0.86814 0.58464 0.86862 0 0 1 0.58446-0.86867zm1.9714 0a0.58464 0.86862 0 0 1 0.58446 0.86867 0.58464 0.86862 0 0 1-0.58446 0.86814 0.58464 0.86862 0 0 1-0.58496-0.86814 0.58464 0.86862 0 0 1 0.58496-0.86867zm2.1378 0a0.58464 0.86862 0 0 1 0.58496 0.86867 0.58464 0.86862 0 0 1-0.58496 0.86814 0.58464 0.86862 0 0 1-0.58446-0.86814 0.58464 0.86862 0 0 1 0.58446-0.86867zm2.145 0a0.58464 0.86862 0 0 1 0.58446 0.86867 0.58464 0.86862 0 0 1-0.58446 0.86814 0.58464 0.86862 0 0 1-0.58496-0.86814 0.58464 0.86862 0 0 1 0.58496-0.86867zm1.9306 0a0.58464 0.86862 0 0 1 0.58445 0.86867 0.58464 0.86862 0 0 1-0.58445 0.86814 0.58464 0.86862 0 0 1-0.58446-0.86814 0.58464 0.86862 0 0 1 0.58446-0.86867zm2.0949 0a0.58464 0.86862 0 0 1 0.58446 0.86867 0.58464 0.86862 0 0 1-0.58446 0.86814 0.58464 0.86862 0 0 1-0.58446-0.86814 0.58464 0.86862 0 0 1 0.58446-0.86867zm1.9709 0a0.58464 0.86862 0 0 1 0.58496 0.86867 0.58464 0.86862 0 0 1-0.58496 0.86814 0.58464 0.86862 0 0 1-0.58446-0.86814 0.58464 0.86862 0 0 1 0.58446-0.86867zm2.1383 0a0.58464 0.86862 0 0 1 0.58446 0.86867 0.58464 0.86862 0 0 1-0.58446 0.86814 0.58464 0.86862 0 0 1-0.58495-0.86814 0.58464 0.86862 0 0 1 0.58495-0.86867zm2.0996 0a0.58464 0.86862 0 0 1 0.58496 0.86867 0.58464 0.86862 0 0 1-0.58496 0.86814 0.58464 0.86862 0 0 1-0.58446-0.86814 0.58464 0.86862 0 0 1 0.58446-0.86867zm9.8024 0a0.58464 0.86862 0 0 1 0.58446 0.86867 0.58464 0.86862 0 0 1-0.58446 0.86814 0.58464 0.86862 0 0 1-0.58496-0.86814 0.58464 0.86862 0 0 1 0.58496-0.86867zm1.9306 0a0.58464 0.86862 0 0 1 0.58446 0.86867 0.58464 0.86862 0 0 1-0.58446 0.86814 0.58464 0.86862 0 0 1-0.58445-0.86814 0.58464 0.86862 0 0 1 0.58445-0.86867zm2.095 0a0.58464 0.86862 0 0 1 0.58446 0.86867 0.58464 0.86862 0 0 1-0.58446 0.86814 0.58464 0.86862 0 0 1-0.58446-0.86814 0.58464 0.86862 0 0 1 0.58446-0.86867zm1.9709 0a0.58464 0.86862 0 0 1 0.58496 0.86867 0.58464 0.86862 0 0 1-0.58496 0.86814 0.58464 0.86862 0 0 1-0.58446-0.86814 0.58464 0.86862 0 0 1 0.58446-0.86867zm2.1383 0a0.58464 0.86862 0 0 1 0.58446 0.86867 0.58464 0.86862 0 0 1-0.58446 0.86814 0.58464 0.86862 0 0 1-0.58445-0.86814 0.58464 0.86862 0 0 1 0.58445-0.86867zm2.1446 0a0.58464 0.86862 0 0 1 0.58496 0.86867 0.58464 0.86862 0 0 1-0.58496 0.86814 0.58464 0.86862 0 0 1-0.58446-0.86814 0.58464 0.86862 0 0 1 0.58446-0.86867zm1.9311 0a0.58464 0.86862 0 0 1 0.58446 0.86867 0.58464 0.86862 0 0 1-0.58446 0.86814 0.58464 0.86862 0 0 1-0.58496-0.86814 0.58464 0.86862 0 0 1 0.58496-0.86867zm2.0944 0a0.58464 0.86862 0 0 1 0.58496 0.86867 0.58464 0.86862 0 0 1-0.58496 0.86814 0.58464 0.86862 0 0 1-0.58446-0.86814 0.58464 0.86862 0 0 1 0.58446-0.86867zm1.9714 0a0.58464 0.86862 0 0 1 0.58445 0.86867 0.58464 0.86862 0 0 1-0.58445 0.86814 0.58464 0.86862 0 0 1-0.58496-0.86814 0.58464 0.86862 0 0 1 0.58496-0.86867zm2.1378 0a0.58464 0.86862 0 0 1 0.58496 0.86867 0.58464 0.86862 0 0 1-0.58496 0.86814 0.58464 0.86862 0 0 1-0.58446-0.86814 0.58464 0.86862 0 0 1 0.58446-0.86867zm2.0484 0a0.58464 0.86862 0 0 1 0.58446 0.86867 0.58464 0.86862 0 0 1-0.58446 0.86814 0.58464 0.86862 0 0 1-0.58496-0.86814 0.58464 0.86862 0 0 1 0.58496-0.86867zm1.9306 0a0.58464 0.86862 0 0 1 0.58446 0.86867 0.58464 0.86862 0 0 1-0.58446 0.86814 0.58464 0.86862 0 0 1-0.58445-0.86814 0.58464 0.86862 0 0 1 0.58445-0.86867zm2.095 0a0.58464 0.86862 0 0 1 0.58446 0.86867 0.58464 0.86862 0 0 1-0.58446 0.86814 0.58464 0.86862 0 0 1-0.58446-0.86814 0.58464 0.86862 0 0 1 0.58446-0.86867zm1.9709 0a0.58464 0.86862 0 0 1 0.58496 0.86867 0.58464 0.86862 0 0 1-0.58496 0.86814 0.58464 0.86862 0 0 1-0.58446-0.86814 0.58464 0.86862 0 0 1 0.58446-0.86867zm2.1383 0a0.58464 0.86862 0 0 1 0.58446 0.86867 0.58464 0.86862 0 0 1-0.58446 0.86814 0.58464 0.86862 0 0 1-0.58496-0.86814 0.58464 0.86862 0 0 1 0.58496-0.86867zm2.1446 0a0.58464 0.86862 0 0 1 0.58496 0.86867 0.58464 0.86862 0 0 1-0.58496 0.86814 0.58464 0.86862 0 0 1-0.58446-0.86814 0.58464 0.86862 0 0 1 0.58446-0.86867zm1.9311 0a0.58464 0.86862 0 0 1 0.58446 0.86867 0.58464 0.86862 0 0 1-0.58446 0.86814 0.58464 0.86862 0 0 1-0.58496-0.86814 0.58464 0.86862 0 0 1 0.58496-0.86867zm2.0944 0a0.58464 0.86862 0 0 1 0.58496 0.86867 0.58464 0.86862 0 0 1-0.58496 0.86814 0.58464 0.86862 0 0 1-0.58446-0.86814 0.58464 0.86862 0 0 1 0.58446-0.86867zm1.9714 0a0.58464 0.86862 0 0 1 0.58445 0.86867 0.58464 0.86862 0 0 1-0.58445 0.86814 0.58464 0.86862 0 0 1-0.58496-0.86814 0.58464 0.86862 0 0 1 0.58496-0.86867zm2.1378 0a0.58464 0.86862 0 0 1 0.58496 0.86867 0.58464 0.86862 0 0 1-0.58496 0.86814 0.58464 0.86862 0 0 1-0.58446-0.86814 0.58464 0.86862 0 0 1 0.58446-0.86867zm2.2319 0a0.58464 0.86862 0 0 1 0.58446 0.86867 0.58464 0.86862 0 0 1-0.58446 0.86814 0.58464 0.86862 0 0 1-0.58496-0.86814 0.58464 0.86862 0 0 1 0.58496-0.86867zm1.9306 0a0.58464 0.86862 0 0 1 0.58445 0.86867 0.58464 0.86862 0 0 1-0.58445 0.86814 0.58464 0.86862 0 0 1-0.58446-0.86814 0.58464 0.86862 0 0 1 0.58446-0.86867zm2.0949 0a0.58464 0.86862 0 0 1 0.58446 0.86867 0.58464 0.86862 0 0 1-0.58446 0.86814 0.58464 0.86862 0 0 1-0.58446-0.86814 0.58464 0.86862 0 0 1 0.58446-0.86867zm1.8076 0a0.58464 0.86862 0 0 1 0.58496 0.86867 0.58464 0.86862 0 0 1-0.58496 0.86814 0.58464 0.86862 0 0 1-0.58446-0.86814 0.58464 0.86862 0 0 1 0.58446-0.86867zm1.8206 0a0.58464 0.86862 0 0 1 0.58496 0.86867 0.58464 0.86862 0 0 1-0.58496 0.86814 0.58464 0.86862 0 0 1-0.58446-0.86814 0.58464 0.86862 0 0 1 0.58446-0.86867zm8.6227 0a0.58464 0.86862 0 0 1 0.58446 0.86867 0.58464 0.86862 0 0 1-0.58446 0.86814 0.58464 0.86862 0 0 1-0.58496-0.86814 0.58464 0.86862 0 0 1 0.58496-0.86867zm2.1378 0a0.58464 0.86862 0 0 1 0.58496 0.86867 0.58464 0.86862 0 0 1-0.58496 0.86814 0.58464 0.86862 0 0 1-0.58445-0.86814 0.58464 0.86862 0 0 1 0.58445-0.86867zm2.0732 0a0.58464 0.86862 0 0 1 0.58496 0.86867 0.58464 0.86862 0 0 1-0.58496 0.86814 0.58464 0.86862 0 0 1-0.58446-0.86814 0.58464 0.86862 0 0 1 0.58446-0.86867zm2.1383 0a0.58464 0.86862 0 0 1 0.58446 0.86867 0.58464 0.86862 0 0 1-0.58446 0.86814 0.58464 0.86862 0 0 1-0.58446-0.86814 0.58464 0.86862 0 0 1 0.58446-0.86867zm-157.02 0.11318a0.58464 0.86862 0 0 1 0.58496 0.86867 0.58464 0.86862 0 0 1-0.58496 0.86867 0.58464 0.86862 0 0 1-0.58446-0.86867 0.58464 0.86862 0 0 1 0.58446-0.86867z" stroke="#000" stroke-width=".26458px"/>
</svg>
