<?xml version="1.0" encoding="UTF-8"?>
<svg width="250mm" height="100mm" version="1.1" viewBox="0 0 250 100" xmlns="http://www.w3.org/2000/svg" xmlns:cc="http://creativecommons.org/ns#" xmlns:dc="http://purl.org/dc/elements/1.1/" xmlns:rdf="http://www.w3.org/1999/02/22-rdf-syntax-ns#">
<metadata>
<rdf:RDF>
<cc:Work rdf:about="">
<dc:format>image/svg+xml</dc:format>
<dc:type rdf:resource="http://purl.org/dc/dcmitype/StillImage"/>
<dc:title/>
</cc:Work>
</rdf:RDF>
</metadata>
<path transform="scale(.26458)" d="m860.89 34.203-0.02735 4.9688-1.5762 0.037109-0.15234 5.0723c-3.7831 0.006425-7.0786 1.0605-8.959 2.957l-85.24 89.793c-22.216 19.6-35.016 20.998-45.961 20.709l-118.19-6.3144c-19.699-3.532-40.279-7.5842-61.117-11.77-3.5451-2.4095-6.2382-5.0507-2.082-9.5606l19.018-23.303-32.295 29.771c-59.979-12.122-121.01-24.631-169.29-28.775-3.083-1.5408-5.9526-3.635-9.5781-3.7656l-7.1445 0.08984v2.1875h-0.66796-0.71485l-0.98242-4.0625-4.1523 0.08984-4.1816 4.0195c-0.27631-0.01024-0.55049-0.02415-0.82618-0.03516l-10.037-10.637 8.2148-1.9648-14.91 0.22461 7.6777 7.6328c2.6372 2.9284 0.59699 3.8809-2.6426 4.3262-21.067-0.35325-47.77 3.526-117.34 43.764l-115.66 6.3145c-7.8132 0.1833-10.581 3.2808-11.363 7.8281l-1.0078-0.11328-0.001953-0.01367c-1.0262-22.058-1.8391-44.223-4.7012-65.363-3.6992 21.527-2.9533 43.547-2.5 65.535v0.14258c-14.754 2.4582-31.13 13.78-30.893 16.285 0.068466 2.4147 16.694 13.701 30.826 17.211 0.88067 37.818 2.503 72.386 7.1191 93.861 5.9339-16.748 4.7212-48.341 4.8223-77.203 0.46598 0.52262 0.95904 1.0273 1.5176 1.4883l12.369 11.43-0.125 13.133h7.6387l-0.12695 2.7773h4.293l0.064454-2.4609h4.3555 1.0098l0.12696 2.5879 3.4726-0.0625 0.0625-1.832 14.332-0.5039c4.6762 1.8896 10.943 3.691 18.326 5.4062l-4.252 32.486-3.2148 0.24023-1.084 4.1406a19.003 19.003 0 0 0-17.227 18.902 19.003 19.003 0 0 0 19.004 19.004 19.003 19.003 0 0 0 19.004-19.004 19.003 19.003 0 0 0-7.2168-14.879l-0.11524-10.439 16.691-0.49609 1.4297-2.5469-16.25-11.557 1.1211-14.127c58.991 11.992 172.63 19.189 198.42 19.764 0.10746 0.00343 0.2148 0.00634 0.32226 0.00977l0.55274 19.533a26.607 26.607 0 0 0-23.158 26.352 26.607 26.607 0 0 0 26.607 26.607 26.607 26.607 0 0 0 26.605-26.607 26.607 26.607 0 0 0-11.303-21.748c0.78155-1.2998 1.5324-2.9376 2.1973-5.0371 5.923-0.33981 7.9828-3.5045 9.1055-7.1426l1.498-11.031c42.434 1.0946 84.699 1.511 126.45-0.13086-2.0663 4.8576-4.555 9.187-9.2852 10.715l0.35743 2.4102 4.6426-0.53516c5.5032-1.518 8.1062-8.3525 11.785-13.215l181.68-11.48c-0.47459 5.0971 1.3208 4.6053 2.9668 4.4824l22.098-3.1562c2.7319-0.41136 1.7459-1.7534 2.0195-2.7793l82.75-6.3516 6.25 4.4648 1.5625-0.17578-0.33203 0.60547c1.5195 0.83019 3.2954 2.1985 4.9824 3.2852 0.84351 0.54332 1.6682 1.0175 2.459 1.3223 0.79076 0.30471 1.565 0.4545 2.2891 0.23633l0.02929-0.01562 0.03125-0.00782c0.55847-0.25266 1.0356-0.53172 1.373-0.9375 0.33751-0.40577 0.49167-0.95167 0.41211-1.5352-0.13885-1.0183-0.87123-2.235-2.209-3.9746l0.47461-0.05274-2.6797-3.9297c13.119-1.7339 26.239-1.7653 39.357-8.2109l47.729-4.7988-20.455-18.939c-7.1552-6.337-14.31-5.6675-21.465-5.5566l0.25195-6.3145 47.887-140.02 5.2676-0.53711 0.08789-4.4629-3.0352-0.35742 4.6797-14.312-54.553 0.089844 0.05273-4.9746h-1.25l-0.08984-5.1777h-4.1074zm-578.05 78.205-39.521 55.559c-18.36-0.41908-29.683-8.5091-40.531-17.551 25.617-14.165 52.06-27.17 80.053-38.008zm5.5918 11.871c0.4981-0.01668 1.1046 0.02182 1.8594 0.125l66.67 7.9551c4.9202 0.65361 11.097 0.33965 10.984 7.4492l-2.0195 30.305c-0.19666 6.7684-2.809 8.5456-6.5664 7.9551l-89.137-6.4473c-10.558-1.2424-8.8202-9.1172-5.5644-14.26l21.086-31.693c0.66789-0.79058 1.1932-1.3386 2.6875-1.3887zm96.023 12.719c0.84779 0.01432 1.894 0.14196 3.1894 0.41211l49.119 8.082c5.0295 0.99012 7.265 3.1934 6.8184 6.5644l-1.5156 27.527c0.06818 2.8658-0.75554 4.7642-3.5352 4.5449l-56.695-4.418c-4.6106-0.88722-4.1637-3.7007-3.9141-6.4395l2.5254-32.451c0.38407-1.8178 0.33406-3.8843 4.0078-3.8223zm84.232 17.086c0.27065-0.01193 0.54756-0.00798 0.83008 0.00977 0.7534 0.04732 1.5436 0.18923 2.3477 0.36328l38.639 12.879c1.7997 0.63532 2.6146 1.4257 2.6523 2.7773l0.125 8.209c-0.00317 2.618-0.55963 4.6029-2.9043 4.5449l-44.066 0.88281c-3.5118-0.16218-3.9399-2.0061-3.7891-4.166l1.8945-21.719c0.80471-2.8082 2.3769-3.6977 4.2715-3.7812zm352.88 97.805c1.5569 1.9825 2.2839 3.2782 2.3789 3.9746 0.04989 0.36499-0.01452 0.54679-0.1914 0.75977-0.17084 0.20538-0.50097 0.42687-0.9668 0.64257-0.40237 0.11505-0.9541 0.05153-1.625-0.20703-0.6799-0.26199-1.4571-0.70662-2.2734-1.2324-1.5159-0.97638-3.149-2.2179-4.6836-3.1074l7.3613-0.83008zm-673.52 13.621 12.068 8.3164-16.299-0.36133 4.2305-7.9551z" stroke="#000" stroke-width="1px"/>
</svg>
