<?xml version="1.0" encoding="UTF-8"?>
<svg width="250mm" height="100mm" version="1.1" viewBox="0 0 250 100" xmlns="http://www.w3.org/2000/svg" xmlns:cc="http://creativecommons.org/ns#" xmlns:dc="http://purl.org/dc/elements/1.1/" xmlns:rdf="http://www.w3.org/1999/02/22-rdf-syntax-ns#">
<metadata>
<rdf:RDF>
<cc:Work rdf:about="">
<dc:format>image/svg+xml</dc:format>
<dc:type rdf:resource="http://purl.org/dc/dcmitype/StillImage"/>
<dc:title/>
</cc:Work>
</rdf:RDF>
</metadata>
<path transform="scale(.26458)" d="m870.43 18.451c-20.953 1.4907-30.662 7.0768-35.812 14.324l-45.855 79.135c-26.534 38.189-90.518 33.463-144.07 30.336l-138.77-30.297 0.25977-1.627-10.795-2.4727-0.88282 1.6621-13.848-2.6445 0.4375-1.6367-17.984-3.0215-1.5391 1.168-15.113-2.8301-5.5176-4.4082 40.045-47.078-46.709 49.715-50.328-4.7656-0.32226-6.3379-9.6914 0.27344-2.2812 7.2246-38.377 2.873-0.375-2.002-12.717 0.96289-0.20508 2.1094c-48.079 6.6957-75.651 29.299-103.74 51.498l-23.893 2.3398c-38.328 4.3972-75.877 9.7466-112.3 19.801l-1.625-1.2305c-1.3255 0.47532-2.6671 0.93365-4.0039 1.3965 1.3422-3.2682-0.98555-28.643-12.604-79.92 1.6218 27.436 1.8686 53.965 5.1348 82.484-13.742 4.6752-27.358 9.4878-37.734 17.883 12.327 7.6203 25.73 11.877 39.457 15.129l0.03711 0.72852c-3.3186 27.885 2.0676 55.903 3.5703 85.119 2.7814-28.628 5.8536-55.015 3.8223-84.176 1.4069 0.30143 2.8125 0.60697 4.2227 0.89843l1.1758-3.3359c37.841 32.987 60.739 34.069 86.01 40.475l5.5137 12.725-61.295 32.793c-3.4105 2.4358-5.0479 5.4595-5.0156 9.0352-3.8584 3.5156-6.4032 7.1865-6.5312 11.148 0.79718 11.942 12.42 12.129 20.822 15.812l2.5547-0.12696a16.731 16.731 0 0 0 15.461 8.2637 16.731 16.731 0 0 0 14.193-9.7461l2.5996-0.13086 44.844-11.457 2.0098-10.623c-23.431-2.1431-46.42-11.442-69.877-11.18l66.344-35.611c7.5216 1.7466 15.088 3.0076 22.684 3.9512l1.4062-1.873 13.449 7.8574 5.0488-8.1797s-6.8668-4.0529-7.7285-4.9844c4.291 0.28131 9.4088 0.51919 14.879 0.73633l4.7324 8.4453 3.8418-0.05468 0.93164-8.0586c31.132 0.947 73.792 1.0618 108.08 0.47461l4.7559 30.895c0.36393 2.3201 1.0229 4.7573-2.1602 5.6777-15.158 2.325-26.572 12.196-26.244 21.455 0.37199 10.63 14.08 16.938 22.307 16.711l1.9883-0.12109a20.357 20.357 0 0 0 17.611 8.2324 20.357 20.357 0 0 0 16.465-10.305l4.0391-0.24609c16.978 1.7731 31.897-8.6985 48.205-10.447l1.666-10.836c-19.982-5.1154-37.873-13.075-59.969-15.314l0.72461-36.461c10.511-0.39835 18.782-0.89513 23.438-1.4863l15.158 16.283c0.92462 0.95146 4.316 1.1689 4.9785-0.83203l1.8555-7.9648 4.582-7.8691 31.559-2.8164 3.209-0.19531 16.639 29.4 7.0742-1.3242 0.13477-0.72461-2.0156-0.77148-14.893-27.182 16.322-2.2461 17.359 17.729-10.115-13.338c-3.2034-4.8039 0.46536-5.5548 4.0879-6.332 79.865-8.1698 158.9-28.44 285.56-34.545 3.2526 2.875 4.5964 6.5965 10.197 6.4473 3.1436 0.02063 5.0457-3.9077 7.9023-6.5957 17.771-1.7626 43.408-0.09115 52.346-27.162l22.311-3.3828-0.12305-2.0156-20.717 0.50195 4.8672-28.127 4.3457 0.74609 3.5781-20.205-3.3223-0.55664 22.711-113.21-34.436-0.43359zm-566.39 86.588c4.2036 0.04895 6.9886 1.0709 4.7637 5.5293l-18.635 43.008c-4.7054 9.5416-9.7421 7.8625-14.756 6.9688l-48.262-13.508c22.198-17.612 46.473-33.235 76.889-41.998zm93.9 2.2109c3.8098 0.38742 7.1584 1.4285 6.0781 8.7539l-12.699 41.203c-1.1494 3.4359-3.2218 6.3486-11.27 5.875l-62.668-0.83789c-5.8113-0.33738-6.6542-3.8615-4.6738-9.1973l15.357-38.684c1.6807-3.8444 5.0952-6.6328 12.453-7.0195l57.422-0.09375zm35.869 4.6348c1.141-0.02726 2.3538 0.02731 3.5996 0.11914l48.469 11.541c9.7928 2.794 20.311 5.0117 21.297 14.805-0.24926 15.381-11.641 20.579-27.482 21.709l-56.771 4.8867c-6.6624-0.15284-9.3382-4.0621-7.8789-11.865l11.49-37.553c1.0785-2.745 3.8543-3.5608 7.2774-3.6426z" stroke="#000" stroke-width="1px"/>
</svg>
