<?xml version="1.0" encoding="UTF-8"?>
<svg width="250mm" height="100mm" version="1.1" viewBox="0 0 250 100" xmlns="http://www.w3.org/2000/svg" xmlns:cc="http://creativecommons.org/ns#" xmlns:dc="http://purl.org/dc/elements/1.1/" xmlns:rdf="http://www.w3.org/1999/02/22-rdf-syntax-ns#">
<metadata>
<rdf:RDF>
<cc:Work rdf:about="">
<dc:format>image/svg+xml</dc:format>
<dc:type rdf:resource="http://purl.org/dc/dcmitype/StillImage"/>
<dc:title/>
</cc:Work>
</rdf:RDF>
</metadata>
<g transform="matrix(.96151 0 0 .96151 2.6951 -1.6272)" stroke="#000">
<path transform="matrix(.27517 0 0 .27517 -2.803 1.6923)" d="m788.89 17.266c-3.6817 0.02835-7.5962 0.93878-13.199 8.2676l-85.502 101.99c-7.4389 8.0542-27.108 21.152-52.195 24.039l-35.369 0.34375c-11.758-1.6721-22.454-3.2102-32.947-4.7188-4e-3 -0.0424-8e-3 -0.25195-8e-3 -0.25195l-3.6406-4.8555 20.396-31.809-30.141 34.994c-82.736-11.913-125.94-18.184-160.73-18.084-5.8061-0.27822-11.554-0.1344-17.256 0.31836l-0.19922-0.67773-3.8848-2.6719-0.97071-0.84765 12.99-36.789-21.729 42.668c-4.9914 0.23935-30.188 6.1068-31.849 6.7993-26.638 10.051-52.239 23.574-76.235 38.122l1.6118 1.8098c23.48-14.235 47.768-27.853 73.656-37.762l-33.918 56.205c-2.759 3.4718-5.8237 6.1804-9.8691 6.4356l-22.496-0.12305-7.8965-26.441c-51.375 4.1032-102.71 8.3905-152.81 18.199l-1.7148 1.7187h-4.8086l-9.6152-67.648 0.34375 69.709c-9.6837 4.6102-22.244 7.5514-23.43 16.697 1.3123 10.579 15.851 10.453 23.797 15.662l4.6133 52.934 5.4629-52.811 4.25 0.24219 1.457 2.5508h4.7344c10.296 12.128 19.312 26.631 33.873 30.838l4.0078 5.0977 5.3398 0.97266 2.4297 3.6426h5.4629l-0.99023-3.6953h30.008l-4.0644 15.166h-2.0078v1.6406h0.9707l-0.60547 5.0996c-23.674 2.1416-35.165 11.998-36.672 20.916 0.3972 7.9284 13.564 10.688 21.984 14.777l14.932 9.7129 16.633-7.5273 61.232-17.221 6.1816-16.654c0.32775-1.8626-0.38769-2.944-1.8906-3.4336l-61.982-1.0312-10.301-6.3516 1.5449-5.8379 1.0293-9.1016h66.227v4.0254h36.664v-3.8867h14.811l21.611 4.6152 3.6426 8.9844h4.6133l0.9707-7.7695 28.41-1.457-0.48633 12.383c-17.724 7.6678-29.491 17.725-32.416 26.832-1.2734 6.0485 9.755 10.858 17.176 13.105l4.6348-0.16992c3.923 10.227 10.937 13.253 19.789 14.008 11.21 0.0919 17.335-2.6934 20.734-11.262h3.2617l36.268-10.705 10.441-21.854-48.807-9.4688-2.4277-16.756 52.934-12.383-0.9082 26.225 4.0234 0.0703 2.9961-0.82813-1.498-1.1855v-24.768l12.627 9.4707 103.68-16.27 11.17-10.441 48.566-5.8262 3.1562 4.6113 27.682-5.582-0.72851-2.9141 170.41-23.129 35.027-4.8086-0.68554-7.2109-18.545-7.2109 20.262-5.1523v-1.7168l-50.822-6.8691-22.664 0.6875h-7.2109l51.967-120.15h4.3711l7.7695-17.482-3.8828-1.2148 6.7969-16.27-68.055-1.4727c-0.52072-0.01584-1.0424-0.03138-1.5684-0.02734zm-380.12 122.45c3.0556 0.32089 5.2843 1.4698 5.1524 4.9785l-6.5234 44.816c-0.86927 4.8404-4.1317 4.2985-6.6973 5.3223l-73.658 2.4023c-4.1888-0.76751-11.124-1.9563-7.5547-7.8965l20.604-36.914c3.4691-5.2706 5.5314-7.5438 11.332-8.4141l57.346-4.293zm25.926 1.0312 56.146 6.8711 13.908 17.855-78.297 25.926 5.8398-47.475c-0.12123-2.2888 1.1944-2.6612 2.4023-3.1777z" stroke-width="1.3264"/>
</g>
</svg>
